<svg width="90" height="20" viewBox="0 0 90 20" fill="none" xmlns="http://www.w3.org/2000/svg">
<path fill-rule="evenodd" clip-rule="evenodd" d="M76.3324 9.02124C76.1414 8.68351 75.9372 8.34413 75.72 8.00435C72.5893 3.1058 67.9399 -0.022689 65.3353 1.01668C62.7307 2.05605 63.1573 6.86969 66.288 11.7682C68.7584 15.6335 72.1743 18.3967 74.7851 18.8798C77.3488 19.5511 82.0224 17.0249 85.697 12.8636C89.6762 8.35749 90.977 3.64052 88.6026 2.32797C86.2282 1.01543 81.0776 3.60434 77.0985 8.11047C76.8309 8.41347 76.5754 8.71743 76.3324 9.02124Z" fill="#061E4C"/>
<path fill-rule="evenodd" clip-rule="evenodd" d="M44.5985 9.45337C44.4075 9.11564 44.2033 8.77626 43.9862 8.43648C40.8554 3.53792 36.206 0.40944 33.6014 1.44881C30.9968 2.48818 31.4234 7.30181 34.5541 12.2004C37.0245 16.0657 40.4404 18.8289 43.0512 19.3119C45.6149 19.9833 50.2885 17.457 53.9631 13.2957C57.9423 8.78961 59.2432 4.07265 56.8687 2.7601C54.4943 1.44756 49.3437 4.03647 45.3646 8.54259C45.097 8.8456 44.8415 9.14956 44.5985 9.45337Z" fill="#061E4C"/>
<path fill-rule="evenodd" clip-rule="evenodd" d="M13.1776 8.7688C12.9866 8.43107 12.7824 8.09169 12.5653 7.75191C9.43452 2.85335 4.78513 -0.27513 2.18054 0.764239C-0.42405 1.80361 0.00247532 6.61724 3.13321 11.5158C5.60358 15.3811 9.01951 18.1443 11.6303 18.6274C14.194 19.2987 18.8676 16.7724 22.5422 12.6112C26.5214 8.10504 27.8223 3.38808 25.4478 2.07553C23.0734 0.762986 17.9228 3.3519 13.9437 7.85802C13.6761 8.16103 13.4206 8.46499 13.1776 8.7688Z" fill="#061E4C"/>
</svg>
