<svg width="47" height="52" viewBox="0 0 47 52" fill="none" xmlns="http://www.w3.org/2000/svg">
<g filter="url(#filter0_d_98_3713)">
<path d="M21.76 44C19.66 38.72 17.98 35.72 10.6 25.58C5.86 19.1 4.06 14.84 4.06 10.46C4.06 5.18 8.62 0.859998 13.9 0.859998C17.62 0.859998 21.04 2.78 23.14 6.68C25.3 2.78 28.72 0.859998 32.5 0.859998C37.66 0.859998 42.34 5.18 42.34 10.46C42.34 14.72 40.84 18.74 35.8 25.64C28.36 35.84 26.56 39.02 24.58 44H21.76ZM23.14 38.78C24.64 35.72 27.28 31.7 30.82 26.84C34.36 21.98 36.58 18.44 37.54 16.34C38.5 14.24 38.98 12.26 38.98 10.46C38.98 7.04 35.98 4.22 32.5 4.22C29.02 4.22 26.08 7.22 24.7 12.2H21.64C20.14 6.8 17.2 4.22 13.9 4.22C10.48 4.22 7.42 7.04 7.42 10.46C7.42 12.2 7.9 14.12 8.8 16.22C9.7 18.32 11.92 21.74 15.4 26.48C18.88 31.16 21.46 35.3 23.14 38.78Z" fill="white"/>
</g>
<defs>
<filter id="filter0_d_98_3713" x="0.0605469" y="0.859985" width="46.2793" height="51.14" filterUnits="userSpaceOnUse" color-interpolation-filters="sRGB">
<feFlood flood-opacity="0" result="BackgroundImageFix"/>
<feColorMatrix in="SourceAlpha" type="matrix" values="0 0 0 0 0 0 0 0 0 0 0 0 0 0 0 0 0 0 127 0" result="hardAlpha"/>
<feOffset dy="4"/>
<feGaussianBlur stdDeviation="2"/>
<feComposite in2="hardAlpha" operator="out"/>
<feColorMatrix type="matrix" values="0 0 0 0 0 0 0 0 0 0 0 0 0 0 0 0 0 0 0.25 0"/>
<feBlend mode="normal" in2="BackgroundImageFix" result="effect1_dropShadow_98_3713"/>
<feBlend mode="normal" in="SourceGraphic" in2="effect1_dropShadow_98_3713" result="shape"/>
</filter>
</defs>
</svg>
