<svg width="268" height="445" viewBox="0 0 268 445" fill="none" xmlns="http://www.w3.org/2000/svg">
<path d="M170.391 103.016C168.239 106.518 169.31 111.076 172.767 113.201C176.225 115.325 180.775 114.219 182.927 110.717C185.078 107.215 184.008 102.657 180.55 100.532C177.093 98.4081 172.543 99.5135 170.391 103.016Z" fill="#061E4C" stroke="#061E4C"/>
<path d="M170.452 341.932C168.3 338.43 169.37 333.872 172.828 331.748C176.285 329.623 180.835 330.729 182.987 334.231C185.139 337.733 184.069 342.292 180.611 344.416C177.153 346.54 172.603 345.435 170.452 341.932Z" fill="white" stroke="white"/>
<path d="M82.7662 30.8795C80.9628 33.1179 79.768 35.4659 79.2796 37.4361C78.7803 39.4504 79.0557 40.8757 79.8747 41.5356C80.6938 42.1955 82.145 42.1613 84.007 41.2448C85.8282 40.3484 87.8682 38.6814 89.6716 36.4431C91.475 34.2047 92.6697 31.8568 93.1581 29.8866C93.6574 27.8722 93.3821 26.447 92.563 25.7871C91.7439 25.1272 90.2927 25.1614 88.4307 26.0778C86.6095 26.9742 84.5696 28.6412 82.7662 30.8795Z" fill="#061E4C" stroke="#061E4C"/>
<path d="M82.8267 414.069C81.0233 411.83 79.8286 409.482 79.3402 407.512C78.8409 405.498 79.1162 404.073 79.9353 403.413C80.7543 402.753 82.2056 402.787 84.0676 403.703C85.8887 404.6 87.9287 406.267 89.7321 408.505C91.5355 410.743 92.7303 413.091 93.2186 415.062C93.718 417.076 93.4426 418.501 92.6235 419.161C91.8045 419.821 90.3532 419.787 88.4913 418.87C86.6701 417.974 84.6301 416.307 82.8267 414.069Z" fill="white" stroke="white"/>
<path d="M85.8818 47.4452C85.7344 48.5693 86.4688 49.8245 88.0554 50.9355C89.6195 52.0309 91.9004 52.8957 94.5275 53.2403C97.1546 53.5849 99.5814 53.3375 101.375 52.6826C103.195 52.0184 104.228 50.995 104.375 49.8709C104.523 48.7468 103.788 47.4915 102.202 46.3805C100.638 45.2852 98.3567 44.4204 95.7296 44.0758C93.1025 43.7312 90.6757 43.9785 88.882 44.6334C87.0626 45.2977 86.0293 46.321 85.8818 47.4452Z" fill="#061E4C" stroke="#061E4C"/>
<path d="M85.9424 397.503C85.7949 396.379 86.5293 395.124 88.1159 394.013C89.6801 392.917 91.961 392.053 94.5881 391.708C97.2152 391.363 99.6419 391.611 101.436 392.266C103.255 392.93 104.288 393.953 104.436 395.077C104.583 396.201 103.849 397.457 102.262 398.568C100.698 399.663 98.4172 400.528 95.7901 400.872C93.163 401.217 90.7363 400.97 88.9426 400.315C87.1231 399.651 86.0898 398.627 85.9424 397.503Z" fill="white" stroke="white"/>
<path d="M61.7229 62.6047C60.3432 65.0952 59.6201 67.6129 59.5472 69.6561C59.4731 71.7303 60.0641 73.1573 61.1063 73.7347C62.1485 74.3121 63.6718 74.0564 65.391 72.8937C67.0846 71.7483 68.8357 69.8001 70.2154 67.3097C71.5952 64.8193 72.3183 62.3015 72.3912 60.2583C72.4652 58.1841 71.8742 56.7571 70.832 56.1797C69.7898 55.6023 68.2666 55.858 66.5474 57.0207C64.8538 58.1661 63.1027 60.1143 61.7229 62.6047Z" fill="#061E4C" stroke="#061E4C"/>
<path d="M61.7835 382.344C60.4038 379.853 59.6807 377.335 59.6077 375.292C59.5337 373.218 60.1247 371.791 61.1669 371.214C62.2091 370.636 63.7323 370.892 65.4516 372.055C67.1451 373.2 68.8962 375.148 70.276 377.639C71.6557 380.129 72.3788 382.647 72.4517 384.69C72.5258 386.764 71.9348 388.191 70.8926 388.769C69.8504 389.346 68.3272 389.09 66.6079 387.928C64.9143 386.782 63.1632 384.834 61.7835 382.344Z" fill="white" stroke="white"/>
<path d="M61.0577 24.5131C60.1971 25.1074 59.8239 26.5165 60.1896 28.5867C60.5469 30.6094 61.5867 33.0693 63.2432 35.4682C64.8998 37.867 66.8319 39.7107 68.5969 40.7614C70.4033 41.8366 71.8532 41.9867 72.7138 41.3924C73.5744 40.7982 73.9477 39.389 73.5819 37.3189C73.2246 35.2962 72.1849 32.8363 70.5283 30.4374C68.8718 28.0385 66.9396 26.1949 65.1746 25.1442C63.3683 24.0689 61.9183 23.9188 61.0577 24.5131ZM81.3374 56.1619C80.5017 56.739 80.2488 57.9698 80.764 59.8937C81.2678 61.7748 82.4595 64.0974 84.1312 66.5181C85.8025 68.9384 87.5957 70.9386 89.2218 72.138C90.0357 72.7384 90.7807 73.1179 91.4261 73.2659C92.0599 73.4113 92.5746 73.3306 92.9935 73.0413C93.8541 72.447 94.2274 71.0379 93.8616 68.9677C93.5043 66.945 92.4646 64.4851 90.808 62.0862C89.1514 59.6873 87.2193 57.8437 85.4543 56.793C83.648 55.7177 82.198 55.5676 81.3374 56.1619Z" fill="#061E4C" stroke="#061E4C"/>
<path d="M61.1183 420.435C60.2577 419.841 59.8844 418.432 60.2501 416.362C60.6075 414.339 61.6472 411.879 63.3038 409.48C64.9603 407.081 66.8925 405.238 68.6574 404.187C70.4638 403.112 71.9138 402.962 72.7744 403.556C73.635 404.15 74.0082 405.559 73.6425 407.629C73.2852 409.652 72.2454 412.112 70.5889 414.511C68.9323 416.91 67.0002 418.753 65.2352 419.804C63.4288 420.879 61.9788 421.029 61.1183 420.435ZM81.3979 388.786C80.5623 388.209 80.3094 386.978 80.8246 385.055C81.3283 383.173 82.5201 380.851 84.1917 378.43C85.863 376.01 87.6562 374.01 89.2823 372.81C90.0962 372.21 90.8413 371.83 91.4867 371.682C92.1204 371.537 92.6351 371.618 93.0541 371.907C93.9147 372.501 94.2879 373.91 93.9222 375.981C93.5649 378.003 92.5251 380.463 90.8685 382.862C89.212 385.261 87.2799 387.105 85.5149 388.155C83.7085 389.231 82.2585 389.381 81.3979 388.786Z" fill="white" stroke="white"/>
<path d="M48.6432 46.7245C48.6 47.1677 48.754 47.646 49.1428 48.1468C49.5339 48.6505 50.1454 49.1521 50.9547 49.6131C52.5721 50.5346 54.8965 51.2463 57.5421 51.5038C60.1877 51.7614 62.6057 51.5113 64.3705 50.9191C65.2535 50.6228 65.9503 50.2485 66.4312 49.8297C66.9093 49.4133 67.1526 48.9737 67.1957 48.5305C67.2389 48.0874 67.0849 47.6091 66.6961 47.1083C66.305 46.6046 65.6935 46.103 64.8842 45.6419C63.2668 44.7205 60.9424 44.0088 58.2968 43.7513C55.6512 43.4937 53.2332 43.7438 51.4684 44.336C50.5854 44.6323 49.8886 45.0066 49.4077 45.4254C48.9296 45.8418 48.6863 46.2814 48.6432 46.7245Z" fill="#061E4C" stroke="#061E4C"/>
<path d="M48.7037 398.224C48.6606 397.781 48.8146 397.302 49.2034 396.801C49.5944 396.298 50.2059 395.796 51.0152 395.335C52.6327 394.414 54.957 393.702 57.6027 393.444C60.2483 393.187 62.6663 393.437 64.4311 394.029C65.3141 394.325 66.0108 394.7 66.4917 395.119C66.9698 395.535 67.2131 395.975 67.2563 396.418C67.2994 396.861 67.1454 397.339 66.7566 397.84C66.3656 398.344 65.7541 398.845 64.9448 399.306C63.3273 400.228 61.003 400.939 58.3573 401.197C55.7117 401.455 53.2937 401.204 51.5289 400.612C50.6459 400.316 49.9492 399.942 49.4683 399.523C48.9902 399.106 48.7469 398.667 48.7037 398.224Z" fill="white" stroke="white"/>
<path d="M72.8978 46.9833C72.0248 48.4043 72.6437 50.5382 74.5354 51.7004C76.427 52.8625 78.6103 52.4502 79.4832 51.0293C80.3562 49.6084 79.7373 47.4744 77.8457 46.3122C75.9541 45.1501 73.7708 45.5624 72.8978 46.9833Z" fill="#061E4C" stroke="#061E4C"/>
<path d="M72.9584 397.965C72.0854 396.544 72.7043 394.41 74.5959 393.248C76.4875 392.086 78.6708 392.498 79.5438 393.919C80.4168 395.34 79.7979 397.474 77.9062 398.636C76.0146 399.798 73.8313 399.386 72.9584 397.965Z" fill="white" stroke="white"/>
<mask id="path-15-inside-1_601_16978" fill="white">
<path fill-rule="evenodd" clip-rule="evenodd" d="M227.952 66.79C228.149 64.892 226.781 63.2148 224.882 63.0278C216.573 62.2096 207.898 64.5778 200.854 70.3184C193.777 76.0862 189.701 84.1534 188.852 92.4978C188.659 94.3961 190.031 96.0701 191.931 96.2534C200.237 97.0549 208.901 94.6812 215.938 88.9463C223.008 83.1843 227.087 75.1294 227.952 66.79Z"/>
</mask>
<path fill-rule="evenodd" clip-rule="evenodd" d="M227.952 66.79C228.149 64.892 226.781 63.2148 224.882 63.0278C216.573 62.2096 207.898 64.5778 200.854 70.3184C193.777 76.0862 189.701 84.1534 188.852 92.4978C188.659 94.3961 190.031 96.0701 191.931 96.2534C200.237 97.0549 208.901 94.6812 215.938 88.9463C223.008 83.1843 227.087 75.1294 227.952 66.79Z" fill="#061E4C"/>
<path d="M188.852 92.4978L187.857 92.3965L188.852 92.4978ZM224.882 63.0278L224.784 64.023L224.882 63.0278ZM227.952 66.79L228.947 66.8932L227.952 66.79ZM224.784 64.023C216.73 63.2298 208.319 65.5248 201.486 71.0936L200.222 69.5433C207.477 63.6307 216.417 61.1893 224.98 62.0326L224.784 64.023ZM201.486 71.0936C194.62 76.6886 190.67 84.5104 189.847 92.599L187.857 92.3965C188.732 83.7964 192.933 75.4837 200.222 69.5433L201.486 71.0936ZM192.027 95.258C200.079 96.0351 208.48 93.7345 215.306 88.1711L216.57 89.7215C209.322 95.628 200.395 98.0748 191.834 97.2488L192.027 95.258ZM215.306 88.1711C222.165 82.5815 226.119 74.7713 226.958 66.6867L228.947 66.8932C228.055 75.4875 223.852 83.7871 216.57 89.7215L215.306 88.1711ZM189.847 92.599C189.71 93.9456 190.679 95.128 192.027 95.258L191.834 97.2488C189.384 97.0123 187.608 94.8465 187.857 92.3965L189.847 92.599ZM224.98 62.0326C227.431 62.2739 229.201 64.4441 228.947 66.8932L226.958 66.6867C227.098 65.34 226.131 64.1556 224.784 64.023L224.98 62.0326Z" fill="#061E4C" mask="url(#path-15-inside-1_601_16978)"/>
<mask id="path-17-inside-2_601_16978" fill="white">
<path fill-rule="evenodd" clip-rule="evenodd" d="M228.013 378.158C228.21 380.056 226.841 381.733 224.942 381.92C216.634 382.739 207.959 380.37 200.915 374.63C193.837 368.862 189.762 360.795 188.912 352.45C188.719 350.552 190.092 348.878 191.991 348.695C200.298 347.893 208.962 350.267 215.999 356.002C223.069 361.764 227.148 369.819 228.013 378.158Z"/>
</mask>
<path fill-rule="evenodd" clip-rule="evenodd" d="M228.013 378.158C228.21 380.056 226.841 381.733 224.942 381.92C216.634 382.739 207.959 380.37 200.915 374.63C193.837 368.862 189.762 360.795 188.912 352.45C188.719 350.552 190.092 348.878 191.991 348.695C200.298 347.893 208.962 350.267 215.999 356.002C223.069 361.764 227.148 369.819 228.013 378.158Z" fill="white"/>
<path d="M188.912 352.45L189.907 352.349L188.912 352.45ZM224.844 380.925C216.791 381.718 208.38 379.423 201.546 373.855L200.283 375.405C207.538 381.318 216.477 383.759 225.04 382.916L224.844 380.925ZM201.546 373.855C194.681 368.26 190.731 360.438 189.907 352.349L187.918 352.552C188.793 361.152 192.993 369.465 200.283 375.405L201.546 373.855ZM192.087 349.69C200.14 348.913 208.54 351.214 215.367 356.777L216.63 355.227C209.383 349.32 200.456 346.873 191.895 347.699L192.087 349.69ZM215.367 356.777C222.226 362.367 226.179 370.177 227.018 378.262L229.008 378.055C228.116 369.461 223.912 361.161 216.63 355.227L215.367 356.777ZM189.907 352.349C189.77 351.003 190.739 349.82 192.087 349.69L191.895 347.699C189.444 347.936 187.668 350.102 187.918 352.552L189.907 352.349ZM225.04 382.916C227.491 382.674 229.262 380.504 229.008 378.055L227.018 378.262C227.158 379.608 226.191 380.793 224.844 380.925L225.04 382.916Z" fill="white" mask="url(#path-17-inside-2_601_16978)"/>
<mask id="path-19-inside-3_601_16978" fill="white">
<path fill-rule="evenodd" clip-rule="evenodd" d="M194.101 113.105C193.055 111.39 193.662 109.197 195.424 108.321C202.206 104.951 210.475 104.091 218.662 106.536C226.848 108.982 233.415 114.273 237.441 120.871C238.486 122.586 237.88 124.779 236.118 125.655C229.336 129.025 221.066 129.885 212.88 127.44C204.694 124.994 198.126 119.703 194.101 113.105Z"/>
</mask>
<path fill-rule="evenodd" clip-rule="evenodd" d="M194.101 113.105C193.055 111.39 193.662 109.197 195.424 108.321C202.206 104.951 210.475 104.091 218.662 106.536C226.848 108.982 233.415 114.273 237.441 120.871C238.486 122.586 237.88 124.779 236.118 125.655C229.336 129.025 221.066 129.885 212.88 127.44C204.694 124.994 198.126 119.703 194.101 113.105Z" fill="#061E4C"/>
<path d="M194.101 113.105L193.257 113.622L194.101 113.105ZM218.395 107.5C210.449 105.126 202.435 105.965 195.875 109.225L194.972 107.417C201.976 103.937 210.502 103.055 218.928 105.572L218.395 107.5ZM236.597 121.388C232.703 115.006 226.341 109.874 218.395 107.5L218.928 105.572C227.354 108.09 234.128 113.541 238.285 120.354L236.597 121.388ZM213.146 126.476C221.093 128.85 229.106 128.012 235.667 124.751L236.569 126.559C229.566 130.039 221.04 130.921 212.613 128.404L213.146 126.476ZM194.945 112.588C198.839 118.97 205.2 124.102 213.146 126.476L212.613 128.404C204.187 125.886 197.413 120.435 193.257 113.622L194.945 112.588ZM238.285 120.354C239.639 122.574 238.851 125.425 236.569 126.559L235.667 124.751C236.909 124.134 237.334 122.597 236.597 121.388L238.285 120.354ZM195.875 109.225C194.632 109.842 194.208 111.379 194.945 112.588L193.257 113.622C191.903 111.402 192.691 108.551 194.972 107.417L195.875 109.225Z" fill="#061E4C" mask="url(#path-19-inside-3_601_16978)"/>
<mask id="path-21-inside-4_601_16978" fill="white">
<path fill-rule="evenodd" clip-rule="evenodd" d="M194.161 331.844C193.116 333.558 193.722 335.751 195.484 336.627C202.266 339.998 210.536 340.858 218.722 338.412C226.908 335.967 233.476 330.675 237.501 324.077C238.547 322.363 237.94 320.169 236.178 319.293C229.396 315.923 221.127 315.063 212.94 317.508C204.754 319.954 198.186 325.246 194.161 331.844Z"/>
</mask>
<path fill-rule="evenodd" clip-rule="evenodd" d="M194.161 331.844C193.116 333.558 193.722 335.751 195.484 336.627C202.266 339.998 210.536 340.858 218.722 338.412C226.908 335.967 233.476 330.675 237.501 324.077C238.547 322.363 237.94 320.169 236.178 319.293C229.396 315.923 221.127 315.063 212.94 317.508C204.754 319.954 198.186 325.246 194.161 331.844Z" fill="white"/>
<path d="M237.501 324.077L236.657 323.56L237.501 324.077ZM194.161 331.844L193.317 331.327L194.161 331.844ZM218.456 337.448C210.509 339.822 202.496 338.984 195.935 335.723L195.033 337.531C202.036 341.011 210.562 341.893 218.989 339.376L218.456 337.448ZM236.657 323.56C232.763 329.943 226.402 335.075 218.456 337.448L218.989 339.376C227.415 336.859 234.189 331.407 238.345 324.594L236.657 323.56ZM213.207 318.472C221.153 316.098 229.167 316.937 235.727 320.197L236.63 318.39C229.626 314.909 221.1 314.027 212.674 316.545L213.207 318.472ZM195.005 332.36C198.899 325.978 205.261 320.846 213.207 318.472L212.674 316.545C204.247 319.062 197.474 324.513 193.317 331.327L195.005 332.36ZM238.345 324.594C239.699 322.374 238.911 319.524 236.63 318.39L235.727 320.197C236.969 320.815 237.394 322.351 236.657 323.56L238.345 324.594ZM195.935 335.723C194.693 335.106 194.268 333.569 195.005 332.36L193.317 331.327C191.963 333.547 192.751 336.397 195.033 337.531L195.935 335.723Z" fill="white" mask="url(#path-21-inside-4_601_16978)"/>
<mask id="path-23-inside-5_601_16978" fill="white">
<path fill-rule="evenodd" clip-rule="evenodd" d="M131.101 146.679C131.145 148.517 132.659 149.968 134.528 149.965C142.273 149.954 149.96 147.03 155.741 141.199C161.521 135.37 164.299 127.742 164.115 120.13C164.071 118.292 162.557 116.841 160.688 116.844C152.943 116.855 145.256 119.779 139.475 125.61C133.695 131.439 130.917 139.067 131.101 146.679Z"/>
</mask>
<path fill-rule="evenodd" clip-rule="evenodd" d="M131.101 146.679C131.145 148.517 132.659 149.968 134.528 149.965C142.273 149.954 149.96 147.03 155.741 141.199C161.521 135.37 164.299 127.742 164.115 120.13C164.071 118.292 162.557 116.841 160.688 116.844C152.943 116.855 145.256 119.779 139.475 125.61C133.695 131.439 130.917 139.067 131.101 146.679Z" fill="#061E4C"/>
<path d="M164.115 120.13L165.123 120.106L164.115 120.13ZM131.101 146.679L132.109 146.655L131.101 146.679ZM134.527 148.973C142.015 148.963 149.437 146.137 155.019 140.507L156.463 141.891C150.482 147.923 142.532 150.945 134.53 150.957L134.527 148.973ZM155.019 140.507C160.6 134.878 163.285 127.513 163.107 120.154L165.123 120.106C165.314 127.971 162.442 135.861 156.463 141.891L155.019 140.507ZM160.689 117.835C153.201 117.846 145.779 120.672 140.197 126.302L138.753 124.918C144.734 118.886 152.684 115.864 160.686 115.852L160.689 117.835ZM140.197 126.302C134.616 131.93 131.931 139.296 132.109 146.655L130.093 146.703C129.902 138.838 132.774 130.948 138.753 124.918L140.197 126.302ZM163.107 120.154C163.076 118.855 162.01 117.833 160.689 117.835L160.686 115.852C163.104 115.849 165.066 117.729 165.123 120.106L163.107 120.154ZM134.53 150.957C132.112 150.96 130.15 149.079 130.093 146.703L132.109 146.655C132.14 147.954 133.206 148.975 134.527 148.973L134.53 150.957Z" fill="#061E4C" mask="url(#path-23-inside-5_601_16978)"/>
<mask id="path-25-inside-6_601_16978" fill="white">
<path fill-rule="evenodd" clip-rule="evenodd" d="M131.161 298.27C131.206 296.432 132.719 294.981 134.589 294.983C142.334 294.994 150.02 297.919 155.801 303.749C161.582 309.579 164.36 317.206 164.176 324.818C164.131 326.656 162.618 328.107 160.748 328.104C153.003 328.093 145.317 325.169 139.536 319.339C133.755 313.509 130.977 305.881 131.161 298.27Z"/>
</mask>
<path fill-rule="evenodd" clip-rule="evenodd" d="M131.161 298.27C131.206 296.432 132.719 294.981 134.589 294.983C142.334 294.994 150.02 297.919 155.801 303.749C161.582 309.579 164.36 317.206 164.176 324.818C164.131 326.656 162.618 328.107 160.748 328.104C153.003 328.093 145.317 325.169 139.536 319.339C133.755 313.509 130.977 305.881 131.161 298.27Z" fill="white"/>
<path d="M164.176 324.818L165.184 324.842L164.176 324.818ZM134.589 294.983L134.59 293.992L134.589 294.983ZM131.161 298.27L130.153 298.246L131.161 298.27ZM134.588 295.975C142.075 295.985 149.497 298.811 155.08 304.441L156.523 303.057C150.543 297.026 142.592 294.003 134.59 293.992L134.588 295.975ZM155.08 304.441C160.661 310.07 163.346 317.435 163.168 324.794L165.184 324.842C165.374 316.977 162.503 309.087 156.523 303.057L155.08 304.441ZM160.749 327.113C153.262 327.102 145.84 324.276 140.258 318.647L138.814 320.031C144.794 326.062 152.745 329.085 160.747 329.096L160.749 327.113ZM140.258 318.647C134.676 313.018 131.991 305.652 132.169 298.294L130.153 298.246C129.963 306.11 132.834 314 138.814 320.031L140.258 318.647ZM163.168 324.794C163.136 326.093 162.071 327.115 160.749 327.113L160.747 329.096C163.165 329.099 165.126 327.219 165.184 324.842L163.168 324.794ZM134.59 293.992C132.172 293.988 130.211 295.869 130.153 298.246L132.169 298.294C132.201 296.994 133.266 295.973 134.588 295.975L134.59 293.992Z" fill="white" mask="url(#path-25-inside-6_601_16978)"/>
<mask id="path-27-inside-7_601_16978" fill="white">
<path fill-rule="evenodd" clip-rule="evenodd" d="M161.401 48.4545C159.663 47.4719 157.511 48.1008 156.667 49.8376C153.299 56.7685 152.573 65.1735 155.284 73.4267C157.995 81.6799 163.634 88.2252 170.566 92.1463C172.304 93.1289 174.456 92.5 175.3 90.7632C178.668 83.8323 179.394 75.4273 176.683 67.1741C173.972 58.9209 168.334 52.3756 161.401 48.4545Z"/>
</mask>
<path fill-rule="evenodd" clip-rule="evenodd" d="M161.401 48.4545C159.663 47.4719 157.511 48.1008 156.667 49.8376C153.299 56.7685 152.573 65.1735 155.284 73.4267C157.995 81.6799 163.634 88.2252 170.566 92.1463C172.304 93.1289 174.456 92.5 175.3 90.7632C178.668 83.8323 179.394 75.4273 176.683 67.1741C173.972 58.9209 168.334 52.3756 161.401 48.4545Z" fill="#061E4C"/>
<path d="M170.566 92.1463L171.052 91.2914L170.566 92.1463ZM175.3 90.7632L174.387 90.3171L175.3 90.7632ZM161.401 48.4545L161.887 47.5996L161.401 48.4545ZM157.581 50.2837C154.321 56.9918 153.613 65.1372 156.244 73.1463L154.324 73.7072C151.533 65.2099 152.278 56.5452 155.754 49.3915L157.581 50.2837ZM156.244 73.1463C158.875 81.1554 164.342 87.4963 171.052 91.2914L170.08 93.0012C162.925 88.9541 157.116 82.2045 154.324 73.7072L156.244 73.1463ZM174.387 90.3171C177.646 83.609 178.354 75.4636 175.723 67.4545L177.643 66.8936C180.434 75.3909 179.689 84.0556 176.213 91.2093L174.387 90.3171ZM175.723 67.4545C173.092 59.4455 167.625 53.1045 160.915 49.3094L161.887 47.5996C169.042 51.6467 174.851 58.3963 177.643 66.8936L175.723 67.4545ZM171.052 91.2914C172.279 91.9854 173.791 91.5438 174.387 90.3171L176.213 91.2093C175.121 93.4563 172.328 94.2724 170.08 93.0012L171.052 91.2914ZM155.754 49.3915C156.846 47.1446 159.639 46.3284 161.887 47.5996L160.915 49.3094C159.688 48.6155 158.177 49.0571 157.581 50.2837L155.754 49.3915Z" fill="#061E4C" mask="url(#path-27-inside-7_601_16978)"/>
<mask id="path-29-inside-8_601_16978" fill="white">
<path fill-rule="evenodd" clip-rule="evenodd" d="M164.535 399.139C162.855 400.216 160.671 399.706 159.733 398.018C155.989 391.283 154.801 382.931 157.055 374.541C159.308 366.151 164.577 359.306 171.284 355.009C172.965 353.933 175.148 354.442 176.087 356.13C179.83 362.865 181.018 371.217 178.765 379.607C176.512 387.997 171.242 394.843 164.535 399.139Z"/>
</mask>
<path fill-rule="evenodd" clip-rule="evenodd" d="M164.535 399.139C162.855 400.216 160.671 399.706 159.733 398.018C155.989 391.283 154.801 382.931 157.055 374.541C159.308 366.151 164.577 359.306 171.284 355.009C172.965 353.933 175.148 354.442 176.087 356.13C179.83 362.865 181.018 371.217 178.765 379.607C176.512 387.997 171.242 394.843 164.535 399.139Z" fill="white"/>
<path d="M171.284 355.009L171.816 355.836L171.284 355.009ZM176.087 356.13L176.974 355.634L176.087 356.13ZM164.535 399.139L165.068 399.966L164.535 399.139ZM160.62 397.523C156.997 391.004 155.842 382.91 158.028 374.768L156.081 374.314C153.761 382.952 154.981 391.562 158.846 398.514L160.62 397.523ZM158.028 374.768C160.215 366.627 165.325 359.994 171.816 355.836L170.752 354.182C163.83 358.617 158.401 365.676 156.081 374.314L158.028 374.768ZM175.199 356.626C178.823 363.144 179.978 371.238 177.791 379.38L179.739 379.835C182.059 371.197 180.838 362.586 176.974 355.634L175.199 356.626ZM177.791 379.38C175.604 387.522 170.494 394.154 164.003 398.312L165.068 399.966C171.99 395.531 177.419 388.472 179.739 379.835L177.791 379.38ZM171.816 355.836C173.003 355.076 174.537 355.434 175.199 356.626L176.974 355.634C175.76 353.451 172.926 352.789 170.752 354.182L171.816 355.836ZM158.846 398.514C160.059 400.697 162.893 401.359 165.068 399.966L164.003 398.312C162.816 399.073 161.283 398.715 160.62 397.523L158.846 398.514Z" fill="white" mask="url(#path-29-inside-8_601_16978)"/>
<mask id="path-31-inside-9_601_16978" fill="white">
<path fill-rule="evenodd" clip-rule="evenodd" d="M115.539 83.8303C113.521 84.5749 112.802 87.0172 114.062 88.8477C118.347 95.0744 125.098 100.261 133.401 103.01C141.701 105.758 150.032 105.568 156.895 103.036C158.913 102.291 159.632 99.8489 158.372 98.0184C154.086 91.7917 147.335 86.6054 139.033 83.8561C130.733 81.1077 122.402 81.2979 115.539 83.8303Z"/>
</mask>
<path fill-rule="evenodd" clip-rule="evenodd" d="M115.539 83.8303C113.521 84.5749 112.802 87.0172 114.062 88.8477C118.347 95.0744 125.098 100.261 133.401 103.01C141.701 105.758 150.032 105.568 156.895 103.036C158.913 102.291 159.632 99.8489 158.372 98.0184C154.086 91.7917 147.335 86.6054 139.033 83.8561C130.733 81.1077 122.402 81.2979 115.539 83.8303Z" fill="#061E4C"/>
<path d="M158.372 98.0184L159.178 97.4541L158.372 98.0184ZM114.062 88.8477L114.867 88.2833L114.062 88.8477ZM114.867 88.2833C119.018 94.3139 125.58 99.3674 133.683 102.051L133.119 103.969C124.617 101.154 117.677 95.835 113.256 89.412L114.867 88.2833ZM133.683 102.051C141.784 104.733 149.888 104.538 156.535 102.086L157.254 103.986C150.175 106.598 141.618 106.784 133.119 103.969L133.683 102.051ZM157.566 98.5828C153.416 92.5522 146.854 87.4987 138.75 84.8154L139.315 82.8968C147.817 85.7121 154.757 91.0312 159.178 97.4541L157.566 98.5828ZM138.75 84.8154C130.65 82.133 122.545 82.328 115.899 84.7806L115.179 82.8799C122.258 80.2678 130.816 80.0824 139.315 82.8968L138.75 84.8154ZM156.535 102.086C157.951 101.563 158.45 99.8672 157.566 98.5828L159.178 97.4541C160.813 99.8306 159.874 103.02 157.254 103.986L156.535 102.086ZM113.256 89.412C111.62 87.0356 112.559 83.8466 115.179 82.8799L115.899 84.7806C114.483 85.3031 113.983 86.9989 114.867 88.2833L113.256 89.412Z" fill="#061E4C" mask="url(#path-31-inside-9_601_16978)"/>
<mask id="path-33-inside-10_601_16978" fill="white">
<path fill-rule="evenodd" clip-rule="evenodd" d="M115.6 361.118C113.582 360.373 112.862 357.931 114.122 356.101C118.408 349.874 125.159 344.688 133.462 341.938C141.762 339.19 150.092 339.38 156.955 341.912C158.973 342.657 159.692 345.099 158.432 346.93C154.147 353.157 147.396 358.343 139.093 361.092C130.793 363.841 122.462 363.65 115.6 361.118Z"/>
</mask>
<path fill-rule="evenodd" clip-rule="evenodd" d="M115.6 361.118C113.582 360.373 112.862 357.931 114.122 356.101C118.408 349.874 125.159 344.688 133.462 341.938C141.762 339.19 150.092 339.38 156.955 341.912C158.973 342.657 159.692 345.099 158.432 346.93C154.147 353.157 147.396 358.343 139.093 361.092C130.793 363.841 122.462 363.65 115.6 361.118Z" fill="white"/>
<path d="M114.928 356.665C119.078 350.634 125.641 345.581 133.744 342.898L133.179 340.979C124.677 343.794 117.737 349.113 113.317 355.536L114.928 356.665ZM133.744 342.898C141.845 340.215 149.949 340.41 156.596 342.863L157.315 340.962C150.236 338.35 141.679 338.164 133.179 340.979L133.744 342.898ZM157.627 346.365C153.476 352.396 146.914 357.45 138.811 360.133L139.375 362.051C147.878 359.236 154.817 353.917 159.238 347.494L157.627 346.365ZM138.811 360.133C130.71 362.815 122.606 362.62 115.959 360.168L115.24 362.068C122.319 364.68 130.876 364.866 139.375 362.051L138.811 360.133ZM156.596 342.863C158.012 343.385 158.511 345.081 157.627 346.365L159.238 347.494C160.874 345.118 159.935 341.929 157.315 340.962L156.596 342.863ZM113.317 355.536C111.681 357.913 112.62 361.102 115.24 362.068L115.959 360.168C114.543 359.645 114.044 357.949 114.928 356.665L113.317 355.536Z" fill="white" mask="url(#path-33-inside-10_601_16978)"/>
<mask id="path-35-inside-11_601_16978" fill="white">
<path fill-rule="evenodd" clip-rule="evenodd" d="M198.048 162.256C197.225 163.961 195.122 164.605 193.38 163.685C186.296 159.944 180.491 153.563 177.642 145.425C174.792 137.287 175.438 128.931 178.785 121.997C179.608 120.292 181.711 119.648 183.452 120.568C190.537 124.309 196.342 130.69 199.191 138.828C202.04 146.966 201.395 155.322 198.048 162.256Z"/>
</mask>
<path fill-rule="evenodd" clip-rule="evenodd" d="M198.048 162.256C197.225 163.961 195.122 164.605 193.38 163.685C186.296 159.944 180.491 153.563 177.642 145.425C174.792 137.287 175.438 128.931 178.785 121.997C179.608 120.292 181.711 119.648 183.452 120.568C190.537 124.309 196.342 130.69 199.191 138.828C202.04 146.966 201.395 155.322 198.048 162.256Z" fill="#061E4C"/>
<path d="M178.785 121.997L179.702 122.441L178.785 121.997ZM178.598 145.132C181.36 153.02 186.983 159.199 193.839 162.819L192.921 164.551C185.608 160.689 179.622 154.105 176.685 145.717L178.598 145.132ZM179.702 122.441C176.463 129.152 175.836 137.243 178.598 145.132L176.685 145.717C173.749 137.33 174.412 128.71 177.867 121.552L179.702 122.441ZM198.235 139.121C195.473 131.232 189.85 125.054 182.994 121.434L183.911 119.702C191.224 123.564 197.211 130.148 200.147 138.536L198.235 139.121ZM197.13 161.811C200.369 155.101 200.997 147.009 198.235 139.121L200.147 138.536C203.084 146.923 202.421 155.543 198.966 162.701L197.13 161.811ZM177.867 121.552C178.931 119.348 181.659 118.513 183.911 119.702L182.994 121.434C181.762 120.784 180.284 121.236 179.702 122.441L177.867 121.552ZM193.839 162.819C195.07 163.469 196.549 163.016 197.13 161.811L198.966 162.701C197.901 164.905 195.174 165.74 192.921 164.551L193.839 162.819Z" fill="#061E4C" mask="url(#path-35-inside-11_601_16978)"/>
<mask id="path-37-inside-12_601_16978" fill="white">
<path fill-rule="evenodd" clip-rule="evenodd" d="M198.108 282.692C197.286 280.987 195.183 280.344 193.441 281.263C186.356 285.004 180.551 291.386 177.702 299.524C174.853 307.662 175.498 316.017 178.845 322.951C179.668 324.656 181.771 325.3 183.513 324.38C190.597 320.639 196.402 314.258 199.252 306.12C202.101 297.982 201.455 289.626 198.108 282.692Z"/>
</mask>
<path fill-rule="evenodd" clip-rule="evenodd" d="M198.108 282.692C197.286 280.987 195.183 280.344 193.441 281.263C186.356 285.004 180.551 291.386 177.702 299.524C174.853 307.662 175.498 316.017 178.845 322.951C179.668 324.656 181.771 325.3 183.513 324.38C190.597 320.639 196.402 314.258 199.252 306.12C202.101 297.982 201.455 289.626 198.108 282.692Z" fill="white"/>
<path d="M178.658 299.816C181.42 291.928 187.044 285.75 193.9 282.129L192.982 280.398C185.669 284.259 179.682 290.843 176.746 299.231L178.658 299.816ZM179.763 322.507C176.524 315.796 175.896 307.705 178.658 299.816L176.746 299.231C173.809 307.619 174.473 316.238 177.928 323.396L179.763 322.507ZM198.295 305.827C195.534 313.716 189.91 319.894 183.054 323.514L183.972 325.246C191.285 321.385 197.271 314.8 200.208 306.413L198.295 305.827ZM197.191 283.137C200.43 289.847 201.057 297.939 198.295 305.827L200.208 306.413C203.144 298.025 202.481 289.405 199.026 282.248L197.191 283.137ZM177.928 323.396C178.992 325.601 181.719 326.436 183.972 325.246L183.054 323.514C181.823 324.164 180.345 323.712 179.763 322.507L177.928 323.396ZM193.9 282.129C195.131 281.479 196.609 281.932 197.191 283.137L199.026 282.248C197.962 280.043 195.235 279.208 192.982 280.398L193.9 282.129Z" fill="white" mask="url(#path-37-inside-12_601_16978)"/>
<path d="M144.85 116.655C143.393 118.073 141.631 117.888 139.606 117.562C134.558 116.747 129.774 116.425 124.715 116.453C118.408 116.487 112.841 116.231 107.475 119.57C101.479 123.302 94.1386 125.442 87.6081 128.248C81.2434 130.982 74.8083 136.496 69.5859 140.856C57.2213 151.18 47.2711 162.124 37.9633 175.141C31.999 183.481 26.0346 191.822 20.0703 200.163" stroke="#061E4C" stroke-width="3" stroke-linecap="round"/>
<path d="M144.91 328.293C143.454 326.875 141.692 327.06 139.667 327.387C134.619 328.201 129.834 328.523 124.775 328.495C118.469 328.461 112.902 328.717 107.536 325.378C101.54 321.646 94.1992 319.506 87.6686 316.701C81.3039 313.967 74.8689 308.452 69.6465 304.092C57.2818 293.769 47.3317 282.824 38.0239 269.808C32.0595 261.467 26.0952 253.126 20.1308 244.785" stroke="white" stroke-width="3" stroke-linecap="round"/>
<path d="M145.377 117.332C144.312 118.821 142.637 119.941 140.66 118.995C139.646 118.51 138.578 118.965 137.474 118.688C136.2 118.367 135.272 118.443 134.014 118.363C131.143 118.182 128.356 117.305 125.403 117.382C123.985 117.418 122.519 117.229 121.077 117.235C120.178 117.238 118.634 117.557 117.899 117.032" stroke="#061E4C" stroke-width="3" stroke-linecap="round"/>
<path d="M145.438 327.617C144.372 326.127 142.698 325.008 140.72 325.954C139.707 326.438 138.638 325.983 137.535 326.261C136.26 326.581 135.332 326.506 134.074 326.585C131.203 326.766 128.417 327.643 125.464 327.567C124.046 327.53 122.579 327.719 121.138 327.714C120.238 327.71 118.694 327.391 117.96 327.916" stroke="white" stroke-width="3" stroke-linecap="round"/>
<path d="M145.459 116.686C145.803 117.901 142.141 119.368 142.007 117.571C141.977 117.171 142.292 116.906 142.49 116.602C142.875 116.009 141.377 116.412 140.94 116.357C138.517 116.05 135.696 116.542 133.182 116.379" stroke="#061E4C" stroke-width="3" stroke-linecap="round"/>
<path d="M145.52 328.263C145.864 327.047 142.202 325.58 142.068 327.377C142.038 327.777 142.352 328.042 142.55 328.346C142.935 328.939 141.437 328.536 141 328.592C138.578 328.898 135.757 328.406 133.242 328.569" stroke="white" stroke-width="3" stroke-linecap="round"/>
<path d="M79.5607 133.996C81.8643 130.774 84.6452 127.823 85.5357 123.867C86.8232 118.147 85.4278 111.941 84.446 106.074C83.7145 101.702 84.3634 97.372 83.2682 92.9762C82.4497 89.6911 81.8838 85.7451 80.0889 82.8645" stroke="#061E4C" stroke-width="3" stroke-linecap="round"/>
<path d="M79.6213 310.953C81.9248 314.174 84.7058 317.126 85.5962 321.081C86.8837 326.801 85.4883 333.008 84.5066 338.875C83.7751 343.246 84.4239 347.576 83.3287 351.972C82.5103 355.257 81.9443 359.203 80.1495 362.084" stroke="white" stroke-width="3" stroke-linecap="round"/>
<path d="M83.4033 127.785C90.5536 121.672 92.7904 115.948 88.9217 106.724C87.2436 102.722 85.8052 98.4909 84.4619 94.3898C83.2978 90.8358 82.6189 86.3115 80.4878 83.1499" stroke="#061E4C" stroke-width="3" stroke-linecap="round"/>
<path d="M83.4639 317.163C90.6141 323.276 92.851 329 88.9822 338.225C87.3041 342.226 85.8657 346.457 84.5224 350.558C83.3584 354.112 82.6795 358.637 80.5484 361.798" stroke="white" stroke-width="3" stroke-linecap="round"/>
<path d="M87.3746 117.189C89.9073 117.93 88.924 109.822 88.228 108.344C87.1977 106.156 86.4089 103.721 85.2548 101.677" stroke="#061E4C" stroke-width="3" stroke-linecap="round"/>
<path d="M87.4352 327.759C89.9678 327.018 88.9845 335.126 88.2885 336.604C87.2583 338.792 86.4694 341.227 85.3154 343.272" stroke="white" stroke-width="3" stroke-linecap="round"/>
<path d="M143.935 117.882C145.145 118.747 143.829 119.711 143.2 120.591C141.606 122.819 141.47 122.719 138.519 122.656C136.055 122.604 134.603 121.073 132.367 120.621C129.854 120.113 126.629 119.132 124.059 119.128C121.563 119.125 118.58 117.932 116.171 118.495C113.682 119.077 110.745 120.023 108.481 121.084C105.515 122.473 102.221 122.544 99.2092 123.878C97.8639 124.474 94.8823 125.73 93.4695 125.466" stroke="#061E4C" stroke-width="3" stroke-linecap="round"/>
<path d="M143.996 327.066C145.206 326.201 143.889 325.237 143.26 324.358C141.667 322.129 141.531 322.23 138.58 322.292C136.115 322.344 134.663 323.875 132.428 324.327C129.915 324.835 126.689 325.816 124.12 325.82C121.624 325.824 118.641 327.016 116.231 326.453C113.742 325.871 110.805 324.925 108.542 323.865C105.576 322.475 102.282 322.404 99.2698 321.07C97.9245 320.474 94.9428 319.218 93.53 319.482" stroke="white" stroke-width="3" stroke-linecap="round"/>
<path d="M139.828 121.104C138.568 122.865 136.12 120.692 134.795 119.744" stroke="#061E4C" stroke-width="3" stroke-linecap="round"/>
<path d="M139.889 323.845C138.629 322.083 136.181 324.257 134.855 325.204" stroke="white" stroke-width="3" stroke-linecap="round"/>
<path d="M93.7324 125.095C92.8729 125.843 89.8252 125.218 88.78 124.975C88.2131 124.844 87.9739 125.759 87.6321 126.021C87.3482 126.238 86.8586 125.842 86.4473 126.045" stroke="#061E4C" stroke-width="3" stroke-linecap="round"/>
<path d="M93.793 319.853C92.9334 319.105 89.8857 319.73 88.8405 319.973C88.2736 320.104 88.0345 319.189 87.6926 318.927C87.4088 318.71 86.9191 319.106 86.5079 318.904" stroke="white" stroke-width="3" stroke-linecap="round"/>
<path d="M77.8241 131.716C77.2538 132.534 76.619 133.261 75.8973 133.616C74.618 134.246 76.2813 132.924 77.8241 131.716Z" fill="#061E4C"/>
<path d="M86.8466 117.931C84.2991 121.493 82.1937 125.277 79.6795 128.793C78.6848 130.185 77.5074 132.823 75.8973 133.616C73.8666 134.616 79.2504 130.698 79.7973 130.122C82.781 126.977 85.1071 123.718 87.1925 119.92C87.7441 118.915 86.6921 113.155 85.2422 114.108C83.4801 115.267 83.7832 117.148 83.3365 119.06C82.78 121.442 82.2966 123.454 80.8863 125.426" stroke="#061E4C" stroke-width="3" stroke-linecap="round"/>
<path d="M77.8847 313.232C77.3143 312.414 76.6796 311.688 75.9579 311.332C74.6786 310.702 76.3419 312.024 77.8847 313.232Z" fill="white"/>
<path d="M86.9071 327.018C84.3597 323.455 82.2542 319.671 79.7401 316.155C78.7453 314.764 77.568 312.125 75.9579 311.332C73.9272 310.332 79.3109 314.25 79.8579 314.826C82.8415 317.971 85.1676 321.23 87.253 325.028C87.8046 326.033 86.7527 331.793 85.3028 330.84C83.5406 329.681 83.8437 327.801 83.397 325.888C82.8406 323.506 82.3571 321.494 80.9468 319.522" stroke="white" stroke-width="3" stroke-linecap="round"/>
<path d="M87.9064 129.885C87.1743 130.909 86.5628 131.969 85.3898 132.565C84.2092 133.164 83.2081 132.675 82.2697 133.568C80.8811 134.89 77.482 134.523 75.6764 135.697C73.5583 137.074 70.8977 138.049 68.9506 139.597C64.4657 143.16 60.244 146.733 56.9121 151.393" stroke="#061E4C" stroke-width="3" stroke-linecap="round"/>
<path d="M87.9669 315.063C87.2348 314.039 86.6233 312.979 85.4503 312.384C84.2698 311.784 83.2686 312.273 82.3302 311.38C80.9416 310.058 77.5426 310.426 75.7369 309.252C73.6189 307.875 70.9583 306.899 69.0112 305.352C64.5262 301.788 60.3046 298.215 56.9727 293.556" stroke="white" stroke-width="3" stroke-linecap="round"/>
<path d="M84.0844 111.54C83.5938 112.226 83.5965 113.147 83.4748 113.961C83.2777 115.278 83.3289 116.575 82.883 117.814C82.4463 119.026 82.1328 120.303 81.6196 121.485C81.2931 122.238 81.096 123.011 81.0189 123.838C80.9579 124.492 80.353 125.077 79.9896 125.586C77.9069 128.498 75.8076 131.434 73.7255 134.346C72.8698 135.542 71.6208 136.281 70.7656 137.477C70.1295 138.366 69.4934 139.256 68.8573 140.145" stroke="#061E4C" stroke-width="3" stroke-linecap="round"/>
<path d="M84.1449 333.409C83.6543 332.723 83.657 331.801 83.5354 330.987C83.3383 329.67 83.3895 328.373 82.9435 327.134C82.5068 325.922 82.1934 324.646 81.6801 323.463C81.3537 322.711 81.1565 321.937 81.0794 321.11C81.0185 320.457 80.4136 319.871 80.0501 319.363C77.9675 316.45 75.8681 313.514 73.786 310.602C72.9303 309.406 71.6813 308.668 70.8262 307.472C70.1901 306.582 69.5539 305.692 68.9178 304.803" stroke="white" stroke-width="3" stroke-linecap="round"/>
<path d="M84.9975 106.479C85.2438 108.452 85.5335 110.562 84.4411 112.299C84.0194 112.97 84.3303 111.116 84.3461 110.794C84.3662 110.381 84.2071 109.845 84.3261 109.463C84.4114 109.189 84.6132 109.062 84.6398 108.744C84.718 107.807 84.4992 108.436 84.145 108.932C83.83 109.372 83.7867 109.682 83.6348 110.136C83.5101 110.508 83.6307 111.153 83.584 111.593C83.5201 112.196 83.5315 112.908 83.5664 113.523" stroke="#061E4C" stroke-width="3" stroke-linecap="round"/>
<path d="M85.0581 338.469C85.3043 336.496 85.594 334.386 84.5016 332.649C84.0799 331.978 84.3908 333.833 84.4066 334.155C84.4268 334.567 84.2676 335.103 84.3867 335.485C84.4719 335.759 84.6737 335.886 84.7003 336.204C84.7786 337.141 84.5597 336.512 84.2055 336.016C83.8906 335.576 83.8473 335.266 83.6953 334.813C83.5706 334.441 83.6912 333.795 83.6446 333.355C83.5807 332.752 83.5921 332.04 83.627 331.426" stroke="white" stroke-width="3" stroke-linecap="round"/>
<path d="M91.6009 125.483C92.482 125.14 93.3572 124.884 94.2604 124.621C94.4552 124.564 94.5447 124.38 94.7684 124.387C94.9105 124.391 95.0924 124.506 95.2235 124.451C95.872 124.176 96.5933 124.45 97.207 123.946" stroke="#061E4C" stroke-width="3" stroke-linecap="round"/>
<path d="M91.6615 319.465C92.5426 319.809 93.4178 320.064 94.3209 320.327C94.5157 320.384 94.6053 320.568 94.829 320.561C94.971 320.557 95.1529 320.442 95.284 320.497C95.9326 320.772 96.6538 320.498 97.2676 321.002" stroke="white" stroke-width="3" stroke-linecap="round"/>
<path d="M91.918 127.56C91.3393 128.369 90.693 129.204 89.7136 129.522C88.9968 129.756 88.3915 130.204 87.7874 130.619C86.8757 131.247 85.9906 131.519 84.9292 131.843C82.9697 132.441 81.1 133.41 79.2038 134.164C78.4826 134.45 77.3444 135.335 76.889 135.972" stroke="#061E4C" stroke-width="3" stroke-linecap="round"/>
<path d="M91.9785 317.388C91.3999 316.579 90.7535 315.745 89.7741 315.426C89.0573 315.193 88.452 314.745 87.848 314.329C86.9362 313.702 86.0512 313.429 84.9897 313.105C83.0302 312.507 81.1605 311.538 79.2644 310.785C78.5431 310.498 77.4049 309.613 76.9495 308.976" stroke="white" stroke-width="3" stroke-linecap="round"/>
<path d="M57.4766 151.611C56.8546 152.298 56.2888 153.038 55.7654 153.77C55.2675 154.467 54.7193 155.125 54.1875 155.799C53.5965 156.302 53.0052 156.633 52.5553 157.32C52.3439 157.642 53.3042 156.977 53.4542 156.767C53.6903 156.437 53.9371 156.116 54.1875 155.799C54.2347 155.759 54.2818 155.717 54.3288 155.675C55.58 154.543 56.4659 153.026 57.4404 151.663C57.4533 151.645 57.4654 151.627 57.4766 151.611Z" fill="#061E4C"/>
<path d="M65.3184 145.345C64.4691 146.359 63.3991 146.983 62.2644 147.606C61.2338 148.171 60.5238 149.09 59.5707 149.741C58.0529 150.778 56.8229 152.291 55.7654 153.77C55.0331 154.794 54.1917 155.736 53.4542 156.767C53.3042 156.977 52.3439 157.642 52.5553 157.32C53.0411 156.578 53.6917 156.251 54.3288 155.675C55.58 154.543 56.4659 153.026 57.4404 151.663C57.7633 151.211 57.5485 151.207 57.1263 151.345C56.5939 151.519 56.4813 151.932 56.0999 152.31C55.1255 153.277 54.2144 154.529 53.4152 155.647C52.6715 156.687 51.5982 157.483 50.8508 158.528" stroke="#061E4C" stroke-width="3" stroke-linecap="round"/>
<path d="M57.5372 293.338C56.9152 292.651 56.3494 291.91 55.8259 291.178C55.3281 290.482 54.7798 289.824 54.2481 289.15C53.6571 288.646 53.0657 288.315 52.6158 287.629C52.4045 287.306 53.3647 287.971 53.5148 288.181C53.7509 288.511 53.9976 288.832 54.2481 289.15C54.2952 289.19 54.3423 289.231 54.3894 289.273C55.6406 290.406 56.5264 291.923 57.5009 293.285C57.5139 293.303 57.5259 293.321 57.5372 293.338Z" fill="white"/>
<path d="M65.3789 299.603C64.5297 298.59 63.4597 297.965 62.325 297.343C61.2944 296.777 60.5843 295.858 59.6313 295.207C58.1134 294.17 56.8834 292.657 55.8259 291.178C55.0936 290.154 54.2522 289.212 53.5148 288.181C53.3647 287.971 52.4045 287.306 52.6158 287.629C53.1016 288.37 53.7523 288.697 54.3894 289.273C55.6406 290.406 56.5264 291.923 57.5009 293.285C57.8239 293.737 57.609 293.741 57.1868 293.603C56.6545 293.429 56.5418 293.016 56.1605 292.638C55.186 291.671 54.2749 290.419 53.4758 289.301C52.732 288.261 51.6587 287.465 50.9114 286.42" stroke="white" stroke-width="3" stroke-linecap="round"/>
<path d="M84.6652 134.306C83.9779 135.267 83.3482 136.271 81.9394 136.39C80.2604 136.531 78.9808 136.95 77.4672 137.477C75.785 138.064 73.9853 138.699 72.5014 139.575C70.7545 140.607 69.2871 141.822 67.7673 143.109C65.2358 145.251 62.4853 147.147 59.9275 149.257C57.9689 150.873 56.4213 152.497 54.9437 154.564" stroke="#061E4C" stroke-width="3" stroke-linecap="round"/>
<path d="M84.7257 310.643C84.0385 309.682 83.4088 308.677 82 308.558C80.321 308.417 79.0413 307.998 77.5278 307.471C75.8455 306.885 74.0458 306.249 72.5619 305.373C70.8151 304.342 69.3476 303.126 67.8278 301.84C65.2963 299.697 62.5459 297.801 59.9881 295.691C58.0294 294.075 56.4818 292.451 55.0043 290.385" stroke="white" stroke-width="3" stroke-linecap="round"/>
<path d="M4.59013 223.376C7.98228 222.168 9.65246 219.826 11.8896 216.698C14.395 213.194 16.7834 209.439 18.6473 205.595C20.0952 202.608 21.4531 199.794 23.4267 197.034C27.087 191.915 30.7472 186.797 34.4074 181.678C36.3802 178.919 38.1093 175.939 39.6923 172.971C40.937 170.636 42.343 168.563 43.8898 166.4C44.9199 164.96 46.068 163.547 47.4018 162.441C48.3018 161.695 49.0382 160.52 50.0235 160.091" stroke="#061E4C" stroke-width="5" stroke-linecap="round"/>
<path d="M142.501 116.447C143.919 115.015 147.014 116.807 146.325 118.799C145.427 121.395 143.485 123.684 140.476 123.933C138.712 124.078 136.625 122.759 135.081 121.999C132.695 120.824 130.076 119.797 127.54 119.029C125.474 118.404 123.337 118.921 121.236 118.609C119.926 118.415 118.776 118.45 117.467 118.365" stroke="#061E4C" stroke-width="3" stroke-linecap="round"/>
<path d="M142.562 328.501C143.979 329.933 147.074 328.141 146.385 326.15C145.487 323.553 143.545 321.264 140.537 321.016C138.772 320.87 136.685 322.189 135.141 322.95C132.756 324.125 130.137 325.152 127.6 325.919C125.535 326.545 123.398 326.027 121.296 326.339C119.986 326.533 118.836 326.498 117.527 326.583" stroke="white" stroke-width="3" stroke-linecap="round"/>
<path d="M89.9989 129.446C90.9704 128.845 91.8763 128.114 92.7702 127.374C92.348 127.547 91.9538 127.744 91.6294 127.982C91.0227 128.428 90.4983 128.924 89.9989 129.446C89.5418 129.728 89.0701 129.982 88.5783 130.195C87.2072 130.788 85.6208 131.354 84.4037 132.198C83.2968 132.966 82.8184 133.968 81.4183 134.391C80.6424 134.626 80.2846 134.887 79.6985 135.316L79.6787 135.33C78.8941 135.904 80.7628 135.824 80.9789 135.781C84.0179 135.186 86.2448 133.452 88.2907 131.301C88.8851 130.676 89.4255 130.044 89.9989 129.446Z" fill="#061E4C"/>
<path d="M95.6115 125.142C93.2716 126.732 91.2135 129.055 88.5783 130.195C87.2072 130.788 85.6208 131.354 84.4037 132.198C83.2968 132.966 82.8184 133.968 81.4183 134.391C80.6337 134.628 80.2766 134.893 79.6787 135.33C78.8941 135.904 80.7628 135.824 80.9789 135.781C84.0179 135.186 86.2448 133.452 88.2907 131.301C89.4028 130.132 90.326 128.939 91.6294 127.982C92.5601 127.299 94.0647 126.955 95.1608 126.534C96.963 125.842 98.8833 125.078 100.563 124.164C100.992 123.931 101.492 123.87 101.936 123.652C102.296 123.474 102.579 123.194 102.969 123.069C103.52 122.893 104.431 122.501 104.819 122.075C105.326 121.52 106.151 121.117 106.885 120.881C107.376 120.723 107.65 120.32 108.088 120.104" stroke="#061E4C" stroke-width="3" stroke-linecap="round"/>
<path d="M90.0595 315.503C91.0309 316.103 91.9368 316.834 92.8308 317.575C92.4085 317.401 92.0144 317.204 91.69 316.966C91.0832 316.521 90.5588 316.024 90.0595 315.503C89.6023 315.22 89.1306 314.966 88.6389 314.753C87.2678 314.16 85.6813 313.594 84.4643 312.75C83.3573 311.982 82.879 310.98 81.4788 310.557C80.7029 310.322 80.3451 310.061 79.759 309.632L79.7392 309.618C78.9547 309.044 80.8234 309.125 81.0394 309.167C84.0785 309.762 86.3054 311.496 88.3512 313.647C88.9456 314.272 89.4861 314.904 90.0595 315.503Z" fill="white"/>
<path d="M95.6721 319.806C93.3321 318.216 91.274 315.893 88.6389 314.753C87.2678 314.16 85.6813 313.594 84.4643 312.75C83.3573 311.982 82.879 310.98 81.4788 310.557C80.6942 310.32 80.3371 310.055 79.7392 309.618C78.9547 309.044 80.8234 309.125 81.0394 309.167C84.0785 309.762 86.3054 311.496 88.3512 313.647C89.4634 314.816 90.3865 316.009 91.69 316.966C92.6207 317.649 94.1252 317.994 95.2213 318.414C97.0236 319.106 98.9438 319.871 100.624 320.784C101.052 321.018 101.553 321.078 101.996 321.296C102.357 321.474 102.64 321.755 103.029 321.879C103.58 322.056 104.492 322.448 104.88 322.873C105.386 323.428 106.211 323.831 106.946 324.067C107.437 324.225 107.711 324.629 108.148 324.844" stroke="white" stroke-width="3" stroke-linecap="round"/>
<path d="M78.6972 127.522C80.9139 124.422 82.5871 121.401 83.5823 117.678C84.2867 115.043 84.6346 111.844 84.3428 109.04C84.2175 107.836 84.2907 106.674 84.3195 105.481C84.3283 105.116 84.4182 103.674 84.1313 103.412C84.0182 103.309 83.6707 106.569 83.6804 106.852C83.7167 107.913 83.649 108.944 83.5881 109.994" stroke="#061E4C" stroke-width="3" stroke-linecap="round"/>
<path d="M78.7578 317.426C80.9745 320.526 82.6476 323.547 83.6429 327.27C84.3473 329.905 84.6952 333.104 84.4034 335.908C84.2781 337.112 84.3512 338.274 84.3801 339.468C84.3889 339.833 84.4788 341.274 84.1919 341.536C84.0788 341.64 83.7312 338.38 83.7409 338.096C83.7773 337.035 83.7096 336.005 83.6487 334.954" stroke="white" stroke-width="3" stroke-linecap="round"/>
<path d="M63.7383 145.735C63.0979 145.953 62.4946 146.496 61.9171 146.904C61.1625 147.437 60.4933 148.108 59.8174 148.76C57.6607 150.84 55.5202 152.942 53.3873 155.052C52.5129 155.917 51.6406 156.701 50.9248 157.702C50.2117 158.699 49.5234 159.458 48.607 160.249C45.423 162.995 42.6339 165.725 40.1322 169.224C39.1575 170.587 38.3513 171.973 37.445 173.367C36.4676 174.871 35.3501 176.308 34.3057 177.769C32.5047 180.287 31.7013 183.196 29.9097 185.702" stroke="#061E4C" stroke-width="4" stroke-linecap="round"/>
<path d="M63.7988 299.213C63.1585 298.995 62.5552 298.452 61.9776 298.044C61.2231 297.511 60.5539 296.84 59.878 296.188C57.7213 294.108 55.5807 292.006 53.4478 289.896C52.5734 289.032 51.7011 288.247 50.9853 287.246C50.2723 286.249 49.584 285.49 48.6675 284.699C45.4836 281.954 42.6945 279.223 40.1927 275.725C39.2181 274.362 38.4119 272.975 37.5056 271.581C36.5281 270.077 35.4106 268.64 34.3663 267.18C32.5652 264.661 31.7619 261.752 29.9703 259.246" stroke="white" stroke-width="4" stroke-linecap="round"/>
<path d="M27.3358 189.095C27.5762 188.767 27.8148 188.438 28.0519 188.109C27.9607 188.206 27.8691 188.304 27.7771 188.402C25.0538 191.292 22.5674 194.959 20.1329 198.231C18.2838 200.716 16.2779 203.326 14.4102 205.96C12.5961 208.217 10.8716 210.677 9.14696 212.995C8.04553 214.475 6.90163 215.899 6.09941 217.454C5.70919 218.209 5.48067 218.845 5.22193 219.54C4.98861 220.167 4.49213 220.936 4.30637 221.517C3.89082 222.815 4.34799 222.024 5.20382 220.815C7.13424 218.088 8.70466 215.248 10.2177 212.504C11.4081 210.345 12.8616 208.144 14.4102 205.96C14.677 205.628 14.9457 205.301 15.2167 204.979C17.8896 201.804 20.3971 198.965 22.9358 195.553C24.5636 193.365 25.7736 191.229 27.3358 189.095Z" fill="#061E4C"/>
<path d="M33.6439 180.255C31.4717 183.189 29.4792 186.168 27.3358 189.095C25.7736 191.229 24.5636 193.365 22.9358 195.553C20.3971 198.965 17.8896 201.804 15.2167 204.979C13.1033 207.49 11.1252 210.336 9.14696 212.995C8.04553 214.475 6.90163 215.899 6.09941 217.454C5.70919 218.209 5.48068 218.845 5.22193 219.54C4.98861 220.167 4.49213 220.936 4.30637 221.517C3.89082 222.815 4.34799 222.024 5.20382 220.815C7.13424 218.088 8.70466 215.248 10.2177 212.504C12.8438 207.74 16.7506 202.776 20.1329 198.231C22.5674 194.959 25.0538 191.292 27.7771 188.402C30.2811 185.744 32.512 183.046 34.781 179.997" stroke="#061E4C" stroke-width="5" stroke-linecap="round"/>
<path d="M27.8335 255.149C28.0818 255.485 28.3292 255.82 28.5759 256.156C28.4901 256.05 28.4042 255.944 28.318 255.837C25.7674 252.691 23.1138 249.006 20.6164 245.65C18.7195 243.1 16.6887 240.403 14.7336 237.73C12.93 235.372 11.1157 232.882 9.34648 230.504C8.21658 228.985 7.07882 227.498 6.10551 226.015C5.63207 225.294 5.29391 224.72 4.91875 224.088C4.58043 223.519 4.0389 222.754 3.74385 222.236C3.08385 221.078 3.60878 221.848 4.50528 223.075C6.52743 225.841 8.3688 228.582 10.1456 231.231C11.5434 233.314 13.1125 235.513 14.7336 237.73C14.9989 238.076 15.2639 238.42 15.5285 238.76C18.1389 242.116 20.5435 245.153 23.1478 248.653C24.8177 250.897 26.2202 252.969 27.8335 255.149Z" fill="white"/>
<path d="M34.4193 264.133C32.1862 261.126 30.047 258.141 27.8335 255.149C26.2202 252.969 24.8177 250.897 23.1478 248.653C20.5435 245.153 18.1389 242.116 15.5285 238.76C13.4646 236.107 11.3759 233.231 9.34648 230.504C8.21658 228.985 7.07882 227.498 6.10551 226.015C5.63207 225.294 5.29391 224.72 4.91875 224.088C4.58043 223.519 4.0389 222.754 3.74385 222.236C3.08385 221.078 3.60878 221.848 4.50528 223.075C6.52743 225.841 8.3688 228.582 10.1456 231.231C13.2293 235.827 17.1467 240.987 20.6164 245.65C23.1138 249.006 25.7674 252.691 28.318 255.837C30.6633 258.73 32.8569 261.568 35.1845 264.696" stroke="white" stroke-width="5" stroke-linecap="round"/>
<path d="M38.3156 165.597C38.9878 163.829 39.8653 162.106 40.2936 160.25C40.7797 158.143 40.9481 156.006 40.9934 153.826C41.0379 151.689 41.0488 149.263 40.5733 147.144C40.0428 144.781 38.8919 142.252 37.5091 140.201C35.8065 137.676 33.5209 135.399 31.3758 133.227C29.3889 131.215 27.0517 129.682 24.7559 128.041C23.3207 127.014 21.9975 126.057 20.38 125.364C19.82 125.124 19.311 124.726 18.6997 124.688" stroke="#061E4C" stroke-width="3" stroke-linecap="round"/>
<path d="M38.3762 279.352C39.0484 281.119 39.9258 282.842 40.3542 284.698C40.8402 286.805 41.0086 288.943 41.054 291.122C41.0985 293.259 41.1094 295.685 40.6338 297.804C40.1034 300.168 38.9524 302.696 37.5697 304.747C35.8671 307.272 33.5814 309.55 31.4363 311.721C29.4494 313.733 27.1122 315.266 24.8165 316.908C23.3813 317.934 22.0581 318.891 20.4406 319.584C19.8805 319.824 19.3716 320.222 18.7602 320.261" stroke="white" stroke-width="3" stroke-linecap="round"/>
<path d="M37.8148 165.255C33.5625 162.654 29.2104 159.373 26.7601 155.015C25.4759 152.731 24.3462 150.341 23.2243 147.993C21.8031 145.019 20.7973 142.33 20.4742 139.16C19.9794 134.306 20.6231 129.183 18.3712 124.486" stroke="#061E4C" stroke-width="3" stroke-linecap="round"/>
<path d="M37.8754 279.694C33.6231 282.294 29.2709 285.575 26.8206 289.933C25.5365 292.217 24.4068 294.607 23.2848 296.955C21.8636 299.93 20.8578 302.619 20.5347 305.788C20.04 310.642 20.6836 315.765 18.4317 320.463" stroke="white" stroke-width="3" stroke-linecap="round"/>
<path d="M36.6071 149.198C37.9469 152.475 37.9801 155.75 37.4282 158.985C36.2599 156.833 34.8094 153.376 34.1214 151.781C33.9745 151.441 33.8392 151.127 33.7146 150.837C33.5038 150.321 33.293 149.805 33.0833 149.289C32.5744 148.038 31.6144 145.952 33.7146 150.837C34.707 153.266 35.7001 155.7 36.5927 158.158C37.1689 159.745 35.1431 155.086 34.4198 153.549C33.3755 151.33 32.2667 149.14 31.1414 146.958C30.8963 145.838 30.811 144.694 30.9755 143.51C31.1916 141.953 30.2226 141.369 29.1115 140.161C27.8491 138.788 26.6182 137.37 25.5266 135.862C25.2106 135.192 24.9005 134.518 24.5977 133.842C24.3002 133.178 23.8415 132.266 23.3789 131.709C23.0548 131.32 23.5445 132.698 23.7866 133.138C24.3056 134.082 24.8926 134.987 25.5266 135.862C27.2904 139.605 29.2393 143.27 31.1414 146.958C31.6101 149.1 32.6633 151.15 33.6717 153.21C34.7287 155.368 36.389 157.815 36.1389 160.259C36.1362 160.285 36.0412 161.045 35.8994 161.073C35.4727 161.157 33.7474 158.789 33.5753 158.594C32.786 157.702 31.9259 156.829 31.2511 155.849C30.5471 154.825 30.0966 153.62 29.5532 152.521C28.9263 151.253 28.2843 149.993 27.6539 148.729C27.2298 147.878 26.8109 147.026 26.4054 146.168C25.6781 144.303 24.9108 142.446 24.2304 140.566C24.0307 139.781 23.859 138.988 23.6628 138.174C23.5039 137.515 23.3005 136.354 22.8957 135.769C22.5554 135.278 23.0598 136.922 23.2215 137.486C23.5189 138.522 23.8619 139.547 24.2304 140.566C24.4535 141.443 24.7114 142.312 25.0771 143.191C25.4941 144.195 25.941 145.185 26.4054 146.168C26.418 146.2 26.4305 146.232 26.443 146.264C26.7455 147.041 27.042 147.82 27.3403 148.599C26.1292 147.77 23.9914 143.248 23.6062 142.637C23.0233 141.713 23.7896 144.764 24.1148 145.79C24.8986 148.261 26.3432 150.534 27.8007 152.706C28.6989 154.045 29.6496 155.447 30.7363 156.662C31.2692 157.257 30.1568 155.259 30.0912 155.126C29.0416 152.998 28.1835 150.8 27.3403 148.599C27.4537 148.677 27.5589 148.722 27.6539 148.729C28.2843 149.993 28.9263 151.253 29.5532 152.521C30.0966 153.62 30.5471 154.825 31.2511 155.849C31.9259 156.829 32.786 157.702 33.5753 158.594C33.7474 158.789 35.4727 161.157 35.8994 161.073C36.0412 161.045 36.1362 160.285 36.1389 160.259C36.389 157.815 34.7287 155.368 33.6717 153.21C32.6633 151.15 31.6101 149.1 31.1414 146.958C32.2667 149.14 33.3755 151.33 34.4198 153.549C35.1431 155.086 37.1689 159.745 36.5927 158.158C35.7001 155.7 34.707 153.266 33.7146 150.837C33.8392 151.127 33.9745 151.441 34.1214 151.781C34.8094 153.376 36.2599 156.833 37.4282 158.985C37.5812 159.267 37.7294 159.526 37.8704 159.756C38.8725 161.39 38.7258 159.186 38.7235 158.723C38.7014 154.388 36.7361 150.14 36.6575 145.77C36.6463 145.152 36.7059 144.881 36.8027 144.836C37.0862 145.265 37.3352 145.709 37.5278 146.177C37.7172 146.752 37.8774 147.333 38.0122 147.918C38.1853 148.812 38.2758 149.715 38.366 150.615C38.3951 150.907 38.4123 151.198 38.4458 151.49C38.4599 151.612 38.3865 151.821 38.5089 151.855C38.6242 151.886 38.5301 151.626 38.5257 151.511C38.5133 151.187 38.496 150.863 38.4584 150.539C38.3564 149.661 38.2121 148.785 38.0122 147.918C37.9357 147.523 37.843 147.129 37.727 146.739C37.6702 146.548 37.6033 146.36 37.5278 146.177C37.5049 146.108 37.4817 146.038 37.4581 145.969C37.242 145.339 36.968 144.759 36.8027 144.836C36.1056 143.783 35.2003 142.826 34.4152 141.857C33.6984 140.973 32.9436 140.119 32.173 139.278C31.0965 137.435 29.7051 135.849 28.3275 134.182C27.0854 132.68 25.7932 131.202 24.4547 129.779C24.3168 129.632 23.8709 129.272 23.9419 129.456C24.5963 131.153 26.3569 132.866 27.5206 134.218C29.0141 135.953 30.6252 137.59 32.173 139.278C32.3124 139.517 32.4464 139.76 32.5744 140.008C34.1157 142.993 35.3443 146.109 36.6071 149.198Z" fill="#061E4C"/>
<path d="M36.7525 162.039C37.8706 157.819 38.3703 153.511 36.6071 149.198C35.3443 146.109 34.1157 142.993 32.5744 140.008C31.4569 137.844 29.8833 136.064 28.3275 134.182C27.0854 132.68 25.7932 131.202 24.4547 129.779C24.3168 129.632 23.8709 129.272 23.9419 129.456C24.5963 131.153 26.3569 132.866 27.5206 134.218C29.7576 136.816 32.2584 139.195 34.4152 141.857C35.6449 143.375 37.1697 144.862 37.727 146.739C38.1053 148.013 38.2359 149.317 38.366 150.615C38.3951 150.907 38.4123 151.198 38.4458 151.49C38.4599 151.612 38.3865 151.821 38.5089 151.855C38.6242 151.886 38.5301 151.626 38.5257 151.511C38.5133 151.187 38.496 150.863 38.4584 150.539C38.2793 148.996 37.9697 147.463 37.4581 145.969C37.1155 144.97 36.6273 144.097 36.6575 145.77C36.7361 150.14 38.7014 154.388 38.7235 158.723C38.7258 159.186 38.8725 161.39 37.8704 159.756C36.653 157.77 34.8995 153.585 34.1214 151.781C31.4989 145.702 32.5442 147.964 33.0833 149.289C34.2806 152.233 35.5105 155.178 36.5927 158.158C37.1689 159.745 35.1431 155.086 34.4198 153.549C31.2939 146.907 27.5901 140.525 24.5977 133.842C24.3002 133.178 23.8415 132.266 23.3789 131.709C23.0548 131.32 23.5445 132.698 23.7866 133.138C25.1991 135.706 27.1158 137.991 29.1115 140.161C30.2226 141.369 31.1916 141.953 30.9755 143.51C30.4966 146.958 32.1361 150.074 33.6717 153.21C34.7287 155.368 36.389 157.815 36.1389 160.259C36.1362 160.285 36.0412 161.045 35.8994 161.073C35.4727 161.157 33.7474 158.789 33.5753 158.594C32.786 157.702 31.9259 156.829 31.2511 155.849C30.5471 154.825 30.0966 153.62 29.5532 152.521C28.0215 149.423 26.3994 146.372 25.0771 143.191C24.3842 141.524 24.0782 139.898 23.6628 138.174C23.5039 137.515 23.3005 136.354 22.8957 135.769C22.5554 135.278 23.0598 136.922 23.2215 137.486C24.0775 140.469 25.3115 143.358 26.443 146.264C27.6004 149.237 28.6703 152.245 30.0912 155.126C30.1568 155.259 31.2692 157.257 30.7363 156.662C29.6496 155.447 28.6989 154.045 27.8007 152.706C26.3432 150.534 24.8986 148.261 24.1148 145.79C23.7896 144.764 23.0233 141.713 23.6062 142.637C24.0529 143.345 26.8561 149.313 27.8384 148.683C28.3868 148.332 28.4841 147.179 28.5212 146.622C28.5607 146.031 28.5147 145.691 28.4603 145.122C28.4456 144.968 28.2834 144.62 28.4371 144.661C28.7497 144.746 28.7821 145.69 28.7335 145.912" stroke="#061E4C" stroke-width="5" stroke-linecap="round"/>
<path d="M36.6677 295.75C38.0075 292.473 38.0407 289.199 37.4888 285.964C36.3205 288.115 34.8699 291.572 34.1819 293.167C34.0351 293.507 33.8997 293.822 33.7751 294.111C33.5643 294.627 33.3536 295.143 33.1438 295.659C32.6349 296.91 31.6749 298.996 33.7751 294.111C34.7675 291.682 35.7607 289.248 36.6533 286.79C37.2295 285.203 35.2036 289.862 34.4804 291.399C33.436 293.618 32.3272 295.808 31.2019 297.99C30.9569 299.11 30.8716 300.254 31.036 301.438C31.2522 302.995 30.2831 303.579 29.172 304.787C27.9096 306.16 26.6788 307.579 25.5872 309.086C25.2711 309.757 24.9611 310.43 24.6582 311.106C24.3607 311.771 23.9021 312.682 23.4394 313.239C23.1153 313.629 23.605 312.251 23.8471 311.81C24.3661 310.867 24.9532 309.961 25.5872 309.086C27.3509 305.343 29.2999 301.678 31.2019 297.99C31.6707 295.848 32.7239 293.798 33.7323 291.739C34.7893 289.58 36.4495 287.133 36.1995 284.69C36.1967 284.663 36.1018 283.903 35.9599 283.875C35.5333 283.791 33.8079 286.159 33.6358 286.354C32.8465 287.247 31.9864 288.119 31.3117 289.1C30.6076 290.123 30.1571 291.329 29.6137 292.428C28.9869 293.696 28.3448 294.955 27.7144 296.22C27.2903 297.07 26.8714 297.923 26.4659 298.781C25.7386 300.645 24.9714 302.502 24.2909 304.383C24.0913 305.168 23.9195 305.96 23.7233 306.774C23.5644 307.433 23.361 308.594 22.9563 309.179C22.6159 309.67 23.1204 308.026 23.282 307.463C23.5794 306.426 23.9224 305.401 24.2909 304.383C24.514 303.505 24.7719 302.637 25.1376 301.757C25.5547 300.754 26.0015 299.763 26.4659 298.781C26.4785 298.748 26.4911 298.716 26.5036 298.684C26.806 297.907 27.1025 297.128 27.4008 296.349C26.1897 297.179 24.0519 301.701 23.6667 302.311C23.0838 303.235 23.8502 300.184 24.1753 299.159C24.9592 296.687 26.4037 294.415 27.8612 292.242C28.7595 290.903 29.7101 289.501 30.7969 288.286C31.3297 287.691 30.2173 289.689 30.1517 289.822C29.1022 291.95 28.2441 294.148 27.4008 296.349C27.5142 296.272 27.6195 296.226 27.7144 296.22C28.3448 294.955 28.9869 293.696 29.6137 292.428C30.1571 291.329 30.6076 290.123 31.3117 289.1C31.9864 288.119 32.8465 287.247 33.6358 286.354C33.8079 286.159 35.5333 283.791 35.9599 283.875C36.1018 283.903 36.1967 284.663 36.1995 284.69C36.4495 287.133 34.7893 289.58 33.7323 291.739C32.7239 293.798 31.6707 295.848 31.2019 297.99C32.3272 295.808 33.436 293.618 34.4804 291.399C35.2036 289.862 37.2295 285.203 36.6533 286.79C35.7607 289.248 34.7675 291.682 33.7751 294.111C33.8997 293.822 34.0351 293.507 34.1819 293.167C34.8699 291.572 36.3205 288.115 37.4888 285.964C37.6418 285.682 37.7899 285.422 37.9309 285.192C38.9331 283.558 38.7864 285.762 38.784 286.226C38.7619 290.56 36.7967 294.808 36.718 299.178C36.7069 299.796 36.7664 300.067 36.8633 300.112C37.1467 299.684 37.3958 299.239 37.5883 298.772C37.7778 298.196 37.9379 297.615 38.0728 297.03C38.2459 296.137 38.3363 295.234 38.4265 294.333C38.4557 294.041 38.4728 293.75 38.5064 293.459C38.5205 293.336 38.4471 293.127 38.5694 293.094C38.6847 293.063 38.5907 293.322 38.5862 293.437C38.5738 293.761 38.5565 294.085 38.519 294.409C38.417 295.288 38.2727 296.163 38.0728 297.03C37.9962 297.426 37.9036 297.819 37.7876 298.209C37.7308 298.401 37.6639 298.588 37.5883 298.772C37.5655 298.841 37.5423 298.91 37.5186 298.979C37.3026 299.609 37.0286 300.189 36.8633 300.112C36.1662 301.166 35.2608 302.122 34.4758 303.091C33.7589 303.976 33.0041 304.829 32.2336 305.67C31.1571 307.514 29.7656 309.1 28.3881 310.766C27.1459 312.269 25.8538 313.746 24.5152 315.17C24.3773 315.316 23.9315 315.676 24.0025 315.492C24.6568 313.795 26.4174 312.082 27.5812 310.73C29.0746 308.996 30.6858 307.358 32.2336 305.67C32.3729 305.431 32.5069 305.188 32.635 304.94C34.1763 301.955 35.4048 298.84 36.6677 295.75Z" fill="white"/>
<path d="M36.8131 282.91C37.9312 287.129 38.4309 291.437 36.6677 295.75C35.4048 298.84 34.1763 301.955 32.635 304.94C31.5174 307.105 29.9439 308.884 28.3881 310.766C27.1459 312.269 25.8538 313.746 24.5152 315.17C24.3773 315.316 23.9315 315.676 24.0025 315.492C24.6568 313.795 26.4174 312.082 27.5812 310.73C29.8181 308.132 32.3189 305.753 34.4758 303.091C35.7054 301.573 37.2303 300.086 37.7876 298.209C38.1659 296.936 38.2965 295.632 38.4265 294.333C38.4557 294.041 38.4728 293.75 38.5064 293.459C38.5205 293.336 38.4471 293.127 38.5694 293.094C38.6847 293.063 38.5907 293.322 38.5862 293.437C38.5738 293.761 38.5565 294.085 38.519 294.409C38.3399 295.952 38.0303 297.486 37.5186 298.979C37.176 299.979 36.6879 300.851 36.718 299.178C36.7967 294.808 38.7619 290.56 38.784 286.226C38.7864 285.762 38.9331 283.558 37.9309 285.192C36.7135 287.178 34.96 291.363 34.1819 293.167C31.5594 299.246 32.6047 296.984 33.1438 295.659C34.3411 292.715 35.5711 289.771 36.6533 286.79C37.2295 285.203 35.2036 289.862 34.4804 291.399C31.3544 298.041 27.6506 304.423 24.6582 311.106C24.3607 311.771 23.9021 312.682 23.4394 313.239C23.1153 313.629 23.605 312.251 23.8471 311.81C25.2597 309.242 27.1764 306.958 29.172 304.787C30.2831 303.579 31.2522 302.995 31.036 301.438C30.5571 297.99 32.1967 294.874 33.7323 291.739C34.7893 289.58 36.4495 287.133 36.1995 284.69C36.1967 284.663 36.1018 283.903 35.9599 283.875C35.5333 283.791 33.8079 286.159 33.6358 286.354C32.8465 287.247 31.9864 288.119 31.3117 289.1C30.6076 290.123 30.1571 291.329 29.6137 292.428C28.082 295.526 26.4599 298.576 25.1376 301.757C24.4447 303.424 24.1388 305.05 23.7233 306.774C23.5644 307.433 23.361 308.594 22.9563 309.179C22.6159 309.67 23.1204 308.026 23.282 307.463C24.1381 304.479 25.3721 301.59 26.5036 298.684C27.6609 295.712 28.7309 292.703 30.1517 289.822C30.2173 289.689 31.3297 287.691 30.7969 288.286C29.7101 289.501 28.7595 290.903 27.8612 292.242C26.4037 294.415 24.9592 296.687 24.1753 299.159C23.8502 300.184 23.0838 303.235 23.6667 302.311C24.1134 301.603 26.9166 295.636 27.8989 296.265C28.4474 296.617 28.5447 297.77 28.5818 298.326C28.6212 298.918 28.5752 299.257 28.5208 299.826C28.5061 299.98 28.344 300.328 28.4977 300.287C28.8103 300.202 28.8427 299.258 28.794 299.036" stroke="white" stroke-width="5" stroke-linecap="round"/>
<path d="M18.635 123.154C15.1176 119.513 13.4261 114.877 12.9924 110.068C12.8466 108.452 12.9264 106.87 13.0244 105.271C13.0746 104.452 13.0366 103.542 13.3167 102.77C13.6498 101.852 14.2464 101.051 14.6038 100.133C15.2398 98.4998 16.5119 96.3683 18.3492 95.8767C19.5753 95.5486 21.4323 95.1136 21.688 96.8952" stroke="#061E4C" stroke-width="3" stroke-linecap="round"/>
<path d="M18.6956 321.794C15.1781 325.435 13.4867 330.072 13.053 334.88C12.9072 336.497 12.987 338.078 13.085 339.677C13.1351 340.497 13.0972 341.406 13.3772 342.178C13.7104 343.097 14.307 343.897 14.6644 344.815C15.3003 346.448 16.5725 348.58 18.4097 349.072C19.6358 349.4 21.4928 349.835 21.7486 348.053" stroke="white" stroke-width="3" stroke-linecap="round"/>
<path d="M17.2974 109.436C17.1811 111.911 17.6266 114.221 18.3503 116.479C17.5533 114.834 16.8389 113.158 16.3855 111.377C15.7245 108.782 14.9839 106.442 15.4355 103.806C15.8276 101.516 17.8609 99.4812 19.1588 97.6662C19.2016 97.6062 20.0228 96.2445 19.9719 96.9154C19.9192 97.6109 19.7336 98.2016 19.5118 98.8512C18.3824 102.16 17.4629 105.915 17.2974 109.436Z" fill="#061E4C"/>
<path d="M21.5467 124.305C19.4144 119.354 17.0463 114.78 17.2974 109.436C17.4629 105.915 18.3824 102.16 19.5118 98.8512C19.7336 98.2016 19.9192 97.6109 19.9719 96.9154C20.0228 96.2445 19.2016 97.6062 19.1588 97.6662C17.8609 99.4812 15.8276 101.516 15.4355 103.806C14.9839 106.442 15.7245 108.782 16.3855 111.377C17.3422 115.134 19.4602 118.422 21.0654 121.954C21.5065 122.924 22.0021 123.83 22.5679 124.742C23.0225 125.475 23.7696 126.432 23.6103 127.309C23.5103 127.859 23.4868 128.413 23.3624 128.961C23.2908 129.276 23.0401 129.829 23.2111 130.132" stroke="#061E4C" stroke-width="3" stroke-linecap="round"/>
<path d="M17.3579 335.512C17.2416 333.037 17.6871 330.728 18.4108 328.469C17.6138 330.115 16.8995 331.79 16.446 333.571C15.785 336.167 15.0444 338.506 15.496 341.142C15.8882 343.432 17.9214 345.467 19.2193 347.282C19.2622 347.342 20.0834 348.704 20.0325 348.033C19.9797 347.337 19.7941 346.747 19.5724 346.097C18.4429 342.789 17.5234 339.034 17.3579 335.512Z" fill="white"/>
<path d="M21.6072 320.643C19.4749 325.594 17.1068 330.169 17.3579 335.512C17.5234 339.034 18.4429 342.789 19.5724 346.097C19.7941 346.747 19.9797 347.337 20.0325 348.033C20.0834 348.704 19.2622 347.342 19.2193 347.282C17.9214 345.467 15.8882 343.432 15.496 341.142C15.0444 338.506 15.785 336.167 16.446 333.571C17.4027 329.814 19.5207 326.526 21.126 322.994C21.567 322.024 22.0626 321.118 22.6285 320.206C23.0831 319.473 23.8302 318.516 23.6708 317.64C23.5708 317.089 23.5473 316.535 23.4229 315.987C23.3513 315.672 23.1006 315.119 23.2717 314.816" stroke="white" stroke-width="3" stroke-linecap="round"/>
<path d="M21.8472 96.5433C21.2114 97.527 20.2821 98.6438 19.7642 99.7031C19.2961 100.66 19.1126 101.823 18.5634 102.74C17.8877 103.868 17.6988 104.822 17.4974 106.07C17.36 106.923 17.2654 107.74 17.2097 108.593C17.1864 108.949 16.8523 109.774 17.1459 109.984" stroke="#061E4C" stroke-width="3" stroke-linecap="round"/>
<path d="M21.9077 348.405C21.2719 347.421 20.3426 346.304 19.8247 345.245C19.3567 344.288 19.1732 343.125 18.6239 342.208C17.9482 341.08 17.7593 340.126 17.558 338.878C17.4206 338.026 17.326 337.208 17.2702 336.355C17.247 336 16.9129 335.175 17.2065 334.965" stroke="white" stroke-width="3" stroke-linecap="round"/>
<path d="M21.3198 123.184C23.3514 125.534 25.8605 128.498 26.3127 131.551" stroke="#061E4C" stroke-width="3" stroke-linecap="round"/>
<path d="M21.3803 321.764C23.412 319.414 25.9211 316.45 26.3733 313.397" stroke="white" stroke-width="3" stroke-linecap="round"/>
<path d="M87.4109 162.034C88.3144 161.936 89.2014 161.743 90.0668 161.41C91.6309 160.807 93.2536 159.499 93.5214 157.774C93.6521 156.933 93.6769 155.997 93.6238 155.136C93.6125 154.953 93.7765 154.237 93.591 154.558C93.2564 155.138 93.3119 155.939 93.0686 156.575C92.8005 157.276 92.3961 157.867 91.9642 158.471C91.0157 159.797 89.6169 160.386 88.3701 161.392C88.0686 161.635 87.7458 161.844 87.4109 162.034C86.4586 162.574 85.4092 162.963 84.4769 163.562C82.0411 165.127 79.043 165.864 76.1249 166.199C74.2047 166.42 71.7737 166.155 69.867 165.674C68.2065 165.254 66.5182 164.679 64.8999 164.097C62.8778 163.369 61.1363 162.5 58.9964 162.361C57.694 162.277 56.3933 162.241 55.0908 162.132C53.7641 162.022 52.9358 162.202 51.716 162.551C51.2955 162.672 50.4737 162.704 50.1239 162.972C50.1137 162.979 50.1042 162.987 50.0953 162.994C49.9691 163.152 49.9507 163.111 50.0953 162.994C50.1042 162.987 50.1137 162.979 50.1239 162.972C50.4737 162.704 51.2955 162.672 51.716 162.551C52.9358 162.202 53.7641 162.022 55.0908 162.132C56.3933 162.241 57.694 162.277 58.9964 162.361C61.1363 162.5 62.8778 163.369 64.8999 164.097C66.5182 164.679 68.2065 165.254 69.867 165.674C71.7737 166.155 74.2047 166.42 76.1249 166.199C79.043 165.864 82.0411 165.127 84.4769 163.562C85.4092 162.963 86.4586 162.574 87.4109 162.034Z" fill="#061E4C"/>
<path d="M50.1955 161.221C52.0508 160.722 53.5776 159.456 55.2075 158.552C57.2772 157.404 59.498 156.378 61.9326 156.085C62.9921 155.958 63.9341 156.103 64.9693 156.438C67.1464 157.142 69.3255 157.872 71.4732 158.672C73.3212 159.361 75.204 159.866 77.0837 160.441C79.0133 161.031 80.9244 161.734 82.9237 161.94C85.3914 162.195 87.803 162.282 90.0668 161.41C91.6309 160.807 93.2536 159.499 93.5214 157.774C93.6521 156.933 93.6769 155.997 93.6238 155.136C93.6125 154.953 93.7765 154.237 93.591 154.558C93.2564 155.138 93.3119 155.939 93.0686 156.575C92.8005 157.276 92.3961 157.867 91.9642 158.471C91.0157 159.797 89.6169 160.386 88.3701 161.392C87.2113 162.327 85.737 162.752 84.4769 163.562C82.0411 165.127 79.043 165.864 76.1249 166.199C74.2047 166.42 71.7737 166.155 69.867 165.674C68.2065 165.254 66.5182 164.679 64.8999 164.097C62.8778 163.369 61.1363 162.5 58.9964 162.361C57.694 162.277 56.3933 162.241 55.0908 162.132C53.7641 162.022 52.9358 162.202 51.716 162.551C51.2955 162.672 50.4737 162.704 50.1239 162.972C49.9243 163.124 49.9685 163.176 50.1587 162.91" stroke="#061E4C" stroke-width="3" stroke-linecap="round"/>
<path d="M87.4715 282.914C88.3749 283.012 89.2619 283.205 90.1273 283.538C91.6915 284.141 93.3142 285.45 93.582 287.174C93.7126 288.016 93.7375 288.951 93.6844 289.812C93.673 289.996 93.8371 290.711 93.6516 290.39C93.317 289.81 93.3725 289.009 93.1291 288.373C92.861 287.673 92.4566 287.082 92.0247 286.478C91.0762 285.151 89.6775 284.562 88.4307 283.556C88.1292 283.313 87.8063 283.104 87.4715 282.914C86.5192 282.374 85.4697 281.985 84.5375 281.386C82.1016 279.821 79.1035 279.084 76.1855 278.749C74.2653 278.529 71.8342 278.793 69.9275 279.274C68.267 279.694 66.5787 280.269 64.9605 280.851C62.9384 281.579 61.1968 282.448 59.057 282.587C57.7546 282.671 56.4539 282.708 55.1514 282.816C53.8246 282.927 52.9963 282.746 51.7766 282.397C51.356 282.277 50.5343 282.244 50.1844 281.977C50.1743 281.969 50.1647 281.961 50.1558 281.954C50.0296 281.796 50.0113 281.837 50.1558 281.954C50.1647 281.961 50.1743 281.969 50.1844 281.977C50.5343 282.244 51.356 282.277 51.7766 282.397C52.9963 282.746 53.8246 282.927 55.1514 282.816C56.4539 282.708 57.7546 282.671 59.057 282.587C61.1968 282.448 62.9384 281.579 64.9605 280.851C66.5787 280.269 68.267 279.694 69.9275 279.274C71.8342 278.793 74.2653 278.529 76.1855 278.749C79.1035 279.084 82.1016 279.821 84.5375 281.386C85.4697 281.985 86.5192 282.374 87.4715 282.914Z" fill="white"/>
<path d="M50.2561 283.727C52.1113 284.226 53.6381 285.492 55.2681 286.396C57.3377 287.545 59.5586 288.571 61.9931 288.863C63.0527 288.99 63.9947 288.845 65.0299 288.51C67.207 287.806 69.3861 287.076 71.5338 286.276C73.3817 285.588 75.2646 285.082 77.1443 284.507C79.0739 283.918 80.985 283.214 82.9842 283.008C85.4519 282.753 87.8635 282.666 90.1273 283.538C91.6915 284.141 93.3142 285.45 93.582 287.174C93.7126 288.016 93.7375 288.951 93.6844 289.812C93.673 289.996 93.8371 290.711 93.6516 290.39C93.317 289.81 93.3725 289.009 93.1291 288.373C92.861 287.673 92.4566 287.082 92.0247 286.478C91.0762 285.151 89.6775 284.562 88.4307 283.556C87.2718 282.622 85.7975 282.196 84.5375 281.386C82.1016 279.821 79.1035 279.084 76.1855 278.749C74.2653 278.529 71.8342 278.793 69.9275 279.274C68.267 279.694 66.5787 280.269 64.9605 280.851C62.9384 281.579 61.1968 282.448 59.057 282.587C57.7546 282.671 56.4539 282.708 55.1514 282.816C53.8246 282.927 52.9963 282.746 51.7766 282.397C51.356 282.277 50.5343 282.244 50.1844 281.977C49.9849 281.824 50.029 281.772 50.2193 282.038" stroke="white" stroke-width="3" stroke-linecap="round"/>
<path d="M78.753 164.083C76.0423 164.399 73.1894 164.138 70.4633 163.704C67.5234 163.235 64.921 161.387 62.0126 160.707C60.3574 160.32 58.731 159.984 57.0482 159.927C55.7001 159.881 59.6056 159.085 60.9515 159.073C65.0371 159.036 69.8491 159.218 73.4814 161.404C75.0664 162.358 76.803 161.907 78.5455 162.005" stroke="#061E4C" stroke-width="4" stroke-linecap="round"/>
<path d="M78.8135 280.865C76.1029 280.549 73.2499 280.81 70.5239 281.245C67.584 281.713 64.9815 283.561 62.0732 284.241C60.418 284.628 58.7916 284.964 57.1088 285.021C55.7606 285.068 59.6661 285.863 61.0121 285.875C65.0976 285.913 69.9096 285.731 73.542 283.544C75.1269 282.59 76.8636 283.041 78.6061 282.943" stroke="white" stroke-width="4" stroke-linecap="round"/>
<path d="M256.526 84.9029C257.321 84.7945 258.047 84.5546 258.75 84.1668C259.511 83.7474 260.442 83.4056 260.869 82.5882C261.189 81.9742 260.865 81.4379 260.309 81.1251C259.518 80.6799 258.706 80.6103 257.91 81.0354C257.38 81.3187 256.842 81.6745 256.546 82.2167C256.354 82.5692 255.884 83.7551 256.186 84.1099C256.518 84.4997 257.163 84.0281 257.491 83.849C258.43 83.3379 259.424 82.6782 260.08 81.8231" stroke="#061E4C" stroke-width="3" stroke-linecap="round"/>
<path d="M250.49 88.7588C251.342 88.6602 251.934 87.3281 251.977 86.5502C252.004 86.0621 251.422 85.9157 251.046 85.8023C250.328 85.5864 249.714 85.6311 249.272 86.2918C248.745 87.0817 249.594 88.3185 250.317 88.7254" stroke="#061E4C" stroke-width="3" stroke-linecap="round"/>
<path d="M263.097 97.3052C263.95 97.2066 264.542 95.8745 264.585 95.0966C264.612 94.6085 264.03 94.4621 263.653 94.3487C262.935 94.1328 262.321 94.1775 261.88 94.8382C261.352 95.6281 262.201 96.8649 262.924 97.2718" stroke="#061E4C" stroke-width="3" stroke-linecap="round"/>
<path d="M249.822 79.2142C250.21 79.3182 250.495 79.4911 250.796 79.7412C250.922 79.8461 251.018 79.9727 251.132 80.0901C251.482 80.449 251.547 79.6736 251.552 79.4388C251.558 79.1537 251.328 78.7055 251.004 78.6654C250.615 78.6172 250.155 79.1603 249.945 79.4273C249.694 79.7473 250.688 80.0905 250.832 80.4854" stroke="#061E4C" stroke-width="3" stroke-linecap="round"/>
<path d="M262.429 87.7606C262.817 87.8646 263.103 88.0375 263.404 88.2876C263.53 88.3924 263.625 88.519 263.74 88.6364C264.089 88.9954 264.154 88.22 264.16 87.9852C264.166 87.7001 263.935 87.2519 263.611 87.2118C263.223 87.1636 262.763 87.7067 262.553 87.9737C262.301 88.2937 263.295 88.6369 263.439 89.0317" stroke="#061E4C" stroke-width="3" stroke-linecap="round"/>
<path d="M256.878 91.4276C256.423 91.2636 255.892 91.1097 255.608 91.6556C255.494 91.8759 255.722 91.9218 255.88 91.9522" stroke="#061E4C" stroke-width="3" stroke-linecap="round"/>
<path d="M257.196 96.5819C256.742 96.4179 256.21 96.264 255.926 96.8099C255.812 97.0302 256.041 97.0761 256.198 97.1065" stroke="#061E4C" stroke-width="3" stroke-linecap="round"/>
<path d="M256.586 360.045C257.382 360.154 258.108 360.394 258.811 360.781C259.571 361.201 260.503 361.543 260.929 362.36C261.249 362.974 260.926 363.51 260.37 363.823C259.579 364.268 258.767 364.338 257.971 363.913C257.441 363.63 256.903 363.274 256.607 362.732C256.415 362.379 255.944 361.193 256.246 360.838C256.578 360.448 257.223 360.92 257.552 361.099C258.49 361.61 259.484 362.27 260.14 363.125" stroke="white" stroke-width="3" stroke-linecap="round"/>
<path d="M250.55 356.189C251.403 356.288 251.995 357.62 252.038 358.398C252.065 358.886 251.483 359.033 251.106 359.146C250.389 359.362 249.774 359.317 249.333 358.656C248.805 357.867 249.654 356.63 250.377 356.223" stroke="white" stroke-width="3" stroke-linecap="round"/>
<path d="M263.158 347.643C264.01 347.742 264.602 349.074 264.645 349.852C264.672 350.34 264.09 350.486 263.714 350.6C262.996 350.815 262.381 350.771 261.94 350.11C261.413 349.32 262.262 348.083 262.985 347.676" stroke="white" stroke-width="3" stroke-linecap="round"/>
<path d="M249.883 365.734C250.27 365.63 250.556 365.457 250.857 365.207C250.983 365.102 251.079 364.976 251.193 364.858C251.543 364.499 251.607 365.275 251.613 365.509C251.619 365.795 251.388 366.243 251.065 366.283C250.676 366.331 250.216 365.788 250.006 365.521C249.754 365.201 250.748 364.858 250.892 364.463" stroke="white" stroke-width="3" stroke-linecap="round"/>
<path d="M262.49 357.188C262.877 357.084 263.163 356.911 263.464 356.661C263.59 356.556 263.686 356.429 263.8 356.312C264.15 355.953 264.215 356.728 264.22 356.963C264.226 357.248 263.996 357.696 263.672 357.736C263.283 357.785 262.823 357.242 262.613 356.975C262.362 356.655 263.356 356.311 263.5 355.916" stroke="white" stroke-width="3" stroke-linecap="round"/>
<path d="M256.938 353.521C256.484 353.685 255.952 353.839 255.669 353.293C255.554 353.072 255.783 353.026 255.94 352.996" stroke="white" stroke-width="3" stroke-linecap="round"/>
<path d="M257.257 348.366C256.802 348.53 256.27 348.684 255.987 348.138C255.873 347.918 256.101 347.872 256.259 347.842" stroke="white" stroke-width="3" stroke-linecap="round"/>
<path d="M111.526 142.903C112.321 142.795 113.047 142.555 113.75 142.167C114.511 141.747 115.442 141.406 115.869 140.588C116.189 139.974 115.865 139.438 115.309 139.125C114.518 138.68 113.706 138.61 112.91 139.035C112.38 139.319 111.842 139.674 111.546 140.217C111.354 140.569 110.884 141.755 111.186 142.11C111.518 142.5 112.163 142.028 112.491 141.849C113.43 141.338 114.424 140.678 115.08 139.823" stroke="#061E4C" stroke-width="3" stroke-linecap="round"/>
<path d="M105.49 146.759C106.342 146.66 106.934 145.328 106.977 144.55C107.004 144.062 106.422 143.916 106.046 143.802C105.328 143.586 104.714 143.631 104.272 144.292C103.745 145.082 104.594 146.319 105.317 146.725" stroke="#061E4C" stroke-width="3" stroke-linecap="round"/>
<path d="M118.097 155.305C118.95 155.207 119.542 153.875 119.585 153.097C119.612 152.609 119.03 152.462 118.653 152.349C117.935 152.133 117.321 152.178 116.88 152.838C116.352 153.628 117.201 154.865 117.924 155.272" stroke="#061E4C" stroke-width="3" stroke-linecap="round"/>
<path d="M104.822 137.214C105.21 137.318 105.495 137.491 105.796 137.741C105.922 137.846 106.018 137.973 106.132 138.09C106.482 138.449 106.547 137.674 106.552 137.439C106.558 137.154 106.328 136.706 106.004 136.665C105.615 136.617 105.155 137.16 104.945 137.427C104.694 137.747 105.688 138.091 105.832 138.485" stroke="#061E4C" stroke-width="3" stroke-linecap="round"/>
<path d="M117.429 145.761C117.817 145.865 118.103 146.037 118.404 146.288C118.53 146.392 118.625 146.519 118.74 146.636C119.089 146.995 119.154 146.22 119.16 145.985C119.166 145.7 118.935 145.252 118.611 145.212C118.223 145.164 117.763 145.707 117.553 145.974C117.301 146.294 118.295 146.637 118.439 147.032" stroke="#061E4C" stroke-width="3" stroke-linecap="round"/>
<path d="M111.878 149.428C111.423 149.264 110.892 149.11 110.608 149.656C110.494 149.876 110.722 149.922 110.88 149.952" stroke="#061E4C" stroke-width="3" stroke-linecap="round"/>
<path d="M112.196 154.582C111.742 154.418 111.21 154.264 110.926 154.81C110.812 155.03 111.041 155.076 111.198 155.106" stroke="#061E4C" stroke-width="3" stroke-linecap="round"/>
<path d="M162.807 278.696C163.603 278.805 164.328 279.045 165.032 279.432C165.792 279.852 166.723 280.194 167.15 281.011C167.47 281.625 167.146 282.161 166.59 282.474C165.799 282.919 164.987 282.989 164.192 282.564C163.661 282.28 163.123 281.925 162.828 281.382C162.635 281.03 162.165 279.844 162.467 279.489C162.799 279.099 163.444 279.571 163.773 279.75C164.711 280.261 165.705 280.921 166.361 281.776" stroke="white" stroke-width="3" stroke-linecap="round"/>
<path d="M156.771 274.84C157.624 274.939 158.215 276.271 158.259 277.049C158.286 277.537 157.704 277.683 157.327 277.797C156.609 278.013 155.995 277.968 155.553 277.307C155.026 276.517 155.875 275.281 156.598 274.874" stroke="white" stroke-width="3" stroke-linecap="round"/>
<path d="M169.378 266.294C170.231 266.393 170.823 267.725 170.866 268.503C170.893 268.991 170.311 269.137 169.934 269.25C169.217 269.466 168.602 269.422 168.161 268.761C167.633 267.971 168.482 266.734 169.205 266.327" stroke="white" stroke-width="3" stroke-linecap="round"/>
<path d="M156.103 284.385C156.491 284.281 156.777 284.108 157.078 283.858C157.204 283.753 157.299 283.626 157.414 283.509C157.763 283.15 157.828 283.925 157.833 284.16C157.84 284.445 157.609 284.894 157.285 284.934C156.896 284.982 156.436 284.439 156.226 284.172C155.975 283.852 156.969 283.509 157.113 283.114" stroke="white" stroke-width="3" stroke-linecap="round"/>
<path d="M168.711 275.839C169.098 275.735 169.384 275.562 169.685 275.312C169.811 275.207 169.907 275.08 170.021 274.963C170.371 274.604 170.436 275.379 170.441 275.614C170.447 275.899 170.217 276.347 169.893 276.387C169.504 276.436 169.044 275.892 168.834 275.625C168.582 275.305 169.577 274.962 169.721 274.567" stroke="white" stroke-width="3" stroke-linecap="round"/>
<path d="M163.159 272.172C162.705 272.336 162.173 272.489 161.889 271.944C161.775 271.723 162.003 271.677 162.161 271.647" stroke="white" stroke-width="3" stroke-linecap="round"/>
<path d="M163.477 267.017C163.023 267.181 162.491 267.335 162.208 266.789C162.093 266.569 162.322 266.523 162.479 266.493" stroke="white" stroke-width="3" stroke-linecap="round"/>
<path d="M166.452 11.8055C167.549 11.134 168.46 10.3083 169.243 9.27354C170.09 8.15428 171.238 7.04357 171.34 5.53611C171.418 4.40377 170.6 3.79992 169.585 3.68195C168.14 3.514 166.905 3.92708 166.01 5.0772C165.414 5.84364 164.852 6.72477 164.765 7.73284C164.708 8.38819 164.776 10.4806 165.446 10.8241C166.182 11.2015 166.826 10.0771 167.194 9.59646C168.243 8.22551 169.279 6.59421 169.695 4.88319" stroke="#061E4C" stroke-width="3" stroke-linecap="round"/>
<path d="M160.067 21.4847C161.254 20.7916 161.271 18.4008 160.836 17.1977C160.564 16.4428 159.617 16.5929 158.992 16.662C157.802 16.7936 156.929 17.2533 156.705 18.5333C156.436 20.0639 158.471 21.3911 159.792 21.5446" stroke="#061E4C" stroke-width="3" stroke-linecap="round"/>
<path d="M184.018 26.3543C185.205 25.6612 185.222 23.2704 184.788 22.0673C184.515 21.3125 183.568 21.4625 182.943 21.5316C181.753 21.6632 180.881 22.123 180.656 23.4029C180.387 24.9335 182.423 26.2607 183.743 26.4142" stroke="#061E4C" stroke-width="3" stroke-linecap="round"/>
<path d="M152.987 7.48626C153.622 7.39607 154.152 7.47486 154.753 7.66087C155.005 7.73888 155.226 7.86916 155.469 7.97362C156.211 8.29298 155.811 7.0798 155.668 6.72157C155.495 6.28672 154.871 5.75647 154.37 5.90248C153.769 6.07777 153.442 7.19209 153.304 7.72968C153.14 8.37377 154.817 8.25795 155.281 8.7628" stroke="#061E4C" stroke-width="3" stroke-linecap="round"/>
<path d="M176.937 12.3559C177.572 12.2657 178.101 12.3445 178.702 12.5305C178.954 12.6085 179.175 12.7388 179.418 12.8433C180.16 13.1626 179.76 11.9494 179.617 11.5912C179.444 11.1564 178.82 10.6261 178.319 10.7721C177.718 10.9474 177.391 12.0617 177.254 12.5993C177.089 13.2434 178.767 13.1276 179.23 13.6324" stroke="#061E4C" stroke-width="3" stroke-linecap="round"/>
<path d="M171.142 21.4404C170.372 21.4825 169.493 21.5894 169.427 22.5952C169.4 23.0011 169.764 22.9246 170.014 22.8701" stroke="#061E4C" stroke-width="3" stroke-linecap="round"/>
<path d="M174.902 29.0263C174.131 29.0684 173.253 29.1753 173.186 30.1812C173.159 30.5871 173.524 30.5106 173.774 30.4561" stroke="#061E4C" stroke-width="3" stroke-linecap="round"/>
<path d="M166.512 433.143C167.61 433.814 168.52 434.64 169.304 435.675C170.151 436.794 171.298 437.905 171.401 439.412C171.478 440.544 170.66 441.148 169.646 441.266C168.201 441.434 166.966 441.021 166.071 439.871C165.474 439.105 164.912 438.223 164.825 437.215C164.769 436.56 164.837 434.468 165.507 434.124C166.243 433.747 166.887 434.871 167.255 435.352C168.304 436.723 169.34 438.354 169.755 440.065" stroke="white" stroke-width="3" stroke-linecap="round"/>
<path d="M160.127 423.464C161.314 424.157 161.331 426.547 160.897 427.751C160.625 428.505 159.678 428.355 159.053 428.286C157.862 428.155 156.99 427.695 156.765 426.415C156.496 424.884 158.532 423.557 159.852 423.404" stroke="white" stroke-width="3" stroke-linecap="round"/>
<path d="M184.078 418.594C185.266 419.287 185.282 421.678 184.848 422.881C184.576 423.636 183.629 423.486 183.004 423.417C181.813 423.285 180.941 422.825 180.716 421.545C180.447 420.015 182.483 418.688 183.803 418.534" stroke="white" stroke-width="3" stroke-linecap="round"/>
<path d="M153.048 437.462C153.683 437.552 154.213 437.473 154.814 437.287C155.066 437.209 155.287 437.079 155.53 436.975C156.272 436.655 155.871 437.868 155.729 438.227C155.556 438.662 154.931 439.192 154.431 439.046C153.83 438.87 153.502 437.756 153.365 437.219C153.2 436.574 154.878 436.69 155.341 436.185" stroke="white" stroke-width="3" stroke-linecap="round"/>
<path d="M176.997 432.592C177.632 432.683 178.162 432.604 178.763 432.418C179.015 432.34 179.236 432.209 179.479 432.105C180.221 431.786 179.82 432.999 179.678 433.357C179.505 433.792 178.88 434.322 178.38 434.176C177.779 434.001 177.452 432.887 177.314 432.349C177.15 431.705 178.827 431.821 179.291 431.316" stroke="white" stroke-width="3" stroke-linecap="round"/>
<path d="M171.203 423.508C170.432 423.466 169.554 423.359 169.487 422.353C169.46 421.947 169.824 422.024 170.075 422.078" stroke="white" stroke-width="3" stroke-linecap="round"/>
<path d="M174.963 415.922C174.192 415.88 173.314 415.773 173.247 414.767C173.22 414.361 173.584 414.438 173.835 414.492" stroke="white" stroke-width="3" stroke-linecap="round"/>
<path d="M108.452 179.806C109.549 179.134 110.46 178.308 111.243 177.274C112.09 176.154 113.238 175.044 113.34 173.536C113.418 172.404 112.6 171.8 111.585 171.682C110.14 171.514 108.905 171.927 108.01 173.077C107.414 173.844 106.852 174.725 106.765 175.733C106.708 176.388 106.776 178.481 107.446 178.824C108.182 179.201 108.826 178.077 109.194 177.596C110.243 176.226 111.279 174.594 111.695 172.883" stroke="#061E4C" stroke-width="3" stroke-linecap="round"/>
<path d="M102.067 189.485C103.254 188.792 103.271 186.401 102.836 185.198C102.564 184.443 101.617 184.593 100.992 184.662C99.8018 184.794 98.9294 185.253 98.7045 186.533C98.4357 188.064 100.471 189.391 101.792 189.545" stroke="#061E4C" stroke-width="3" stroke-linecap="round"/>
<path d="M126.018 194.354C127.205 193.661 127.222 191.27 126.788 190.067C126.515 189.312 125.568 189.463 124.943 189.532C123.753 189.663 122.881 190.123 122.656 191.403C122.387 192.933 124.423 194.261 125.743 194.414" stroke="#061E4C" stroke-width="3" stroke-linecap="round"/>
<path d="M94.9875 175.486C95.6223 175.396 96.1521 175.475 96.753 175.661C97.0051 175.739 97.2262 175.869 97.469 175.974C98.211 176.293 97.8106 175.08 97.6681 174.722C97.4952 174.287 96.8707 173.756 96.3701 173.902C95.7691 174.078 95.4417 175.192 95.3044 175.73C95.1399 176.374 96.8174 176.258 97.2809 176.763" stroke="#061E4C" stroke-width="3" stroke-linecap="round"/>
<path d="M118.937 180.356C119.572 180.266 120.101 180.344 120.702 180.53C120.954 180.609 121.175 180.739 121.418 180.843C122.16 181.163 121.76 179.949 121.617 179.591C121.444 179.156 120.82 178.626 120.319 178.772C119.718 178.947 119.391 180.062 119.254 180.599C119.089 181.243 120.767 181.128 121.23 181.632" stroke="#061E4C" stroke-width="3" stroke-linecap="round"/>
<path d="M113.142 189.44C112.372 189.482 111.493 189.589 111.427 190.595C111.4 191.001 111.764 190.925 112.014 190.87" stroke="#061E4C" stroke-width="3" stroke-linecap="round"/>
<path d="M116.902 197.026C116.131 197.068 115.253 197.175 115.186 198.181C115.159 198.587 115.524 198.511 115.774 198.456" stroke="#061E4C" stroke-width="3" stroke-linecap="round"/>
<path d="M99.6461 257.005C100.348 258.036 100.853 259.058 101.196 260.139C101.567 261.308 102.184 262.639 101.839 263.632C101.58 264.378 100.743 264.295 99.8845 263.8C98.662 263.095 97.7751 262.147 97.3744 260.932C97.1073 260.123 96.9011 259.261 97.117 258.587C97.2573 258.149 97.9074 256.889 98.5496 257.051C99.2552 257.228 99.4595 258.287 99.6219 258.791C100.085 260.229 100.464 261.822 100.315 263.116" stroke="white" stroke-width="3" stroke-linecap="round"/>
<path d="M95.4122 246.886C96.0837 248.086 94.8847 250.154 93.9001 250.971C93.2824 251.483 92.5425 250.873 92.0392 250.496C91.0802 249.779 90.5618 248.94 91.0176 247.723C91.5626 246.268 93.9903 246.157 95.2058 246.695" stroke="white" stroke-width="3" stroke-linecap="round"/>
<path d="M86.8523 260.273C87.3535 260.673 87.8501 260.874 88.4623 261.019C88.719 261.08 88.9757 261.08 89.2379 261.113C90.0393 261.214 89.0787 262.056 88.7741 262.293C88.4044 262.58 87.5972 262.72 87.24 262.34C86.811 261.884 87.0945 260.757 87.249 260.225C87.434 259.586 88.8207 260.537 89.4763 260.337" stroke="white" stroke-width="3" stroke-linecap="round"/>
<path d="M106.852 256.273C107.354 256.673 107.85 256.874 108.462 257.019C108.719 257.08 108.976 257.08 109.238 257.113C110.039 257.214 109.079 258.056 108.774 258.293C108.404 258.58 107.597 258.72 107.24 258.34C106.811 257.884 107.094 256.757 107.249 256.225C107.434 255.586 108.821 256.537 109.476 256.337" stroke="white" stroke-width="3" stroke-linecap="round"/>
<path d="M104.474 251.168C103.831 250.741 103.128 250.203 103.581 249.303C103.764 248.939 104.039 249.19 104.227 249.364" stroke="white" stroke-width="3" stroke-linecap="round"/>
<path d="M60.6889 247.912C61.8305 248.506 62.7968 249.266 63.6504 250.243C64.5737 251.301 65.7955 252.329 66.0033 253.825C66.1594 254.949 65.3858 255.609 64.3816 255.797C62.9519 256.066 61.691 255.74 60.7179 254.655C60.0694 253.932 59.4476 253.092 59.2905 252.093C59.1883 251.443 59.1102 249.351 59.7543 248.962C60.4621 248.534 61.1833 249.61 61.5838 250.064C62.726 251.359 63.8732 252.914 64.4071 254.591" stroke="white" stroke-width="4" stroke-linecap="round"/>
<path d="M57.0665 207.485C58.2539 206.792 58.2705 204.401 57.8364 203.198C57.564 202.443 56.617 202.593 55.9922 202.662C54.8018 202.794 53.9294 203.253 53.7045 204.533C53.4357 206.064 55.4714 207.391 56.7917 207.545" stroke="#061E4C" stroke-width="5" stroke-linecap="round"/>
<path d="M57.1271 237.464C58.3145 238.157 58.3311 240.547 57.8969 241.751C57.6246 242.505 56.6776 242.355 56.0528 242.286C54.8623 242.155 53.9899 241.695 53.7651 240.415C53.4963 238.884 55.532 237.557 56.8522 237.404" stroke="white" stroke-width="3" stroke-linecap="round"/>
<path d="M48.685 222.79C49.202 223.165 49.1318 224.591 48.8954 225.323C48.747 225.782 48.3217 225.724 48.04 225.703C47.5034 225.663 47.122 225.417 47.0615 224.661C46.9891 223.756 47.9573 222.898 48.5621 222.764" stroke="white" stroke-width="5" stroke-linecap="round"/>
<path d="M43.9298 203.948C43.4681 203.769 43.0457 203.659 42.5749 203.643C42.7816 203.081 43.1513 202.28 43.6705 202.167C44.18 202.056 44.766 202.629 44.9082 203.075C45.0253 203.442 45.3401 204.68 44.6221 204.31C44.3873 204.189 44.1757 204.043 43.9298 203.948Z" fill="white"/>
<path d="M42.1807 203.651C42.8203 203.605 43.3433 203.72 43.9298 203.948C44.1757 204.043 44.3873 204.189 44.6221 204.31C45.3401 204.68 45.0253 203.442 44.9082 203.075C44.766 202.629 44.18 202.056 43.6705 202.167C43.0587 202.3 42.6544 203.389 42.4799 203.915C42.2708 204.547 43.9524 204.548 44.3795 205.084" stroke="#061E4C" stroke-width="3" stroke-linecap="round"/>
<path d="M35.9298 220.948C35.4681 220.769 35.0457 220.659 34.5749 220.643C34.7816 220.081 35.1513 219.28 35.6705 219.167C36.18 219.056 36.766 219.629 36.9082 220.075C37.0253 220.442 37.3401 221.68 36.6221 221.31C36.3873 221.189 36.1757 221.043 35.9298 220.948Z" fill="white"/>
<path d="M34.1807 220.651C34.8203 220.605 35.3433 220.72 35.9298 220.948C36.1757 221.043 36.3873 221.189 36.6221 221.31C37.3401 221.68 37.0253 220.442 36.9082 220.075C36.766 219.629 36.18 219.056 35.6705 219.167C35.0587 219.3 34.6544 220.389 34.4799 220.915C34.2708 221.547 35.9524 221.548 36.3795 222.084" stroke="#061E4C" stroke-width="3" stroke-linecap="round"/>
<path d="M49.3067 252.863C48.8451 253.042 48.4227 253.152 47.9519 253.168C48.1586 253.73 48.5283 254.531 49.0474 254.644C49.557 254.755 50.143 254.182 50.2852 253.736C50.4023 253.369 50.717 252.131 49.9991 252.501C49.7642 252.622 49.5527 252.768 49.3067 252.863Z" fill="white"/>
<path d="M47.5577 253.16C48.1972 253.206 48.7203 253.091 49.3067 252.863C49.5527 252.768 49.7642 252.622 49.9991 252.501C50.717 252.131 50.4023 253.369 50.2852 253.736C50.143 254.182 49.557 254.755 49.0474 254.644C48.4356 254.511 48.0314 253.422 47.8569 252.896C47.6478 252.265 49.3293 252.263 49.7564 251.727" stroke="white" stroke-width="3" stroke-linecap="round"/>
<path d="M68.9298 209.948C68.4681 209.769 68.0457 209.659 67.5749 209.643C67.7816 209.081 68.1513 208.28 68.6705 208.167C69.18 208.056 69.766 208.629 69.9082 209.075C70.0253 209.442 70.3401 210.68 69.6221 210.31C69.3873 210.189 69.1757 210.043 68.9298 209.948Z" fill="white"/>
<path d="M67.1807 209.651C67.8203 209.605 68.3433 209.72 68.9298 209.948C69.1757 210.043 69.3873 210.189 69.6221 210.31C70.3401 210.68 70.0253 209.442 69.9082 209.075C69.766 208.629 69.18 208.056 68.6705 208.167C68.0587 208.3 67.6544 209.389 67.4799 209.915C67.2708 210.547 68.9524 210.548 69.3795 211.084" stroke="#061E4C" stroke-width="3" stroke-linecap="round"/>
<path d="M72.8575 246.334C72.3958 246.513 71.9735 246.623 71.5026 246.639C71.7093 247.201 72.0791 248.002 72.5982 248.115C73.1078 248.225 73.6938 247.653 73.8359 247.207C73.9531 246.84 74.2678 245.601 73.5499 245.972C73.315 246.093 73.1035 246.238 72.8575 246.334Z" fill="white"/>
<path d="M71.1085 246.631C71.748 246.677 72.271 246.561 72.8575 246.334C73.1035 246.238 73.315 246.093 73.5499 245.972C74.2678 245.601 73.9531 246.84 73.8359 247.207C73.6938 247.653 73.1078 248.225 72.5982 248.115C71.9864 247.982 71.5821 246.893 71.4076 246.366C71.1986 245.735 72.8801 245.734 73.3072 245.198" stroke="white" stroke-width="3" stroke-linecap="round"/>
<path d="M20.4516 70.8055C21.5491 70.134 22.4599 69.3083 23.2432 68.2735C24.0905 67.1543 25.2375 66.0436 25.3404 64.5361C25.4177 63.4038 24.5999 62.7999 23.585 62.6819C22.1401 62.514 20.905 62.9271 20.01 64.0772C19.4135 64.8436 18.8518 65.7248 18.7649 66.7328C18.7083 67.3882 18.7764 69.4806 19.4461 69.8241C20.182 70.2015 20.8263 69.0771 21.1941 68.5965C22.2433 67.2255 23.2791 65.5942 23.6946 63.8832" stroke="#061E4C" stroke-width="3" stroke-linecap="round"/>
<path d="M14.0665 80.4847C15.2539 79.7916 15.2705 77.4008 14.8364 76.1977C14.564 75.4428 13.617 75.5929 12.9922 75.662C11.8018 75.7936 10.9294 76.2533 10.7045 77.5333C10.4357 79.0639 12.4714 80.3911 13.7917 80.5446" stroke="#061E4C" stroke-width="3" stroke-linecap="round"/>
<path d="M38.0177 85.3543C39.2051 84.6612 39.2217 82.2704 38.7876 81.0673C38.5152 80.3125 37.5682 80.4625 36.9434 80.5316C35.7529 80.6632 34.8805 81.123 34.6557 82.4029C34.3869 83.9335 36.4226 85.2607 37.7428 85.4142" stroke="#061E4C" stroke-width="3" stroke-linecap="round"/>
<path d="M6.9875 66.4863C7.62229 66.3961 8.15212 66.4749 8.75303 66.6609C9.00505 66.7389 9.22624 66.8692 9.46896 66.9736C10.211 67.293 9.81061 66.0798 9.66814 65.7216C9.49521 65.2867 8.87067 64.7565 8.37008 64.9025C7.76906 65.0778 7.44175 66.1921 7.30444 66.7297C7.13992 67.3738 8.81743 67.2579 9.28093 67.7628" stroke="#061E4C" stroke-width="3" stroke-linecap="round"/>
<path d="M30.9367 71.3559C31.5715 71.2657 32.1013 71.3445 32.7022 71.5305C32.9543 71.6085 33.1755 71.7388 33.4182 71.8433C34.1602 72.1626 33.7598 70.9494 33.6174 70.5912C33.4444 70.1564 32.8199 69.6261 32.3193 69.7721C31.7183 69.9474 31.391 71.0617 31.2537 71.5993C31.0891 72.2434 32.7667 72.1276 33.2302 72.6324" stroke="#061E4C" stroke-width="3" stroke-linecap="round"/>
<path d="M25.1425 80.4404C24.3716 80.4825 23.4932 80.5894 23.4266 81.5952C23.3997 82.0011 23.764 81.9246 24.0143 81.8701" stroke="#061E4C" stroke-width="3" stroke-linecap="round"/>
<path d="M28.9023 88.0263C28.1313 88.0684 27.253 88.1753 27.1863 89.1812C27.1594 89.5871 27.5237 89.5106 27.774 89.4561" stroke="#061E4C" stroke-width="3" stroke-linecap="round"/>
<path d="M20.5121 374.143C21.6096 374.814 22.5205 375.64 23.3038 376.675C24.151 377.794 25.2981 378.905 25.401 380.412C25.4782 381.544 24.6605 382.148 23.6455 382.266C22.2007 382.434 20.9655 382.021 20.0705 380.871C19.4741 380.105 18.9124 379.223 18.8254 378.215C18.7689 377.56 18.8369 375.468 19.5066 375.124C20.2425 374.747 20.8869 375.871 21.2547 376.352C22.3038 377.723 23.3397 379.354 23.7552 381.065" stroke="white" stroke-width="3" stroke-linecap="round"/>
<path d="M14.1271 364.464C15.3145 365.157 15.3311 367.547 14.8969 368.751C14.6246 369.505 13.6776 369.355 13.0528 369.286C11.8623 369.155 10.9899 368.695 10.7651 367.415C10.4963 365.884 12.532 364.557 13.8522 364.404" stroke="white" stroke-width="3" stroke-linecap="round"/>
<path d="M38.0783 359.594C39.2656 360.287 39.2822 362.678 38.8481 363.881C38.5757 364.636 37.6287 364.486 37.0039 364.417C35.8135 364.285 34.9411 363.825 34.7163 362.545C34.4474 361.015 36.4831 359.688 37.8034 359.534" stroke="white" stroke-width="3" stroke-linecap="round"/>
<path d="M7.04805 378.462C7.68284 378.552 8.21267 378.473 8.81358 378.287C9.0656 378.209 9.28678 378.079 9.5295 377.975C10.2716 377.655 9.87116 378.868 9.72869 379.227C9.55576 379.662 8.93122 380.192 8.43063 380.046C7.8296 379.87 7.5023 378.756 7.36498 378.219C7.20047 377.574 8.87798 377.69 9.34148 377.185" stroke="white" stroke-width="3" stroke-linecap="round"/>
<path d="M30.9973 373.592C31.6321 373.683 32.1619 373.604 32.7628 373.418C33.0148 373.34 33.236 373.209 33.4787 373.105C34.2208 372.786 33.8204 373.999 33.6779 374.357C33.505 374.792 32.8804 375.322 32.3798 375.176C31.7788 375.001 31.4515 373.887 31.3142 373.349C31.1497 372.705 32.8272 372.821 33.2907 372.316" stroke="white" stroke-width="3" stroke-linecap="round"/>
<path d="M25.203 364.508C24.4321 364.466 23.5537 364.359 23.4871 363.353C23.4602 362.947 23.8245 363.024 24.0748 363.078" stroke="white" stroke-width="3" stroke-linecap="round"/>
<path d="M28.9628 356.922C28.1919 356.88 27.3135 356.773 27.2469 355.767C27.22 355.361 27.5843 355.438 27.8346 355.492" stroke="white" stroke-width="3" stroke-linecap="round"/>
<path d="M93.3301 124.335L107.027 119.279" stroke="#061E4C" stroke-width="2" stroke-linecap="round"/>
<path d="M93.3906 320.613L107.087 325.669" stroke="white" stroke-width="2" stroke-linecap="round"/>
<path d="M4.15492 220.879C7.56588 222.113 9.25436 224.481 11.5159 227.643C14.0488 231.185 16.4655 234.98 18.3562 238.862C19.8249 241.878 21.2024 244.719 23.1976 247.509C26.8979 252.684 30.5981 257.859 34.2984 263.033C36.2928 265.822 38.0437 268.833 39.6479 271.831C40.9093 274.188 42.3313 276.284 43.895 278.471C44.9363 279.927 46.0961 281.356 47.4405 282.477C48.3477 283.233 49.0929 284.42 50.0841 284.857" stroke="white" stroke-width="5" stroke-linecap="round"/>
</svg>
