<svg width="20" height="82" viewBox="0 0 20 82" fill="none" xmlns="http://www.w3.org/2000/svg">
<path fill-rule="evenodd" clip-rule="evenodd" d="M8.3198 12.2514C7.98563 12.4278 7.64996 12.616 7.314 12.8158C2.44173 15.7139 -0.648306 19.9691 0.412219 22.3201C1.47274 24.6711 6.28222 24.2276 11.1545 21.3295C15.0502 19.0123 17.8065 15.8275 18.2128 13.4421C18.7686 11.0851 16.2165 6.93533 12.0812 3.68803C7.54151 0.123152 2.81278 -1.00414 1.51934 1.17016C0.225887 3.34446 2.85752 7.99699 7.39725 11.5619C7.70427 11.803 8.01216 12.0329 8.3198 12.2514Z" fill="#061E4C"/>
<path fill-rule="evenodd" clip-rule="evenodd" d="M9.04441 41.0743C8.71024 41.2507 8.37457 41.4389 8.03861 41.6387C3.16634 44.5368 0.0763036 48.792 1.13683 51.143C2.19735 53.494 7.00683 53.0505 11.8791 50.1524C15.7748 47.8352 18.5312 44.6503 18.9374 42.265C19.4931 39.9079 16.9411 35.7582 12.8058 32.5109C8.26612 28.946 3.53739 27.8187 2.24394 29.993C0.950497 32.1673 3.58213 36.8199 8.12186 40.3847C8.42888 40.6258 8.73677 40.8558 9.04441 41.0743Z" fill="#061E4C"/>
<path fill-rule="evenodd" clip-rule="evenodd" d="M8.64792 69.6236C8.31376 69.7999 7.97809 69.9881 7.64212 70.188C2.76985 73.086 -0.320181 77.3412 0.740344 79.6922C1.80087 82.0432 6.61035 81.5997 11.4826 78.7017C15.3783 76.3844 18.1346 73.1996 18.5409 70.8142C19.0967 68.4572 16.5446 64.3074 12.4094 61.0602C7.86963 57.4953 3.14091 56.368 1.84746 58.5423C0.554013 60.7166 3.18564 65.3691 7.72537 68.934C8.0324 69.1751 8.34029 69.405 8.64792 69.6236Z" fill="#061E4C"/>
</svg>
