<svg width="20" height="96" viewBox="0 0 20 96" fill="none" xmlns="http://www.w3.org/2000/svg">
<path fill-rule="evenodd" clip-rule="evenodd" d="M11.6469 80.8274C11.9839 80.6203 12.3225 80.3992 12.6613 80.1643C17.5306 76.7878 20.6155 71.8193 19.5517 69.0669C18.488 66.3145 13.6783 66.8203 8.80907 70.1968C4.99016 72.845 2.26881 76.4724 1.78566 79.2419C1.09278 81.9552 3.6683 86.9184 7.88999 90.7912C12.4325 94.9581 17.1606 96.2846 18.4506 93.7539C19.7407 91.2231 17.104 85.7936 12.5616 81.6266C12.2571 81.3473 11.9519 81.0808 11.6469 80.8274Z" fill="white"/>
<path fill-rule="evenodd" clip-rule="evenodd" d="M10.9359 47.1835C11.273 46.9765 11.6115 46.7554 11.9504 46.5204C16.8196 43.1439 19.9046 38.1755 18.8408 35.423C17.777 32.6706 12.9674 33.1765 8.09813 36.553C4.27921 39.2011 1.55785 42.8285 1.07471 45.5981C0.381858 48.3113 2.95737 53.2746 7.17905 57.1473C11.7215 61.3143 16.4497 62.6407 17.7397 60.11C19.0297 57.5793 16.3931 52.1497 11.8506 47.9827C11.5462 47.7035 11.2409 47.437 10.9359 47.1835Z" fill="white"/>
<path fill-rule="evenodd" clip-rule="evenodd" d="M11.3451 13.8584C11.6821 13.6514 12.0207 13.4303 12.3596 13.1953C17.2288 9.81886 20.3138 4.85039 19.25 2.09796C18.1862 -0.654476 13.3766 -0.148587 8.50731 3.22789C4.6884 5.87604 1.96704 9.50345 1.4839 12.273C0.791026 14.9862 3.36654 19.9495 7.58823 23.8222C12.1307 27.9892 16.8589 29.3157 18.1489 26.7849C19.4389 24.2542 16.8023 18.8246 12.2598 14.6577C11.9554 14.3784 11.6501 14.1119 11.3451 13.8584Z" fill="white"/>
</svg>
