<svg width="1420" height="683" viewBox="0 0 1420 683" fill="none" xmlns="http://www.w3.org/2000/svg">
<path d="M-34.0117 527.251C-37.0657 525.499 -38.669 523.486 -38.8218 521.213C-39.2993 518.961 -38.9648 516.655 -37.8184 514.294C-36.6938 511.608 -34.9196 508.879 -32.4958 506.106C-30.0502 503.658 -27.3575 497.605 -24.4175 487.946C-21.4557 478.612 -18.4625 467.318 -15.4377 454.065C-12.11 440.465 -9.02103 425.739 -6.17083 409.887C-2.99584 394.014 -0.123814 378.487 2.44524 363.306C5.01429 348.126 7.17252 334.115 8.91993 321.274C10.6673 308.433 11.9397 298.233 12.7371 290.676C13.7501 281.473 14.871 271.447 16.0997 260.598C17.091 251.07 18.1464 240.069 19.266 227.597C20.3639 214.799 21.212 200.713 21.8105 185.339L59.607 165.182C64.9539 162.213 68.895 162.601 71.4303 166.345C73.9439 169.765 74.4566 177.398 72.9685 189.243C72.3869 195.155 71.2442 204.856 69.5404 218.347C67.8148 231.513 65.7002 246.173 63.1966 262.328C60.996 278.136 58.5033 294.453 55.7185 311.279C53.2367 327.758 50.635 342.452 47.9132 355.358C45.4726 367.594 42.6648 381.648 39.4898 397.522C33.8087 424.656 25.8591 461.731 15.6409 508.745C20.7115 516.235 29.4179 519.565 41.7598 518.736C55.401 517.819 70.8041 511.565 87.9694 499.971C105.459 488.356 121.951 471.588 137.443 449.667C152.936 427.746 165.968 400.77 176.541 368.74C187.416 336.363 193.07 299.116 193.504 257C193.6 234.156 191.122 214.258 186.068 197.306C181.014 180.354 174.035 166.304 165.129 155.157C156.549 143.988 146.216 135.874 134.131 130.813C122.371 125.73 109.508 123.658 95.5418 124.596C62.7381 126.8 29.7141 142.721 -3.53043 172.36L-8.68268 132.087C-0.87089 122.101 8.23039 114.312 18.6211 108.72C29.3149 102.782 39.2839 98.1969 48.5282 94.9659C59.3747 91.301 70.4708 88.9243 81.8166 87.8359C102.603 86.4396 122.85 89.1576 142.558 95.9901C162.569 102.476 180.103 113.37 195.16 128.671C210.542 143.95 222.797 163.681 231.925 187.863C241.031 211.721 245.55 240.127 245.48 273.084C245.446 292.009 242.869 311.92 237.747 332.818C232.929 353.37 225.978 373.738 216.894 393.924C208.134 414.088 197.361 433.408 184.573 451.885C171.785 470.361 157.546 486.652 141.854 500.756C126.184 515.185 109.182 526.767 90.8456 535.503C72.5315 544.563 53.306 549.77 33.1691 551.123C26.9763 551.212 20.2417 550.523 12.9655 549.054C6.68539 547.845 -0.483026 545.553 -8.53977 542.179C-16.5965 538.805 -25.0871 533.83 -34.0117 527.251ZM489.399 327.169C480.616 342.114 470.511 356.822 459.085 371.292C447.638 385.438 435.291 398.339 422.045 409.995C409.102 421.304 395.541 430.698 381.362 438.176C367.508 445.631 353.76 449.817 340.119 450.734C332.974 451.214 325.059 449.951 316.374 446.946C308.036 444.243 300.217 439.548 292.917 432.861C285.616 426.174 279.473 417.289 274.487 406.205C269.826 395.099 267.762 381.372 268.295 365.023C268.699 351.619 271.821 337.381 277.66 322.307C283.802 306.887 291.492 292.668 300.732 279.649C310.296 266.609 321.138 255.604 333.26 246.633C345.706 237.641 358.425 232.708 371.416 231.835C383.758 231.006 392.897 233.492 398.833 239.292C404.769 245.092 407.718 252.561 407.679 261.699C407.381 271.832 405.08 281.285 400.775 290.057C396.795 298.807 391.787 306.81 385.749 314.067C379.712 321.324 373.143 327.964 366.044 333.988C359.269 339.989 352.787 345.481 346.597 350.465C339.779 355.817 333.274 360.984 327.084 365.968C320.872 370.626 315.45 374.906 310.818 378.806C311.688 386.903 313.608 393.626 316.577 398.973C319.547 404.32 323.1 408.648 327.237 411.959C331.353 414.945 335.901 417.087 340.882 418.383C346.166 419.333 351.406 419.634 356.603 419.285C367.646 418.543 378.947 414.358 390.506 406.73C402.043 398.778 413.168 389.548 423.881 379.041C434.897 368.187 444.917 357.073 453.941 345.701C463.289 334.306 470.949 324.494 476.922 316.262C479.021 313.511 481.196 311.897 483.448 311.419C486.002 310.595 487.973 310.789 489.359 312.001C491.049 312.866 491.992 314.761 492.188 317.684C492.362 320.282 491.433 323.444 489.399 327.169ZM359.641 260.521C355.743 260.783 351.165 263.048 345.905 267.316C340.97 271.563 336.155 277.596 331.461 285.415C326.744 292.91 322.472 302.168 318.645 313.192C314.796 323.891 312.193 336.137 310.836 349.931C314.537 346.746 318.563 343.539 322.914 340.311C327.242 336.757 331.56 333.042 335.867 329.163C349.113 317.507 358.224 307.434 363.2 298.943C368.176 290.453 370.793 283.262 371.05 277.372C371.285 271.158 370.34 266.817 368.217 264.349C366.072 261.557 363.213 260.281 359.641 260.521ZM709.196 335.405C707.14 338.806 703.722 343.766 698.94 350.286C694.482 356.784 688.921 363.846 682.256 371.472C675.915 379.075 668.459 387.08 659.889 395.486C651.622 403.545 642.661 410.998 633.007 417.846C632.21 425.403 630.483 436.122 627.826 450.003C625.192 464.209 621.497 479.628 616.742 496.26C611.986 512.893 606.268 529.753 599.585 546.841C592.925 564.253 585.181 580.107 576.354 594.403C567.873 609.002 558.233 620.905 547.432 630.113C536.654 639.646 524.931 644.838 512.264 645.689C499.598 646.54 489.55 645.094 482.121 641.352C474.692 637.61 469.124 632.437 465.418 625.835C461.409 619.579 458.807 612.413 457.612 604.337C456.439 596.586 455.764 588.964 455.587 581.472C455.257 571.707 457.416 560.143 462.065 546.78C466.736 533.743 473.495 520.238 482.345 506.267C491.54 492.6 502.718 479.288 515.876 466.333C529.057 453.702 543.981 442.749 560.649 433.473C568.854 429.333 576.42 425.399 583.347 421.671C590.252 417.618 596.681 413.761 602.634 410.098C604.513 399.206 604.195 392.049 601.681 388.629C599.493 385.188 596.45 383.598 592.552 383.86C586.706 384.252 579.897 387.32 572.127 393.062C564.681 398.782 555.483 407.556 544.532 419.384C541.306 419.927 538.361 419.799 535.697 418.999C533.337 417.853 531.29 416.522 529.557 415.007C527.499 413.514 525.744 411.675 524.292 409.488C520.349 404.207 518.354 398.795 518.308 393.251C518.586 387.686 520.89 383.127 525.219 379.574C529.526 375.696 535.802 369.565 544.048 361.181C552.597 352.45 560.679 341.63 568.294 328.721C570.652 324.974 573.443 320.382 576.667 314.945C580.193 309.162 583.536 303.065 586.694 296.654C590.155 289.896 593.28 282.998 596.07 275.959C599.185 268.899 601.509 262.217 603.043 255.916C596.482 255.377 587.074 256.173 574.819 258.301C568.411 260.036 561.526 261.967 554.165 264.093C547.778 266.153 540.45 268.766 532.18 271.932C524.235 275.075 515.868 279.226 507.079 284.384C505.737 283.822 504.675 282.588 503.894 280.683C503.114 278.778 502.474 276.537 501.975 273.961C501.454 271.059 501.073 267.822 500.833 264.25C500.527 259.703 500.926 255.924 502.029 252.914C503.435 249.557 505.209 246.827 507.352 244.726C509.494 242.624 511.832 240.999 514.365 239.85C516.876 238.377 519.084 237.25 520.989 236.469C523.219 235.667 527.549 234.56 533.979 233.15C540.713 231.392 548.269 229.743 556.648 228.201C565.027 226.659 573.752 225.421 582.825 224.485C591.875 223.225 600.146 222.506 607.638 222.329C622.969 222.278 632.692 223.745 636.808 226.731C641.226 229.371 642.679 234.004 641.167 240.631C639.33 247.279 635.687 258.616 630.238 274.643C624.768 290.344 616.051 308.711 604.088 329.742C599.068 337.583 594.503 344.904 590.392 351.705C586.281 358.507 582.279 364.485 578.384 369.64C583.73 366.671 589.121 364.352 594.555 362.682C599.967 360.687 605.434 359.504 610.956 359.133C618.426 358.631 623.538 361.876 626.291 368.869C629.37 375.84 631.355 383.537 632.247 391.959C644.693 382.967 655.645 373.585 665.102 363.815C674.885 354.023 685.142 341.589 695.874 326.512C698.557 322.743 701.014 320.458 703.244 319.655C705.799 318.831 707.78 319.188 709.188 320.724C710.575 321.936 711.366 324.004 711.562 326.927C711.737 329.525 710.948 332.351 709.196 335.405ZM594.534 449.793C595.009 447.151 595.495 444.671 595.992 442.354C596.836 440.34 597.506 438.174 598.003 435.857C581.746 446.411 566.984 457.353 553.717 468.684C540.471 480.341 529.044 492.364 519.436 504.755C510.153 517.123 503.014 529.837 498.019 542.897C493.023 555.956 490.637 569.004 490.86 582.039C491.059 589.856 492.643 596.438 495.612 601.784C498.906 607.109 504.126 609.532 511.271 609.052C519.066 608.528 526.967 602.288 534.972 590.331C543.325 578.678 551.178 564.448 558.531 547.641C566.231 531.137 573.227 513.865 579.519 495.825C585.833 478.109 590.838 462.765 594.534 449.793ZM898.633 299.679C889.85 314.624 879.745 329.332 868.319 343.802C856.872 357.947 844.525 370.848 831.279 382.504C818.336 393.814 804.775 403.207 790.596 410.685C776.742 418.141 762.994 422.327 749.353 423.243C742.208 423.723 734.293 422.46 725.608 419.455C717.27 416.753 709.451 412.058 702.15 405.371C694.85 398.683 688.707 389.798 683.721 378.714C679.06 367.608 676.996 353.881 677.529 337.532C677.933 324.129 681.055 309.89 686.894 294.817C693.036 279.396 700.726 265.177 709.965 252.159C719.53 239.118 730.372 228.113 742.494 219.142C754.94 210.15 767.659 205.217 780.65 204.345C792.992 203.516 802.131 206.001 808.067 211.801C814.003 217.601 816.952 225.07 816.913 234.208C816.615 244.342 814.314 253.795 810.009 262.566C806.029 271.316 801.021 279.32 794.983 286.577C788.945 293.834 782.377 300.474 775.278 306.497C768.503 312.498 762.021 317.991 755.831 322.974C749.013 328.326 742.508 333.494 736.318 338.477C730.106 343.136 724.684 347.415 720.052 351.315C720.922 359.413 722.842 366.135 725.811 371.482C728.78 376.829 732.334 381.158 736.471 384.469C740.587 387.455 745.135 389.596 750.116 390.893C755.4 391.843 760.64 392.143 765.837 391.794C776.88 391.052 788.181 386.868 799.74 379.24C811.277 371.287 822.402 362.057 833.115 351.55C844.131 340.696 854.151 329.583 863.175 318.21C872.523 306.816 880.183 297.003 886.155 288.772C888.254 286.021 890.43 284.406 892.682 283.929C895.236 283.105 897.207 283.299 898.593 284.51C900.283 285.376 901.225 287.27 901.422 290.193C901.596 292.791 900.667 295.953 898.633 299.679ZM768.874 233.03C764.977 233.292 760.398 235.557 755.139 239.826C750.204 244.072 745.389 250.105 740.694 257.924C735.978 265.419 731.706 274.678 727.879 285.701C724.03 296.4 721.427 308.646 720.07 322.44C723.771 319.255 727.797 316.049 732.148 312.82C736.476 309.267 740.794 305.551 745.101 301.673C758.347 290.017 767.458 279.943 772.434 271.453C777.41 262.962 780.027 255.772 780.283 249.882C780.519 243.667 779.574 239.326 777.451 236.859C775.306 234.067 772.447 232.791 768.874 233.03ZM851.687 402.177C849.653 405.902 847.37 408.339 844.837 409.488C842.001 410.984 839.576 411.31 837.562 410.466C835.245 409.969 833.674 408.444 832.85 405.889C832.026 403.334 832.458 400.043 834.144 396.014C834.988 394 836.967 389.463 840.081 382.402C842.871 375.364 846.385 366.971 850.625 357.225C854.517 347.176 858.853 336.444 863.633 325.031C868.391 313.292 872.867 302.225 877.063 291.829C881.583 281.412 885.692 272.164 889.391 264.085C893.068 255.682 895.761 249.628 897.469 245.925C893.678 242.917 891.09 240.807 889.703 239.595C888.295 238.058 887.103 234.876 886.126 230.048C885.193 225.869 885.796 220.282 887.936 213.287C890.076 206.292 893.05 199.567 896.858 193.113C900.644 186.333 904.982 180.495 909.873 175.599C914.765 170.703 919.646 168.092 924.518 167.764C933.612 167.153 940.142 169.651 944.107 175.257C948.397 180.842 951.075 186.697 952.139 192.825C953.072 197.003 953.107 202.384 952.244 208.967C951.381 215.55 949.338 221.56 946.115 226.997C947.133 227.581 948.486 228.306 950.176 229.171C951.843 229.711 954.464 229.862 958.036 229.622C963.233 229.273 966.784 228.708 968.689 227.927C970.919 227.125 974.307 226.571 978.854 226.266C984.376 225.895 989.021 227.051 992.79 229.734C996.537 232.092 999.689 235.306 1002.25 239.376C1004.78 243.12 1006.7 247.396 1008 252.202C1009.61 256.662 1010.7 260.83 1011.29 264.706C1012.81 272.76 1011.26 281.346 1006.66 290.465C1002.05 299.583 996.36 309.59 989.588 320.485C985.477 327.286 981.421 334.899 977.419 343.324C973.418 351.749 971.96 359.188 973.046 365.64C973.979 369.819 975.345 373.153 977.143 375.642C978.942 378.131 983.576 379.125 991.046 378.623C996.568 378.252 1002.45 375.9 1008.68 371.566C1015.22 366.886 1021.69 361.231 1028.09 354.602C1034.8 347.626 1041.32 340.174 1047.64 332.245C1053.93 323.992 1059.76 316.097 1065.13 308.559C1070.47 300.696 1074.9 293.71 1078.4 287.602C1082.23 281.473 1085.04 277.043 1086.81 274.314C1088.26 271.606 1090.25 269.678 1092.78 268.529C1095.32 267.38 1097.59 267.228 1099.6 268.071C1101.62 268.915 1102.89 270.787 1103.41 273.688C1104.25 276.568 1103.38 280.542 1100.78 285.61C1099.05 288.989 1095.99 294.414 1091.6 301.887C1087.53 309.338 1082.38 317.677 1076.15 326.904C1070.24 336.11 1063.55 345.695 1056.06 355.659C1048.55 365.299 1040.51 374.322 1031.94 382.727C1023.67 390.787 1015.16 397.558 1006.39 403.04C997.947 408.501 989.666 411.504 981.547 412.05C973.102 412.617 966.01 411.462 960.271 408.585C954.531 405.708 949.722 402.116 945.844 397.809C942.269 393.156 939.484 388.123 937.489 382.71C935.797 376.951 934.95 371.625 934.947 366.731C935.01 362.812 935.712 358.687 937.052 354.355C938.696 349.678 940.501 344.989 942.469 340.289C944.74 335.242 947.022 330.359 949.315 325.637C951.911 320.569 954.193 315.685 956.161 310.985C961.05 301.195 964.9 292.943 967.711 286.229C970.826 279.169 972.23 273.365 971.925 268.818C971.729 265.895 970.905 263.34 969.453 261.154C968.001 258.968 965.813 257.973 962.89 258.169C960.941 258.3 959.491 258.561 958.538 258.951C957.889 258.994 957.077 259.049 956.102 259.114C955.453 259.158 954.327 259.397 952.725 259.831C951.426 259.918 949.315 260.06 946.391 260.256C942.169 260.54 938.553 260.13 935.542 259.027C932.532 257.925 929.706 257.136 927.064 256.661C925.918 259.022 923.322 264.09 919.277 271.865C915.231 279.641 910.461 288.77 904.967 299.253C899.797 309.714 894.173 320.695 888.094 332.196C882.34 343.676 876.867 354.483 871.675 364.62C866.462 374.431 862.136 382.878 858.696 389.961C854.91 396.74 852.574 400.812 851.687 402.177ZM1244.52 254.421C1245.69 252.385 1247.24 251.139 1249.17 250.684C1251.39 249.881 1253.19 249.924 1254.56 250.811C1255.92 251.698 1256.68 253.278 1256.83 255.552C1257.31 257.803 1256.71 260.943 1255.02 264.972C1249.35 277.75 1241.64 291.645 1231.88 306.655C1222.45 321.644 1212.31 335.865 1201.47 349.317C1190.61 362.444 1179.93 373.439 1169.43 382.3C1158.93 391.162 1149.95 395.844 1142.48 396.345C1131.76 397.065 1122.69 395.554 1115.26 391.812C1107.83 388.07 1101.79 383.255 1097.16 377.368C1092.85 371.458 1089.64 364.986 1087.53 357.949C1085.41 350.588 1084.46 343.801 1084.7 337.586C1084.67 332.367 1085.19 323.035 1086.24 309.587C1087.28 295.815 1088.83 280.051 1090.9 262.294C1092.94 244.213 1095.24 224.972 1097.78 204.574C1100.63 183.828 1103.7 163.884 1106.98 144.741C1101.5 145.761 1096.02 146.782 1090.55 147.802C1085.07 148.823 1080.06 149.486 1075.51 149.791C1065.12 150.489 1055.3 150.007 1046.05 148.345C1036.45 146.379 1029.31 144.412 1024.61 142.444C1021.92 141.319 1020.67 139.61 1020.84 137.314C1020.99 134.694 1021.8 132.193 1023.27 129.81C1024.72 127.103 1026.69 124.85 1029.18 123.051C1031.32 120.95 1033.37 119.834 1035.32 119.703C1041.53 119.938 1048.23 120.14 1055.42 120.31C1062.59 120.154 1070.38 119.631 1078.81 118.739C1084.95 117.999 1090.77 117.119 1096.25 116.099C1102.05 115.057 1107.68 113.863 1113.13 112.518C1116.31 96.6441 1119.46 82.8927 1122.6 71.2633C1126.03 59.2872 1129.22 50.9166 1132.17 46.1514C1133.03 44.462 1135.05 43.021 1138.24 41.8285C1141.72 40.2893 1145.4 39.2264 1149.28 38.6398C1153.13 37.7284 1156.87 37.4775 1160.48 37.8871C1164.08 37.9719 1166.75 38.9341 1168.51 40.7738C1170.31 43.263 1171.4 49.8775 1171.8 60.6174C1172.19 71.3572 1171.32 85.1183 1169.19 101.901C1182.83 100.984 1194.9 100.989 1205.4 101.915C1216.21 102.494 1225.41 103.507 1233.01 104.954C1240.59 106.076 1246.72 107.459 1251.4 109.102C1256.06 110.421 1259.54 111.328 1261.86 111.825C1264.18 112.322 1265.42 113.87 1265.6 116.468C1266.1 119.044 1265.79 121.838 1264.69 124.848C1263.89 127.512 1262.26 129.905 1259.79 132.029C1257.32 134.152 1254.44 134.998 1251.15 134.567C1247.88 134.46 1244.1 134.061 1239.82 133.371C1235.85 132.658 1230.93 132.173 1225.04 131.916C1219.47 131.638 1212.77 131.435 1204.93 131.31C1197.09 131.184 1187.98 131.47 1177.58 132.168C1175.64 132.299 1173.37 132.614 1170.8 133.113C1168.52 133.266 1166.09 133.43 1163.49 133.604C1162.54 138.888 1161.59 144.172 1160.64 149.456C1159.99 154.393 1158.88 159.688 1157.3 165.34C1153.95 178.615 1150.03 193.071 1145.53 208.707C1141.56 222.351 1136.73 238.008 1131.07 255.68C1125.41 273.352 1119.01 292.216 1111.87 312.27C1110.86 326.367 1111.74 337.074 1114.52 344.392C1117.6 351.362 1121.03 356.352 1124.82 359.36C1129.28 362.649 1134.61 364.248 1140.8 364.159C1145.72 364.481 1151.46 362.464 1158.02 358.109C1164.88 353.406 1171.81 347.394 1178.83 340.072C1185.84 332.749 1192.81 324.777 1199.73 316.156C1206.98 307.512 1213.59 299.075 1219.56 290.844C1225.54 282.613 1230.75 275.248 1235.21 268.749C1239.64 261.926 1242.75 257.15 1244.52 254.421ZM1339.66 191.751C1343.66 188.22 1347.56 185.511 1351.35 183.626C1355.44 181.393 1359.08 179.843 1362.29 178.975C1365.8 177.761 1369.35 177.196 1372.94 177.281C1381.75 177.341 1387.3 179.742 1389.57 184.483C1392.18 189.202 1393.02 196.975 1392.12 207.802C1391.52 213.389 1390.04 220.503 1387.68 229.144C1385.33 237.785 1382.61 248.407 1379.54 261.011C1376.45 273.29 1373.16 287.377 1369.66 303.273C1366.48 319.146 1363.6 336.957 1361.01 356.706C1358.19 372.883 1355.2 391.517 1352.05 412.609C1349.37 431.059 1346.13 453.299 1342.34 479.328C1338.86 505.335 1335.15 535.111 1331.21 568.654C1330.13 576.882 1326.87 581.832 1321.44 583.502C1316.33 585.15 1310.76 584.871 1304.74 582.666C1302.38 581.519 1300.17 580.2 1298.12 578.707C1296.38 577.192 1294.47 575.363 1292.36 573.22C1290.28 571.403 1288.48 568.751 1286.94 565.266C1292.57 537.481 1297.4 512.199 1301.42 489.417C1305.76 466.614 1309.64 446.778 1313.08 429.908C1316.66 410.418 1320.05 392.899 1323.25 377.35C1324.42 370.421 1325.43 363.664 1326.29 357.081C1327.46 350.152 1328.64 343.384 1329.82 336.78C1326.06 343.884 1321.95 350.685 1317.49 357.183C1313.03 363.682 1308.04 369.401 1302.49 374.34C1296.95 379.28 1290.85 383.116 1284.18 385.847C1277.86 388.882 1271.09 390.152 1263.88 389.658C1246.19 388.563 1233.25 382.907 1225.06 372.691C1217.2 362.453 1213.17 348.694 1212.99 331.415C1212.86 324.572 1213.33 317.037 1214.41 308.808C1215.49 300.579 1216.75 292.664 1218.2 285.063C1219.64 277.462 1220.98 270.684 1222.21 264.729C1223.75 258.427 1224.91 253.944 1225.71 251.28C1228.78 238.676 1230.83 227.935 1231.87 219.057C1233.23 210.157 1231.44 202.936 1226.5 197.395C1230.85 194.167 1234.94 191.934 1238.77 190.698C1242.91 189.115 1246.58 187.89 1249.78 187.022C1253.33 186.458 1256.91 186.218 1260.5 186.302C1269.36 187.013 1274.61 189.922 1276.26 195.032C1278.23 200.119 1278.27 207.947 1276.37 218.515C1275.44 224.123 1273.81 231.41 1271.47 240.376C1269.12 249.017 1266.62 257.994 1263.98 267.306C1261.35 276.618 1258.99 285.259 1256.92 293.228C1254.82 300.873 1253.72 306.33 1253.61 309.6C1251.67 324.412 1252.27 335.79 1255.42 343.736C1258.54 351.356 1264.48 354.872 1273.25 354.282C1277.47 353.999 1282.06 351.896 1287.02 347.974C1291.96 343.728 1296.81 338.345 1301.6 331.824C1306.7 325.283 1311.59 317.94 1316.27 309.796C1320.92 301.327 1325.08 292.891 1328.76 284.487C1332.76 276.062 1336.12 267.843 1338.85 259.83C1341.9 251.795 1344.03 244.637 1345.23 238.357C1346.7 226.187 1347.53 216.67 1347.72 209.806C1347.91 202.942 1345.22 196.924 1339.66 191.751Z" fill="#061E4C" fill-opacity="0.06"/>
</svg>
