<svg width="1129" height="715" viewBox="0 0 1129 715" fill="none" xmlns="http://www.w3.org/2000/svg">
<path d="M-31.6573 550.666C-35.0167 548.739 -36.7804 546.524 -36.9484 544.024C-37.4737 541.547 -37.1058 539.01 -35.8447 536.413C-34.6077 533.459 -32.656 530.457 -29.9899 527.406C-27.2998 524.714 -24.3377 518.055 -21.1038 507.43C-17.8458 497.163 -14.5532 484.739 -11.226 470.161C-7.56551 455.201 -4.16765 439.002 -1.03242 421.566C2.46007 404.105 5.61929 387.025 8.44525 370.327C11.2712 353.628 13.6453 338.217 15.5674 324.091C17.4896 309.966 18.8892 298.746 19.7663 290.433C20.8806 280.31 22.1136 269.281 23.4652 257.347C24.5555 246.866 25.7165 234.766 26.9481 221.046C28.1558 206.968 29.0887 191.474 29.7471 174.562L71.3232 152.39C77.2048 149.124 81.54 149.55 84.3289 153.67C87.0937 157.431 87.6577 165.827 86.0208 178.857C85.381 185.36 84.1241 196.031 82.2499 210.871C80.3518 225.354 78.0257 241.48 75.2717 259.25C72.8511 276.639 70.1091 294.588 67.0459 313.097C64.3159 331.224 61.454 347.386 58.46 361.584C55.7753 375.043 52.6867 390.503 49.1942 407.963C42.9451 437.811 34.2005 478.593 22.9604 530.309C28.5382 538.548 38.1151 542.211 51.6913 541.299C66.6966 540.291 83.6401 533.411 102.522 520.658C121.761 507.882 139.901 489.437 156.943 465.324C173.985 441.211 188.321 411.537 199.95 376.303C211.913 340.688 218.133 299.717 218.609 253.39C218.716 228.261 215.989 206.373 210.43 187.726C204.871 169.079 197.194 153.624 187.398 141.363C177.959 129.077 166.593 120.151 153.3 114.584C140.363 108.993 126.214 106.714 110.851 107.746C74.7674 110.17 38.441 127.683 1.87202 160.285L-3.79546 115.985C4.79751 105.001 14.8089 96.4328 26.2388 90.2818C38.0019 83.7495 48.9678 78.7063 59.1366 75.1522C71.0677 71.1208 83.2734 68.5064 95.7538 67.3092C118.619 65.7732 140.891 68.7631 162.57 76.2788C184.582 83.4132 203.869 95.3961 220.431 112.228C237.351 129.035 250.832 150.739 260.873 177.339C270.89 203.582 275.86 234.83 275.783 271.082C275.746 291.899 272.911 313.802 267.278 336.79C261.977 359.396 254.331 381.802 244.338 404.006C234.703 426.186 222.852 447.438 208.786 467.763C194.719 488.087 179.056 506.007 161.795 521.521C144.558 537.393 125.855 550.134 105.686 559.743C85.5401 569.709 64.3921 575.437 42.2415 576.925C35.4294 577.023 28.0214 576.265 20.0175 574.649C13.1094 573.319 5.22416 570.798 -3.63826 567.087C-12.5007 563.376 -21.8404 557.902 -31.6573 550.666ZM461.722 362.487C459.062 376.303 455.09 389.31 449.809 401.508C444.527 413.706 437.887 424.38 429.889 433.53C422.248 442.657 413.224 449.902 402.818 455.267C392.793 460.964 381.529 464.233 369.024 465.073C354.376 466.057 342.549 463.622 333.543 457.767C324.918 452.245 318.149 444.984 313.238 435.983C308.684 426.958 305.678 416.932 304.22 405.905C302.404 394.902 301.172 384.577 300.524 374.931C300.068 368.142 300.457 360.58 301.691 352.243C302.568 343.93 304.148 335.39 306.43 326.623C308.712 317.857 311.709 309.042 315.42 300.18C319.489 291.294 324.32 283.074 329.913 275.52C331.649 269.303 334.504 263.728 338.48 258.795C342.812 253.839 347.74 249.74 353.265 246.497C359.122 242.874 365.397 240.12 372.089 238.235C378.757 235.992 385.307 234.655 391.738 234.223C392.809 234.151 393.715 234.27 394.453 234.579C395.549 234.864 396.645 235.15 397.74 235.435C402.409 235.48 408.245 236.883 415.249 239.642C422.611 242.377 429.723 246.744 436.586 252.743C443.806 258.718 450.074 266.551 455.39 276.243C460.683 285.577 463.797 297.211 464.733 311.144C464.925 314.002 464.986 317.587 464.917 321.898C464.824 325.852 464.695 329.27 464.529 332.152C472.531 328.385 480.841 323.879 489.461 318.635C498.08 313.39 506.331 307.991 514.212 302.437C522.426 296.502 529.926 290.615 536.712 284.776C543.497 278.937 548.889 273.73 552.889 269.155C556.245 265.7 559.162 263.709 561.639 263.184C564.116 262.659 565.95 263.253 567.142 264.968C568.334 266.682 568.68 269.171 568.182 272.434C567.683 275.698 565.958 279.402 563.007 283.548C561.364 285.812 557.008 290.411 549.937 297.346C543.224 304.257 535.118 311.799 525.618 319.974C516.119 328.149 505.714 336.205 494.404 344.142C483.094 352.079 472.2 358.194 461.722 362.487ZM365.683 287.114C364.827 290.401 364.519 293.831 364.759 297.404C365.143 303.12 365.908 309.17 367.055 315.553C368.178 321.578 370.336 326.996 373.53 331.806C376.724 336.615 381.478 340.603 387.792 343.767C394.438 346.551 403.299 347.57 414.375 346.826C416.161 346.706 417.947 346.586 419.734 346.466C421.496 345.989 423.258 345.512 425.021 345.035C425.781 340.318 426.398 336.15 426.872 332.529C427.68 328.527 427.988 325.097 427.796 322.239C428.055 315.403 427.587 308.436 426.392 301.339C425.197 294.241 423.336 287.906 420.809 282.334C418.614 276.381 415.79 271.725 412.334 268.369C409.212 264.631 405.507 262.906 401.22 263.194C394.432 263.65 387.955 266.059 381.788 270.421C375.954 274.401 370.586 279.966 365.683 287.114ZM337.721 383.737C338.153 390.167 338.942 396.574 340.089 402.957C341.212 408.983 343.013 414.424 345.492 419.282C347.948 423.782 351.07 427.52 354.859 430.496C358.623 433.114 363.364 434.231 369.08 433.847C375.511 433.415 381.31 431.59 386.477 428.372C391.62 424.796 396.179 420.542 400.154 415.61C404.105 410.32 407.485 404.531 410.292 398.241C413.433 391.57 416.026 384.757 418.07 377.801C415.594 378.326 413.117 378.851 410.64 379.376C408.496 379.52 405.995 379.688 403.137 379.88C389.561 380.792 377.507 377.654 366.976 370.467C356.777 362.897 348.579 353.041 342.38 340.896C340.74 348.543 339.446 355.987 338.497 363.228C337.548 370.47 337.289 377.306 337.721 383.737ZM504.243 442.532C502.007 446.63 499.495 449.311 496.709 450.574C493.589 452.22 490.922 452.578 488.706 451.65C486.157 451.104 484.43 449.425 483.523 446.615C482.617 443.805 483.091 440.184 484.947 435.753C485.875 433.538 488.052 428.547 491.477 420.78C494.546 413.037 498.412 403.806 503.075 393.085C507.357 382.031 512.126 370.226 517.384 357.671C522.618 344.759 527.542 332.585 532.157 321.15C537.129 309.69 541.65 299.518 545.718 290.631C549.763 281.387 552.725 274.729 554.604 270.655C550.434 267.346 547.587 265.025 546.062 263.692C544.513 262.002 543.201 258.501 542.126 253.19C541.1 248.594 541.764 242.448 544.118 234.753C546.472 227.059 549.743 219.661 553.932 212.561C558.096 205.104 562.869 198.682 568.249 193.297C573.629 187.911 578.999 185.038 584.358 184.678C594.361 184.006 601.544 186.753 605.906 192.92C610.625 199.063 613.57 205.505 614.741 212.245C615.767 216.841 615.806 222.76 614.857 230.001C613.908 237.243 611.66 243.854 608.114 249.834C609.234 250.476 610.723 251.274 612.581 252.225C614.416 252.82 617.298 252.985 621.228 252.721C626.944 252.337 630.85 251.716 632.946 250.857C635.399 249.975 639.126 249.366 644.128 249.03C650.201 248.622 655.311 249.893 659.457 252.845C663.579 255.439 667.046 258.974 669.859 263.451C672.648 267.57 674.758 272.273 676.19 277.56C677.955 282.466 679.16 287.05 679.806 291.313C681.477 300.173 679.779 309.618 674.711 319.648C669.643 329.679 663.384 340.686 655.935 352.67C651.413 360.152 646.951 368.526 642.549 377.794C638.148 387.062 636.544 395.244 637.739 402.342C638.765 406.938 640.267 410.605 642.246 413.344C644.224 416.082 649.322 417.175 657.539 416.623C663.613 416.215 670.078 413.627 676.935 408.86C684.126 403.712 691.245 397.491 698.291 390.199C705.671 382.526 712.836 374.329 719.787 365.607C726.714 356.529 733.128 347.844 739.031 339.552C744.91 330.903 749.777 323.219 753.632 316.5C757.845 309.757 760.927 304.885 762.878 301.883C764.473 298.904 766.663 296.783 769.449 295.52C772.235 294.256 774.736 294.088 776.952 295.016C779.167 295.943 780.562 298.003 781.135 301.194C782.066 304.362 781.103 308.733 778.248 314.308C776.344 318.025 772.977 323.993 768.146 332.213C763.672 340.409 758.008 349.582 751.153 359.732C744.656 369.858 737.289 380.402 729.054 391.363C720.794 401.966 711.95 411.891 702.523 421.137C693.429 430.003 684.06 437.451 674.416 443.482C665.13 449.489 656.021 452.792 647.089 453.392C637.8 454.016 629.999 452.746 623.686 449.581C617.372 446.416 612.082 442.465 607.816 437.727C603.884 432.608 600.82 427.072 598.626 421.119C596.765 414.784 595.833 408.925 595.83 403.542C595.899 399.231 596.671 394.693 598.146 389.928C599.953 384.783 601.939 379.625 604.104 374.455C606.603 368.904 609.113 363.532 611.635 358.338C614.49 352.763 617 347.391 619.165 342.221C624.543 331.452 628.778 322.375 631.871 314.99C635.297 307.223 636.842 300.839 636.506 295.837C636.29 292.622 635.383 289.812 633.786 287.407C632.189 285.002 629.783 283.907 626.567 284.123C624.424 284.267 622.828 284.554 621.78 284.983C621.066 285.031 620.172 285.091 619.101 285.163C618.386 285.211 617.148 285.474 615.385 285.951C613.956 286.047 611.634 286.203 608.419 286.419C603.774 286.731 599.796 286.281 596.485 285.068C593.173 283.854 590.065 282.987 587.158 282.464C585.897 285.061 583.042 290.636 578.592 299.189C574.142 307.742 568.895 317.785 562.851 329.316C557.165 340.823 550.978 352.902 544.291 365.553C537.962 378.181 531.942 390.069 526.231 401.219C520.496 412.012 515.737 421.304 511.954 429.094C507.789 436.552 505.219 441.031 504.243 442.532ZM936.363 280.001C937.648 277.761 939.35 276.39 941.47 275.889C943.922 275.007 945.899 275.053 947.4 276.029C948.902 277.005 949.736 278.743 949.904 281.244C950.429 283.721 949.764 287.175 947.909 291.606C941.675 305.662 933.192 320.946 922.458 337.458C912.081 353.946 900.93 369.589 889.004 384.386C877.055 398.826 865.306 410.92 853.759 420.668C842.212 430.415 832.33 435.565 824.113 436.117C812.323 436.909 802.342 435.247 794.17 431.131C785.998 427.014 779.362 421.718 774.262 415.242C769.519 408.742 765.99 401.622 763.675 393.882C761.337 385.785 760.297 378.318 760.556 371.482C760.529 365.742 761.095 355.475 762.255 340.683C763.391 325.534 765.097 308.193 767.374 288.661C769.626 268.771 772.152 247.607 774.951 225.168C778.084 202.349 781.455 180.41 785.065 159.352C779.039 160.475 773.014 161.597 766.988 162.72C760.963 163.842 755.449 164.572 750.447 164.908C739.015 165.676 728.213 165.145 718.041 163.316C707.488 161.154 699.627 158.991 694.457 156.826C691.503 155.589 690.121 153.708 690.31 151.183C690.475 148.301 691.367 145.549 692.985 142.928C694.58 139.95 696.746 137.472 699.484 135.494C701.841 133.182 704.091 131.954 706.235 131.81C713.071 132.069 720.443 132.291 728.351 132.478C736.235 132.307 744.809 131.731 754.074 130.75C760.838 129.937 767.233 128.969 773.259 127.846C779.641 126.7 785.834 125.387 791.835 123.907C795.328 106.446 798.797 91.3193 802.245 78.5269C806.025 65.3533 809.534 56.1456 812.77 50.9039C813.722 49.0455 815.948 47.4605 819.449 46.1487C823.283 44.4556 827.332 43.2864 831.595 42.6412C835.834 41.6386 839.943 41.3626 843.921 41.8132C847.875 41.9064 850.817 42.9649 852.747 44.9885C854.725 47.7266 855.932 55.0026 856.367 66.8165C856.801 78.6303 855.844 93.7675 853.496 112.228C868.501 111.22 881.78 111.225 893.332 112.244C905.218 112.881 915.342 113.995 923.703 115.587C932.04 116.821 938.782 118.342 943.927 120.15C949.049 121.6 952.884 122.598 955.433 123.145C957.982 123.692 959.353 125.394 959.545 128.252C960.094 131.086 959.762 134.159 958.549 137.47C957.669 140.4 955.872 143.033 953.158 145.369C950.444 147.705 947.276 148.635 943.656 148.161C940.059 148.043 935.902 147.605 931.186 146.845C926.827 146.061 921.408 145.528 914.929 145.245C908.807 144.939 901.435 144.716 892.813 144.578C884.19 144.439 874.163 144.754 862.73 145.522C860.587 145.666 858.098 146.013 855.264 146.562C852.763 146.73 850.083 146.91 847.225 147.102C846.18 152.914 845.135 158.726 844.09 164.539C843.378 169.97 842.155 175.794 840.419 182.012C836.734 196.614 832.419 212.515 827.474 229.715C823.099 244.723 817.796 261.947 811.565 281.386C805.335 300.825 798.295 321.575 790.446 343.635C789.334 359.141 790.305 370.919 793.358 378.968C796.744 386.636 800.522 392.124 804.692 395.433C809.6 399.051 815.461 400.811 822.273 400.712C827.68 401.066 833.991 398.848 841.205 394.057C848.753 388.884 856.384 382.271 864.097 374.216C871.81 366.162 879.475 357.392 887.092 347.909C895.067 338.401 902.339 329.12 908.908 320.066C915.477 311.011 921.214 302.91 926.117 295.762C930.996 288.256 934.411 283.003 936.363 280.001ZM1041.01 211.064C1045.42 207.179 1049.7 204.2 1053.87 202.125C1058.37 199.67 1062.38 197.965 1065.91 197.01C1069.76 195.674 1073.67 195.053 1077.62 195.146C1087.32 195.213 1093.42 197.854 1095.92 203.069C1098.78 208.26 1099.71 216.81 1098.72 228.72C1098.06 234.866 1096.43 242.691 1093.84 252.196C1091.25 261.701 1088.26 273.385 1084.89 287.249C1081.49 300.756 1077.86 316.252 1074.01 333.737C1070.52 351.198 1067.35 370.79 1064.5 392.514C1061.39 410.309 1058.1 430.806 1054.64 454.007C1051.7 474.302 1048.14 498.766 1043.96 527.398C1040.14 556.006 1036.06 588.759 1031.72 625.656C1030.53 634.708 1026.95 640.152 1020.97 641.989C1015.35 643.802 1009.23 643.496 1002.61 641.07C1000.01 639.809 997.579 638.357 995.316 636.715C993.41 635.048 991.301 633.037 988.989 630.68C986.701 628.68 984.711 625.763 983.018 621.929C989.219 591.367 994.528 563.556 998.946 538.497C1003.72 513.413 1008 491.593 1011.77 473.036C1015.72 451.598 1019.45 432.326 1022.96 415.223C1024.25 407.6 1025.36 400.168 1026.31 392.927C1027.59 385.304 1028.89 377.86 1030.19 370.595C1026.05 378.41 1021.53 385.891 1016.63 393.039C1011.73 400.187 1006.23 406.478 1000.13 411.912C994.038 417.345 987.323 421.565 979.988 424.57C973.035 427.908 965.592 429.305 957.66 428.761C938.2 427.556 923.965 421.335 914.956 410.097C906.304 398.835 901.878 383.701 901.678 364.693C901.531 357.167 902.051 348.878 903.237 339.826C904.424 330.774 905.813 322.068 907.404 313.707C908.996 305.346 910.469 297.89 911.823 291.339C913.511 284.407 914.794 279.476 915.674 276.545C919.049 262.681 921.306 250.866 922.445 241.1C923.94 231.31 921.971 223.367 916.537 217.272C921.323 213.721 925.824 211.265 930.039 209.905C934.587 208.164 938.624 206.817 942.149 205.862C946.055 205.241 949.984 204.977 953.938 205.07C963.681 205.851 969.458 209.052 971.271 214.672C973.442 220.268 973.482 228.879 971.392 240.503C970.371 246.673 968.576 254.689 966.009 264.551C963.417 274.056 960.671 283.93 957.771 294.174C954.87 304.417 952.279 313.922 949.997 322.689C947.69 331.098 946.479 337.101 946.361 340.697C944.226 356.99 944.887 369.507 948.345 378.246C951.78 386.629 958.32 390.496 967.966 389.848C972.61 389.536 977.659 387.223 983.111 382.909C988.539 378.238 993.884 372.316 999.144 365.144C1004.76 357.948 1010.14 349.871 1015.28 340.912C1020.4 331.597 1024.98 322.317 1029.02 313.073C1033.42 303.806 1037.12 294.765 1040.12 285.95C1043.47 277.112 1045.82 269.239 1047.15 262.33C1048.76 248.944 1049.67 238.475 1049.88 230.924C1050.09 223.374 1047.13 216.753 1041.01 211.064Z" fill="#061E4C" fill-opacity="0.06"/>
</svg>
