<svg width="219" height="22" viewBox="0 0 219 22" fill="none" xmlns="http://www.w3.org/2000/svg">
<path d="M3.10059 11.541C3.10059 12.0996 3.12598 12.6074 3.17676 13.0645C3.41374 15.4342 4.37858 16.6191 6.07129 16.6191C7.98405 16.5853 8.95736 14.8587 8.99121 11.4395C8.99121 10.7793 8.95736 10.1784 8.88965 9.63672C8.60189 7.53776 7.65397 6.48828 6.0459 6.48828C4.25163 6.6237 3.26986 8.30794 3.10059 11.541ZM6.12207 5.85352C7.37467 5.85352 8.4834 6.18359 9.44824 6.84375C10.9378 7.89323 11.6826 9.44206 11.6826 11.4902C11.6826 13.0137 11.2171 14.3086 10.2861 15.375C9.18587 16.6276 7.75553 17.2539 5.99512 17.2539C4.70866 17.2539 3.57454 16.8815 2.59277 16.1367C1.13704 15.0534 0.40918 13.4876 0.40918 11.4395C0.40918 9.9668 0.857747 8.72266 1.75488 7.70703C2.85514 6.47135 4.31087 5.85352 6.12207 5.85352ZM22.2197 17L21.9404 14.4355C21.9066 14.5202 21.8727 14.6048 21.8389 14.6895C21.0602 16.3991 19.7907 17.2539 18.0303 17.2539C17.0993 17.2539 16.2614 16.9746 15.5166 16.416C14.1794 15.4173 13.5107 13.8854 13.5107 11.8203C13.5107 10.3815 13.8577 9.12044 14.5518 8.03711C15.5335 6.56445 16.9046 5.82812 18.665 5.82812C20.0023 5.82812 21.0856 6.2513 21.915 7.09766V1.13086H19.5283V0.496094H24.3525L24.3779 16.3398H25.6221C25.7236 16.3398 25.8167 16.3483 25.9014 16.3652C26.1214 16.3991 26.2314 16.6107 26.2314 17H22.2197ZM16.2021 11.5156C16.2021 12.3281 16.2783 13.056 16.4307 13.6992C16.8369 15.3581 17.6663 16.1875 18.9189 16.1875C19.4775 16.1875 19.9769 16.0013 20.417 15.6289C21.4495 14.7656 21.9658 13.2337 21.9658 11.0332C21.9658 10.153 21.8643 9.38281 21.6611 8.72266C21.221 7.28385 20.4001 6.56445 19.1982 6.56445C18.7412 6.56445 18.318 6.68294 17.9287 6.91992C16.7777 7.63086 16.2021 9.16276 16.2021 11.5156ZM31.6143 16.5684C32.7653 16.5684 33.5016 16.2044 33.8232 15.4766C33.9248 15.2565 33.9756 15.028 33.9756 14.791C33.9756 14.0293 33.4424 13.3776 32.376 12.8359C32.1559 12.7174 31.792 12.5482 31.2842 12.3281C29.9469 11.7526 29.0583 11.2194 28.6182 10.7285C28.1442 10.1868 27.9072 9.55208 27.9072 8.82422C27.9072 7.55469 28.6012 6.67448 29.9893 6.18359C30.6156 5.96354 31.3011 5.85352 32.0459 5.85352C33.2646 5.85352 34.2633 6.09049 35.042 6.56445C35.042 6.07357 35.1689 5.79427 35.4229 5.72656C35.5075 5.70964 35.6006 5.70117 35.7021 5.70117V8.875H34.9912C34.9235 7.31771 34.0687 6.5306 32.4268 6.51367C31.2419 6.51367 30.5055 6.8776 30.2178 7.60547C30.1501 7.79167 30.1162 7.98633 30.1162 8.18945C30.1162 8.91732 30.6325 9.54362 31.665 10.0684C31.8851 10.1699 32.2406 10.3223 32.7314 10.5254C34.0856 11.1009 34.9827 11.6341 35.4229 12.125C35.9307 12.7005 36.1846 13.3691 36.1846 14.1309C36.1846 15.5189 35.4567 16.4583 34.001 16.9492C33.4085 17.1523 32.7484 17.2539 32.0205 17.2539C30.6833 17.237 29.5407 16.9492 28.5928 16.3906C28.5928 16.8307 28.4827 17.0846 28.2627 17.1523C28.1611 17.1693 28.0426 17.1777 27.9072 17.1777V13.3184H28.6943C28.7282 15.4681 29.7015 16.5514 31.6143 16.5684ZM43.8018 16.3652C43.9202 16.3652 44.0218 16.3737 44.1064 16.3906C44.3265 16.4245 44.4365 16.6276 44.4365 17H37.7842V16.3652C38.2243 16.3652 38.5544 16.3314 38.7744 16.2637C39.2653 16.1283 39.5107 15.6797 39.5107 14.918V6.79297H37.7842V6.1582H41.7705L41.8975 8.62109C42.1006 8.11328 42.3883 7.65625 42.7607 7.25C43.5732 6.40365 44.4873 5.98047 45.5029 5.98047C45.6891 5.98047 45.8753 5.9974 46.0615 6.03125C46.8571 6.23438 47.2549 6.73372 47.2549 7.5293C47.2549 7.68164 47.2295 7.83398 47.1787 7.98633C46.9756 8.54492 46.5778 8.82422 45.9854 8.82422C45.8499 8.82422 45.723 8.80729 45.6045 8.77344C45.3167 8.67188 45.029 8.36719 44.7412 7.85938C44.5042 7.45312 44.2673 7.25 44.0303 7.25C43.8102 7.26693 43.5648 7.39388 43.2939 7.63086C42.3968 8.42643 41.9482 9.70443 41.9482 11.4648V16.3652H43.8018ZM57.0049 17L56.7256 14.4355C56.6917 14.5202 56.6579 14.6048 56.624 14.6895C55.8454 16.3991 54.5758 17.2539 52.8154 17.2539C51.8844 17.2539 51.0465 16.9746 50.3018 16.416C48.9645 15.4173 48.2959 13.8854 48.2959 11.8203C48.2959 10.3815 48.6429 9.12044 49.3369 8.03711C50.3187 6.56445 51.6898 5.82812 53.4502 5.82812C54.7874 5.82812 55.8708 6.2513 56.7002 7.09766V1.13086H54.3135V0.496094H59.1377L59.1631 16.3398H60.4072C60.5088 16.3398 60.6019 16.3483 60.6865 16.3652C60.9066 16.3991 61.0166 16.6107 61.0166 17H57.0049ZM50.9873 11.5156C50.9873 12.3281 51.0635 13.056 51.2158 13.6992C51.6221 15.3581 52.4515 16.1875 53.7041 16.1875C54.2627 16.1875 54.762 16.0013 55.2021 15.6289C56.2347 14.7656 56.751 13.2337 56.751 11.0332C56.751 10.153 56.6494 9.38281 56.4463 8.72266C56.0062 7.28385 55.1852 6.56445 53.9834 6.56445C53.5264 6.56445 53.1032 6.68294 52.7139 6.91992C51.5628 7.63086 50.9873 9.16276 50.9873 11.5156ZM67.8975 6.48828C67.5758 6.48828 67.2796 6.54753 67.0088 6.66602C65.8239 7.19076 65.1976 8.53646 65.1299 10.7031L67.3896 10.7539C68.1006 10.7878 68.6507 10.7539 69.04 10.6523C69.734 10.4661 70.0811 9.95833 70.0811 9.12891C70.0811 8.79036 70.0387 8.46029 69.9541 8.13867C69.6663 7.03841 68.9808 6.48828 67.8975 6.48828ZM72.4424 14.4863C72.3408 14.7233 72.2223 14.9603 72.0869 15.1973C71.2406 16.5684 69.861 17.2539 67.9482 17.2539C66.8141 17.2539 65.7985 16.9831 64.9014 16.4414C63.2594 15.4596 62.4385 13.8431 62.4385 11.5918C62.4385 10.2884 62.7516 9.14583 63.3779 8.16406C64.3597 6.6237 65.8577 5.85352 67.8721 5.85352C68.9385 5.85352 69.8949 6.07357 70.7412 6.51367C72.0107 7.17383 72.6455 8.13867 72.6455 9.4082C72.6455 9.89909 72.5101 10.3053 72.2393 10.627C71.6637 11.2363 70.2165 11.5156 67.8975 11.4648L65.1299 11.4141C65.1299 11.431 65.1299 11.4479 65.1299 11.4648C65.2145 14.8503 66.3148 16.543 68.4307 16.543C68.7015 16.543 68.9723 16.5091 69.2432 16.4414C70.4111 16.1706 71.2744 15.4512 71.833 14.2832L72.4424 14.4863ZM74.3467 11.6426C74.3467 10.2884 74.6768 9.12044 75.3369 8.13867C76.3525 6.61523 77.8844 5.85352 79.9326 5.85352C81.016 5.85352 81.9723 6.08203 82.8018 6.53906C83.8005 7.09766 84.2998 7.77474 84.2998 8.57031C84.2998 8.67188 84.2829 8.7819 84.249 8.90039C84.1136 9.49284 83.682 9.7806 82.9541 9.76367C82.6663 9.74674 82.4209 9.67904 82.2178 9.56055C81.9469 9.37435 81.7523 8.91732 81.6338 8.18945C81.5999 7.90169 81.5661 7.69857 81.5322 7.58008C81.346 6.85221 80.8298 6.48828 79.9834 6.48828C78.0368 6.50521 77.055 8.18945 77.0381 11.541C77.0381 12.5228 77.1481 13.3776 77.3682 14.1055C77.876 15.7305 78.8493 16.543 80.2881 16.543C80.5589 16.543 80.8298 16.5176 81.1006 16.4668C82.404 16.2298 83.335 15.502 83.8936 14.2832L84.5537 14.4863C84.4014 14.8587 84.1982 15.2057 83.9443 15.5273C83.0303 16.6784 81.693 17.2539 79.9326 17.2539C78.7646 17.2539 77.7236 16.9831 76.8096 16.4414C75.1676 15.4596 74.3467 13.86 74.3467 11.6426ZM90.876 16.3652C90.9945 16.3652 91.096 16.3737 91.1807 16.3906C91.4007 16.4245 91.5107 16.6276 91.5107 17H85.29V16.3652C85.7301 16.3652 86.0771 16.3314 86.3311 16.2637C86.9235 16.1283 87.2197 15.6797 87.2197 14.918V1.13086H85.29V0.496094H89.6572V11.5156L94.6846 6.79297H92.8057V6.1582H97.1221C97.1221 6.24284 97.1136 6.32747 97.0967 6.41211C97.0628 6.66602 96.8512 6.79297 96.4619 6.79297C96.3096 6.79297 96.1572 6.8099 96.0049 6.84375C95.7171 6.91146 95.277 7.22461 94.6846 7.7832L92.501 9.83984L96.5889 16.3652H97.2744C97.3929 16.3652 97.4945 16.3737 97.5791 16.3906C97.7992 16.4245 97.9092 16.6276 97.9092 17H94.2021L90.8252 11.4395L89.6572 12.5312V16.3652H90.876ZM107.558 17.2539C106.288 17.237 105.526 16.4753 105.272 14.9688C105.137 15.3073 104.942 15.6289 104.688 15.9336C103.91 16.8138 102.877 17.2539 101.591 17.2539C101.066 17.2539 100.584 17.1693 100.144 17C98.9756 16.543 98.3916 15.6374 98.3916 14.2832C98.3916 14.0293 98.417 13.7839 98.4678 13.5469C98.891 11.7526 101.134 10.8301 105.196 10.7793V9.1543C105.179 7.41081 104.485 6.52214 103.114 6.48828C102.776 6.48828 102.488 6.54753 102.251 6.66602C101.929 6.85221 101.659 7.28385 101.438 7.96094C101.388 8.13021 101.345 8.25716 101.312 8.3418C101.108 8.90039 100.744 9.17969 100.22 9.17969C100.084 9.17969 99.9489 9.16276 99.8135 9.12891C99.3057 8.97656 99.0518 8.62956 99.0518 8.08789C99.0518 7.80013 99.1449 7.51237 99.3311 7.22461C99.9574 6.31055 101.295 5.85352 103.343 5.85352C106.17 5.87044 107.6 7.18229 107.634 9.78906V15.1211C107.651 15.9505 107.862 16.3822 108.269 16.416C108.793 16.3991 109.115 15.7897 109.233 14.5879L109.894 14.6133C109.877 15.0026 109.826 15.3496 109.741 15.6543C109.47 16.7207 108.743 17.2539 107.558 17.2539ZM102.632 16.2129C102.886 16.2129 103.148 16.1536 103.419 16.0352C104.316 15.6458 104.909 14.8587 105.196 13.6738V11.4648C104.198 11.4818 103.385 11.5664 102.759 11.7188C101.54 12.0234 100.931 12.7513 100.931 13.9023C100.931 14.1393 100.948 14.3594 100.981 14.5625C101.151 15.6628 101.701 16.2129 102.632 16.2129ZM127.134 19.9961C125.373 20.8932 123.511 21.3418 121.548 21.3418C118.84 21.3418 116.521 20.5378 114.591 18.9297C112.509 17.1862 111.468 14.918 111.468 12.125C111.468 9.46745 112.238 7.24154 113.778 5.44727C115.657 3.2806 118.289 2.19727 121.675 2.19727C123.977 2.19727 125.957 2.77279 127.616 3.92383C129.969 5.56576 131.146 8.02865 131.146 11.3125C131.146 12.6836 130.815 13.8516 130.155 14.8164C129.258 16.1029 127.997 16.7461 126.372 16.7461C124.493 16.7292 123.435 16.0436 123.198 14.6895C123.097 14.9264 122.97 15.1549 122.817 15.375C122.14 16.2721 121.192 16.7207 119.974 16.7207C119.584 16.7207 119.212 16.6699 118.856 16.5684C117.621 16.2129 117.003 15.3665 117.003 14.0293C117.003 13.623 117.071 13.2676 117.206 12.9629C117.765 11.5749 119.737 10.8639 123.122 10.8301V9.35742C123.122 9.1543 123.114 8.95964 123.097 8.77344C122.978 7.57161 122.394 6.9707 121.345 6.9707C121.091 6.9707 120.862 7.01302 120.659 7.09766C120.354 7.25 120.126 7.6224 119.974 8.21484C119.923 8.38411 119.889 8.5026 119.872 8.57031C119.686 9.12891 119.297 9.4082 118.704 9.4082C118.603 9.4082 118.501 9.39974 118.399 9.38281C117.892 9.2474 117.638 8.91732 117.638 8.39258C117.638 8.13867 117.722 7.88477 117.892 7.63086C118.467 6.78451 119.686 6.36133 121.548 6.36133C124.172 6.37826 125.5 7.58008 125.534 9.9668V14.6387C125.551 15.5866 125.932 16.0775 126.677 16.1113C127.049 16.1113 127.413 15.9674 127.769 15.6797C128.683 14.9349 129.14 13.6146 129.14 11.7188C129.14 9.0612 128.429 6.92839 127.007 5.32031C125.585 3.71224 123.74 2.9082 121.472 2.9082C119.424 2.9082 117.739 3.52604 116.419 4.76172C114.726 6.35286 113.88 8.5957 113.88 11.4902C113.88 14.1139 114.701 16.2721 116.343 17.9648C117.951 19.6068 119.948 20.4277 122.335 20.4277C123.858 20.4277 125.356 20.0723 126.829 19.3613L127.134 19.9961ZM120.913 15.7051C121.099 15.7051 121.294 15.6712 121.497 15.6035C122.31 15.2988 122.851 14.5794 123.122 13.4453V11.4648C122.614 11.4818 122.157 11.5156 121.751 11.5664C120.244 11.8203 119.491 12.5228 119.491 13.6738C119.491 13.9108 119.508 14.1309 119.542 14.334C119.711 15.248 120.168 15.7051 120.913 15.7051ZM139.093 6.48828C138.771 6.48828 138.475 6.54753 138.204 6.66602C137.019 7.19076 136.393 8.53646 136.325 10.7031L138.585 10.7539C139.296 10.7878 139.846 10.7539 140.235 10.6523C140.929 10.4661 141.276 9.95833 141.276 9.12891C141.276 8.79036 141.234 8.46029 141.149 8.13867C140.862 7.03841 140.176 6.48828 139.093 6.48828ZM143.638 14.4863C143.536 14.7233 143.418 14.9603 143.282 15.1973C142.436 16.5684 141.056 17.2539 139.144 17.2539C138.009 17.2539 136.994 16.9831 136.097 16.4414C134.455 15.4596 133.634 13.8431 133.634 11.5918C133.634 10.2884 133.947 9.14583 134.573 8.16406C135.555 6.6237 137.053 5.85352 139.067 5.85352C140.134 5.85352 141.09 6.07357 141.937 6.51367C143.206 7.17383 143.841 8.13867 143.841 9.4082C143.841 9.89909 143.705 10.3053 143.435 10.627C142.859 11.2363 141.412 11.5156 139.093 11.4648L136.325 11.4141C136.325 11.431 136.325 11.4479 136.325 11.4648C136.41 14.8503 137.51 16.543 139.626 16.543C139.897 16.543 140.168 16.5091 140.438 16.4414C141.606 16.1706 142.47 15.4512 143.028 14.2832L143.638 14.4863ZM150.315 16.3652C150.417 16.3652 150.502 16.3737 150.569 16.3906C150.823 16.4245 150.95 16.6276 150.95 17H145.288V16.3652C145.711 16.3652 146.041 16.3314 146.278 16.2637C146.769 16.1283 147.015 15.6797 147.015 14.918V6.79297H145.288V6.1582H149.3L149.427 8.41797C149.545 8.16406 149.681 7.91016 149.833 7.65625C150.612 6.45443 151.687 5.85352 153.058 5.85352C153.345 5.85352 153.642 5.9043 153.946 6.00586C154.979 6.3444 155.673 7.1569 156.028 8.44336C156.13 8.20638 156.248 7.97786 156.384 7.75781C157.162 6.48828 158.254 5.85352 159.659 5.85352C160.235 5.85352 160.776 5.9974 161.284 6.28516C162.418 6.97917 162.985 8.18945 162.985 9.91602V16.3652H164.103C164.221 16.3652 164.323 16.3737 164.407 16.3906C164.627 16.4245 164.737 16.6276 164.737 17H159.05V16.3652C159.507 16.3652 159.837 16.3229 160.04 16.2383C160.379 16.0859 160.548 15.6458 160.548 14.918V9.63672C160.548 9.14583 160.472 8.69727 160.319 8.29102C159.998 7.42773 159.439 6.99609 158.644 6.99609C158.373 6.99609 158.102 7.0638 157.831 7.19922C156.968 7.65625 156.426 8.51953 156.206 9.78906V9.9668V16.3652H157.069C157.188 16.3652 157.289 16.3737 157.374 16.3906C157.594 16.4245 157.704 16.6276 157.704 17H152.271V16.3652C152.711 16.3652 153.041 16.3229 153.261 16.2383C153.616 16.0859 153.794 15.6458 153.794 14.918V9.63672C153.794 9.12891 153.726 8.68034 153.591 8.29102C153.269 7.44466 152.736 7.02148 151.991 7.02148C151.67 7.02148 151.34 7.12305 151.001 7.32617C150.104 7.90169 149.596 8.875 149.478 10.2461L149.452 16.3652H150.315ZM175.173 17.2539C173.903 17.237 173.142 16.4753 172.888 14.9688C172.752 15.3073 172.558 15.6289 172.304 15.9336C171.525 16.8138 170.493 17.2539 169.206 17.2539C168.681 17.2539 168.199 17.1693 167.759 17C166.591 16.543 166.007 15.6374 166.007 14.2832C166.007 14.0293 166.032 13.7839 166.083 13.5469C166.506 11.7526 168.749 10.8301 172.812 10.7793V9.1543C172.795 7.41081 172.101 6.52214 170.729 6.48828C170.391 6.48828 170.103 6.54753 169.866 6.66602C169.545 6.85221 169.274 7.28385 169.054 7.96094C169.003 8.13021 168.961 8.25716 168.927 8.3418C168.724 8.90039 168.36 9.17969 167.835 9.17969C167.7 9.17969 167.564 9.16276 167.429 9.12891C166.921 8.97656 166.667 8.62956 166.667 8.08789C166.667 7.80013 166.76 7.51237 166.946 7.22461C167.573 6.31055 168.91 5.85352 170.958 5.85352C173.785 5.87044 175.215 7.18229 175.249 9.78906V15.1211C175.266 15.9505 175.478 16.3822 175.884 16.416C176.409 16.3991 176.73 15.7897 176.849 14.5879L177.509 14.6133C177.492 15.0026 177.441 15.3496 177.356 15.6543C177.086 16.7207 176.358 17.2539 175.173 17.2539ZM170.247 16.2129C170.501 16.2129 170.763 16.1536 171.034 16.0352C171.931 15.6458 172.524 14.8587 172.812 13.6738V11.4648C171.813 11.4818 171 11.5664 170.374 11.7188C169.155 12.0234 168.546 12.7513 168.546 13.9023C168.546 14.1393 168.563 14.3594 168.597 14.5625C168.766 15.6628 169.316 16.2129 170.247 16.2129ZM183.729 16.3652C183.848 16.3652 183.95 16.3737 184.034 16.3906C184.254 16.4245 184.364 16.6276 184.364 17H178.347V16.3652C178.77 16.3652 179.1 16.3398 179.337 16.2891C179.879 16.1367 180.149 15.6797 180.149 14.918V6.79297H178.347V6.1582H182.587V16.3652H183.729ZM182.866 2.60352C182.866 2.85742 182.815 3.0944 182.714 3.31445C182.426 3.88997 181.944 4.17773 181.267 4.17773C181.03 4.17773 180.801 4.12695 180.581 4.02539C179.989 3.75456 179.692 3.2806 179.692 2.60352C179.692 2.34961 179.752 2.10417 179.87 1.86719C180.158 1.29167 180.623 1.00391 181.267 1.00391C181.521 1.00391 181.766 1.06315 182.003 1.18164C182.578 1.48633 182.866 1.96029 182.866 2.60352ZM191.372 16.3652C191.474 16.3652 191.567 16.3737 191.651 16.3906C191.871 16.4414 191.981 16.6445 191.981 17H185.659V16.3652C186.201 16.3652 186.607 16.3229 186.878 16.2383C187.352 16.0859 187.589 15.6374 187.589 14.8926V1.13086H185.659V0.496094H190.026V16.3652H191.372ZM196.577 15.6289C196.577 15.849 196.526 16.069 196.425 16.2891C196.137 16.8477 195.688 17.127 195.079 17.127C194.859 17.127 194.647 17.0846 194.444 17C193.869 16.7292 193.581 16.2721 193.581 15.6289C193.581 15.4089 193.632 15.1888 193.733 14.9688C194.004 14.3932 194.453 14.1055 195.079 14.1055C195.316 14.1055 195.545 14.1647 195.765 14.2832C196.306 14.571 196.577 15.0195 196.577 15.6289ZM198.481 11.6426C198.481 10.2884 198.812 9.12044 199.472 8.13867C200.487 6.61523 202.019 5.85352 204.067 5.85352C205.151 5.85352 206.107 6.08203 206.937 6.53906C207.935 7.09766 208.435 7.77474 208.435 8.57031C208.435 8.67188 208.418 8.7819 208.384 8.90039C208.248 9.49284 207.817 9.7806 207.089 9.76367C206.801 9.74674 206.556 9.67904 206.353 9.56055C206.082 9.37435 205.887 8.91732 205.769 8.18945C205.735 7.90169 205.701 7.69857 205.667 7.58008C205.481 6.85221 204.965 6.48828 204.118 6.48828C202.172 6.50521 201.19 8.18945 201.173 11.541C201.173 12.5228 201.283 13.3776 201.503 14.1055C202.011 15.7305 202.984 16.543 204.423 16.543C204.694 16.543 204.965 16.5176 205.235 16.4668C206.539 16.2298 207.47 15.502 208.028 14.2832L208.688 14.4863C208.536 14.8587 208.333 15.2057 208.079 15.5273C207.165 16.6784 205.828 17.2539 204.067 17.2539C202.899 17.2539 201.858 16.9831 200.944 16.4414C199.302 15.4596 198.481 13.86 198.481 11.6426ZM212.065 16.3398H216.052C216.949 16.2721 217.575 15.6966 217.931 14.6133L218.337 12.9629H218.819L218.743 17H209.272V16.4414L216.255 6.74219H212.599C211.905 6.75911 211.363 7.17383 210.974 7.98633L210.237 9.58594H209.755L209.983 6.08203H218.794V6.61523L212.065 16.3398Z" fill="white"/>
</svg>
