<svg width="243" height="22" viewBox="0 0 243 22" fill="none" xmlns="http://www.w3.org/2000/svg">
<path d="M2.79395 11.541C2.79395 12.0996 2.81934 12.6074 2.87012 13.0645C3.1071 15.4342 4.07194 16.6191 5.76465 16.6191C7.67741 16.5853 8.65072 14.8587 8.68457 11.4395C8.68457 10.7793 8.65072 10.1784 8.58301 9.63672C8.29525 7.53776 7.34733 6.48828 5.73926 6.48828C3.94499 6.6237 2.96322 8.30794 2.79395 11.541ZM5.81543 5.85352C7.06803 5.85352 8.17676 6.18359 9.1416 6.84375C10.6312 7.89323 11.376 9.44206 11.376 11.4902C11.376 13.0137 10.9105 14.3086 9.97949 15.375C8.87923 16.6276 7.44889 17.2539 5.68848 17.2539C4.40202 17.2539 3.2679 16.8815 2.28613 16.1367C0.830404 15.0534 0.102539 13.4876 0.102539 11.4395C0.102539 9.9668 0.551107 8.72266 1.44824 7.70703C2.5485 6.47135 4.00423 5.85352 5.81543 5.85352ZM21.9131 17L21.6338 14.4355C21.5999 14.5202 21.5661 14.6048 21.5322 14.6895C20.7536 16.3991 19.484 17.2539 17.7236 17.2539C16.7926 17.2539 15.9548 16.9746 15.21 16.416C13.8727 15.4173 13.2041 13.8854 13.2041 11.8203C13.2041 10.3815 13.5511 9.12044 14.2451 8.03711C15.2269 6.56445 16.598 5.82812 18.3584 5.82812C19.6956 5.82812 20.779 6.2513 21.6084 7.09766V1.13086H19.2217V0.496094H24.0459L24.0713 16.3398H25.3154C25.417 16.3398 25.5101 16.3483 25.5947 16.3652C25.8148 16.3991 25.9248 16.6107 25.9248 17H21.9131ZM15.8955 11.5156C15.8955 12.3281 15.9717 13.056 16.124 13.6992C16.5303 15.3581 17.3597 16.1875 18.6123 16.1875C19.1709 16.1875 19.6702 16.0013 20.1104 15.6289C21.1429 14.7656 21.6592 13.2337 21.6592 11.0332C21.6592 10.153 21.5576 9.38281 21.3545 8.72266C20.9144 7.28385 20.0934 6.56445 18.8916 6.56445C18.4346 6.56445 18.0114 6.68294 17.6221 6.91992C16.471 7.63086 15.8955 9.16276 15.8955 11.5156ZM31.3076 16.5684C32.4587 16.5684 33.195 16.2044 33.5166 15.4766C33.6182 15.2565 33.6689 15.028 33.6689 14.791C33.6689 14.0293 33.1357 13.3776 32.0693 12.8359C31.8493 12.7174 31.4854 12.5482 30.9775 12.3281C29.6403 11.7526 28.7516 11.2194 28.3115 10.7285C27.8376 10.1868 27.6006 9.55208 27.6006 8.82422C27.6006 7.55469 28.2946 6.67448 29.6826 6.18359C30.3089 5.96354 30.9945 5.85352 31.7393 5.85352C32.958 5.85352 33.9567 6.09049 34.7354 6.56445C34.7354 6.07357 34.8623 5.79427 35.1162 5.72656C35.2008 5.70964 35.2939 5.70117 35.3955 5.70117V8.875H34.6846C34.6169 7.31771 33.762 6.5306 32.1201 6.51367C30.9352 6.51367 30.1989 6.8776 29.9111 7.60547C29.8434 7.79167 29.8096 7.98633 29.8096 8.18945C29.8096 8.91732 30.3258 9.54362 31.3584 10.0684C31.5785 10.1699 31.9339 10.3223 32.4248 10.5254C33.779 11.1009 34.6761 11.6341 35.1162 12.125C35.624 12.7005 35.8779 13.3691 35.8779 14.1309C35.8779 15.5189 35.1501 16.4583 33.6943 16.9492C33.1019 17.1523 32.4417 17.2539 31.7139 17.2539C30.3766 17.237 29.234 16.9492 28.2861 16.3906C28.2861 16.8307 28.1761 17.0846 27.9561 17.1523C27.8545 17.1693 27.736 17.1777 27.6006 17.1777V13.3184H28.3877C28.4215 15.4681 29.3949 16.5514 31.3076 16.5684ZM43.4951 16.3652C43.6136 16.3652 43.7152 16.3737 43.7998 16.3906C44.0199 16.4245 44.1299 16.6276 44.1299 17H37.4775V16.3652C37.9176 16.3652 38.2477 16.3314 38.4678 16.2637C38.9587 16.1283 39.2041 15.6797 39.2041 14.918V6.79297H37.4775V6.1582H41.4639L41.5908 8.62109C41.7939 8.11328 42.0817 7.65625 42.4541 7.25C43.2666 6.40365 44.1807 5.98047 45.1963 5.98047C45.3825 5.98047 45.5687 5.9974 45.7549 6.03125C46.5505 6.23438 46.9482 6.73372 46.9482 7.5293C46.9482 7.68164 46.9229 7.83398 46.8721 7.98633C46.6689 8.54492 46.2712 8.82422 45.6787 8.82422C45.5433 8.82422 45.4163 8.80729 45.2979 8.77344C45.0101 8.67188 44.7223 8.36719 44.4346 7.85938C44.1976 7.45312 43.9606 7.25 43.7236 7.25C43.5036 7.26693 43.2581 7.39388 42.9873 7.63086C42.0902 8.42643 41.6416 9.70443 41.6416 11.4648V16.3652H43.4951ZM56.6982 17L56.4189 14.4355C56.3851 14.5202 56.3512 14.6048 56.3174 14.6895C55.5387 16.3991 54.2692 17.2539 52.5088 17.2539C51.5778 17.2539 50.7399 16.9746 49.9951 16.416C48.6579 15.4173 47.9893 13.8854 47.9893 11.8203C47.9893 10.3815 48.3363 9.12044 49.0303 8.03711C50.012 6.56445 51.3831 5.82812 53.1436 5.82812C54.4808 5.82812 55.5641 6.2513 56.3936 7.09766V1.13086H54.0068V0.496094H58.8311L58.8564 16.3398H60.1006C60.2021 16.3398 60.2952 16.3483 60.3799 16.3652C60.5999 16.3991 60.71 16.6107 60.71 17H56.6982ZM50.6807 11.5156C50.6807 12.3281 50.7568 13.056 50.9092 13.6992C51.3154 15.3581 52.1449 16.1875 53.3975 16.1875C53.9561 16.1875 54.4554 16.0013 54.8955 15.6289C55.9281 14.7656 56.4443 13.2337 56.4443 11.0332C56.4443 10.153 56.3428 9.38281 56.1396 8.72266C55.6995 7.28385 54.8786 6.56445 53.6768 6.56445C53.2197 6.56445 52.7965 6.68294 52.4072 6.91992C51.2562 7.63086 50.6807 9.16276 50.6807 11.5156ZM67.5908 6.48828C67.2692 6.48828 66.973 6.54753 66.7021 6.66602C65.5173 7.19076 64.891 8.53646 64.8232 10.7031L67.083 10.7539C67.7939 10.7878 68.3441 10.7539 68.7334 10.6523C69.4274 10.4661 69.7744 9.95833 69.7744 9.12891C69.7744 8.79036 69.7321 8.46029 69.6475 8.13867C69.3597 7.03841 68.6742 6.48828 67.5908 6.48828ZM72.1357 14.4863C72.0342 14.7233 71.9157 14.9603 71.7803 15.1973C70.9339 16.5684 69.5544 17.2539 67.6416 17.2539C66.5075 17.2539 65.4919 16.9831 64.5947 16.4414C62.9528 15.4596 62.1318 13.8431 62.1318 11.5918C62.1318 10.2884 62.445 9.14583 63.0713 8.16406C64.0531 6.6237 65.5511 5.85352 67.5654 5.85352C68.6318 5.85352 69.5882 6.07357 70.4346 6.51367C71.7041 7.17383 72.3389 8.13867 72.3389 9.4082C72.3389 9.89909 72.2035 10.3053 71.9326 10.627C71.3571 11.2363 69.9098 11.5156 67.5908 11.4648L64.8232 11.4141C64.8232 11.431 64.8232 11.4479 64.8232 11.4648C64.9079 14.8503 66.0081 16.543 68.124 16.543C68.3949 16.543 68.6657 16.5091 68.9365 16.4414C70.1045 16.1706 70.9678 15.4512 71.5264 14.2832L72.1357 14.4863ZM74.04 11.6426C74.04 10.2884 74.3701 9.12044 75.0303 8.13867C76.0459 6.61523 77.5778 5.85352 79.626 5.85352C80.7093 5.85352 81.6657 6.08203 82.4951 6.53906C83.4938 7.09766 83.9932 7.77474 83.9932 8.57031C83.9932 8.67188 83.9762 8.7819 83.9424 8.90039C83.807 9.49284 83.3753 9.7806 82.6475 9.76367C82.3597 9.74674 82.1143 9.67904 81.9111 9.56055C81.6403 9.37435 81.4456 8.91732 81.3271 8.18945C81.2933 7.90169 81.2594 7.69857 81.2256 7.58008C81.0394 6.85221 80.5231 6.48828 79.6768 6.48828C77.7301 6.50521 76.7484 8.18945 76.7314 11.541C76.7314 12.5228 76.8415 13.3776 77.0615 14.1055C77.5693 15.7305 78.5426 16.543 79.9814 16.543C80.2523 16.543 80.5231 16.5176 80.7939 16.4668C82.0973 16.2298 83.0283 15.502 83.5869 14.2832L84.2471 14.4863C84.0947 14.8587 83.8916 15.2057 83.6377 15.5273C82.7236 16.6784 81.3864 17.2539 79.626 17.2539C78.458 17.2539 77.417 16.9831 76.5029 16.4414C74.861 15.4596 74.04 13.86 74.04 11.6426ZM90.5693 16.3652C90.6878 16.3652 90.7894 16.3737 90.874 16.3906C91.0941 16.4245 91.2041 16.6276 91.2041 17H84.9834V16.3652C85.4235 16.3652 85.7705 16.3314 86.0244 16.2637C86.6169 16.1283 86.9131 15.6797 86.9131 14.918V1.13086H84.9834V0.496094H89.3506V11.5156L94.3779 6.79297H92.499V6.1582H96.8154C96.8154 6.24284 96.807 6.32747 96.79 6.41211C96.7562 6.66602 96.5446 6.79297 96.1553 6.79297C96.0029 6.79297 95.8506 6.8099 95.6982 6.84375C95.4105 6.91146 94.9704 7.22461 94.3779 7.7832L92.1943 9.83984L96.2822 16.3652H96.9678C97.0863 16.3652 97.1878 16.3737 97.2725 16.3906C97.4925 16.4245 97.6025 16.6276 97.6025 17H93.8955L90.5186 11.4395L89.3506 12.5312V16.3652H90.5693ZM107.251 17.2539C105.981 17.237 105.22 16.4753 104.966 14.9688C104.83 15.3073 104.636 15.6289 104.382 15.9336C103.603 16.8138 102.571 17.2539 101.284 17.2539C100.759 17.2539 100.277 17.1693 99.8369 17C98.6689 16.543 98.085 15.6374 98.085 14.2832C98.085 14.0293 98.1104 13.7839 98.1611 13.5469C98.5843 11.7526 100.827 10.8301 104.89 10.7793V9.1543C104.873 7.41081 104.179 6.52214 102.808 6.48828C102.469 6.48828 102.181 6.54753 101.944 6.66602C101.623 6.85221 101.352 7.28385 101.132 7.96094C101.081 8.13021 101.039 8.25716 101.005 8.3418C100.802 8.90039 100.438 9.17969 99.9131 9.17969C99.7777 9.17969 99.6423 9.16276 99.5068 9.12891C98.999 8.97656 98.7451 8.62956 98.7451 8.08789C98.7451 7.80013 98.8382 7.51237 99.0244 7.22461C99.6507 6.31055 100.988 5.85352 103.036 5.85352C105.863 5.87044 107.293 7.18229 107.327 9.78906V15.1211C107.344 15.9505 107.556 16.3822 107.962 16.416C108.487 16.3991 108.808 15.7897 108.927 14.5879L109.587 14.6133C109.57 15.0026 109.519 15.3496 109.435 15.6543C109.164 16.7207 108.436 17.2539 107.251 17.2539ZM102.325 16.2129C102.579 16.2129 102.841 16.1536 103.112 16.0352C104.009 15.6458 104.602 14.8587 104.89 13.6738V11.4648C103.891 11.4818 103.078 11.5664 102.452 11.7188C101.233 12.0234 100.624 12.7513 100.624 13.9023C100.624 14.1393 100.641 14.3594 100.675 14.5625C100.844 15.6628 101.394 16.2129 102.325 16.2129ZM126.827 19.9961C125.067 20.8932 123.205 21.3418 121.241 21.3418C118.533 21.3418 116.214 20.5378 114.284 18.9297C112.202 17.1862 111.161 14.918 111.161 12.125C111.161 9.46745 111.931 7.24154 113.472 5.44727C115.351 3.2806 117.983 2.19727 121.368 2.19727C123.67 2.19727 125.651 2.77279 127.31 3.92383C129.662 5.56576 130.839 8.02865 130.839 11.3125C130.839 12.6836 130.509 13.8516 129.849 14.8164C128.951 16.1029 127.69 16.7461 126.065 16.7461C124.187 16.7292 123.129 16.0436 122.892 14.6895C122.79 14.9264 122.663 15.1549 122.511 15.375C121.834 16.2721 120.886 16.7207 119.667 16.7207C119.278 16.7207 118.905 16.6699 118.55 16.5684C117.314 16.2129 116.696 15.3665 116.696 14.0293C116.696 13.623 116.764 13.2676 116.899 12.9629C117.458 11.5749 119.43 10.8639 122.815 10.8301V9.35742C122.815 9.1543 122.807 8.95964 122.79 8.77344C122.672 7.57161 122.088 6.9707 121.038 6.9707C120.784 6.9707 120.556 7.01302 120.353 7.09766C120.048 7.25 119.819 7.6224 119.667 8.21484C119.616 8.38411 119.582 8.5026 119.565 8.57031C119.379 9.12891 118.99 9.4082 118.397 9.4082C118.296 9.4082 118.194 9.39974 118.093 9.38281C117.585 9.2474 117.331 8.91732 117.331 8.39258C117.331 8.13867 117.416 7.88477 117.585 7.63086C118.16 6.78451 119.379 6.36133 121.241 6.36133C123.865 6.37826 125.194 7.58008 125.228 9.9668V14.6387C125.244 15.5866 125.625 16.0775 126.37 16.1113C126.743 16.1113 127.106 15.9674 127.462 15.6797C128.376 14.9349 128.833 13.6146 128.833 11.7188C128.833 9.0612 128.122 6.92839 126.7 5.32031C125.278 3.71224 123.433 2.9082 121.165 2.9082C119.117 2.9082 117.433 3.52604 116.112 4.76172C114.42 6.35286 113.573 8.5957 113.573 11.4902C113.573 14.1139 114.394 16.2721 116.036 17.9648C117.644 19.6068 119.642 20.4277 122.028 20.4277C123.552 20.4277 125.05 20.0723 126.522 19.3613L126.827 19.9961ZM120.606 15.7051C120.793 15.7051 120.987 15.6712 121.19 15.6035C122.003 15.2988 122.545 14.5794 122.815 13.4453V11.4648C122.308 11.4818 121.851 11.5156 121.444 11.5664C119.938 11.8203 119.185 12.5228 119.185 13.6738C119.185 13.9108 119.201 14.1309 119.235 14.334C119.405 15.248 119.862 15.7051 120.606 15.7051ZM136.12 9.9668C136.12 10.5762 136.154 11.0924 136.222 11.5156C136.459 12.8359 137.161 13.4961 138.329 13.4961C138.701 13.4961 139.032 13.4368 139.319 13.3184C140.149 12.929 140.563 11.8034 140.563 9.94141C140.563 9.33203 140.521 8.80729 140.437 8.36719C140.216 7.11458 139.522 6.48828 138.354 6.48828C138.016 6.48828 137.711 6.53906 137.44 6.64062C136.56 6.99609 136.12 8.10482 136.12 9.9668ZM138.405 5.85352C139.404 5.85352 140.301 6.07357 141.097 6.51367C141.181 6.22591 141.3 5.95508 141.452 5.70117C141.943 4.9056 142.595 4.50781 143.407 4.50781C143.644 4.50781 143.873 4.55013 144.093 4.63477C144.634 4.85482 144.905 5.24414 144.905 5.80273C144.905 5.85352 144.897 5.91276 144.88 5.98047C144.795 6.4375 144.524 6.66602 144.067 6.66602C143.881 6.66602 143.687 6.57292 143.483 6.38672C143.179 6.11589 142.916 5.98047 142.696 5.98047C142.222 5.9974 141.867 6.29362 141.63 6.86914C142.578 7.61393 143.06 8.62956 143.077 9.91602C143.077 10.8809 142.781 11.7357 142.188 12.4805C141.257 13.5977 139.971 14.1562 138.329 14.1562H138.253L135.892 14.1309C135.79 14.1309 135.68 14.1393 135.562 14.1562C135.071 14.2578 134.825 14.5117 134.825 14.918C134.842 15.4596 135.189 15.7559 135.866 15.8066L140.741 15.9082C140.961 15.9082 141.19 15.9251 141.427 15.959C143.187 16.179 144.067 17.0762 144.067 18.6504C144.067 19.1243 143.932 19.5645 143.661 19.9707C142.849 21.2402 141.114 21.875 138.456 21.875C137.39 21.875 136.476 21.7227 135.714 21.418C134.58 20.9609 134.013 20.2669 134.013 19.3359C134.013 18.7604 134.267 18.2018 134.774 17.6602C134.114 17.1862 133.776 16.5176 133.759 15.6543C133.759 15.3665 133.81 15.0872 133.911 14.8164C134.233 13.9193 134.893 13.4707 135.892 13.4707C135.739 13.3861 135.587 13.2845 135.435 13.166C134.216 12.2858 133.606 11.2194 133.606 9.9668C133.606 9.01888 133.894 8.19792 134.47 7.50391C135.384 6.40365 136.696 5.85352 138.405 5.85352ZM138.456 21.2148C139.269 21.2148 140.013 21.1387 140.69 20.9863C142.129 20.6478 142.849 20.0977 142.849 19.3359C142.849 19.1836 142.823 19.0397 142.772 18.9043C142.603 18.4134 141.926 18.168 140.741 18.168L136.323 18.1172C135.985 18.1172 135.672 18.0664 135.384 17.9648C135.062 18.3711 134.893 18.7858 134.876 19.209C134.876 19.429 134.927 19.6406 135.028 19.8438C135.468 20.7578 136.611 21.2148 138.456 21.2148ZM150.567 16.3652C150.669 16.3652 150.754 16.3737 150.821 16.3906C151.075 16.4245 151.202 16.6276 151.202 17H145.54V16.3652C145.963 16.3652 146.293 16.3314 146.53 16.2637C147.021 16.1283 147.267 15.6797 147.267 14.918V6.79297H145.54V6.1582H149.552L149.679 8.41797C149.797 8.16406 149.933 7.91016 150.085 7.65625C150.864 6.45443 151.938 5.85352 153.31 5.85352C153.597 5.85352 153.894 5.9043 154.198 6.00586C155.231 6.3444 155.925 7.1569 156.28 8.44336C156.382 8.20638 156.5 7.97786 156.636 7.75781C157.414 6.48828 158.506 5.85352 159.911 5.85352C160.487 5.85352 161.028 5.9974 161.536 6.28516C162.67 6.97917 163.237 8.18945 163.237 9.91602V16.3652H164.354C164.473 16.3652 164.575 16.3737 164.659 16.3906C164.879 16.4245 164.989 16.6276 164.989 17H159.302V16.3652C159.759 16.3652 160.089 16.3229 160.292 16.2383C160.631 16.0859 160.8 15.6458 160.8 14.918V9.63672C160.8 9.14583 160.724 8.69727 160.571 8.29102C160.25 7.42773 159.691 6.99609 158.896 6.99609C158.625 6.99609 158.354 7.0638 158.083 7.19922C157.22 7.65625 156.678 8.51953 156.458 9.78906V9.9668V16.3652H157.321C157.44 16.3652 157.541 16.3737 157.626 16.3906C157.846 16.4245 157.956 16.6276 157.956 17H152.522V16.3652C152.963 16.3652 153.293 16.3229 153.513 16.2383C153.868 16.0859 154.046 15.6458 154.046 14.918V9.63672C154.046 9.12891 153.978 8.68034 153.843 8.29102C153.521 7.44466 152.988 7.02148 152.243 7.02148C151.922 7.02148 151.591 7.12305 151.253 7.32617C150.356 7.90169 149.848 8.875 149.729 10.2461L149.704 16.3652H150.567ZM175.425 17.2539C174.155 17.237 173.394 16.4753 173.14 14.9688C173.004 15.3073 172.81 15.6289 172.556 15.9336C171.777 16.8138 170.744 17.2539 169.458 17.2539C168.933 17.2539 168.451 17.1693 168.011 17C166.843 16.543 166.259 15.6374 166.259 14.2832C166.259 14.0293 166.284 13.7839 166.335 13.5469C166.758 11.7526 169.001 10.8301 173.063 10.7793V9.1543C173.047 7.41081 172.353 6.52214 170.981 6.48828C170.643 6.48828 170.355 6.54753 170.118 6.66602C169.797 6.85221 169.526 7.28385 169.306 7.96094C169.255 8.13021 169.213 8.25716 169.179 8.3418C168.976 8.90039 168.612 9.17969 168.087 9.17969C167.951 9.17969 167.816 9.16276 167.681 9.12891C167.173 8.97656 166.919 8.62956 166.919 8.08789C166.919 7.80013 167.012 7.51237 167.198 7.22461C167.825 6.31055 169.162 5.85352 171.21 5.85352C174.037 5.87044 175.467 7.18229 175.501 9.78906V15.1211C175.518 15.9505 175.729 16.3822 176.136 16.416C176.66 16.3991 176.982 15.7897 177.101 14.5879L177.761 14.6133C177.744 15.0026 177.693 15.3496 177.608 15.6543C177.338 16.7207 176.61 17.2539 175.425 17.2539ZM170.499 16.2129C170.753 16.2129 171.015 16.1536 171.286 16.0352C172.183 15.6458 172.776 14.8587 173.063 13.6738V11.4648C172.065 11.4818 171.252 11.5664 170.626 11.7188C169.407 12.0234 168.798 12.7513 168.798 13.9023C168.798 14.1393 168.815 14.3594 168.849 14.5625C169.018 15.6628 169.568 16.2129 170.499 16.2129ZM183.981 16.3652C184.1 16.3652 184.201 16.3737 184.286 16.3906C184.506 16.4245 184.616 16.6276 184.616 17H178.599V16.3652C179.022 16.3652 179.352 16.3398 179.589 16.2891C180.131 16.1367 180.401 15.6797 180.401 14.918V6.79297H178.599V6.1582H182.839V16.3652H183.981ZM183.118 2.60352C183.118 2.85742 183.067 3.0944 182.966 3.31445C182.678 3.88997 182.196 4.17773 181.519 4.17773C181.282 4.17773 181.053 4.12695 180.833 4.02539C180.241 3.75456 179.944 3.2806 179.944 2.60352C179.944 2.34961 180.004 2.10417 180.122 1.86719C180.41 1.29167 180.875 1.00391 181.519 1.00391C181.772 1.00391 182.018 1.06315 182.255 1.18164C182.83 1.48633 183.118 1.96029 183.118 2.60352ZM191.624 16.3652C191.726 16.3652 191.819 16.3737 191.903 16.3906C192.123 16.4414 192.233 16.6445 192.233 17H185.911V16.3652C186.453 16.3652 186.859 16.3229 187.13 16.2383C187.604 16.0859 187.841 15.6374 187.841 14.8926V1.13086H185.911V0.496094H190.278V16.3652H191.624ZM196.829 15.6289C196.829 15.849 196.778 16.069 196.677 16.2891C196.389 16.8477 195.94 17.127 195.331 17.127C195.111 17.127 194.899 17.0846 194.696 17C194.121 16.7292 193.833 16.2721 193.833 15.6289C193.833 15.4089 193.884 15.1888 193.985 14.9688C194.256 14.3932 194.705 14.1055 195.331 14.1055C195.568 14.1055 195.797 14.1647 196.017 14.2832C196.558 14.571 196.829 15.0195 196.829 15.6289ZM198.733 11.6426C198.733 10.2884 199.063 9.12044 199.724 8.13867C200.739 6.61523 202.271 5.85352 204.319 5.85352C205.403 5.85352 206.359 6.08203 207.188 6.53906C208.187 7.09766 208.687 7.77474 208.687 8.57031C208.687 8.67188 208.67 8.7819 208.636 8.90039C208.5 9.49284 208.069 9.7806 207.341 9.76367C207.053 9.74674 206.808 9.67904 206.604 9.56055C206.334 9.37435 206.139 8.91732 206.021 8.18945C205.987 7.90169 205.953 7.69857 205.919 7.58008C205.733 6.85221 205.216 6.48828 204.37 6.48828C202.424 6.50521 201.442 8.18945 201.425 11.541C201.425 12.5228 201.535 13.3776 201.755 14.1055C202.263 15.7305 203.236 16.543 204.675 16.543C204.946 16.543 205.216 16.5176 205.487 16.4668C206.791 16.2298 207.722 15.502 208.28 14.2832L208.94 14.4863C208.788 14.8587 208.585 15.2057 208.331 15.5273C207.417 16.6784 206.08 17.2539 204.319 17.2539C203.151 17.2539 202.11 16.9831 201.196 16.4414C199.554 15.4596 198.733 13.86 198.733 11.6426ZM212.673 11.541C212.673 12.0996 212.698 12.6074 212.749 13.0645C212.986 15.4342 213.951 16.6191 215.644 16.6191C217.556 16.5853 218.53 14.8587 218.563 11.4395C218.563 10.7793 218.53 10.1784 218.462 9.63672C218.174 7.53776 217.226 6.48828 215.618 6.48828C213.824 6.6237 212.842 8.30794 212.673 11.541ZM215.694 5.85352C216.947 5.85352 218.056 6.18359 219.021 6.84375C220.51 7.89323 221.255 9.44206 221.255 11.4902C221.255 13.0137 220.789 14.3086 219.858 15.375C218.758 16.6276 217.328 17.2539 215.567 17.2539C214.281 17.2539 213.147 16.8815 212.165 16.1367C210.709 15.0534 209.981 13.4876 209.981 11.4395C209.981 9.9668 210.43 8.72266 211.327 7.70703C212.427 6.47135 213.883 5.85352 215.694 5.85352ZM227.856 16.3652C227.958 16.3652 228.043 16.3737 228.11 16.3906C228.364 16.4245 228.491 16.6276 228.491 17H222.829V16.3652C223.252 16.3652 223.582 16.3314 223.819 16.2637C224.31 16.1283 224.556 15.6797 224.556 14.918V6.79297H222.829V6.1582H226.841L226.968 8.41797C227.086 8.16406 227.222 7.91016 227.374 7.65625C228.153 6.45443 229.228 5.85352 230.599 5.85352C230.886 5.85352 231.183 5.9043 231.487 6.00586C232.52 6.3444 233.214 7.1569 233.569 8.44336C233.671 8.20638 233.789 7.97786 233.925 7.75781C234.703 6.48828 235.795 5.85352 237.2 5.85352C237.776 5.85352 238.317 5.9974 238.825 6.28516C239.959 6.97917 240.526 8.18945 240.526 9.91602V16.3652H241.644C241.762 16.3652 241.864 16.3737 241.948 16.3906C242.168 16.4245 242.278 16.6276 242.278 17H236.591V16.3652C237.048 16.3652 237.378 16.3229 237.581 16.2383C237.92 16.0859 238.089 15.6458 238.089 14.918V9.63672C238.089 9.14583 238.013 8.69727 237.86 8.29102C237.539 7.42773 236.98 6.99609 236.185 6.99609C235.914 6.99609 235.643 7.0638 235.372 7.19922C234.509 7.65625 233.967 8.51953 233.747 9.78906V9.9668V16.3652H234.61C234.729 16.3652 234.83 16.3737 234.915 16.3906C235.135 16.4245 235.245 16.6276 235.245 17H229.812V16.3652C230.252 16.3652 230.582 16.3229 230.802 16.2383C231.157 16.0859 231.335 15.6458 231.335 14.918V9.63672C231.335 9.12891 231.267 8.68034 231.132 8.29102C230.81 7.44466 230.277 7.02148 229.532 7.02148C229.211 7.02148 228.881 7.12305 228.542 7.32617C227.645 7.90169 227.137 8.875 227.019 10.2461L226.993 16.3652H227.856Z" fill="white"/>
</svg>
