<svg width="1440" height="76" viewBox="0 0 1440 76" fill="none" xmlns="http://www.w3.org/2000/svg">
<path fill-rule="evenodd" clip-rule="evenodd" d="M12.2034 33.5347C12.8088 33.3167 13.4178 33.082 14.0286 32.8307C22.9837 29.1453 28.9052 23.271 27.2546 19.7102C25.6039 16.1493 17.0063 16.2503 8.05114 19.9358C0.578994 23.0109 -4.78105 27.6099 -5.39251 31.1173C-6.13642 34.6098 -2.06896 40.6827 4.66557 45.7047C12.3861 51.4619 20.6882 53.6579 23.2089 50.6095C25.7295 47.5611 21.5142 40.4227 13.7937 34.6655C13.2656 34.2717 12.7349 33.8946 12.2034 33.5347Z" fill="#071E58"/>
<path fill-rule="evenodd" clip-rule="evenodd" d="M55.202 37.5351C55.8079 37.317 56.4174 37.0821 57.0287 36.8306C65.9838 33.1452 71.9052 27.271 70.2546 23.7102C68.6039 20.1494 60.0063 20.2503 51.0513 23.9357C43.5742 27.0129 38.2121 31.6159 37.6065 35.1242C36.868 38.6175 40.9347 44.6867 47.6657 49.706C55.3862 55.4632 63.6882 57.6591 66.2089 54.6108C68.7295 51.5624 64.5142 44.4241 56.7937 38.6669C56.2652 38.2728 55.734 37.8953 55.202 37.5351Z" fill="#071E58"/>
<path fill-rule="evenodd" clip-rule="evenodd" d="M98.2032 39.5346C98.8087 39.3166 99.4179 39.0819 100.029 38.8305C108.984 35.1451 114.905 29.2709 113.255 25.7102C111.604 22.1494 103.006 22.2504 94.0514 25.9357C86.5881 29.0072 81.2319 33.599 80.6101 37.1049C79.8539 40.5953 83.923 46.6765 90.6654 51.7044C98.3858 57.4615 106.688 59.6575 109.208 56.6091C111.729 53.5608 107.514 46.4225 99.7934 40.6653C99.2654 40.2716 98.7347 39.8945 98.2032 39.5346Z" fill="#071E58"/>
<path fill-rule="evenodd" clip-rule="evenodd" d="M147.522 36.7777C148.094 36.4835 148.668 36.1722 149.242 35.8441C157.647 31.0348 162.761 24.4461 160.665 21.1279C158.569 17.8097 150.056 19.0184 141.651 23.8277C134.646 27.8359 129.927 33.08 129.762 36.6368C129.463 40.1956 134.282 45.7014 141.616 49.8178C150.015 54.5314 158.53 55.6386 160.637 52.2906C162.744 48.9427 157.643 42.4076 149.245 37.694C148.67 37.3716 148.095 37.0661 147.522 36.7777Z" fill="#071E58"/>
<path fill-rule="evenodd" clip-rule="evenodd" d="M197.203 38.5346C197.809 38.3166 198.418 38.0819 199.029 37.8305C207.984 34.1451 213.905 28.2709 212.255 24.7102C210.604 21.1494 202.006 21.2504 193.051 24.9357C185.588 28.0072 180.232 32.599 179.61 36.1049C178.854 39.5953 182.923 45.6765 189.665 50.7044C197.386 56.4615 205.688 58.6575 208.208 55.6091C210.729 52.5608 206.514 45.4225 198.793 39.6653C198.265 39.2716 197.735 38.8945 197.203 38.5346Z" fill="#071E58"/>
<path fill-rule="evenodd" clip-rule="evenodd" d="M249.579 33.2436C250.075 32.8337 250.569 32.4067 251.059 31.9635C258.24 25.4662 261.825 17.9353 259.067 15.1427C256.309 12.3502 248.253 15.3535 241.072 21.8508C235.088 27.2659 231.601 33.3988 232.202 36.9084C232.671 40.4488 238.557 44.7951 246.603 47.2458C255.815 50.052 264.371 49.3101 265.712 45.5888C267.053 41.8676 260.671 36.576 251.458 33.7698C250.828 33.5779 250.201 33.4026 249.579 33.2436Z" fill="#071E58"/>
<path fill-rule="evenodd" clip-rule="evenodd" d="M304.292 36.4109C304.849 36.0892 305.407 35.7502 305.964 35.3946C314.125 30.182 318.913 23.3523 316.658 20.14C314.403 16.9277 305.959 18.5492 297.798 23.7618C290.996 28.1065 286.537 33.5747 286.546 37.1352C286.421 40.7044 291.502 45.9687 299.028 49.7231C307.645 54.0224 316.205 54.7138 318.146 51.2674C320.087 47.8209 314.675 41.5417 306.057 37.2423C305.467 36.9483 304.878 36.6711 304.292 36.4109Z" fill="#071E58"/>
<path fill-rule="evenodd" clip-rule="evenodd" d="M350.403 37.6927C351.046 37.4611 351.693 37.2118 352.342 36.9448C361.857 33.0291 368.148 26.7878 366.395 23.0044C364.641 19.2211 355.506 19.3284 345.991 23.2441C338.061 26.5078 332.37 31.387 331.71 35.1121C330.908 38.8209 335.231 45.2813 342.394 50.6228C350.597 56.7398 359.418 59.0729 362.096 55.8341C364.774 52.5952 360.295 45.0108 352.092 38.8938C351.531 38.4756 350.968 38.075 350.403 37.6927Z" fill="#071E58"/>
<path fill-rule="evenodd" clip-rule="evenodd" d="M466.403 41.6927C467.046 41.4611 467.693 41.2118 468.342 40.9448C477.857 37.0291 484.148 30.7878 482.395 27.0044C480.641 23.2211 471.506 23.3284 461.991 27.2441C454.061 30.5078 448.37 35.387 447.71 39.1121C446.908 42.8209 451.231 49.2813 458.394 54.6228C466.597 60.7398 475.418 63.0729 478.096 59.8341C480.774 56.5952 476.295 49.0108 468.092 42.8938C467.531 42.4756 466.968 42.075 466.403 41.6927Z" fill="#071E58"/>
<path fill-rule="evenodd" clip-rule="evenodd" d="M409.284 37.0018C409.832 36.5925 410.378 36.165 410.92 35.72C418.876 29.1954 423.069 21.3883 420.287 18.2824C417.504 15.1765 408.799 17.9479 400.844 24.4725C394.213 29.9107 390.195 36.2399 390.653 39.9952C390.969 43.7766 396.991 48.692 405.402 51.7077C415.034 55.1613 424.152 54.8156 425.767 50.9356C427.382 47.0556 420.883 41.1106 411.251 37.657C410.592 37.4209 409.936 37.2025 409.284 37.0018Z" fill="#071E58"/>
<path fill-rule="evenodd" clip-rule="evenodd" d="M518.564 40.7925C519.174 40.484 519.786 40.1574 520.397 39.813C529.361 34.7631 534.842 27.7992 532.639 24.2587C530.436 20.7182 521.383 21.9419 512.418 26.9918C504.946 31.201 499.894 36.7399 499.695 40.5178C499.353 44.2969 504.434 50.1798 512.196 54.6051C521.085 59.673 530.125 60.9099 532.387 57.3678C534.649 53.8257 529.277 46.8459 520.387 41.778C519.779 41.4315 519.171 41.1029 518.564 40.7925Z" fill="#071E58"/>
<path fill-rule="evenodd" clip-rule="evenodd" d="M576.126 39.8759C576.678 39.4728 577.229 39.0515 577.776 38.6127C585.806 32.1791 590.088 24.4203 587.341 21.2829C584.594 18.1455 575.858 20.8176 567.828 27.2511C561.138 32.6117 557.05 38.8922 557.461 42.6529C557.73 46.4381 563.697 51.4243 572.076 54.5367C581.668 58.0998 590.789 57.858 592.448 53.9967C594.108 50.1353 587.677 44.1166 578.084 40.5535C577.428 40.3099 576.775 40.0841 576.126 39.8759Z" fill="#071E58"/>
<path fill-rule="evenodd" clip-rule="evenodd" d="M631.403 41.6902C632.046 41.4568 632.693 41.2055 633.342 40.9364C642.86 36.9897 649.155 30.7039 647.403 26.8967C645.651 23.0894 636.516 23.2024 626.999 27.149C619.068 30.4378 613.374 35.3509 612.71 39.1006C611.904 42.8339 616.224 49.3359 623.386 54.7096C631.586 60.8623 640.406 63.2061 643.086 59.9444C645.766 56.6828 641.291 49.0509 633.091 42.8982C632.531 42.4775 631.967 42.0747 631.403 41.6902Z" fill="#071E58"/>
<path fill-rule="evenodd" clip-rule="evenodd" d="M686.415 37.8128C687.058 37.5794 687.705 37.3281 688.354 37.0589C697.871 33.1123 704.167 26.8265 702.415 23.0192C700.663 19.212 691.528 19.3249 682.01 23.2716C674.079 26.5604 668.386 31.4735 667.722 35.2231C666.916 38.9565 671.236 45.4584 678.397 50.8321C686.597 56.9849 695.417 59.3286 698.098 56.067C700.778 52.8054 696.303 45.1735 688.103 39.0207C687.542 38.6001 686.979 38.1973 686.415 37.8128Z" fill="#071E58"/>
<path fill-rule="evenodd" clip-rule="evenodd" d="M747.403 34.6929C748.046 34.4613 748.693 34.2119 749.342 33.9449C758.857 30.0291 765.148 23.7878 763.395 20.0044C761.641 16.2211 752.506 16.3284 742.991 20.2441C735.06 23.508 729.369 28.3877 728.709 32.1129C727.908 35.8218 732.231 42.282 739.394 47.6233C747.597 53.7403 756.418 56.0735 759.096 52.8346C761.774 49.5957 757.295 42.0112 749.092 35.8942C748.531 35.4759 747.967 35.0753 747.403 34.6929Z" fill="#071E58"/>
<path fill-rule="evenodd" clip-rule="evenodd" d="M814.107 28.0575C814.686 27.6933 815.264 27.3109 815.841 26.9108C824.294 21.0448 829.1 13.599 826.575 10.28C824.051 6.96103 815.151 9.02574 806.698 14.8917C799.652 19.7812 795.14 25.7684 795.296 29.5483C795.308 33.3428 800.917 38.725 809.059 42.4051C818.383 46.6197 827.499 47.006 829.42 43.268C831.341 39.5299 825.339 33.083 816.015 28.8684C815.377 28.5802 814.741 28.3098 814.107 28.0575Z" fill="#071E58"/>
<path fill-rule="evenodd" clip-rule="evenodd" d="M879.352 32.4188C879.955 32.0961 880.559 31.7553 881.162 31.3966C890.006 26.1392 895.324 19.0495 893.038 15.5613C890.753 12.0731 881.731 13.5074 872.887 18.7648C865.516 23.1463 860.595 28.8004 860.482 32.5819C860.226 36.3679 865.443 42.1322 873.308 46.3761C882.313 51.2355 891.379 52.2615 893.558 48.6676C895.737 45.0738 890.203 38.2211 881.198 33.3617C880.582 33.0294 879.966 32.715 879.352 32.4188Z" fill="#071E58"/>
<path fill-rule="evenodd" clip-rule="evenodd" d="M945.404 35.6929C946.047 35.4613 946.694 35.2119 947.343 34.9448C956.858 31.0291 963.149 24.7878 961.396 21.0044C959.642 17.2211 950.507 17.3284 940.992 21.2441C933.063 24.5074 927.372 29.386 926.711 33.1109C925.907 36.8195 930.23 43.281 937.394 48.6233C945.597 54.7403 954.418 57.0735 957.097 53.8346C959.775 50.5957 955.296 43.0112 947.093 36.8942C946.532 36.4759 945.968 36.0753 945.404 35.6929Z" fill="#071E58"/>
<path fill-rule="evenodd" clip-rule="evenodd" d="M1000.4 39.6928C1001.05 39.4612 1001.69 39.2119 1002.34 38.9449C1011.86 35.0291 1018.15 28.7878 1016.39 25.0044C1014.64 21.2211 1005.51 21.3284 995.991 25.2441C988.061 28.5077 982.37 33.3869 981.71 37.112C980.907 40.8208 985.23 47.2814 992.394 52.623C1000.6 58.74 1009.42 61.0732 1012.1 57.8343C1014.77 54.5954 1010.3 47.011 1002.09 40.894C1001.53 40.4757 1000.97 40.0751 1000.4 39.6928Z" fill="#071E58"/>
<path fill-rule="evenodd" clip-rule="evenodd" d="M1108.3 42.3993C1108.9 42.0647 1109.49 41.7118 1110.09 41.3412C1118.83 35.9076 1124 28.7127 1121.65 25.271C1119.29 21.8294 1110.3 23.4442 1101.56 28.8778C1094.28 33.4068 1089.47 39.1593 1089.44 42.9422C1089.26 46.7326 1094.59 52.3901 1102.54 56.475C1111.64 61.1529 1120.72 61.997 1122.83 58.3602C1124.94 54.7234 1119.27 47.983 1110.17 43.305C1109.54 42.9851 1108.92 42.6832 1108.3 42.3993Z" fill="#071E58"/>
<path fill-rule="evenodd" clip-rule="evenodd" d="M1053.4 41.6929C1054.05 41.4613 1054.69 41.2119 1055.34 40.9448C1064.86 37.0291 1071.15 30.7878 1069.39 27.0044C1067.64 23.2211 1058.51 23.3284 1048.99 27.2441C1041.06 30.5079 1035.37 35.3873 1034.71 39.1125C1033.91 42.8213 1038.23 49.2817 1045.39 54.6231C1053.6 60.7401 1062.42 63.0733 1065.1 59.8344C1067.77 56.5956 1063.3 49.0111 1055.09 42.8941C1054.53 42.4758 1053.97 42.0752 1053.4 41.6929Z" fill="#071E58"/>
<path fill-rule="evenodd" clip-rule="evenodd" d="M1172.4 51.6929C1173.05 51.4613 1173.69 51.2119 1174.34 50.9449C1183.86 47.0291 1190.15 40.7878 1188.39 37.0044C1186.64 33.2211 1177.51 33.3284 1167.99 37.2441C1160.06 40.5079 1154.37 45.3875 1153.71 49.1127C1152.91 52.8216 1157.23 59.2818 1164.39 64.6231C1172.6 70.7401 1181.42 73.0733 1184.1 69.8344C1186.77 66.5956 1182.3 59.0111 1174.09 52.8941C1173.53 52.4758 1172.97 52.0752 1172.4 51.6929Z" fill="#071E58"/>
<path fill-rule="evenodd" clip-rule="evenodd" d="M1227.36 53.4562C1227.97 53.1458 1228.58 52.8173 1229.19 52.471C1238.14 47.3941 1243.6 40.4136 1241.39 36.8798C1239.17 33.346 1230.12 34.597 1221.17 39.674C1213.72 43.9048 1208.68 49.4575 1208.49 53.2359C1208.16 57.016 1213.26 62.8852 1221.04 67.288C1229.94 72.3291 1238.98 73.5387 1241.24 69.9898C1243.49 66.4409 1238.09 59.4773 1229.19 54.4363C1228.58 54.0916 1227.97 53.7648 1227.36 53.4562Z" fill="#071E58"/>
<path fill-rule="evenodd" clip-rule="evenodd" d="M1338.3 51.0178C1338.85 50.6076 1339.4 50.1792 1339.94 49.7334C1347.88 43.1973 1352.07 35.3842 1349.28 32.2823C1346.49 29.1804 1337.79 31.9643 1329.85 38.5004C1323.22 43.9471 1319.22 50.2808 1319.68 54.0357C1320 57.8169 1326.03 62.7251 1334.44 65.7294C1344.08 69.1691 1353.2 68.8104 1354.81 64.928C1356.42 61.0457 1349.91 55.11 1340.27 51.6702C1339.61 51.435 1338.96 51.2176 1338.3 51.0178Z" fill="#071E58"/>
<path fill-rule="evenodd" clip-rule="evenodd" d="M1283.35 55.4076C1283.95 55.0814 1284.55 54.737 1285.15 54.3748C1293.97 49.0649 1299.24 41.9437 1296.94 38.4692C1294.63 34.9946 1285.62 36.4825 1276.8 41.7924C1269.46 46.2174 1264.57 51.9002 1264.48 55.6823C1264.25 59.4697 1269.5 65.2033 1277.39 69.4006C1286.42 74.2064 1295.49 75.1784 1297.65 71.5717C1299.81 67.965 1294.24 61.1453 1285.2 56.3395C1284.58 56.0109 1283.97 55.7002 1283.35 55.4076Z" fill="#071E58"/>
<path fill-rule="evenodd" clip-rule="evenodd" d="M1397.16 50.692C1397.68 50.2466 1398.2 49.7832 1398.71 49.3026C1406.21 42.2563 1409.86 34.1842 1406.88 31.273C1403.89 28.3618 1395.39 31.7139 1387.9 38.7602C1381.65 44.6332 1378.07 51.2189 1378.78 54.9349C1379.35 58.6864 1385.69 63.1847 1394.28 65.6264C1404.12 68.4226 1413.2 67.4628 1414.55 63.4827C1415.9 59.5026 1409.01 54.0094 1399.17 51.2132C1398.5 51.022 1397.83 50.8484 1397.16 50.692Z" fill="#071E58"/>
<path fill-rule="evenodd" clip-rule="evenodd" d="M1440.16 46.692C1440.68 46.2466 1441.2 45.7832 1441.71 45.3026C1449.21 38.2563 1452.86 30.1842 1449.88 27.273C1446.89 24.3618 1438.39 27.7139 1430.9 34.7602C1424.65 40.6332 1421.07 47.2189 1421.78 50.9349C1422.35 54.6864 1428.69 59.1847 1437.28 61.6264C1447.12 64.4226 1456.2 63.4628 1457.55 59.4827C1458.9 55.5026 1452.01 50.0094 1442.17 47.2132C1441.5 47.022 1440.83 46.8484 1440.16 46.692Z" fill="#071E58"/>
<path d="M-188 3C-112.594 11.3784 -38.2527 29.9628 37.6713 35.5182C107.607 40.6354 179.309 36.0072 249.406 36.0072C346.869 36.0072 443.885 42.6086 541.336 42.6086C633.723 42.6086 725.691 28.6788 818.108 29.7725C865.271 30.3306 912.373 35.1897 959.427 38.0854C994.699 40.256 1030.06 39.4375 1065.29 41.8751C1134.3 46.6492 1201.64 55.8115 1270.92 55.8115C1331.78 55.8115 1392.04 51.4649 1452.58 46.0316C1475.03 44.0163 1497.13 36.0072 1519.57 36.0072" stroke="#071E58" stroke-width="5" stroke-linecap="round"/>
</svg>
