<svg width="2471" height="74" viewBox="0 0 2471 74" fill="none" xmlns="http://www.w3.org/2000/svg">
<path fill-rule="evenodd" clip-rule="evenodd" d="M1011.09 32.8806C1011.7 32.6538 1012.3 32.4271 1012.91 32.1625C1021.86 28.4586 1027.8 22.6003 1026.13 19.0475C1024.47 15.4948 1015.89 15.5704 1006.93 19.2743C999.45 22.3357 994.083 26.9467 993.478 30.4617C992.722 33.9389 996.804 40.0239 1003.53 45.0507C1011.24 50.7956 1019.56 52.9877 1022.09 49.9641C1024.62 46.9026 1020.39 39.7593 1012.68 34.0145C1012.15 33.6365 1011.62 33.2586 1011.09 32.8806Z" fill="#071E58"/>
<path fill-rule="evenodd" clip-rule="evenodd" d="M1054.1 36.8869C1054.71 36.6602 1055.31 36.4334 1055.92 36.1688C1064.87 32.4649 1070.81 26.6066 1069.15 23.0539C1067.48 19.5011 1058.9 19.5767 1049.95 23.2807C1042.46 26.3421 1037.09 30.9531 1036.49 34.4681C1035.73 37.9452 1039.82 44.0303 1046.54 49.057C1054.25 54.8019 1062.57 56.994 1065.1 53.9704C1067.63 50.909 1063.4 43.7657 1055.69 38.0208C1055.16 37.6429 1054.63 37.2649 1054.1 36.8869Z" fill="#071E58"/>
<path fill-rule="evenodd" clip-rule="evenodd" d="M1097.11 38.8899C1097.72 38.6631 1098.32 38.4363 1098.93 38.1718C1107.88 34.4678 1113.82 28.6096 1112.15 25.0568C1110.49 21.5041 1101.91 21.5796 1092.95 25.2836C1085.51 28.345 1080.14 32.956 1079.5 36.471C1078.74 39.9481 1082.83 46.0332 1089.55 51.06C1097.26 56.8048 1105.58 58.997 1108.11 55.9733C1110.64 52.9119 1106.41 45.7686 1098.7 40.0237C1098.17 39.6458 1097.64 39.2678 1097.11 38.8899Z" fill="#071E58"/>
<path fill-rule="evenodd" clip-rule="evenodd" d="M1146.44 36.131C1147 35.8286 1147.57 35.5263 1148.17 35.1861C1156.56 30.3861 1161.7 23.7719 1159.59 20.4837C1157.51 17.1578 1148.97 18.3672 1140.58 23.1672C1133.58 27.1735 1128.86 32.4271 1128.67 35.9798C1128.37 39.5326 1133.21 45.0507 1140.54 49.1704C1148.93 53.8948 1157.47 54.9908 1159.55 51.627C1161.67 48.2633 1156.56 41.7625 1148.17 37.0381C1147.61 36.6979 1147.04 36.3956 1146.44 36.131Z" fill="#071E58"/>
<path fill-rule="evenodd" clip-rule="evenodd" d="M1196.1 37.9075C1196.7 37.6807 1197.31 37.4539 1197.91 37.1893C1206.87 33.4854 1212.8 27.6271 1211.14 24.0744C1209.48 20.5216 1200.9 20.5972 1191.94 24.3012C1184.5 27.3626 1179.13 31.9736 1178.49 35.4886C1177.73 38.9657 1181.81 45.0508 1188.54 50.0775C1196.25 55.8224 1204.56 58.0145 1207.1 54.9909C1209.63 51.9295 1205.4 44.7862 1197.69 39.0413C1197.16 38.6634 1196.63 38.2854 1196.1 37.9075Z" fill="#071E58"/>
<path fill-rule="evenodd" clip-rule="evenodd" d="M1248.48 32.6159C1248.98 32.2001 1249.47 31.7844 1249.96 31.3308C1257.14 24.8301 1260.73 17.3088 1257.97 14.5119C1255.21 11.7151 1247.16 14.7387 1239.98 21.2017C1234.01 26.6064 1230.49 32.7671 1231.1 36.2442C1231.55 39.797 1237.45 44.1434 1245.5 46.6001C1254.72 49.397 1263.26 48.6789 1264.62 44.9371C1265.95 41.2332 1259.6 35.9419 1250.37 33.1072C1249.73 32.9182 1249.13 32.7293 1248.48 32.5781V32.6159Z" fill="#071E58"/>
<path fill-rule="evenodd" clip-rule="evenodd" d="M1303.21 35.7531C1303.78 35.4129 1304.34 35.1106 1304.87 34.7326C1313.04 29.5169 1317.84 22.6759 1315.57 19.4633C1313.3 16.2507 1304.87 17.8759 1296.71 23.0917C1289.91 27.4381 1285.45 32.9185 1285.45 36.4712C1285.33 40.024 1290.4 45.3153 1297.92 49.057C1306.54 53.3657 1315.08 54.046 1317.04 50.6067C1318.97 47.1673 1313.57 40.8933 1304.95 36.5846C1304.34 36.2822 1303.78 36.0177 1303.17 35.7531H1303.21Z" fill="#071E58"/>
<path fill-rule="evenodd" clip-rule="evenodd" d="M1349.32 37.0379C1349.96 36.8111 1350.61 36.5465 1351.25 36.282C1360.77 32.3513 1367.05 26.115 1365.31 22.3355C1363.57 18.556 1354.42 18.6694 1344.9 22.5623C1336.96 25.8127 1331.29 30.6883 1330.61 34.43C1329.82 38.1339 1334.13 44.5969 1341.31 49.9261C1349.51 56.0489 1358.32 58.3922 1361 55.1418C1363.68 51.8914 1359.19 44.3324 1350.98 38.2095C1350.42 37.7938 1349.85 37.378 1349.28 37.0001L1349.32 37.0379Z" fill="#071E58"/>
<path fill-rule="evenodd" clip-rule="evenodd" d="M1465.31 41.0442C1465.96 40.8174 1466.6 40.5529 1467.24 40.2883C1476.77 36.3576 1483.04 30.1214 1481.3 26.3419C1479.56 22.5623 1470.42 22.6757 1460.89 26.5686C1452.95 29.819 1447.29 34.6946 1446.61 38.4363C1445.81 42.1403 1450.12 48.6033 1457.3 53.9324C1465.5 60.0552 1474.31 62.3985 1476.99 59.1482C1479.68 55.8978 1475.18 48.3387 1466.98 42.2159C1466.41 41.8001 1465.84 41.3844 1465.28 41.0064L1465.31 41.0442Z" fill="#071E58"/>
<path fill-rule="evenodd" clip-rule="evenodd" d="M1408.17 36.3577C1408.73 35.942 1409.26 35.5262 1409.79 35.0727C1417.77 28.5341 1421.93 20.7483 1419.17 17.6491C1416.37 14.5499 1407.68 17.3089 1399.74 23.8475C1393.13 29.29 1389.08 35.6018 1389.53 39.3814C1389.84 43.1609 1395.88 48.0743 1404.27 51.0979C1413.91 54.5373 1423.02 54.1971 1424.65 50.342C1426.27 46.4491 1419.77 40.5152 1410.13 37.0759C1409.49 36.8491 1408.81 36.6223 1408.17 36.4333V36.3577Z" fill="#071E58"/>
<path fill-rule="evenodd" clip-rule="evenodd" d="M1517.47 40.1372C1518.08 39.8349 1518.68 39.4947 1519.32 39.1546C1528.28 34.09 1533.76 27.1357 1531.57 23.5829C1529.38 20.0301 1520.31 21.2774 1511.35 26.3042C1503.87 30.4994 1498.84 36.0553 1498.61 39.8349C1498.27 43.6144 1503.34 49.5105 1511.12 53.9325C1520 58.9971 1529.04 60.2443 1531.3 56.6916C1533.57 53.1388 1528.21 46.1845 1519.29 41.1199C1518.68 40.7798 1518.08 40.4396 1517.47 40.1372Z" fill="#071E58"/>
<path fill-rule="evenodd" clip-rule="evenodd" d="M1575.04 39.2303C1575.6 38.8145 1576.13 38.3988 1576.7 37.983C1584.71 31.5578 1589.02 23.772 1586.26 20.635C1583.5 17.498 1574.77 20.1814 1566.76 26.6066C1560.07 31.9736 1555.99 38.2476 1556.4 42.0271C1556.67 45.8066 1562.64 50.7956 1571.03 53.8948C1580.63 57.4476 1589.74 57.2208 1591.4 53.3657C1593.06 49.5106 1586.64 43.5011 1577.04 39.9106C1576.4 39.6838 1575.72 39.457 1575.07 39.2303H1575.04Z" fill="#071E58"/>
<path fill-rule="evenodd" clip-rule="evenodd" d="M1630.29 41.0441C1630.93 40.8174 1631.58 40.5528 1632.22 40.2882C1641.74 36.3575 1648.02 30.0457 1646.28 26.2662C1644.54 22.4488 1635.39 22.5622 1625.87 26.5307C1617.93 29.8189 1612.22 34.7323 1611.58 38.474C1610.79 42.2158 1615.1 48.7166 1622.24 54.0835C1630.44 60.2441 1639.25 62.5874 1641.93 59.337C1644.62 56.0866 1640.16 48.452 1631.95 42.2914C1631.39 41.8756 1630.82 41.4599 1630.25 41.0819L1630.29 41.0441Z" fill="#071E58"/>
<path fill-rule="evenodd" clip-rule="evenodd" d="M1685.32 37.1891C1685.96 36.9624 1686.61 36.6978 1687.25 36.4332C1696.77 32.5025 1703.05 26.1907 1701.31 22.4112C1699.57 18.5939 1690.42 18.7073 1680.9 22.6758C1672.96 25.9639 1667.29 30.8773 1666.61 34.6191C1665.82 38.3608 1670.13 44.8616 1677.27 50.2285C1685.47 56.3891 1694.28 58.7325 1696.96 55.4821C1699.65 52.2317 1695.19 44.597 1686.98 38.4364C1686.42 38.0206 1685.85 37.6049 1685.28 37.2269L1685.32 37.1891Z" fill="#071E58"/>
<path fill-rule="evenodd" clip-rule="evenodd" d="M1746.32 34.052C1746.96 33.8253 1747.61 33.5607 1748.25 33.2961C1757.77 29.3654 1764.05 23.1292 1762.31 19.3497C1760.57 15.5701 1751.42 15.6835 1741.9 19.5764C1733.96 22.8268 1728.29 27.7024 1727.61 31.4442C1726.82 35.1481 1731.13 41.6111 1738.31 46.9402C1746.51 53.0631 1755.32 55.4064 1758 52.156C1760.68 48.9056 1756.19 41.3465 1747.98 35.2237C1747.42 34.8079 1746.85 34.3922 1746.28 34.0142L1746.32 34.052Z" fill="#071E58"/>
<path fill-rule="evenodd" clip-rule="evenodd" d="M1812.99 27.4001C1813.56 27.0222 1814.17 26.6442 1814.73 26.2663C1823.2 20.408 1828 12.9623 1825.47 9.63633C1822.93 6.31035 1814.05 8.38909 1805.59 14.2474C1798.56 19.1229 1794.02 25.1324 1794.17 28.9119C1794.17 32.6915 1799.8 38.0962 1807.93 41.7623C1817.26 45.9954 1826.37 46.3733 1828.3 42.6316C1830.23 38.8899 1824.22 32.4647 1814.88 28.2316C1814.24 27.9292 1813.6 27.6647 1812.99 27.4379V27.4001Z" fill="#071E58"/>
<path fill-rule="evenodd" clip-rule="evenodd" d="M1878.27 31.7845C1878.87 31.4443 1879.48 31.1042 1880.08 30.764C1888.92 25.5105 1894.25 18.4049 1891.95 14.9278C1889.68 11.4506 1880.65 12.8868 1871.8 18.1404C1864.43 22.5246 1859.52 28.1939 1859.41 31.9734C1859.14 35.753 1864.36 41.5356 1872.22 45.7687C1881.21 50.6443 1890.28 51.6648 1892.48 48.0742C1894.67 44.4837 1889.11 37.6427 1880.12 32.7671C1879.51 32.427 1878.87 32.1246 1878.27 31.8223V31.7845Z" fill="#071E58"/>
<path fill-rule="evenodd" clip-rule="evenodd" d="M1944.29 35.0349C1944.94 34.8082 1945.58 34.5436 1946.22 34.279C1955.75 30.3483 1962.02 24.1121 1960.28 20.3326C1958.54 16.553 1949.4 16.6664 1939.87 20.5593C1931.94 23.8097 1926.27 28.6853 1925.59 32.4271C1924.79 36.131 1929.1 42.594 1936.28 47.9231C1944.48 54.046 1953.29 56.3893 1955.97 53.1389C1958.66 49.8885 1954.16 42.3294 1945.96 36.2066C1945.39 35.7908 1944.82 35.3751 1944.26 34.9971L1944.29 35.0349Z" fill="#071E58"/>
<path fill-rule="evenodd" clip-rule="evenodd" d="M1999.29 39.0413C1999.93 38.8145 2000.57 38.5499 2001.21 38.2854C2010.74 34.3547 2017.01 28.1185 2015.27 24.3389C2013.54 20.5594 2004.39 20.6728 1994.86 24.5657C1986.93 27.8161 1981.26 32.6917 1980.58 36.4334C1979.78 40.1374 1984.09 46.6003 1991.27 51.9295C1999.48 58.0523 2008.28 60.3956 2010.97 57.1452C2013.65 53.8948 2009.15 46.3358 2000.95 40.2129C2000.38 39.7972 1999.82 39.3814 1999.25 39.0035L1999.29 39.0413Z" fill="#071E58"/>
<path fill-rule="evenodd" clip-rule="evenodd" d="M2107.19 41.7623C2107.8 41.4222 2108.36 41.082 2108.97 40.7041C2117.7 35.2616 2122.88 28.0805 2120.53 24.6411C2118.19 21.2017 2109.19 22.8269 2100.43 28.2316C2093.13 32.7671 2088.33 38.512 2088.29 42.2915C2088.1 46.071 2093.43 51.7403 2101.41 55.8222C2110.52 60.5088 2119.59 61.3403 2121.7 57.712C2123.82 54.0836 2118.15 47.3183 2109.04 42.6694C2108.4 42.3671 2107.8 42.0647 2107.19 41.7623Z" fill="#071E58"/>
<path fill-rule="evenodd" clip-rule="evenodd" d="M2052.31 41.0442C2052.96 40.8174 2053.6 40.5529 2054.24 40.2883C2063.77 36.3576 2070.04 30.1214 2068.3 26.3419C2066.56 22.5623 2057.42 22.6757 2047.89 26.5686C2039.95 29.819 2034.29 34.6946 2033.61 38.4363C2032.81 42.1403 2037.12 48.6033 2044.3 53.9324C2052.5 60.0552 2061.35 62.3985 2063.99 59.1482C2066.68 55.8978 2062.18 48.3387 2053.98 42.2159C2053.41 41.8001 2052.84 41.3844 2052.28 41.0064L2052.31 41.0442Z" fill="#071E58"/>
<path fill-rule="evenodd" clip-rule="evenodd" d="M2171.29 51.0601C2171.94 50.8333 2172.58 50.5687 2173.22 50.3042C2182.74 46.3735 2189.02 40.1372 2187.28 36.3577C2185.54 32.5782 2176.39 32.6916 2166.87 36.5845C2158.93 39.8349 2153.26 44.7105 2152.58 48.4522C2151.79 52.1561 2156.1 58.6191 2163.28 63.9483C2171.48 70.0711 2180.33 72.4144 2182.97 69.164C2185.65 65.9136 2181.16 58.3546 2172.96 52.2317C2172.39 51.816 2171.82 51.4002 2171.25 51.0223L2171.29 51.0601Z" fill="#071E58"/>
<path fill-rule="evenodd" clip-rule="evenodd" d="M2226.25 52.7986C2226.85 52.4962 2227.46 52.1561 2228.06 51.8159C2237.02 46.7513 2242.46 39.7592 2240.27 36.2065C2238.04 32.6537 2229.01 33.9388 2220.05 39.0033C2212.6 43.2364 2207.58 48.7923 2207.39 52.5718C2207.05 56.3513 2212.15 62.2096 2219.94 66.6317C2228.82 71.6584 2237.89 72.8679 2240.12 69.3151C2242.39 65.7624 2236.98 58.808 2228.06 53.7435C2227.46 53.4033 2226.85 53.0632 2226.25 52.7608V52.7986Z" fill="#071E58"/>
<path fill-rule="evenodd" clip-rule="evenodd" d="M2337.21 50.3796C2337.78 49.9639 2338.31 49.5481 2338.84 49.0946C2346.78 42.556 2350.97 34.7324 2348.18 31.6332C2345.38 28.534 2336.69 31.3308 2328.75 37.8694C2322.13 43.3119 2318.13 49.6615 2318.58 53.4033C2318.88 57.1828 2324.93 62.0962 2333.36 65.082C2343 68.5214 2352.11 68.1812 2353.73 64.2883C2355.36 60.3954 2348.82 54.4615 2339.18 51.0222C2338.54 50.7954 2337.86 50.5686 2337.21 50.3796Z" fill="#071E58"/>
<path fill-rule="evenodd" clip-rule="evenodd" d="M2282.26 54.7639C2282.86 54.4238 2283.47 54.0836 2284.07 53.7435C2292.88 48.4521 2298.17 41.3088 2295.87 37.8317C2293.56 34.3545 2284.53 35.8285 2275.72 41.1576C2268.39 45.5797 2263.48 51.249 2263.4 55.0663C2263.17 58.8458 2268.43 64.5907 2276.33 68.786C2285.36 73.586 2294.43 74.5687 2296.58 70.9403C2298.74 67.3498 2293.18 60.5088 2284.15 55.7088C2283.54 55.3687 2282.9 55.0663 2282.3 54.7639H2282.26Z" fill="#071E58"/>
<path fill-rule="evenodd" clip-rule="evenodd" d="M2396.06 50.0395C2396.59 49.586 2397.12 49.1325 2397.61 48.6411C2405.09 41.6112 2408.76 33.523 2405.77 30.6128C2402.79 27.7025 2394.28 31.0663 2386.8 38.0962C2380.56 43.9545 2376.97 50.5687 2377.69 54.2726C2378.26 58.0143 2384.61 62.512 2393.19 64.9687C2403.02 67.7655 2412.12 66.8206 2413.45 62.8144C2414.81 58.8458 2407.89 53.3277 2398.06 50.5309C2397.38 50.3419 2396.74 50.1529 2396.06 50.0018V50.0395Z" fill="#071E58"/>
<path fill-rule="evenodd" clip-rule="evenodd" d="M2439.07 46.0334C2439.6 45.5799 2440.13 45.1264 2440.62 44.635C2448.11 37.6051 2451.77 29.5169 2448.79 26.6067C2445.8 23.6964 2437.3 27.0602 2429.81 34.0901C2423.58 39.9484 2419.99 46.5626 2420.7 50.2665C2421.27 54.0082 2427.62 58.5059 2436.2 60.9626C2446.03 63.7594 2455.14 62.8145 2456.46 58.8082C2457.82 54.8397 2450.9 49.3216 2441.08 46.5248C2440.4 46.3358 2439.75 46.1468 2439.07 45.9956V46.0334Z" fill="#071E58"/>
<path d="M970.311 29.3655C990.833 29.5167 1054.78 37.3781 1098.51 36.9246C1114.16 36.7734 1130.34 36.4333 1146.44 36.1309C1183.66 35.4506 1220.44 36.4711 1248.33 35.375C1345.81 35.375 1442.83 41.9892 1540.26 41.9892C1632.63 41.9892 1724.63 28.0427 1817.04 29.1388C1864.21 29.7057 1911.3 34.5435 1958.35 37.4537C1993.62 39.6081 2028.99 38.8144 2064.22 41.2333C2133.23 45.9955 2200.58 55.1797 2269.86 55.1797C2330.71 55.1797 2407.99 48.9425 2468.5 43.5" stroke="#071E58" stroke-width="4.99994" stroke-linecap="round"/>
<path fill-rule="evenodd" clip-rule="evenodd" d="M1011.09 32.8806C1011.7 32.6538 1012.3 32.4271 1012.91 32.1625C1021.86 28.4586 1027.8 22.6003 1026.13 19.0475C1024.47 15.4948 1015.89 15.5704 1006.93 19.2743C999.45 22.3357 994.083 26.9467 993.478 30.4617C992.722 33.9389 996.804 40.0239 1003.53 45.0507C1011.24 50.7956 1019.56 52.9877 1022.09 49.9641C1024.62 46.9026 1020.39 39.7593 1012.68 34.0145C1012.15 33.6365 1011.62 33.2586 1011.09 32.8806Z" fill="#071E58"/>
<path fill-rule="evenodd" clip-rule="evenodd" d="M1054.1 36.8869C1054.71 36.6602 1055.31 36.4334 1055.92 36.1688C1064.87 32.4649 1070.81 26.6066 1069.15 23.0539C1067.48 19.5011 1058.9 19.5767 1049.95 23.2807C1042.46 26.3421 1037.09 30.9531 1036.49 34.4681C1035.73 37.9452 1039.82 44.0303 1046.54 49.057C1054.25 54.8019 1062.57 56.994 1065.1 53.9704C1067.63 50.909 1063.4 43.7657 1055.69 38.0208C1055.16 37.6429 1054.63 37.2649 1054.1 36.8869Z" fill="#071E58"/>
<path fill-rule="evenodd" clip-rule="evenodd" d="M1097.11 38.8899C1097.72 38.6631 1098.32 38.4363 1098.93 38.1718C1107.88 34.4678 1113.82 28.6096 1112.15 25.0568C1110.49 21.5041 1101.91 21.5796 1092.95 25.2836C1085.51 28.345 1080.14 32.956 1079.5 36.471C1078.74 39.9481 1082.83 46.0332 1089.55 51.06C1097.26 56.8048 1105.58 58.997 1108.11 55.9733C1110.64 52.9119 1106.41 45.7686 1098.7 40.0237C1098.17 39.6458 1097.64 39.2678 1097.11 38.8899Z" fill="#071E58"/>
<path fill-rule="evenodd" clip-rule="evenodd" d="M1146.44 36.131C1147 35.8286 1147.57 35.5263 1148.17 35.1861C1156.56 30.3861 1161.7 23.7719 1159.59 20.4837C1157.51 17.1578 1148.97 18.3672 1140.58 23.1672C1133.58 27.1735 1128.86 32.4271 1128.67 35.9798C1128.37 39.5326 1133.21 45.0507 1140.54 49.1704C1148.93 53.8948 1157.47 54.9908 1159.55 51.627C1161.67 48.2633 1156.56 41.7625 1148.17 37.0381C1147.61 36.6979 1147.04 36.3956 1146.44 36.131Z" fill="#071E58"/>
<path fill-rule="evenodd" clip-rule="evenodd" d="M1196.1 37.9075C1196.7 37.6807 1197.31 37.4539 1197.91 37.1893C1206.87 33.4854 1212.8 27.6271 1211.14 24.0744C1209.48 20.5216 1200.9 20.5972 1191.94 24.3012C1184.5 27.3626 1179.13 31.9736 1178.49 35.4886C1177.73 38.9657 1181.81 45.0508 1188.54 50.0775C1196.25 55.8224 1204.56 58.0145 1207.1 54.9909C1209.63 51.9295 1205.4 44.7862 1197.69 39.0413C1197.16 38.6634 1196.63 38.2854 1196.1 37.9075Z" fill="#071E58"/>
<path fill-rule="evenodd" clip-rule="evenodd" d="M1248.48 32.6159C1248.98 32.2001 1249.47 31.7844 1249.96 31.3308C1257.14 24.8301 1260.73 17.3088 1257.97 14.5119C1255.21 11.7151 1247.16 14.7387 1239.98 21.2017C1234.01 26.6064 1230.49 32.7671 1231.1 36.2442C1231.55 39.797 1237.45 44.1434 1245.5 46.6001C1254.72 49.397 1263.26 48.6789 1264.62 44.9371C1265.95 41.2332 1259.6 35.9419 1250.37 33.1072C1249.73 32.9182 1249.13 32.7293 1248.48 32.5781V32.6159Z" fill="#071E58"/>
<path fill-rule="evenodd" clip-rule="evenodd" d="M1303.21 35.7531C1303.78 35.4129 1304.34 35.1106 1304.87 34.7326C1313.04 29.5169 1317.84 22.6759 1315.57 19.4633C1313.3 16.2507 1304.87 17.8759 1296.71 23.0917C1289.91 27.4381 1285.45 32.9185 1285.45 36.4712C1285.33 40.024 1290.4 45.3153 1297.92 49.057C1306.54 53.3657 1315.08 54.046 1317.04 50.6067C1318.97 47.1673 1313.57 40.8933 1304.95 36.5846C1304.34 36.2822 1303.78 36.0177 1303.17 35.7531H1303.21Z" fill="#071E58"/>
<path fill-rule="evenodd" clip-rule="evenodd" d="M1349.32 37.0379C1349.96 36.8111 1350.61 36.5465 1351.25 36.282C1360.77 32.3513 1367.05 26.115 1365.31 22.3355C1363.57 18.556 1354.42 18.6694 1344.9 22.5623C1336.96 25.8127 1331.29 30.6883 1330.61 34.43C1329.82 38.1339 1334.13 44.5969 1341.31 49.9261C1349.51 56.0489 1358.32 58.3922 1361 55.1418C1363.68 51.8914 1359.19 44.3324 1350.98 38.2095C1350.42 37.7938 1349.85 37.378 1349.28 37.0001L1349.32 37.0379Z" fill="#071E58"/>
<path fill-rule="evenodd" clip-rule="evenodd" d="M1465.31 41.0442C1465.96 40.8174 1466.6 40.5529 1467.24 40.2883C1476.77 36.3576 1483.04 30.1214 1481.3 26.3419C1479.56 22.5623 1470.42 22.6757 1460.89 26.5686C1452.95 29.819 1447.29 34.6946 1446.61 38.4363C1445.81 42.1403 1450.12 48.6033 1457.3 53.9324C1465.5 60.0552 1474.31 62.3985 1476.99 59.1482C1479.68 55.8978 1475.18 48.3387 1466.98 42.2159C1466.41 41.8001 1465.84 41.3844 1465.28 41.0064L1465.31 41.0442Z" fill="#071E58"/>
<path fill-rule="evenodd" clip-rule="evenodd" d="M1408.17 36.3577C1408.73 35.942 1409.26 35.5262 1409.79 35.0727C1417.77 28.5341 1421.93 20.7483 1419.17 17.6491C1416.37 14.5499 1407.68 17.3089 1399.74 23.8475C1393.13 29.29 1389.08 35.6018 1389.53 39.3814C1389.84 43.1609 1395.88 48.0743 1404.27 51.0979C1413.91 54.5373 1423.02 54.1971 1424.65 50.342C1426.27 46.4491 1419.77 40.5152 1410.13 37.0759C1409.49 36.8491 1408.81 36.6223 1408.17 36.4333V36.3577Z" fill="#071E58"/>
<path fill-rule="evenodd" clip-rule="evenodd" d="M1517.47 40.1372C1518.08 39.8349 1518.68 39.4947 1519.32 39.1546C1528.28 34.09 1533.76 27.1357 1531.57 23.5829C1529.38 20.0301 1520.31 21.2774 1511.35 26.3042C1503.87 30.4994 1498.84 36.0553 1498.61 39.8349C1498.27 43.6144 1503.34 49.5105 1511.12 53.9325C1520 58.9971 1529.04 60.2443 1531.3 56.6916C1533.57 53.1388 1528.21 46.1845 1519.29 41.1199C1518.68 40.7798 1518.08 40.4396 1517.47 40.1372Z" fill="#071E58"/>
<path fill-rule="evenodd" clip-rule="evenodd" d="M1575.04 39.2303C1575.6 38.8145 1576.13 38.3988 1576.7 37.983C1584.71 31.5578 1589.02 23.772 1586.26 20.635C1583.5 17.498 1574.77 20.1814 1566.76 26.6066C1560.07 31.9736 1555.99 38.2476 1556.4 42.0271C1556.67 45.8066 1562.64 50.7956 1571.03 53.8948C1580.63 57.4476 1589.74 57.2208 1591.4 53.3657C1593.06 49.5106 1586.64 43.5011 1577.04 39.9106C1576.4 39.6838 1575.72 39.457 1575.07 39.2303H1575.04Z" fill="#071E58"/>
<path fill-rule="evenodd" clip-rule="evenodd" d="M1630.29 41.0441C1630.93 40.8174 1631.58 40.5528 1632.22 40.2882C1641.74 36.3575 1648.02 30.0457 1646.28 26.2662C1644.54 22.4488 1635.39 22.5622 1625.87 26.5307C1617.93 29.8189 1612.22 34.7323 1611.58 38.474C1610.79 42.2158 1615.1 48.7166 1622.24 54.0835C1630.44 60.2441 1639.25 62.5874 1641.93 59.337C1644.62 56.0866 1640.16 48.452 1631.95 42.2914C1631.39 41.8756 1630.82 41.4599 1630.25 41.0819L1630.29 41.0441Z" fill="#071E58"/>
<path fill-rule="evenodd" clip-rule="evenodd" d="M1685.32 37.1891C1685.96 36.9624 1686.61 36.6978 1687.25 36.4332C1696.77 32.5025 1703.05 26.1907 1701.31 22.4112C1699.57 18.5939 1690.42 18.7073 1680.9 22.6758C1672.96 25.9639 1667.29 30.8773 1666.61 34.6191C1665.82 38.3608 1670.13 44.8616 1677.27 50.2285C1685.47 56.3891 1694.28 58.7325 1696.96 55.4821C1699.65 52.2317 1695.19 44.597 1686.98 38.4364C1686.42 38.0206 1685.85 37.6049 1685.28 37.2269L1685.32 37.1891Z" fill="#071E58"/>
<path fill-rule="evenodd" clip-rule="evenodd" d="M1746.32 34.052C1746.96 33.8253 1747.61 33.5607 1748.25 33.2961C1757.77 29.3654 1764.05 23.1292 1762.31 19.3497C1760.57 15.5701 1751.42 15.6835 1741.9 19.5764C1733.96 22.8268 1728.29 27.7024 1727.61 31.4442C1726.82 35.1481 1731.13 41.6111 1738.31 46.9402C1746.51 53.0631 1755.32 55.4064 1758 52.156C1760.68 48.9056 1756.19 41.3465 1747.98 35.2237C1747.42 34.8079 1746.85 34.3922 1746.28 34.0142L1746.32 34.052Z" fill="#071E58"/>
<path fill-rule="evenodd" clip-rule="evenodd" d="M1812.99 27.4001C1813.56 27.0222 1814.17 26.6442 1814.73 26.2663C1823.2 20.408 1828 12.9623 1825.47 9.63633C1822.93 6.31035 1814.05 8.38909 1805.59 14.2474C1798.56 19.1229 1794.02 25.1324 1794.17 28.9119C1794.17 32.6915 1799.8 38.0962 1807.93 41.7623C1817.26 45.9954 1826.37 46.3733 1828.3 42.6316C1830.23 38.8899 1824.22 32.4647 1814.88 28.2316C1814.24 27.9292 1813.6 27.6647 1812.99 27.4379V27.4001Z" fill="#071E58"/>
<path fill-rule="evenodd" clip-rule="evenodd" d="M1878.27 31.7845C1878.87 31.4443 1879.48 31.1042 1880.08 30.764C1888.92 25.5105 1894.25 18.4049 1891.95 14.9278C1889.68 11.4506 1880.65 12.8868 1871.8 18.1404C1864.43 22.5246 1859.52 28.1939 1859.41 31.9734C1859.14 35.753 1864.36 41.5356 1872.22 45.7687C1881.21 50.6443 1890.28 51.6648 1892.48 48.0742C1894.67 44.4837 1889.11 37.6427 1880.12 32.7671C1879.51 32.427 1878.87 32.1246 1878.27 31.8223V31.7845Z" fill="#071E58"/>
<path fill-rule="evenodd" clip-rule="evenodd" d="M1944.29 35.0349C1944.94 34.8082 1945.58 34.5436 1946.22 34.279C1955.75 30.3483 1962.02 24.1121 1960.28 20.3326C1958.54 16.553 1949.4 16.6664 1939.87 20.5593C1931.94 23.8097 1926.27 28.6853 1925.59 32.4271C1924.79 36.131 1929.1 42.594 1936.28 47.9231C1944.48 54.046 1953.29 56.3893 1955.97 53.1389C1958.66 49.8885 1954.16 42.3294 1945.96 36.2066C1945.39 35.7908 1944.82 35.3751 1944.26 34.9971L1944.29 35.0349Z" fill="#071E58"/>
<path d="M3 23.5C65.9669 22.8575 66.8142 29.29 110.506 28.8365C126.153 28.6853 142.329 28.3451 158.43 28.0428C195.658 27.3624 232.433 28.3829 260.326 27.2869C357.8 27.2869 454.82 33.901 552.257 33.901C644.628 33.901 736.622 19.9546 829.031 21.0506C876.2 21.6176 923.293 26.4554 970.348 29.3656" stroke="#071E58" stroke-width="4.99994" stroke-linecap="round"/>
<path fill-rule="evenodd" clip-rule="evenodd" d="M23.1222 24.8303C23.7269 24.6035 24.3316 24.3768 24.9364 24.1122C33.8938 20.4083 39.8277 14.55 38.1647 10.9972C36.5017 7.44448 27.9222 7.52007 18.9647 11.224C11.4812 14.2854 6.1143 18.8965 5.50958 22.4114C4.75367 25.8886 8.83556 31.9736 15.5631 37.0004C23.2734 42.7453 31.5883 44.9374 34.1206 41.9138C36.6529 38.8524 32.4198 31.709 24.7096 25.9642C24.1804 25.5862 23.6513 25.2083 23.1222 24.8303Z" fill="#071E58"/>
<path fill-rule="evenodd" clip-rule="evenodd" d="M66.0968 28.8364C66.7015 28.6096 67.3062 28.3829 67.911 28.1183C76.8684 24.4144 82.8023 18.5561 81.1393 15.0033C79.4763 11.4506 70.8968 11.5262 61.9393 15.2301C54.4558 18.2915 49.0889 22.9026 48.4842 26.4175C47.7283 29.8947 51.8102 35.9797 58.5377 41.0065C66.248 46.7514 74.5629 48.9435 77.0952 45.9199C79.6275 42.8585 75.3944 35.7152 67.6842 29.9703C67.1551 29.5923 66.6259 29.2144 66.0968 28.8364Z" fill="#071E58"/>
<path fill-rule="evenodd" clip-rule="evenodd" d="M109.107 30.8396C109.711 30.6128 110.316 30.386 110.921 30.1215C119.878 26.4175 125.812 20.5593 124.149 17.0065C122.486 13.4538 113.907 13.5294 104.949 17.2333C97.5034 20.2947 92.1365 24.9057 91.494 28.4207C90.738 31.8979 94.8199 37.9829 101.547 43.0097C109.258 48.7545 117.573 50.9467 120.105 47.923C122.637 44.8616 118.404 37.7183 110.694 31.9734C110.165 31.5955 109.636 31.2175 109.107 30.8396Z" fill="#071E58"/>
<path fill-rule="evenodd" clip-rule="evenodd" d="M158.43 28.0807C158.996 27.7783 159.563 27.476 160.168 27.1358C168.559 22.3358 173.699 15.7216 171.582 12.4335C169.504 9.10747 160.962 10.3169 152.571 15.1169C145.579 19.1232 140.855 24.3768 140.666 27.9295C140.363 31.4823 145.201 37.0004 152.533 41.1201C160.924 45.8445 169.466 46.9405 171.544 43.5768C173.661 40.213 168.559 33.7122 160.168 28.9878C159.601 28.6476 159.034 28.3453 158.43 28.0807Z" fill="#071E58"/>
<path fill-rule="evenodd" clip-rule="evenodd" d="M208.093 29.8191C208.698 29.5923 209.302 29.3655 209.907 29.101C218.865 25.397 224.798 19.5388 223.135 15.986C221.472 12.4333 212.893 12.5088 203.935 16.2128C196.49 19.2742 191.123 23.8852 190.48 27.4002C189.724 30.8773 193.806 36.9624 200.534 41.9892C208.244 47.734 216.559 49.9262 219.091 46.9025C221.624 43.8411 217.391 36.6978 209.68 30.9529C209.151 30.575 208.622 30.197 208.093 29.8191Z" fill="#071E58"/>
<path fill-rule="evenodd" clip-rule="evenodd" d="M260.477 24.528C260.968 24.1122 261.459 23.6965 261.951 23.243C269.132 16.7422 272.722 9.22091 269.963 6.42406C267.204 3.6272 259.154 6.65083 251.973 13.1138C246.001 18.5185 242.486 24.6792 243.091 28.1563C243.544 31.7091 249.44 36.0556 257.491 38.5122C266.713 41.3091 275.254 40.591 276.615 36.8493C277.938 33.1453 271.588 27.854 262.366 25.0193C261.724 24.8304 261.119 24.6414 260.477 24.4902V24.528Z" fill="#071E58"/>
<path fill-rule="evenodd" clip-rule="evenodd" d="M315.205 27.7028C315.772 27.3627 316.339 27.0603 316.868 26.6823C325.032 21.4666 329.832 14.6256 327.564 11.413C325.296 8.20045 316.868 9.82565 308.704 15.0414C301.901 19.3879 297.441 24.8682 297.441 28.4209C297.328 31.9737 302.393 37.265 309.914 41.0068C318.531 45.3154 327.073 45.9957 329.038 42.5564C330.966 39.117 325.561 32.843 316.944 28.5343C316.339 28.2319 315.772 27.9674 315.167 27.7028H315.205Z" fill="#071E58"/>
<path fill-rule="evenodd" clip-rule="evenodd" d="M361.314 28.9876C361.957 28.7608 362.599 28.4962 363.242 28.2317C372.766 24.301 379.04 18.0647 377.301 14.2852C375.563 10.5057 366.416 10.6191 356.892 14.512C348.955 17.7624 343.286 22.638 342.605 26.3797C341.812 30.0836 346.12 36.5466 353.301 41.8758C361.503 47.9986 370.309 50.3419 372.993 47.0915C375.676 43.8411 371.179 36.2821 362.977 30.1592C362.41 29.7435 361.843 29.3277 361.276 28.9498L361.314 28.9876Z" fill="#071E58"/>
<path fill-rule="evenodd" clip-rule="evenodd" d="M477.308 32.9939C477.951 32.7672 478.593 32.5026 479.236 32.238C488.76 28.3073 495.034 22.0711 493.296 18.2916C491.557 14.512 482.411 14.6254 472.886 18.5183C464.949 21.7687 459.28 26.6443 458.6 30.386C457.806 34.09 462.114 40.553 469.296 45.8821C477.497 52.0049 486.303 54.3483 488.987 51.0979C491.67 47.8475 487.173 40.2884 478.971 34.1656C478.404 33.7498 477.837 33.3341 477.27 32.9561L477.308 32.9939Z" fill="#071E58"/>
<path fill-rule="evenodd" clip-rule="evenodd" d="M420.201 28.3075C420.768 27.8917 421.297 27.476 421.826 27.0224C429.801 20.4838 433.958 12.698 431.199 9.59879C428.402 6.49958 419.709 9.25863 411.772 15.7972C405.158 21.2397 401.114 27.5515 401.568 31.3311C401.87 35.1106 407.917 40.024 416.308 43.0476C425.946 46.487 435.054 46.1468 436.68 42.2917C438.305 38.3988 431.804 32.4649 422.166 29.0256C421.524 28.7988 420.843 28.572 420.201 28.383V28.3075Z" fill="#071E58"/>
<path fill-rule="evenodd" clip-rule="evenodd" d="M529.466 32.0869C530.071 31.7846 530.675 31.4444 531.318 31.1043C540.275 26.0397 545.756 19.0854 543.563 15.5326C541.371 11.9799 532.3 13.2271 523.343 18.2539C515.86 22.4491 510.833 28.0051 510.606 31.7846C510.266 35.5641 515.33 41.4602 523.116 45.8822C531.998 50.9468 541.031 52.194 543.299 48.6413C545.567 45.0885 540.2 38.1342 531.28 33.0696C530.675 32.7295 530.071 32.3893 529.466 32.0869Z" fill="#071E58"/>
<path fill-rule="evenodd" clip-rule="evenodd" d="M587.029 31.1797C587.596 30.764 588.125 30.3482 588.692 29.9325C596.705 23.5073 601.014 15.7214 598.254 12.5844C595.495 9.44743 586.765 12.1309 578.752 18.5561C572.062 23.923 567.98 30.197 568.396 33.9766C568.661 37.7561 574.632 42.7451 583.023 45.8443C592.623 49.397 601.732 49.1703 603.395 45.3151C605.058 41.46 598.632 35.4506 589.032 31.86C588.39 31.6333 587.71 31.4065 587.067 31.1797H587.029Z" fill="#071E58"/>
<path fill-rule="evenodd" clip-rule="evenodd" d="M642.322 32.9938C642.964 32.7671 643.607 32.5025 644.249 32.2379C653.774 28.3072 660.048 21.9954 658.309 18.2159C656.571 14.3986 647.424 14.5119 637.9 18.4804C629.963 21.7686 624.256 26.682 623.613 30.4238C622.82 34.1655 627.128 40.6663 634.271 46.0332C642.473 52.1938 651.279 54.5371 653.963 51.2867C656.646 48.0364 652.186 40.4017 643.985 34.2411C643.418 33.8253 642.851 33.4096 642.284 33.0316L642.322 32.9938Z" fill="#071E58"/>
<path fill-rule="evenodd" clip-rule="evenodd" d="M697.314 29.101C697.957 28.8742 698.599 28.6097 699.242 28.3451C708.766 24.4144 715.04 18.1026 713.301 14.3231C711.563 10.5057 702.416 10.6191 692.892 14.5876C684.955 17.8758 679.286 22.7892 678.605 26.5309C677.812 30.2727 682.12 36.7735 689.264 42.1404C697.465 48.301 706.272 50.6443 708.955 47.3939C711.638 44.1435 707.179 36.5089 698.977 30.3483C698.41 29.9325 697.843 29.5168 697.276 29.1388L697.314 29.101Z" fill="#071E58"/>
<path fill-rule="evenodd" clip-rule="evenodd" d="M758.316 25.9641C758.959 25.7374 759.601 25.4728 760.244 25.2082C769.768 21.2775 776.042 15.0413 774.303 11.2618C772.565 7.48225 763.418 7.59563 753.894 11.4885C745.957 14.7389 740.288 19.6145 739.607 23.3563C738.814 27.0602 743.122 33.5232 750.303 38.8523C758.505 44.9752 767.311 47.3185 769.995 44.0681C772.678 40.8177 768.181 33.2586 759.979 27.1358C759.412 26.72 758.845 26.3043 758.278 25.9263L758.316 25.9641Z" fill="#071E58"/>
<path fill-rule="evenodd" clip-rule="evenodd" d="M825.025 19.3498C825.592 18.9719 826.197 18.5939 826.764 18.216C835.23 12.3577 840.03 4.91202 837.497 1.58604C834.965 -1.73995 826.083 0.338795 817.617 6.19706C810.587 11.0727 806.052 17.0821 806.203 20.8616C806.203 24.6412 811.834 30.0459 819.96 33.712C829.296 37.9451 838.404 38.323 840.332 34.5813C842.26 30.8396 836.25 24.4144 826.915 20.1813C826.272 19.879 825.63 19.6144 825.025 19.3876V19.3498Z" fill="#071E58"/>
<path fill-rule="evenodd" clip-rule="evenodd" d="M890.26 23.6963C890.865 23.3562 891.47 23.016 892.074 22.6759C900.918 17.4223 906.247 10.3168 903.942 6.83964C901.674 3.36247 892.641 4.7987 883.797 10.0522C876.427 14.4365 871.514 20.1058 871.4 23.8853C871.136 27.6648 876.351 33.4475 884.213 37.6806C893.208 42.5562 902.279 43.5766 904.471 39.9861C906.663 36.3955 901.107 29.5546 892.112 24.679C891.507 24.3389 890.865 24.0365 890.26 23.7341V23.6963Z" fill="#071E58"/>
<path fill-rule="evenodd" clip-rule="evenodd" d="M956.289 26.9844C956.931 26.7576 957.574 26.4931 958.216 26.2285C967.741 22.2978 974.015 16.0616 972.276 12.282C970.537 8.50251 961.391 8.6159 951.867 12.5088C943.93 15.7592 938.26 20.6348 937.58 24.3765C936.786 28.0805 941.095 34.5435 948.276 39.8726C956.478 45.9954 965.284 48.3387 967.967 45.0883C970.651 41.8379 966.153 34.2789 957.952 28.1561C957.385 27.7403 956.818 27.3246 956.251 26.9466L956.289 26.9844Z" fill="#071E58"/>
</svg>
