<svg width="1283" height="20" viewBox="0 0 1283 20" fill="none" xmlns="http://www.w3.org/2000/svg">
<path fill-rule="evenodd" clip-rule="evenodd" d="M673.298 9.0212C673.105 8.68325 672.898 8.34365 672.678 8.00364C669.508 3.10545 664.8 -0.0224792 662.162 1.01723C659.524 2.05693 659.955 6.87056 663.124 11.7688C665.622 15.6284 669.075 18.3888 671.717 18.8773C674.31 19.5586 679.052 17.0306 682.779 12.8629C686.809 8.3564 688.127 3.63945 685.723 2.32726C683.319 1.01507 678.104 3.60455 674.074 8.11102C673.803 8.41383 673.544 8.71759 673.298 9.0212Z" fill="white"/>
<path fill-rule="evenodd" clip-rule="evenodd" d="M641.162 9.45345C640.968 9.1155 640.761 8.7759 640.541 8.4359C637.372 3.5377 632.664 0.409772 630.025 1.44948C627.387 2.48919 627.818 7.30281 630.988 12.201C633.485 16.0606 636.938 18.8211 639.581 19.3095C642.174 19.9909 646.915 17.4628 650.642 13.2951C654.672 8.78866 655.99 4.0717 653.586 2.75951C651.183 1.44732 645.967 4.0368 641.937 8.54327C641.666 8.84608 641.408 9.14984 641.162 9.45345Z" fill="white"/>
<path fill-rule="evenodd" clip-rule="evenodd" d="M609.345 8.76864C609.152 8.43068 608.945 8.09109 608.725 7.75108C605.555 2.85288 600.847 -0.275043 598.209 0.764664C595.571 1.80437 596.002 6.61799 599.171 11.5162C601.669 15.3758 605.122 18.1363 607.764 18.6247C610.357 19.3061 615.098 16.778 618.825 12.6103C622.856 8.10384 624.174 3.38689 621.77 2.0747C619.366 0.762508 614.151 3.35198 610.121 7.85846C609.85 8.16126 609.591 8.46503 609.345 8.76864Z" fill="white"/>
<rect y="12" width="1283" height="2" fill="white"/>
</svg>
