<svg width="1283" height="21" viewBox="0 0 1283 21" fill="none" xmlns="http://www.w3.org/2000/svg">
<path fill-rule="evenodd" clip-rule="evenodd" d="M673.298 9.02133C673.105 8.68337 672.898 8.34377 672.678 8.00377C669.508 3.10557 664.8 -0.0223571 662.162 1.01735C659.524 2.05706 659.955 6.87068 663.124 11.7689C665.622 15.6285 669.075 18.3889 671.717 18.8774C674.31 19.5588 679.052 17.0307 682.779 12.863C686.809 8.35653 688.127 3.63957 685.723 2.32738C683.319 1.01519 678.104 3.60467 674.074 8.11114C673.803 8.41395 673.544 8.71771 673.298 9.02133Z" fill="white"/>
<path fill-rule="evenodd" clip-rule="evenodd" d="M641.162 9.45345C640.968 9.1155 640.761 8.7759 640.541 8.4359C637.372 3.5377 632.664 0.409772 630.025 1.44948C627.387 2.48919 627.818 7.30281 630.988 12.201C633.485 16.0606 636.938 18.8211 639.581 19.3095C642.174 19.9909 646.915 17.4628 650.642 13.2951C654.672 8.78866 655.99 4.0717 653.586 2.75951C651.183 1.44732 645.967 4.0368 641.937 8.54327C641.666 8.84608 641.408 9.14984 641.162 9.45345Z" fill="white"/>
<path fill-rule="evenodd" clip-rule="evenodd" d="M609.345 8.7684C609.152 8.43044 608.945 8.09084 608.725 7.75084C605.555 2.85264 600.847 -0.275287 598.209 0.76442C595.571 1.80413 596.002 6.61775 599.171 11.5159C601.669 15.3756 605.122 18.136 607.764 18.6245C610.357 19.3058 615.098 16.7777 618.825 12.6101C622.856 8.1036 624.174 3.38664 621.77 2.07445C619.366 0.762264 614.151 3.35174 610.121 7.85821C609.85 8.16102 609.591 8.46478 609.345 8.7684Z" fill="white"/>
<line x1="-0.000434405" y1="11.5" x2="1283" y2="10.3853" stroke="white"/>
</svg>
