<svg width="378" height="373" viewBox="0 0 378 373" fill="none" xmlns="http://www.w3.org/2000/svg">
<g filter="url(#filter0_i_4_84)">
<ellipse cx="188.576" cy="186.83" rx="174.607" ry="174.607" fill="#061E4C"/>
</g>
<path d="M360.683 186.83C360.683 281.882 283.628 358.937 188.576 358.937C93.5236 358.937 16.4686 281.882 16.4686 186.83C16.4686 91.7777 93.5236 14.7226 188.576 14.7226C283.628 14.7226 360.683 91.7777 360.683 186.83Z" stroke="white" stroke-width="5"/>
<mask id="path-3-inside-1_4_84" fill="white">
<path fill-rule="evenodd" clip-rule="evenodd" d="M17.863 149.43C20.3868 152.285 28.0121 149.666 34.8946 143.582C41.777 137.497 45.3104 130.25 42.7865 127.395C40.2627 124.541 32.6374 127.159 25.755 133.244C24.77 134.115 23.8536 135.009 23.0137 135.912C22.906 135.348 22.7847 134.777 22.6496 134.202C20.7333 126.042 16.7656 119.994 13.7874 120.694C10.8093 121.393 9.94852 128.575 11.8648 136.735C13.1182 142.072 15.2492 146.506 17.4069 148.739C17.5275 148.991 17.6792 149.222 17.863 149.43Z"/>
</mask>
<path fill-rule="evenodd" clip-rule="evenodd" d="M17.863 149.43C20.3868 152.285 28.0121 149.666 34.8946 143.582C41.777 137.497 45.3104 130.25 42.7865 127.395C40.2627 124.541 32.6374 127.159 25.755 133.244C24.77 134.115 23.8536 135.009 23.0137 135.912C22.906 135.348 22.7847 134.777 22.6496 134.202C20.7333 126.042 16.7656 119.994 13.7874 120.694C10.8093 121.393 9.94852 128.575 11.8648 136.735C13.1182 142.072 15.2492 146.506 17.4069 148.739C17.5275 148.991 17.6792 149.222 17.863 149.43Z" fill="white"/>
<path d="M17.863 149.43L18.6122 148.768L18.6122 148.768L17.863 149.43ZM42.7865 127.395L43.5357 126.733L43.5357 126.733L42.7865 127.395ZM25.755 133.244L26.4173 133.993L26.4173 133.993L25.755 133.244ZM23.0137 135.912L22.0315 136.099L22.4017 138.037L23.7456 136.593L23.0137 135.912ZM22.6496 134.202L23.6231 133.973L23.6231 133.973L22.6496 134.202ZM13.7874 120.694L13.5588 119.72L13.5588 119.72L13.7874 120.694ZM11.8648 136.735L12.8383 136.506L12.8383 136.506L11.8648 136.735ZM17.4069 148.739L18.3092 148.308L18.239 148.161L18.126 148.044L17.4069 148.739ZM34.2322 142.832C30.8648 145.81 27.3495 147.906 24.4195 148.912C22.9522 149.416 21.6805 149.63 20.6727 149.578C19.6697 149.526 19.0113 149.219 18.6122 148.768L17.1138 150.093C17.9766 151.069 19.2179 151.505 20.5695 151.575C21.9163 151.645 23.4543 151.359 25.0691 150.804C28.3033 149.693 32.0419 147.438 35.5569 144.331L34.2322 142.832ZM42.0373 128.058C42.4365 128.509 42.66 129.2 42.5885 130.202C42.5167 131.208 42.149 132.444 41.4691 133.839C40.1114 136.623 37.5996 139.855 34.2322 142.832L35.5569 144.331C39.072 141.223 41.7681 137.789 43.2668 134.715C44.015 133.181 44.4875 131.689 44.5835 130.344C44.6798 128.994 44.3985 127.709 43.5357 126.733L42.0373 128.058ZM26.4173 133.993C29.7847 131.016 33.3 128.919 36.23 127.913C37.6973 127.409 38.969 127.196 39.9768 127.248C40.9799 127.3 41.6382 127.606 42.0373 128.058L43.5357 126.733C42.6729 125.757 41.4317 125.32 40.0801 125.25C38.7332 125.181 37.1953 125.467 35.5804 126.021C32.3462 127.132 28.6076 129.387 25.0926 132.495L26.4173 133.993ZM23.7456 136.593C24.5631 135.715 25.4562 134.843 26.4173 133.993L25.0926 132.495C24.0837 133.387 23.1441 134.304 22.2818 135.23L23.7456 136.593ZM21.6761 134.431C21.808 134.993 21.9264 135.549 22.0315 136.099L23.9959 135.724C23.8856 135.146 23.7614 134.562 23.6231 133.973L21.6761 134.431ZM14.0161 121.667C14.3716 121.584 14.8806 121.669 15.5714 122.171C16.2589 122.67 17.016 123.509 17.7806 124.674C19.305 126.998 20.7375 130.434 21.6761 134.431L23.6231 133.973C22.6454 129.81 21.1359 126.143 19.4528 123.577C18.6137 122.298 17.7006 121.246 16.7468 120.553C15.7961 119.862 14.6924 119.454 13.5588 119.72L14.0161 121.667ZM12.8383 136.506C11.8997 132.51 11.6529 128.795 11.9836 126.036C12.1495 124.652 12.4542 123.564 12.8476 122.811C13.2428 122.054 13.6606 121.751 14.0161 121.667L13.5588 119.72C12.4253 119.986 11.6187 120.843 11.0747 121.885C10.529 122.93 10.1799 124.279 9.99782 125.797C9.63268 128.844 9.91357 132.8 10.8913 136.963L12.8383 136.506ZM18.126 148.044C16.147 145.996 14.0726 141.762 12.8383 136.506L10.8913 136.963C12.1638 142.382 14.3514 147.016 16.6878 149.434L18.126 148.044ZM18.6122 148.768C18.492 148.632 18.3911 148.479 18.3092 148.308L16.5046 149.17C16.6639 149.503 16.8664 149.813 17.1138 150.093L18.6122 148.768Z" fill="white" mask="url(#path-3-inside-1_4_84)"/>
<mask id="path-5-inside-2_4_84" fill="white">
<path fill-rule="evenodd" clip-rule="evenodd" d="M198.32 359.614C200.365 356.399 195.739 349.796 187.987 344.865C180.236 339.935 172.294 338.545 170.249 341.76C168.204 344.975 172.83 351.578 180.582 356.509C181.691 357.214 182.804 357.847 183.904 358.405C183.392 358.664 182.877 358.939 182.362 359.228C175.051 363.327 170.337 368.813 171.833 371.481C173.329 374.15 180.468 372.99 187.78 368.891C192.562 366.209 196.233 362.935 197.781 360.244C197.991 360.058 198.171 359.848 198.32 359.614Z"/>
</mask>
<path fill-rule="evenodd" clip-rule="evenodd" d="M198.32 359.614C200.365 356.399 195.739 349.796 187.987 344.865C180.236 339.935 172.294 338.545 170.249 341.76C168.204 344.975 172.83 351.578 180.582 356.509C181.691 357.214 182.804 357.847 183.904 358.405C183.392 358.664 182.877 358.939 182.362 359.228C175.051 363.327 170.337 368.813 171.833 371.481C173.329 374.15 180.468 372.99 187.78 368.891C192.562 366.209 196.233 362.935 197.781 360.244C197.991 360.058 198.171 359.848 198.32 359.614Z" fill="white"/>
<path d="M198.32 359.614L197.476 359.077L197.476 359.077L198.32 359.614ZM180.582 356.509L181.118 355.665L181.118 355.665L180.582 356.509ZM183.904 358.405L184.356 359.297L186.115 358.405L184.356 357.513L183.904 358.405ZM182.362 359.228L181.873 358.355L181.873 358.355L182.362 359.228ZM171.833 371.481L170.96 371.97L170.96 371.97L171.833 371.481ZM187.78 368.891L188.269 369.763L188.269 369.763L187.78 368.891ZM197.781 360.244L197.117 359.496L196.996 359.604L196.915 359.745L197.781 360.244ZM187.45 345.709C191.243 348.121 194.231 350.919 196.008 353.457C196.898 354.727 197.455 355.89 197.684 356.873C197.912 357.851 197.799 358.569 197.476 359.077L199.164 360.151C199.863 359.051 199.939 357.738 199.632 356.42C199.326 355.106 198.626 353.707 197.646 352.309C195.684 349.508 192.483 346.54 188.524 344.022L187.45 345.709ZM171.093 342.297C171.416 341.788 172.018 341.382 173.001 341.174C173.988 340.964 175.277 340.976 176.806 341.243C179.857 341.778 183.658 343.297 187.45 345.709L188.524 344.022C184.565 341.504 180.519 339.863 177.15 339.273C175.469 338.979 173.905 338.937 172.586 339.217C171.262 339.498 170.104 340.124 169.405 341.223L171.093 342.297ZM181.118 355.665C177.326 353.253 174.338 350.455 172.561 347.917C171.671 346.647 171.113 345.484 170.885 344.501C170.657 343.523 170.769 342.805 171.093 342.297L169.405 341.223C168.706 342.323 168.63 343.636 168.937 344.954C169.242 346.268 169.943 347.667 170.923 349.065C172.885 351.866 176.086 354.834 180.045 357.352L181.118 355.665ZM184.356 357.513C183.286 356.97 182.201 356.353 181.118 355.665L180.045 357.352C181.181 358.075 182.323 358.724 183.451 359.297L184.356 357.513ZM182.851 360.1C183.354 359.818 183.856 359.55 184.356 359.297L183.452 357.513C182.927 357.779 182.4 358.06 181.873 358.355L182.851 360.1ZM172.705 370.992C172.526 370.674 172.468 370.161 172.759 369.358C173.048 368.559 173.645 367.6 174.553 366.543C176.364 364.435 179.27 362.108 182.851 360.1L181.873 358.355C178.142 360.447 175.036 362.912 173.036 365.239C172.039 366.4 171.28 367.568 170.878 368.677C170.478 369.781 170.391 370.955 170.96 371.97L172.705 370.992ZM187.291 368.018C183.71 370.026 180.208 371.291 177.465 371.737C176.089 371.96 174.96 371.968 174.127 371.799C173.29 371.628 172.883 371.311 172.705 370.992L170.96 371.97C171.53 372.986 172.576 373.524 173.728 373.759C174.883 373.994 176.276 373.956 177.786 373.711C180.814 373.219 184.538 371.854 188.269 369.763L187.291 368.018ZM196.915 359.745C195.494 362.213 192 365.378 187.291 368.018L188.269 369.763C193.124 367.041 196.971 363.656 198.648 360.742L196.915 359.745ZM197.476 359.077C197.379 359.23 197.26 359.37 197.117 359.496L198.445 360.991C198.722 360.746 198.963 360.466 199.164 360.151L197.476 359.077Z" fill="white" mask="url(#path-5-inside-2_4_84)"/>
<mask id="path-7-inside-3_4_84" fill="white">
<path fill-rule="evenodd" clip-rule="evenodd" d="M34.84 106.244C36.7946 109.649 45.0334 108.588 53.2418 103.876C61.4502 99.1635 66.5199 92.5832 64.5653 89.1786C62.6106 85.7739 54.3719 86.8341 46.1635 91.5466C44.9886 92.2211 43.8781 92.9338 42.8432 93.6701C42.8515 93.0791 42.8474 92.4784 42.8305 91.8699C42.5899 83.2373 39.8408 76.3104 36.6902 76.3982C33.5396 76.486 31.1805 83.5553 31.421 92.1879C31.5784 97.8349 32.8092 102.752 34.5236 105.453C34.593 105.732 34.6979 105.997 34.84 106.244Z"/>
</mask>
<path fill-rule="evenodd" clip-rule="evenodd" d="M34.84 106.244C36.7946 109.649 45.0334 108.588 53.2418 103.876C61.4502 99.1635 66.5199 92.5832 64.5653 89.1786C62.6106 85.7739 54.3719 86.8341 46.1635 91.5466C44.9886 92.2211 43.8781 92.9338 42.8432 93.6701C42.8515 93.0791 42.8474 92.4784 42.8305 91.8699C42.5899 83.2373 39.8408 76.3104 36.6902 76.3982C33.5396 76.486 31.1805 83.5553 31.421 92.1879C31.5784 97.8349 32.8092 102.752 34.5236 105.453C34.593 105.732 34.6979 105.997 34.84 106.244Z" fill="white"/>
<path d="M53.2418 103.876L52.7439 103.009L52.7439 103.009L53.2418 103.876ZM34.84 106.244L33.9728 106.742L33.9728 106.742L34.84 106.244ZM64.5653 89.1786L63.698 89.6765L63.698 89.6765L64.5653 89.1786ZM46.1635 91.5466L46.6614 92.4139L46.6614 92.4139L46.1635 91.5466ZM42.8432 93.6701L41.8433 93.6561L41.8158 95.6282L43.4229 94.4849L42.8432 93.6701ZM42.8305 91.8699L43.8301 91.8421L43.8301 91.8421L42.8305 91.8699ZM36.6902 76.3982L36.6623 75.3986L36.6623 75.3986L36.6902 76.3982ZM31.421 92.1879L32.4206 92.16L32.4206 92.16L31.421 92.1879ZM34.5236 105.453L35.4941 105.212L35.455 105.054L35.3679 104.917L34.5236 105.453ZM52.7439 103.009C48.7252 105.316 44.7386 106.704 41.5681 107.112C39.9804 107.316 38.6485 107.268 37.6373 107.005C36.6307 106.743 36.0216 106.294 35.7072 105.746L33.9728 106.742C34.6357 107.897 35.7895 108.591 37.1339 108.941C38.4736 109.289 40.081 109.32 41.8234 109.096C45.313 108.647 49.55 107.148 53.7397 104.743L52.7439 103.009ZM63.698 89.6765C64.0124 90.2241 64.0937 90.9768 63.8122 91.9781C63.5295 92.984 62.8995 94.1585 61.9225 95.4265C59.9715 97.9588 56.7627 100.702 52.7439 103.009L53.7397 104.743C57.9293 102.338 61.3595 99.4343 63.5068 96.6472C64.579 95.2555 65.363 93.852 65.7376 92.5193C66.1135 91.182 66.0954 89.8354 65.4325 88.6807L63.698 89.6765ZM46.6614 92.4139C50.6801 90.1067 54.6666 88.7185 57.8372 88.3105C59.4249 88.1062 60.7567 88.1543 61.768 88.4174C62.7746 88.6792 63.3836 89.1289 63.698 89.6765L65.4325 88.6807C64.7696 87.526 63.6158 86.8314 62.2714 86.4818C60.9316 86.1333 59.3243 86.1026 57.5819 86.3269C54.0923 86.7759 49.8552 88.2741 45.6656 90.6794L46.6614 92.4139ZM43.4229 94.4849C44.431 93.7677 45.5142 93.0724 46.6614 92.4139L45.6656 90.6794C44.4631 91.3697 43.3252 92.0999 42.2635 92.8552L43.4229 94.4849ZM41.8309 91.8978C41.8474 92.4923 41.8514 93.0791 41.8433 93.6561L43.8431 93.684C43.8516 93.079 43.8474 92.4644 43.8301 91.8421L41.8309 91.8978ZM36.718 77.3978C37.1062 77.387 37.6101 77.5855 38.2063 78.2388C38.7999 78.8892 39.3916 79.8961 39.9221 81.2328C40.9799 83.8982 41.713 87.667 41.8309 91.8978L43.8301 91.8421C43.7074 87.4402 42.9456 83.4293 41.7811 80.495C41.2004 79.0319 40.4991 77.784 39.6836 76.8905C38.8707 75.9999 37.8495 75.3655 36.6623 75.3986L36.718 77.3978ZM32.4206 92.16C32.3027 87.9293 32.8247 84.1254 33.7325 81.4053C34.1877 80.0411 34.7224 79.0028 35.2789 78.3204C35.8378 77.6349 36.3298 77.4086 36.718 77.3978L36.6623 75.3986C35.4752 75.4317 34.4909 76.122 33.7289 77.0565C32.9644 77.994 32.3336 79.279 31.8353 80.7722C30.836 83.7668 30.2987 87.8139 30.4214 92.2157L32.4206 92.16ZM35.3679 104.917C33.7913 102.433 32.5756 97.7234 32.4206 92.16L30.4214 92.2157C30.5811 97.9465 31.8271 103.071 33.6793 105.989L35.3679 104.917ZM35.7072 105.746C35.6129 105.582 35.5419 105.404 35.4941 105.212L33.5532 105.694C33.6441 106.06 33.783 106.411 33.9728 106.742L35.7072 105.746Z" fill="white" mask="url(#path-7-inside-3_4_84)"/>
<mask id="path-9-inside-4_4_84" fill="white">
<path fill-rule="evenodd" clip-rule="evenodd" d="M145.47 356.831C148.637 354.511 146.669 346.44 141.076 338.805C135.483 331.17 128.381 326.861 125.214 329.181C122.047 331.501 124.014 339.571 129.607 347.207C130.408 348.299 131.24 349.324 132.086 350.271C131.498 350.328 130.901 350.399 130.298 350.483C121.746 351.679 115.166 355.179 115.603 358.301C116.039 361.422 123.327 362.983 131.879 361.787C137.474 361.005 142.224 359.236 144.719 357.233C144.989 357.133 145.239 356.999 145.47 356.831Z"/>
</mask>
<path fill-rule="evenodd" clip-rule="evenodd" d="M145.47 356.831C148.637 354.511 146.669 346.44 141.076 338.805C135.483 331.17 128.381 326.861 125.214 329.181C122.047 331.501 124.014 339.571 129.607 347.207C130.408 348.299 131.24 349.324 132.086 350.271C131.498 350.328 130.901 350.399 130.298 350.483C121.746 351.679 115.166 355.179 115.603 358.301C116.039 361.422 123.327 362.983 131.879 361.787C137.474 361.005 142.224 359.236 144.719 357.233C144.989 357.133 145.239 356.999 145.47 356.831Z" fill="white"/>
<path d="M141.076 338.805L141.883 338.214L141.883 338.214L141.076 338.805ZM145.47 356.831L146.061 357.637L146.061 357.637L145.47 356.831ZM125.214 329.181L124.623 328.374L124.623 328.374L125.214 329.181ZM129.607 347.207L130.414 346.616L130.414 346.616L129.607 347.207ZM132.086 350.271L132.183 351.266L134.146 351.075L132.831 349.604L132.086 350.271ZM130.298 350.483L130.16 349.493L130.16 349.493L130.298 350.483ZM115.603 358.301L116.593 358.162L115.603 358.301ZM131.879 361.787L131.741 360.797L131.879 361.787ZM144.719 357.233L144.372 356.295L144.219 356.351L144.093 356.453L144.719 357.233ZM140.269 339.396C143.008 343.134 144.829 346.942 145.586 350.048C145.965 351.603 146.065 352.932 145.916 353.966C145.767 354.996 145.388 355.651 144.879 356.024L146.061 357.637C147.135 356.851 147.697 355.627 147.896 354.252C148.093 352.882 147.946 351.281 147.53 349.574C146.696 346.156 144.738 342.111 141.883 338.214L140.269 339.396ZM125.805 329.987C126.314 329.614 127.053 329.45 128.08 329.619C129.111 329.788 130.348 330.284 131.716 331.114C134.449 332.773 137.531 335.658 140.269 339.396L141.883 338.214C139.028 334.317 135.762 331.23 132.754 329.405C131.252 328.493 129.77 327.87 128.404 327.645C127.033 327.42 125.697 327.587 124.623 328.374L125.805 329.987ZM130.414 346.616C127.676 342.877 125.854 339.069 125.097 335.964C124.718 334.408 124.618 333.079 124.767 332.045C124.916 331.016 125.295 330.361 125.805 329.987L124.623 328.374C123.549 329.161 122.986 330.385 122.788 331.759C122.59 333.13 122.738 334.73 123.154 336.437C123.987 339.855 125.946 343.9 128.801 347.797L130.414 346.616ZM132.831 349.604C132.007 348.682 131.196 347.683 130.414 346.616L128.801 347.797C129.62 348.916 130.472 349.966 131.34 350.937L132.831 349.604ZM130.437 351.473C131.026 351.391 131.609 351.322 132.183 351.266L131.989 349.276C131.387 349.334 130.776 349.407 130.16 349.493L130.437 351.473ZM116.593 358.162C116.539 357.778 116.681 357.255 117.264 356.59C117.844 355.928 118.78 355.228 120.049 354.553C122.581 353.206 126.245 352.06 130.437 351.473L130.16 349.493C125.799 350.103 121.897 351.304 119.11 352.787C117.72 353.526 116.558 354.362 115.76 355.271C114.965 356.178 114.448 357.263 114.612 358.439L116.593 358.162ZM131.741 360.797C127.549 361.383 123.711 361.286 120.907 360.685C119.501 360.384 118.409 359.968 117.67 359.49C116.926 359.011 116.647 358.547 116.593 358.162L114.612 358.439C114.777 359.616 115.572 360.517 116.585 361.171C117.602 361.827 118.949 362.311 120.488 362.641C123.575 363.302 127.657 363.387 132.018 362.777L131.741 360.797ZM144.093 356.453C141.799 358.295 137.253 360.026 131.741 360.797L132.018 362.777C137.695 361.983 142.65 360.177 145.345 358.012L144.093 356.453ZM144.879 356.024C144.726 356.136 144.557 356.226 144.372 356.295L145.066 358.171C145.42 358.04 145.753 357.863 146.061 357.637L144.879 356.024Z" fill="white" mask="url(#path-9-inside-4_4_84)"/>
<mask id="path-11-inside-5_4_84" fill="white">
<path fill-rule="evenodd" clip-rule="evenodd" d="M73.221 56.9598C73.6172 55.8633 73.9878 54.7118 74.3245 53.5176C76.8084 44.7083 76.5074 36.9143 73.6522 36.1093C70.7971 35.3043 66.469 41.793 63.9852 50.6024C62.3815 56.2901 61.9387 61.5546 62.5947 64.788C62.5208 65.1913 62.5237 65.5887 62.6097 65.9759C63.4106 69.583 71.1096 70.9418 79.806 69.011C88.5025 67.0802 94.9031 62.5908 94.1022 58.9838C93.3013 55.3767 85.6023 54.0179 76.9059 55.9487C75.6223 56.2337 74.3888 56.5744 73.221 56.9598Z"/>
</mask>
<path fill-rule="evenodd" clip-rule="evenodd" d="M73.221 56.9598C73.6172 55.8633 73.9878 54.7118 74.3245 53.5176C76.8084 44.7083 76.5074 36.9143 73.6522 36.1093C70.7971 35.3043 66.469 41.793 63.9852 50.6024C62.3815 56.2901 61.9387 61.5546 62.5947 64.788C62.5208 65.1913 62.5237 65.5887 62.6097 65.9759C63.4106 69.583 71.1096 70.9418 79.806 69.011C88.5025 67.0802 94.9031 62.5908 94.1022 58.9838C93.3013 55.3767 85.6023 54.0179 76.9059 55.9487C75.6223 56.2337 74.3888 56.5744 73.221 56.9598Z" fill="white"/>
<path d="M74.3245 53.5176L73.3621 53.2462L73.3621 53.2462L74.3245 53.5176ZM73.221 56.9598L72.2805 56.6199L71.5817 58.5538L73.5344 57.9094L73.221 56.9598ZM73.6522 36.1093L73.3809 37.0718L73.6522 36.1093ZM63.9852 50.6024L63.0227 50.331L63.0227 50.331L63.9852 50.6024ZM62.5947 64.788L63.5783 64.9683L63.6131 64.7784L63.5747 64.5892L62.5947 64.788ZM62.6097 65.9759L63.586 65.7592L63.586 65.7592L62.6097 65.9759ZM94.1022 58.9838L93.126 59.2005L93.126 59.2005L94.1022 58.9838ZM76.9059 55.9487L76.6891 54.9725L76.6891 54.9725L76.9059 55.9487ZM73.3621 53.2462C73.0318 54.4177 72.6685 55.5463 72.2805 56.6199L74.1615 57.2996C74.566 56.1802 74.9439 55.0059 75.287 53.789L73.3621 53.2462ZM73.3809 37.0718C73.6615 37.1509 74.0427 37.448 74.382 38.3001C74.7146 39.1352 74.9327 40.3347 74.9912 41.8504C75.1079 44.8703 74.5835 48.914 73.3621 53.2462L75.287 53.789C76.5493 49.3119 77.1164 45.054 76.9897 41.7732C76.9266 40.1387 76.6894 38.6882 76.2401 37.5601C75.7977 36.4492 75.0705 35.4702 73.9236 35.1468L73.3809 37.0718ZM64.9477 50.8738C66.1691 46.5415 67.8344 42.8195 69.5114 40.3054C70.3531 39.0434 71.1657 38.1345 71.8854 37.5962C72.62 37.0469 73.1002 36.9926 73.3809 37.0718L73.9236 35.1468C72.7767 34.8234 71.6452 35.2784 70.6876 35.9946C69.7153 36.7218 68.7552 37.8348 67.8476 39.1956C66.0257 41.9269 64.285 45.8539 63.0227 50.331L64.9477 50.8738ZM63.5747 64.5892C62.964 61.5789 63.3636 56.4919 64.9477 50.8738L63.0227 50.331C61.3994 56.0883 60.9134 61.5303 61.6147 64.9868L63.5747 64.5892ZM63.586 65.7592C63.5311 65.5119 63.5267 65.25 63.5783 64.9683L61.6111 64.6077C61.5149 65.1326 61.5164 65.6655 61.6335 66.1927L63.586 65.7592ZM79.5893 68.0348C75.3373 68.9788 71.3744 69.1067 68.4209 68.5854C66.9417 68.3243 65.7666 67.9094 64.9403 67.3946C64.1182 66.8824 63.7103 66.3192 63.586 65.7592L61.6335 66.1927C61.9096 67.4361 62.7644 68.3955 63.8828 69.0922C64.9972 69.7864 66.4405 70.2668 68.0732 70.555C71.3436 71.1322 75.5784 70.974 80.0228 69.9872L79.5893 68.0348ZM93.126 59.2005C93.2503 59.7606 93.1191 60.4435 92.5909 61.2555C92.0602 62.0715 91.1711 62.9448 89.9414 63.8073C87.486 65.5295 83.8413 67.0907 79.5893 68.0348L80.0228 69.9872C84.4672 69.0005 88.371 67.3516 91.0898 65.4447C92.4472 64.4926 93.5516 63.4466 94.2675 62.346C94.9859 61.2414 95.3545 60.0105 95.0784 58.767L93.126 59.2005ZM77.1226 56.9249C81.3746 55.9809 85.3375 55.853 88.291 56.3743C89.7702 56.6354 90.9454 57.0503 91.7716 57.5651C92.5938 58.0773 93.0016 58.6405 93.126 59.2005L95.0784 58.767C94.8023 57.5236 93.9475 56.5642 92.8291 55.8675C91.7147 55.1733 90.2714 54.6929 88.6387 54.4047C85.3683 53.8275 81.1335 53.9857 76.6891 54.9725L77.1226 56.9249ZM73.5344 57.9094C74.6699 57.5347 75.8712 57.2028 77.1226 56.9249L76.6891 54.9725C75.3735 55.2646 74.1076 55.6141 72.9076 56.0102L73.5344 57.9094Z" fill="white" mask="url(#path-11-inside-5_4_84)"/>
<mask id="path-13-inside-6_4_84" fill="white">
<path fill-rule="evenodd" clip-rule="evenodd" d="M87.2271 325.799C86.0935 325.527 84.9079 325.286 83.6838 325.084C74.6534 323.592 66.9409 324.756 66.4574 327.682C65.9739 330.609 72.9025 334.191 81.9329 335.683C87.7633 336.646 93.0444 336.503 96.1852 335.492C96.5942 335.521 96.9888 335.474 97.3642 335.345C100.86 334.15 101.357 326.347 98.474 317.919C95.5909 309.49 90.4196 303.627 86.9235 304.822C83.4275 306.018 82.9306 313.82 85.8137 322.249C86.2393 323.493 86.7146 324.681 87.2271 325.799Z"/>
</mask>
<path fill-rule="evenodd" clip-rule="evenodd" d="M87.2271 325.799C86.0935 325.527 84.9079 325.286 83.6838 325.084C74.6534 323.592 66.9409 324.756 66.4574 327.682C65.9739 330.609 72.9025 334.191 81.9329 335.683C87.7633 336.646 93.0444 336.503 96.1852 335.492C96.5942 335.521 96.9888 335.474 97.3642 335.345C100.86 334.15 101.357 326.347 98.474 317.919C95.5909 309.49 90.4196 303.627 86.9235 304.822C83.4275 306.018 82.9306 313.82 85.8137 322.249C86.2393 323.493 86.7146 324.681 87.2271 325.799Z" fill="white"/>
<path d="M83.6838 325.084L83.5208 326.071L83.5208 326.071L83.6838 325.084ZM87.2271 325.799L86.9936 326.772L88.9931 327.252L88.1361 325.382L87.2271 325.799ZM66.4574 327.682L65.4707 327.519L65.4707 327.519L66.4574 327.682ZM81.9329 335.683L81.7699 336.67L81.7699 336.67L81.9329 335.683ZM96.1852 335.492L96.2554 334.495L96.0628 334.481L95.8789 334.54L96.1852 335.492ZM97.3642 335.345L97.0405 334.399L97.0405 334.399L97.3642 335.345ZM98.474 317.919L99.4201 317.595L99.4201 317.595L98.474 317.919ZM86.9235 304.822L86.5999 303.876L86.5999 303.876L86.9235 304.822ZM85.8137 322.249L86.7599 321.926L86.7599 321.926L85.8137 322.249ZM83.5208 326.071C84.7217 326.269 85.8837 326.505 86.9936 326.772L87.4606 324.827C86.3033 324.549 85.0942 324.304 83.8468 324.098L83.5208 326.071ZM67.444 327.845C67.4915 327.558 67.7445 327.146 68.5538 326.714C69.3468 326.291 70.5147 325.941 72.0147 325.715C75.003 325.264 79.0799 325.337 83.5208 326.071L83.8468 324.098C79.2574 323.339 74.9628 323.248 71.7164 323.737C70.0989 323.981 68.6836 324.378 67.6124 324.95C66.5574 325.512 65.665 326.344 65.4707 327.519L67.444 327.845ZM82.0959 334.696C77.6549 333.963 73.7712 332.72 71.0867 331.332C69.7392 330.636 68.7458 329.929 68.131 329.273C67.5036 328.604 67.3965 328.133 67.444 327.845L65.4707 327.519C65.2765 328.695 65.8542 329.769 66.6721 330.641C67.5026 331.527 68.7151 332.358 70.1682 333.109C73.0847 334.617 77.1805 335.911 81.7699 336.67L82.0959 334.696ZM95.8789 334.54C92.9549 335.481 87.855 335.648 82.0959 334.696L81.7699 336.67C87.6717 337.645 93.134 337.524 96.4915 336.444L95.8789 334.54ZM97.0405 334.399C96.8009 334.481 96.541 334.515 96.2554 334.495L96.115 336.49C96.6475 336.527 97.1768 336.466 97.6878 336.292L97.0405 334.399ZM97.5278 318.242C98.9374 322.363 99.5039 326.288 99.3133 329.281C99.2178 330.78 98.9357 331.994 98.5157 332.872C98.0978 333.746 97.5833 334.214 97.0405 334.399L97.6878 336.292C98.893 335.879 99.7516 334.923 100.32 333.735C100.886 332.55 101.204 331.063 101.309 329.408C101.52 326.094 100.894 321.903 99.4201 317.595L97.5278 318.242ZM87.2472 305.769C87.79 305.583 88.4832 305.638 89.3488 306.072C90.2186 306.509 91.1851 307.296 92.1786 308.423C94.1624 310.672 96.1181 314.121 97.5278 318.242L99.4201 317.595C97.9467 313.287 95.8752 309.59 93.6786 307.1C92.5819 305.856 91.4199 304.875 90.2467 304.285C89.0693 303.694 87.8051 303.464 86.5999 303.876L87.2472 305.769ZM86.7599 321.926C85.3502 317.804 84.7838 313.88 84.9744 310.887C85.0699 309.388 85.352 308.174 85.772 307.296C86.1898 306.422 86.7044 305.954 87.2472 305.769L86.5999 303.876C85.3947 304.288 84.5361 305.244 83.9676 306.433C83.4012 307.618 83.0838 309.105 82.9785 310.76C82.7674 314.074 83.3941 318.265 84.8675 322.573L86.7599 321.926ZM88.1361 325.382C87.6378 324.296 87.1748 323.138 86.7599 321.926L84.8675 322.573C85.3037 323.848 85.7915 325.067 86.3181 326.216L88.1361 325.382Z" fill="white" mask="url(#path-13-inside-6_4_84)"/>
<mask id="path-15-inside-7_4_84" fill="white">
<path fill-rule="evenodd" clip-rule="evenodd" d="M25.8061 247.716C24.9271 246.95 23.9875 246.188 22.996 245.442C15.681 239.941 8.30566 237.403 6.52264 239.774C4.73963 242.144 9.22414 248.526 16.5391 254.028C21.262 257.579 26.01 259.896 29.2619 260.454C29.6111 260.669 29.9827 260.809 30.3748 260.869C34.0274 261.427 38.0784 254.74 39.4231 245.934C40.7677 237.128 38.8968 229.537 35.2442 228.98C31.5917 228.422 27.5406 235.108 26.196 243.915C25.9975 245.214 25.8691 246.488 25.8061 247.716Z"/>
</mask>
<path fill-rule="evenodd" clip-rule="evenodd" d="M25.8061 247.716C24.9271 246.95 23.9875 246.188 22.996 245.442C15.681 239.941 8.30566 237.403 6.52264 239.774C4.73963 242.144 9.22414 248.526 16.5391 254.028C21.262 257.579 26.01 259.896 29.2619 260.454C29.6111 260.669 29.9827 260.809 30.3748 260.869C34.0274 261.427 38.0784 254.74 39.4231 245.934C40.7677 237.128 38.8968 229.537 35.2442 228.98C31.5917 228.422 27.5406 235.108 26.196 243.915C25.9975 245.214 25.8691 246.488 25.8061 247.716Z" fill="white"/>
<path d="M22.996 245.442L23.597 244.643L23.597 244.643L22.996 245.442ZM25.8061 247.716L25.1492 248.47L26.6995 249.82L26.8048 247.767L25.8061 247.716ZM6.52264 239.774L5.72344 239.173L6.52264 239.774ZM16.5391 254.028L17.1402 253.228L17.1402 253.228L16.5391 254.028ZM29.2619 260.454L29.7857 259.602L29.6212 259.501L29.4309 259.468L29.2619 260.454ZM30.3748 260.869L30.2239 261.858L30.2239 261.858L30.3748 260.869ZM39.4231 245.934L38.4345 245.783L38.4345 245.783L39.4231 245.934ZM35.2442 228.98L35.3952 227.991L35.3952 227.991L35.2442 228.98ZM26.196 243.915L27.1845 244.066L27.1845 244.066L26.196 243.915ZM22.3949 246.241C23.3676 246.973 24.2885 247.72 25.1492 248.47L26.4631 246.962C25.5657 246.18 24.6075 245.403 23.597 244.643L22.3949 246.241ZM7.32185 240.375C7.49712 240.142 7.91193 239.894 8.82915 239.886C9.72795 239.877 10.9251 240.108 12.3595 240.601C15.2171 241.585 18.7976 243.536 22.3949 246.241L23.597 244.643C19.8794 241.847 16.1147 239.778 13.0102 238.71C11.4635 238.178 10.0253 237.875 8.81114 237.886C7.61541 237.896 6.43967 238.22 5.72344 239.173L7.32185 240.375ZM17.1402 253.228C13.5428 250.523 10.6749 247.624 8.93732 245.152C8.06517 243.911 7.51164 242.824 7.27004 241.959C7.02349 241.075 7.14657 240.608 7.32185 240.375L5.72344 239.173C5.00721 240.125 5.02223 241.344 5.34364 242.496C5.67001 243.666 6.36047 244.963 7.30095 246.302C9.18862 248.988 12.2204 252.031 15.938 254.827L17.1402 253.228ZM29.4309 259.468C26.4034 258.949 21.8052 256.737 17.1402 253.228L15.938 254.827C20.7187 258.422 25.6166 260.843 29.0928 261.439L29.4309 259.468ZM30.5258 259.881C30.2754 259.843 30.0296 259.752 29.7857 259.602L28.738 261.306C29.1927 261.585 29.69 261.776 30.2239 261.858L30.5258 259.881ZM38.4345 245.783C37.7771 250.089 36.4632 253.83 34.9091 256.395C34.1308 257.68 33.319 258.625 32.5403 259.209C31.7655 259.791 31.0929 259.967 30.5258 259.881L30.2239 261.858C31.483 262.05 32.6866 261.6 33.7406 260.809C34.7908 260.021 35.7606 258.849 36.6197 257.431C38.3405 254.591 39.7244 250.586 40.4116 246.085L38.4345 245.783ZM35.0933 229.968C35.6604 230.055 36.2496 230.424 36.8157 231.21C37.3845 232 37.8772 233.145 38.2367 234.603C38.9544 237.515 39.092 241.478 38.4345 245.783L40.4116 246.085C41.0988 241.585 40.9733 237.349 40.1786 234.124C39.7818 232.515 39.2059 231.107 38.4387 230.041C37.6687 228.972 36.6543 228.183 35.3952 227.991L35.0933 229.968ZM27.1845 244.066C27.842 239.76 29.1559 236.019 30.7099 233.454C31.4882 232.169 32.3001 231.224 33.0787 230.639C33.8536 230.058 34.5262 229.882 35.0933 229.968L35.3952 227.991C34.136 227.799 32.9325 228.249 31.8785 229.04C30.8283 229.828 29.8585 230.999 28.9994 232.417C27.2786 235.258 25.8946 239.263 25.2074 243.764L27.1845 244.066ZM26.8048 247.767C26.8661 246.573 26.991 245.333 27.1845 244.066L25.2074 243.764C25.004 245.096 24.8722 246.402 24.8074 247.664L26.8048 247.767Z" fill="white" mask="url(#path-15-inside-7_4_84)"/>
<mask id="path-17-inside-8_4_84" fill="white">
<path fill-rule="evenodd" clip-rule="evenodd" d="M104.281 38.2489C107.11 40.678 113.048 42.9165 120.107 43.9472C130.32 45.4387 139.01 43.8368 139.516 40.3693C140.022 36.9017 132.154 32.8816 121.94 31.3902C119.721 31.0661 117.574 30.8881 115.567 30.8435C115.968 30.3542 116.364 29.846 116.754 29.3206C121.597 22.793 123.592 16.0685 121.209 14.301C118.827 12.5335 112.97 16.3922 108.127 22.9198C105.038 27.0834 103.107 31.3271 102.733 34.3135C102.632 34.5235 102.564 34.7419 102.531 34.9681C102.462 35.4368 102.547 35.9157 102.77 36.3969C102.914 37.0714 103.211 37.5979 103.671 37.9394C103.855 38.0755 104.059 38.1782 104.281 38.2489Z"/>
</mask>
<path fill-rule="evenodd" clip-rule="evenodd" d="M104.281 38.2489C107.11 40.678 113.048 42.9165 120.107 43.9472C130.32 45.4387 139.01 43.8368 139.516 40.3693C140.022 36.9017 132.154 32.8816 121.94 31.3902C119.721 31.0661 117.574 30.8881 115.567 30.8435C115.968 30.3542 116.364 29.846 116.754 29.3206C121.597 22.793 123.592 16.0685 121.209 14.301C118.827 12.5335 112.97 16.3922 108.127 22.9198C105.038 27.0834 103.107 31.3271 102.733 34.3135C102.632 34.5235 102.564 34.7419 102.531 34.9681C102.462 35.4368 102.547 35.9157 102.77 36.3969C102.914 37.0714 103.211 37.5979 103.671 37.9394C103.855 38.0755 104.059 38.1782 104.281 38.2489Z" fill="white"/>
<path d="M120.107 43.9472L119.962 44.9367L119.962 44.9367L120.107 43.9472ZM104.281 38.2489L104.933 37.4903L104.778 37.3576L104.584 37.2959L104.281 38.2489ZM139.516 40.3693L140.506 40.5138L140.506 40.5138L139.516 40.3693ZM121.94 31.3902L121.796 32.3797L121.796 32.3797L121.94 31.3902ZM115.567 30.8435L114.793 30.21L113.494 31.7977L115.545 31.8432L115.567 30.8435ZM116.754 29.3206L115.951 28.7248L115.951 28.7248L116.754 29.3206ZM121.209 14.301L121.805 13.4979L121.805 13.4979L121.209 14.301ZM108.127 22.9198L108.93 23.5156L108.93 23.5156L108.127 22.9198ZM102.733 34.3135L103.634 34.7464L103.705 34.5996L103.725 34.438L102.733 34.3135ZM102.531 34.9681L101.541 34.8236L101.541 34.8236L102.531 34.9681ZM102.77 36.3969L103.748 36.1874L103.724 36.0783L103.677 35.977L102.77 36.3969ZM103.671 37.9394L104.267 37.1363L104.267 37.1363L103.671 37.9394ZM120.251 42.9577C113.26 41.9367 107.547 39.7352 104.933 37.4903L103.63 39.0075C106.673 41.6209 112.837 43.8962 119.962 44.9367L120.251 42.9577ZM138.527 40.2248C138.462 40.6663 138.116 41.1997 137.199 41.7388C136.292 42.2719 134.965 42.7221 133.27 43.0344C129.891 43.6573 125.279 43.692 120.251 42.9577L119.962 44.9367C125.147 45.6939 129.987 45.6734 133.633 45.0013C135.451 44.6662 137.029 44.1589 138.213 43.463C139.386 42.7732 140.317 41.806 140.506 40.5138L138.527 40.2248ZM121.796 32.3797C126.824 33.114 131.234 34.4662 134.293 36.0292C135.828 36.8131 136.971 37.6241 137.688 38.3943C138.412 39.1733 138.591 39.7832 138.527 40.2248L140.506 40.5138C140.694 39.2216 140.079 38.0286 139.152 37.032C138.216 36.0266 136.849 35.0891 135.203 34.2482C131.901 32.5614 127.27 31.1578 122.085 30.4007L121.796 32.3797ZM115.545 31.8432C117.509 31.8869 119.616 32.0613 121.796 32.3797L122.085 30.4007C119.827 30.0709 117.639 29.8893 115.589 29.8437L115.545 31.8432ZM115.951 28.7248C115.571 29.2375 115.184 29.733 114.793 30.21L116.341 31.477C116.752 30.9753 117.158 30.4546 117.557 29.9164L115.951 28.7248ZM120.614 15.1041C120.888 15.3079 121.142 15.7283 121.202 16.5491C121.262 17.366 121.116 18.4476 120.733 19.7414C119.967 22.3207 118.321 25.5297 115.951 28.7248L117.557 29.9164C120.03 26.5839 121.803 23.1669 122.65 20.3102C123.072 18.886 123.281 17.5471 123.197 16.402C123.112 15.2608 122.722 14.1779 121.805 13.4979L120.614 15.1041ZM108.93 23.5156C111.3 20.3206 113.894 17.8149 116.141 16.3348C117.268 15.5924 118.261 15.139 119.06 14.9599C119.863 14.7798 120.339 14.9003 120.614 15.1041L121.805 13.4979C120.889 12.8179 119.739 12.758 118.622 13.0083C117.502 13.2595 116.281 13.8474 115.041 14.6647C112.552 16.3039 109.796 18.9914 107.324 22.324L108.93 23.5156ZM103.725 34.438C104.07 31.6913 105.892 27.6102 108.93 23.5156L107.324 22.324C104.183 26.5566 102.145 30.963 101.741 34.189L103.725 34.438ZM103.52 35.1126C103.538 34.9907 103.575 34.8693 103.634 34.7464L101.831 33.8805C101.689 34.1777 101.59 34.493 101.541 34.8236L103.52 35.1126ZM103.677 35.977C103.522 35.6407 103.485 35.3578 103.52 35.1126L101.541 34.8236C101.44 35.5158 101.572 36.1906 101.862 36.8169L103.677 35.977ZM104.267 37.1363C104.052 36.9768 103.856 36.6932 103.748 36.1874L101.792 36.6065C101.973 37.4495 102.37 38.2189 103.076 38.7425L104.267 37.1363ZM104.584 37.2959C104.462 37.2569 104.358 37.2032 104.267 37.1363L103.076 38.7425C103.352 38.9477 103.656 39.0995 103.979 39.202L104.584 37.2959Z" fill="white" mask="url(#path-17-inside-8_4_84)"/>
<mask id="path-19-inside-9_4_84" fill="white">
<path fill-rule="evenodd" clip-rule="evenodd" d="M61.1295 300.293C62.773 296.947 63.4529 290.637 62.6832 283.545C61.5696 273.284 57.8425 265.272 54.3587 265.65C50.8748 266.029 48.9534 274.653 50.0671 284.915C50.309 287.144 50.6744 289.267 51.1338 291.222C50.5598 290.956 49.9685 290.7 49.3622 290.454C41.8299 287.4 34.8201 287.153 33.7055 289.902C32.5909 292.651 37.7935 297.355 45.3259 300.409C50.1304 302.357 54.7223 303.163 57.7073 302.778C57.9359 302.823 58.1643 302.834 58.3916 302.81C58.8626 302.759 59.3049 302.557 59.7151 302.221C60.3318 301.912 60.7673 301.492 60.9826 300.961C61.0684 300.75 61.1168 300.526 61.1295 300.293Z"/>
</mask>
<path fill-rule="evenodd" clip-rule="evenodd" d="M61.1295 300.293C62.773 296.947 63.4529 290.637 62.6832 283.545C61.5696 273.284 57.8425 265.272 54.3587 265.65C50.8748 266.029 48.9534 274.653 50.0671 284.915C50.309 287.144 50.6744 289.267 51.1338 291.222C50.5598 290.956 49.9685 290.7 49.3622 290.454C41.8299 287.4 34.8201 287.153 33.7055 289.902C32.5909 292.651 37.7935 297.355 45.3259 300.409C50.1304 302.357 54.7223 303.163 57.7073 302.778C57.9359 302.823 58.1643 302.834 58.3916 302.81C58.8626 302.759 59.3049 302.557 59.7151 302.221C60.3318 301.912 60.7673 301.492 60.9826 300.961C61.0684 300.75 61.1168 300.526 61.1295 300.293Z" fill="white"/>
<path d="M62.6832 283.545L61.6891 283.653L61.6891 283.653L62.6832 283.545ZM61.1295 300.293L60.2319 299.852L60.1421 300.035L60.131 300.239L61.1295 300.293ZM54.3587 265.65L54.2508 264.656L54.2508 264.656L54.3587 265.65ZM50.0671 284.915L49.0729 285.023L50.0671 284.915ZM51.1338 291.222L50.7142 292.129L52.5769 292.99L52.1073 290.993L51.1338 291.222ZM49.3622 290.454L48.9865 291.381L48.9865 291.381L49.3622 290.454ZM33.7055 289.902L32.7788 289.526L32.7788 289.526L33.7055 289.902ZM45.3259 300.409L44.9501 301.336L44.9501 301.336L45.3259 300.409ZM57.7073 302.778L57.9008 301.797L57.7409 301.766L57.5794 301.786L57.7073 302.778ZM58.3916 302.81L58.4995 303.804L58.4995 303.804L58.3916 302.81ZM59.7151 302.221L59.2674 301.326L59.1676 301.376L59.0813 301.447L59.7151 302.221ZM60.9826 300.961L60.0559 300.586L60.0559 300.586L60.9826 300.961ZM61.6891 283.653C62.4515 290.678 61.7507 296.76 60.2319 299.852L62.0271 300.734C63.7952 297.134 64.4543 290.596 63.6774 283.437L61.6891 283.653ZM54.4666 266.645C54.9102 266.596 55.5131 266.797 56.2648 267.55C57.008 268.295 57.7763 269.468 58.5031 271.03C59.9522 274.145 61.1408 278.601 61.6891 283.653L63.6774 283.437C63.112 278.228 61.8802 273.548 60.3165 270.186C59.5368 268.51 58.6504 267.109 57.6803 266.138C56.7185 265.174 55.549 264.515 54.2508 264.656L54.4666 266.645ZM51.0612 284.807C50.5129 279.755 50.7178 275.147 51.4649 271.794C51.8395 270.112 52.3383 268.802 52.9046 267.915C53.4772 267.018 54.0229 266.693 54.4666 266.645L54.2508 264.656C52.9525 264.797 51.9516 265.691 51.2189 266.839C50.4798 267.996 49.9147 269.555 49.5127 271.359C48.7065 274.978 48.5075 279.813 49.0729 285.023L51.0612 284.807ZM52.1073 290.993C51.6576 289.08 51.299 286.997 51.0612 284.807L49.0729 285.023C49.3191 287.291 49.6912 289.455 50.1604 291.451L52.1073 290.993ZM48.9865 291.381C49.5781 291.621 50.1547 291.871 50.7142 292.129L51.5534 290.314C50.9648 290.042 50.359 289.779 49.738 289.527L48.9865 291.381ZM34.6322 290.278C34.7607 289.961 35.1044 289.61 35.8838 289.346C36.6595 289.083 37.7433 288.954 39.092 289.001C41.7807 289.096 45.2996 289.886 48.9865 291.381L49.738 289.527C45.8925 287.968 42.1403 287.107 39.1625 287.002C37.6778 286.95 36.3294 287.083 35.2419 287.452C34.1582 287.819 33.2076 288.469 32.7788 289.526L34.6322 290.278ZM45.7016 299.483C42.0148 297.988 38.9394 296.104 36.9438 294.3C35.9428 293.394 35.2553 292.547 34.8816 291.818C34.5062 291.085 34.5037 290.595 34.6322 290.278L32.7788 289.526C32.35 290.584 32.5799 291.712 33.1018 292.73C33.6256 293.752 34.5005 294.787 35.6024 295.783C37.8126 297.781 41.1046 299.777 44.9501 301.336L45.7016 299.483ZM57.5794 301.786C54.8339 302.141 50.4265 301.398 45.7016 299.483L44.9501 301.336C49.8343 303.316 54.6107 304.186 57.8353 303.77L57.5794 301.786ZM58.2837 301.815C58.1613 301.829 58.0345 301.823 57.9008 301.797L57.5139 303.759C57.8374 303.823 58.1674 303.84 58.4995 303.804L58.2837 301.815ZM59.0813 301.447C58.7947 301.682 58.5301 301.789 58.2837 301.815L58.4995 303.804C59.195 303.728 59.8152 303.431 60.3489 302.994L59.0813 301.447ZM60.0559 300.586C59.9553 300.834 59.7299 301.095 59.2674 301.326L60.1628 303.115C60.9337 302.729 61.5792 302.151 61.9093 301.337L60.0559 300.586ZM60.131 300.239C60.124 300.367 60.0981 300.481 60.0559 300.586L61.9093 301.337C62.0388 301.018 62.1096 300.686 62.128 300.348L60.131 300.239Z" fill="white" mask="url(#path-19-inside-9_4_84)"/>
<mask id="path-21-inside-10_4_84" fill="white">
<path fill-rule="evenodd" clip-rule="evenodd" d="M355.462 225.553C351.753 225.922 346.034 228.674 340.416 233.069C332.287 239.43 327.447 246.823 329.607 249.583C331.766 252.343 340.107 249.424 348.236 243.064C350.002 241.682 351.613 240.251 353.03 238.83C353.108 239.458 353.202 240.095 353.313 240.74C354.693 248.75 358.182 254.835 361.105 254.331C364.028 253.828 365.28 246.926 363.899 238.916C363.019 233.807 361.281 229.481 359.379 227.149C359.297 226.931 359.186 226.731 359.045 226.551C358.753 226.177 358.348 225.908 357.846 225.737C357.258 225.376 356.672 225.228 356.108 225.325C355.882 225.364 355.667 225.44 355.462 225.553Z"/>
</mask>
<path fill-rule="evenodd" clip-rule="evenodd" d="M355.462 225.553C351.753 225.922 346.034 228.674 340.416 233.069C332.287 239.43 327.447 246.823 329.607 249.583C331.766 252.343 340.107 249.424 348.236 243.064C350.002 241.682 351.613 240.251 353.03 238.83C353.108 239.458 353.202 240.095 353.313 240.74C354.693 248.75 358.182 254.835 361.105 254.331C364.028 253.828 365.28 246.926 363.899 238.916C363.019 233.807 361.281 229.481 359.379 227.149C359.297 226.931 359.186 226.731 359.045 226.551C358.753 226.177 358.348 225.908 357.846 225.737C357.258 225.376 356.672 225.228 356.108 225.325C355.882 225.364 355.667 225.44 355.462 225.553Z" fill="white"/>
<path d="M340.416 233.069L341.032 233.857L341.032 233.857L340.416 233.069ZM355.462 225.553L355.562 226.548L355.764 226.527L355.943 226.43L355.462 225.553ZM329.607 249.583L328.819 250.199L328.819 250.199L329.607 249.583ZM348.236 243.064L347.619 242.276L347.619 242.276L348.236 243.064ZM353.03 238.83L354.023 238.708L353.771 236.671L352.322 238.124L353.03 238.83ZM353.313 240.74L354.298 240.57L354.298 240.57L353.313 240.74ZM361.105 254.331L360.935 253.346L360.935 253.346L361.105 254.331ZM363.899 238.916L364.885 238.746L364.885 238.746L363.899 238.916ZM359.379 227.149L358.444 227.502L358.501 227.654L358.604 227.781L359.379 227.149ZM359.045 226.551L359.832 225.934L359.832 225.934L359.045 226.551ZM357.846 225.737L357.323 226.589L357.418 226.648L357.523 226.684L357.846 225.737ZM356.108 225.325L356.277 226.31L356.277 226.31L356.108 225.325ZM341.032 233.857C346.597 229.503 352.133 226.889 355.562 226.548L355.363 224.557C351.372 224.955 345.471 227.845 339.8 232.282L341.032 233.857ZM330.394 248.967C330.119 248.615 329.972 247.997 330.215 246.961C330.455 245.937 331.046 244.666 331.99 243.224C333.871 240.349 337.03 236.988 341.032 233.857L339.8 232.282C335.673 235.511 332.347 239.026 330.316 242.128C329.304 243.675 328.582 245.167 328.268 246.504C327.957 247.83 328.015 249.17 328.819 250.199L330.394 248.967ZM347.619 242.276C343.617 245.408 339.595 247.665 336.352 248.8C334.726 249.369 333.35 249.636 332.298 249.623C331.234 249.61 330.669 249.318 330.394 248.967L328.819 250.199C329.624 251.227 330.912 251.606 332.273 251.623C333.646 251.64 335.268 251.298 337.013 250.687C340.512 249.463 344.725 247.08 348.852 243.852L347.619 242.276ZM352.322 238.124C350.935 239.515 349.355 240.919 347.619 242.276L348.852 243.852C350.649 242.445 352.291 240.988 353.738 239.536L352.322 238.124ZM354.298 240.57C354.19 239.941 354.098 239.319 354.023 238.708L352.038 238.953C352.117 239.596 352.214 240.249 352.328 240.91L354.298 240.57ZM360.935 253.346C360.598 253.404 360.119 253.297 359.483 252.774C358.851 252.254 358.169 251.402 357.498 250.231C356.16 247.897 354.974 244.491 354.298 240.57L352.328 240.91C353.032 244.999 354.281 248.641 355.763 251.226C356.502 252.514 357.326 253.59 358.213 254.319C359.097 255.046 360.15 255.511 361.275 255.317L360.935 253.346ZM362.914 239.086C363.589 243.007 363.612 246.613 363.132 249.26C362.891 250.588 362.534 251.619 362.112 252.321C361.688 253.027 361.272 253.288 360.935 253.346L361.275 255.317C362.399 255.123 363.236 254.333 363.826 253.352C364.418 252.368 364.835 251.079 365.1 249.617C365.631 246.685 365.59 242.836 364.885 238.746L362.914 239.086ZM358.604 227.781C360.354 229.926 362.048 234.061 362.914 239.086L364.885 238.746C363.99 233.553 362.209 229.036 360.154 226.517L358.604 227.781ZM358.257 227.167C358.333 227.264 358.395 227.374 358.444 227.502L360.315 226.795C360.198 226.487 360.038 226.198 359.832 225.934L358.257 227.167ZM357.523 226.684C357.874 226.803 358.104 226.972 358.257 227.167L359.832 225.934C359.401 225.383 358.822 225.013 358.169 224.791L357.523 226.684ZM356.277 226.31C356.541 226.265 356.882 226.319 357.323 226.589L358.369 224.885C357.635 224.434 356.804 224.19 355.938 224.339L356.277 226.31ZM355.943 226.43C356.056 226.368 356.167 226.329 356.277 226.31L355.938 224.339C355.598 224.398 355.279 224.513 354.982 224.676L355.943 226.43Z" fill="white" mask="url(#path-21-inside-10_4_84)"/>
<mask id="path-23-inside-11_4_84" fill="white">
<path fill-rule="evenodd" clip-rule="evenodd" d="M321.61 80.1441C319.43 83.1688 317.705 89.2764 317.279 96.3968C316.662 106.7 318.998 115.222 322.496 115.431C325.994 115.641 329.33 107.458 329.947 97.1552C330.081 94.9166 330.075 92.762 329.949 90.7586C330.47 91.1161 331.01 91.4679 331.567 91.8116C338.483 96.0814 345.353 97.4966 346.911 94.9724C348.47 92.4482 344.127 86.9406 337.211 82.6708C332.799 79.9473 328.407 78.3852 325.399 78.266C325.181 78.1834 324.958 78.1343 324.73 78.1207C324.257 78.0923 323.787 78.2174 323.326 78.4803C322.667 78.6817 322.167 79.0223 321.866 79.51C321.746 79.7043 321.661 79.9163 321.61 80.1441Z"/>
</mask>
<path fill-rule="evenodd" clip-rule="evenodd" d="M321.61 80.1441C319.43 83.1688 317.705 89.2764 317.279 96.3968C316.662 106.7 318.998 115.222 322.496 115.431C325.994 115.641 329.33 107.458 329.947 97.1552C330.081 94.9166 330.075 92.762 329.949 90.7586C330.47 91.1161 331.01 91.4679 331.567 91.8116C338.483 96.0814 345.353 97.4966 346.911 94.9724C348.47 92.4482 344.127 86.9406 337.211 82.6708C332.799 79.9473 328.407 78.3852 325.399 78.266C325.181 78.1834 324.958 78.1343 324.73 78.1207C324.257 78.0923 323.787 78.2174 323.326 78.4803C322.667 78.6817 322.167 79.0223 321.866 79.51C321.746 79.7043 321.661 79.9163 321.61 80.1441Z" fill="white"/>
<path d="M317.279 96.3968L318.277 96.4565L318.277 96.4565L317.279 96.3968ZM321.61 80.1441L322.421 80.7287L322.54 80.5634L322.585 80.3647L321.61 80.1441ZM329.947 97.1552L330.945 97.2149L330.945 97.2149L329.947 97.1552ZM329.949 90.7586L330.514 89.9338L328.822 88.7736L328.951 90.8216L329.949 90.7586ZM331.567 91.8116L332.093 90.9607L332.093 90.9607L331.567 91.8116ZM346.911 94.9724L346.061 94.4471L346.061 94.4471L346.911 94.9724ZM337.211 82.6708L336.685 83.5217L336.685 83.5217L337.211 82.6708ZM325.399 78.266L325.044 79.201L325.197 79.2588L325.36 79.2653L325.399 78.266ZM324.73 78.1207L324.67 79.1189L324.67 79.1189L324.73 78.1207ZM323.326 78.4803L323.618 79.4367L323.725 79.4041L323.822 79.3488L323.326 78.4803ZM321.866 79.51L321.015 78.9846L321.015 78.9846L321.866 79.51ZM318.277 96.4565C318.699 89.4034 320.407 83.5241 322.421 80.7287L320.798 79.5594C318.454 82.8136 316.711 89.1494 316.281 96.337L318.277 96.4565ZM322.556 114.433C322.11 114.406 321.549 114.107 320.934 113.239C320.326 112.381 319.764 111.097 319.309 109.435C318.401 106.121 317.974 101.529 318.277 96.4565L316.281 96.337C315.968 101.568 316.4 106.388 317.38 109.963C317.869 111.746 318.508 113.276 319.302 114.396C320.09 115.507 321.133 116.351 322.436 116.429L322.556 114.433ZM328.948 97.0954C328.645 102.168 327.673 106.676 326.376 109.858C325.725 111.454 325.014 112.662 324.308 113.441C323.594 114.23 323.001 114.46 322.556 114.433L322.436 116.429C323.74 116.508 324.876 115.793 325.79 114.784C326.712 113.767 327.53 112.325 328.228 110.613C329.627 107.18 330.632 102.445 330.945 97.2149L328.948 97.0954ZM328.951 90.8216C329.075 92.7825 329.08 94.896 328.948 97.0954L330.945 97.2149C331.081 94.9371 331.076 92.7416 330.947 90.6956L328.951 90.8216ZM332.093 90.9607C331.549 90.6253 331.023 90.2823 330.514 89.9338L329.383 91.5834C329.918 91.95 330.472 92.3104 331.042 92.6625L332.093 90.9607ZM346.061 94.4471C345.881 94.7381 345.484 95.0263 344.671 95.1564C343.862 95.286 342.772 95.2326 341.45 94.9603C338.815 94.4175 335.478 93.0506 332.093 90.9607L331.042 92.6625C334.573 94.8423 338.128 96.318 341.047 96.9192C342.502 97.2189 343.853 97.3129 344.987 97.1313C346.117 96.9503 347.163 96.4688 347.762 95.4977L346.061 94.4471ZM336.685 83.5217C340.07 85.6117 342.788 87.9829 344.454 90.0954C345.289 91.1551 345.826 92.1058 346.072 92.8869C346.32 93.6717 346.24 94.1561 346.061 94.4471L347.762 95.4977C348.362 94.5267 348.324 93.376 347.979 92.2848C347.634 91.1899 346.944 90.0235 346.024 88.857C344.179 86.5173 341.267 83.9998 337.736 81.8199L336.685 83.5217ZM325.36 79.2653C328.126 79.3749 332.347 80.8433 336.685 83.5217L337.736 81.8199C333.251 79.0512 328.687 77.3956 325.439 77.2668L325.36 79.2653ZM324.67 79.1189C324.793 79.1262 324.917 79.1527 325.044 79.201L325.754 77.331C325.446 77.2141 325.123 77.1424 324.789 77.1224L324.67 79.1189ZM323.822 79.3488C324.144 79.1651 324.423 79.1041 324.67 79.1189L324.789 77.1224C324.091 77.0806 323.43 77.2697 322.831 77.6118L323.822 79.3488ZM322.717 80.0353C322.858 79.8076 323.124 79.5877 323.618 79.4367L323.034 77.5238C322.21 77.7756 321.477 78.237 321.015 78.9846L322.717 80.0353ZM322.585 80.3647C322.614 80.2391 322.658 80.1309 322.717 80.0353L321.015 78.9846C320.834 79.2777 320.709 79.5935 320.634 79.9234L322.585 80.3647Z" fill="white" mask="url(#path-23-inside-11_4_84)"/>
<mask id="path-25-inside-12_4_84" fill="white">
<path fill-rule="evenodd" clip-rule="evenodd" d="M304.007 318.617C304.496 322.313 303.126 328.51 300.133 334.985C295.802 344.354 289.713 350.757 286.532 349.286C283.351 347.816 284.283 339.029 288.614 329.66C289.555 327.624 290.579 325.729 291.638 324.024C291.01 324.092 290.367 324.146 289.714 324.186C281.601 324.675 274.879 322.672 274.701 319.711C274.522 316.75 280.954 313.952 289.067 313.463C294.242 313.15 298.851 313.852 301.557 315.17C301.788 315.2 302.008 315.263 302.216 315.359C302.645 315.557 303 315.89 303.282 316.339C303.768 316.829 304.046 317.365 304.081 317.937C304.095 318.165 304.069 318.392 304.007 318.617Z"/>
</mask>
<path fill-rule="evenodd" clip-rule="evenodd" d="M304.007 318.617C304.496 322.313 303.126 328.51 300.133 334.985C295.802 344.354 289.713 350.757 286.532 349.286C283.351 347.816 284.283 339.029 288.614 329.66C289.555 327.624 290.579 325.729 291.638 324.024C291.01 324.092 290.367 324.146 289.714 324.186C281.601 324.675 274.879 322.672 274.701 319.711C274.522 316.75 280.954 313.952 289.067 313.463C294.242 313.15 298.851 313.852 301.557 315.17C301.788 315.2 302.008 315.263 302.216 315.359C302.645 315.557 303 315.89 303.282 316.339C303.768 316.829 304.046 317.365 304.081 317.937C304.095 318.165 304.069 318.392 304.007 318.617Z" fill="white"/>
<path d="M300.133 334.985L299.226 334.565L299.226 334.565L300.133 334.985ZM304.007 318.617L303.016 318.748L302.989 318.547L303.043 318.35L304.007 318.617ZM286.532 349.286L286.952 348.379L286.952 348.379L286.532 349.286ZM288.614 329.66L287.706 329.24L287.706 329.24L288.614 329.66ZM291.638 324.024L291.531 323.029L293.571 322.808L292.488 324.551L291.638 324.024ZM289.714 324.186L289.775 325.184L289.775 325.184L289.714 324.186ZM274.701 319.711L273.702 319.771L273.702 319.771L274.701 319.711ZM289.067 313.463L289.127 314.461L289.127 314.461L289.067 313.463ZM301.557 315.17L301.427 316.161L301.266 316.14L301.119 316.069L301.557 315.17ZM302.216 315.359L301.796 316.266L301.796 316.266L302.216 315.359ZM303.282 316.339L302.572 317.044L302.493 316.964L302.434 316.87L303.282 316.339ZM304.081 317.937L305.079 317.877L305.079 317.877L304.081 317.937ZM299.226 334.565C302.19 328.152 303.468 322.164 303.016 318.748L304.998 318.486C305.525 322.462 304.062 328.869 301.041 335.404L299.226 334.565ZM286.952 348.379C287.357 348.566 287.992 348.568 288.945 348.094C289.887 347.626 290.989 346.76 292.177 345.511C294.544 343.022 297.093 339.178 299.226 334.565L301.041 335.404C298.842 340.161 296.181 344.203 293.626 346.89C292.352 348.229 291.065 349.274 289.835 349.885C288.616 350.491 287.298 350.742 286.112 350.194L286.952 348.379ZM289.522 330.08C287.39 334.692 286.113 339.124 285.751 342.541C285.569 344.254 285.623 345.655 285.877 346.676C286.133 347.709 286.546 348.191 286.952 348.379L286.112 350.194C284.927 349.646 284.264 348.479 283.936 347.158C283.605 345.825 283.567 344.168 283.762 342.33C284.153 338.643 285.508 333.997 287.706 329.24L289.522 330.08ZM292.488 324.551C291.451 326.22 290.446 328.08 289.522 330.08L287.706 329.24C288.664 327.169 289.707 325.237 290.789 323.496L292.488 324.551ZM289.654 323.187C290.291 323.149 290.918 323.096 291.531 323.029L291.746 325.018C291.102 325.088 290.444 325.143 289.775 325.184L289.654 323.187ZM275.699 319.651C275.719 319.992 275.933 320.434 276.587 320.933C277.239 321.43 278.224 321.899 279.518 322.284C282.096 323.052 285.683 323.427 289.654 323.187L289.775 325.184C285.633 325.434 281.802 325.052 278.946 324.201C277.523 323.776 276.287 323.22 275.375 322.523C274.465 321.829 273.771 320.91 273.702 319.771L275.699 319.651ZM289.127 314.461C285.156 314.701 281.64 315.504 279.173 316.577C277.936 317.115 277.013 317.699 276.427 318.271C275.837 318.845 275.678 319.309 275.699 319.651L273.702 319.771C273.634 318.632 274.212 317.636 275.031 316.838C275.854 316.037 277.013 315.336 278.376 314.743C281.108 313.555 284.865 312.714 289.007 312.464L289.127 314.461ZM301.119 316.069C298.63 314.857 294.217 314.154 289.127 314.461L289.007 312.464C294.268 312.147 299.072 312.847 301.995 314.271L301.119 316.069ZM301.796 316.266C301.684 316.215 301.562 316.179 301.427 316.161L301.687 314.178C302.014 314.221 302.332 314.311 302.635 314.451L301.796 316.266ZM302.434 316.87C302.238 316.556 302.021 316.37 301.796 316.266L302.635 314.451C303.27 314.744 303.763 315.224 304.129 315.809L302.434 316.87ZM303.083 317.997C303.067 317.73 302.936 317.411 302.572 317.044L303.991 315.635C304.599 316.247 305.026 317 305.079 317.877L303.083 317.997ZM303.043 318.35C303.078 318.226 303.09 318.11 303.083 317.997L305.079 317.877C305.1 318.221 305.061 318.558 304.971 318.884L303.043 318.35Z" fill="white" mask="url(#path-25-inside-12_4_84)"/>
<mask id="path-27-inside-13_4_84" fill="white">
<path fill-rule="evenodd" clip-rule="evenodd" d="M148.968 17.2688C147.45 20.0812 153.309 24.9743 162.054 28.1978C170.798 31.4212 179.117 31.7544 180.634 28.942C182.152 26.1295 176.293 21.2364 167.549 18.0129C165.675 17.3223 163.821 16.7644 162.049 16.3416C163.108 15.7325 164.185 15.0612 165.262 14.334C172.394 9.51837 176.818 4.07451 175.142 2.17479C173.466 0.275059 166.325 2.63885 159.193 7.45446C154.555 10.5858 151.063 13.9829 149.648 16.4983C149.353 16.7218 149.124 16.9786 148.968 17.2688Z"/>
</mask>
<path fill-rule="evenodd" clip-rule="evenodd" d="M148.968 17.2688C147.45 20.0812 153.309 24.9743 162.054 28.1978C170.798 31.4212 179.117 31.7544 180.634 28.942C182.152 26.1295 176.293 21.2364 167.549 18.0129C165.675 17.3223 163.821 16.7644 162.049 16.3416C163.108 15.7325 164.185 15.0612 165.262 14.334C172.394 9.51837 176.818 4.07451 175.142 2.17479C173.466 0.275059 166.325 2.63885 159.193 7.45446C154.555 10.5858 151.063 13.9829 149.648 16.4983C149.353 16.7218 149.124 16.9786 148.968 17.2688Z" fill="white"/>
<path d="M162.054 28.1978L161.708 29.1361L161.708 29.1361L162.054 28.1978ZM148.968 17.2688L149.848 17.7436L149.848 17.7436L148.968 17.2688ZM180.634 28.942L179.754 28.4671L179.754 28.4671L180.634 28.942ZM167.549 18.0129L167.894 17.0747L167.894 17.0747L167.549 18.0129ZM162.049 16.3416L161.551 15.4748L159.369 16.7301L161.817 17.3143L162.049 16.3416ZM165.262 14.334L165.822 15.1628L165.822 15.1628L165.262 14.334ZM175.142 2.17479L174.392 2.83636L175.142 2.17479ZM159.193 7.45446L158.633 6.62568L158.633 6.62568L159.193 7.45446ZM149.648 16.4983L150.252 17.2948L150.418 17.1694L150.519 16.9885L149.648 16.4983ZM162.399 27.2595C158.1 25.6744 154.559 23.6953 152.304 21.8116C151.17 20.8652 150.416 19.988 150.029 19.2466C149.646 18.5138 149.682 18.0509 149.848 17.7436L148.088 16.7939C147.495 17.8929 147.694 19.0963 148.256 20.1726C148.814 21.2404 149.787 22.3153 151.022 23.3467C153.502 25.4185 157.263 27.4977 161.708 29.1361L162.399 27.2595ZM179.754 28.4671C179.563 28.822 179.07 29.2193 178.053 29.502C177.059 29.7782 175.716 29.8991 174.094 29.8341C170.858 29.7045 166.696 28.8433 162.399 27.2595L161.708 29.1361C166.156 30.7757 170.526 31.6928 174.014 31.8325C175.754 31.9022 177.323 31.7806 178.588 31.429C179.831 31.0838 180.947 30.4681 181.514 29.4168L179.754 28.4671ZM167.203 18.9512C171.503 20.5363 175.043 22.5154 177.299 24.3991C178.432 25.3455 179.186 26.2227 179.573 26.9641C179.956 27.6969 179.92 28.1598 179.754 28.4671L181.514 29.4168C182.107 28.3179 181.908 27.1145 181.346 26.0381C180.788 24.9703 179.816 23.8954 178.581 22.8641C176.1 20.7922 172.339 18.713 167.894 17.0747L167.203 18.9512ZM161.817 17.3143C163.55 17.7276 165.366 18.274 167.203 18.9512L167.894 17.0747C165.985 16.3706 164.093 15.8011 162.281 15.3689L161.817 17.3143ZM164.703 13.5052C163.645 14.2192 162.588 14.8778 161.551 15.4748L162.548 17.2083C163.628 16.5872 164.725 15.9032 165.822 15.1628L164.703 13.5052ZM174.392 2.83636C174.462 2.91609 174.603 3.1663 174.361 3.87652C174.125 4.56943 173.589 5.47224 172.729 6.53033C171.021 8.63264 168.214 11.1342 164.703 13.5052L165.822 15.1628C169.442 12.7181 172.414 10.09 174.281 7.79153C175.209 6.64924 175.91 5.5339 176.255 4.5213C176.594 3.52601 176.659 2.38334 175.892 1.51321L174.392 2.83636ZM159.752 8.28324C163.262 5.91378 166.748 4.16594 169.528 3.24571C170.922 2.78394 172.092 2.54644 172.975 2.52067C173.903 2.49353 174.275 2.70404 174.392 2.83636L175.892 1.51321C175.17 0.695666 174.021 0.489252 172.916 0.52152C171.765 0.555144 170.39 0.853376 168.899 1.34704C165.906 2.33767 162.256 4.17954 158.633 6.62568L159.752 8.28324ZM150.519 16.9885C151.821 14.6749 155.161 11.3834 159.752 8.28324L158.633 6.62568C153.949 9.78828 150.304 13.2909 148.776 16.0081L150.519 16.9885ZM149.848 17.7436C149.927 17.5979 150.053 17.446 150.252 17.2948L149.043 15.7019C148.653 15.9977 148.322 16.3592 148.088 16.7939L149.848 17.7436Z" fill="white" mask="url(#path-27-inside-13_4_84)"/>
<mask id="path-29-inside-14_4_84" fill="white">
<path fill-rule="evenodd" clip-rule="evenodd" d="M360.696 171.741C357.873 170.241 353.018 176.131 349.85 184.896C346.683 193.661 346.403 201.982 349.225 203.481C352.047 204.981 356.903 199.091 360.07 190.326C360.749 188.448 361.295 186.59 361.706 184.816C362.322 185.871 363 186.944 363.734 188.016C368.596 195.117 374.068 199.506 375.957 197.818C377.845 196.129 375.436 189.004 370.575 181.903C367.414 177.285 363.995 173.814 361.47 172.416C361.245 172.123 360.987 171.895 360.696 171.741Z"/>
</mask>
<path fill-rule="evenodd" clip-rule="evenodd" d="M360.696 171.741C357.873 170.241 353.018 176.131 349.85 184.896C346.683 193.661 346.403 201.982 349.225 203.481C352.047 204.981 356.903 199.091 360.07 190.326C360.749 188.448 361.295 186.59 361.706 184.816C362.322 185.871 363 186.944 363.734 188.016C368.596 195.117 374.068 199.506 375.957 197.818C377.845 196.129 375.436 189.004 370.575 181.903C367.414 177.285 363.995 173.814 361.47 172.416C361.245 172.123 360.987 171.895 360.696 171.741Z" fill="white"/>
<path d="M349.85 184.896L350.791 185.236L350.791 185.236L349.85 184.896ZM360.696 171.741L361.165 170.858L361.165 170.858L360.696 171.741ZM360.07 190.326L359.13 189.986L359.13 189.986L360.07 190.326ZM361.706 184.816L362.57 184.312L361.301 182.138L360.732 184.59L361.706 184.816ZM363.734 188.016L364.56 187.451L364.56 187.451L363.734 188.016ZM375.957 197.818L376.623 198.563L375.957 197.818ZM370.575 181.903L371.4 181.338L371.4 181.338L370.575 181.903ZM361.47 172.416L360.678 173.026L360.804 173.19L360.986 173.291L361.47 172.416ZM350.791 185.236C352.348 180.926 354.305 177.373 356.174 175.105C357.113 173.966 357.986 173.207 358.724 172.815C359.455 172.427 359.918 172.46 360.226 172.624L361.165 170.858C360.062 170.272 358.86 170.479 357.787 171.048C356.723 171.612 355.654 172.592 354.631 173.833C352.575 176.327 350.52 180.101 348.91 184.556L350.791 185.236ZM349.694 202.598C349.338 202.409 348.938 201.919 348.649 200.903C348.366 199.911 348.236 198.569 348.291 196.947C348.4 193.71 349.235 189.543 350.791 185.236L348.91 184.556C347.299 189.015 346.41 193.39 346.292 196.88C346.234 198.62 346.365 200.188 346.725 201.451C347.078 202.691 347.701 203.804 348.756 204.364L349.694 202.598ZM359.13 189.986C357.572 194.296 355.616 197.849 353.746 200.117C352.807 201.256 351.935 202.015 351.196 202.407C350.466 202.795 350.003 202.762 349.694 202.598L348.756 204.364C349.859 204.95 351.061 204.743 352.133 204.174C353.198 203.61 354.266 202.63 355.29 201.389C357.346 198.895 359.401 195.121 361.011 190.666L359.13 189.986ZM360.732 184.59C360.33 186.325 359.795 188.145 359.13 189.986L361.011 190.666C361.702 188.751 362.26 186.856 362.68 185.042L360.732 184.59ZM364.56 187.451C363.839 186.398 363.174 185.346 362.57 184.312L360.843 185.32C361.471 186.396 362.162 187.489 362.909 188.581L364.56 187.451ZM375.29 197.072C375.211 197.143 374.962 197.286 374.25 197.048C373.555 196.817 372.649 196.286 371.586 195.433C369.472 193.738 366.953 190.947 364.56 187.451L362.909 188.581C365.377 192.186 368.024 195.14 370.334 196.993C371.483 197.914 372.602 198.607 373.617 198.946C374.615 199.278 375.758 199.336 376.623 198.563L375.29 197.072ZM369.75 182.468C372.142 185.962 373.912 189.436 374.85 192.21C375.32 193.602 375.565 194.771 375.597 195.653C375.63 196.581 375.422 196.954 375.29 197.072L376.623 198.563C377.436 197.837 377.635 196.686 377.596 195.582C377.555 194.431 377.248 193.058 376.744 191.57C375.735 188.584 373.869 184.945 371.4 181.338L369.75 182.468ZM360.986 173.291C363.308 174.577 366.62 177.896 369.75 182.468L371.4 181.338C368.208 176.674 364.682 173.052 361.955 171.541L360.986 173.291ZM360.226 172.624C360.373 172.702 360.525 172.827 360.678 173.026L362.263 171.806C361.965 171.418 361.601 171.089 361.165 170.858L360.226 172.624Z" fill="white" mask="url(#path-29-inside-14_4_84)"/>
<mask id="path-31-inside-15_4_84" fill="white">
<path fill-rule="evenodd" clip-rule="evenodd" d="M253.698 347.087C254.359 343.961 247.357 340.922 238.058 340.3C228.759 339.678 220.685 341.708 220.024 344.835C219.363 347.961 226.365 351 235.664 351.622C237.656 351.755 239.592 351.767 241.411 351.672C240.568 352.555 239.724 353.504 238.897 354.505C233.415 361.14 230.71 367.611 232.854 368.96C234.999 370.309 241.181 366.024 246.662 359.39C250.227 355.076 252.617 350.831 253.264 348.018C253.483 347.721 253.63 347.41 253.698 347.087Z"/>
</mask>
<path fill-rule="evenodd" clip-rule="evenodd" d="M253.698 347.087C254.359 343.961 247.357 340.922 238.058 340.3C228.759 339.678 220.685 341.708 220.024 344.835C219.363 347.961 226.365 351 235.664 351.622C237.656 351.755 239.592 351.767 241.411 351.672C240.568 352.555 239.724 353.504 238.897 354.505C233.415 361.14 230.71 367.611 232.854 368.96C234.999 370.309 241.181 366.024 246.662 359.39C250.227 355.076 252.617 350.831 253.264 348.018C253.483 347.721 253.63 347.41 253.698 347.087Z" fill="white"/>
<path d="M238.058 340.3L238.125 339.302L238.125 339.302L238.058 340.3ZM253.698 347.087L254.677 347.294L254.677 347.294L253.698 347.087ZM220.024 344.835L219.046 344.628L220.024 344.835ZM235.664 351.622L235.597 352.62L235.597 352.62L235.664 351.622ZM241.411 351.672L242.135 352.362L243.873 350.542L241.359 350.673L241.411 351.672ZM238.897 354.505L238.126 353.868L238.126 353.868L238.897 354.505ZM232.854 368.96L232.322 369.807L232.322 369.807L232.854 368.96ZM246.662 359.39L247.433 360.027L247.433 360.027L246.662 359.39ZM253.264 348.018L252.459 347.425L252.335 347.592L252.289 347.794L253.264 348.018ZM237.991 341.298C242.564 341.603 246.519 342.502 249.215 343.672C250.569 344.259 251.541 344.888 252.122 345.49C252.696 346.084 252.792 346.539 252.72 346.88L254.677 347.294C254.935 346.072 254.404 344.974 253.56 344.101C252.724 343.234 251.487 342.477 250.011 341.837C247.046 340.55 242.851 339.618 238.125 339.302L237.991 341.298ZM221.002 345.042C221.086 344.647 221.446 344.127 222.342 343.568C223.218 343.023 224.471 342.527 226.046 342.131C229.187 341.342 233.422 340.992 237.991 341.298L238.125 339.302C233.395 338.986 228.944 339.34 225.558 340.192C223.869 340.617 222.399 341.176 221.284 341.871C220.19 342.553 219.293 343.459 219.046 344.628L221.002 345.042ZM235.731 350.624C231.158 350.319 227.203 349.42 224.507 348.25C223.153 347.663 222.182 347.034 221.601 346.432C221.026 345.837 220.93 345.383 221.002 345.042L219.046 344.628C218.787 345.85 219.318 346.948 220.162 347.821C220.998 348.688 222.235 349.445 223.711 350.085C226.676 351.372 230.871 352.304 235.597 352.62L235.731 350.624ZM241.359 350.673C239.581 350.766 237.684 350.755 235.731 350.624L235.597 352.62C237.628 352.756 239.604 352.768 241.464 352.671L241.359 350.673ZM239.668 355.142C240.48 354.159 241.308 353.228 242.135 352.362L240.688 350.981C239.828 351.882 238.969 352.848 238.126 353.868L239.668 355.142ZM233.387 368.114C233.297 368.057 233.091 367.857 233.122 367.107C233.153 366.376 233.413 365.358 233.938 364.1C234.983 361.601 236.969 358.409 239.668 355.142L238.126 353.868C235.343 357.236 233.235 360.597 232.093 363.329C231.525 364.687 231.169 365.955 231.124 367.024C231.08 368.074 231.34 369.189 232.322 369.807L233.387 368.114ZM245.891 358.753C243.194 362.018 240.344 364.679 237.937 366.347C236.73 367.184 235.674 367.742 234.835 368.016C233.952 368.305 233.536 368.208 233.387 368.114L232.322 369.807C233.245 370.387 234.406 370.26 235.456 369.917C236.551 369.56 237.785 368.886 239.077 367.991C241.667 366.195 244.649 363.397 247.433 360.027L245.891 358.753ZM252.289 347.794C251.694 350.381 249.42 354.482 245.891 358.753L247.433 360.027C251.033 355.67 253.54 351.281 254.238 348.242L252.289 347.794ZM252.72 346.88C252.686 347.042 252.607 347.224 252.459 347.425L254.069 348.612C254.359 348.218 254.574 347.777 254.677 347.294L252.72 346.88Z" fill="white" mask="url(#path-31-inside-15_4_84)"/>
<mask id="path-33-inside-16_4_84" fill="white">
<path fill-rule="evenodd" clip-rule="evenodd" d="M348.688 120.355C345.658 119.34 341.838 125.949 340.157 135.116C338.476 144.283 339.569 152.536 342.6 153.55C345.63 154.565 349.45 147.956 351.131 138.789C351.41 137.268 351.613 135.771 351.743 134.329C353.12 135.351 354.638 136.352 356.26 137.294C364.104 141.849 371.412 143.277 372.584 140.484C373.755 137.69 368.346 131.733 360.502 127.178C357.024 125.159 353.652 123.754 350.873 123.059C350.335 121.618 349.599 120.66 348.688 120.355Z"/>
</mask>
<path fill-rule="evenodd" clip-rule="evenodd" d="M348.688 120.355C345.658 119.34 341.838 125.949 340.157 135.116C338.476 144.283 339.569 152.536 342.6 153.55C345.63 154.565 349.45 147.956 351.131 138.789C351.41 137.268 351.613 135.771 351.743 134.329C353.12 135.351 354.638 136.352 356.26 137.294C364.104 141.849 371.412 143.277 372.584 140.484C373.755 137.69 368.346 131.733 360.502 127.178C357.024 125.159 353.652 123.754 350.873 123.059C350.335 121.618 349.599 120.66 348.688 120.355Z" fill="white"/>
<path d="M340.157 135.116L339.173 134.936L339.173 134.936L340.157 135.116ZM348.688 120.355L348.371 121.303L348.371 121.303L348.688 120.355ZM342.6 153.55L342.917 152.602L342.917 152.602L342.6 153.55ZM351.131 138.789L352.115 138.969L352.115 138.969L351.131 138.789ZM351.743 134.329L352.339 133.526L350.907 132.464L350.747 134.239L351.743 134.329ZM356.26 137.294L355.758 138.159L355.758 138.159L356.26 137.294ZM372.584 140.484L373.506 140.871L373.506 140.871L372.584 140.484ZM360.502 127.178L361.004 126.314L361.004 126.314L360.502 127.178ZM350.873 123.059L349.936 123.409L350.12 123.902L350.631 124.03L350.873 123.059ZM341.141 135.296C341.967 130.789 343.312 126.962 344.783 124.418C345.521 123.14 346.257 122.247 346.921 121.738C347.578 121.236 348.04 121.192 348.371 121.303L349.006 119.406C347.822 119.01 346.67 119.412 345.706 120.15C344.749 120.882 343.856 122.024 343.051 123.417C341.434 126.215 340.028 130.276 339.173 134.936L341.141 135.296ZM342.917 152.602C342.535 152.474 342.059 152.057 341.607 151.103C341.165 150.17 340.816 148.868 340.603 147.259C340.177 144.048 340.314 139.8 341.141 135.296L339.173 134.936C338.318 139.598 338.162 144.061 338.62 147.522C338.849 149.248 339.237 150.773 339.8 151.96C340.352 153.125 341.15 154.119 342.282 154.499L342.917 152.602ZM350.148 138.609C349.321 143.116 347.976 146.943 346.506 149.487C345.767 150.765 345.031 151.658 344.367 152.167C343.711 152.669 343.248 152.713 342.917 152.602L342.282 154.499C343.466 154.895 344.618 154.493 345.583 153.755C346.539 153.023 347.432 151.881 348.237 150.488C349.855 147.69 351.26 143.629 352.115 138.969L350.148 138.609ZM350.747 134.239C350.62 135.651 350.421 137.117 350.148 138.609L352.115 138.969C352.399 137.418 352.606 135.892 352.739 134.419L350.747 134.239ZM356.762 136.429C355.171 135.506 353.685 134.525 352.339 133.526L351.147 135.132C352.555 136.177 354.104 137.199 355.758 138.159L356.762 136.429ZM371.661 140.097C371.547 140.37 371.244 140.67 370.452 140.823C369.657 140.976 368.53 140.94 367.116 140.663C364.301 140.113 360.619 138.669 356.762 136.429L355.758 138.159C359.745 140.474 363.638 142.022 366.732 142.626C368.272 142.927 369.682 143.008 370.832 142.786C371.985 142.564 373.035 141.994 373.506 140.871L371.661 140.097ZM359.999 128.043C363.854 130.281 367.08 132.848 369.183 135.164C370.237 136.325 370.976 137.387 371.383 138.281C371.8 139.199 371.796 139.775 371.661 140.097L373.506 140.871C373.957 139.796 373.716 138.58 373.203 137.453C372.68 136.302 371.796 135.066 370.664 133.819C368.394 131.32 364.994 128.63 361.004 126.314L359.999 128.043ZM350.631 124.03C353.298 124.697 356.583 126.059 359.999 128.043L361.004 126.314C357.465 124.259 354.006 122.812 351.116 122.089L350.631 124.03ZM348.371 121.303C348.839 121.46 349.428 122.048 349.936 123.409L351.81 122.71C351.242 121.189 350.359 119.859 349.006 119.406L348.371 121.303Z" fill="white" mask="url(#path-33-inside-16_4_84)"/>
<mask id="path-35-inside-17_4_84" fill="white">
<path fill-rule="evenodd" clip-rule="evenodd" d="M204.943 12.4169C202.365 15.0634 205.447 22.2482 211.828 28.4647C218.208 34.6812 225.471 37.5753 228.049 34.9288C230.628 32.2823 227.546 25.0974 221.165 18.8809C220.252 17.9912 219.321 17.1694 218.387 16.4223C218.925 16.2775 219.468 16.119 220.014 15.9469C227.767 13.5052 233.329 9.23211 232.438 6.40267C231.547 3.57324 224.54 3.25889 216.787 5.70056C211.716 7.29779 207.582 9.67871 205.578 11.9266C205.343 12.0613 205.131 12.2244 204.943 12.4169Z"/>
</mask>
<path fill-rule="evenodd" clip-rule="evenodd" d="M204.943 12.4169C202.365 15.0634 205.447 22.2482 211.828 28.4647C218.208 34.6812 225.471 37.5753 228.049 34.9288C230.628 32.2823 227.546 25.0974 221.165 18.8809C220.252 17.9912 219.321 17.1694 218.387 16.4223C218.925 16.2775 219.468 16.119 220.014 15.9469C227.767 13.5052 233.329 9.23211 232.438 6.40267C231.547 3.57324 224.54 3.25889 216.787 5.70056C211.716 7.29779 207.582 9.67871 205.578 11.9266C205.343 12.0613 205.131 12.2244 204.943 12.4169Z" fill="white"/>
<path d="M211.828 28.4647L212.526 27.7485L212.526 27.7485L211.828 28.4647ZM204.943 12.4169L205.66 13.1147L205.66 13.1147L204.943 12.4169ZM228.049 34.9288L228.766 35.6266L228.049 34.9288ZM221.165 18.8809L221.863 18.1647L221.165 18.8809ZM218.387 16.4223L218.127 15.4568L216.223 15.9701L217.762 17.2029L218.387 16.4223ZM220.014 15.9469L219.714 14.993L219.714 14.993L220.014 15.9469ZM232.438 6.40267L233.392 6.10227L232.438 6.40267ZM216.787 5.70056L217.088 6.65437L217.088 6.65437L216.787 5.70056ZM205.578 11.9266L206.076 12.7941L206.217 12.7132L206.325 12.5919L205.578 11.9266ZM212.526 27.7485C209.406 24.709 207.127 21.4641 205.945 18.7078C205.353 17.3275 205.056 16.1171 205.034 15.1439C205.012 14.1755 205.259 13.5257 205.66 13.1147L204.227 11.7191C203.338 12.6314 203.004 13.8721 203.034 15.1895C203.064 16.502 203.453 17.9726 204.107 19.4963C205.416 22.5482 207.869 26.004 211.13 29.181L212.526 27.7485ZM227.333 34.2309C226.933 34.6418 226.29 34.9063 225.321 34.9094C224.348 34.9126 223.13 34.6474 221.735 34.0914C218.948 32.9812 215.645 30.788 212.526 27.7485L211.13 29.181C214.391 32.358 217.909 34.72 220.994 35.9493C222.534 36.5631 224.015 36.9137 225.327 36.9094C226.645 36.9052 227.877 36.5389 228.766 35.6266L227.333 34.2309ZM220.467 19.5972C223.587 22.6367 225.865 25.8816 227.048 28.6378C227.64 30.0182 227.937 31.2286 227.959 32.2018C227.981 33.1702 227.733 33.82 227.333 34.2309L228.766 35.6266C229.655 34.7143 229.989 33.4735 229.959 32.1562C229.929 30.8436 229.54 29.3731 228.886 27.8494C227.577 24.7975 225.124 21.3417 221.863 18.1647L220.467 19.5972ZM217.762 17.2029C218.67 17.9295 219.577 18.7297 220.467 19.5972L221.863 18.1647C220.927 17.2526 219.971 16.4094 219.012 15.6417L217.762 17.2029ZM219.714 14.993C219.18 15.161 218.651 15.3156 218.127 15.4568L218.648 17.3878C219.199 17.2394 219.755 17.077 220.315 16.9007L219.714 14.993ZM231.484 6.70308C231.587 7.02929 231.545 7.51837 231.112 8.21838C230.682 8.91504 229.928 9.70502 228.858 10.5272C226.725 12.1662 223.508 13.7979 219.714 14.993L220.315 16.9007C224.273 15.6541 227.714 13.9285 230.077 12.1132C231.255 11.2082 232.21 10.2468 232.813 9.27014C233.415 8.29687 233.735 7.19078 233.392 6.10227L231.484 6.70308ZM217.088 6.65437C220.882 5.45925 224.453 4.95337 227.141 5.07395C228.489 5.13443 229.559 5.35024 230.311 5.67433C231.067 5.99997 231.381 6.37687 231.484 6.70308L233.392 6.10227C233.049 5.01376 232.153 4.29032 231.102 3.83755C230.048 3.38323 228.714 3.14253 227.23 3.07596C224.254 2.94242 220.445 3.5002 216.487 4.74675L217.088 6.65437ZM206.325 12.5919C208.157 10.5361 212.096 8.22645 217.088 6.65437L216.487 4.74675C211.336 6.36913 207.006 8.82137 204.832 11.2612L206.325 12.5919ZM205.66 13.1147C205.78 12.991 205.918 12.8843 206.076 12.7941L205.081 11.0591C204.768 11.2383 204.482 11.4579 204.227 11.7191L205.66 13.1147Z" fill="white" mask="url(#path-35-inside-17_4_84)"/>
<mask id="path-37-inside-18_4_84" fill="white">
<path fill-rule="evenodd" clip-rule="evenodd" d="M263.108 32.7258C265.224 32.7918 267.536 32.7165 269.947 32.4805C279.594 31.5365 287.18 28.3779 286.891 25.4255C286.602 22.4732 278.547 20.8451 268.901 21.7891C263.362 22.3311 258.503 23.6032 255.424 25.1471C254.65 24.9358 253.922 24.9477 253.27 25.2123C249.845 26.6003 249.782 34.4181 253.129 42.6738C256.475 50.9295 261.964 56.4969 265.388 55.1088C268.812 53.7208 268.876 45.903 265.529 37.6473C264.808 35.8676 263.987 34.2129 263.108 32.7258Z"/>
</mask>
<path fill-rule="evenodd" clip-rule="evenodd" d="M263.108 32.7258C265.224 32.7918 267.536 32.7165 269.947 32.4805C279.594 31.5365 287.18 28.3779 286.891 25.4255C286.602 22.4732 278.547 20.8451 268.901 21.7891C263.362 22.3311 258.503 23.6032 255.424 25.1471C254.65 24.9358 253.922 24.9477 253.27 25.2123C249.845 26.6003 249.782 34.4181 253.129 42.6738C256.475 50.9295 261.964 56.4969 265.388 55.1088C268.812 53.7208 268.876 45.903 265.529 37.6473C264.808 35.8676 263.987 34.2129 263.108 32.7258Z" fill="white"/>
<path d="M269.947 32.4805L269.85 31.4853L269.85 31.4853L269.947 32.4805ZM263.108 32.7258L263.14 31.7263L261.323 31.6697L262.247 33.2344L263.108 32.7258ZM286.891 25.4255L285.895 25.5229L285.895 25.5229L286.891 25.4255ZM268.901 21.7891L268.998 22.7844L268.998 22.7844L268.901 21.7891ZM255.424 25.1471L255.16 26.1118L255.53 26.2127L255.872 26.0411L255.424 25.1471ZM253.27 25.2123L253.645 26.139L253.645 26.139L253.27 25.2123ZM253.129 42.6738L252.202 43.0495L252.202 43.0495L253.129 42.6738ZM265.388 55.1088L265.764 56.0356L265.764 56.0356L265.388 55.1088ZM265.529 37.6473L266.456 37.2716L266.456 37.2716L265.529 37.6473ZM269.85 31.4853C267.479 31.7173 265.21 31.7908 263.14 31.7263L263.077 33.7253C265.238 33.7927 267.593 33.7157 270.045 33.4758L269.85 31.4853ZM285.895 25.5229C285.921 25.7876 285.786 26.2487 285.059 26.8914C284.353 27.5156 283.242 28.166 281.76 28.783C278.809 30.012 274.603 31.0202 269.85 31.4853L270.045 33.4758C274.938 32.9969 279.348 31.9537 282.529 30.6293C284.114 29.9696 285.448 29.2177 286.384 28.3898C287.299 27.5805 288.004 26.5396 287.886 25.3281L285.895 25.5229ZM268.998 22.7844C273.751 22.3193 278.073 22.4929 281.207 23.1264C282.78 23.4444 283.996 23.867 284.81 24.3425C285.648 24.8321 285.869 25.2583 285.895 25.5229L287.886 25.3281C287.767 24.1166 286.874 23.2322 285.819 22.6157C284.74 21.985 283.285 21.5061 281.603 21.166C278.226 20.4834 273.697 20.315 268.804 20.7939L268.998 22.7844ZM255.872 26.0411C258.804 24.5708 263.532 23.3193 268.998 22.7844L268.804 20.7939C263.193 21.343 258.202 22.6356 254.976 24.2532L255.872 26.0411ZM253.645 26.139C254.054 25.9731 254.552 25.9456 255.16 26.1118L255.687 24.1825C254.748 23.926 253.79 23.9222 252.894 24.2855L253.645 26.139ZM254.055 42.2982C252.419 38.2616 251.636 34.3748 251.66 31.3757C251.672 29.8738 251.887 28.646 252.257 27.7459C252.626 26.8502 253.114 26.3545 253.645 26.139L252.894 24.2855C251.713 24.764 250.909 25.7661 250.408 26.9846C249.908 28.1987 249.674 29.7016 249.66 31.3596C249.633 34.6804 250.492 38.8303 252.202 43.0495L254.055 42.2982ZM265.013 54.1821C264.481 54.3976 263.786 54.3815 262.897 53.9953C262.005 53.6072 260.996 52.8753 259.941 51.8057C257.836 49.6699 255.692 46.3347 254.055 42.2982L252.202 43.0495C253.912 47.2686 256.186 50.845 258.517 53.2098C259.681 54.3905 260.896 55.3061 262.1 55.8295C263.308 56.3548 264.583 56.5141 265.764 56.0356L265.013 54.1821ZM264.602 38.023C266.239 42.0595 267.022 45.9463 266.998 48.9454C266.986 50.4474 266.771 51.6751 266.401 52.5752C266.032 53.471 265.544 53.9666 265.013 54.1821L265.764 56.0356C266.944 55.5571 267.749 54.555 268.25 53.3365C268.75 52.1225 268.984 50.6195 268.998 48.9615C269.024 45.6408 268.166 41.4908 266.456 37.2716L264.602 38.023ZM262.247 33.2344C263.1 34.6773 263.899 36.2875 264.602 38.023L266.456 37.2716C265.717 35.4478 264.874 33.7484 263.969 32.2172L262.247 33.2344Z" fill="white" mask="url(#path-37-inside-18_4_84)"/>
<mask id="path-39-inside-19_4_84" fill="white">
<path fill-rule="evenodd" clip-rule="evenodd" d="M292.706 46.3175C289.13 47.2475 288.049 54.9905 290.292 63.6118C292.534 72.2332 297.25 78.4683 300.826 77.5382C304.402 76.6082 305.483 68.8653 303.241 60.2439C302.92 59.0099 302.549 57.8248 302.137 56.7026C302.672 56.8567 303.218 57.0021 303.775 57.1377C311.672 59.0607 318.643 58.2831 319.345 55.4009C320.047 52.5187 314.214 48.6232 306.316 46.7002C301.151 45.4422 296.381 45.3399 293.503 46.2264C293.233 46.2201 292.966 46.2499 292.706 46.3175Z"/>
</mask>
<path fill-rule="evenodd" clip-rule="evenodd" d="M292.706 46.3175C289.13 47.2475 288.049 54.9905 290.292 63.6118C292.534 72.2332 297.25 78.4683 300.826 77.5382C304.402 76.6082 305.483 68.8653 303.241 60.2439C302.92 59.0099 302.549 57.8248 302.137 56.7026C302.672 56.8567 303.218 57.0021 303.775 57.1377C311.672 59.0607 318.643 58.2831 319.345 55.4009C320.047 52.5187 314.214 48.6232 306.316 46.7002C301.151 45.4422 296.381 45.3399 293.503 46.2264C293.233 46.2201 292.966 46.2499 292.706 46.3175Z" fill="white"/>
<path d="M292.706 46.3175L292.958 47.2853L292.958 47.2853L292.706 46.3175ZM300.826 77.5382L301.078 78.506L301.078 78.506L300.826 77.5382ZM303.241 60.2439L302.273 60.4956L302.273 60.4956L303.241 60.2439ZM302.137 56.7026L302.414 55.7417L300.519 55.1953L301.198 57.047L302.137 56.7026ZM303.775 57.1377L304.011 56.1661L304.011 56.1661L303.775 57.1377ZM319.345 55.4009L320.316 55.6375L319.345 55.4009ZM306.316 46.7002L306.553 45.7286L306.553 45.7286L306.316 46.7002ZM293.503 46.2264L293.48 47.2262L293.642 47.23L293.798 47.1821L293.503 46.2264ZM291.259 63.3601C290.163 59.1448 289.893 55.1891 290.308 52.2187C290.515 50.7311 290.888 49.5418 291.372 48.6976C291.855 47.8575 292.403 47.4297 292.958 47.2853L292.455 45.3497C291.222 45.6703 290.294 46.5591 289.638 47.7018C288.984 48.8404 288.556 50.3001 288.327 51.9421C287.868 55.2311 288.178 59.4575 289.324 63.8635L291.259 63.3601ZM300.575 76.5704C300.019 76.7148 299.332 76.6083 298.502 76.1096C297.667 75.6085 296.762 74.7514 295.856 73.5535C294.047 71.1616 292.356 67.5754 291.259 63.3601L289.324 63.8635C290.47 68.2696 292.258 72.1116 294.261 74.7601C295.262 76.0824 296.347 77.1485 297.472 77.8243C298.602 78.5026 299.845 78.8266 301.078 78.506L300.575 76.5704ZM302.273 60.4956C303.37 64.7109 303.64 68.6667 303.225 71.637C303.017 73.1246 302.645 74.3139 302.16 75.1581C301.678 75.9982 301.13 76.426 300.575 76.5704L301.078 78.506C302.311 78.1854 303.239 77.2966 303.895 76.1539C304.548 75.0153 304.977 73.5557 305.206 71.9136C305.665 68.6246 305.355 64.3982 304.209 59.9922L302.273 60.4956ZM301.198 57.047C301.598 58.1383 301.96 59.2925 302.273 60.4956L304.209 59.9922C303.88 58.7273 303.499 57.5112 303.076 56.3581L301.198 57.047ZM304.011 56.1661C303.468 56.0338 302.935 55.892 302.414 55.7417L301.86 57.6634C302.408 57.8214 302.968 57.9704 303.538 58.1093L304.011 56.1661ZM318.373 55.1643C318.292 55.4966 318.003 55.8935 317.271 56.2684C316.542 56.6416 315.488 56.9278 314.147 57.0774C311.473 57.3757 307.877 57.1073 304.011 56.1661L303.538 58.1093C307.57 59.091 311.408 59.3954 314.369 59.0651C315.845 58.9004 317.16 58.5719 318.182 58.0488C319.201 57.5274 320.046 56.7463 320.316 55.6375L318.373 55.1643ZM306.08 47.6718C309.945 48.6131 313.263 50.0283 315.5 51.5224C316.622 52.2719 317.426 53.0103 317.902 53.6769C318.38 54.3467 318.454 54.832 318.373 55.1643L320.316 55.6375C320.586 54.5287 320.194 53.4461 319.53 52.5148C318.862 51.5803 317.846 50.6843 316.611 49.8592C314.133 48.2044 310.585 46.7104 306.553 45.7286L306.08 47.6718ZM293.798 47.1821C296.43 46.3713 300.995 46.4337 306.08 47.6718L306.553 45.7286C301.306 44.4508 296.332 44.3085 293.209 45.2708L293.798 47.1821ZM292.958 47.2853C293.125 47.2418 293.299 47.2219 293.48 47.2262L293.527 45.2267C293.166 45.2183 292.808 45.2579 292.455 45.3497L292.958 47.2853Z" fill="white" mask="url(#path-39-inside-19_4_84)"/>
<mask id="path-41-inside-20_4_84" fill="white">
<path fill-rule="evenodd" clip-rule="evenodd" d="M340.262 274.653C338.788 271.264 330.971 271.398 322.802 274.95C314.633 278.503 309.205 284.13 310.679 287.518C312.152 290.906 319.969 290.773 328.138 287.221C329.307 286.712 330.421 286.161 331.465 285.58C331.396 286.132 331.337 286.695 331.29 287.266C330.615 295.366 332.465 302.132 335.421 302.378C338.377 302.624 341.32 296.257 341.995 288.157C342.436 282.859 341.797 278.131 340.475 275.426C340.439 275.157 340.369 274.899 340.262 274.653Z"/>
</mask>
<path fill-rule="evenodd" clip-rule="evenodd" d="M340.262 274.653C338.788 271.264 330.971 271.398 322.802 274.95C314.633 278.503 309.205 284.13 310.679 287.518C312.152 290.906 319.969 290.773 328.138 287.221C329.307 286.712 330.421 286.161 331.465 285.58C331.396 286.132 331.337 286.695 331.29 287.266C330.615 295.366 332.465 302.132 335.421 302.378C338.377 302.624 341.32 296.257 341.995 288.157C342.436 282.859 341.797 278.131 340.475 275.426C340.439 275.157 340.369 274.899 340.262 274.653Z" fill="white"/>
<path d="M322.802 274.95L322.403 274.033L322.403 274.033L322.802 274.95ZM340.262 274.653L341.179 274.254L341.179 274.254L340.262 274.653ZM310.679 287.518L309.762 287.917L309.762 287.917L310.679 287.518ZM328.138 287.221L327.739 286.303L327.739 286.303L328.138 287.221ZM331.465 285.58L332.457 285.705L332.703 283.748L330.979 284.706L331.465 285.58ZM331.29 287.266L332.286 287.349L332.286 287.349L331.29 287.266ZM335.421 302.378L335.338 303.374L335.338 303.374L335.421 302.378ZM341.995 288.157L342.992 288.24L342.992 288.24L341.995 288.157ZM340.475 275.426L339.484 275.558L339.505 275.719L339.577 275.865L340.475 275.426ZM323.201 275.867C327.195 274.13 331.061 273.25 334.06 273.198C335.561 273.173 336.794 273.356 337.703 273.704C338.608 274.05 339.116 274.525 339.344 275.052L341.179 274.254C340.671 273.086 339.649 272.307 338.418 271.836C337.192 271.367 335.683 271.171 334.026 271.199C330.705 271.255 326.578 272.218 322.403 274.033L323.201 275.867ZM311.596 287.119C311.367 286.593 311.365 285.898 311.729 285C312.095 284.098 312.801 283.071 313.844 281.99C315.926 279.831 319.207 277.604 323.201 275.867L322.403 274.033C318.228 275.849 314.71 278.211 312.405 280.601C311.253 281.795 310.369 283.032 309.876 284.249C309.381 285.47 309.254 286.749 309.762 287.917L311.596 287.119ZM327.739 286.303C323.745 288.04 319.879 288.921 316.88 288.972C315.379 288.998 314.146 288.814 313.237 288.467C312.332 288.12 311.824 287.645 311.596 287.119L309.762 287.917C310.269 289.085 311.291 289.864 312.522 290.335C313.748 290.804 315.257 291 316.915 290.972C320.235 290.915 324.362 289.953 328.537 288.138L327.739 286.303ZM330.979 284.706C329.963 285.271 328.879 285.808 327.739 286.303L328.537 288.138C329.735 287.616 330.878 287.051 331.951 286.454L330.979 284.706ZM332.286 287.349C332.332 286.792 332.39 286.243 332.457 285.705L330.473 285.456C330.402 286.022 330.342 286.598 330.293 287.183L332.286 287.349ZM335.504 301.381C335.163 301.353 334.726 301.129 334.242 300.464C333.76 299.801 333.314 298.805 332.958 297.503C332.249 294.908 331.956 291.314 332.286 287.349L330.293 287.183C329.949 291.318 330.243 295.156 331.029 298.031C331.421 299.464 331.949 300.711 332.625 301.64C333.298 302.565 334.201 303.28 335.338 303.374L335.504 301.381ZM340.998 288.074C340.668 292.039 339.785 295.536 338.656 297.978C338.09 299.203 337.485 300.111 336.9 300.685C336.313 301.261 335.845 301.41 335.504 301.381L335.338 303.374C336.475 303.469 337.484 302.914 338.301 302.113C339.12 301.309 339.848 300.165 340.471 298.817C341.722 296.112 342.647 292.376 342.992 288.24L340.998 288.074ZM339.577 275.865C340.786 278.339 341.433 282.859 340.998 288.074L342.992 288.24C343.44 282.858 342.809 277.923 341.374 274.987L339.577 275.865ZM339.344 275.052C339.413 275.21 339.46 275.378 339.484 275.558L341.466 275.294C341.419 274.937 341.324 274.588 341.179 274.254L339.344 275.052Z" fill="white" mask="url(#path-41-inside-20_4_84)"/>
<mask id="path-43-inside-21_4_84" fill="white">
<path fill-rule="evenodd" clip-rule="evenodd" d="M17.2108 210.28C20.608 211.733 26.2021 206.272 29.7057 198.082C33.2093 189.891 33.2956 182.074 29.8984 180.621C26.5013 179.167 20.9072 184.629 17.4036 192.819C16.9021 193.991 16.4706 195.156 16.1094 196.296C15.7809 195.846 15.4376 195.397 15.0803 194.949C10.0121 188.595 4.02356 184.943 1.70444 186.793C-0.614685 188.642 1.61386 195.293 6.68203 201.647C9.9974 205.804 13.7066 208.804 16.5249 209.864C16.7351 210.035 16.9638 210.174 17.2108 210.28Z"/>
</mask>
<path fill-rule="evenodd" clip-rule="evenodd" d="M17.2108 210.28C20.608 211.733 26.2021 206.272 29.7057 198.082C33.2093 189.891 33.2956 182.074 29.8984 180.621C26.5013 179.167 20.9072 184.629 17.4036 192.819C16.9021 193.991 16.4706 195.156 16.1094 196.296C15.7809 195.846 15.4376 195.397 15.0803 194.949C10.0121 188.595 4.02356 184.943 1.70444 186.793C-0.614685 188.642 1.61386 195.293 6.68203 201.647C9.9974 205.804 13.7066 208.804 16.5249 209.864C16.7351 210.035 16.9638 210.174 17.2108 210.28Z" fill="white"/>
<path d="M29.7057 198.082L30.6251 198.475L30.6251 198.475L29.7057 198.082ZM17.2108 210.28L17.6041 209.361L17.6041 209.361L17.2108 210.28ZM29.8984 180.621L30.2917 179.701L30.2917 179.701L29.8984 180.621ZM17.4036 192.819L16.4842 192.426L16.4842 192.426L17.4036 192.819ZM16.1094 196.296L15.3022 196.886L16.4665 198.478L17.0626 196.598L16.1094 196.296ZM15.0803 194.949L14.2985 195.572L14.2985 195.572L15.0803 194.949ZM1.70444 186.793L2.32799 187.574L2.32799 187.574L1.70444 186.793ZM6.68203 201.647L7.46381 201.024L7.46381 201.024L6.68203 201.647ZM16.5249 209.864L17.1552 209.088L17.0291 208.986L16.877 208.928L16.5249 209.864ZM28.7863 197.688C27.0732 201.693 24.8658 204.987 22.7198 207.082C21.645 208.131 20.6225 208.843 19.7225 209.214C18.827 209.584 18.1316 209.586 17.6041 209.361L16.8175 211.2C17.9886 211.701 19.2664 211.566 20.4847 211.064C21.6985 210.563 22.9305 209.671 24.1169 208.513C26.4931 206.193 28.8345 202.661 30.6251 198.475L28.7863 197.688ZM29.5051 181.54C30.0326 181.766 30.5108 182.27 30.8623 183.173C31.2156 184.08 31.4065 185.312 31.3899 186.814C31.3568 189.813 30.4993 193.684 28.7863 197.688L30.6251 198.475C32.4156 194.289 33.3531 190.156 33.3898 186.836C33.4081 185.178 33.2025 183.671 32.726 182.447C32.2478 181.219 31.4628 180.202 30.2917 179.701L29.5051 181.54ZM18.323 193.212C20.036 189.208 22.2435 185.914 24.3895 183.819C25.4643 182.77 26.4867 182.057 27.3867 181.686C28.2823 181.317 28.9777 181.314 29.5051 181.54L30.2917 179.701C29.1206 179.2 27.8428 179.335 26.6246 179.837C25.4107 180.338 24.1787 181.23 22.9924 182.388C20.6161 184.708 18.2747 188.24 16.4842 192.426L18.323 193.212ZM17.0626 196.598C17.4139 195.49 17.8341 194.355 18.323 193.212L16.4842 192.426C15.9701 193.627 15.5273 194.823 15.1561 195.993L17.0626 196.598ZM14.2985 195.572C14.6472 196.01 14.982 196.448 15.3022 196.886L16.9165 195.705C16.5798 195.245 16.2281 194.784 15.8621 194.325L14.2985 195.572ZM2.32799 187.574C2.59536 187.361 3.06669 187.224 3.87555 187.376C4.68055 187.527 5.68864 187.945 6.84086 188.648C9.13791 190.049 11.8178 192.462 14.2985 195.572L15.8621 194.325C13.2746 191.081 10.4262 188.492 7.88209 186.94C6.61375 186.167 5.37311 185.622 4.24461 185.41C3.11999 185.199 1.97307 185.299 1.08088 186.011L2.32799 187.574ZM7.46381 201.024C4.9831 197.914 3.22599 194.764 2.37118 192.213C1.9424 190.933 1.7587 189.858 1.79035 189.039C1.82215 188.217 2.06061 187.788 2.32799 187.574L1.08088 186.011C0.188696 186.722 -0.163942 187.818 -0.208159 188.962C-0.252529 190.109 0.00282446 191.44 0.474815 192.849C1.42154 195.674 3.31279 199.027 5.90025 202.271L7.46381 201.024ZM16.877 208.928C14.2994 207.959 10.727 205.115 7.46381 201.024L5.90025 202.271C9.26782 206.493 13.1138 209.65 16.1728 210.8L16.877 208.928ZM17.6041 209.361C17.4453 209.293 17.296 209.202 17.1552 209.088L15.8945 210.641C16.1743 210.868 16.4823 211.056 16.8175 211.2L17.6041 209.361Z" fill="white" mask="url(#path-43-inside-21_4_84)"/>
<defs>
<filter id="filter0_i_4_84" x="13.9686" y="12.2226" width="349.215" height="353.215" filterUnits="userSpaceOnUse" color-interpolation-filters="sRGB">
<feFlood flood-opacity="0" result="BackgroundImageFix"/>
<feBlend mode="normal" in="SourceGraphic" in2="BackgroundImageFix" result="shape"/>
<feColorMatrix in="SourceAlpha" type="matrix" values="0 0 0 0 0 0 0 0 0 0 0 0 0 0 0 0 0 0 127 0" result="hardAlpha"/>
<feOffset dy="4"/>
<feGaussianBlur stdDeviation="2"/>
<feComposite in2="hardAlpha" operator="arithmetic" k2="-1" k3="1"/>
<feColorMatrix type="matrix" values="0 0 0 0 0 0 0 0 0 0 0 0 0 0 0 0 0 0 0.25 0"/>
<feBlend mode="normal" in2="shape" result="effect1_innerShadow_4_84"/>
</filter>
</defs>
</svg>
