<svg width="338" height="337" viewBox="0 0 338 337" fill="none" xmlns="http://www.w3.org/2000/svg">
<path fill-rule="evenodd" clip-rule="evenodd" d="M79.8406 159.051C82.7887 158.484 84.2627 162.188 83.8847 165.892C83.1288 173.451 76.8926 184.525 72.4328 189.136C68.3887 193.369 61.5477 195.788 56.7477 189.892C51.9477 183.996 53.0438 179.196 55.0847 171.637C55.9918 168.5 57.1257 165.929 58.4107 163.17C60.0737 160.033 65.4029 151.718 67.8218 149.337C71.6769 144.726 77.0438 139.548 82.4107 144.348C87.9288 149.148 82.9777 154.855 78.3666 158.559C76.5147 160.033 73.3777 163.359 70.8076 160.6C71.5635 158.937 81.3147 154.137 80.2186 146.578C71.1855 142.874 47.2233 197.3 65.2895 188.455C70.2784 186.074 75.4186 176.474 77.2706 171.107C77.8375 169.255 78.3666 167.781 78.9336 165.741C79.3115 163.7 79.1225 160.563 79.8406 159.089V159.051ZM248.786 179.536C248.975 179.914 249.352 180.103 249.541 180.443C249.541 180.443 249.73 180.632 249.73 180.821C252.678 183.769 254.719 180.065 256.912 178.591C259.671 176.55 261.523 174.736 262.997 171.75C264.66 168.613 269.082 161.243 273.315 164.38C274.071 164.758 274.411 165.476 274.789 166.232C274.978 166.799 275.356 167.517 275.545 168.084C275.734 168.084 275.734 168.273 275.734 168.273C275.923 168.462 275.923 168.462 275.923 168.651C277.775 167.366 277.586 166.27 280.723 166.421C285.145 168.273 277.963 174.736 278.871 184.298C283.104 183.542 287.337 172.317 290.134 171.032C290.512 173.413 289.756 173.413 288.849 175.265C286.997 178.591 286.467 180.065 284.237 183.202C283.482 184.109 282.008 186.15 281.478 186.717C279.097 188.947 275.582 188.569 274.297 185.054C272.634 180.254 275.053 178.213 275.053 174.547C273.579 176.777 271.916 178.969 270.442 181.199C268.061 183.769 268.401 185.243 263.261 185.432C260.88 183.202 261.031 181.917 261.22 178.062C260.124 178.629 256.798 182.673 251.809 184.903C246.82 187.284 244.628 179.725 243.683 178.062C242.927 179.536 239.979 185.243 238.505 185.621C237.409 185.81 235.746 185.243 234.99 183.769C234.423 181.728 235.368 179.536 235.557 177.306C235.179 177.873 234.801 178.213 234.461 178.78C233.894 179.536 233.705 179.687 233.176 180.443C232.269 181.728 231.891 182.106 230.606 183.391C228.225 185.621 220.817 193.898 217.529 186.906C215.866 183.391 216.962 181.01 216.773 177.306C215.677 178.402 215.488 178.969 214.392 180.065C212.351 182.295 210.159 186.717 206.455 188.38C203.885 189.476 200.748 187.284 199.614 185.432C197.762 182.295 199.236 179.347 199.425 175.832C197.195 177.873 191.299 186.339 188.729 189.854C185.97 193.898 180.074 194.465 180.263 184.487C179.696 184.298 178.978 184.109 178.411 183.92C176.559 184.676 174.178 187.775 171.57 187.624C168.055 187.435 167.866 183.92 167.715 180.632C166.808 181.388 165.863 183.202 165.145 183.958C162.915 186.906 158.152 192.613 154.071 190.421C153.504 189.665 153.882 190.232 153.315 189.514C152.937 188.758 153.126 188.947 152.748 188.229C151.652 184.525 155.696 175.87 157.359 173.678C151.652 173.111 154.789 172.392 148.137 177.192C146.285 178.478 144.433 179.574 142.241 180.329C141.863 185.848 143.526 187.322 140.389 192.122C135.211 200.059 118.089 192.878 132.452 183.089C138.159 179.044 136.874 182.711 134.682 169.255C134.115 165.211 136.723 160.941 140.049 162.415C141.9 164.985 138.952 165.363 139.86 169.785C140.426 172.166 140.426 175.681 141.523 177.533C145.567 176.059 148.893 173.3 151.841 171.448C150.745 167.026 152.748 163.7 157.359 165.174C157.359 167.555 155.318 167.933 155.507 170.352C158.266 171.637 160.307 170.163 162.348 172.203C162.915 175.341 157.737 183.089 157.17 187.7C162.688 186.226 171.381 169.255 174.518 167.215C178.222 165.174 180.792 168.311 182.266 170.163C183.173 168.878 183.551 167.215 184.118 165.174C186.159 159.466 191.11 145.633 197.384 145.066C202.373 144.5 203.469 148.581 201.617 152.815C200.332 155.952 198.669 158.711 196.817 161.281C193.68 165.703 187.406 171.977 186.499 177.495C185.932 180.443 184.269 186.906 186.121 189.098C188.88 188.191 195.343 176.928 199.576 172.695C201.806 170.654 204.187 162.717 209.365 161.999C212.88 161.432 215.639 163.284 215.261 166.61C214.883 169.18 212.313 171.41 211.028 172.506C210.121 173.413 209.365 174.169 208.269 174.736C206.984 175.492 205.51 175.832 204.565 176.588C203.998 177.495 200.861 191.517 209.176 183.24C211.746 180.481 214.694 177.155 216.735 174.018C220.59 168.651 222.82 159.429 228.527 160.185C232.76 160.563 233.516 171.07 228.338 169.974C227.771 168.311 228.338 168.122 228.905 166.648C228.527 157.615 221.724 172.922 221.724 182.711C221.913 189.552 227.62 183.618 229.85 180.67C230.606 179.574 231.135 179.196 232.08 178.289C233.365 176.626 234.65 174.774 235.935 173.3C237.409 171.259 237.409 169.596 238.165 166.837C239.45 161.318 246.631 137.129 254.379 138.792C256.042 139.17 258.234 141.741 258.612 143.592C259.368 147.637 254.568 152.815 252.905 155.385C250.146 160.185 243.116 169.218 242.587 171.07C241.831 173.451 240.924 176.059 240.735 178.44C242.776 176.21 243.116 174.018 243.305 173.64C243.872 172.884 244.59 171.977 245.157 171.259C247.727 167.555 251.62 162.226 256.042 160.374C258.423 159.466 260.842 160.563 261.409 162.755C262.316 167.933 251.809 173.073 247.765 174.736C247.765 177.117 248.143 177.684 248.861 179.536H248.786ZM65.4784 153.155C61.9635 157.766 57.5414 168.273 55.5005 173.451C55.3115 172.695 58.6375 161.281 65.4784 153.155ZM244.741 163.851C247.123 161.621 257.289 146.314 256.004 141.703C249.541 141.136 246.026 158.295 244.741 163.851ZM247.5 172.695C250.449 171.599 257.819 165.136 257.478 162.377C254.719 162.188 248.634 170.692 247.5 172.695ZM178.524 169.369C175.198 171.75 169.113 187.813 174.48 184.298C176.143 183.391 180.187 179.687 180.754 178.024C182.228 174.169 181.85 170.465 178.524 169.369ZM188.313 169.936C190.694 166.988 202.713 151.492 198.82 147.788C194.965 148.166 188.842 165.136 188.313 169.936ZM265.756 181.539C267.797 180.783 268.137 179.876 269.271 178.213C273.882 171.75 274.978 171.032 273.126 166.232C271.085 165.476 269.082 169.747 267.948 172.506C266.852 175.076 265.718 178.024 265.718 181.539H265.756ZM129.466 191.668C134.833 192.764 137.781 188.153 136.836 183.202C134.606 184.865 128.899 187.624 129.466 191.668ZM94.4296 169.369C97.7556 170.276 98.1336 173.98 96.8107 177.835C96.2438 179.687 92.5777 182.824 90.7257 184.109C85.0186 188.531 91.1036 171.561 94.4296 169.369ZM104.219 169.936C104.597 166.799 107.167 160.714 108.263 157.577C109.359 155.007 111.778 147.599 115.255 147.977C116.351 152.399 113.025 157.01 111.022 159.958C109.17 162.717 106.033 167.706 104.181 169.936H104.219ZM101.989 189.098C100.137 186.717 101.8 180.443 102.367 177.495C103.123 172.128 109.926 165.514 112.685 161.281C114.537 158.9 116.389 155.914 117.485 152.815C119.337 148.581 118.241 144.5 113.252 145.066C104.786 145.822 100.326 167.366 98.3225 169.974C95.9414 167.592 93.1446 164.266 89.2895 168.122C86.7194 170.692 82.8265 179.574 83.7714 184.185C85.6233 192.84 95.5635 182.522 96.3194 181.955C95.9414 185.81 95.9414 191.744 99.6454 192.651C104.067 193.558 109.245 182.862 112.912 178.44C115.86 174.925 118.43 173.262 118.43 171.07C115.293 170.692 107.923 182.333 106.26 184.714C105.163 186.377 103.878 188.569 102.026 189.136L101.989 189.098ZM227.393 152.21C227.393 154.78 227.015 155.914 228.489 157.577C231.437 157.388 237.145 150.585 237.145 149.451C234.197 150.018 233.1 152.966 230.871 153.873C230.871 151.492 231.06 148.506 228.112 148.506C227.204 149.98 227.356 149.98 227.356 152.21H227.393ZM211.33 159.202C214.089 158.295 221.837 152.021 214.845 151.454C213.749 152.928 211.141 156.821 211.33 159.202ZM205.737 173.224C208.307 172.468 213.523 168.046 211.671 164.002C209.1 164.191 206.644 170.654 205.737 173.224ZM178.297 183.92L180.149 184.487L180.338 181.728L178.297 183.958V183.92ZM249.655 180.783C249.655 180.594 249.466 180.405 249.466 180.405L248.71 179.498L249.617 180.783H249.655ZM65.4029 153.117C61.8879 157.728 57.4658 168.235 55.4249 173.413C55.2359 172.657 58.5619 161.243 65.4029 153.117ZM65.4029 153.117C61.8879 157.728 57.4658 168.235 55.4249 173.413C55.2359 172.657 58.5619 161.243 65.4029 153.117ZM199.274 183.429C198.82 181.01 199.689 176.361 200.37 174.736C199.727 178.289 199.765 179.309 199.274 183.429ZM134.493 194.616C137.214 193.709 140.389 190.61 140.275 190.799C139.519 192.084 137.025 194.541 134.493 194.616ZM244.099 162.944C245.044 154.515 247.954 147.07 248.975 146.238C249.315 146.011 246.367 152.55 244.099 162.944ZM185.478 166.043C185.554 163.586 187.368 159.202 188.351 157.766C186.952 161.092 186.801 162.112 185.478 166.043Z" fill="white"/>
<path fill-rule="evenodd" clip-rule="evenodd" d="M169.869 233.734C170.965 232.449 173.384 225.797 180.565 227.649C184.609 228.556 188.124 233.734 186.272 238.912C184.609 243.712 173.195 255.315 169.869 257.356C166.354 255.315 155.847 244.279 153.995 239.29C149.762 228.972 165.069 221.602 169.869 233.772V233.734Z" fill="white"/>
<path fill-rule="evenodd" clip-rule="evenodd" d="M62.1524 275.989L61.5854 276.178C61.9634 276.745 61.5854 276.745 62.1524 276.934V276.027V275.989Z" fill="white"/>
<path fill-rule="evenodd" clip-rule="evenodd" d="M304.496 255.315L305.025 254.408L304.118 254.937L304.496 255.315Z" fill="white"/>
<path fill-rule="evenodd" clip-rule="evenodd" d="M182.039 19.246L181.661 18.4901H182.946C182.379 18.3011 183.702 17.9232 182.039 18.1122C180.376 18.3011 181.85 18.1122 181.283 18.4901L182.039 19.246Z" fill="white"/>
<path fill-rule="evenodd" clip-rule="evenodd" d="M268.137 295.907C268.515 295 268.515 297.004 268.515 294.811C266.663 295 268.137 294.811 267.607 295.378C268.363 295.378 267.985 295.189 268.174 295.945L268.137 295.907Z" fill="white"/>
<path fill-rule="evenodd" clip-rule="evenodd" d="M105.503 313.785C105.881 313.596 107.166 312.878 105.692 312.878L105.503 313.785Z" fill="white"/>
<path fill-rule="evenodd" clip-rule="evenodd" d="M41.6672 256.978L42.6121 257.545L41.8562 256.789L41.6672 256.978Z" fill="white"/>
<path fill-rule="evenodd" clip-rule="evenodd" d="M129.466 310.27C129.844 311.177 129.088 310.27 129.844 311.177L130.411 311.744C129.844 310.459 130.411 310.988 129.504 310.27H129.466Z" fill="white"/>
<path fill-rule="evenodd" clip-rule="evenodd" d="M129.466 310.27C130.373 311.026 129.844 310.459 130.373 311.744L129.806 311.177C129.05 310.27 129.806 311.177 129.428 310.27H129.466ZM182.039 19.2461L181.283 18.4902C181.85 18.1122 180.376 18.3012 182.039 18.1122C183.702 17.9232 182.417 18.3012 182.946 18.4902C187.746 18.4902 194.398 20.1532 199.009 20.8713C201.957 33.2303 219.305 37.2744 214.316 29.3374C213.749 28.4303 212.275 27.2965 211.557 26.3894C210.65 25.2933 209.894 24.5374 209.176 23.4413C212.502 24.0083 225.957 28.4303 227.998 29.9043C228.376 36.1783 230.757 41.5075 234.461 45.9673C235.935 48.0083 237.787 47.0634 238.883 45.5894C239.639 41.8854 238.127 38.7484 237.598 35.6114C242.776 35.6114 242.398 35.8004 248.483 39.3154C251.053 40.7894 255.475 43.9264 257.516 44.4933C256.42 49.4823 255.475 50.7673 256.42 56.4744C256.798 59.2335 258.083 64.6004 260.124 65.6965C265.642 67.7374 262.883 55.3784 262.694 50.0114C266.02 50.3894 265.642 50.3894 267.872 52.0524L275.62 58.5154C276.905 59.6114 278.19 59.9894 279.135 61.8413C278.228 64.7894 277.283 67.2083 277.094 71.0634C277.094 72.7264 277.094 74.5784 277.283 76.4303C277.85 80.4744 278.039 79.9453 279.135 80.4744C283.746 83.2335 284.313 70.3453 284.502 66.8303C285.598 67.7374 291.872 74.3894 292.968 75.8634L295.727 79.5673C296.634 80.4744 296.634 80.4744 297.201 81.4193C296.634 82.7043 295.538 83.9894 294.82 85.6524C292.59 90.2634 292.25 97.2555 294.253 101.526L296.823 101.715C298.675 100.241 299.393 98.2004 300.338 95.8193C300.905 94.5343 301.245 93.4382 301.623 92.3043C302.001 90.8303 301.812 89.9232 302.908 88.6004C303.815 91.3594 308.993 98.2004 310.278 101.867C309.522 102.963 308.993 103.341 308.048 104.626C306.574 107.007 301.585 118.648 307.67 117.174C309.711 116.796 312.848 111.467 313.944 109.804C315.23 111.656 318.367 120.122 318.933 122.73C316.552 124.204 315.078 125.678 313.415 127.907C306.574 137.696 312.13 137.696 316.363 134.748C319.5 132.367 318.593 132.707 320.596 130.893H320.785C320.785 130.704 320.974 130.704 320.974 130.704C322.07 132.745 324.3 145.822 324.3 148.393C322.637 149.489 321.73 149.678 320.256 150.963C317.308 153.193 310.845 160.941 314.738 162.944C317.497 164.418 323.053 158.144 324.338 157.048C325.245 156.141 324.149 156.67 325.434 156.481C325.623 163.473 326.719 171.977 326.001 178.78C323.242 180.254 321.579 179.536 317.157 183.202C315.683 184.487 311.639 189.665 312.924 191.668C314.965 195.183 323.62 188.153 325.661 187.057C326.039 191.101 323.62 208.449 322.524 212.153C321.05 212.909 319.198 213.06 317.724 213.627C313.491 215.29 307.406 220.619 308.88 223.227C311.639 225.986 316.061 224.134 319.576 223.416C317.913 231.353 312.924 241.104 309.598 247.378C306.272 246.622 304.798 245.904 300.754 246.282C290.058 247.378 291.532 253.123 295.576 254.597C298.524 255.693 301.283 255.164 304.231 254.975L305.138 254.408L304.571 255.315C303.664 257.885 296.823 266.2 294.782 268.393C292.212 268.015 283.897 262.874 279.097 266.352C275.053 269.678 283.33 272.248 285.749 272.626C286.505 272.815 287.412 272.815 287.979 273.004C290.36 273.57 288.546 273.004 289.264 273.759C287.79 276.33 278.757 284.267 275.998 285.552C273.768 284.078 273.617 282.793 269.346 281.696C267.116 280.941 262.354 280.6 259.935 281.885C258.839 282.452 258.272 283.926 259.028 285.211C260.124 287.063 267.494 289.444 269.913 290.011C267.532 292.393 262.543 294.811 259.217 296.852C252.376 300.896 253.699 298.326 248.332 295.378C244.628 293.337 238.203 290.956 236.54 295.945C234.877 301.312 241.718 302.219 245.573 303.693L233.214 308.493L233.025 308.304L232.269 307.548C231.891 306.981 231.891 306.981 231.513 306.641C230.946 305.885 230.757 305.734 230.039 305.167C226.713 302.786 221.195 299.271 216.962 300.367C213.447 307.208 221.951 309.4 224.521 311.252C222.48 312.537 212.54 314.956 209.403 315.296C206.644 311.593 208.118 313.256 204.792 309.93C203.129 308.267 197.8 304.411 194.285 304.941C192.433 307.889 193.189 310.119 195.57 312.122C196.477 313.029 197.422 313.785 198.518 314.503C199.614 315.41 200.748 315.977 201.466 317.073C199.425 317.829 184.874 320.021 182.455 319.832C181.699 318.925 181.17 317.791 180.414 316.506C179.658 315.41 178.751 314.276 178.033 313.369C176.937 312.462 176.37 312.084 175.085 310.988C173.8 310.081 173.233 309.514 171.041 309.514C169.189 311.744 169.378 313.029 170.663 315.788C171.57 317.64 172.326 318.169 173.611 319.492L174.518 320.966L161.97 321.722C161.214 320.626 161.063 319.341 160.118 318.018C159.362 316.544 159.022 316.166 158.077 315.07C150.14 306.604 148.855 314.314 149.233 316.733C149.8 319.492 150.896 320.059 152.181 321.533C152.181 321.533 152.181 321.911 152.37 321.911C152.37 321.722 152.37 322.1 152.559 322.1L139.104 321.911C138.007 319.87 137.441 316.015 136.344 313.596C130.448 300.859 125.459 306.226 125.27 308.229C124.892 310.61 126.744 314.881 127.311 317.262C124.552 316.695 118.845 314.692 116.426 313.407C115.67 309.703 114.045 306.415 112.382 303.618C111.475 302.144 107.015 294.774 105.39 299.385C105.012 300.481 105.012 302.711 105.39 304.563C105.768 306.415 106.486 308.267 107.242 309.363C104.861 309.174 96.924 303.844 94.1649 302.711C93.0689 295.341 91.4059 291.826 87.8909 285.93C86.6059 283.889 86.2279 282.604 83.2799 282.981C81.05 286.496 82.713 291.637 83.8468 295.53C79.2358 293.148 73.5287 287.215 69.1067 283.926C71.4878 276.745 70.5807 271.378 67.4437 264.008C66.6878 262.345 66.1586 260.682 63.9287 261.438C60.7917 262.194 61.8878 273.797 62.2657 275.989V276.896C61.6988 276.707 62.0768 276.707 61.6988 276.141C60.4138 274.856 60.0358 274.478 58.9397 273.193L51.3807 264.348C52.4768 260.493 53.4216 257.696 53.4216 252.896C53.4216 250.515 53.0437 243.674 50.4736 242.767C46.4295 241.671 44.5775 250.326 44.5775 254.219C43.2925 253.312 34.2594 239.101 34.9775 236.871C35.3555 235.397 37.5476 232.827 38.6815 226.893C40.1555 219.712 38.4925 209.205 32.0295 219.901C30.3665 222.849 30.3665 224.512 29.7996 226.364C29.2327 227.649 29.6106 226.742 29.2327 227.271C28.3256 224.323 26.6626 220.808 25.5287 217.86C23.6767 212.682 22.5807 211.586 24.0547 209.016C27.0027 204.027 29.7618 195.183 27.3807 188.72C23.8657 187.624 23.3366 188.909 21.8626 191.101C20.7665 192.764 20.0106 194.049 19.1035 196.09C18.0075 194.049 16.5334 184.487 16.3445 181.69C17.6295 180.594 18.5744 180.027 19.8594 178.553C30.5555 166.194 27.2295 157.879 21.1445 161.772C18.3854 163.624 17.4405 165.816 15.2484 168.235C14.8705 164.002 14.8705 156.443 15.6264 152.172C19.4815 149.413 23.3744 143.139 25.2264 138.528C26.1334 136.487 28.9303 130.213 23.9413 131.347C22.2783 131.725 18.7634 135.58 17.6673 136.336C18.2342 131.347 20.9933 121.936 22.8453 117.325C26.5492 116.229 30.0264 114.755 32.4453 112.714C33.9193 111.618 38.9082 106.818 37.9634 104.588C36.3004 100.884 29.3082 105.495 27.2673 106.629C28.0232 103.87 34.2594 92.9846 35.9224 90.7547C39.9665 91.1327 40.9114 91.8508 44.7665 90.1878C53.9886 86.6728 55.4626 80.3988 49.7555 80.9657C46.9964 81.1547 43.8594 82.4398 41.2893 83.1957C42.7634 79.1516 55.5004 66.2256 57.5035 63.2776C61.3586 64.5626 62.6815 65.6587 68.0106 65.5075C80.3697 64.7516 78.1397 57.1925 70.5807 58.1374C67.6327 58.5154 64.6846 59.9894 62.1145 59.4224C62.4925 58.5154 65.4405 55.7185 66.5366 54.8114C67.8216 53.7154 69.6736 52.4303 71.1476 51.1075C73.5287 49.0665 78.1397 45.0224 80.9366 43.9264C84.6405 47.6303 93.1067 46.8744 98.0956 44.8335C101.611 43.5484 101.8 40.6004 98.6626 39.4665C95.9035 38.5595 92.5775 38.1815 89.6295 37.9925C92.1996 35.4224 106.789 28.7705 111.4 27.1075C114.159 28.7705 114.348 29.6776 119.337 32.0965C121.567 33.1925 126.329 35.4224 128.748 35.0445C135.74 29.1484 125.044 25.6335 119.904 24.3484C122.474 22.6854 136.685 19.3595 140.578 19.3595C141.863 20.6445 142.241 21.2114 143.715 22.3075C145.755 24.1595 151.841 27.8256 154.6 28.9595C157.737 30.2445 163.066 27.1075 152.03 19.3595L150.367 17.8854C157.737 17.3185 164.389 17.3185 171.948 17.3185C172.855 18.9815 173.233 20.0776 174.329 21.7406C175.614 23.5925 175.614 23.5925 177.088 25.0665C179.469 27.2965 182.077 30.7736 184.458 29.1106C186.839 27.0697 183.362 22.1185 182.228 19.1327L182.039 19.2461ZM41.8563 256.789L42.6122 257.545L41.7051 256.978C38.1901 256.789 31.9161 255.126 29.1571 257.885C27.683 261.4 32.672 263.404 35.4311 264.537C41.7051 266.919 44.6531 265.444 47.6012 265.822C49.2642 266.2 49.0752 266.389 49.9823 267.485C50.5492 268.241 50.7382 268.393 51.4563 269.337L56.0673 275.044C56.8232 275.8 56.8232 276.141 57.7303 276.896C59.0153 278.181 59.5823 278.937 60.6783 280.222C56.2563 280.411 50.7004 280.6 48.8862 283.737C48.6972 286.307 50.1712 286.874 51.8342 287.593C58.1082 290.919 62.7193 290.541 68.6153 287.97C69.7114 289.067 70.9964 290.352 72.3193 291.296L83.5823 300.33C81.5413 301.237 77.6862 301.804 74.9271 302.711C74.0201 303.089 71.6012 303.807 71.2232 304.563C67.5193 309.363 81.0122 311.933 89.4783 304.563C91.7082 305.13 95.1854 307.7 97.6043 308.985C100.174 310.081 102.971 311.744 105.73 312.84C107.204 312.84 105.919 313.596 105.541 313.747C103.5 314.125 101.497 315.599 100.174 316.695C95.3744 320.55 95.5634 323.347 102.026 322.591C103.689 322.402 105.352 322.024 106.826 321.495C110.681 319.832 112.004 318.169 114.196 316.506L129.315 320.928C122.663 322.213 117.863 328.676 121.378 331.246C123.759 333.098 127.652 331.057 129.315 330.15C131.355 328.865 133.548 327.013 134.492 324.972L150.178 325.161C148.704 327.542 146.133 328.487 146.474 332.002C146.663 334.383 149.233 336.424 152.181 335.706C156.792 334.421 159.362 327.24 160.647 325.01L173.195 324.254C172.439 326.295 170.814 328.109 169.68 330.906C167.639 336.273 170.776 339.939 177.995 331.662C179.658 329.81 180.225 327.958 180.376 324.481C182.228 323.574 181.283 323.385 184.231 323.196L197.686 321.155C196.779 323.007 190.694 328.525 193.982 331.851C197.686 335.706 202.108 330.755 203.393 327.807C206.341 321.911 203.393 320.059 210.385 318.585C214.807 317.678 219.23 316.015 223.463 315.259C222.555 317.829 221.081 320.248 219.948 323.007C216.244 331.851 229.17 328.525 231.4 312.5C237.296 310.837 242.474 307.889 247.992 306.037C247.425 310.459 246.329 315.448 247.614 319.681C251.658 321.344 254.077 318.207 255.173 314.503C256.269 310.648 255.74 306.566 255.173 302.522C259.217 299.952 263.488 297.911 267.532 295.341C268.099 294.774 266.625 294.963 268.439 294.774C268.439 297.004 268.439 294.963 268.061 295.87C267.683 298.44 266.587 301.766 267.683 304.336C268.968 306.906 272.672 306.906 274.524 305.243C278.379 302.295 277.283 294.358 276.754 289.029C276.943 288.84 285.976 280.714 287.261 280.185C286.883 283.7 287.072 289.974 292.779 288.5C296.294 287.404 295.916 281.13 295.916 277.426C296.294 268.015 293.535 274.289 304.949 259.737C305.705 263.781 304.193 267.107 309.182 266.578C311.563 264.197 313.037 260.115 312.508 255.882C311.752 248.512 309.749 252.745 313.604 245.186C316.741 238.534 318.782 232.449 321.541 225.646C322.448 228.405 323.393 232.827 326.719 231.731C329.289 230.257 329.289 225.079 328.382 221.942C327.475 218.238 326.341 216.764 324.527 214.194C324.527 213.287 327.475 193.898 327.475 193.709C328.949 195.183 330.045 199.076 332.275 199.416C335.412 199.794 336.508 195.712 336.13 193.52C335.752 190.95 334.089 188.342 332.804 186.528C326.908 178.062 330.763 182.484 329.478 179.687C329.289 179.12 328.571 179.12 328.571 178.591C327.815 175.643 328.004 164.758 327.815 161.054C329.478 161.961 333.182 165.854 336.281 163.813C339.041 161.772 334.807 156.443 333.333 154.591C331.859 152.928 328.533 148.884 326.492 147.939L323.922 132.821C325.018 134.106 329.63 135.958 332.578 135.391L333.674 134.484C334.052 131.536 331.822 129.684 329.97 128.021C328.496 126.547 326.266 124.884 324.074 123.977C319.652 121.747 321.315 123.07 319.652 118.27C318.896 115.7 317.8 113.281 317.081 110.9C318.744 111.467 322.259 113.47 324.074 113.281C327.211 112.903 326.304 109.237 325.17 107.196C322.94 103.152 318.896 102.396 313.189 102.018C311.337 98.3138 308.389 93.7028 306.915 90.0366C309.674 90.6035 311.715 91.5106 315.041 91.6996C318.744 92.0776 320.748 91.8886 320.407 87.8445C315.23 83.0445 310.089 81.7594 300.867 80.8524C299.204 78.4713 290.889 68.4933 290.36 67.7752C293.308 67.9642 297.352 69.0602 300.149 67.7752C302.908 66.4902 303.097 62.7862 300.527 61.3122C295.538 58.5532 288.357 60.0272 282.839 60.5563C279.891 57.0413 275.847 53.9043 272.143 51.1453L274.902 50.0492C277.472 48.9532 279.135 46.0051 277.283 43.3972C275.431 40.6382 269.913 40.8272 266.209 41.1673C259.557 42.0744 261.031 42.8303 255.702 39.5043C252.754 37.6524 249.995 35.8004 247.047 34.5154C247.803 33.6083 248.521 33.4193 249.806 32.6634C261.976 26.0114 248.899 23.6303 239.488 25.2933C231.551 26.7673 236.351 28.9972 227.696 25.4823C224.37 24.1972 218.474 22.5343 216.092 21.0602C226.789 16.6382 223.463 11.4602 218.852 11.2713C212.955 11.0823 208.155 15.6933 204.263 17.9232C196.892 17.0161 189.863 14.7862 181.963 14.2193C182.53 12.7453 184.722 11.4602 185.667 10.3642C187.141 8.70118 188.426 8.13425 188.426 5.56418C186.763 0.953152 174.404 7.7941 172.212 9.60827C170.549 10.8933 169.982 11.8382 168.168 13.3122C161.176 13.1232 154.902 13.5012 147.872 14.0681C148.968 10.9311 150.442 9.83504 151.198 5.60197C151.954 2.27599 150.82 -2.14606 147.154 1.17992C142.732 5.03504 140.162 7.26496 139.028 15.5799C131.469 16.676 124.099 18.9059 117.447 20.9469C117.825 19.6618 119.488 17.0917 120.206 14.8618C124.817 1.4067 115.217 5.45079 111.173 11.1579C109.321 13.9169 106.373 20.3799 107.658 24.424C106.902 24.9909 92.5397 31.9831 89.5917 33.6461C87.7397 34.7421 85.8878 36.0272 84.0736 36.972C84.2626 34.024 85.9256 26.465 84.9807 24.235C83.1287 20.9091 76.1366 23.8571 76.1366 35.687C76.1366 37.9169 76.8925 39.9201 77.0437 41.961C75.1917 43.435 74.4736 43.813 72.8106 45.098L61.2075 54.887C61.3964 52.5059 62.6815 47.139 62.4925 45.287C61.9256 41.4319 57.3145 43.624 55.8405 44.9091C51.2295 48.613 53.7996 57.6461 53.9886 62.2571C51.0405 65.0161 47.7145 69.2492 44.9555 72.7642C42.9145 75.3343 38.6815 82.1752 36.6405 84.0272C35.8846 68.1531 30.3665 69.6272 28.3256 73.7091C25.7555 79.7941 28.7035 88.4492 32.3697 90.8681C31.8027 92.5311 30.7067 94.1941 29.9886 95.6681C27.6075 100.279 24.8106 104.89 23.1476 109.879C22.7697 108.972 22.5807 107.309 22.2405 106.024C19.4815 93.098 13.5854 98.087 15.7775 109.728C17.0626 115.813 18.3476 115.624 19.8216 118.194C17.4405 125.186 15.3996 132.783 14.1145 140.342L13.2075 143.101C11.1665 140.153 10.8264 134.257 6.55549 133.501C-0.814589 132.405 3.98541 142.345 5.45943 144.953C8.02951 149.186 9.16336 148.657 12.4516 151.416C12.6405 154.742 12.0736 158.408 12.0736 161.923C12.0736 165.249 12.2626 168.575 12.4516 171.901C10.4106 170.805 3.04053 162.112 0.0924981 166.912C-0.663407 169.86 3.41848 174.471 4.8925 175.945C7.65155 179.082 9.12557 179.649 13.5476 181.463C14.6437 189.778 16.4956 195.485 17.5917 202.478C15.5508 201.57 14.2657 199.719 11.8846 198.963C1.75549 196.204 5.42163 205.048 10.5996 208.563C12.6405 209.848 18.1586 212.418 20.7287 212.267C22.3917 218.919 25.7177 225.004 27.7208 230.9C23.4878 229.804 20.5397 229.237 15.5508 229.804C13.8878 231.844 13.5098 232.563 15.5508 234.415C20.3508 238.459 25.5287 240.878 32.5208 240.122C33.6169 244.544 37.1319 248.966 39.513 252.859C40.4201 254.333 41.3649 255.618 41.7429 256.903L41.8563 256.789Z" fill="white"/>
</svg>
