<svg width="352" height="108" viewBox="0 0 352 108" fill="none" xmlns="http://www.w3.org/2000/svg">
<path d="M0 63.4686C0.123807 63.3504 0.324823 63.154 0.603044 62.8785C0.84929 62.605 1.15128 62.1045 1.50902 61.3773C1.83477 60.6518 2.19686 59.6069 2.59531 58.2427C2.99371 56.8791 3.39032 55.0294 3.78515 52.6954C3.99584 51.4526 4.27411 49.8707 4.62004 47.9492C4.96592 46.0277 5.33903 43.9744 5.73936 41.7888C6.17164 39.6016 6.60182 37.3587 7.02999 35.0599C7.45682 32.7237 7.87238 30.5188 8.27682 28.4451C8.67982 26.3342 9.04243 24.4306 9.36458 22.7344C9.68674 21.0382 9.94261 19.7187 10.1322 18.7758C9.54108 19.2533 8.96797 19.7859 8.41291 20.3737C7.91904 20.8837 7.39594 21.4698 6.84357 22.1321C6.2899 22.7571 5.75352 23.4186 5.23454 24.1165C4.80377 23.7273 4.46754 23.296 4.22592 22.8227C4.08979 22.6055 3.96898 22.3688 3.86346 22.1127C3.65107 21.5632 3.53393 20.9904 3.51203 20.3941C3.49013 19.7978 3.86725 19.163 4.64346 18.4895C5.04687 18.1333 5.65265 17.6178 6.46081 16.9427C7.30097 16.2661 8.33362 15.5985 9.55891 14.9401C10.7828 14.2443 12.2179 13.6314 13.8644 13.1012C15.5108 12.571 17.3414 12.2557 19.356 12.1552C21.3706 12.0547 23.0026 12.44 24.252 13.3111C25.5334 14.1806 26.5185 15.2702 27.2073 16.58C27.9281 17.8882 28.4119 19.2828 28.6584 20.764C28.9051 22.2451 29.0009 23.5471 28.946 24.67C28.8308 26.7665 28.3353 28.9755 27.4594 31.2966C26.5836 33.6179 25.3338 35.7897 23.7101 37.8124C22.0851 39.7975 20.082 41.5216 17.7009 42.9842C15.3198 44.4473 12.5658 45.35 9.43877 45.6927C9.23497 47.1215 9.03251 48.5878 8.83143 50.091C8.63035 51.5948 8.4126 53.0803 8.17818 54.5481C7.94237 55.979 7.68717 57.3171 7.41257 58.5625C7.17126 59.8444 6.90717 60.9403 6.62023 61.8503C6.33602 62.8353 5.94839 63.6202 5.45725 64.2046C4.96749 64.8266 4.163 65.1651 3.04377 65.2214C2.46815 65.25 1.93436 65.1084 1.44237 64.7969C0.918405 64.487 0.437613 64.0442 0 63.4686ZM10.4321 37.4103C10.3581 38.0114 10.2589 38.8005 10.1346 39.7772C10.0409 40.7153 9.92004 41.7857 9.77197 42.9878C10.6299 42.7956 11.5797 42.4868 12.6213 42.0617C13.6615 41.5992 14.6969 41.0059 15.7275 40.2824C16.7582 39.5589 17.7521 38.7068 18.7092 37.7254C19.6969 36.7056 20.5839 35.5599 21.3702 34.2886C22.1551 32.98 22.7906 31.5295 23.2767 29.9372C23.7935 28.3059 24.0962 26.5173 24.185 24.5714C24.2765 22.7 24.1237 21.1582 23.7268 19.9459C23.3605 18.6947 22.8438 17.7124 22.1769 16.9989C21.5086 16.2482 20.7533 15.7445 19.9109 15.4878C19.0671 15.1939 18.2295 15.0676 17.3981 15.1091C16.5986 15.149 15.82 15.3185 15.0621 15.6177C14.3042 15.9168 13.549 16.2905 12.7966 16.7387C12.8939 16.7712 13.0093 16.8588 13.1426 17.0015C13.3427 17.2156 13.4982 17.5251 13.6092 17.9303C12.9745 21.5836 12.4458 24.6342 12.0231 27.0822C11.6324 29.5285 11.3212 31.5228 11.0895 33.0652C10.8034 34.8716 10.5843 36.32 10.4321 37.4103ZM50.6047 41.2872C49.7054 42.9748 48.677 44.6317 47.5194 46.2574C46.3601 47.846 45.1158 49.2894 43.7857 50.5879C42.4865 51.8474 41.131 52.886 39.7194 53.7033C38.3397 54.5184 36.9783 54.9596 35.6353 55.0268C34.9317 55.0617 34.1568 54.895 33.3102 54.5268C32.4971 54.1939 31.7397 53.6345 31.038 52.848C30.3364 52.0615 29.7538 51.0265 29.2901 49.7431C28.8585 48.4575 28.6884 46.8793 28.7799 45.0078C28.8517 43.4733 29.1926 41.8513 29.8025 40.1407C30.4431 38.3911 31.233 36.7837 32.1723 35.3179C33.1436 33.8507 34.2358 32.6201 35.4487 31.6262C36.6936 30.6307 37.9556 30.1011 39.2348 30.0373C40.4499 29.9766 41.3423 30.2868 41.912 30.9678C42.4816 31.6488 42.7537 32.5126 42.7278 33.5593C42.6746 34.7194 42.4257 35.796 41.9816 36.7889C41.5694 37.7801 41.058 38.6828 40.4472 39.4974C39.8363 40.3121 39.1748 41.0543 38.4626 41.7247C37.7823 42.3935 37.132 43.0045 36.5116 43.5582C35.8286 44.1525 35.1769 44.726 34.5565 45.2797C33.9347 45.7964 33.3915 46.2714 32.9269 46.7053C32.9931 47.6351 33.1658 48.4107 33.4448 49.0315C33.7239 49.6524 34.0629 50.1582 34.4617 50.5489C34.8591 50.9025 35.3011 51.1604 35.7876 51.3229C36.3047 51.4463 36.8191 51.4953 37.3307 51.4698C38.418 51.4156 39.5389 50.9676 40.6933 50.1264C41.8464 49.2472 42.962 48.2211 44.04 47.047C45.1489 45.8344 46.1603 44.589 47.0747 43.3113C48.0209 42.032 48.7972 40.9293 49.4042 40.0027C49.6169 39.6938 49.8346 39.5146 50.0572 39.4662C50.3101 39.3792 50.5032 39.4068 50.6369 39.5495C50.8009 39.6532 50.8889 39.873 50.9014 40.2084C50.9122 40.5064 50.8134 40.8658 50.6047 41.2872ZM38.0087 33.2907C37.6249 33.3098 37.1695 33.5566 36.6423 34.0309C36.147 34.5036 35.6593 35.1813 35.1792 36.064C34.6976 36.9092 34.2556 37.9583 33.8531 39.2104C33.4492 40.4251 33.164 41.8211 32.9977 43.3972C33.3691 43.043 33.7725 42.6868 34.2078 42.3289C34.6419 41.9341 35.0752 41.5205 35.5078 41.0882C36.8377 39.7897 37.7574 38.6609 38.2668 37.702C38.7762 36.7436 39.0506 35.927 39.0899 35.2529C39.1279 34.5416 39.0454 34.0417 38.8426 33.7531C38.6384 33.4273 38.3605 33.2731 38.0087 33.2907ZM55.6623 50.7796C56.654 50.7301 57.7244 50.2285 58.8749 49.2753C60.0561 48.2831 61.1833 47.1439 62.2573 45.8584C63.3635 44.5713 64.357 43.2707 65.238 41.9575C66.1493 40.6054 66.8304 39.5256 67.2814 38.7193C67.5513 38.2203 67.8128 37.9275 68.0662 37.84C68.3178 37.7155 68.5109 37.7431 68.6459 37.9228C68.7804 38.1031 68.8394 38.3989 68.8224 38.8104C68.8041 39.1844 68.6763 39.6204 68.4381 40.1178C68.2307 40.5762 67.8709 41.2476 67.3587 42.1315C66.8773 42.9769 66.2869 43.9212 65.5884 44.964C64.9206 45.9683 64.1421 47.0152 63.2531 48.1049C62.3945 49.1555 61.4854 50.1348 60.5259 51.0411C59.5645 51.9104 58.5656 52.6324 57.5296 53.2069C56.4949 53.8184 55.466 54.1497 54.4426 54.2007C53.0356 54.271 51.8409 54.0132 50.8581 53.4277C49.9088 52.8777 49.1284 52.1323 48.5175 51.1921C47.9382 50.2504 47.5154 49.2071 47.249 48.0632C46.9813 46.8814 46.8267 45.7131 46.7842 44.5578C46.7418 43.4025 46.9129 41.9565 47.2973 40.2199C47.6821 38.4833 48.2774 36.8108 49.0837 35.2025C49.92 33.5553 50.9895 32.1392 52.2914 30.9542C53.592 29.7319 55.1536 29.0753 56.9767 28.9843C57.9998 28.9333 58.8784 29.3002 59.6119 30.085C60.3775 30.8682 60.7703 31.9687 60.7905 33.3865C60.815 34.0573 60.7435 34.7329 60.5764 35.4133C60.4079 36.0564 60.1732 36.6467 59.8724 37.1848C59.5708 37.6848 59.2011 38.0953 58.7645 38.4161C58.3595 38.7349 57.9014 38.9068 57.3897 38.9323C56.974 38.9531 56.6482 38.8016 56.4122 38.4771C56.2066 38.114 56.0636 37.7103 55.9832 37.2665C55.9335 36.7837 55.9161 36.3178 55.9318 35.869C55.9796 35.4186 56.0323 35.1173 56.0909 34.965C56.241 34.6961 56.4104 34.501 56.5981 34.3796C56.7859 34.2583 57.0049 34.1167 57.2552 33.9549C57.4429 33.8335 57.5805 33.6586 57.6686 33.4302C57.7879 33.2002 57.8433 32.9548 57.8335 32.6939C57.8241 32.433 57.7517 32.2126 57.6172 32.0326C57.4822 31.8527 57.2712 31.7698 56.9834 31.7842C56.6956 31.7986 56.178 32.1044 55.4312 32.7017C54.7147 33.2602 53.9768 34.0997 53.217 35.2203C52.4876 36.3021 51.849 37.6593 51.3001 39.2922C50.7513 40.9252 50.5001 42.8045 50.5461 44.9302C50.5591 46.162 50.7401 47.1611 51.0887 47.9273C51.4373 48.694 51.8592 49.2894 52.3553 49.7123C52.8514 50.1358 53.3909 50.4265 53.9733 50.5838C54.5556 50.7416 55.1188 50.8067 55.6623 50.7796ZM86.7238 39.4855C85.825 41.1731 84.7965 42.83 83.6385 44.4557C82.4796 46.0443 81.2349 47.4882 79.9052 48.7862C78.606 50.0462 77.2504 51.0843 75.839 51.9016C74.4592 52.7173 73.0979 53.1584 71.7548 53.2251C71.0513 53.2605 70.2763 53.0939 69.4298 52.7251C68.6164 52.3922 67.8593 51.8328 67.1576 51.0463C66.4559 50.2598 65.8731 49.2248 65.4096 47.9414C64.9778 46.6558 64.808 45.0776 64.8992 43.2066C64.9711 41.6721 65.3122 40.0496 65.9218 38.339C66.5627 36.5894 67.3524 34.982 68.2919 33.5164C69.2631 32.0491 70.355 30.8186 71.568 29.8247C72.8132 28.8291 74.0749 28.2995 75.354 28.2357C76.5693 28.1751 77.4618 28.4853 78.0312 29.1663C78.601 29.8472 78.8728 30.7111 78.8473 31.7578C78.7937 32.9179 78.5452 33.9944 78.1009 34.9873C77.6888 35.9786 77.1775 36.8816 76.5666 37.6963C75.9556 38.5104 75.2941 39.2532 74.5822 39.923C73.9019 40.5918 73.2512 41.2028 72.6308 41.7565C71.9479 42.3508 71.2962 42.9248 70.6759 43.4785C70.0542 43.9947 69.5107 44.4697 69.0463 44.9036C69.1125 45.8339 69.285 46.6095 69.5643 47.2298C69.8432 47.8507 70.1825 48.3565 70.5811 48.7477C70.9785 49.1008 71.4205 49.3592 71.9068 49.5212C72.4239 49.6451 72.9383 49.6941 73.4501 49.6686C74.5375 49.6144 75.6584 49.1665 76.8128 48.3247C77.9659 47.4455 79.0815 46.4194 80.1595 45.2453C81.2684 44.0327 82.2798 42.7873 83.1943 41.5096C84.1404 40.2303 84.9168 39.1276 85.5233 38.2015C85.7365 37.8921 85.9541 37.7129 86.1762 37.6645C86.4297 37.5775 86.6227 37.6051 86.7564 37.7478C86.92 37.8515 87.0084 38.0713 87.0205 38.4067C87.0317 38.7047 86.9325 39.0646 86.7238 39.4855ZM74.1281 31.4892C73.7441 31.5083 73.2887 31.755 72.7618 32.2293C72.2666 32.7021 71.7789 33.3798 71.2985 34.2625C70.8171 35.1079 70.3751 36.1567 69.9724 37.4087C69.5684 38.6239 69.2832 40.0194 69.117 41.5961C69.4884 41.2413 69.892 40.8851 70.3273 40.5272C70.7613 40.1324 71.1948 39.7188 71.6274 39.2865C72.9571 37.988 73.8769 36.8592 74.3864 35.9006C74.8955 34.9418 75.1699 34.1254 75.2092 33.4514C75.2472 32.7401 75.165 32.2401 74.9621 31.9516C74.7578 31.6257 74.4798 31.4716 74.1281 31.4892ZM105.956 47.5991C105.927 46.8163 105.958 45.9188 106.049 44.9062C106.172 43.8921 106.326 42.8576 106.512 41.8028C106.696 40.7111 106.881 39.6563 107.068 38.639C107.255 37.6213 107.414 36.7175 107.545 35.9269C107.701 34.9483 107.658 34.2037 107.415 33.6932C107.172 33.1826 106.779 32.9408 106.235 32.968C105.979 32.9807 105.477 33.2671 104.729 33.8272C104.013 34.3856 103.231 35.3393 102.383 36.6884C101.566 37.9984 100.767 39.7746 99.984 42.0164C99.2318 44.2197 98.6776 47.01 98.321 50.3879C97.727 50.7911 97.1603 51.0619 96.6208 51.201C96.3361 51.2901 96.0822 51.3583 95.8597 51.4067C95.2214 51.476 94.8009 51.3666 94.598 51.0781C94.3968 50.8265 94.404 50.154 94.6203 49.0607C94.7289 48.5325 94.922 47.6825 95.1991 46.5116C95.5088 45.3385 95.7984 44.0733 96.0693 42.7159C96.3383 41.321 96.56 39.947 96.7348 38.5943C96.9399 37.2025 97.024 36.0036 96.9869 34.9973C96.9609 34.2893 96.8313 33.8104 96.598 33.5607C96.3964 33.3093 96.1037 33.1932 95.7202 33.2124C95.4324 33.2267 94.9595 33.437 94.3016 33.8432C93.6437 34.2494 92.9188 35.0136 92.1273 36.1358C91.3353 37.2582 90.5594 38.8089 89.7992 40.7882C89.0693 42.729 88.4731 45.2417 88.0096 48.3263L88.0056 48.2143C87.9524 48.5159 87.8997 48.8169 87.8465 49.1185C87.7919 49.3826 87.7544 49.6644 87.7334 49.9639C87.7124 50.2639 87.6748 50.5457 87.6203 50.8098L85.2672 52.1594C85.1098 52.2417 84.9043 52.3079 84.6495 52.3579C84.4274 52.4063 84.2012 52.362 83.9719 52.224C83.7762 52.1219 83.6224 51.8677 83.5116 51.463C83.4003 51.0578 83.4101 50.441 83.5397 49.6134L86.0256 34.872C86.1038 34.3828 86.1669 33.9129 86.2142 33.4625C86.2634 33.0494 86.2808 32.6564 86.267 32.2838C86.284 31.8723 86.2558 31.5376 86.1821 31.2799C86.7148 30.9547 87.1863 30.7071 87.5966 30.5373C88.0069 30.3675 88.3385 30.2389 88.5915 30.1516C88.9075 30.0239 89.177 29.9544 89.4009 29.9433C90.4244 29.8922 90.7976 30.9004 90.521 32.9677C90.415 33.5704 90.2555 34.4557 90.0418 35.6238C90.6166 34.699 91.2253 33.8286 91.8685 33.0125C92.5416 32.1575 93.2187 31.3957 93.8989 30.727C94.5792 30.0584 95.2643 29.5202 95.954 29.1124C96.6758 28.703 97.3887 28.4808 98.0921 28.4457C98.6356 28.4186 99.0902 28.5826 99.4558 28.9377C99.8531 29.2913 100.159 29.7801 100.374 30.4041C100.62 30.9892 100.775 31.7095 100.838 32.5651C100.9 33.3834 100.9 34.2421 100.837 35.1414C101.32 34.3332 101.85 33.5227 102.429 32.7098C103.039 31.8579 103.668 31.0985 104.316 30.4315C104.996 29.7628 105.696 29.2052 106.417 28.7586C107.137 28.3119 107.865 28.0702 108.601 28.0336C109.464 27.9905 110.131 28.2559 110.6 28.8299C111.102 29.4023 111.45 30.1503 111.644 31.0741C111.87 31.9962 111.955 33.0001 111.899 34.0856C111.874 35.1696 111.785 36.2194 111.63 37.2353L110.276 44.8635C109.993 46.7444 110.363 47.6596 111.386 47.6085C112.186 47.5684 113.049 47.0772 113.975 46.135C114.902 45.1927 115.79 44.0843 116.64 42.8097C117.522 41.5335 118.339 40.2235 119.091 38.8792C119.843 37.5348 120.475 36.458 120.99 35.6483C121.173 35.3778 121.359 35.2192 121.55 35.1724C121.772 35.1239 121.95 35.1711 122.083 35.3137C122.247 35.4176 122.335 35.6185 122.346 35.9167C122.389 36.2132 122.323 36.5899 122.147 37.0467C121.555 38.3828 120.825 39.8756 119.957 41.5242C119.087 43.1358 118.118 44.6588 117.049 46.0938C116.012 47.5267 114.888 48.7404 113.675 49.7342C112.462 50.728 111.184 51.2588 109.841 51.3255C109.393 51.3479 108.943 51.3145 108.492 51.225C108.071 51.1338 107.664 50.9489 107.27 50.6697C106.907 50.3895 106.605 50.0124 106.363 49.5389C106.12 49.0284 105.984 48.3815 105.956 47.5991ZM140.255 36.8155C139.356 38.5031 138.328 40.16 137.17 41.7857C136.011 43.3743 134.767 44.8182 133.437 46.1162C132.137 47.3762 130.782 48.4143 129.37 49.2316C127.991 50.0473 126.629 50.4884 125.286 50.5551C124.583 50.5905 123.808 50.4238 122.961 50.0551C122.148 49.7222 121.391 49.1628 120.689 48.3763C119.987 47.5898 119.405 46.5548 118.941 45.2714C118.509 43.9858 118.339 42.4076 118.431 40.5366C118.503 39.0021 118.844 37.3796 119.453 35.6689C120.094 33.9195 120.884 32.312 121.823 30.8463C122.795 29.3791 123.887 28.1486 125.099 27.1546C126.345 26.1591 127.606 25.6295 128.885 25.5657C130.101 25.5051 130.993 25.8153 131.563 26.4962C132.132 27.1772 132.405 28.0411 132.379 29.0878C132.326 30.2479 132.077 31.3243 131.632 32.3172C131.22 33.3086 130.709 34.2115 130.098 35.026C129.487 35.8405 128.826 36.5832 128.114 37.253C127.433 37.9218 126.783 38.5328 126.163 39.0865C125.479 39.6808 124.828 40.2548 124.207 40.8085C123.586 41.3247 123.043 41.7997 122.578 42.2336C122.644 43.1639 122.816 43.9395 123.096 44.5598C123.375 45.1807 123.714 45.6865 124.113 46.0777C124.51 46.4308 124.952 46.6892 125.439 46.8512C125.956 46.9751 126.47 47.0241 126.982 46.9986C128.069 46.9444 129.19 46.4965 130.344 45.6547C131.497 44.7755 132.613 43.7494 133.691 42.5753C134.8 41.3627 135.811 40.1173 136.726 38.8396C137.672 37.5603 138.448 36.4577 139.055 35.5313C139.268 35.222 139.486 35.0431 139.708 34.9947C139.961 34.9074 140.154 34.9351 140.288 35.0778C140.452 35.1816 140.54 35.4013 140.552 35.7367C140.563 36.0348 140.464 36.3944 140.255 36.8155ZM127.66 28.8191C127.276 28.8383 126.821 29.085 126.293 29.5593C125.798 30.0321 125.31 30.7098 124.83 31.5924C124.349 32.4379 123.907 33.4867 123.504 34.7388C123.1 35.9538 122.815 37.3494 122.648 38.9261C123.02 38.5713 123.423 38.2151 123.859 37.8572C124.293 37.4624 124.726 37.0488 125.159 36.6165C126.489 35.3181 127.408 34.1894 127.918 33.2306C128.427 32.2718 128.701 31.4553 128.741 30.7813C128.779 30.0701 128.696 29.5701 128.494 29.2815C128.289 28.9557 128.011 28.8015 127.66 28.8191ZM164.867 38.3323C164.6 39.7641 164.217 41.109 163.718 42.3659C163.219 43.6228 162.603 44.7177 161.868 45.6505C161.166 46.5814 160.343 47.3132 159.402 47.8455C158.494 48.4138 157.48 48.7253 156.361 48.7815C155.05 48.8466 153.998 48.5633 153.206 47.9304C152.447 47.3335 151.858 46.5605 151.439 45.6104C151.051 44.6593 150.805 43.6072 150.698 42.455C150.56 41.3049 150.472 40.2262 150.435 39.2198C150.409 38.512 150.461 37.7254 150.589 36.8603C150.685 35.9966 150.845 35.1113 151.068 34.2041C151.291 33.2969 151.578 32.3865 151.929 31.4729C152.312 30.5578 152.761 29.714 153.278 28.9414C153.446 28.2983 153.713 27.7249 154.08 27.2213C154.477 26.7161 154.926 26.3016 155.427 25.978C155.958 25.6154 156.525 25.3445 157.127 25.1652C157.728 24.9485 158.317 24.8258 158.892 24.7971C158.988 24.7923 159.068 24.8069 159.134 24.8411C159.231 24.8735 159.328 24.906 159.426 24.9385C159.843 24.955 160.361 25.1158 160.981 25.421C161.633 25.7245 162.259 26.1973 162.859 26.8394C163.492 27.4799 164.035 28.3116 164.489 29.3343C164.942 30.3198 165.194 31.5393 165.248 32.9928C165.259 33.2909 165.257 33.6644 165.241 34.1132C165.224 34.5248 165.205 34.8804 165.184 35.1802C165.907 34.8081 166.66 34.3598 167.441 33.8355C168.223 33.3111 168.972 32.7697 169.688 32.2112C170.435 31.614 171.118 31.0198 171.737 30.4289C172.356 29.838 172.85 29.3093 173.217 28.843C173.524 28.4916 173.789 28.2918 174.012 28.2433C174.234 28.1949 174.397 28.2614 174.5 28.443C174.602 28.6245 174.628 28.8846 174.576 29.2232C174.525 29.5619 174.363 29.9433 174.09 30.3676C173.938 30.5992 173.539 31.0671 172.892 31.7715C172.277 32.4742 171.536 33.2392 170.67 34.0665C169.803 34.8937 168.855 35.7064 167.827 36.5044C166.8 37.3025 165.813 37.9119 164.867 38.3323ZM156.449 30.2394C156.365 30.5796 156.33 30.936 156.344 31.3087C156.366 31.905 156.421 32.537 156.51 33.2046C156.597 33.835 156.778 34.4046 157.053 34.9136C157.328 35.4226 157.744 35.8499 158.301 36.1955C158.89 36.5022 159.679 36.6311 160.67 36.5816C160.83 36.5734 160.99 36.5654 161.15 36.5575C161.308 36.5122 161.467 36.467 161.626 36.4217C161.703 35.9325 161.768 35.4999 161.818 35.124C161.899 34.7093 161.934 34.3528 161.923 34.0547C161.961 33.3434 161.934 32.6167 161.843 31.8745C161.752 31.1324 161.599 30.4679 161.385 29.8812C161.202 29.2556 160.96 28.7636 160.658 28.4053C160.388 28.0081 160.06 27.8191 159.677 27.8382C159.069 27.8685 158.485 28.103 157.924 28.5417C157.394 28.9415 156.902 29.5074 156.449 30.2394ZM153.74 40.2314C153.765 40.9023 153.821 41.5716 153.91 42.2388C153.997 42.8696 154.147 43.4405 154.358 43.953C154.567 44.4275 154.838 44.825 155.17 45.1443C155.501 45.4266 155.922 45.5547 156.434 45.5292C157.009 45.5005 157.531 45.3255 158 45.0031C158.468 44.6437 158.884 44.2124 159.25 43.7087C159.614 43.1681 159.929 42.5737 160.194 41.9258C160.489 41.2387 160.735 40.5356 160.933 39.8167C160.711 39.8652 160.488 39.9136 160.266 39.9621C160.074 39.9714 159.85 39.9824 159.594 39.9954C158.379 40.0558 157.309 39.6985 156.383 38.9234C155.488 38.1093 154.777 37.0618 154.249 35.7815C154.086 36.5737 153.954 37.3457 153.854 38.0973C153.753 38.849 153.716 39.5605 153.74 40.2314ZM185.188 35.5265C185.07 36.6899 184.951 37.7973 184.829 38.8484C184.74 39.8985 184.691 40.7413 184.682 41.3762C184.684 42.3097 184.852 42.9732 185.188 43.367C185.522 43.7613 185.882 43.9488 186.265 43.9296C186.713 43.9072 187.247 43.6191 187.867 43.0654C188.52 42.5102 189.199 41.8232 189.906 41.0038C190.613 40.1845 191.317 39.2907 192.018 38.3224C192.719 37.3535 193.359 36.4444 193.936 35.5942C194.544 34.7051 195.045 33.9335 195.437 33.2792C195.861 32.6233 196.15 32.1982 196.303 32.0039C196.487 31.7707 196.674 31.6307 196.864 31.5838C197.087 31.5354 197.264 31.5639 197.396 31.6693C197.528 31.7747 197.6 31.9765 197.611 32.2747C197.622 32.5728 197.507 32.9519 197.268 33.4119C196.91 34.1391 196.446 35.0023 195.873 36.0016C195.3 36.9634 194.664 37.9661 193.965 39.0089C193.267 40.0522 192.52 41.0788 191.724 42.0893C190.96 43.0977 190.176 43.9957 189.372 44.7828C188.6 45.5677 187.838 46.2032 187.087 46.6887C186.37 47.2101 185.707 47.4856 185.099 47.5158C184.652 47.5382 184.215 47.4106 183.788 47.1335C183.393 46.8543 183.027 46.4803 182.69 46.012C182.352 45.5432 182.076 45.0156 181.862 44.4291C181.681 43.841 181.595 43.2478 181.605 42.6498C181.627 42.3873 181.659 41.9378 181.7 41.3007C180.421 43.1196 179.113 44.5848 177.776 45.6969C176.47 46.7704 175.193 47.3382 173.946 47.4002C173.499 47.4226 173.014 47.3158 172.493 47.0804C171.972 46.8454 171.492 46.4397 171.055 45.8641C170.649 45.287 170.3 44.5203 170.009 43.5644C169.718 42.6081 169.579 41.4388 169.592 40.0569C169.608 37.8906 169.901 35.8223 170.469 33.8525C171.038 31.8826 171.776 30.1657 172.683 28.7016C173.621 27.1987 174.683 26.007 175.867 25.1265C177.083 24.2071 178.314 23.7163 179.562 23.6541C180.105 23.627 180.607 23.77 181.067 24.0831C181.526 24.3589 181.925 24.7497 182.264 25.2555C182.601 25.7241 182.877 26.2517 183.09 26.8384C183.336 27.4235 183.517 27.9746 183.632 28.4916C183.816 27.3996 183.985 26.3271 184.139 25.274C184.292 24.2209 184.447 23.2237 184.605 22.2825C184.874 20.8876 185.155 19.3802 185.449 17.7601C185.718 16.3652 186.027 14.763 186.377 12.9533C186.727 11.1438 187.122 9.23856 187.561 7.23783C187.87 6.92374 188.165 6.68497 188.447 6.52157C188.73 6.35812 188.998 6.23274 189.251 6.14544C189.534 6.01929 189.804 5.94986 190.06 5.9371C190.38 5.92116 190.67 5.96267 190.929 6.06174C191.188 6.12352 191.405 6.35541 191.58 6.75737C191.785 7.12047 191.935 7.69177 192.027 8.4712C192.12 9.25064 192.159 10.3128 192.144 11.6576C192.141 13.3006 191.95 15.1023 191.574 17.0625C191.229 19.0212 190.743 21.0616 190.117 23.1837C189.488 25.2685 188.749 27.3776 187.898 29.5109C187.078 31.6053 186.174 33.6105 185.188 35.5265ZM182.384 36.3944C182.486 35.68 182.572 34.9663 182.642 34.2534C182.744 33.5389 182.861 32.805 182.994 32.0516C182.931 32.0921 182.868 32.1326 182.806 32.1731C182.775 32.2119 182.729 32.2516 182.666 32.292C182.321 32.4959 182.081 32.5079 181.947 32.3279C181.81 32.1107 181.734 31.7784 181.718 31.3312C181.709 31.1076 181.679 30.7171 181.627 30.1597C181.573 29.565 181.455 28.9735 181.273 28.3852C181.122 27.758 180.894 27.228 180.59 26.7951C180.285 26.325 179.876 26.1027 179.364 26.1282C178.629 26.1649 177.894 26.6496 177.159 27.5823C176.423 28.4777 175.743 29.5758 175.117 30.8764C174.491 32.1397 173.98 33.4907 173.584 34.9292C173.189 36.3677 172.979 37.6478 172.957 38.7687C172.958 40.5611 173.197 41.8372 173.674 42.5972C174.15 43.3577 174.772 43.7186 175.54 43.6806C176.116 43.6514 176.729 43.3597 177.382 42.8045C178.066 42.2477 178.714 41.5804 179.326 40.8033C179.971 40.0246 180.55 39.2302 181.065 38.4203C181.612 37.6093 182.052 36.9337 182.384 36.3944ZM214.53 42.8555C214.728 42.9951 214.97 43.0576 215.258 43.0436C215.578 43.0274 215.879 42.9378 216.161 42.7743C216.476 42.6092 216.756 42.3899 217.002 42.1164C217.28 41.8414 217.476 41.4955 217.588 41.0788C217.702 40.6626 217.68 40.085 217.525 39.3459C217.368 38.5698 217.13 37.7603 216.811 36.9176C216.523 36.0358 216.202 35.1557 215.849 34.2772C215.496 33.3987 215.195 32.5924 214.943 31.8582C214.731 31.3088 214.552 30.795 214.406 30.3169C214.263 29.9133 214.121 29.5284 213.979 29.1621C213.868 28.7569 213.778 28.4814 213.709 28.3355C213.56 28.6416 213.29 29.1405 212.899 29.832C212.539 30.522 212.134 31.2516 211.682 32.0209C211.26 32.7513 210.853 33.4437 210.46 34.098C210.066 34.715 209.794 35.1393 209.642 35.3709C209.399 35.7191 209.15 35.9368 208.897 36.0241C208.675 36.0725 208.481 36.0262 208.315 35.8851C208.149 35.7067 208.044 35.4693 208.001 35.1727C207.989 34.8373 208.102 34.4396 208.342 33.9796C208.522 33.6719 208.793 33.1917 209.154 32.539C209.513 31.849 209.872 31.1591 210.231 30.4691C210.588 29.7419 210.918 29.1094 211.219 28.5717C211.518 27.9967 211.681 27.6525 211.709 27.5391C211.762 27.2378 211.652 26.8513 211.378 26.3796C211.136 25.9063 211.084 25.3488 211.221 24.7072C211.33 24.1791 211.595 23.5685 212.018 22.8753C212.44 22.1449 212.944 21.485 213.532 20.8957C214.118 20.3064 214.727 19.8654 215.357 19.5726C215.986 19.2425 216.561 19.2138 217.084 19.4864C217.511 19.7638 217.859 20.0825 218.128 20.4424C218.397 20.7651 218.505 21.1144 218.455 21.4902C218.398 21.6797 218.311 21.9268 218.194 22.2313C218.077 22.5358 217.899 22.918 217.66 23.378C217.419 23.8008 217.07 24.3595 216.615 25.0543C216.743 25.9066 216.9 26.6829 217.086 27.383C217.303 28.0815 217.502 28.6877 217.681 29.2015C217.896 29.8254 218.125 30.3927 218.368 30.9033C218.681 31.5598 219.01 32.2341 219.356 32.9262C219.701 33.6184 220.015 34.3121 220.297 35.0075C220.578 35.6655 220.809 36.2887 220.99 36.8769C221.172 37.4655 221.239 37.9661 221.189 38.3791C221.117 39.0177 220.857 39.7959 220.41 40.7142C219.996 41.631 219.452 42.5357 218.78 43.428C218.139 44.2812 217.381 45.0286 216.508 45.6693C215.666 46.3089 214.766 46.6522 213.806 46.7001C213.135 46.7334 212.471 46.5241 211.813 46.0714C211.188 45.6172 210.639 45.0844 210.168 44.4734C209.728 43.8233 209.384 43.1868 209.137 42.5649C208.922 41.9409 208.888 41.457 209.036 41.1137C209.211 40.6569 209.374 40.2939 209.525 40.0251C209.675 39.7563 209.904 39.4464 210.211 39.0948C210.335 38.9766 210.49 38.838 210.677 38.6797C210.833 38.5599 211.052 38.4369 211.336 38.3109C211.62 38.1843 211.95 38.0374 212.329 37.8692C212.691 39.0083 213.012 39.9074 213.293 40.5652C213.572 41.1861 213.798 41.6789 213.972 42.0435C214.179 42.444 214.365 42.7144 214.53 42.8555ZM223.272 44.0436C223.063 44.465 222.833 44.738 222.581 44.8625C222.299 45.026 222.06 45.0562 221.863 44.9541C221.637 44.8906 221.486 44.7114 221.411 44.4166C221.337 44.1218 221.387 43.7457 221.562 43.2889C221.65 43.0608 221.855 42.5461 222.178 41.7461C222.47 40.9476 222.835 39.9959 223.275 38.8912C223.682 37.751 224.133 36.5336 224.63 35.2393C225.126 33.9078 225.593 32.6525 226.03 31.4733C226.499 30.2924 226.925 29.2444 227.308 28.3293C227.689 27.3768 227.969 26.6908 228.146 26.2713C227.78 25.9161 227.531 25.6673 227.398 25.5246C227.263 25.3446 227.153 24.9767 227.069 24.4209C226.987 23.9396 227.059 23.3012 227.286 22.5058C227.514 21.7104 227.822 20.9484 228.212 20.2195C228.6 19.4534 229.04 18.7967 229.533 18.2494C230.026 17.7022 230.511 17.4166 230.991 17.3927C231.887 17.348 232.523 17.6523 232.899 18.3056C233.307 18.9573 233.556 19.6356 233.646 20.3405C233.728 20.8218 233.719 21.4383 233.618 22.19C233.517 22.9418 233.303 23.6246 232.973 24.2384C233.071 24.3082 233.202 24.3949 233.366 24.4987C233.529 24.5653 233.787 24.5898 234.138 24.5723C234.65 24.5468 235 24.492 235.189 24.4079C235.41 24.3222 235.745 24.2682 236.192 24.2458C236.736 24.2187 237.19 24.364 237.554 24.6819C237.917 24.9625 238.219 25.3395 238.461 25.8128C238.701 26.2489 238.879 26.744 238.996 27.2982C239.143 27.8136 239.241 28.2941 239.289 28.7398C239.419 29.6667 239.247 30.646 238.772 31.6778C238.297 32.7095 237.714 33.84 237.022 35.0693C236.602 35.837 236.185 36.6977 235.772 37.652C235.358 38.6057 235.197 39.4542 235.289 40.1965C235.371 40.6778 235.497 41.0632 235.667 41.3533C235.838 41.6435 236.292 41.7706 237.027 41.7336C237.57 41.7065 238.154 41.4533 238.777 40.9741C239.431 40.4564 240.08 39.8266 240.726 39.0849C241.402 38.3046 242.06 37.4692 242.7 36.5783C243.339 35.6503 243.931 34.7621 244.476 33.9135C245.021 33.0276 245.472 32.2396 245.832 31.5497C246.223 30.8581 246.509 30.3585 246.689 30.0508C246.839 29.7446 247.039 29.5293 247.29 29.4047C247.542 29.2802 247.766 29.269 247.962 29.3712C248.158 29.4735 248.278 29.6915 248.322 30.0253C248.399 30.3575 248.303 30.8103 248.036 31.3837C247.858 31.766 247.544 32.379 247.094 33.2228C246.677 34.0651 246.151 35.006 245.516 36.0458C244.914 37.0837 244.232 38.1635 243.473 39.2839C242.711 40.3673 241.899 41.3788 241.037 42.3175C240.205 43.2181 239.352 43.9697 238.477 44.5734C237.634 45.1755 236.813 45.4964 236.013 45.5365C235.182 45.5781 234.487 45.4261 233.93 45.0802C233.373 44.7348 232.909 44.3098 232.538 43.8056C232.198 43.2629 231.936 42.6784 231.752 42.0529C231.6 41.3882 231.529 40.7757 231.541 40.2152C231.556 39.7662 231.635 39.2959 231.778 38.8031C231.95 38.2718 232.139 37.74 232.343 37.2066C232.579 36.6352 232.815 36.0819 233.051 35.5474C233.319 34.974 233.555 34.4208 233.759 33.8879C234.263 32.78 234.662 31.8455 234.954 31.0842C235.277 30.2839 235.429 29.623 235.41 29.1012C235.397 28.7659 235.323 28.4709 235.185 28.2164C235.047 27.9619 234.835 27.8418 234.547 27.8561C234.355 27.8657 234.212 27.8916 234.117 27.9336C234.053 27.9368 233.973 27.9408 233.878 27.9456C233.814 27.9488 233.702 27.973 233.544 28.0182C233.416 28.0246 233.208 28.035 232.92 28.0493C232.505 28.0701 232.15 28.013 231.857 27.8783C231.563 27.7436 231.288 27.6454 231.029 27.5836C230.91 27.8508 230.643 28.4242 230.227 29.3037C229.811 30.1832 229.32 31.2158 228.755 32.4014C228.222 33.5854 227.643 34.8278 227.018 36.1284C226.425 37.4275 225.861 38.6505 225.326 39.797C224.79 40.9064 224.345 41.8622 223.99 42.6638C223.602 43.4301 223.363 43.89 223.272 44.0436ZM259.921 31.799C259.803 32.9623 259.684 34.0697 259.562 35.1212C259.473 36.171 259.424 37.0134 259.415 37.6489C259.417 38.5823 259.586 39.2459 259.921 39.6396C260.255 40.0334 260.615 40.2209 260.998 40.2022C261.446 40.1798 261.98 39.8918 262.6 39.3381C263.253 38.7828 263.932 38.0953 264.639 37.2759C265.346 36.4568 266.05 35.563 266.751 34.5946C267.452 33.6262 268.092 32.7169 268.669 31.8667C269.277 30.9777 269.778 30.206 270.17 29.5516C270.594 28.8958 270.884 28.4707 271.036 28.2763C271.22 28.0432 271.407 27.9032 271.598 27.8563C271.82 27.8079 271.997 27.8364 272.129 27.9418C272.261 28.0473 272.333 28.249 272.344 28.5472C272.355 28.8453 272.24 29.2244 272.001 29.6844C271.643 30.4116 271.179 31.2749 270.606 32.2741C270.033 33.2361 269.397 34.2386 268.698 35.2815C268 36.3244 267.253 37.3509 266.457 38.3614C265.693 39.3704 264.909 40.2683 264.105 41.0549C263.333 41.8403 262.571 42.4758 261.82 42.9613C261.103 43.4821 260.44 43.7582 259.832 43.7884C259.385 43.8108 258.948 43.6832 258.521 43.4056C258.126 43.1269 257.76 42.7529 257.423 42.2847C257.085 41.8159 256.809 41.2882 256.596 40.7017C256.414 40.1131 256.328 39.5204 256.338 38.9224C256.36 38.6599 256.392 38.2104 256.433 37.5733C255.154 39.3922 253.846 40.8575 252.509 41.9695C251.203 43.0425 249.926 43.6103 248.68 43.6728C248.232 43.6952 247.747 43.5884 247.226 43.353C246.705 43.1175 246.225 42.7123 245.788 42.1367C245.382 41.5596 245.034 40.7929 244.742 39.8365C244.451 38.8807 244.312 37.7114 244.325 36.3292C244.341 34.1629 244.634 32.0948 245.202 30.1249C245.771 28.1551 246.509 26.4382 247.416 24.9741C248.354 23.4712 249.416 22.2795 250.6 21.399C251.816 20.4796 253.048 19.9888 254.295 19.9266C254.838 19.8995 255.34 20.0425 255.8 20.3556C256.259 20.6314 256.658 21.0222 256.997 21.528C257.334 21.9966 257.61 22.5242 257.824 23.1109C258.069 23.696 258.25 24.2471 258.365 24.764C258.549 23.6721 258.718 22.5996 258.872 21.5465C259.025 20.4934 259.181 19.4963 259.338 18.555C259.608 17.1601 259.888 15.6526 260.182 14.0325C260.451 12.6377 260.76 11.0354 261.11 9.22585C261.46 7.41622 261.855 5.51107 262.294 3.51034C262.603 3.19625 262.898 2.95748 263.18 2.79403C263.463 2.63063 263.731 2.50526 263.984 2.41796C264.267 2.2918 264.537 2.22232 264.793 2.20955C265.113 2.19362 265.403 2.23518 265.663 2.3342C265.921 2.39598 266.138 2.62787 266.313 3.02983C266.518 3.39298 266.668 3.96423 266.76 4.74366C266.853 5.5231 266.892 6.58527 266.877 7.93012C266.874 9.57312 266.683 11.3747 266.307 13.335C265.962 15.2937 265.476 17.3341 264.85 19.4562C264.221 21.541 263.482 23.6501 262.631 25.7833C261.811 27.8778 260.908 29.883 259.921 31.799ZM257.117 32.6669C257.219 31.9524 257.305 31.2388 257.375 30.5259C257.477 29.8114 257.594 29.0775 257.727 28.3242C257.664 28.3646 257.602 28.405 257.539 28.4455C257.508 28.4844 257.462 28.5241 257.399 28.5645C257.054 28.7684 256.815 28.7803 256.68 28.6004C256.543 28.3832 256.467 28.051 256.451 27.6037C256.443 27.3801 256.412 26.9896 256.36 26.4322C256.306 25.8375 256.188 25.246 256.006 24.6577C255.855 24.0305 255.628 23.5004 255.323 23.0676C255.018 22.5974 254.609 22.3751 254.097 22.4007C253.362 22.4374 252.627 22.9221 251.892 23.8548C251.156 24.7502 250.476 25.8482 249.85 27.1489C249.224 28.4122 248.713 29.7631 248.317 31.2017C247.922 32.6402 247.713 33.9201 247.69 35.0413C247.691 36.8332 247.93 38.1093 248.407 38.8698C248.883 39.6303 249.505 39.9912 250.273 39.9527C250.849 39.924 251.463 39.6324 252.115 39.0771C252.799 38.5203 253.447 37.853 254.06 37.0759C254.704 36.2969 255.283 35.5026 255.798 34.6928C256.345 33.8815 256.785 33.2062 257.117 32.6669ZM290.105 29.3414C289.206 31.0291 288.178 32.6858 287.02 34.3117C285.861 35.9003 284.617 37.3436 283.287 38.6422C281.987 39.9016 280.632 40.9403 279.22 41.7575C277.841 42.5727 276.479 43.0139 275.136 43.0811C274.433 43.116 273.658 42.9493 272.811 42.581C271.998 42.2482 271.241 41.6888 270.539 40.9023C269.837 40.1157 269.254 39.0807 268.791 37.7973C268.359 36.5119 268.189 34.9335 268.281 33.0622C268.352 31.5278 268.694 29.9053 269.304 28.1948C269.944 26.4454 270.734 24.8378 271.673 23.3722C272.644 21.9049 273.737 20.6744 274.949 19.6805C276.195 18.685 277.457 18.1553 278.736 18.0915C279.951 18.0309 280.843 18.3411 281.413 19.0221C281.982 19.703 282.255 20.5669 282.229 21.6136C282.175 22.7737 281.927 23.8502 281.482 24.8431C281.07 25.8344 280.559 26.7373 279.948 27.5519C279.337 28.3663 278.675 29.1087 277.964 29.779C277.283 30.4477 276.633 31.0588 276.013 31.6124C275.329 32.2066 274.678 32.7805 274.057 33.3341C273.436 33.8505 272.893 34.3256 272.428 34.7595C272.494 35.6896 272.666 36.4651 272.946 37.0858C273.225 37.7067 273.564 38.2125 273.962 38.6031C274.36 38.9568 274.802 39.2146 275.289 39.3771C275.806 39.5006 276.32 39.5495 276.831 39.524C277.919 39.4698 279.04 39.0219 280.194 38.1807C281.347 37.3014 282.463 36.2751 283.541 35.1013C284.65 33.8885 285.661 32.6433 286.576 31.3656C287.522 30.0863 288.298 28.9835 288.905 28.0572C289.118 27.7479 289.335 27.569 289.558 27.5205C289.811 27.4333 290.004 27.461 290.138 27.6036C290.302 27.7075 290.39 27.9271 290.402 28.2625C290.413 28.5607 290.314 28.9203 290.105 29.3414ZM277.509 21.3449C277.126 21.3641 276.671 21.6108 276.143 22.0852C275.648 22.5579 275.16 23.2356 274.68 24.1183C274.198 24.9637 273.756 26.0125 273.354 27.2647C272.95 28.4796 272.665 29.8753 272.498 31.4517C272.87 31.0971 273.273 30.741 273.709 30.3832C274.143 29.9882 274.576 29.5746 275.009 29.1423C276.338 27.8439 277.258 26.7153 277.768 25.7564C278.277 24.7976 278.551 23.9812 278.591 23.3072C278.629 22.5959 278.546 22.0959 278.343 21.8074C278.139 21.4815 277.861 21.3274 277.509 21.3449ZM280.924 7.00551C281.202 6.73028 281.522 6.73294 281.885 7.01353C282.247 7.29413 282.52 7.72859 282.702 8.31692C282.954 9.08839 282.992 9.68385 282.815 10.1034C282.637 10.4856 282.361 10.8354 281.989 11.1527C281.804 11.3486 281.446 11.6278 280.914 11.9903C280.415 12.3513 279.852 12.734 279.227 13.1386C278.631 13.5044 278.035 13.8514 277.439 14.1799C276.841 14.4711 276.382 14.6433 276.064 14.6965C275.714 14.7513 275.441 14.7276 275.244 14.6253C275.047 14.4859 274.881 14.3261 274.746 14.1461C274.644 13.9646 274.572 13.7628 274.532 13.5408C274.49 13.2815 274.466 13.0587 274.459 12.8724C276.88 10.7355 278.57 9.21371 279.53 8.30713C280.087 7.79391 280.552 7.36002 280.924 7.00551ZM295.163 38.8339C296.154 38.7844 297.225 38.2833 298.376 37.3296C299.557 36.3372 300.684 35.1983 301.758 33.9126C302.864 32.6253 303.858 31.325 304.739 30.0116C305.65 28.6594 306.331 27.58 306.782 26.7735C307.052 26.2746 307.314 25.9815 307.567 25.8943C307.819 25.7697 308.012 25.7974 308.147 25.9774C308.281 26.1573 308.34 26.4531 308.323 26.8646C308.305 27.2389 308.177 27.6746 307.939 28.1719C307.732 28.6303 307.372 29.3016 306.86 30.1859C306.378 31.0313 305.788 31.9755 305.089 33.0184C304.422 34.0225 303.643 35.0694 302.754 36.1592C301.895 37.2103 300.986 38.189 300.026 39.0953C299.065 39.9647 298.066 40.6866 297.03 41.2611C295.996 41.8726 294.967 42.2039 293.943 42.255C292.536 42.3253 291.341 42.0674 290.359 41.482C289.41 40.9319 288.629 40.1866 288.018 39.2464C287.439 38.3046 287.016 37.2613 286.75 36.1173C286.482 34.9359 286.327 33.7675 286.285 32.6122C286.243 31.4569 286.414 30.0109 286.798 28.2743C287.183 26.5376 287.778 24.8651 288.584 23.2568C289.421 21.6096 290.49 20.1935 291.792 19.0084C293.093 17.7861 294.655 17.1295 296.477 17.0386C297.501 16.9876 298.379 17.3544 299.113 18.1393C299.878 18.9225 300.271 20.023 300.291 21.4407C300.316 22.1116 300.244 22.7872 300.077 23.4676C299.909 24.1107 299.674 24.7011 299.373 25.2389C299.072 25.7393 298.702 26.1497 298.265 26.4702C297.86 26.7891 297.402 26.9613 296.891 26.9868C296.475 27.0075 296.149 26.8558 295.913 26.5315C295.708 26.1684 295.564 25.7648 295.484 25.3208C295.434 24.8379 295.417 24.3721 295.433 23.9233C295.48 23.4729 295.533 23.1715 295.592 23.0192C295.742 22.7504 295.911 22.5553 296.099 22.4339C296.287 22.3125 296.506 22.171 296.756 22.0091C296.944 21.8878 297.081 21.7128 297.169 21.4844C297.289 21.2545 297.344 21.009 297.334 20.7481C297.325 20.4873 297.253 20.2668 297.118 20.0869C296.983 19.9069 296.772 19.8241 296.484 19.8385C296.196 19.8529 295.679 20.1587 294.932 20.756C294.216 21.3144 293.478 22.154 292.718 23.2746C291.989 24.3564 291.35 25.7137 290.801 27.3465C290.252 28.9794 290.001 30.8587 290.047 32.9846C290.06 34.2161 290.241 35.2151 290.59 35.9818C290.938 36.7483 291.36 37.3436 291.856 37.7666C292.352 38.1901 292.892 38.4807 293.474 38.638C294.057 38.7958 294.62 38.8609 295.163 38.8339ZM329.121 27.8994C328.438 29.3523 327.645 30.8667 326.741 32.4425C325.868 33.9795 324.928 35.4079 323.919 36.7274C322.909 38.0098 321.859 39.0891 320.77 39.9647C319.681 40.8408 318.577 41.3064 317.457 41.3622C316.338 41.4179 315.507 41.0116 314.962 40.1428C314.451 39.3094 314.192 38.3515 314.184 37.2691C314.166 36.7847 314.182 36.3545 314.232 35.9786C314.315 35.6012 314.398 35.261 314.484 34.9581C314.568 34.6551 314.653 34.3522 314.738 34.0493C314.854 33.7075 314.952 33.3292 315.033 32.9145C315.143 32.4236 315.128 31.995 314.986 31.6287C314.875 31.2236 314.734 30.8759 314.563 30.5857C314.289 30.9728 313.965 31.3249 313.593 31.6422C313.25 31.9206 312.807 32.0734 312.264 32.1005C311.88 32.1196 311.521 31.9322 311.186 31.5382C310.85 31.1069 310.67 30.5745 310.647 29.941C310.628 29.4192 310.708 28.9859 310.887 28.6408C311.099 28.2943 311.329 28.0214 311.578 27.8223C311.859 27.6217 312.142 27.4768 312.427 27.388C312.712 27.2991 312.951 27.2498 313.143 27.2403C313.239 27.2355 313.431 27.2445 313.721 27.2675C314.041 27.2888 314.379 27.3279 314.734 27.3849C315.845 26.2467 316.625 25.2371 317.074 24.356C317.552 23.4361 317.571 22.6324 317.129 21.945C316.855 21.4733 316.527 21.247 316.143 21.2661C315.758 21.248 315.362 21.3797 314.956 21.6614C314.549 21.9057 314.144 22.2246 313.742 22.618C313.372 23.0098 313.033 23.3814 312.726 23.7328C312.113 24.51 311.427 25.4404 310.666 26.5238C309.935 27.5683 309.326 28.4387 308.839 29.1351C308.656 30.2643 308.476 31.4494 308.297 32.6904C308.145 33.7807 307.966 35.0218 307.761 36.4135C307.586 37.7661 307.398 39.1756 307.195 40.6418C307.008 40.7632 306.802 40.8481 306.58 40.8965C306.391 40.9809 306.217 41.0455 306.059 41.0908C305.868 41.1377 305.677 41.1658 305.485 41.1752C305.229 41.1882 304.989 41.1814 304.763 41.1554C304.54 41.1663 304.36 41.082 304.226 40.9023C304.06 40.7611 303.971 40.5043 303.957 40.1314C303.912 39.7605 303.972 39.2344 304.139 38.5541C304.359 37.5723 304.632 36.2708 304.957 34.6491C305.281 32.9902 305.614 31.1814 305.959 29.2227C306.304 27.264 306.645 25.2308 306.985 23.1231C307.354 20.9764 307.696 18.9432 308.01 17.0234C308.322 15.0663 308.579 13.3174 308.778 11.7767C309.009 10.197 309.172 8.95682 309.266 8.05601C309.327 7.08224 309.389 6.14576 309.452 5.24657C309.488 4.49797 309.493 3.76968 309.467 3.06155C309.472 2.31462 309.42 1.75717 309.31 1.38928C309.463 1.19499 309.681 1.01613 309.963 0.852676C310.246 0.689225 310.561 0.561506 310.91 0.469416C311.258 0.340082 311.67 0.226167 312.147 0.127722C312.688 0.0260467 313.135 -0.0148941 313.488 0.00479496C313.873 0.0229214 314.152 0.195695 314.324 0.52317C314.53 0.886272 314.585 1.51825 314.49 2.41905C314.425 3.281 314.246 4.50339 313.952 6.08617C313.578 8.12102 313.182 9.98888 312.764 11.6899C312.376 13.352 311.986 14.921 311.591 16.3967C311.229 17.871 310.865 19.3079 310.5 20.7076C310.166 22.0683 309.864 23.4648 309.597 24.897C310.196 23.7843 310.954 22.6077 311.87 21.3673C312.784 20.0896 313.834 19.0291 315.021 18.1858C316.271 17.3394 317.312 16.8955 318.143 16.854C319.167 16.803 319.917 17.1762 320.395 17.9738C320.872 18.7341 321.113 19.6554 321.121 20.7378C321.121 21.5966 320.958 22.4074 320.634 23.1703C320.34 23.8944 319.965 24.5851 319.509 25.2426C319.051 25.8628 318.558 26.4101 318.031 26.8845C317.504 27.3588 317.054 27.7546 316.681 28.0718C317.14 28.3477 317.539 28.7385 317.878 29.2443C318.247 29.7112 318.43 30.3182 318.425 31.0652C318.43 32.073 318.287 32.9762 317.996 33.7748C317.735 34.5345 317.617 35.2311 317.64 35.8647C317.69 36.3476 317.783 36.6977 317.919 36.915C318.087 37.1306 318.411 37.2264 318.891 37.2025C319.754 37.1592 320.634 36.6863 321.53 35.7827C322.457 34.8777 323.317 33.8454 324.107 32.6859C324.897 31.5264 325.624 30.3887 326.289 29.2728C326.951 28.1197 327.464 27.2727 327.829 26.7318C328.348 26.0338 328.79 25.8438 329.153 26.1617C329.548 26.4407 329.537 27.0199 329.121 27.8994ZM350.755 26.8204C350.334 27.5881 349.793 28.5485 349.13 29.7017C348.467 30.8175 347.771 31.9536 347.045 33.11C346.349 34.2274 345.65 35.2703 344.949 36.2387C344.279 37.1681 343.71 37.8312 343.244 38.2281C342.933 38.4677 342.572 38.6724 342.162 38.8422C341.751 39.012 341.323 39.1266 340.877 39.186C340.462 39.2443 340.061 39.2266 339.674 39.1339C339.287 39.0787 338.946 38.9464 338.65 38.737C338.352 38.4906 338.099 38.1296 337.889 37.6551C337.714 37.253 337.534 36.7207 337.35 36.0577C337.197 35.3933 337.119 34.5571 337.113 33.5493C336.401 35.0783 335.596 36.2759 334.699 37.1421C333.8 37.9708 332.942 38.5922 332.124 39.0068C331.18 39.4646 330.229 39.7542 329.273 39.8766C328.825 39.899 328.339 39.7365 327.813 39.3896C327.289 39.0797 326.838 38.5609 326.458 37.8333C326.078 37.0681 325.818 36.0915 325.678 34.9037C325.537 33.6786 325.611 32.2188 325.902 30.5242C326.266 28.2285 326.894 26.125 327.784 24.2138C328.707 22.3009 329.721 20.6636 330.824 19.3018C331.926 17.9027 333.024 16.8398 334.119 16.1132C335.213 15.3866 336.13 15.0421 336.868 15.08C337.738 15.2233 338.452 15.4864 339.011 15.8692C339.473 16.2195 339.781 16.7642 339.936 17.5032C340.122 18.2033 339.901 19.1664 339.274 20.3925C339.717 20.2584 340.082 20.1655 340.369 20.1139C340.687 20.0606 340.926 20.03 341.086 20.022C341.278 20.0125 341.406 20.0247 341.472 20.0588C341.506 20.1317 341.529 20.2987 341.538 20.5595C341.547 20.7831 341.514 21.2141 341.442 21.8525C341.369 22.4908 341.257 23.3552 341.104 24.4455C340.952 25.5359 340.748 26.9462 340.491 28.6764C340.439 29.015 340.387 29.335 340.334 29.6363C340.311 29.8988 340.274 30.1807 340.221 30.4821C340.198 30.7446 340.162 31.0637 340.112 31.4396C340.061 31.8155 339.998 32.2853 339.923 32.8491C339.904 33.1861 339.901 33.5596 339.916 33.9696C339.962 34.3406 340.039 34.6915 340.147 35.0221C340.255 35.3527 340.41 35.6251 340.609 35.8391C340.84 36.0143 341.148 36.0923 341.531 36.0732C341.851 36.0572 342.259 35.8129 342.754 35.3401C343.248 34.8301 343.769 34.2067 344.319 33.4699C344.867 32.6959 345.429 31.8651 346.005 30.9776C346.612 30.0513 347.172 29.1646 347.686 28.3176C348.199 27.4705 348.653 26.7199 349.045 26.0656C349.469 25.4097 349.772 24.9279 349.953 24.6202C350.196 24.2721 350.445 24.0729 350.7 24.0229C350.953 23.9356 351.147 24.0006 351.284 24.2178C351.42 24.435 351.448 24.7697 351.369 25.2217C351.321 25.6721 351.116 26.205 350.755 26.8204ZM336.79 29.9811C336.923 29.2278 337.083 28.3424 337.269 27.325C337.456 26.3076 337.613 25.3291 337.738 24.3894C337.864 23.4497 337.948 22.6801 337.99 22.0806C338.063 21.4423 338.035 21.1449 337.909 21.1886C337.751 21.2338 337.577 21.2985 337.388 21.3826C337.231 21.4651 337.025 21.5314 336.77 21.5814C336.516 21.6314 336.262 21.7001 336.009 21.7874C336.243 21.1784 336.369 20.6867 336.387 20.3124C336.436 19.8993 336.44 19.5817 336.4 19.3597C336.359 19.1004 336.288 18.8986 336.186 18.7543C335.822 18.4365 335.209 18.7471 334.346 19.6862C333.514 20.5864 332.565 22.2392 331.501 24.6445C331.057 25.6374 330.711 26.7 330.464 27.8324C330.216 28.9276 330.046 29.9628 329.953 30.9382C329.893 31.9119 329.909 32.7699 330 33.5121C330.09 34.217 330.235 34.6764 330.435 34.8905C330.802 35.2829 331.209 35.4679 331.657 35.4456C332.103 35.386 332.545 35.2146 332.984 34.9314C333.452 34.6093 333.902 34.2135 334.333 33.744C334.797 33.2728 335.196 32.7862 335.53 32.2842C335.896 31.7806 336.183 31.3182 336.392 30.8971C336.632 30.4744 336.765 30.169 336.79 29.9811Z" fill="white"/>
<path d="M294.671 12.3731C294.392 11.9288 294.143 11.5594 293.922 11.2649C293.7 10.9399 293.429 10.6786 293.107 10.4808C293.285 10.3192 293.504 10.2319 293.766 10.2188C294.052 10.1739 294.326 10.145 294.588 10.1319C294.877 10.1481 295.192 10.1629 295.533 10.1764C296.033 10.2126 296.447 10.4211 296.775 10.8018C297.13 11.1813 297.564 11.9233 298.076 13.0281C298.077 13.0585 298.078 13.0891 298.079 13.1195C298.105 13.1182 298.119 13.1328 298.12 13.1633C299.055 12.2003 299.686 11.5426 300.014 11.1902C300.366 10.806 300.568 10.5821 300.618 10.5185C301.048 10.1 301.474 9.91073 301.895 9.95079C302.316 9.9909 302.708 9.98657 303.074 9.93782L303.545 9.91433C303.676 9.90781 303.819 9.90063 303.976 9.89281C304.132 9.85448 304.275 9.81682 304.405 9.77979C304.279 9.93876 304.065 10.1786 303.763 10.4992C303.459 10.7892 303.142 11.0952 302.813 11.4171C302.434 11.7721 302.029 12.1741 301.6 12.6232C301.448 12.7835 301.246 12.9921 300.993 13.2491C300.741 13.5061 300.475 13.7638 300.196 14.0221C299.944 14.279 299.703 14.5201 299.476 14.7453C299.273 14.9387 299.121 15.0685 299.018 15.1347C298.943 15.2301 298.763 15.3154 298.477 15.3908C298.19 15.4357 297.89 15.4659 297.576 15.4815C297.262 15.4972 296.96 15.4818 296.67 15.4351C296.406 15.3872 296.247 15.3188 296.191 15.2299C296.135 15.141 296.037 14.9626 295.896 14.6948C295.755 14.4268 295.601 14.1444 295.432 13.8472C295.263 13.5197 295.108 13.2219 294.967 12.954C294.826 12.6861 294.727 12.4925 294.671 12.3731Z" fill="white"/>
<path d="M55.4464 23.5886C55.1679 23.1443 54.9181 22.7749 54.6978 22.4804C54.4761 22.1554 54.2043 21.8941 53.8825 21.6963C54.06 21.5347 54.2799 21.4474 54.5413 21.4343C54.8283 21.3894 55.1022 21.3605 55.3637 21.3475C55.6529 21.3636 55.968 21.3784 56.309 21.3919C56.8087 21.4281 57.2225 21.6366 57.551 22.0174C57.9059 22.3968 58.3394 23.1389 58.8516 24.2436C58.8525 24.2741 58.8539 24.3046 58.8548 24.335C58.8811 24.3337 58.895 24.3483 58.8959 24.3789C59.8304 23.4158 60.4615 22.758 60.7891 22.4057C61.1422 22.0215 61.3438 21.7976 61.3938 21.7341C61.8238 21.3154 62.2497 21.1262 62.6703 21.1663C63.0913 21.2064 63.4842 21.2021 63.8493 21.1533L64.3204 21.1298C64.4513 21.1233 64.5953 21.1161 64.7521 21.1083C64.9081 21.07 65.0507 21.0323 65.1803 20.9953C65.0552 21.1543 64.8411 21.3941 64.5385 21.7146C64.2346 22.0048 63.9181 22.3107 63.5892 22.6326C63.2093 22.9876 62.8044 23.3897 62.3753 23.8387C62.2238 23.999 62.0218 24.2076 61.7693 24.4646C61.5167 24.7216 61.2508 24.9793 60.9719 25.2376C60.7194 25.4945 60.4789 25.7356 60.2514 25.9608C60.049 26.1542 59.8966 26.284 59.7938 26.3502C59.7187 26.4456 59.5386 26.531 59.253 26.6063C58.966 26.6512 58.6657 26.6814 58.3519 26.6971C58.0377 26.7127 57.7361 26.6972 57.446 26.6506C57.1819 26.6027 57.0223 26.5343 56.9664 26.4454C56.911 26.3566 56.8127 26.1782 56.6719 25.9102C56.5307 25.6423 56.3765 25.3599 56.208 25.0628C56.0386 24.7352 55.8835 24.4374 55.7427 24.1695C55.6019 23.9016 55.5031 23.708 55.4464 23.5886Z" fill="white"/>
<path d="M134.393 91.199C134.28 91.381 134.091 91.6461 133.828 91.9945C133.582 92.3419 133.276 92.7188 132.91 93.1253C132.562 93.5309 132.153 93.9573 131.684 94.4045C131.231 94.8332 130.742 95.2286 130.215 95.5908C130.166 95.9983 130.065 96.5757 129.91 97.3231C129.757 98.0881 129.545 98.9178 129.276 99.8121C129.006 100.706 128.684 101.612 128.31 102.53C127.937 103.465 127.506 104.315 127.018 105.08C126.549 105.861 126.019 106.497 125.429 106.985C124.839 107.492 124.202 107.763 123.518 107.799C122.833 107.835 122.292 107.749 121.894 107.541C121.495 107.333 121.199 107.05 121.004 106.69C120.792 106.349 120.657 105.96 120.599 105.523C120.542 105.104 120.511 104.692 120.508 104.287C120.498 103.76 120.623 103.137 120.885 102.419C121.147 101.719 121.522 100.995 122.011 100.248C122.518 99.5167 123.132 98.8067 123.853 98.1175C124.574 97.4458 125.389 96.866 126.296 96.3781C126.742 96.161 127.154 95.9545 127.531 95.7586C127.907 95.5452 128.257 95.3419 128.581 95.1488C128.691 94.5621 128.68 94.1755 128.546 93.9889C128.431 93.8013 128.268 93.7131 128.057 93.7242C127.741 93.7409 127.371 93.9012 126.947 94.2051C126.541 94.5082 126.037 94.9748 125.437 95.6049C125.262 95.6317 125.103 95.6225 124.96 95.5772C124.833 95.5134 124.724 95.44 124.632 95.3569C124.522 95.2746 124.428 95.1739 124.352 95.0548C124.143 94.7665 124.039 94.4727 124.041 94.1734C124.061 93.8731 124.188 93.6287 124.425 93.4403C124.661 93.2342 125.004 92.9081 125.456 92.4618C125.924 91.9971 126.369 91.4192 126.79 90.7281C126.921 90.5276 127.075 90.2819 127.253 89.9908C127.448 89.6813 127.633 89.3547 127.809 89.011C128.001 88.6488 128.175 88.2788 128.331 87.9009C128.505 87.5221 128.636 87.1632 128.724 86.8241C128.37 86.79 127.861 86.8256 127.198 86.9309C126.85 87.0196 126.477 87.1185 126.078 87.2275C125.732 87.3338 125.334 87.4692 124.885 87.6336C124.453 87.7972 123.998 88.0148 123.52 88.2864C123.448 88.255 123.391 88.1876 123.351 88.0841C123.31 87.9806 123.277 87.8591 123.252 87.7196C123.226 87.5626 123.208 87.3875 123.198 87.1944C123.185 86.9486 123.21 86.7449 123.272 86.5832C123.35 86.4031 123.448 86.2571 123.565 86.1453C123.683 86.0335 123.81 85.9476 123.948 85.8875C124.085 85.8099 124.205 85.7508 124.308 85.7101C124.429 85.6685 124.664 85.6122 125.012 85.541C125.377 85.4514 125.786 85.3682 126.24 85.2915C126.694 85.2148 127.166 85.1547 127.656 85.1113C128.146 85.0503 128.593 85.018 128.998 85.0142C129.826 85.0234 130.35 85.1103 130.569 85.2747C130.806 85.4207 130.881 85.672 130.794 86.0286C130.69 86.3861 130.484 86.9955 130.177 87.8565C129.87 88.7 129.385 89.6849 128.722 90.8112C128.445 91.2306 128.193 91.6224 127.966 91.9864C127.738 92.3504 127.518 92.6701 127.303 92.9454C127.594 92.7893 127.887 92.6682 128.182 92.5823C128.476 92.4788 128.772 92.4192 129.07 92.4035C129.474 92.3822 129.747 92.5614 129.891 92.9411C130.051 93.3199 130.153 93.7371 130.194 94.1925C130.873 93.7167 131.472 93.2187 131.99 92.6985C132.526 92.1774 133.09 91.5141 133.681 90.7084C133.829 90.507 133.963 90.3855 134.084 90.3439C134.223 90.3014 134.329 90.3222 134.404 90.4063C134.478 90.4728 134.519 90.585 134.528 90.743C134.535 90.8835 134.49 91.0354 134.393 91.199ZM128.113 97.2858C128.141 97.1435 128.169 97.01 128.197 96.8853C128.244 96.7772 128.282 96.6608 128.311 96.536C127.425 97.0932 126.619 97.6725 125.894 98.274C125.17 98.893 124.544 99.5333 124.015 100.195C123.504 100.855 123.109 101.536 122.829 102.238C122.549 102.939 122.41 103.641 122.412 104.345C122.416 104.768 122.497 105.124 122.653 105.415C122.827 105.705 123.107 105.84 123.493 105.82C123.914 105.798 124.346 105.467 124.787 104.828C125.247 104.205 125.682 103.443 126.093 102.541C126.521 101.656 126.912 100.729 127.266 99.7595C127.621 98.8079 127.903 97.9833 128.113 97.2858ZM140.79 89.8323C140.682 89.4507 140.669 89.205 140.751 89.095C140.85 88.9666 141.073 88.8493 141.419 88.743C141.515 88.2275 141.604 87.7387 141.685 87.2768C141.767 86.8148 141.848 86.3617 141.93 85.9173C142.162 84.6377 142.384 83.4994 142.596 82.5026C142.824 81.4872 143.031 80.5785 143.218 79.7766C143.422 78.9737 143.613 78.2508 143.79 77.6078C143.967 76.9647 144.138 76.366 144.303 75.8117C144.488 75.6611 144.676 75.5456 144.865 75.4652C145.054 75.3673 145.234 75.2874 145.407 75.2255C145.596 75.1451 145.796 75.0818 146.004 75.0356C146.179 75.0088 146.337 75.0005 146.478 75.0106C146.602 75.0217 146.709 75.0512 146.8 75.0993C146.89 75.1473 146.947 75.2235 146.97 75.3279C146.397 77.136 145.904 78.8078 145.492 80.3433C145.097 81.8779 144.771 83.2065 144.514 84.329C144.213 85.6474 143.969 86.8485 143.779 87.9322C144.604 87.5543 145.387 87.0378 146.127 86.3827C146.883 85.7092 147.567 84.9779 148.176 84.1889C148.785 83.3823 149.322 82.5531 149.788 81.7013C150.27 80.8309 150.649 80.0013 150.924 79.2123C151.2 78.4232 151.373 77.7012 151.444 77.0462C151.532 76.3902 151.488 75.8733 151.309 75.4954C151.72 75.2802 152.108 75.1102 152.471 74.9854C152.66 74.905 152.842 74.8427 153.015 74.7983C153.465 74.6514 153.75 74.7156 153.87 74.9909C154.007 75.2477 154.072 75.6492 154.066 76.1952C154.079 77.4443 153.827 78.6809 153.311 79.9051C152.812 81.1283 152.151 82.2897 151.329 83.3891C150.506 84.471 149.581 85.4527 148.553 86.3341C147.544 87.2146 146.533 87.9191 145.523 88.4476C145.819 88.3968 146.107 88.3552 146.387 88.3229C146.667 88.2905 146.93 88.2679 147.176 88.2549C147.65 88.23 148.092 88.2595 148.501 88.3436C148.909 88.4101 149.269 88.5496 149.579 88.7621C149.907 88.9736 150.16 89.2595 150.337 89.6199C150.532 89.9792 150.635 90.4315 150.646 90.9766C150.655 91.821 150.581 92.573 150.422 93.2327C150.263 93.8924 150.084 94.5003 149.884 95.0565C149.703 95.6293 149.528 96.1578 149.36 96.6419C149.192 97.126 149.112 97.6143 149.121 98.1067C149.129 98.5991 149.22 98.9992 149.395 99.3068C149.571 99.632 149.786 99.8847 150.042 100.065C150.317 100.262 150.597 100.397 150.882 100.469C151.168 100.542 151.433 100.572 151.679 100.56C151.977 100.544 152.3 100.492 152.648 100.403C152.996 100.332 153.299 100.245 153.558 100.144C153.662 100.103 153.742 100.125 153.799 100.21C153.874 100.294 153.913 100.371 153.917 100.442C153.921 100.512 153.883 100.637 153.805 100.817C153.727 101.015 153.568 101.173 153.328 101.291C153.089 101.427 152.779 101.567 152.4 101.71C152.02 101.853 151.497 101.942 150.83 101.977C150.391 102 149.929 101.919 149.444 101.733C148.96 101.565 148.515 101.307 148.109 100.959C147.704 100.628 147.367 100.232 147.096 99.7712C146.825 99.3102 146.693 98.8067 146.7 98.2606C146.687 97.6804 146.761 97.0956 146.924 96.5062C147.087 95.9167 147.259 95.3444 147.441 94.7891C147.64 94.2329 147.815 93.7045 147.965 93.2037C148.131 92.6845 148.211 92.205 148.206 91.7652C148.199 90.9734 147.966 90.396 147.507 90.0329C147.047 89.6523 146.29 89.4898 145.237 89.5452C144.886 89.5637 144.554 89.5988 144.239 89.6506C143.943 89.7014 143.699 89.7495 143.508 89.7947C143.16 92.207 142.93 94.0234 142.818 95.2439C142.706 96.4643 142.651 97.2593 142.653 97.6289L142.678 98.1028C142.685 98.2433 142.702 98.3832 142.726 98.5227C142.752 98.6798 142.787 98.8276 142.829 98.9662C142.525 99.211 142.218 99.3944 141.907 99.5164C141.616 99.655 141.348 99.7571 141.105 99.8227C140.81 99.9086 140.54 99.9581 140.294 99.971C140.172 99.9775 140.056 99.966 139.949 99.9364C139.86 99.9059 139.77 99.8754 139.68 99.8449C139.573 99.8154 139.5 99.7576 139.46 99.6717C139.679 98.4808 139.891 97.3343 140.097 96.2321C140.303 95.1299 140.48 94.1436 140.628 93.2733C140.805 92.2783 140.974 91.3276 141.138 90.4212C141.064 90.3547 140.998 90.279 140.941 90.194C140.884 90.109 140.834 89.9884 140.79 89.8323ZM167.201 88.4675C166.974 88.8316 166.681 89.287 166.323 89.834C165.963 90.3634 165.587 90.9025 165.193 91.4513C164.816 91.9816 164.438 92.4769 164.057 92.937C163.693 93.3786 163.384 93.6941 163.13 93.8835C162.96 93.9981 162.763 94.0965 162.538 94.1787C162.314 94.261 162.079 94.3173 161.834 94.3478C161.607 94.3774 161.386 94.3714 161.173 94.3298C160.961 94.3058 160.773 94.2453 160.609 94.1483C160.445 94.0338 160.304 93.8652 160.186 93.6425C160.088 93.454 159.987 93.2041 159.883 92.8928C159.796 92.5805 159.749 92.1869 159.741 91.7121C159.357 92.4364 158.921 93.0051 158.432 93.4181C157.942 93.8135 157.474 94.111 157.027 94.3106C156.51 94.5314 155.99 94.6733 155.465 94.7361C155.219 94.7491 154.951 94.6752 154.661 94.5144C154.372 94.3712 154.121 94.1292 153.91 93.7883C153.697 93.4298 153.55 92.9711 153.468 92.4122C153.385 91.8357 153.419 91.1474 153.57 90.3473C153.76 89.2636 154.094 88.269 154.575 87.3636C155.073 86.4572 155.622 85.6802 156.221 85.0325C156.82 84.3673 157.418 83.8605 158.016 83.5122C158.613 83.1639 159.115 82.9966 159.521 83.0105C159.999 83.0733 160.393 83.1934 160.701 83.3707C160.956 83.5333 161.128 83.7883 161.217 84.1357C161.322 84.4646 161.205 84.9196 160.866 85.5007C161.109 85.4351 161.309 85.3894 161.466 85.3635C161.641 85.3367 161.772 85.321 161.86 85.3164C161.965 85.3108 162.036 85.3159 162.072 85.3316C162.091 85.3658 162.104 85.4443 162.111 85.5672C162.116 85.6725 162.101 85.8758 162.064 86.177C162.027 86.4782 161.969 86.8861 161.891 87.4007C161.812 87.9153 161.706 88.5809 161.573 89.3977C161.547 89.5575 161.519 89.7085 161.492 89.8508C161.481 89.9746 161.461 90.1077 161.433 90.2499C161.422 90.3737 161.404 90.5243 161.378 90.7017C161.352 90.8791 161.32 91.1009 161.281 91.3669C161.272 91.5258 161.272 91.7018 161.282 91.8949C161.309 92.0695 161.353 92.2345 161.414 92.3897C161.475 92.5449 161.561 92.6724 161.672 92.7721C161.799 92.8534 161.968 92.8885 162.179 92.8774C162.355 92.8682 162.577 92.7509 162.847 92.5254C163.116 92.2824 163.4 91.9858 163.698 91.6357C163.995 91.268 164.3 90.8735 164.613 90.4521C164.941 90.0124 165.245 89.5915 165.523 89.1896C165.801 88.7877 166.046 88.4316 166.259 88.1211C166.489 87.8098 166.653 87.5811 166.751 87.4351C166.883 87.2697 167.019 87.1746 167.158 87.1496C167.297 87.1071 167.404 87.1367 167.48 87.2383C167.555 87.3399 167.573 87.4974 167.531 87.7109C167.507 87.9234 167.397 88.1756 167.201 88.4675ZM159.547 90.0325C159.617 89.6768 159.7 89.2587 159.798 88.7783C159.896 88.2978 159.977 87.8359 160.042 87.3924C160.107 86.949 160.149 86.5859 160.169 86.3032C160.206 86.002 160.19 85.862 160.121 85.8833C160.034 85.9054 159.939 85.9368 159.835 85.9775C159.749 86.0172 159.637 86.0496 159.497 86.0745C159.358 86.0995 159.219 86.1332 159.08 86.1757C159.206 85.8875 159.273 85.6551 159.281 85.4786C159.306 85.2837 159.307 85.134 159.284 85.0296C159.26 84.9077 159.22 84.813 159.163 84.7455C158.962 84.5977 158.626 84.7474 158.157 85.1946C157.704 85.6233 157.191 86.4072 156.618 87.5464C156.378 88.0167 156.194 88.5193 156.063 89.0542C155.932 89.5716 155.843 90.0603 155.797 90.5204C155.769 90.9796 155.781 91.3838 155.835 91.733C155.887 92.0647 155.969 92.2804 156.08 92.3802C156.283 92.5631 156.508 92.6481 156.754 92.6352C156.998 92.6047 157.24 92.5215 157.48 92.3857C157.736 92.2314 157.981 92.0424 158.216 91.8188C158.468 91.5943 158.684 91.3629 158.866 91.1245C159.064 90.8852 159.22 90.6658 159.333 90.4662C159.463 90.2657 159.534 90.1211 159.547 90.0325ZM169.378 92.7095C169.487 92.7741 169.621 92.8023 169.779 92.794C169.955 92.7847 170.119 92.7408 170.274 92.6623C170.446 92.5828 170.598 92.478 170.732 92.3477C170.884 92.2165 170.99 92.0525 171.05 91.8557C171.11 91.6589 171.095 91.3869 171.007 91.0395C170.917 90.6745 170.783 90.2944 170.603 89.899C170.441 89.4851 170.261 89.0721 170.063 88.66C169.865 88.248 169.696 87.8697 169.554 87.5251C169.435 87.2673 169.334 87.0262 169.252 86.8017C169.172 86.6123 169.092 86.4317 169.012 86.2598C168.95 86.0695 168.899 85.9402 168.86 85.8718C168.78 86.0169 168.634 86.2534 168.422 86.5814C168.228 86.9084 168.009 87.2544 167.764 87.6194C167.536 87.9659 167.315 88.2943 167.103 88.6047C166.889 88.8976 166.742 89.099 166.659 89.209C166.527 89.3744 166.392 89.4783 166.253 89.5208C166.131 89.5448 166.025 89.524 165.933 89.4585C165.841 89.3753 165.782 89.264 165.757 89.1245C165.749 88.9665 165.809 88.7785 165.939 88.5604C166.037 88.4145 166.183 88.1867 166.378 87.8772C166.572 87.5501 166.766 87.2231 166.96 86.896C167.153 86.5514 167.331 86.2516 167.493 85.9966C167.655 85.724 167.743 85.561 167.758 85.5074C167.786 85.3651 167.723 85.1836 167.571 84.9628C167.436 84.741 167.405 84.4786 167.477 84.1756C167.534 83.9262 167.677 83.637 167.906 83.3081C168.135 82.9616 168.408 82.6479 168.728 82.3671C169.048 82.0862 169.38 81.8751 169.724 81.7337C170.068 81.5748 170.384 81.5581 170.672 81.6838C170.908 81.8122 171.101 81.9604 171.25 82.1286C171.399 82.2792 171.46 82.4432 171.435 82.6205C171.404 82.7102 171.357 82.827 171.295 82.9712C171.232 83.1153 171.136 83.2964 171.006 83.5144C170.876 83.7149 170.688 83.9801 170.441 84.3099C170.515 84.7109 170.605 85.0758 170.71 85.4047C170.833 85.7327 170.945 86.0172 171.045 86.2584C171.166 86.5512 171.295 86.8173 171.431 87.0566C171.605 87.3642 171.789 87.6802 171.982 88.0045C172.175 88.3287 172.351 88.6539 172.509 88.9801C172.666 89.2886 172.796 89.581 172.898 89.8573C173.001 90.1335 173.04 90.3691 173.015 90.5641C172.978 90.8652 172.839 91.2334 172.598 91.6686C172.374 92.1028 172.08 92.532 171.715 92.956C171.367 93.3616 170.954 93.7178 170.477 94.0246C170.018 94.3304 169.525 94.4972 168.999 94.5249C168.63 94.5443 168.264 94.4492 167.901 94.2395C167.556 94.0288 167.252 93.7808 166.991 93.4953C166.746 93.1914 166.554 92.8934 166.416 92.6015C166.295 92.3086 166.274 92.0809 166.353 91.9183C166.447 91.7021 166.535 91.5302 166.616 91.4027C166.698 91.2752 166.822 91.1279 166.989 90.9606C167.057 90.9043 167.141 90.8382 167.243 90.7625C167.328 90.7052 167.448 90.646 167.603 90.5851C167.758 90.5241 167.939 90.4529 168.146 90.3716C168.351 90.9065 168.531 91.3283 168.688 91.6369C168.844 91.9279 168.971 92.1588 169.068 92.3298C169.184 92.5173 169.287 92.6439 169.378 92.7095ZM168.146 77.8299C167.956 77.5758 167.787 77.3647 167.637 77.1966C167.487 77.0109 167.303 76.8621 167.086 76.7504C167.204 76.6561 167.351 76.6044 167.526 76.5951C167.719 76.5674 167.902 76.5489 168.078 76.5397C168.272 76.5471 168.483 76.5535 168.713 76.559C169.048 76.5766 169.327 76.6939 169.55 76.911C169.79 77.1272 170.085 77.5517 170.435 78.1846C170.436 78.2021 170.437 78.2197 170.438 78.2372C170.456 78.2363 170.465 78.2446 170.466 78.2622C171.088 77.7013 171.507 77.3184 171.725 77.1133C171.96 76.8897 172.094 76.7594 172.127 76.7224C172.414 76.4785 172.698 76.3667 172.981 76.387C173.264 76.4073 173.527 76.4022 173.772 76.3718L174.088 76.3551C174.176 76.3505 174.273 76.3454 174.378 76.3399C174.482 76.3168 174.578 76.2941 174.665 76.2719C174.582 76.3643 174.439 76.5038 174.238 76.6905C174.036 76.8596 173.825 77.0379 173.606 77.2254C173.353 77.4324 173.084 77.6666 172.798 77.9281C172.697 78.0214 172.563 78.1429 172.395 78.2926C172.227 78.4422 172.05 78.5924 171.864 78.743C171.696 78.8927 171.536 79.0331 171.385 79.1643C171.25 79.277 171.148 79.3528 171.08 79.3916C171.03 79.447 170.909 79.4974 170.718 79.5427C170.526 79.5704 170.324 79.5898 170.114 79.6009C169.903 79.612 169.7 79.6051 169.505 79.5801C169.328 79.5543 169.22 79.5159 169.183 79.4651C169.145 79.4143 169.078 79.3122 168.982 79.1589C168.885 79.0055 168.78 78.8438 168.666 78.6738C168.55 78.4863 168.444 78.3158 168.348 78.1625C168.252 78.0091 168.185 77.8982 168.146 77.8299ZM188.424 87.3497C188.196 87.7137 187.904 88.1692 187.545 88.7161C187.186 89.2455 186.809 89.7846 186.416 90.3335C186.039 90.8638 185.66 91.359 185.279 91.8191C184.915 92.2607 184.606 92.5763 184.352 92.7657C184.182 92.8802 183.985 92.9786 183.761 93.0609C183.536 93.1431 183.301 93.1995 183.057 93.23C182.829 93.2595 182.609 93.2536 182.396 93.212C182.183 93.188 181.995 93.1275 181.832 93.0305C181.667 92.9159 181.526 92.7473 181.409 92.5247C181.311 92.3362 181.21 92.0863 181.105 91.7749C181.018 91.4627 180.971 91.0691 180.964 90.5942C180.58 91.3186 180.143 91.8872 179.654 92.3002C179.165 92.6957 178.696 92.9932 178.249 93.1928C177.733 93.4136 177.212 93.5554 176.687 93.6183C176.442 93.6312 176.174 93.5573 175.884 93.3966C175.594 93.2534 175.344 93.0113 175.132 92.6704C174.92 92.312 174.773 91.8533 174.69 91.2943C174.607 90.7178 174.641 90.0295 174.793 89.2294C174.982 88.1457 175.317 87.1511 175.797 86.2457C176.295 85.3393 176.844 84.5623 177.444 83.9147C178.042 83.2494 178.64 82.7427 179.238 82.3943C179.836 82.046 180.338 81.8788 180.743 81.8926C181.222 81.9554 181.615 82.0755 181.924 82.2529C182.179 82.4155 182.351 82.6705 182.44 83.0178C182.545 83.3467 182.428 83.8017 182.089 84.3829C182.332 84.3173 182.532 84.2715 182.689 84.2457C182.864 84.2189 182.995 84.2032 183.083 84.1985C183.188 84.193 183.259 84.1981 183.295 84.2138C183.314 84.2479 183.327 84.3265 183.333 84.4494C183.339 84.5547 183.323 84.7579 183.286 85.0591C183.249 85.3603 183.192 85.7682 183.113 86.2828C183.035 86.7974 182.929 87.4631 182.796 88.2798C182.769 88.4396 182.742 88.5907 182.714 88.733C182.703 88.8568 182.684 88.9898 182.656 89.1321C182.645 89.2559 182.626 89.4065 182.601 89.5839C182.575 89.7613 182.542 89.983 182.504 90.2491C182.494 90.408 182.495 90.584 182.505 90.7771C182.532 90.9517 182.576 91.1166 182.637 91.2718C182.698 91.427 182.784 91.5545 182.894 91.6543C183.022 91.7356 183.191 91.7707 183.402 91.7596C183.577 91.7503 183.8 91.633 184.07 91.4076C184.338 91.1646 184.622 90.868 184.92 90.5178C185.218 90.1501 185.523 89.7556 185.835 89.3343C186.164 88.8945 186.467 88.4737 186.745 88.0718C187.024 87.6699 187.269 87.3137 187.481 87.0033C187.711 86.6919 187.875 86.4632 187.973 86.3173C188.105 86.1519 188.241 86.0567 188.381 86.0318C188.519 85.9893 188.626 86.0188 188.702 86.1204C188.778 86.2221 188.795 86.3796 188.753 86.593C188.729 86.8055 188.62 87.0577 188.424 87.3497ZM180.77 88.9146C180.839 88.5589 180.923 88.1408 181.021 87.6604C181.119 87.18 181.2 86.718 181.264 86.2746C181.329 85.8311 181.372 85.468 181.392 85.1853C181.429 84.8841 181.413 84.7442 181.343 84.7654C181.257 84.7876 181.161 84.819 181.058 84.8597C180.972 84.8994 180.859 84.9317 180.72 84.9567C180.58 84.9816 180.441 85.0154 180.303 85.0579C180.428 84.7696 180.495 84.5372 180.504 84.3608C180.528 84.1658 180.529 84.0162 180.506 83.9118C180.482 83.7898 180.442 83.6951 180.386 83.6277C180.184 83.4799 179.849 83.6295 179.38 84.0767C178.927 84.5054 178.414 85.2894 177.84 86.4285C177.601 86.8988 177.416 87.4014 177.286 87.9363C177.155 88.4537 177.066 88.9425 177.02 89.4026C176.991 89.8617 177.004 90.2659 177.057 90.6152C177.11 90.9468 177.192 91.1626 177.303 91.2623C177.506 91.4453 177.73 91.5302 177.976 91.5173C178.221 91.4868 178.463 91.4036 178.702 91.2678C178.958 91.1135 179.203 90.9246 179.438 90.701C179.69 90.4765 179.907 90.245 180.088 90.0067C180.287 89.7674 180.442 89.5479 180.555 89.3484C180.685 89.1479 180.757 89.0033 180.77 88.9146ZM194.404 87.5892C193.982 88.2803 193.543 88.9547 193.084 89.6125C192.644 90.2694 192.209 90.8644 191.779 91.3975C191.366 91.9122 190.974 92.3289 190.604 92.6476C190.252 92.983 189.962 93.1567 189.734 93.1687C189.189 93.1974 188.728 92.9664 188.35 92.4759C187.989 91.9668 187.692 91.34 187.459 90.5953C187.243 89.8322 187.086 89.022 186.988 88.1646C186.907 87.2888 186.874 86.5072 186.891 85.8198C186.925 85.1315 186.975 84.5832 187.042 84.1748C187.107 83.7489 187.196 83.4186 187.307 83.1839C187.435 82.9483 187.584 82.7732 187.754 82.6587C187.942 82.5432 188.174 82.4429 188.451 82.3579C188.572 82.3163 188.711 82.2826 188.868 82.2567C189.025 82.2309 189.166 82.2322 189.291 82.2609C189.432 82.271 189.54 82.3182 189.615 82.4022C189.69 82.4863 189.706 82.6175 189.662 82.7958C189.636 82.9556 189.587 83.1958 189.516 83.5164C189.461 83.8185 189.4 84.165 189.333 84.5558C189.265 84.9466 189.199 85.355 189.133 85.7809C189.085 86.2059 189.054 86.6124 189.039 87.0004C189.021 87.6702 189.052 88.2583 189.132 88.7646C189.21 89.2533 189.312 89.6704 189.435 90.016C189.558 90.3439 189.686 90.5925 189.818 90.7615C189.95 90.9306 190.051 91.0133 190.121 91.0096C190.209 91.005 190.361 90.8825 190.577 90.6423C190.81 90.3836 191.066 90.0533 191.344 89.6514C191.639 89.2486 191.941 88.7839 192.247 88.2572C192.571 87.7297 192.869 87.186 193.138 86.6261C193.018 86.3508 192.957 86.0196 192.954 85.6325C192.975 85.0328 193.079 84.4905 193.264 84.0055C193.449 83.5029 193.664 83.0779 193.91 82.7305C194.173 82.3822 194.441 82.1128 194.712 81.9225C195.001 81.7137 195.259 81.6033 195.487 81.5913C195.943 81.5672 196.231 81.6753 196.349 81.9155C196.484 82.1372 196.54 82.3719 196.518 82.6195C196.502 82.99 196.362 83.5078 196.098 84.173C195.851 84.8198 195.519 85.5326 195.102 86.3114C195.192 86.3419 195.29 86.3719 195.397 86.4015C195.504 86.431 195.628 86.4421 195.769 86.4347C196.365 86.4033 196.897 86.3049 197.364 86.1395C197.848 85.9732 198.26 85.7842 198.601 85.5726C198.96 85.3601 199.256 85.1421 199.491 84.9185C199.742 84.6764 199.943 84.481 200.094 84.3323C200.193 84.2214 200.296 84.1632 200.401 84.1576C200.507 84.1521 200.596 84.1738 200.669 84.2227C200.742 84.2717 200.781 84.3489 200.787 84.4542C200.792 84.5595 200.745 84.6764 200.647 84.8048C200.055 85.6104 199.316 86.2743 198.428 86.7963C197.558 87.3174 196.517 87.6099 195.306 87.6737C195.2 87.6792 195.068 87.6774 194.909 87.6682C194.75 87.6589 194.582 87.6326 194.404 87.5892ZM204.883 82.0205C205.102 81.8329 205.314 81.6897 205.52 81.5909C205.743 81.4735 205.941 81.3927 206.115 81.3483C206.305 81.2855 206.497 81.2578 206.691 81.2651C207.167 81.2753 207.465 81.4092 207.584 81.667C207.721 81.9238 207.76 82.3442 207.703 82.9281C207.666 83.2293 207.581 83.6122 207.447 84.077C207.313 84.5417 207.158 85.1131 206.983 85.7912C206.806 86.4518 206.617 87.2099 206.416 88.0654C206.232 88.92 206.063 89.8795 205.907 90.9438C205.742 91.815 205.566 92.8188 205.38 93.9552C205.221 94.9493 205.029 96.1476 204.803 97.5501C204.595 98.9516 204.372 100.556 204.133 102.364C204.068 102.808 203.888 103.073 203.594 103.159C203.316 103.244 203.016 103.224 202.693 103.1C202.566 103.037 202.448 102.964 202.338 102.881C202.246 102.798 202.144 102.698 202.032 102.581C201.921 102.481 201.825 102.336 201.745 102.147C202.071 100.651 202.351 99.2899 202.586 98.0629C202.838 96.8351 203.063 95.7671 203.262 94.8589C203.471 93.8093 203.668 92.866 203.852 92.029C203.921 91.6557 203.981 91.2917 204.032 90.9369C204.101 90.5637 204.17 90.1992 204.239 89.8435C204.03 90.2242 203.803 90.5882 203.557 90.9356C203.311 91.283 203.037 91.5879 202.734 91.8503C202.431 92.1127 202.098 92.315 201.736 92.4573C201.392 92.6162 201.026 92.6795 200.637 92.6472C199.683 92.5743 198.989 92.2588 198.554 91.7008C198.138 91.1418 197.931 90.3958 197.935 89.4627C197.933 89.0931 197.964 88.6866 198.029 88.2431C198.094 87.7997 198.168 87.3733 198.252 86.964C198.336 86.5547 198.414 86.1898 198.485 85.8692C198.573 85.5301 198.639 85.289 198.684 85.1458C198.86 84.4677 198.979 83.8893 199.042 83.4107C199.122 82.9312 199.031 82.54 198.769 82.2369C199.006 82.066 199.229 81.9487 199.437 81.8849C199.661 81.8027 199.86 81.7394 200.034 81.695C200.226 81.6673 200.419 81.6571 200.613 81.6645C201.091 81.7098 201.372 81.871 201.457 82.1481C201.56 82.4244 201.556 82.847 201.445 83.4162C201.39 83.7183 201.297 84.1105 201.164 84.5927C201.03 85.0575 200.888 85.5402 200.738 86.041C200.588 86.5417 200.455 87.0064 200.336 87.4351C200.217 87.8462 200.153 88.14 200.145 88.3165C200.029 89.1147 200.052 89.7296 200.216 90.161C200.378 90.5749 200.697 90.7694 201.171 90.7444C201.399 90.7324 201.648 90.6225 201.919 90.4146C202.189 90.1891 202.455 89.9023 202.719 89.5539C202.999 89.2047 203.269 88.812 203.528 88.376C203.786 87.9223 204.017 87.4701 204.222 87.0192C204.445 86.5674 204.633 86.1262 204.786 85.6957C204.957 85.2643 205.078 84.8794 205.148 84.5413C205.236 83.8853 205.289 83.3721 205.304 83.0016C205.32 82.6312 205.18 82.3041 204.883 82.0205Z" fill="white"/>
</svg>
