<svg width="181" height="19" viewBox="0 0 181 19" fill="none" xmlns="http://www.w3.org/2000/svg">
<path d="M10.126 10.541H5.88574V15.0859H4.6416V10.541H0.401367V9.57617H4.6416V5.03125H5.88574V9.57617H10.126V10.541ZM23.0244 17.7266H15.458V17.041H18.251V13.791L11.4463 13.7656L11.2939 13.0039C12.8005 11.7682 14.0531 10.4818 15.0518 9.14453C15.9827 7.85807 16.7699 6.26693 17.4131 4.37109C17.6162 3.77865 17.7686 3.36393 17.8701 3.12695C18.1917 2.4668 18.6826 2.13672 19.3428 2.13672C20.1722 2.22135 20.6631 2.67839 20.8154 3.50781C20.8154 4.20182 20.4346 5.05664 19.6729 6.07227C18.5387 7.61263 16.1266 9.92318 12.4365 13.0039L18.251 13.0293V10.0332H18.4541C18.6742 10.0332 18.8688 10.0163 19.0381 9.98242C19.4274 9.88086 19.7152 9.52539 19.9014 8.91602L20.1807 7.90039H20.7393V13.0547H23.0244V13.8164H20.7393V17.041H22.415C22.5166 17.041 22.6097 17.0495 22.6943 17.0664C22.9144 17.1003 23.0244 17.3203 23.0244 17.7266ZM26.2236 13.918H32.0127C32.3682 13.918 32.6475 13.901 32.8506 13.8672C33.3245 13.7656 33.6631 13.4102 33.8662 12.8008L34.2979 11.5312H34.8057L34.7803 16H24.8271V15.3906C24.8271 14.7812 24.9456 14.2142 25.1826 13.6895C25.5381 12.9108 26.3167 12.1322 27.5186 11.3535C28.8219 10.5072 29.5667 10.0163 29.7529 9.88086C31.124 8.79753 31.8096 7.41797 31.8096 5.74219C31.8096 5.40365 31.7757 5.07357 31.708 4.75195C31.4033 3.48242 30.6162 2.84766 29.3467 2.84766C28.8389 2.84766 28.4411 2.96615 28.1533 3.20312C27.8656 3.47396 27.6794 4.06641 27.5947 4.98047C27.5609 5.35286 27.527 5.63216 27.4932 5.81836C27.3408 6.56315 26.8838 6.93555 26.1221 6.93555C25.9867 6.93555 25.8512 6.91016 25.7158 6.85938C25.1572 6.67318 24.8779 6.19076 24.8779 5.41211C24.8779 4.66732 25.1572 4.02409 25.7158 3.48242C26.613 2.61914 27.8994 2.1875 29.5752 2.1875C30.4215 2.1875 31.2002 2.30599 31.9111 2.54297C33.6208 3.11849 34.4756 4.22721 34.4756 5.86914C34.4756 6.85091 34.0524 7.77344 33.2061 8.63672C32.529 9.34766 31.2425 10.2194 29.3467 11.252C28.7712 11.5736 28.348 11.8105 28.0771 11.9629C26.8415 12.6908 26.2236 13.3424 26.2236 13.918ZM43.1592 2.1875C44.3271 2.1875 45.3512 2.4668 46.2314 3.02539C48.0257 4.19336 48.9229 6.25846 48.9229 9.2207C48.9229 11.0658 48.5081 12.6061 47.6787 13.8418C46.5954 15.4499 45.055 16.2539 43.0576 16.2539C41.7712 16.2539 40.654 15.8984 39.7061 15.1875C38.0641 13.9518 37.2432 11.9375 37.2432 9.14453C37.2432 7.31641 37.6663 5.78451 38.5127 4.54883C39.613 2.97461 41.1618 2.1875 43.1592 2.1875ZM43.1338 15.5938C43.4893 15.5938 43.8109 15.5345 44.0986 15.416C45.4359 14.8405 46.1045 12.7415 46.1045 9.11914C46.1045 7.52799 45.986 6.25846 45.749 5.31055C45.3258 3.66862 44.4456 2.84766 43.1084 2.84766C42.736 2.84766 42.389 2.91536 42.0674 3.05078C40.7301 3.6263 40.0615 5.68294 40.0615 9.2207C40.0615 10.8457 40.1885 12.1491 40.4424 13.1309C40.8825 14.7728 41.7796 15.5938 43.1338 15.5938ZM66.7217 3.05078C63.9795 7.04557 62.1006 10.9049 61.085 14.6289C60.6787 16.1354 60.4333 16.9902 60.3486 17.1934C60.0778 17.752 59.6038 18.0312 58.9268 18.0312C58.7913 18.0312 58.6475 18.0143 58.4951 17.9805C57.7842 17.8281 57.4287 17.3796 57.4287 16.6348C57.4287 16.0931 57.6318 15.416 58.0381 14.6035C58.529 13.6217 59.9001 11.5228 62.1514 8.30664C63.2855 6.71549 64.1742 5.44596 64.8174 4.49805H58.6982C58.3597 4.49805 58.0889 4.51497 57.8857 4.54883C57.3441 4.63346 56.9548 4.9974 56.7178 5.64062L56.2607 6.96094H55.6768L55.7275 2.44141H66.7217V3.05078ZM77.9443 3.02539L72.2314 9.14453C72.7731 9.02604 73.3317 8.9668 73.9072 8.9668C75.0752 8.9668 76.0654 9.25456 76.8779 9.83008C77.9443 10.5918 78.4775 11.6582 78.4775 13.0293C78.4775 14.0788 78.1475 15.0352 77.4873 15.8984C76.3701 17.3203 74.7197 18.0312 72.5361 18.0312C71.5036 18.0312 70.5811 17.8704 69.7686 17.5488C68.3467 16.9733 67.6357 16.0677 67.6357 14.832C67.6357 14.7305 67.6442 14.6204 67.6611 14.502C67.7965 13.791 68.2367 13.4355 68.9814 13.4355C69.3369 13.4355 69.6247 13.5202 69.8447 13.6895C70.1325 13.9095 70.3187 14.4427 70.4033 15.2891C70.4372 15.6615 70.471 15.9408 70.5049 16.127C70.708 16.9564 71.2751 17.3711 72.2061 17.3711C74.6097 17.3542 75.8285 16.0254 75.8623 13.3848C75.8623 12.7585 75.7692 12.1829 75.583 11.6582C75.1429 10.3887 74.305 9.75391 73.0693 9.75391C72.5107 9.75391 71.9268 9.88086 71.3174 10.1348L70.708 9.62695L75.2275 4.44727L70.6826 4.42188C70.5641 4.4388 70.4456 4.45573 70.3271 4.47266C69.7855 4.55729 69.4046 4.89583 69.1846 5.48828L68.7275 6.80859H68.1436L68.1943 2.44141H77.9443V3.02539ZM91.0205 3.02539L85.3076 9.14453C85.8493 9.02604 86.4079 8.9668 86.9834 8.9668C88.1514 8.9668 89.1416 9.25456 89.9541 9.83008C91.0205 10.5918 91.5537 11.6582 91.5537 13.0293C91.5537 14.0788 91.2236 15.0352 90.5635 15.8984C89.4463 17.3203 87.7959 18.0312 85.6123 18.0312C84.5798 18.0312 83.6572 17.8704 82.8447 17.5488C81.4229 16.9733 80.7119 16.0677 80.7119 14.832C80.7119 14.7305 80.7204 14.6204 80.7373 14.502C80.8727 13.791 81.3128 13.4355 82.0576 13.4355C82.4131 13.4355 82.7008 13.5202 82.9209 13.6895C83.2087 13.9095 83.3949 14.4427 83.4795 15.2891C83.5133 15.6615 83.5472 15.9408 83.5811 16.127C83.7842 16.9564 84.3512 17.3711 85.2822 17.3711C87.6859 17.3542 88.9046 16.0254 88.9385 13.3848C88.9385 12.7585 88.8454 12.1829 88.6592 11.6582C88.2191 10.3887 87.3812 9.75391 86.1455 9.75391C85.5869 9.75391 85.0029 9.88086 84.3936 10.1348L83.7842 9.62695L88.3037 4.44727L83.7588 4.42188C83.6403 4.4388 83.5218 4.45573 83.4033 4.47266C82.8617 4.55729 82.4808 4.89583 82.2607 5.48828L81.8037 6.80859H81.2197L81.2705 2.44141H91.0205V3.02539ZM109.429 13.0801C109.429 14.248 109.056 15.2637 108.312 16.127C107.194 17.3965 105.595 18.0312 103.513 18.0312C102.429 18.0312 101.49 17.8197 100.694 17.3965C99.5433 16.7702 98.9678 15.9154 98.9678 14.832C98.9678 14.7135 98.9762 14.5866 98.9932 14.4512C99.1455 13.7741 99.5941 13.4355 100.339 13.4355C100.711 13.4355 101.016 13.5202 101.253 13.6895C101.541 13.9264 101.718 14.4681 101.786 15.3145C101.82 15.7038 101.854 15.9831 101.888 16.1523C102.057 16.9648 102.599 17.3711 103.513 17.3711C104.021 17.3711 104.486 17.278 104.909 17.0918C106.179 16.5163 106.813 15.2129 106.813 13.1816C106.813 12.5553 106.729 11.9798 106.56 11.4551C106.086 10.0332 105.112 9.32227 103.64 9.32227C102.641 9.32227 101.718 9.66927 100.872 10.3633L100.034 9.72852V2.44141C100.559 2.45833 101.287 2.48372 102.218 2.51758C103.589 2.58529 104.52 2.61914 105.011 2.61914C105.806 2.61914 106.399 2.56836 106.788 2.4668C107.279 2.31445 107.601 1.96745 107.753 1.42578H108.388C108.388 2.74609 108.176 3.63477 107.753 4.0918C107.279 4.54883 106.145 4.77734 104.351 4.77734C103.42 4.77734 102.26 4.70964 100.872 4.57422V9.39844C101.888 8.73828 103.064 8.39974 104.401 8.38281C105.586 8.38281 106.61 8.67057 107.474 9.24609C108.777 10.1263 109.429 11.4043 109.429 13.0801ZM117.249 2.1875C118.417 2.1875 119.441 2.4668 120.321 3.02539C122.116 4.19336 123.013 6.25846 123.013 9.2207C123.013 11.0658 122.598 12.6061 121.769 13.8418C120.685 15.4499 119.145 16.2539 117.147 16.2539C115.861 16.2539 114.744 15.8984 113.796 15.1875C112.154 13.9518 111.333 11.9375 111.333 9.14453C111.333 7.31641 111.756 5.78451 112.603 4.54883C113.703 2.97461 115.252 2.1875 117.249 2.1875ZM117.224 15.5938C117.579 15.5938 117.901 15.5345 118.188 15.416C119.526 14.8405 120.194 12.7415 120.194 9.11914C120.194 7.52799 120.076 6.25846 119.839 5.31055C119.416 3.66862 118.535 2.84766 117.198 2.84766C116.826 2.84766 116.479 2.91536 116.157 3.05078C114.82 3.6263 114.151 5.68294 114.151 9.2207C114.151 10.8457 114.278 12.1491 114.532 13.1309C114.972 14.7728 115.869 15.5938 117.224 15.5938ZM136.317 11.2773C136.317 12.4115 135.979 13.4186 135.302 14.2988C134.252 15.6022 132.754 16.2539 130.808 16.2539C129.674 16.2539 128.683 15.9492 127.837 15.3398C126.11 14.1042 125.247 11.8613 125.247 8.61133C125.247 6.71549 125.594 5.09049 126.288 3.73633C127.405 1.51888 129.191 0.410156 131.646 0.410156C132.695 0.410156 133.618 0.596354 134.413 0.96875C135.513 1.47656 136.063 2.17904 136.063 3.07617C136.063 3.21159 136.047 3.34701 136.013 3.48242C135.86 4.17643 135.42 4.52344 134.692 4.52344C134.337 4.52344 134.049 4.45573 133.829 4.32031C133.558 4.11719 133.372 3.65169 133.271 2.92383C133.237 2.60221 133.194 2.36523 133.144 2.21289C132.957 1.45117 132.373 1.07031 131.392 1.07031C130.765 1.07031 130.232 1.24805 129.792 1.60352C128.759 2.41602 128.167 4.42188 128.015 7.62109C128.996 6.92708 130.105 6.57161 131.341 6.55469C132.458 6.55469 133.448 6.82552 134.312 7.36719C135.649 8.2474 136.317 9.55078 136.317 11.2773ZM127.938 11.582C127.938 12.0052 127.964 12.4115 128.015 12.8008C128.319 14.6628 129.259 15.5938 130.833 15.5938C132.729 15.5768 133.685 14.138 133.702 11.2773C133.685 8.6875 132.754 7.37565 130.909 7.3418C130.621 7.3418 130.351 7.37565 130.097 7.44336C128.658 7.86654 127.938 9.24609 127.938 11.582ZM154.015 13.0801C154.015 14.248 153.642 15.2637 152.897 16.127C151.78 17.3965 150.181 18.0312 148.099 18.0312C147.015 18.0312 146.076 17.8197 145.28 17.3965C144.129 16.7702 143.554 15.9154 143.554 14.832C143.554 14.7135 143.562 14.5866 143.579 14.4512C143.731 13.7741 144.18 13.4355 144.925 13.4355C145.297 13.4355 145.602 13.5202 145.839 13.6895C146.127 13.9264 146.304 14.4681 146.372 15.3145C146.406 15.7038 146.44 15.9831 146.474 16.1523C146.643 16.9648 147.185 17.3711 148.099 17.3711C148.606 17.3711 149.072 17.278 149.495 17.0918C150.765 16.5163 151.399 15.2129 151.399 13.1816C151.399 12.5553 151.315 11.9798 151.146 11.4551C150.672 10.0332 149.698 9.32227 148.226 9.32227C147.227 9.32227 146.304 9.66927 145.458 10.3633L144.62 9.72852V2.44141C145.145 2.45833 145.873 2.48372 146.804 2.51758C148.175 2.58529 149.106 2.61914 149.597 2.61914C150.392 2.61914 150.985 2.56836 151.374 2.4668C151.865 2.31445 152.187 1.96745 152.339 1.42578H152.974C152.974 2.74609 152.762 3.63477 152.339 4.0918C151.865 4.54883 150.731 4.77734 148.937 4.77734C148.006 4.77734 146.846 4.70964 145.458 4.57422V9.39844C146.474 8.73828 147.65 8.39974 148.987 8.38281C150.172 8.38281 151.196 8.67057 152.06 9.24609C153.363 10.1263 154.015 11.4043 154.015 13.0801ZM166.812 17.7266H159.245V17.041H162.038V13.791L155.233 13.7656L155.081 13.0039C156.588 11.7682 157.84 10.4818 158.839 9.14453C159.77 7.85807 160.557 6.26693 161.2 4.37109C161.403 3.77865 161.556 3.36393 161.657 3.12695C161.979 2.4668 162.47 2.13672 163.13 2.13672C163.959 2.22135 164.45 2.67839 164.603 3.50781C164.603 4.20182 164.222 5.05664 163.46 6.07227C162.326 7.61263 159.914 9.92318 156.224 13.0039L162.038 13.0293V10.0332H162.241C162.461 10.0332 162.656 10.0163 162.825 9.98242C163.215 9.88086 163.502 9.52539 163.688 8.91602L163.968 7.90039H164.526V13.0547H166.812V13.8164H164.526V17.041H166.202C166.304 17.041 166.397 17.0495 166.481 17.0664C166.701 17.1003 166.812 17.3203 166.812 17.7266ZM174.353 16.2539C173.168 16.2539 172.135 16.0085 171.255 15.5176C169.935 14.7728 169.274 13.6895 169.274 12.2676C169.274 11.9121 169.325 11.5482 169.427 11.1758C169.85 9.73698 170.95 8.74674 172.728 8.20508C172.524 8.08659 172.33 7.97656 172.144 7.875C170.535 6.85938 169.731 5.70833 169.731 4.42188C169.731 3.45703 170.028 2.63607 170.62 1.95898C171.534 0.926432 172.863 0.410156 174.606 0.410156C175.47 0.410156 176.248 0.5625 176.942 0.867188C178.398 1.49349 179.126 2.56836 179.126 4.0918C179.126 4.31185 179.101 4.5319 179.05 4.75195C178.796 6.03841 177.983 7.05404 176.612 7.79883C177.019 8.03581 177.374 8.2474 177.679 8.43359C179.253 9.46615 180.04 10.6426 180.04 11.9629C180.023 13.0462 179.6 13.9772 178.771 14.7559C177.653 15.7546 176.181 16.2539 174.353 16.2539ZM172.042 3.43164C172.042 4.17643 172.338 4.85352 172.931 5.46289C173.405 5.93685 174.395 6.58854 175.901 7.41797C176.172 7.28255 176.418 7.13021 176.638 6.96094C177.704 6.18229 178.237 5.22591 178.237 4.0918C178.237 3.44857 178.06 2.88151 177.704 2.39062C177.078 1.5612 176.147 1.14648 174.911 1.14648C174.505 1.14648 174.124 1.19727 173.769 1.29883C172.618 1.60352 172.042 2.31445 172.042 3.43164ZM170.163 12.2168C170.163 12.9954 170.425 13.681 170.95 14.2734C171.712 15.1029 172.753 15.5176 174.073 15.5176C174.666 15.5176 175.207 15.4414 175.698 15.2891C177.035 14.8659 177.704 14.028 177.704 12.7754C177.687 11.9798 177.306 11.235 176.562 10.541C176.104 10.1517 175.106 9.53385 173.565 8.6875C172.871 8.83984 172.262 9.08529 171.737 9.42383C170.688 10.1348 170.163 11.0658 170.163 12.2168Z" fill="white"/>
</svg>
