<svg width="177" height="19" viewBox="0 0 177 19" fill="none" xmlns="http://www.w3.org/2000/svg">
<path d="M10.0811 10.541H5.84082V15.0859H4.59668V10.541H0.356445V9.57617H4.59668V5.03125H5.84082V9.57617H10.0811V10.541ZM22.9795 17.7266H15.4131V17.041H18.2061V13.791L11.4014 13.7656L11.249 13.0039C12.7555 11.7682 14.0081 10.4818 15.0068 9.14453C15.9378 7.85807 16.7249 6.26693 17.3682 4.37109C17.5713 3.77865 17.7236 3.36393 17.8252 3.12695C18.1468 2.4668 18.6377 2.13672 19.2979 2.13672C20.1273 2.22135 20.6182 2.67839 20.7705 3.50781C20.7705 4.20182 20.3896 5.05664 19.6279 6.07227C18.4938 7.61263 16.0817 9.92318 12.3916 13.0039L18.2061 13.0293V10.0332H18.4092C18.6292 10.0332 18.8239 10.0163 18.9932 9.98242C19.3825 9.88086 19.6702 9.52539 19.8564 8.91602L20.1357 7.90039H20.6943V13.0547H22.9795V13.8164H20.6943V17.041H22.3701C22.4717 17.041 22.5648 17.0495 22.6494 17.0664C22.8695 17.1003 22.9795 17.3203 22.9795 17.7266ZM26.1787 13.918H31.9678C32.3232 13.918 32.6025 13.901 32.8057 13.8672C33.2796 13.7656 33.6182 13.4102 33.8213 12.8008L34.2529 11.5312H34.7607L34.7354 16H24.7822V15.3906C24.7822 14.7812 24.9007 14.2142 25.1377 13.6895C25.4932 12.9108 26.2718 12.1322 27.4736 11.3535C28.777 10.5072 29.5218 10.0163 29.708 9.88086C31.0791 8.79753 31.7646 7.41797 31.7646 5.74219C31.7646 5.40365 31.7308 5.07357 31.6631 4.75195C31.3584 3.48242 30.5713 2.84766 29.3018 2.84766C28.7939 2.84766 28.3962 2.96615 28.1084 3.20312C27.8206 3.47396 27.6344 4.06641 27.5498 4.98047C27.516 5.35286 27.4821 5.63216 27.4482 5.81836C27.2959 6.56315 26.8389 6.93555 26.0771 6.93555C25.9417 6.93555 25.8063 6.91016 25.6709 6.85938C25.1123 6.67318 24.833 6.19076 24.833 5.41211C24.833 4.66732 25.1123 4.02409 25.6709 3.48242C26.568 2.61914 27.8545 2.1875 29.5303 2.1875C30.3766 2.1875 31.1553 2.30599 31.8662 2.54297C33.5758 3.11849 34.4307 4.22721 34.4307 5.86914C34.4307 6.85091 34.0075 7.77344 33.1611 8.63672C32.484 9.34766 31.1976 10.2194 29.3018 11.252C28.7262 11.5736 28.3031 11.8105 28.0322 11.9629C26.7965 12.6908 26.1787 13.3424 26.1787 13.918ZM43.1143 2.1875C44.2822 2.1875 45.3063 2.4668 46.1865 3.02539C47.9808 4.19336 48.8779 6.25846 48.8779 9.2207C48.8779 11.0658 48.4632 12.6061 47.6338 13.8418C46.5505 15.4499 45.0101 16.2539 43.0127 16.2539C41.7262 16.2539 40.609 15.8984 39.6611 15.1875C38.0192 13.9518 37.1982 11.9375 37.1982 9.14453C37.1982 7.31641 37.6214 5.78451 38.4678 4.54883C39.568 2.97461 41.1169 2.1875 43.1143 2.1875ZM43.0889 15.5938C43.4443 15.5938 43.766 15.5345 44.0537 15.416C45.391 14.8405 46.0596 12.7415 46.0596 9.11914C46.0596 7.52799 45.9411 6.25846 45.7041 5.31055C45.2809 3.66862 44.4007 2.84766 43.0635 2.84766C42.6911 2.84766 42.3441 2.91536 42.0225 3.05078C40.6852 3.6263 40.0166 5.68294 40.0166 9.2207C40.0166 10.8457 40.1436 12.1491 40.3975 13.1309C40.8376 14.7728 41.7347 15.5938 43.0889 15.5938ZM67.1338 11.2773C67.1338 12.4115 66.7952 13.4186 66.1182 14.2988C65.0687 15.6022 63.5706 16.2539 61.624 16.2539C60.4899 16.2539 59.4997 15.9492 58.6533 15.3398C56.9268 14.1042 56.0635 11.8613 56.0635 8.61133C56.0635 6.71549 56.4105 5.09049 57.1045 3.73633C58.2217 1.51888 60.0075 0.410156 62.4619 0.410156C63.5114 0.410156 64.4339 0.596354 65.2295 0.96875C66.3298 1.47656 66.8799 2.17904 66.8799 3.07617C66.8799 3.21159 66.863 3.34701 66.8291 3.48242C66.6768 4.17643 66.2367 4.52344 65.5088 4.52344C65.1533 4.52344 64.8656 4.45573 64.6455 4.32031C64.3747 4.11719 64.1885 3.65169 64.0869 2.92383C64.0531 2.60221 64.0107 2.36523 63.96 2.21289C63.7738 1.45117 63.1898 1.07031 62.208 1.07031C61.5817 1.07031 61.0485 1.24805 60.6084 1.60352C59.5758 2.41602 58.9834 4.42188 58.8311 7.62109C59.8128 6.92708 60.9215 6.57161 62.1572 6.55469C63.2744 6.55469 64.2646 6.82552 65.1279 7.36719C66.4652 8.2474 67.1338 9.55078 67.1338 11.2773ZM58.7549 11.582C58.7549 12.0052 58.7803 12.4115 58.8311 12.8008C59.1357 14.6628 60.0752 15.5938 61.6494 15.5938C63.5452 15.5768 64.5016 14.138 64.5186 11.2773C64.5016 8.6875 63.5706 7.37565 61.7256 7.3418C61.4378 7.3418 61.167 7.37565 60.9131 7.44336C59.4743 7.86654 58.7549 9.24609 58.7549 11.582ZM75.1318 2.1875C76.2998 2.1875 77.3239 2.4668 78.2041 3.02539C79.9984 4.19336 80.8955 6.25846 80.8955 9.2207C80.8955 11.0658 80.4808 12.6061 79.6514 13.8418C78.568 15.4499 77.0277 16.2539 75.0303 16.2539C73.7438 16.2539 72.6266 15.8984 71.6787 15.1875C70.0368 13.9518 69.2158 11.9375 69.2158 9.14453C69.2158 7.31641 69.639 5.78451 70.4854 4.54883C71.5856 2.97461 73.1344 2.1875 75.1318 2.1875ZM75.1064 15.5938C75.4619 15.5938 75.7835 15.5345 76.0713 15.416C77.4085 14.8405 78.0771 12.7415 78.0771 9.11914C78.0771 7.52799 77.9587 6.25846 77.7217 5.31055C77.2985 3.66862 76.4183 2.84766 75.0811 2.84766C74.7087 2.84766 74.3617 2.91536 74.04 3.05078C72.7028 3.6263 72.0342 5.68294 72.0342 9.2207C72.0342 10.8457 72.1611 12.1491 72.415 13.1309C72.8551 14.7728 73.7523 15.5938 75.1064 15.5938ZM87.6494 2.44141H89.2998V15.1113L91.6865 15.3145C91.7542 15.3145 91.8219 15.3229 91.8896 15.3398C92.2282 15.4076 92.3975 15.6276 92.3975 16H83.333V15.3398L86.71 15.1113V4.16797L82.876 6.55469L82.4189 5.84375L87.6494 2.44141ZM103.468 2.44141H105.118V15.1113L107.505 15.3145C107.573 15.3145 107.64 15.3229 107.708 15.3398C108.047 15.4076 108.216 15.6276 108.216 16H99.1514V15.3398L102.528 15.1113V4.16797L98.6943 6.55469L98.2373 5.84375L103.468 2.44141ZM110.755 13.918H116.544C116.899 13.918 117.179 13.901 117.382 13.8672C117.856 13.7656 118.194 13.4102 118.397 12.8008L118.829 11.5312H119.337L119.312 16H109.358V15.3906C109.358 14.7812 109.477 14.2142 109.714 13.6895C110.069 12.9108 110.848 12.1322 112.05 11.3535C113.353 10.5072 114.098 10.0163 114.284 9.88086C115.655 8.79753 116.341 7.41797 116.341 5.74219C116.341 5.40365 116.307 5.07357 116.239 4.75195C115.935 3.48242 115.147 2.84766 113.878 2.84766C113.37 2.84766 112.972 2.96615 112.685 3.20312C112.397 3.47396 112.211 4.06641 112.126 4.98047C112.092 5.35286 112.058 5.63216 112.024 5.81836C111.872 6.56315 111.415 6.93555 110.653 6.93555C110.518 6.93555 110.382 6.91016 110.247 6.85938C109.688 6.67318 109.409 6.19076 109.409 5.41211C109.409 4.66732 109.688 4.02409 110.247 3.48242C111.144 2.61914 112.431 2.1875 114.106 2.1875C114.953 2.1875 115.731 2.30599 116.442 2.54297C118.152 3.11849 119.007 4.22721 119.007 5.86914C119.007 6.85091 118.584 7.77344 117.737 8.63672C117.06 9.34766 115.774 10.2194 113.878 11.252C113.302 11.5736 112.879 11.8105 112.608 11.9629C111.373 12.6908 110.755 13.3424 110.755 13.918ZM132.058 3.02539L126.345 9.14453C126.886 9.02604 127.445 8.9668 128.021 8.9668C129.188 8.9668 130.179 9.25456 130.991 9.83008C132.058 10.5918 132.591 11.6582 132.591 13.0293C132.591 14.0788 132.261 15.0352 131.601 15.8984C130.483 17.3203 128.833 18.0312 126.649 18.0312C125.617 18.0312 124.694 17.8704 123.882 17.5488C122.46 16.9733 121.749 16.0677 121.749 14.832C121.749 14.7305 121.757 14.6204 121.774 14.502C121.91 13.791 122.35 13.4355 123.095 13.4355C123.45 13.4355 123.738 13.5202 123.958 13.6895C124.246 13.9095 124.432 14.4427 124.517 15.2891C124.55 15.6615 124.584 15.9408 124.618 16.127C124.821 16.9564 125.388 17.3711 126.319 17.3711C128.723 17.3542 129.942 16.0254 129.976 13.3848C129.976 12.7585 129.882 12.1829 129.696 11.6582C129.256 10.3887 128.418 9.75391 127.183 9.75391C126.624 9.75391 126.04 9.88086 125.431 10.1348L124.821 9.62695L129.341 4.44727L124.796 4.42188C124.677 4.4388 124.559 4.45573 124.44 4.47266C123.899 4.55729 123.518 4.89583 123.298 5.48828L122.841 6.80859H122.257L122.308 2.44141H132.058V3.02539ZM150.694 17.7266H143.128V17.041H145.921V13.791L139.116 13.7656L138.964 13.0039C140.47 11.7682 141.723 10.4818 142.722 9.14453C143.653 7.85807 144.44 6.26693 145.083 4.37109C145.286 3.77865 145.438 3.36393 145.54 3.12695C145.862 2.4668 146.353 2.13672 147.013 2.13672C147.842 2.22135 148.333 2.67839 148.485 3.50781C148.485 4.20182 148.104 5.05664 147.343 6.07227C146.209 7.61263 143.797 9.92318 140.106 13.0039L145.921 13.0293V10.0332H146.124C146.344 10.0332 146.539 10.0163 146.708 9.98242C147.097 9.88086 147.385 9.52539 147.571 8.91602L147.851 7.90039H148.409V13.0547H150.694V13.8164H148.409V17.041H150.085C150.187 17.041 150.28 17.0495 150.364 17.0664C150.584 17.1003 150.694 17.3203 150.694 17.7266ZM163.44 13.0801C163.44 14.248 163.068 15.2637 162.323 16.127C161.206 17.3965 159.606 18.0312 157.524 18.0312C156.441 18.0312 155.502 17.8197 154.706 17.3965C153.555 16.7702 152.979 15.9154 152.979 14.832C152.979 14.7135 152.988 14.5866 153.005 14.4512C153.157 13.7741 153.606 13.4355 154.351 13.4355C154.723 13.4355 155.028 13.5202 155.265 13.6895C155.552 13.9264 155.73 14.4681 155.798 15.3145C155.832 15.7038 155.866 15.9831 155.899 16.1523C156.069 16.9648 156.61 17.3711 157.524 17.3711C158.032 17.3711 158.498 17.278 158.921 17.0918C160.19 16.5163 160.825 15.2129 160.825 13.1816C160.825 12.5553 160.741 11.9798 160.571 11.4551C160.097 10.0332 159.124 9.32227 157.651 9.32227C156.653 9.32227 155.73 9.66927 154.884 10.3633L154.046 9.72852V2.44141C154.571 2.45833 155.299 2.48372 156.229 2.51758C157.601 2.58529 158.532 2.61914 159.022 2.61914C159.818 2.61914 160.41 2.56836 160.8 2.4668C161.291 2.31445 161.612 1.96745 161.765 1.42578H162.399C162.399 2.74609 162.188 3.63477 161.765 4.0918C161.291 4.54883 160.157 4.77734 158.362 4.77734C157.431 4.77734 156.272 4.70964 154.884 4.57422V9.39844C155.899 8.73828 157.076 8.39974 158.413 8.38281C159.598 8.38281 160.622 8.67057 161.485 9.24609C162.789 10.1263 163.44 11.4043 163.44 13.0801ZM176.593 11.2773C176.593 12.4115 176.254 13.4186 175.577 14.2988C174.528 15.6022 173.03 16.2539 171.083 16.2539C169.949 16.2539 168.959 15.9492 168.112 15.3398C166.386 14.1042 165.522 11.8613 165.522 8.61133C165.522 6.71549 165.869 5.09049 166.563 3.73633C167.681 1.51888 169.466 0.410156 171.921 0.410156C172.97 0.410156 173.893 0.596354 174.688 0.96875C175.789 1.47656 176.339 2.17904 176.339 3.07617C176.339 3.21159 176.322 3.34701 176.288 3.48242C176.136 4.17643 175.696 4.52344 174.968 4.52344C174.612 4.52344 174.325 4.45573 174.104 4.32031C173.834 4.11719 173.647 3.65169 173.546 2.92383C173.512 2.60221 173.47 2.36523 173.419 2.21289C173.233 1.45117 172.649 1.07031 171.667 1.07031C171.041 1.07031 170.507 1.24805 170.067 1.60352C169.035 2.41602 168.442 4.42188 168.29 7.62109C169.272 6.92708 170.381 6.57161 171.616 6.55469C172.733 6.55469 173.724 6.82552 174.587 7.36719C175.924 8.2474 176.593 9.55078 176.593 11.2773ZM168.214 11.582C168.214 12.0052 168.239 12.4115 168.29 12.8008C168.595 14.6628 169.534 15.5938 171.108 15.5938C173.004 15.5768 173.961 14.138 173.978 11.2773C173.961 8.6875 173.03 7.37565 171.185 7.3418C170.897 7.3418 170.626 7.37565 170.372 7.44336C168.933 7.86654 168.214 9.24609 168.214 11.582Z" fill="white"/>
</svg>
