<svg width="177" height="17" viewBox="0 0 177 17" fill="none" xmlns="http://www.w3.org/2000/svg">
<path d="M9.87793 8.54102H5.6377V13.0859H4.39355V8.54102H0.15332V7.57617H4.39355V3.03125H5.6377V7.57617H9.87793V8.54102ZM22.7764 15.7266H15.21V15.041H18.0029V11.791L11.1982 11.7656L11.0459 11.0039C12.5524 9.76823 13.805 8.48177 14.8037 7.14453C15.7347 5.85807 16.5218 4.26693 17.165 2.37109C17.3682 1.77865 17.5205 1.36393 17.6221 1.12695C17.9437 0.466797 18.4346 0.136719 19.0947 0.136719C19.9242 0.221354 20.415 0.678385 20.5674 1.50781C20.5674 2.20182 20.1865 3.05664 19.4248 4.07227C18.2907 5.61263 15.8786 7.92318 12.1885 11.0039L18.0029 11.0293V8.0332H18.2061C18.4261 8.0332 18.6208 8.01628 18.79 7.98242C19.1794 7.88086 19.4671 7.52539 19.6533 6.91602L19.9326 5.90039H20.4912V11.0547H22.7764V11.8164H20.4912V15.041H22.167C22.2686 15.041 22.3617 15.0495 22.4463 15.0664C22.6663 15.1003 22.7764 15.3203 22.7764 15.7266ZM25.9756 11.918H31.7646C32.1201 11.918 32.3994 11.901 32.6025 11.8672C33.0765 11.7656 33.415 11.4102 33.6182 10.8008L34.0498 9.53125H34.5576L34.5322 14H24.5791V13.3906C24.5791 12.7812 24.6976 12.2142 24.9346 11.6895C25.29 10.9108 26.0687 10.1322 27.2705 9.35352C28.5739 8.50716 29.3187 8.01628 29.5049 7.88086C30.876 6.79753 31.5615 5.41797 31.5615 3.74219C31.5615 3.40365 31.5277 3.07357 31.46 2.75195C31.1553 1.48242 30.3682 0.847656 29.0986 0.847656C28.5908 0.847656 28.193 0.966146 27.9053 1.20312C27.6175 1.47396 27.4313 2.06641 27.3467 2.98047C27.3128 3.35286 27.279 3.63216 27.2451 3.81836C27.0928 4.56315 26.6357 4.93555 25.874 4.93555C25.7386 4.93555 25.6032 4.91016 25.4678 4.85938C24.9092 4.67318 24.6299 4.19076 24.6299 3.41211C24.6299 2.66732 24.9092 2.02409 25.4678 1.48242C26.3649 0.619141 27.6514 0.1875 29.3271 0.1875C30.1735 0.1875 30.9521 0.30599 31.6631 0.542969C33.3727 1.11849 34.2275 2.22721 34.2275 3.86914C34.2275 4.85091 33.8044 5.77344 32.958 6.63672C32.2809 7.34766 30.9945 8.2194 29.0986 9.25195C28.5231 9.57357 28.0999 9.81055 27.8291 9.96289C26.5934 10.6908 25.9756 11.3424 25.9756 11.918ZM42.9111 0.1875C44.0791 0.1875 45.1032 0.466797 45.9834 1.02539C47.7777 2.19336 48.6748 4.25846 48.6748 7.2207C48.6748 9.06576 48.2601 10.6061 47.4307 11.8418C46.3473 13.4499 44.807 14.2539 42.8096 14.2539C41.5231 14.2539 40.4059 13.8984 39.458 13.1875C37.8161 11.9518 36.9951 9.9375 36.9951 7.14453C36.9951 5.31641 37.4183 3.78451 38.2646 2.54883C39.3649 0.974609 40.9137 0.1875 42.9111 0.1875ZM42.8857 13.5938C43.2412 13.5938 43.5628 13.5345 43.8506 13.416C45.1878 12.8405 45.8564 10.7415 45.8564 7.11914C45.8564 5.52799 45.738 4.25846 45.501 3.31055C45.0778 1.66862 44.1976 0.847656 42.8604 0.847656C42.488 0.847656 42.141 0.915365 41.8193 1.05078C40.4821 1.6263 39.8135 3.68294 39.8135 7.2207C39.8135 8.8457 39.9404 10.1491 40.1943 11.1309C40.6344 12.7728 41.5316 13.5938 42.8857 13.5938ZM60.3799 0.441406H62.0303V13.1113L64.417 13.3145C64.4847 13.3145 64.5524 13.3229 64.6201 13.3398C64.9587 13.4076 65.1279 13.6276 65.1279 14H56.0635V13.3398L59.4404 13.1113V2.16797L55.6064 4.55469L55.1494 3.84375L60.3799 0.441406ZM67.667 11.918H73.4561C73.8115 11.918 74.0908 11.901 74.2939 11.8672C74.7679 11.7656 75.1064 11.4102 75.3096 10.8008L75.7412 9.53125H76.249L76.2236 14H66.2705V13.3906C66.2705 12.7812 66.389 12.2142 66.626 11.6895C66.9814 10.9108 67.7601 10.1322 68.9619 9.35352C70.2653 8.50716 71.0101 8.01628 71.1963 7.88086C72.5674 6.79753 73.2529 5.41797 73.2529 3.74219C73.2529 3.40365 73.2191 3.07357 73.1514 2.75195C72.8467 1.48242 72.0596 0.847656 70.79 0.847656C70.2822 0.847656 69.8844 0.966146 69.5967 1.20312C69.3089 1.47396 69.1227 2.06641 69.0381 2.98047C69.0042 3.35286 68.9704 3.63216 68.9365 3.81836C68.7842 4.56315 68.3271 4.93555 67.5654 4.93555C67.43 4.93555 67.2946 4.91016 67.1592 4.85938C66.6006 4.67318 66.3213 4.19076 66.3213 3.41211C66.3213 2.66732 66.6006 2.02409 67.1592 1.48242C68.0563 0.619141 69.3428 0.1875 71.0186 0.1875C71.8649 0.1875 72.6436 0.30599 73.3545 0.542969C75.0641 1.11849 75.9189 2.22721 75.9189 3.86914C75.9189 4.85091 75.4958 5.77344 74.6494 6.63672C73.9723 7.34766 72.6859 8.2194 70.79 9.25195C70.2145 9.57357 69.7913 9.81055 69.5205 9.96289C68.2848 10.6908 67.667 11.3424 67.667 11.918ZM79.8037 11.918H85.5928C85.9482 11.918 86.2275 11.901 86.4307 11.8672C86.9046 11.7656 87.2432 11.4102 87.4463 10.8008L87.8779 9.53125H88.3857L88.3604 14H78.4072V13.3906C78.4072 12.7812 78.5257 12.2142 78.7627 11.6895C79.1182 10.9108 79.8968 10.1322 81.0986 9.35352C82.402 8.50716 83.1468 8.01628 83.333 7.88086C84.7041 6.79753 85.3896 5.41797 85.3896 3.74219C85.3896 3.40365 85.3558 3.07357 85.2881 2.75195C84.9834 1.48242 84.1963 0.847656 82.9268 0.847656C82.4189 0.847656 82.0212 0.966146 81.7334 1.20312C81.4456 1.47396 81.2594 2.06641 81.1748 2.98047C81.141 3.35286 81.1071 3.63216 81.0732 3.81836C80.9209 4.56315 80.4639 4.93555 79.7021 4.93555C79.5667 4.93555 79.4313 4.91016 79.2959 4.85938C78.7373 4.67318 78.458 4.19076 78.458 3.41211C78.458 2.66732 78.7373 2.02409 79.2959 1.48242C80.193 0.619141 81.4795 0.1875 83.1553 0.1875C84.0016 0.1875 84.7803 0.30599 85.4912 0.542969C87.2008 1.11849 88.0557 2.22721 88.0557 3.86914C88.0557 4.85091 87.6325 5.77344 86.7861 6.63672C86.109 7.34766 84.8226 8.2194 82.9268 9.25195C82.3512 9.57357 81.9281 9.81055 81.6572 9.96289C80.4215 10.6908 79.8037 11.3424 79.8037 11.918ZM106.058 1.02539L100.345 7.14453C100.886 7.02604 101.445 6.9668 102.021 6.9668C103.188 6.9668 104.179 7.25456 104.991 7.83008C106.058 8.5918 106.591 9.6582 106.591 11.0293C106.591 12.0788 106.261 13.0352 105.601 13.8984C104.483 15.3203 102.833 16.0312 100.649 16.0312C99.6169 16.0312 98.6943 15.8704 97.8818 15.5488C96.46 14.9733 95.749 14.0677 95.749 12.832C95.749 12.7305 95.7575 12.6204 95.7744 12.502C95.9098 11.791 96.3499 11.4355 97.0947 11.4355C97.4502 11.4355 97.738 11.5202 97.958 11.6895C98.2458 11.9095 98.432 12.4427 98.5166 13.2891C98.5505 13.6615 98.5843 13.9408 98.6182 14.127C98.8213 14.9564 99.3883 15.3711 100.319 15.3711C102.723 15.3542 103.942 14.0254 103.976 11.3848C103.976 10.7585 103.882 10.1829 103.696 9.6582C103.256 8.38867 102.418 7.75391 101.183 7.75391C100.624 7.75391 100.04 7.88086 99.4307 8.13477L98.8213 7.62695L103.341 2.44727L98.7959 2.42188C98.6774 2.4388 98.5589 2.45573 98.4404 2.47266C97.8988 2.55729 97.5179 2.89583 97.2979 3.48828L96.8408 4.80859H96.2568L96.3076 0.441406H106.058V1.02539ZM119.134 1.02539L113.421 7.14453C113.963 7.02604 114.521 6.9668 115.097 6.9668C116.265 6.9668 117.255 7.25456 118.067 7.83008C119.134 8.5918 119.667 9.6582 119.667 11.0293C119.667 12.0788 119.337 13.0352 118.677 13.8984C117.56 15.3203 115.909 16.0312 113.726 16.0312C112.693 16.0312 111.771 15.8704 110.958 15.5488C109.536 14.9733 108.825 14.0677 108.825 12.832C108.825 12.7305 108.834 12.6204 108.851 12.502C108.986 11.791 109.426 11.4355 110.171 11.4355C110.526 11.4355 110.814 11.5202 111.034 11.6895C111.322 11.9095 111.508 12.4427 111.593 13.2891C111.627 13.6615 111.66 13.9408 111.694 14.127C111.897 14.9564 112.465 15.3711 113.396 15.3711C115.799 15.3542 117.018 14.0254 117.052 11.3848C117.052 10.7585 116.959 10.1829 116.772 9.6582C116.332 8.38867 115.494 7.75391 114.259 7.75391C113.7 7.75391 113.116 7.88086 112.507 8.13477L111.897 7.62695L116.417 2.44727L111.872 2.42188C111.754 2.4388 111.635 2.45573 111.517 2.47266C110.975 2.55729 110.594 2.89583 110.374 3.48828L109.917 4.80859H109.333L109.384 0.441406H119.134V1.02539ZM132.21 1.02539L126.497 7.14453C127.039 7.02604 127.597 6.9668 128.173 6.9668C129.341 6.9668 130.331 7.25456 131.144 7.83008C132.21 8.5918 132.743 9.6582 132.743 11.0293C132.743 12.0788 132.413 13.0352 131.753 13.8984C130.636 15.3203 128.985 16.0312 126.802 16.0312C125.769 16.0312 124.847 15.8704 124.034 15.5488C122.612 14.9733 121.901 14.0677 121.901 12.832C121.901 12.7305 121.91 12.6204 121.927 12.502C122.062 11.791 122.502 11.4355 123.247 11.4355C123.603 11.4355 123.89 11.5202 124.11 11.6895C124.398 11.9095 124.584 12.4427 124.669 13.2891C124.703 13.6615 124.737 13.9408 124.771 14.127C124.974 14.9564 125.541 15.3711 126.472 15.3711C128.875 15.3542 130.094 14.0254 130.128 11.3848C130.128 10.7585 130.035 10.1829 129.849 9.6582C129.409 8.38867 128.571 7.75391 127.335 7.75391C126.776 7.75391 126.192 7.88086 125.583 8.13477L124.974 7.62695L129.493 2.44727L124.948 2.42188C124.83 2.4388 124.711 2.45573 124.593 2.47266C124.051 2.55729 123.67 2.89583 123.45 3.48828L122.993 4.80859H122.409L122.46 0.441406H132.21V1.02539ZM150.847 15.7266H143.28V15.041H146.073V11.791L139.269 11.7656L139.116 11.0039C140.623 9.76823 141.875 8.48177 142.874 7.14453C143.805 5.85807 144.592 4.26693 145.235 2.37109C145.438 1.77865 145.591 1.36393 145.692 1.12695C146.014 0.466797 146.505 0.136719 147.165 0.136719C147.994 0.221354 148.485 0.678385 148.638 1.50781C148.638 2.20182 148.257 3.05664 147.495 4.07227C146.361 5.61263 143.949 7.92318 140.259 11.0039L146.073 11.0293V8.0332H146.276C146.496 8.0332 146.691 8.01628 146.86 7.98242C147.25 7.88086 147.537 7.52539 147.724 6.91602L148.003 5.90039H148.562V11.0547H150.847V11.8164H148.562V15.041H150.237C150.339 15.041 150.432 15.0495 150.517 15.0664C150.737 15.1003 150.847 15.3203 150.847 15.7266ZM163.821 15.7266H156.255V15.041H159.048V11.791L152.243 11.7656L152.091 11.0039C153.597 9.76823 154.85 8.48177 155.849 7.14453C156.78 5.85807 157.567 4.26693 158.21 2.37109C158.413 1.77865 158.565 1.36393 158.667 1.12695C158.989 0.466797 159.479 0.136719 160.14 0.136719C160.969 0.221354 161.46 0.678385 161.612 1.50781C161.612 2.20182 161.231 3.05664 160.47 4.07227C159.336 5.61263 156.924 7.92318 153.233 11.0039L159.048 11.0293V8.0332H159.251C159.471 8.0332 159.666 8.01628 159.835 7.98242C160.224 7.88086 160.512 7.52539 160.698 6.91602L160.978 5.90039H161.536V11.0547H163.821V11.8164H161.536V15.041H163.212C163.313 15.041 163.407 15.0495 163.491 15.0664C163.711 15.1003 163.821 15.3203 163.821 15.7266ZM176.796 15.7266H169.229V15.041H172.022V11.791L165.218 11.7656L165.065 11.0039C166.572 9.76823 167.825 8.48177 168.823 7.14453C169.754 5.85807 170.541 4.26693 171.185 2.37109C171.388 1.77865 171.54 1.36393 171.642 1.12695C171.963 0.466797 172.454 0.136719 173.114 0.136719C173.944 0.221354 174.435 0.678385 174.587 1.50781C174.587 2.20182 174.206 3.05664 173.444 4.07227C172.31 5.61263 169.898 7.92318 166.208 11.0039L172.022 11.0293V8.0332H172.226C172.446 8.0332 172.64 8.01628 172.81 7.98242C173.199 7.88086 173.487 7.52539 173.673 6.91602L173.952 5.90039H174.511V11.0547H176.796V11.8164H174.511V15.041H176.187C176.288 15.041 176.381 15.0495 176.466 15.0664C176.686 15.1003 176.796 15.3203 176.796 15.7266Z" fill="white"/>
</svg>
