<svg width="682" height="252" viewBox="0 0 682 252" fill="none" xmlns="http://www.w3.org/2000/svg">
<path d="M70.1822 99.9683C69.7558 101.805 69.2126 104.454 68.5528 107.916C67.9894 111.274 67.3469 115.139 66.625 119.513C66.004 123.883 65.293 128.509 64.4919 133.392C63.7873 138.169 63.131 142.894 62.5229 147.566C62.0157 152.234 61.548 156.647 61.12 160.807C60.6877 164.866 60.4815 168.309 60.5015 171.136C60.5345 174.265 60.6661 177.34 60.8963 180.361C61.1094 182.978 61.3771 185.693 61.6995 188.508C62.1271 191.418 62.7413 193.968 63.5419 196.156C61.8625 197.036 60.3739 197.655 59.0762 198.013C57.7829 198.473 56.7372 198.82 55.9393 199.057C54.9397 199.301 54.0871 199.439 53.3813 199.469C52.5748 199.504 51.6127 199.444 50.495 199.29C49.3817 199.236 48.3519 198.775 47.4057 197.907C46.4595 197.038 45.643 195.659 44.9561 193.769C44.2692 191.88 43.9489 189.116 43.9952 185.478C43.9925 183.054 44.2663 180.012 44.8167 176.352C45.2706 172.798 45.8606 168.884 46.5868 164.611C47.3086 160.236 48.1269 155.757 49.0418 151.173C50.0531 146.484 51.0205 141.947 51.944 137.565C52.8632 133.081 53.6923 128.854 54.4314 124.883C55.2713 120.908 55.9837 117.494 56.5686 114.641C57.3207 110.973 58.1476 106.695 59.0495 101.808C60.6113 93.4591 62.9539 80.9354 66.0774 64.2371C66.7615 63.7028 67.4983 63.2168 68.2876 62.779C69.0725 62.2403 69.761 61.8069 70.353 61.4785C71.0415 61.045 71.7343 60.7124 72.4314 60.4805C75.6058 59.1326 77.8678 58.8843 79.2172 59.7356C80.6675 60.5826 81.5518 62.3628 81.8699 65.0763C82.0484 66.8867 82.3622 69.4994 82.8114 72.9143C83.3614 76.3249 83.8782 80.1409 84.3619 84.3624C84.8456 88.5838 85.2853 92.9587 85.6811 97.4869C86.0726 101.914 86.3503 106.044 86.5143 109.875C86.6222 112.395 86.7999 115.367 87.0474 118.791C87.2949 122.214 87.6015 125.837 87.9671 129.66C88.3327 133.482 88.753 137.403 89.228 141.423C89.6988 145.342 90.2135 149.108 90.7721 152.72C91.3307 156.332 91.8763 159.642 92.4091 162.649C93.0426 165.652 93.6524 168.101 94.2385 169.995C94.4747 170.793 94.7087 171.54 94.9405 172.237C95.2732 172.93 95.5554 173.625 95.7873 174.322C96.2886 171.877 96.821 168.975 97.3843 165.618C98.0485 162.257 98.704 158.693 99.3509 154.929C100.094 151.059 100.785 147.14 101.423 143.174C102.057 139.107 102.601 135.296 103.055 131.741C103.438 128.897 103.838 125.243 104.253 120.781C104.668 116.32 105.169 111.5 105.755 106.324C104.629 105.968 103.553 105.61 102.527 105.25C101.603 104.886 100.674 104.421 99.7406 103.854C98.8074 103.288 98.021 102.615 97.3816 101.834C97.4263 100.519 97.4862 99.5573 97.5611 98.948C97.7368 98.3345 98.2388 98.2625 99.0669 98.7321C99.6848 99.0087 100.607 99.3227 101.834 99.6742C103.162 100.021 104.687 100.259 106.41 100.387C106.793 97.5429 107.227 94.6962 107.711 91.8474C108.296 88.9942 108.885 86.2419 109.479 83.5904C110.402 79.2077 111.496 75.2723 112.761 71.784C114.022 68.1949 115.507 65.1517 117.219 62.6544C119.031 60.1527 121.169 58.1927 123.633 56.7741C126.098 55.3556 128.991 54.5248 132.314 54.2816C135.439 54.1478 138.016 55.3506 140.044 57.8899C142.168 60.3241 143.215 64.7234 143.184 71.088C143.185 75.8351 142.36 80.1631 140.71 84.0719C139.155 87.8755 137.18 91.2932 134.785 94.3248C132.385 97.2556 129.714 99.7435 126.772 101.789C123.825 103.733 121.008 105.166 118.32 106.089C117.615 110.867 116.963 115.692 116.364 120.566C115.76 125.339 115.152 130.011 114.54 134.583C114.024 139.049 113.449 143.316 112.815 147.383C112.282 151.446 111.729 155.055 111.157 158.211C110.581 161.266 109.965 164.575 109.31 168.138C108.733 171.193 108.025 174.708 107.185 178.683C106.345 182.658 105.464 186.837 104.54 191.219C104.176 192.144 103.704 192.922 103.125 193.553C102.55 194.284 101.969 194.865 101.381 195.294C100.697 195.828 100.009 196.261 99.316 196.594C97.3342 197.487 95.6267 197.712 94.1937 197.268C92.7606 196.824 91.4421 195.517 90.2382 193.347C89.03 191.075 87.8988 188.245 86.8447 184.856C85.8915 181.463 84.8748 177.769 83.7949 173.775C82.702 169.479 81.7956 164.821 81.0758 159.801C80.4524 154.677 79.8773 149.5 79.3505 144.27C78.9202 138.935 78.5424 133.649 78.2172 128.411C77.892 123.172 77.479 118.241 76.978 113.616C76.215 107.588 75.4801 102.216 74.7732 97.4992C74.062 92.6815 73.3327 88.622 72.5854 85.3209C72.2685 87.3545 71.9119 89.6424 71.5156 92.1844C71.1194 94.7265 70.6749 97.3211 70.1822 99.9683ZM120.723 91.442C120.301 93.3791 119.976 95.2111 119.746 96.938C122.106 95.423 124.299 93.5616 126.325 91.3538C128.347 89.0451 130.063 86.6486 131.472 84.1642C132.88 81.6798 133.936 79.2106 134.639 76.7564C135.443 74.2979 135.852 72.0583 135.867 70.0376C135.907 68.6218 135.709 67.5193 135.271 66.73C134.929 65.8356 134.305 65.4078 133.398 65.4466C132.894 65.4682 132.1 65.8051 131.017 66.4575C130.03 67.0048 128.92 68.2138 127.687 70.0846C126.45 71.8547 125.197 74.4334 123.928 77.8208C122.76 81.204 121.691 85.7443 120.723 91.442ZM209.719 135.358C208.393 137.434 206.686 140.032 204.598 143.152C202.505 146.171 200.313 149.244 198.023 152.372C195.83 155.395 193.627 158.217 191.416 160.836C189.302 163.351 187.51 165.145 186.041 166.217C185.059 166.866 183.921 167.419 182.627 167.879C181.334 168.338 179.984 168.648 178.576 168.81C177.27 168.966 176.006 168.92 174.783 168.669C173.564 168.519 172.488 168.161 171.555 167.595C170.618 166.928 169.818 165.952 169.157 164.667C168.606 163.58 168.039 162.14 167.457 160.347C166.976 158.549 166.728 156.287 166.712 153.561C164.465 157.697 161.927 160.937 159.099 163.28C156.265 165.522 153.56 167.204 150.982 168.324C148.005 169.562 145.008 170.347 141.992 170.678C140.581 170.739 139.047 170.299 137.39 169.36C135.739 168.522 134.315 167.118 133.12 165.149C131.92 163.08 131.1 160.438 130.659 157.225C130.215 153.911 130.45 149.961 131.364 145.377C132.513 139.167 134.491 133.476 137.3 128.306C140.21 123.131 143.404 118.702 146.882 115.018C150.356 111.233 153.819 108.358 157.27 106.392C160.721 104.426 163.61 103.495 165.938 103.597C168.681 103.985 170.934 104.696 172.695 105.732C174.15 106.68 175.122 108.153 175.612 110.152C176.198 112.046 175.501 114.652 173.522 117.968C174.92 117.606 176.071 117.354 176.974 117.215C177.978 117.071 178.732 116.988 179.236 116.966C179.841 116.94 180.247 116.974 180.453 117.066C180.562 117.263 180.632 117.715 180.662 118.42C180.688 119.025 180.586 120.191 180.357 121.918C180.128 123.645 179.774 125.983 179.294 128.933C178.814 131.882 178.169 135.698 177.36 140.379C177.197 141.295 177.032 142.16 176.865 142.975C176.794 143.685 176.675 144.448 176.508 145.263C176.438 145.973 176.323 146.837 176.165 147.853C176.006 148.87 175.808 150.141 175.57 151.667C175.508 152.578 175.501 153.589 175.548 154.698C175.692 155.701 175.935 156.651 176.276 157.545C176.618 158.439 177.104 159.176 177.734 159.755C178.462 160.229 179.43 160.44 180.64 160.388C181.648 160.345 182.933 159.684 184.494 158.405C186.051 157.026 187.696 155.339 189.429 153.346C191.158 151.252 192.93 149.005 194.746 146.604C196.659 144.098 198.425 141.699 200.044 139.408C201.663 137.116 203.091 135.086 204.328 133.316C205.667 131.541 206.621 130.238 207.191 129.405C207.959 128.464 208.744 127.925 209.546 127.79C210.344 127.553 210.958 127.729 211.387 128.317C211.816 128.904 211.905 129.81 211.655 131.032C211.505 132.251 210.859 133.693 209.719 135.358ZM165.693 143.908C166.111 141.87 166.615 139.475 167.204 136.723C167.793 133.97 168.286 131.323 168.682 128.781C169.078 126.239 169.343 124.157 169.475 122.535C169.704 120.808 169.619 120.004 169.22 120.122C168.721 120.244 168.173 120.419 167.576 120.647C167.081 120.87 166.432 121.049 165.63 121.185C164.828 121.32 164.028 121.506 163.23 121.742C163.967 120.094 164.365 118.764 164.422 117.752C164.577 116.634 164.59 115.775 164.464 115.174C164.333 114.473 164.107 113.927 163.787 113.537C162.64 112.677 160.706 113.517 157.987 116.058C155.364 118.493 152.373 122.964 149.016 129.471C147.616 132.157 146.527 135.032 145.749 138.095C144.967 141.058 144.43 143.858 144.139 146.497C143.949 149.131 143.997 151.452 144.285 153.46C144.569 155.367 145.026 156.61 145.657 157.189C146.813 158.25 148.097 158.751 149.509 158.691C150.916 158.529 152.31 158.066 153.691 157.3C155.169 156.428 156.588 155.358 157.948 154.087C159.408 152.813 160.665 151.496 161.718 150.138C162.872 148.776 163.778 147.525 164.436 146.386C165.195 145.242 165.614 144.416 165.693 143.908ZM173.151 73.8961C174.028 73.1516 175.038 73.1588 176.182 73.9179C177.325 74.677 178.184 75.8523 178.757 77.4438C179.553 79.5308 179.673 81.1418 179.115 82.2767C178.553 83.3108 177.685 84.257 176.51 85.1153C175.926 85.6453 174.797 86.4006 173.122 87.3814C171.548 88.3578 169.774 89.3932 167.801 90.4877C165.924 91.4771 164.045 92.416 162.164 93.3046C160.279 94.0923 158.834 94.5581 157.83 94.7021C156.725 94.8504 155.864 94.7862 155.246 94.5097C154.624 94.1323 154.101 93.7002 153.676 93.2133C153.352 92.7222 153.126 92.1763 153 91.5757C152.869 90.8743 152.792 90.2715 152.771 89.7674C160.402 83.9866 165.73 79.8699 168.756 77.4173C170.515 76.029 171.98 74.8553 173.151 73.8961ZM221.977 159.831C222.6 160.209 223.364 160.378 224.272 160.339C225.28 160.296 226.229 160.053 227.119 159.611C228.11 159.165 228.994 158.571 229.77 157.831C230.647 157.087 231.264 156.151 231.62 155.025C231.975 153.899 231.908 152.336 231.419 150.337C230.925 148.237 230.175 146.047 229.168 143.767C228.258 141.382 227.247 139.001 226.135 136.624C225.024 134.248 224.072 132.067 223.28 130.08C222.61 128.594 222.046 127.204 221.586 125.911C221.135 124.819 220.687 123.778 220.24 122.787C219.891 121.691 219.606 120.945 219.387 120.551C218.918 121.379 218.066 122.728 216.833 124.599C215.701 126.466 214.422 128.439 212.996 130.521C211.667 132.497 210.383 134.37 209.146 136.14C207.904 137.809 207.044 138.957 206.566 139.583C205.799 140.525 205.016 141.114 204.218 141.35C203.516 141.481 202.905 141.356 202.384 140.974C201.858 140.492 201.527 139.849 201.392 139.047C201.353 138.14 201.711 137.064 202.466 135.819C203.036 134.987 203.89 133.688 205.026 131.922C206.159 130.056 207.291 128.189 208.423 126.323C209.551 124.355 210.588 122.644 211.536 121.19C212.48 119.634 212.995 118.703 213.083 118.396C213.25 117.581 212.903 116.536 212.04 115.259C211.278 113.979 211.113 112.471 211.543 110.735C211.886 109.307 212.725 107.655 214.058 105.78C215.388 103.804 216.978 102.019 218.829 100.424C220.68 98.83 222.598 97.6369 224.584 96.8448C226.566 95.952 228.381 95.8743 230.029 96.6118C231.374 97.3623 232.471 98.2244 233.321 99.198C234.166 100.071 234.51 101.016 234.351 102.033C234.171 102.545 233.897 103.214 233.528 104.037C233.159 104.861 232.598 105.895 231.843 107.14C231.084 108.283 229.987 109.795 228.552 111.674C228.954 113.98 229.448 116.08 230.034 117.974C230.721 119.864 231.346 121.503 231.911 122.893C232.589 124.581 233.311 126.116 234.078 127.497C235.063 129.273 236.1 131.097 237.19 132.97C238.281 134.842 239.27 136.719 240.158 138.6C241.043 140.38 241.771 142.066 242.344 143.658C242.918 145.249 243.127 146.604 242.973 147.721C242.744 149.448 241.925 151.554 240.516 154.038C239.208 156.518 237.495 158.965 235.376 161.379C233.354 163.688 230.966 165.709 228.212 167.443C225.559 169.172 222.72 170.102 219.695 170.231C217.578 170.322 215.483 169.755 213.411 168.531C211.439 167.302 209.711 165.861 208.226 164.207C206.838 162.449 205.754 160.728 204.975 159.044C204.297 157.356 204.19 156.047 204.656 155.118C205.209 153.883 205.722 152.901 206.196 152.174C206.67 151.447 207.392 150.608 208.361 149.657C208.751 149.337 209.24 148.963 209.828 148.534C210.319 148.21 211.012 147.877 211.906 147.536C212.801 147.195 213.844 146.796 215.037 146.341C216.179 149.424 217.192 151.855 218.076 153.635C218.956 155.314 219.67 156.647 220.217 157.634C220.869 158.717 221.456 159.45 221.977 159.831ZM215.743 74.3458C214.67 72.8767 213.709 71.6553 212.859 70.6816C212.005 69.6071 210.958 68.7429 209.718 68.089C210.402 67.5547 211.249 67.2659 212.257 67.2228C213.361 67.0745 214.418 66.9788 215.426 66.9356C216.539 66.989 217.754 67.038 219.068 67.0828C220.993 67.2024 222.588 67.8917 223.854 69.1506C225.22 70.4051 226.891 72.8587 228.865 76.5114C228.87 76.6122 228.874 76.713 228.878 76.8138C228.979 76.8095 229.032 76.8577 229.036 76.9586C232.637 73.7743 235.069 71.5997 236.332 70.4346C237.692 69.1643 238.468 68.4241 238.661 68.2138C240.319 66.8298 241.959 66.2041 243.58 66.3367C245.202 66.4693 246.717 66.455 248.124 66.2938L249.939 66.2161C250.443 66.1945 250.997 66.1708 251.602 66.1449C252.203 66.0182 252.753 65.8937 253.253 65.7713C252.77 66.2969 251.946 67.0897 250.779 68.1497C249.608 69.1089 248.389 70.1206 247.121 71.1849C245.656 72.3586 244.097 73.6879 242.444 75.1727C241.86 75.7027 241.082 76.3925 240.108 77.2422C239.134 78.0919 238.11 78.9438 237.036 79.7978C236.062 80.6475 235.137 81.4446 234.26 82.1892C233.479 82.8286 232.891 83.2578 232.497 83.4767C232.207 83.7921 231.512 84.0744 230.412 84.3235C229.307 84.4718 228.15 84.5718 226.94 84.6236C225.73 84.6753 224.566 84.6241 223.449 84.47C222.432 84.3115 221.816 84.0853 221.602 83.7915C221.387 83.4977 221.008 82.9078 220.465 82.022C219.922 81.1363 219.327 80.2022 218.679 79.2199C218.027 78.1368 217.429 77.1523 216.886 76.2665C216.343 75.3807 215.962 74.7405 215.743 74.3458ZM290.594 226.739C289.876 226.467 289.151 226.043 288.419 225.468C287.792 224.99 287.159 224.361 286.52 223.58C285.885 222.9 285.342 222.014 284.891 220.923C287.253 210.014 289.271 200.534 290.946 192.483C292.521 184.437 293.9 177.711 295.083 172.308C296.327 165.992 297.414 160.693 298.341 156.412C299.177 152.336 300.013 148.26 300.848 144.184C301.504 140.621 302.199 136.803 302.934 132.732C303.769 128.656 304.515 124.836 305.17 121.273C306.01 117.298 306.481 114.147 306.584 111.819C306.682 109.391 305.837 107.356 304.05 105.716C305.217 104.656 306.394 103.848 307.582 103.292C308.867 102.631 310.009 102.178 311.009 101.933C312.105 101.583 313.21 101.435 314.323 101.489C317.054 101.574 318.754 102.359 319.424 103.846C320.194 105.328 320.398 107.743 320.037 111.092C319.958 111.6 319.876 112.058 319.793 112.466C319.805 112.768 319.821 113.121 319.838 113.524C321.18 111.851 322.676 110.221 324.325 108.636C325.975 107.05 327.63 105.616 329.292 104.333C331.055 103.045 332.829 102.01 334.614 101.226C336.495 100.338 338.292 99.8567 340.006 99.7833C342.325 99.6841 344.216 100.209 345.679 101.359C347.239 102.403 348.463 103.866 349.352 105.747C350.24 107.628 350.837 109.774 351.142 112.185C351.443 114.495 351.593 116.812 351.591 119.135C351.598 121.66 351.259 124.351 350.573 127.208C349.988 130.061 349.103 132.978 347.917 135.958C346.732 138.937 345.343 141.876 343.75 144.772C342.156 147.668 340.454 150.367 338.642 152.869C339.049 152.952 339.306 153.042 339.411 153.139C339.512 153.135 339.564 153.183 339.569 153.284C339.569 153.284 339.621 153.332 339.726 153.428C339.928 153.42 340.281 153.405 340.785 153.383C343.104 153.284 345.447 152.577 347.815 151.264C350.183 149.951 352.487 148.337 354.729 146.423C356.965 144.408 359.095 142.247 361.117 139.938C363.24 137.625 365.116 135.424 366.743 133.334C368.468 131.139 369.9 129.209 371.041 127.544C372.177 125.779 373.033 124.53 373.608 123.798C374.371 122.756 375.099 122.068 375.792 121.735C376.48 121.302 377.033 121.228 377.449 121.513C377.865 121.798 378.093 122.394 378.131 123.302C378.166 124.108 377.909 125.18 377.36 126.516C376.996 127.441 376.201 128.939 374.977 131.012C373.752 133.084 372.236 135.422 370.429 138.024C368.621 140.627 366.515 143.343 364.111 146.173C361.808 148.999 359.343 151.579 356.716 153.913C354.089 156.248 351.343 158.183 348.48 159.72C345.722 161.353 342.982 162.228 340.259 162.344C338.949 162.4 337.888 162.395 337.077 162.329C336.266 162.263 335.552 162.091 334.934 161.815C334.421 161.635 333.906 161.404 333.389 161.123C332.877 160.943 332.261 160.717 331.542 160.445C329.788 161.934 327.968 163.072 326.083 163.86C324.202 164.749 322.354 165.232 320.539 165.309C318.825 165.383 317.3 165.145 315.963 164.596C314.732 164.144 313.691 163.431 312.842 162.457C311.996 161.584 311.298 160.604 310.746 159.517C310.19 158.329 309.738 157.186 309.388 156.09C309.304 156.498 309.218 156.855 309.13 157.162C309.143 157.464 309.11 157.87 309.031 158.378C308.028 163.269 307.008 168.919 305.969 175.326C305.093 180.818 304.014 187.48 302.733 195.312C301.558 203.241 300.326 212.232 299.04 222.287C298.551 225.035 297.56 226.643 296.065 227.111C294.469 227.583 292.645 227.459 290.594 226.739ZM314.256 131.793C313.826 133.528 313.357 135.568 312.852 137.913C312.443 140.152 311.952 142.85 311.38 146.006C312.161 145.366 313.049 144.874 314.044 144.528C315.039 144.183 316.041 143.988 317.049 143.945C318.158 143.898 319.595 144.442 321.361 145.579C323.123 146.614 325.241 147.736 327.717 148.943C329.152 147.063 330.628 144.98 332.146 142.693C333.761 140.301 335.172 137.867 336.379 135.391C337.687 132.911 338.74 130.391 339.54 127.832C340.44 125.268 340.891 122.825 340.893 120.502C340.965 117.468 340.511 115.114 339.53 113.439C338.549 111.764 337 110.972 334.883 111.063C331.758 111.196 328.41 113.208 324.839 117.098C321.365 120.883 317.837 125.781 314.256 131.793ZM362.808 158.198C362.15 159.337 361.424 160.075 360.63 160.412C359.74 160.854 358.986 160.937 358.368 160.66C357.654 160.489 357.178 160.004 356.942 159.206C356.706 158.408 356.865 157.392 357.418 156.156C357.694 155.538 358.342 154.147 359.36 151.982C360.278 149.822 361.43 147.247 362.817 144.259C364.099 141.174 365.524 137.881 367.091 134.38C368.654 130.777 370.125 127.381 371.503 124.191C372.983 120.997 374.326 118.162 375.533 115.686C376.736 113.109 377.616 111.254 378.173 110.119C377.021 109.158 376.235 108.485 375.814 108.099C375.389 107.612 375.044 106.617 374.777 105.113C374.52 103.811 374.749 102.084 375.465 99.9323C376.181 97.7806 377.153 95.7189 378.382 93.7473C379.606 91.6748 380.995 89.8983 382.547 88.4178C384.1 86.9373 385.632 86.1647 387.145 86.1C389.968 85.9791 391.972 86.8024 393.159 88.5696C394.447 90.3326 395.232 92.1676 395.516 94.0745C395.774 95.3765 395.744 97.0444 395.427 99.078C395.11 101.112 394.432 102.959 393.392 104.619C393.703 104.808 394.117 105.043 394.634 105.324C395.146 105.504 395.957 105.57 397.066 105.523C398.679 105.454 399.784 105.305 400.38 105.078C401.078 104.846 402.132 104.7 403.543 104.639C405.257 104.566 406.688 104.959 407.836 105.819C408.979 106.578 409.932 107.598 410.694 108.878C411.451 110.058 412.014 111.398 412.381 112.897C412.845 114.291 413.153 115.591 413.305 116.797C413.716 119.304 413.173 121.953 411.676 124.745C410.179 127.536 408.341 130.594 406.16 133.919C404.835 135.996 403.52 138.325 402.217 140.906C400.913 143.487 400.405 145.781 400.693 147.789C400.951 149.091 401.349 150.134 401.888 150.919C402.426 151.704 403.855 152.047 406.174 151.948C407.888 151.875 409.727 151.19 411.692 149.894C413.753 148.493 415.801 146.789 417.836 144.783C419.968 142.671 422.043 140.411 424.061 138.002C426.074 135.491 427.941 133.088 429.661 130.793C431.377 128.396 432.8 126.265 433.933 124.398C435.166 122.527 436.067 121.176 436.638 120.343C437.107 119.515 437.739 118.932 438.532 118.595C439.326 118.259 440.032 118.228 440.65 118.505C441.267 118.781 441.646 119.371 441.786 120.274C442.026 121.173 441.725 122.398 440.883 123.949C440.321 124.983 439.331 126.642 437.914 128.924C436.597 131.203 434.939 133.748 432.938 136.561C431.038 139.37 428.891 142.29 426.495 145.321C424.096 148.252 421.536 150.988 418.817 153.528C416.194 155.963 413.503 157.998 410.745 159.631C408.088 161.26 405.499 162.128 402.978 162.236C400.357 162.348 398.168 161.937 396.411 161.002C394.654 160.067 393.19 158.917 392.021 157.553C390.948 156.084 390.123 154.504 389.545 152.811C389.064 151.014 388.842 149.357 388.878 147.84C388.927 146.626 389.176 145.353 389.624 144.021C390.168 142.583 390.763 141.144 391.408 139.702C392.15 138.155 392.894 136.659 393.64 135.213C394.483 133.662 395.227 132.165 395.872 130.724C397.461 127.727 398.716 125.198 399.638 123.139C400.657 120.974 401.136 119.186 401.075 117.774C401.036 116.867 400.8 116.069 400.367 115.381C399.933 114.692 399.263 114.367 398.356 114.406C397.751 114.432 397.299 114.502 397.001 114.616C396.799 114.624 396.547 114.635 396.245 114.648C396.043 114.657 395.692 114.722 395.193 114.845C394.789 114.862 394.134 114.89 393.227 114.929C391.916 114.985 390.798 114.831 389.874 114.466C388.949 114.102 388.079 113.836 387.264 113.669C386.891 114.392 386.048 115.943 384.736 118.322C383.424 120.702 381.877 123.495 380.095 126.702C378.414 129.905 376.588 133.266 374.618 136.784C372.748 140.299 370.971 143.607 369.285 146.709C367.596 149.71 366.191 152.296 365.072 154.465C363.848 156.537 363.093 157.781 362.808 158.198ZM441.465 98.6227C441.943 97.9962 442.88 97.4511 444.274 96.9875C445.668 96.5238 447.117 96.1587 448.621 95.8924C450.12 95.5252 451.475 95.3157 452.684 95.2639C453.991 95.107 454.747 95.0747 454.953 95.1669C455.058 95.2634 454.851 96.3328 454.333 98.375C453.814 100.417 453.159 102.819 452.368 105.58C451.578 108.341 450.741 111.205 449.857 114.172C448.97 117.038 448.313 119.389 447.887 121.225C447.46 123.062 446.944 125.154 446.337 127.503C445.727 129.752 445.166 131.998 444.656 134.242C444.243 136.38 443.976 138.412 443.856 140.336C443.737 142.26 443.951 143.716 444.498 144.702C445.054 145.89 445.645 146.724 446.271 147.202C446.894 147.579 447.558 147.753 448.263 147.723C450.28 147.636 452.753 146.419 455.682 144.072C458.713 141.72 461.726 138.965 464.722 135.807C467.814 132.543 470.655 129.291 473.243 126.049C475.827 122.706 477.734 120.049 478.962 118.077C479.726 117.035 480.504 116.345 481.298 116.008C482.192 115.666 482.9 115.687 483.421 116.068C484.044 116.446 484.374 117.088 484.413 117.995C484.553 118.899 484.295 119.97 483.641 121.21C482.149 124.102 479.924 127.581 476.967 131.647C474.006 135.611 470.839 139.484 467.465 143.265C464.088 146.944 460.739 150.118 457.419 152.785C454.2 155.448 451.534 156.875 449.421 157.066C447.711 157.241 445.984 157.012 444.24 156.379C442.601 155.843 441.052 155.051 439.593 154.002C438.231 152.849 437.064 151.535 436.091 150.062C435.115 148.487 434.54 146.845 434.366 145.136C433.955 142.628 433.809 139.2 433.925 134.852C434.038 130.403 434.401 125.893 435.013 121.322C435.621 116.65 436.441 112.221 437.474 108.035C438.608 103.846 439.938 100.708 441.465 98.6227ZM466.686 61.3334C467.563 60.5889 468.573 60.5961 469.717 61.3552C470.86 62.1143 471.719 63.2896 472.292 64.8812C473.088 66.9682 473.208 68.5791 472.65 69.714C472.088 70.7481 471.22 71.6943 470.045 72.5526C469.461 73.0826 468.332 73.838 466.657 74.8187C465.083 75.7951 463.309 76.8306 461.336 77.925C459.459 78.9144 457.58 79.8533 455.699 80.7419C453.814 81.5296 452.369 81.9954 451.365 82.1394C450.26 82.2877 449.399 82.2235 448.781 81.947C448.159 81.5696 447.636 81.1375 447.211 80.6506C446.887 80.1595 446.661 79.6136 446.535 79.013C446.404 78.3116 446.327 77.7088 446.306 77.2047C453.937 71.4239 459.265 67.3072 462.291 64.8546C464.05 63.4663 465.515 62.2926 466.686 61.3334ZM504.916 66.0605C503.663 72.1744 502.197 78.0448 500.519 83.6719C498.937 89.1938 497.241 94.4175 495.432 99.3432C493.719 104.164 491.939 108.583 490.091 112.601C488.344 116.615 486.776 120.116 485.389 123.105C484.692 130.407 484.942 136.255 486.14 140.647C487.338 145.04 489.399 147.174 492.323 147.049C494.742 146.945 497.064 145.735 499.288 143.418C501.512 141.101 503.462 138.29 505.139 134.986C506.816 131.682 508.181 128.19 509.236 124.508C510.387 120.722 511.051 117.36 511.228 114.424C509.291 114.002 507.641 113.214 506.279 112.06C504.912 110.805 504.183 109.12 504.093 107.002C504.032 105.591 504.38 104.263 505.134 103.019C505.885 101.673 506.795 100.523 507.865 99.5686C508.935 98.6137 510.115 97.8562 511.404 97.296C512.693 96.7359 513.892 96.432 515.001 96.3846C516.715 96.3112 518.225 97.3577 519.529 99.5239C520.83 101.589 521.753 104.277 522.298 107.587C526.327 107.313 530.535 106.527 534.924 105.228C539.313 103.929 543.436 102.339 547.295 100.457C548.382 99.9051 549.283 99.7151 549.997 99.8865C550.712 100.058 551.183 100.442 551.41 101.038C551.739 101.63 551.769 102.336 551.501 103.155C551.229 103.874 550.647 104.454 549.757 104.896C547.495 106.306 545.127 107.62 542.654 108.837C540.277 109.948 537.894 110.909 535.505 111.718C533.115 112.527 530.82 113.181 528.619 113.679C526.419 114.178 524.411 114.466 522.596 114.543C522.365 118.593 521.293 123.033 519.379 127.862C517.46 132.59 515.074 137.035 512.222 141.198C509.366 145.259 506.129 148.68 502.511 151.461C498.994 154.238 495.471 155.702 491.942 155.853C490.833 155.9 489.365 155.811 487.537 155.587C485.709 155.362 483.9 154.379 482.108 152.637C480.316 150.896 478.731 148.085 477.353 144.205C475.971 140.224 475.223 134.549 475.11 127.181C474.999 122.236 475.329 116.97 476.1 111.382C476.871 105.794 477.843 100.197 479.018 94.5915C480.192 88.986 481.526 83.5757 483.02 78.3606C484.61 73.0403 486.123 68.2789 487.56 64.0762C488.991 59.7728 490.302 56.1816 491.492 53.3025C492.783 50.4192 493.764 48.5591 494.435 47.7224C495.295 46.5745 496.319 45.7227 497.507 45.1668C498.691 44.5101 499.833 44.0572 500.934 43.8081C502.131 43.4539 503.235 43.3056 504.248 43.3633C505.26 43.4209 505.972 43.542 506.384 43.7263C507.007 44.1037 507.253 46.3153 507.123 50.361C507.094 54.4024 506.358 59.6356 504.916 66.0605ZM605.426 117.059C602.591 121.624 599.349 126.106 595.699 130.504C592.045 134.802 588.121 138.707 583.928 142.219C579.832 145.627 575.559 148.436 571.108 150.646C566.758 152.853 562.466 154.046 558.232 154.228C556.014 154.323 553.57 153.872 550.902 152.875C548.338 151.974 545.95 150.461 543.738 148.333C541.526 146.206 539.689 143.406 538.227 139.933C536.866 136.456 536.33 132.187 536.619 127.124C536.845 122.973 537.92 118.584 539.843 113.957C541.862 109.224 544.353 104.875 547.314 100.91C550.376 96.9412 553.82 93.6122 557.644 90.9234C561.569 88.2303 565.547 86.7975 569.58 86.6249C573.411 86.461 576.225 87.3001 578.021 89.1423C579.817 90.9845 580.674 93.3214 580.593 96.153C580.425 99.2913 579.64 102.203 578.24 104.889C576.941 107.571 575.328 110.014 573.403 112.217C571.477 114.421 569.391 116.429 567.146 118.242C565.001 120.051 562.951 121.704 560.995 123.202C558.841 124.809 556.787 126.362 554.831 127.86C552.87 129.257 551.158 130.542 549.693 131.716C549.902 134.232 550.446 136.33 551.326 138.009C552.206 139.688 553.275 141.057 554.532 142.114C555.785 143.07 557.178 143.768 558.712 144.208C560.342 144.542 561.964 144.675 563.577 144.606C567.005 144.459 570.539 143.247 574.179 140.97C577.814 138.593 581.331 135.816 584.731 132.64C588.226 129.36 591.415 125.991 594.297 122.534C597.28 119.074 599.728 116.09 601.641 113.584C602.312 112.748 602.999 112.264 603.7 112.133C604.498 111.897 605.107 111.971 605.528 112.357C606.045 112.638 606.323 113.232 606.362 114.14C606.396 114.946 606.084 115.919 605.426 117.059ZM565.715 95.4262C564.505 95.478 563.069 96.1454 561.407 97.4286C559.845 98.7075 558.308 100.541 556.794 102.929C555.276 105.216 553.882 108.053 552.613 111.44C551.34 114.727 550.441 118.503 549.916 122.767C551.087 121.808 552.359 120.845 553.732 119.877C555.1 118.808 556.466 117.689 557.83 116.52C562.023 113.007 564.922 109.954 566.528 107.36C568.134 104.766 568.999 102.558 569.123 100.734C569.243 98.8103 568.983 97.4579 568.344 96.6772C567.7 95.7957 566.824 95.3787 565.715 95.4262ZM672.494 112.37C673.165 111.533 673.854 111.1 674.559 111.07C675.362 110.934 675.975 111.11 676.4 111.597C676.921 111.979 677.151 112.625 677.089 113.537C677.128 114.444 676.768 115.47 676.009 116.613C674.205 119.317 672.104 122.134 669.704 125.064C667.3 127.894 664.692 130.683 661.881 133.429C659.17 136.171 656.402 138.764 653.578 141.208C650.753 143.652 648.012 145.689 645.355 147.317C642.404 149.161 639.869 150.128 637.752 150.218C635.736 150.305 633.663 149.08 631.535 146.545C629.621 144.304 628.608 141.873 628.496 139.252C628.48 136.525 628.94 133.122 629.877 129.042C630.475 126.491 631.305 123.476 632.368 119.996C633.528 116.411 634.391 112.991 634.959 109.734C635.628 106.474 635.763 103.741 635.366 101.536C634.964 99.2297 633.604 98.1264 631.285 98.2256C629.672 98.2947 627.931 98.9247 626.063 100.116C624.296 101.302 622.493 102.844 620.655 104.741C618.914 106.532 617.234 108.574 615.615 110.865C613.996 113.157 612.576 115.389 611.356 117.562C610.718 121.529 610.078 125.445 609.435 129.31C608.867 132.567 608.262 136.128 607.62 139.994C607.073 143.754 606.51 147.111 605.93 150.065C605.346 150.595 604.706 150.976 604.009 151.208C603.312 151.44 602.661 151.569 602.056 151.595C601.35 151.625 600.642 151.605 599.932 151.534C599.117 151.367 598.348 151.097 597.625 150.724C597.003 150.346 596.374 149.818 595.739 149.138C595.108 148.559 594.618 147.721 594.268 146.625C598.006 127.779 600.945 112.655 603.083 101.251C605.221 89.8467 606.868 81.1404 608.025 75.1317C609.336 68.0053 610.236 63.0681 610.724 60.3201C610.945 58.3916 611.117 56.5156 611.241 54.6923C611.374 53.0705 611.403 51.4027 611.33 49.6888C611.257 47.9748 611.039 46.4186 610.676 45.0201C611.461 44.4815 612.3 44.0415 613.195 43.7002C614.19 43.3546 615.137 43.0616 616.036 42.8211C617.132 42.4712 618.23 42.1717 619.33 41.9226C620.431 41.6735 621.435 41.5295 622.342 41.4907C623.149 41.4562 623.909 41.5246 624.623 41.6961C625.333 41.7667 625.8 42.0497 626.023 42.5452C626.65 43.0234 626.945 44.0208 626.909 45.5374C626.974 47.0497 626.94 48.6167 626.807 50.2384C626.486 52.1713 626.121 54.2575 625.711 56.4971C623.944 64.754 621.915 72.8201 619.626 80.6954C617.333 88.4698 615.265 96.7902 613.422 105.656C614.647 103.584 616.121 101.45 617.845 99.2553C619.569 97.0605 621.453 95.0608 623.497 93.2562C625.637 91.3466 627.894 89.7854 630.266 88.5729C632.634 87.2595 635.179 86.5445 637.901 86.428C639.312 86.3676 640.634 86.5636 641.865 87.0159C643.193 87.3631 644.334 88.0718 645.289 89.1419C646.341 90.107 647.157 91.4861 647.739 93.2793C648.316 94.9716 648.611 97.1306 648.622 99.7562C648.691 101.369 648.561 103.041 648.231 104.773C648.002 106.5 647.63 108.435 647.116 110.578C646.597 112.62 645.888 114.923 644.987 117.486C644.188 120.046 643.204 123.017 642.036 126.4C641.227 128.758 640.606 130.754 640.171 132.389C639.736 134.023 639.897 135.43 640.655 136.61C641.631 138.184 643.413 138.512 645.999 137.593C648.683 136.57 652.603 133.776 657.761 129.212C658.928 128.152 660.235 126.833 661.682 125.256C663.13 123.679 664.527 122.104 665.874 120.532C667.216 118.858 668.462 117.29 669.612 115.827C670.761 114.363 671.722 113.211 672.494 112.37Z" fill="#0C2460" fill-opacity="0.07"/>
<path d="M563.96 66.6532C562.922 65.2314 561.991 64.0494 561.169 63.1071C560.343 62.0673 559.329 61.231 558.129 60.5981C558.791 60.081 559.61 59.8016 560.586 59.7599C561.655 59.6164 562.677 59.5237 563.653 59.482C564.73 59.5336 565.905 59.5811 567.178 59.6244C569.04 59.7402 570.584 60.4072 571.809 61.6254C573.131 62.8395 574.748 65.214 576.659 68.7488C576.663 68.8464 576.667 68.9439 576.671 69.0415C576.769 69.0373 576.82 69.084 576.824 69.1816C580.309 66.1001 582.662 63.9956 583.885 62.868C585.2 61.6388 585.952 60.9224 586.139 60.7189C587.743 59.3796 589.33 58.774 590.899 58.9024C592.469 59.0307 593.934 59.0168 595.296 58.8608L597.052 58.7857C597.54 58.7648 598.077 58.7418 598.662 58.7168C599.243 58.5941 599.776 58.4736 600.259 58.3552C599.792 58.8639 598.994 59.6311 597.865 60.6569C596.732 61.5851 595.552 62.5642 594.326 63.5941C592.908 64.73 591.399 66.0164 589.799 67.4533C589.234 67.9662 588.481 68.6338 587.539 69.4561C586.597 70.2784 585.606 71.1028 584.566 71.9292C583.623 72.7515 582.728 73.523 581.879 74.2435C581.124 74.8623 580.555 75.2776 580.173 75.4895C579.893 75.7947 579.22 76.0678 578.155 76.3089C577.086 76.4524 575.966 76.5492 574.796 76.5993C573.625 76.6494 572.499 76.5999 571.417 76.4507C570.433 76.2973 569.837 76.0784 569.629 75.7941C569.422 75.5097 569.055 74.939 568.53 74.0817C568.004 73.2245 567.428 72.3206 566.801 71.37C566.17 70.3218 565.591 69.3691 565.066 68.5119C564.54 67.6546 564.172 67.0351 563.96 66.6532Z" fill="#0C2460" fill-opacity="0.07"/>
<path d="M397.96 72.6532C396.922 71.2314 395.991 70.0494 395.169 69.1071C394.343 68.0673 393.329 67.231 392.129 66.5981C392.791 66.081 393.61 65.8016 394.586 65.7599C395.655 65.6164 396.677 65.5237 397.653 65.482C398.73 65.5336 399.905 65.5811 401.178 65.6244C403.04 65.7402 404.584 66.4072 405.809 67.6254C407.131 68.8395 408.748 71.214 410.659 74.7488C410.663 74.8464 410.667 74.9439 410.671 75.0415C410.769 75.0373 410.82 75.084 410.824 75.1816C414.309 72.1001 416.662 69.9956 417.885 68.868C419.2 67.6388 419.952 66.9224 420.139 66.7189C421.743 65.3796 423.33 64.774 424.899 64.9024C426.469 65.0307 427.934 65.0168 429.296 64.8608L431.052 64.7857C431.54 64.7648 432.077 64.7418 432.662 64.7168C433.243 64.5941 433.776 64.4736 434.259 64.3552C433.792 64.8639 432.994 65.6311 431.865 66.6569C430.732 67.5851 429.552 68.5642 428.326 69.5941C426.908 70.73 425.399 72.0164 423.799 73.4533C423.234 73.9662 422.481 74.6338 421.539 75.4561C420.597 76.2784 419.606 77.1028 418.566 77.9292C417.623 78.7515 416.728 79.523 415.879 80.2435C415.124 80.8623 414.555 81.2776 414.173 81.4895C413.893 81.7947 413.22 82.0678 412.155 82.3089C411.086 82.4524 409.966 82.5492 408.796 82.5993C407.625 82.6494 406.499 82.5999 405.417 82.4507C404.433 82.2973 403.837 82.0784 403.629 81.7941C403.422 81.5097 403.055 80.939 402.53 80.0817C402.004 79.2245 401.428 78.3206 400.801 77.37C400.17 76.3218 399.591 75.3691 399.066 74.5119C398.54 73.6546 398.172 73.0351 397.96 72.6532Z" fill="#0C2460" fill-opacity="0.07"/>
</svg>
