<?xml version="1.0" encoding="UTF-8" standalone="no"?>
<!-- Created with Inkscape (http://www.inkscape.org/) -->

<svg
   width="167.50984mm"
   height="49.18848mm"
   viewBox="0 0 167.50984 49.18848"
   version="1.1"
   id="svg1"
   xml:space="preserve"
   xmlns="http://www.w3.org/2000/svg"
   xmlns:svg="http://www.w3.org/2000/svg"><defs
     id="defs1" /><g
     id="layer1"
     transform="translate(-262.53044,-84.376173)"><g
       style="fill:none"
       id="g1"
       transform="matrix(0.26458333,0,0,0.26458333,250.89123,73.40069)"><path
         d="m 70.1822,99.9684 c -0.4264,1.8366 -0.9696,4.4856 -1.6294,7.9476 -0.5634,3.358 -1.2059,7.223 -1.9278,11.597 -0.621,4.37 -1.332,8.996 -2.1331,13.879 -0.7046,4.777 -1.3609,9.502 -1.969,14.174 -0.5072,4.668 -0.9749,9.082 -1.4029,13.241 -0.4323,4.059 -0.6385,7.502 -0.6185,10.329 0.033,3.13 0.1646,6.205 0.3948,9.225 0.2131,2.617 0.4808,5.332 0.8032,8.147 0.4276,2.911 1.0418,5.46 1.8424,7.648 -1.6794,0.88 -3.168,1.499 -4.4657,1.857 -1.2933,0.46 -2.339,0.808 -3.1369,1.044 -0.9996,0.245 -1.8522,0.382 -2.558,0.412 -0.8065,0.035 -1.7686,-0.025 -2.8863,-0.179 -1.1133,-0.054 -2.1431,-0.515 -3.0893,-1.383 -0.9462,-0.869 -1.7627,-2.248 -2.4496,-4.137 -0.6869,-1.89 -1.0072,-4.654 -0.9609,-8.292 -0.0027,-2.424 0.2711,-5.466 0.8215,-9.126 0.4539,-3.554 1.0439,-7.468 1.7701,-11.741 0.7218,-4.374 1.5401,-8.854 2.455,-13.438 1.0113,-4.689 1.9787,-9.225 2.9022,-13.608 0.9192,-4.484 1.7483,-8.711 2.4874,-12.682 0.8399,-3.975 1.5523,-7.389 2.1372,-10.242 0.7521,-3.668 1.579,-7.946 2.4809,-12.833 1.5618,-8.3487 3.9044,-20.8725 7.0279,-37.5708 0.6841,-0.5343 1.4209,-1.0203 2.2102,-1.4581 0.7849,-0.5386 1.4734,-0.9721 2.0654,-1.3005 0.6885,-0.4334 1.3813,-0.7661 2.0784,-0.9979 3.1744,-1.348 5.4364,-1.5963 6.7858,-0.745 1.4503,0.847 2.3346,2.6272 2.6527,5.3407 0.1785,1.8104 0.4923,4.4231 0.9415,7.838 0.55,3.4106 1.0668,7.2266 1.5505,11.4481 0.4837,4.2214 0.9234,8.5963 1.3192,13.1245 0.3915,4.427 0.6692,8.557 0.8332,12.388 0.1079,2.52 0.2856,5.492 0.5331,8.916 0.2475,3.423 0.5541,7.046 0.9197,10.869 0.3656,3.822 0.7859,7.744 1.2609,11.763 0.4708,3.919 0.9855,7.685 1.5441,11.297 0.5586,3.612 1.1042,6.922 1.637,9.93 0.6335,3.003 1.2433,5.451 1.8294,7.345 0.2362,0.798 0.4702,1.545 0.702,2.243 0.3327,0.692 0.6149,1.387 0.8468,2.084 0.5013,-2.445 1.0337,-5.347 1.597,-8.704 0.6642,-3.361 1.3197,-6.924 1.9666,-10.689 0.7431,-3.87 1.4341,-7.788 2.0721,-11.755 0.634,-4.067 1.178,-7.878 1.632,-11.433 0.383,-2.844 0.783,-6.497 1.198,-10.959 0.415,-4.462 0.916,-9.281 1.502,-14.458 -1.126,-0.356 -2.202,-0.714 -3.228,-1.074 -0.924,-0.364 -1.853,-0.829 -2.7864,-1.395 -0.9332,-0.567 -1.7196,-1.24 -2.359,-2.021 0.0447,-1.315 0.1046,-2.2766 0.1795,-2.8858 0.1757,-0.6136 0.6777,-0.6856 1.5058,-0.216 0.6179,0.2766 1.5401,0.5906 2.7671,0.9421 1.328,0.3467 2.853,0.5847 4.576,0.7137 0.383,-2.845 0.817,-5.6917 1.301,-8.5405 0.585,-2.8531 1.174,-5.6055 1.768,-8.257 0.923,-4.3826 2.017,-8.3181 3.282,-11.8064 1.261,-3.5891 2.746,-6.6323 4.458,-9.1296 1.812,-2.5016 3.95,-4.4617 6.414,-5.8802 2.465,-1.4186 5.358,-2.2494 8.681,-2.4926 3.125,-0.1338 5.702,1.069 7.73,3.6083 2.124,2.4342 3.171,6.8336 3.14,13.1981 0.001,4.7471 -0.824,9.0751 -2.474,12.9839 -1.555,3.8037 -3.53,7.2213 -5.925,10.2529 -2.4,2.9308 -5.071,5.4187 -8.013,7.4641 -2.947,1.944 -5.764,3.377 -8.452,4.301 -0.705,4.777 -1.357,9.602 -1.956,14.476 -0.604,4.773 -1.212,9.446 -1.824,14.017 -0.516,4.466 -1.091,8.733 -1.725,12.8 -0.533,4.063 -1.086,7.672 -1.658,10.828 -0.576,3.055 -1.192,6.364 -1.847,9.927 -0.577,3.055 -1.285,6.57 -2.125,10.545 -0.84,3.975 -1.721,8.154 -2.645,12.536 -0.364,0.925 -0.836,1.703 -1.415,2.334 -0.575,0.731 -1.156,1.312 -1.744,1.741 -0.684,0.534 -1.372,0.968 -2.065,1.3 -1.9818,0.893 -3.6893,1.118 -5.1223,0.674 -1.4331,-0.444 -2.7516,-1.751 -3.9555,-3.921 -1.2082,-2.272 -2.3394,-5.102 -3.3935,-8.491 -0.9532,-3.393 -1.9699,-7.087 -3.0498,-11.081 -1.0929,-4.296 -1.9993,-8.954 -2.7191,-13.974 -0.6234,-5.124 -1.1985,-10.301 -1.7253,-15.531 -0.4303,-5.335 -0.8081,-10.621 -1.1333,-15.859 -0.3252,-5.239 -0.7382,-10.17 -1.2392,-14.795 -0.763,-6.027 -1.4979,-11.4 -2.2048,-16.1167 -0.7112,-4.8177 -1.4405,-8.8772 -2.1878,-12.1783 -0.3169,2.0336 -0.6735,4.3215 -1.0698,6.8635 -0.3962,2.5421 -0.8407,5.1367 -1.3334,7.7839 z m 50.5408,-8.5263 c -0.422,1.9372 -0.747,3.7692 -0.977,5.496 2.36,-1.515 4.553,-3.3764 6.579,-5.5842 2.022,-2.3087 3.738,-4.7052 5.147,-7.1896 1.408,-2.4843 2.464,-4.9536 3.167,-7.4078 0.804,-2.4585 1.213,-4.6981 1.228,-6.7188 0.04,-1.4158 -0.158,-2.5183 -0.596,-3.3076 -0.342,-0.8944 -0.966,-1.3222 -1.873,-1.2834 -0.504,0.0216 -1.298,0.3586 -2.381,1.0109 -0.987,0.5473 -2.097,1.7563 -3.33,3.6272 -1.237,1.77 -2.49,4.3487 -3.759,7.7362 -1.168,3.3831 -2.237,7.9235 -3.205,13.6211 z m 88.996,43.9159 c -1.326,2.076 -3.033,4.675 -5.121,7.794 -2.093,3.019 -4.285,6.092 -6.575,9.22 -2.193,3.023 -4.396,5.845 -6.607,8.464 -2.114,2.515 -3.906,4.309 -5.375,5.382 -0.982,0.648 -2.12,1.201 -3.414,1.661 -1.293,0.459 -2.643,0.769 -4.051,0.931 -1.306,0.157 -2.57,0.11 -3.793,-0.141 -1.219,-0.15 -2.295,-0.508 -3.228,-1.074 -0.937,-0.667 -1.737,-1.643 -2.398,-2.927 -0.551,-1.088 -1.118,-2.528 -1.7,-4.321 -0.481,-1.798 -0.729,-4.06 -0.745,-6.786 -2.247,4.136 -4.785,7.376 -7.613,9.719 -2.834,2.242 -5.539,3.924 -8.117,5.044 -2.977,1.239 -5.974,2.023 -8.99,2.354 -1.411,0.061 -2.945,-0.379 -4.602,-1.318 -1.651,-0.838 -3.075,-2.242 -4.27,-4.211 -1.2,-2.069 -2.02,-4.711 -2.461,-7.924 -0.444,-3.314 -0.209,-7.263 0.705,-11.848 1.149,-6.21 3.127,-11.9 5.936,-17.071 2.91,-5.175 6.104,-9.604 9.582,-13.288 3.474,-3.785 6.937,-6.66 10.388,-8.626 3.451,-1.966 6.34,-2.897 8.668,-2.795 2.743,0.388 4.996,1.099 6.757,2.135 1.455,0.948 2.427,2.421 2.917,4.42 0.586,1.894 -0.111,4.5 -2.09,7.817 1.398,-0.363 2.549,-0.615 3.452,-0.754 1.004,-0.144 1.758,-0.227 2.262,-0.249 0.605,-0.025 1.011,0.008 1.217,0.1 0.109,0.197 0.179,0.649 0.209,1.354 0.026,0.605 -0.076,1.771 -0.305,3.498 -0.229,1.727 -0.583,4.065 -1.063,7.015 -0.48,2.95 -1.125,6.765 -1.934,11.446 -0.163,0.916 -0.328,1.781 -0.495,2.596 -0.071,0.71 -0.19,1.473 -0.357,2.288 -0.07,0.71 -0.185,1.574 -0.343,2.591 -0.159,1.016 -0.357,2.287 -0.595,3.813 -0.062,0.911 -0.069,1.922 -0.022,3.031 0.144,1.004 0.387,1.953 0.728,2.847 0.342,0.895 0.828,1.631 1.458,2.21 0.728,0.474 1.696,0.685 2.906,0.634 1.008,-0.044 2.293,-0.705 3.854,-1.984 1.557,-1.379 3.202,-3.066 4.935,-5.059 1.729,-2.094 3.501,-4.341 5.317,-6.742 1.913,-2.506 3.679,-4.905 5.298,-7.196 1.619,-2.292 3.047,-4.322 4.284,-6.092 1.339,-1.775 2.293,-3.078 2.863,-3.91 0.768,-0.942 1.553,-1.481 2.355,-1.616 0.798,-0.236 1.412,-0.061 1.841,0.527 0.429,0.588 0.518,1.493 0.268,2.716 -0.15,1.218 -0.796,2.66 -1.936,4.325 z m -44.026,8.55 c 0.418,-2.038 0.922,-4.433 1.511,-7.185 0.589,-2.753 1.082,-5.4 1.478,-7.942 0.396,-2.542 0.661,-4.624 0.793,-6.246 0.229,-1.726 0.144,-2.531 -0.255,-2.413 -0.499,0.123 -1.047,0.298 -1.644,0.525 -0.495,0.223 -1.144,0.403 -1.946,0.538 -0.802,0.135 -1.602,0.321 -2.4,0.557 0.737,-1.647 1.135,-2.978 1.192,-3.99 0.155,-1.118 0.168,-1.977 0.042,-2.577 -0.131,-0.702 -0.357,-1.248 -0.677,-1.638 -1.147,-0.86 -3.081,-0.02 -5.8,2.521 -2.623,2.435 -5.614,6.906 -8.971,13.413 -1.4,2.686 -2.489,5.561 -3.267,8.624 -0.782,2.963 -1.319,5.764 -1.61,8.402 -0.19,2.634 -0.142,4.955 0.146,6.963 0.284,1.907 0.741,3.15 1.372,3.729 1.156,1.062 2.44,1.562 3.852,1.502 1.407,-0.161 2.801,-0.625 4.182,-1.391 1.478,-0.872 2.897,-1.942 4.257,-3.213 1.46,-1.274 2.717,-2.59 3.77,-3.949 1.154,-1.362 2.06,-2.613 2.718,-3.752 0.759,-1.144 1.178,-1.97 1.257,-2.478 z m 7.458,-70.0118 c 0.877,-0.7445 1.887,-0.7373 3.031,0.0218 1.143,0.7591 2.002,1.9344 2.575,3.526 0.796,2.087 0.916,3.6979 0.358,4.8328 -0.562,1.0341 -1.43,1.9803 -2.605,2.8386 -0.584,0.53 -1.713,1.2854 -3.388,2.2661 -1.574,0.9764 -3.348,2.0119 -5.321,3.1063 -1.877,0.9894 -3.756,1.9283 -5.637,2.8169 -1.885,0.7877 -3.33,1.2535 -4.334,1.3975 -1.105,0.1483 -1.966,0.0841 -2.584,-0.1924 -0.622,-0.3774 -1.145,-0.8095 -1.57,-1.2964 -0.324,-0.4911 -0.55,-1.037 -0.676,-1.6376 -0.131,-0.7014 -0.208,-1.3042 -0.229,-1.8083 7.631,-5.7808 12.959,-9.8974 15.985,-12.3501 1.759,-1.3883 3.224,-2.562 4.395,-3.5212 z m 48.826,85.9348 c 0.623,0.378 1.387,0.547 2.295,0.508 1.008,-0.043 1.957,-0.286 2.847,-0.728 0.991,-0.446 1.875,-1.039 2.651,-1.78 0.877,-0.744 1.494,-1.68 1.85,-2.806 0.355,-1.126 0.288,-2.689 -0.201,-4.688 -0.494,-2.1 -1.244,-4.29 -2.251,-6.57 -0.91,-2.385 -1.921,-4.766 -3.033,-7.142 -1.111,-2.377 -2.063,-4.558 -2.855,-6.544 -0.67,-1.487 -1.234,-2.877 -1.694,-4.17 -0.451,-1.092 -0.899,-2.133 -1.346,-3.124 -0.349,-1.096 -0.634,-1.842 -0.853,-2.236 -0.469,0.828 -1.321,2.177 -2.554,4.048 -1.132,1.867 -2.411,3.841 -3.837,5.922 -1.329,1.976 -2.613,3.849 -3.85,5.619 -1.242,1.669 -2.102,2.817 -2.58,3.443 -0.767,0.942 -1.55,1.531 -2.348,1.767 -0.702,0.131 -1.313,0.006 -1.834,-0.376 -0.526,-0.482 -0.857,-1.125 -0.992,-1.927 -0.039,-0.907 0.319,-1.983 1.074,-3.227 0.57,-0.833 1.424,-2.132 2.56,-3.898 1.133,-1.866 2.265,-3.733 3.397,-5.599 1.128,-1.968 2.165,-3.679 3.113,-5.133 0.944,-1.556 1.459,-2.487 1.547,-2.794 0.167,-0.815 -0.18,-1.86 -1.043,-3.136 -0.762,-1.281 -0.927,-2.789 -0.497,-4.524 0.343,-1.429 1.182,-3.081 2.515,-4.956 1.33,-1.976 2.92,-3.761 4.771,-5.356 1.851,-1.5939 3.769,-2.787 5.755,-3.579 1.982,-0.8929 3.797,-0.9706 5.445,-0.233 1.345,0.7504 2.442,1.6125 3.292,2.5862 0.845,0.8728 1.189,1.8178 1.03,2.8348 -0.18,0.512 -0.454,1.181 -0.823,2.004 -0.369,0.824 -0.93,1.858 -1.685,3.103 -0.759,1.143 -1.856,2.655 -3.291,4.534 0.402,2.306 0.896,4.406 1.482,6.3 0.687,1.89 1.312,3.53 1.877,4.919 0.678,1.688 1.4,3.223 2.167,4.604 0.985,1.776 2.022,3.6 3.112,5.473 1.091,1.872 2.08,3.749 2.968,5.63 0.885,1.78 1.613,3.466 2.186,5.058 0.574,1.591 0.783,2.946 0.629,4.063 -0.229,1.727 -1.048,3.833 -2.457,6.317 -1.308,2.48 -3.021,4.927 -5.14,7.341 -2.022,2.309 -4.41,4.33 -7.164,6.064 -2.653,1.73 -5.492,2.659 -8.517,2.788 -2.117,0.091 -4.212,-0.476 -6.284,-1.7 -1.972,-1.229 -3.7,-2.67 -5.185,-4.323 -1.388,-1.759 -2.472,-3.48 -3.251,-5.164 -0.678,-1.688 -0.785,-2.997 -0.319,-3.925 0.553,-1.236 1.066,-2.218 1.54,-2.945 0.474,-0.727 1.196,-1.566 2.165,-2.517 0.39,-0.319 0.879,-0.694 1.467,-1.123 0.491,-0.324 1.184,-0.657 2.078,-0.998 0.895,-0.341 1.938,-0.74 3.131,-1.195 1.142,3.083 2.155,5.514 3.039,7.294 0.88,1.68 1.594,3.013 2.141,3.999 0.652,1.083 1.239,1.816 1.76,2.197 z m -6.234,-85.485 c -1.073,-1.4692 -2.034,-2.6906 -2.884,-3.6642 -0.854,-1.0745 -1.901,-1.9388 -3.141,-2.5927 0.684,-0.5343 1.531,-0.823 2.539,-0.8662 1.104,-0.1483 2.161,-0.244 3.169,-0.2871 1.113,0.0533 2.328,0.1024 3.642,0.1471 1.925,0.1196 3.52,0.8089 4.786,2.0678 1.366,1.2545 3.037,3.7081 5.011,7.3608 0.005,0.1008 0.009,0.2016 0.013,0.3024 0.101,-0.0043 0.154,0.044 0.158,0.1448 3.601,-3.1842 6.033,-5.3589 7.296,-6.524 1.36,-1.2702 2.136,-2.0105 2.329,-2.2208 1.658,-1.384 3.298,-2.0097 4.919,-1.8771 1.622,0.1326 3.137,0.1183 4.544,-0.0429 l 1.815,-0.0777 c 0.504,-0.0215 1.058,-0.0453 1.663,-0.0712 0.601,-0.1267 1.151,-0.2512 1.651,-0.3736 -0.483,0.5257 -1.307,1.3185 -2.474,2.3784 -1.171,0.9592 -2.39,1.9709 -3.658,3.0352 -1.465,1.1737 -3.024,2.503 -4.677,3.9878 -0.584,0.53 -1.362,1.2199 -2.336,2.0696 -0.974,0.8497 -1.998,1.7015 -3.072,2.5555 -0.974,0.8497 -1.899,1.6469 -2.776,2.3914 -0.781,0.6395 -1.369,1.0686 -1.763,1.2875 -0.29,0.3154 -0.985,0.5977 -2.085,0.8468 -1.105,0.1483 -2.262,0.2483 -3.472,0.3001 -1.21,0.0518 -2.374,6e-4 -3.491,-0.1536 -1.017,-0.1585 -1.633,-0.3847 -1.847,-0.6785 -0.215,-0.2938 -0.594,-0.8836 -1.137,-1.7694 -0.543,-0.8858 -1.138,-1.8199 -1.786,-2.8022 -0.652,-1.0831 -1.25,-2.0676 -1.793,-2.9534 -0.543,-0.8858 -0.924,-1.526 -1.143,-1.9206 z m 74.851,152.393 c -0.718,-0.272 -1.443,-0.696 -2.175,-1.271 -0.627,-0.478 -1.26,-1.107 -1.899,-1.888 -0.635,-0.68 -1.178,-1.565 -1.629,-2.657 2.362,-10.909 4.38,-20.388 6.055,-28.439 1.575,-8.047 2.954,-14.772 4.137,-20.176 1.244,-6.316 2.331,-11.614 3.258,-15.896 0.836,-4.076 1.672,-8.152 2.507,-12.228 0.656,-3.563 1.351,-7.381 2.086,-11.452 0.835,-4.076 1.581,-7.896 2.236,-11.459 0.84,-3.975 1.311,-7.126 1.414,-9.454 0.098,-2.428 -0.747,-4.462 -2.534,-6.103 1.167,-1.06 2.344,-1.868 3.532,-2.424 1.285,-0.661 2.427,-1.114 3.427,-1.358 1.096,-0.35 2.201,-0.499 3.314,-0.445 2.731,0.085 4.431,0.871 5.101,2.357 0.77,1.482 0.974,3.897 0.613,7.246 -0.079,0.508 -0.161,0.966 -0.244,1.374 0.012,0.302 0.028,0.655 0.045,1.059 1.342,-1.674 2.838,-3.303 4.487,-4.889 1.65,-1.586 3.305,-3.02 4.967,-4.303 1.763,-1.288 3.537,-2.323 5.322,-3.107 1.881,-0.888 3.678,-1.3692 5.392,-1.4425 2.319,-0.0993 4.21,0.4255 5.673,1.5755 1.56,1.044 2.784,2.507 3.673,4.388 0.888,1.881 1.485,4.027 1.79,6.438 0.301,2.31 0.451,4.627 0.449,6.95 0.007,2.525 -0.332,5.216 -1.018,8.073 -0.585,2.853 -1.47,5.77 -2.656,8.75 -1.185,2.98 -2.574,5.918 -4.167,8.814 -1.594,2.896 -3.296,5.595 -5.108,8.097 0.407,0.083 0.664,0.173 0.769,0.27 0.101,-0.004 0.153,0.044 0.158,0.145 0,0 0.052,0.048 0.157,0.144 0.202,-0.008 0.555,-0.023 1.059,-0.045 2.319,-0.099 4.662,-0.805 7.03,-2.119 2.368,-1.313 4.672,-2.927 6.914,-4.841 2.236,-2.015 4.366,-4.176 6.388,-6.485 2.123,-2.313 3.999,-4.514 5.626,-6.604 1.725,-2.195 3.157,-4.125 4.298,-5.79 1.136,-1.765 1.992,-3.014 2.567,-3.746 0.763,-1.042 1.491,-1.73 2.184,-2.063 0.688,-0.433 1.241,-0.507 1.657,-0.222 0.416,0.285 0.644,0.881 0.682,1.789 0.035,0.806 -0.222,1.878 -0.771,3.214 -0.364,0.925 -1.159,2.424 -2.383,4.496 -1.225,2.072 -2.741,4.41 -4.548,7.012 -1.808,2.603 -3.914,5.319 -6.318,8.149 -2.303,2.826 -4.768,5.406 -7.395,7.74 -2.627,2.335 -5.373,4.27 -8.236,5.807 -2.758,1.633 -5.498,2.508 -8.221,2.624 -1.31,0.057 -2.371,0.051 -3.182,-0.015 -0.811,-0.066 -1.525,-0.238 -2.143,-0.514 -0.513,-0.18 -1.028,-0.411 -1.545,-0.692 -0.512,-0.18 -1.128,-0.406 -1.847,-0.678 -1.754,1.489 -3.574,2.628 -5.459,3.415 -1.881,0.889 -3.729,1.372 -5.544,1.45 -1.714,0.073 -3.239,-0.165 -4.576,-0.714 -1.231,-0.452 -2.272,-1.165 -3.121,-2.139 -0.846,-0.872 -1.544,-1.853 -2.096,-2.94 -0.556,-1.188 -1.008,-2.33 -1.358,-3.427 -0.084,0.408 -0.17,0.765 -0.258,1.072 0.013,0.302 -0.02,0.708 -0.099,1.216 -1.003,4.891 -2.023,10.541 -3.062,16.948 -0.876,5.492 -1.955,12.154 -3.236,19.986 -1.175,7.929 -2.407,16.92 -3.693,26.975 -0.489,2.748 -1.48,4.356 -2.975,4.824 -1.596,0.472 -3.42,0.348 -5.471,-0.372 z m 23.662,-94.946 c -0.43,1.735 -0.899,3.775 -1.404,6.12 -0.409,2.24 -0.9,4.937 -1.472,8.093 0.781,-0.64 1.669,-1.132 2.664,-1.478 0.995,-0.345 1.997,-0.54 3.005,-0.583 1.109,-0.047 2.546,0.497 4.312,1.634 1.762,1.035 3.88,2.157 6.356,3.364 1.435,-1.88 2.911,-3.963 4.429,-6.25 1.615,-2.392 3.026,-4.826 4.233,-7.302 1.308,-2.48 2.361,-5 3.161,-7.559 0.9,-2.564 1.351,-5.007 1.353,-7.33 0.072,-3.033 -0.382,-5.388 -1.363,-7.063 -0.981,-1.675 -2.53,-2.467 -4.647,-2.376 -3.125,0.133 -6.473,2.145 -10.044,6.035 -3.474,3.785 -7.002,8.683 -10.583,14.695 z m 48.552,26.405 c -0.658,1.139 -1.384,1.877 -2.178,2.214 -0.89,0.442 -1.644,0.525 -2.262,0.248 -0.714,-0.171 -1.19,-0.656 -1.426,-1.454 -0.236,-0.798 -0.077,-1.814 0.476,-3.05 0.276,-0.618 0.924,-2.009 1.942,-4.174 0.918,-2.16 2.07,-4.735 3.457,-7.723 1.282,-3.085 2.707,-6.378 4.274,-9.879 1.563,-3.602 3.034,-6.998 4.412,-10.189 1.48,-3.194 2.823,-6.029 4.03,-8.505 1.203,-2.576 2.083,-4.432 2.64,-5.567 -1.152,-0.961 -1.938,-1.634 -2.359,-2.02 -0.425,-0.487 -0.77,-1.482 -1.037,-2.986 -0.257,-1.302 -0.028,-3.029 0.688,-5.1805 0.716,-2.1518 1.688,-4.2135 2.917,-6.1851 1.224,-2.0725 2.613,-3.849 4.165,-5.3295 1.553,-1.4805 3.085,-2.2531 4.598,-2.3178 2.823,-0.1208 4.827,0.7024 6.014,2.4697 1.288,1.7629 2.073,3.5979 2.357,5.5048 0.258,1.302 0.228,2.9699 -0.089,5.0035 -0.317,2.0339 -0.995,3.8809 -2.035,5.5409 0.311,0.189 0.725,0.424 1.242,0.705 0.512,0.18 1.323,0.246 2.432,0.199 1.613,-0.069 2.718,-0.218 3.314,-0.445 0.698,-0.232 1.752,-0.378 3.163,-0.439 1.714,-0.073 3.145,0.32 4.293,1.18 1.143,0.759 2.096,1.779 2.858,3.06 0.757,1.179 1.32,2.519 1.687,4.018 0.464,1.394 0.772,2.694 0.924,3.9 0.411,2.507 -0.132,5.157 -1.629,7.948 -1.497,2.791 -3.335,5.849 -5.516,9.175 -1.325,2.076 -2.64,4.405 -3.943,6.986 -1.304,2.581 -1.812,4.875 -1.524,6.883 0.258,1.302 0.656,2.346 1.195,3.131 0.538,0.785 1.967,1.127 4.286,1.028 1.714,-0.073 3.553,-0.758 5.518,-2.054 2.061,-1.401 4.109,-3.105 6.144,-5.111 2.132,-2.111 4.207,-4.372 6.225,-6.781 2.013,-2.511 3.88,-4.914 5.6,-7.209 1.716,-2.397 3.139,-4.528 4.272,-6.395 1.233,-1.871 2.134,-3.222 2.705,-4.055 0.469,-0.828 1.101,-1.41 1.894,-1.747 0.794,-0.337 1.5,-0.368 2.118,-0.091 0.617,0.277 0.996,0.866 1.136,1.769 0.24,0.899 -0.061,2.124 -0.903,3.675 -0.562,1.034 -1.552,2.693 -2.969,4.975 -1.317,2.279 -2.975,4.824 -4.976,7.637 -1.9,2.809 -4.047,5.729 -6.443,8.76 -2.399,2.931 -4.959,5.667 -7.678,8.207 -2.623,2.436 -5.314,4.47 -8.072,6.103 -2.657,1.629 -5.246,2.497 -7.767,2.605 -2.621,0.112 -4.81,-0.299 -6.567,-1.234 -1.757,-0.935 -3.221,-2.084 -4.39,-3.448 -1.073,-1.47 -1.898,-3.05 -2.476,-4.743 -0.481,-1.797 -0.703,-3.454 -0.667,-4.971 0.049,-1.214 0.298,-2.487 0.746,-3.819 0.544,-1.438 1.139,-2.877 1.784,-4.319 0.742,-1.547 1.486,-3.043 2.232,-4.489 0.843,-1.551 1.587,-3.048 2.232,-4.489 1.589,-2.997 2.844,-5.526 3.766,-7.585 1.019,-2.165 1.498,-3.953 1.437,-5.364 -0.039,-0.908 -0.275,-1.706 -0.708,-2.394 -0.434,-0.689 -1.104,-1.013 -2.011,-0.975 -0.605,0.026 -1.057,0.096 -1.355,0.21 -0.202,0.008 -0.454,0.019 -0.756,0.032 -0.202,0.009 -0.553,0.074 -1.052,0.197 -0.404,0.017 -1.059,0.045 -1.966,0.084 -1.311,0.056 -2.429,-0.098 -3.353,-0.463 -0.925,-0.364 -1.795,-0.63 -2.61,-0.797 -0.373,0.723 -1.216,2.274 -2.528,4.653 -1.312,2.38 -2.859,5.173 -4.641,8.38 -1.681,3.203 -3.507,6.564 -5.477,10.083 -1.87,3.514 -3.647,6.822 -5.333,9.924 -1.689,3.002 -3.094,5.587 -4.213,7.756 -1.224,2.072 -1.979,3.317 -2.264,3.733 z m 78.657,-59.5752 c 0.478,-0.6265 1.415,-1.1715 2.809,-1.6352 1.394,-0.4637 2.843,-0.8287 4.347,-1.0951 1.499,-0.3672 2.854,-0.5767 4.063,-0.6284 1.307,-0.1569 2.063,-0.1893 2.269,-0.0971 0.105,0.0965 -0.102,1.1659 -0.62,3.2081 -0.519,2.0419 -1.174,4.4439 -1.965,7.2049 -0.79,2.761 -1.627,5.625 -2.511,8.592 -0.887,2.866 -1.544,5.217 -1.97,7.053 -0.427,1.837 -0.943,3.929 -1.55,6.278 -0.61,2.249 -1.171,4.495 -1.681,6.739 -0.413,2.138 -0.68,4.17 -0.8,6.094 -0.119,1.924 0.095,3.38 0.642,4.366 0.556,1.189 1.147,2.022 1.773,2.5 0.623,0.377 1.287,0.551 1.992,0.521 2.017,-0.087 4.49,-1.303 7.419,-3.651 3.031,-2.352 6.044,-5.107 9.04,-8.265 3.092,-3.264 5.933,-6.516 8.521,-9.758 2.584,-3.343 4.491,-6 5.719,-7.972 0.764,-1.042 1.542,-1.732 2.336,-2.069 0.894,-0.341 1.602,-0.321 2.123,0.06 0.623,0.378 0.953,1.02 0.992,1.928 0.14,0.903 -0.118,1.974 -0.772,3.214 -1.492,2.892 -3.717,6.371 -6.674,10.437 -2.961,3.965 -6.128,7.837 -9.502,11.618 -3.377,3.68 -6.726,6.853 -10.046,9.52 -3.219,2.663 -5.885,4.09 -7.998,4.282 -1.71,0.174 -3.437,-0.055 -5.181,-0.688 -1.639,-0.536 -3.188,-1.328 -4.647,-2.376 -1.362,-1.154 -2.529,-2.468 -3.502,-3.941 -0.976,-1.575 -1.551,-3.216 -1.725,-4.926 -0.411,-2.508 -0.557,-5.935 -0.441,-10.284 0.113,-4.449 0.476,-8.959 1.088,-13.53 0.608,-4.672 1.428,-9.101 2.461,-13.287 1.134,-4.189 2.464,-7.327 3.991,-9.4122 z m 25.221,-37.2892 c 0.877,-0.7446 1.887,-0.7373 3.031,0.0218 1.143,0.759 2.002,1.9344 2.575,3.5259 0.796,2.087 0.916,3.6979 0.358,4.8328 -0.562,1.0341 -1.43,1.9803 -2.605,2.8387 -0.584,0.5299 -1.713,1.2853 -3.388,2.266 -1.574,0.9764 -3.348,2.0119 -5.321,3.1064 -1.877,0.9893 -3.756,1.9283 -5.637,2.8168 -1.885,0.7877 -3.33,1.2536 -4.334,1.3975 -1.105,0.1483 -1.966,0.0842 -2.584,-0.1924 -0.622,-0.3774 -1.145,-0.8095 -1.57,-1.2963 -0.324,-0.4912 -0.55,-1.0371 -0.676,-1.6377 -0.131,-0.7014 -0.208,-1.3041 -0.229,-1.8082 7.631,-5.7808 12.959,-9.8975 15.985,-12.3501 1.759,-1.3883 3.224,-2.5621 4.395,-3.5212 z m 38.23,4.727 c -1.253,6.1139 -2.719,11.9844 -4.397,17.6114 -1.582,5.5219 -3.278,10.7457 -5.087,15.6713 -1.713,4.8207 -3.493,9.2397 -5.341,13.2577 -1.747,4.014 -3.315,7.516 -4.702,10.504 -0.697,7.302 -0.447,13.15 0.751,17.543 1.198,4.392 3.259,6.526 6.183,6.401 2.419,-0.103 4.741,-1.314 6.965,-3.631 2.224,-2.317 4.174,-5.128 5.851,-8.432 1.677,-3.304 3.042,-6.796 4.097,-10.478 1.151,-3.786 1.815,-7.147 1.992,-10.084 -1.937,-0.422 -3.587,-1.21 -4.949,-2.364 -1.367,-1.254 -2.096,-2.94 -2.186,-5.058 -0.061,-1.411 0.287,-2.739 1.041,-3.983 0.751,-1.345 1.661,-2.495 2.731,-3.4503 1.07,-0.9548 2.25,-1.7123 3.539,-2.2725 1.289,-0.5602 2.488,-0.8641 3.597,-0.9115 1.714,-0.0734 3.224,0.9731 4.528,3.1393 1.301,2.065 2.224,4.753 2.769,8.063 4.029,-0.274 8.237,-1.06 12.626,-2.359 4.389,-1.298 8.512,-2.889 12.371,-4.771 1.087,-0.5518 1.988,-0.7418 2.702,-0.5704 0.715,0.1714 1.186,0.5554 1.413,1.1514 0.329,0.592 0.359,1.298 0.091,2.117 -0.272,0.719 -0.854,1.299 -1.744,1.742 -2.262,1.409 -4.63,2.723 -7.103,3.94 -2.377,1.111 -4.76,2.072 -7.149,2.881 -2.39,0.81 -4.685,1.463 -6.886,1.962 -2.2,0.498 -4.208,0.786 -6.023,0.863 -0.231,4.05 -1.303,8.49 -3.217,13.319 -1.919,4.728 -4.305,9.174 -7.157,13.336 -2.856,4.061 -6.093,7.482 -9.711,10.263 -3.517,2.777 -7.04,4.241 -10.569,4.392 -1.109,0.047 -2.577,-0.041 -4.405,-0.266 -1.828,-0.225 -3.637,-1.208 -5.429,-2.949 -1.792,-1.742 -3.377,-4.553 -4.755,-8.433 -1.382,-3.981 -2.13,-9.656 -2.243,-17.024 -0.111,-4.944 0.219,-10.211 0.99,-15.799 0.771,-5.588 1.743,-11.185 2.918,-16.7904 1.174,-5.6055 2.508,-11.0158 4.002,-16.2309 1.59,-5.3203 3.103,-10.0817 4.54,-14.2843 1.431,-4.3035 2.742,-7.8947 3.932,-10.7738 1.291,-2.8833 2.272,-4.7433 2.943,-5.5801 0.86,-1.1478 1.884,-1.9997 3.072,-2.5556 1.184,-0.6567 2.326,-1.1096 3.427,-1.3587 1.197,-0.3542 2.301,-0.5025 3.314,-0.4448 1.012,0.0576 1.724,0.1787 2.136,0.3631 0.623,0.3773 0.869,2.5889 0.739,6.6346 -0.029,4.0414 -0.765,9.2746 -2.207,15.6995 z m 100.51,50.9984 c -2.835,4.565 -6.077,9.047 -9.727,13.445 -3.654,4.298 -7.578,8.203 -11.771,11.716 -4.096,3.407 -8.369,6.216 -12.82,8.427 -4.35,2.206 -8.642,3.4 -12.876,3.581 -2.218,0.095 -4.662,-0.356 -7.33,-1.353 -2.564,-0.9 -4.952,-2.414 -7.164,-4.542 -2.212,-2.127 -4.049,-4.927 -5.511,-8.4 -1.361,-3.477 -1.897,-7.746 -1.608,-12.809 0.226,-4.151 1.301,-8.54 3.224,-13.167 2.019,-4.733 4.51,-9.082 7.471,-13.047 3.062,-3.9687 6.506,-7.2977 10.33,-9.9865 3.925,-2.693 7.903,-4.1259 11.936,-4.2985 3.831,-0.1639 6.645,0.6752 8.441,2.5174 1.796,1.8422 2.653,4.1791 2.572,7.0107 -0.168,3.1383 -0.953,6.0509 -2.353,8.7369 -1.299,2.681 -2.912,5.124 -4.837,7.327 -1.926,2.204 -4.012,4.212 -6.257,6.025 -2.145,1.809 -4.195,3.463 -6.151,4.96 -2.154,1.608 -4.208,3.16 -6.164,4.658 -1.961,1.397 -3.673,2.682 -5.138,3.856 0.209,2.516 0.753,4.614 1.633,6.293 0.88,1.68 1.949,3.048 3.206,4.105 1.253,0.957 2.646,1.654 4.18,2.094 1.63,0.334 3.252,0.467 4.865,0.398 3.428,-0.147 6.962,-1.359 10.602,-3.636 3.635,-2.377 7.152,-5.154 10.552,-8.33 3.495,-3.28 6.684,-6.649 9.566,-10.105 2.983,-3.461 5.431,-6.445 7.344,-8.951 0.671,-0.836 1.358,-1.32 2.059,-1.451 0.798,-0.236 1.407,-0.161 1.828,0.225 0.517,0.28 0.795,0.875 0.834,1.782 0.034,0.807 -0.278,1.779 -0.936,2.919 z M 565.715,95.4263 c -1.21,0.0518 -2.646,0.7193 -4.308,2.0024 -1.562,1.2789 -3.099,3.1123 -4.613,5.5003 -1.518,2.287 -2.912,5.124 -4.181,8.512 -1.273,3.286 -2.172,7.062 -2.697,11.326 1.171,-0.959 2.443,-1.922 3.816,-2.89 1.368,-1.069 2.734,-2.188 4.098,-3.357 4.193,-3.513 7.092,-6.566 8.698,-9.16 1.606,-2.593 2.471,-4.802 2.595,-6.625 0.12,-1.9246 -0.14,-3.277 -0.779,-4.0577 -0.644,-0.8815 -1.52,-1.2985 -2.629,-1.251 z M 672.494,112.37 c 0.671,-0.837 1.36,-1.27 2.065,-1.3 0.803,-0.136 1.416,0.04 1.841,0.527 0.521,0.382 0.751,1.028 0.689,1.94 0.039,0.907 -0.321,1.933 -1.08,3.076 -1.804,2.704 -3.905,5.521 -6.305,8.452 -2.404,2.83 -5.012,5.618 -7.823,8.364 -2.711,2.742 -5.479,5.335 -8.303,7.779 -2.825,2.444 -5.566,4.481 -8.223,6.109 -2.951,1.844 -5.486,2.811 -7.603,2.901 -2.016,0.087 -4.089,-1.138 -6.217,-3.673 -1.914,-2.241 -2.927,-4.672 -3.039,-7.293 -0.016,-2.727 0.444,-6.13 1.381,-10.21 0.598,-2.551 1.428,-5.566 2.491,-9.046 1.16,-3.585 2.023,-7.005 2.591,-10.262 0.669,-3.26 0.804,-5.993 0.407,-8.198 -0.402,-2.3062 -1.762,-3.4095 -4.081,-3.3103 -1.613,0.0691 -3.354,0.6991 -5.222,1.8903 -1.767,1.186 -3.57,2.728 -5.408,4.625 -1.741,1.791 -3.421,3.833 -5.04,6.124 -1.619,2.292 -3.039,4.524 -4.259,6.697 -0.638,3.967 -1.278,7.883 -1.921,11.749 -0.568,3.256 -1.173,6.817 -1.815,10.683 -0.547,3.76 -1.11,7.117 -1.69,10.071 -0.584,0.53 -1.224,0.911 -1.921,1.143 -0.697,0.232 -1.348,0.361 -1.953,0.387 -0.706,0.03 -1.414,0.01 -2.124,-0.061 -0.815,-0.167 -1.584,-0.437 -2.307,-0.81 -0.622,-0.378 -1.251,-0.906 -1.886,-1.586 -0.631,-0.579 -1.121,-1.417 -1.471,-2.513 3.738,-18.845 6.677,-33.97 8.815,-45.374 2.138,-11.4041 3.785,-20.1105 4.942,-26.1192 1.311,-7.1264 2.211,-12.0636 2.699,-14.8116 0.221,-1.9285 0.393,-3.8044 0.517,-5.6278 0.133,-1.6217 0.162,-3.2896 0.089,-5.0035 -0.073,-1.7139 -0.291,-3.2702 -0.654,-4.6687 0.785,-0.5386 1.624,-0.9785 2.519,-1.3198 0.995,-0.3456 1.942,-0.6387 2.841,-0.8792 1.096,-0.3499 2.194,-0.6494 3.294,-0.8985 1.101,-0.2491 2.105,-0.3931 3.012,-0.4319 0.807,-0.0345 1.567,0.0339 2.281,0.2054 0.71,0.0706 1.177,0.3536 1.4,0.8491 0.627,0.4782 0.922,1.4756 0.886,2.9922 0.065,1.5123 0.031,3.0793 -0.102,4.7011 -0.321,1.9328 -0.686,4.019 -1.096,6.2586 -1.767,8.257 -3.796,16.3231 -6.085,24.1983 -2.293,7.7745 -4.361,16.0948 -6.204,24.9605 1.225,-2.072 2.699,-4.206 4.423,-6.4005 1.724,-2.1949 3.608,-4.1946 5.652,-5.9991 2.14,-1.9097 4.397,-3.4708 6.769,-4.6834 2.368,-1.3134 4.913,-2.0283 7.635,-2.1448 1.411,-0.0604 2.733,0.1355 3.964,0.5878 1.328,0.3472 2.469,1.0559 3.424,2.1261 1.052,0.965 1.868,2.3441 2.45,4.1373 0.577,1.6923 0.872,3.8513 0.883,6.4769 0.069,1.6127 -0.061,3.2857 -0.391,5.0167 -0.229,1.727 -0.601,3.662 -1.115,5.805 -0.519,2.042 -1.228,4.345 -2.129,6.909 -0.799,2.559 -1.783,5.53 -2.951,8.913 -0.809,2.358 -1.43,4.354 -1.865,5.989 -0.435,1.634 -0.274,3.042 0.484,4.221 0.976,1.574 2.758,1.902 5.344,0.984 2.684,-1.024 6.604,-3.818 11.762,-8.382 1.167,-1.06 2.474,-2.379 3.921,-3.956 1.448,-1.577 2.845,-3.151 4.192,-4.724 1.342,-1.674 2.588,-3.242 3.738,-4.705 1.149,-1.464 2.11,-2.616 2.882,-3.457 z"
         fill="#0c2460"
         fill-opacity="0.07"
         id="path1" /><path
         d="m 563.96,66.6532 c -1.038,-1.4218 -1.969,-2.6038 -2.791,-3.5461 -0.826,-1.0398 -1.84,-1.8761 -3.04,-2.509 0.662,-0.5171 1.481,-0.7965 2.457,-0.8382 1.069,-0.1435 2.091,-0.2362 3.067,-0.2779 1.077,0.0516 2.252,0.0991 3.525,0.1424 1.862,0.1158 3.406,0.7828 4.631,2.001 1.322,1.2141 2.939,3.5886 4.85,7.1234 0.004,0.0976 0.008,0.1951 0.012,0.2927 0.098,-0.0042 0.149,0.0425 0.153,0.1401 3.485,-3.0815 5.838,-5.186 7.061,-6.3136 1.315,-1.2292 2.067,-1.9456 2.254,-2.1491 1.604,-1.3393 3.191,-1.9449 4.76,-1.8165 1.57,0.1283 3.035,0.1144 4.397,-0.0416 l 1.756,-0.0751 c 0.488,-0.0209 1.025,-0.0439 1.61,-0.0689 0.581,-0.1227 1.114,-0.2432 1.597,-0.3616 -0.467,0.5087 -1.265,1.2759 -2.394,2.3017 -1.133,0.9282 -2.313,1.9073 -3.539,2.9372 -1.418,1.1359 -2.927,2.4223 -4.527,3.8592 -0.565,0.5129 -1.318,1.1805 -2.26,2.0028 -0.942,0.8223 -1.933,1.6467 -2.973,2.4731 -0.943,0.8223 -1.838,1.5938 -2.687,2.3143 -0.755,0.6188 -1.324,1.0341 -1.706,1.246 -0.28,0.3052 -0.953,0.5783 -2.018,0.8194 -1.069,0.1435 -2.189,0.2403 -3.359,0.2904 -1.171,0.0501 -2.297,6e-4 -3.379,-0.1486 -0.984,-0.1534 -1.58,-0.3723 -1.788,-0.6566 -0.207,-0.2844 -0.574,-0.8551 -1.099,-1.7124 -0.526,-0.8572 -1.102,-1.7611 -1.729,-2.7117 -0.631,-1.0482 -1.21,-2.0009 -1.735,-2.8581 -0.526,-0.8573 -0.894,-1.4768 -1.106,-1.8587 z"
         fill="#0c2460"
         fill-opacity="0.07"
         id="path2" /><path
         d="m 397.96,72.6532 c -1.038,-1.4218 -1.969,-2.6038 -2.791,-3.5461 -0.826,-1.0398 -1.84,-1.8761 -3.04,-2.509 0.662,-0.5171 1.481,-0.7965 2.457,-0.8382 1.069,-0.1435 2.091,-0.2362 3.067,-0.2779 1.077,0.0516 2.252,0.0991 3.525,0.1424 1.862,0.1158 3.406,0.7828 4.631,2.001 1.322,1.2141 2.939,3.5886 4.85,7.1234 0.004,0.0976 0.008,0.1951 0.012,0.2927 0.098,-0.0042 0.149,0.0425 0.153,0.1401 3.485,-3.0815 5.838,-5.186 7.061,-6.3136 1.315,-1.2292 2.067,-1.9456 2.254,-2.1491 1.604,-1.3393 3.191,-1.9449 4.76,-1.8165 1.57,0.1283 3.035,0.1144 4.397,-0.0416 l 1.756,-0.0751 c 0.488,-0.0209 1.025,-0.0439 1.61,-0.0689 0.581,-0.1227 1.114,-0.2432 1.597,-0.3616 -0.467,0.5087 -1.265,1.2759 -2.394,2.3017 -1.133,0.9282 -2.313,1.9073 -3.539,2.9372 -1.418,1.1359 -2.927,2.4223 -4.527,3.8592 -0.565,0.5129 -1.318,1.1805 -2.26,2.0028 -0.942,0.8223 -1.933,1.6467 -2.973,2.4731 -0.943,0.8223 -1.838,1.5938 -2.687,2.3143 -0.755,0.6188 -1.324,1.0341 -1.706,1.246 -0.28,0.3052 -0.953,0.5783 -2.018,0.8194 -1.069,0.1435 -2.189,0.2403 -3.359,0.2904 -1.171,0.0501 -2.297,6e-4 -3.379,-0.1486 -0.984,-0.1534 -1.58,-0.3723 -1.788,-0.6566 -0.207,-0.2844 -0.574,-0.8551 -1.099,-1.7124 -0.526,-0.8572 -1.102,-1.7611 -1.729,-2.7117 -0.631,-1.0482 -1.21,-2.0009 -1.735,-2.8581 -0.526,-0.8573 -0.894,-1.4768 -1.106,-1.8587 z"
         fill="#0c2460"
         fill-opacity="0.07"
         id="path3" /></g></g></svg>
