<svg width="634" height="186" viewBox="0 0 634 186" fill="none" xmlns="http://www.w3.org/2000/svg">
<path d="M26.1914 58.4863C25.765 60.323 25.2218 62.972 24.562 66.434C23.9986 69.792 23.3561 73.657 22.6342 78.031C22.0132 82.401 21.3022 87.027 20.5011 91.91C19.7965 96.687 19.1402 101.412 18.5321 106.084C18.0249 110.752 17.5572 115.165 17.1292 119.325C16.6969 123.384 16.4907 126.827 16.5107 129.654C16.5437 132.783 16.6753 135.858 16.9055 138.879C17.1186 141.496 17.3863 144.211 17.7087 147.026C18.1363 149.936 18.7505 152.486 19.5511 154.674C17.8717 155.554 16.3831 156.173 15.0854 156.531C13.7921 156.991 12.7464 157.338 11.9485 157.575C10.9489 157.819 10.0963 157.957 9.39049 157.987C8.58399 158.022 7.62188 157.962 6.50418 157.808C5.39088 157.754 4.36109 157.293 3.41489 156.425C2.46869 155.556 1.65219 154.177 0.965285 152.287C0.278385 150.398 -0.0419144 147.634 0.00438563 143.996C0.00168563 141.572 0.275485 138.53 0.825885 134.87C1.27978 131.316 1.86978 127.402 2.59598 123.129C3.31778 118.754 4.13609 114.275 5.05099 109.691C6.06229 105.002 7.02968 100.465 7.95318 96.083C8.87238 91.599 9.70149 87.372 10.4406 83.401C11.2805 79.426 11.9929 76.012 12.5778 73.159C13.3299 69.491 14.1568 65.213 15.0587 60.326C16.6205 51.9771 18.9631 39.4534 22.0866 22.7551C22.7707 22.2208 23.5075 21.7348 24.2968 21.297C25.0817 20.7583 25.7702 20.3249 26.3622 19.9965C27.0507 19.563 27.7435 19.2304 28.4406 18.9985C31.615 17.6506 33.877 17.4023 35.2264 18.2536C36.6767 19.1006 37.561 20.8808 37.8791 23.5943C38.0576 25.4047 38.3714 28.0174 38.8206 31.4323C39.3706 34.8429 39.8874 38.6589 40.3711 42.8804C40.8548 47.1018 41.2945 51.4767 41.6903 56.0049C42.0818 60.432 42.3595 64.562 42.5235 68.393C42.6314 70.913 42.8091 73.885 43.0566 77.309C43.3041 80.732 43.6107 84.355 43.9763 88.178C44.3419 92 44.7622 95.921 45.2372 99.941C45.708 103.86 46.2227 107.626 46.7813 111.238C47.3399 114.85 47.8855 118.16 48.4183 121.167C49.0518 124.17 49.6616 126.619 50.2477 128.513C50.4839 129.311 50.7179 130.058 50.9497 130.755C51.2824 131.448 51.5646 132.143 51.7965 132.84C52.2978 130.395 52.8302 127.493 53.3935 124.136C54.0577 120.775 54.7132 117.211 55.3601 113.447C56.1032 109.577 56.7942 105.658 57.4322 101.692C58.0662 97.625 58.6102 93.814 59.0642 90.259C59.4472 87.415 59.8472 83.761 60.2622 79.299C60.6772 74.838 61.1782 70.018 61.7642 64.842C60.6382 64.486 59.5622 64.128 58.5362 63.768C57.6122 63.404 56.6832 62.939 55.7498 62.372C54.8166 61.806 54.0302 61.133 53.3908 60.352C53.4355 59.037 53.4954 58.0753 53.5703 57.466C53.746 56.8525 54.248 56.7805 55.0761 57.2501C55.694 57.5267 56.6162 57.8407 57.8432 58.1922C59.1712 58.539 60.6962 58.777 62.4192 58.905C62.8022 56.0609 63.2362 53.2142 63.7202 50.3654C64.3052 47.5122 64.8942 44.7599 65.4882 42.1084C66.4112 37.7257 67.5052 33.7903 68.7702 30.302C70.0312 26.7129 71.5162 23.6697 73.2282 21.1724C75.0402 18.6707 77.1782 16.7107 79.6422 15.2921C82.1072 13.8736 85.0002 13.0428 88.3232 12.7996C91.4482 12.6658 94.0252 13.8686 96.0532 16.4079C98.1772 18.8421 99.2242 23.2414 99.1932 29.606C99.1942 34.3531 98.3692 38.6811 96.7192 42.5899C95.1642 46.3935 93.1892 49.8112 90.7942 52.8428C88.3942 55.7736 85.7232 58.2615 82.7812 60.307C79.8342 62.251 77.0172 63.684 74.3292 64.607C73.6242 69.385 72.9722 74.21 72.3732 79.084C71.7692 83.857 71.1612 88.529 70.5492 93.101C70.0332 97.567 69.4582 101.834 68.8242 105.901C68.2912 109.964 67.7382 113.573 67.1662 116.729C66.5902 119.784 65.9742 123.093 65.3192 126.656C64.7422 129.711 64.0342 133.226 63.1942 137.201C62.3542 141.176 61.4732 145.355 60.5492 149.737C60.1852 150.662 59.7132 151.44 59.1342 152.071C58.5592 152.802 57.9782 153.383 57.3902 153.812C56.7062 154.346 56.0182 154.779 55.3252 155.112C53.3434 156.005 51.6359 156.23 50.2029 155.786C48.7698 155.342 47.4513 154.035 46.2474 151.865C45.0392 149.593 43.908 146.763 42.8539 143.374C41.9007 139.981 40.884 136.287 39.8041 132.293C38.7112 127.997 37.8048 123.339 37.085 118.319C36.4616 113.195 35.8865 108.018 35.3597 102.788C34.9294 97.453 34.5516 92.167 34.2264 86.929C33.9012 81.69 33.4882 76.759 32.9872 72.134C32.2242 66.106 31.4893 60.734 30.7824 56.0172C30.0712 51.1995 29.3419 47.14 28.5946 43.8389C28.2777 45.8725 27.9211 48.1604 27.5248 50.7024C27.1286 53.2445 26.6841 55.8391 26.1914 58.4863ZM76.7322 49.96C76.3102 51.8971 75.9852 53.7291 75.7552 55.456C78.1152 53.941 80.3082 52.0796 82.3342 49.8718C84.3562 47.5631 86.0722 45.1666 87.4812 42.6822C88.8892 40.1978 89.9452 37.7286 90.6482 35.2744C91.4522 32.8159 91.8612 30.5763 91.8762 28.5556C91.9162 27.1398 91.7182 26.0373 91.2802 25.248C90.9382 24.3536 90.3142 23.9258 89.4072 23.9646C88.9032 23.9862 88.1092 24.3231 87.0262 24.9755C86.0392 25.5228 84.9292 26.7318 83.6962 28.6026C82.4592 30.3727 81.2062 32.9514 79.9372 36.3388C78.7692 39.722 77.7002 44.2623 76.7322 49.96ZM165.728 93.876C164.402 95.952 162.695 98.55 160.607 101.67C158.514 104.689 156.322 107.762 154.032 110.89C151.839 113.913 149.636 116.735 147.425 119.354C145.311 121.869 143.519 123.663 142.05 124.735C141.068 125.384 139.93 125.937 138.636 126.397C137.343 126.856 135.993 127.166 134.585 127.328C133.279 127.484 132.015 127.438 130.792 127.187C129.573 127.037 128.497 126.679 127.564 126.113C126.627 125.446 125.827 124.47 125.166 123.185C124.615 122.098 124.048 120.658 123.466 118.865C122.985 117.067 122.737 114.805 122.721 112.079C120.474 116.215 117.936 119.455 115.108 121.798C112.274 124.04 109.569 125.722 106.991 126.842C104.014 128.08 101.017 128.865 98.0012 129.196C96.5902 129.257 95.0562 128.817 93.3992 127.878C91.7482 127.04 90.3242 125.636 89.1292 123.667C87.9292 121.598 87.1092 118.956 86.6682 115.743C86.2242 112.429 86.4592 108.479 87.3732 103.895C88.5222 97.685 90.5002 91.994 93.3092 86.824C96.2192 81.649 99.4132 77.22 102.891 73.536C106.365 69.751 109.828 66.876 113.279 64.91C116.73 62.944 119.619 62.013 121.947 62.115C124.69 62.503 126.943 63.214 128.704 64.25C130.159 65.198 131.131 66.671 131.621 68.67C132.207 70.564 131.51 73.17 129.531 76.486C130.929 76.124 132.08 75.872 132.983 75.733C133.987 75.589 134.741 75.506 135.245 75.484C135.85 75.458 136.256 75.492 136.462 75.584C136.571 75.781 136.641 76.233 136.671 76.938C136.697 77.543 136.595 78.709 136.366 80.436C136.137 82.163 135.783 84.501 135.303 87.451C134.823 90.4 134.178 94.216 133.369 98.897C133.206 99.813 133.041 100.678 132.874 101.493C132.803 102.203 132.684 102.966 132.517 103.781C132.447 104.491 132.332 105.355 132.174 106.371C132.015 107.388 131.817 108.659 131.579 110.185C131.517 111.096 131.51 112.107 131.557 113.216C131.701 114.219 131.944 115.169 132.285 116.063C132.627 116.957 133.113 117.694 133.743 118.273C134.471 118.747 135.439 118.958 136.649 118.906C137.657 118.863 138.942 118.202 140.503 116.923C142.06 115.544 143.705 113.857 145.438 111.864C147.167 109.77 148.939 107.523 150.755 105.122C152.668 102.616 154.434 100.217 156.053 97.926C157.672 95.634 159.1 93.604 160.337 91.834C161.676 90.059 162.63 88.756 163.2 87.923C163.968 86.982 164.753 86.443 165.555 86.308C166.353 86.071 166.967 86.247 167.396 86.835C167.825 87.422 167.914 88.328 167.664 89.55C167.514 90.769 166.868 92.211 165.728 93.876ZM121.702 102.426C122.12 100.388 122.624 97.993 123.213 95.241C123.802 92.488 124.295 89.841 124.691 87.299C125.087 84.757 125.352 82.675 125.484 81.053C125.713 79.326 125.628 78.522 125.229 78.64C124.73 78.762 124.182 78.937 123.585 79.165C123.09 79.388 122.441 79.567 121.639 79.703C120.837 79.838 120.037 80.024 119.239 80.26C119.976 78.612 120.374 77.282 120.431 76.27C120.586 75.152 120.599 74.293 120.473 73.692C120.342 72.991 120.116 72.445 119.796 72.055C118.649 71.195 116.715 72.035 113.996 74.576C111.373 77.011 108.382 81.482 105.025 87.989C103.625 90.675 102.536 93.55 101.758 96.613C100.976 99.576 100.439 102.376 100.148 105.015C99.9582 107.649 100.006 109.97 100.294 111.978C100.578 113.885 101.035 115.128 101.666 115.707C102.822 116.768 104.106 117.269 105.518 117.209C106.925 117.047 108.319 116.584 109.7 115.818C111.178 114.946 112.597 113.876 113.957 112.605C115.417 111.331 116.674 110.014 117.727 108.656C118.881 107.294 119.787 106.043 120.445 104.904C121.204 103.76 121.623 102.934 121.702 102.426ZM129.16 32.4141C130.037 31.6696 131.047 31.6768 132.191 32.4359C133.334 33.195 134.193 34.3703 134.766 35.9618C135.562 38.0488 135.682 39.6598 135.124 40.7947C134.562 41.8288 133.694 42.775 132.519 43.6333C131.935 44.1633 130.806 44.9186 129.131 45.8994C127.557 46.8758 125.783 47.9112 123.81 49.0057C121.933 49.9951 120.054 50.934 118.173 51.8226C116.288 52.6103 114.843 53.0761 113.839 53.2201C112.734 53.3684 111.873 53.3042 111.255 53.0277C110.633 52.6503 110.11 52.2182 109.685 51.7313C109.361 51.2402 109.135 50.6943 109.009 50.0937C108.878 49.3923 108.801 48.7895 108.78 48.2854C116.411 42.5046 121.739 38.3879 124.765 35.9353C126.524 34.547 127.989 33.3733 129.16 32.4141ZM177.986 118.349C178.609 118.727 179.373 118.896 180.281 118.857C181.289 118.814 182.238 118.571 183.128 118.129C184.119 117.683 185.003 117.089 185.779 116.349C186.656 115.605 187.273 114.669 187.629 113.543C187.984 112.417 187.917 110.854 187.428 108.855C186.934 106.755 186.184 104.565 185.177 102.285C184.267 99.9 183.256 97.519 182.144 95.142C181.033 92.766 180.081 90.585 179.289 88.598C178.619 87.112 178.055 85.722 177.595 84.429C177.144 83.337 176.696 82.296 176.249 81.305C175.9 80.209 175.615 79.463 175.396 79.069C174.927 79.897 174.075 81.246 172.842 83.117C171.71 84.984 170.431 86.957 169.005 89.039C167.676 91.015 166.392 92.888 165.155 94.658C163.913 96.327 163.053 97.475 162.575 98.101C161.808 99.043 161.025 99.632 160.227 99.868C159.525 99.999 158.914 99.874 158.393 99.492C157.867 99.01 157.536 98.367 157.401 97.565C157.362 96.658 157.72 95.582 158.475 94.337C159.045 93.505 159.899 92.206 161.035 90.44C162.168 88.574 163.3 86.707 164.432 84.841C165.56 82.873 166.597 81.162 167.545 79.708C168.489 78.152 169.004 77.221 169.092 76.914C169.259 76.099 168.912 75.054 168.049 73.777C167.287 72.497 167.122 70.989 167.552 69.253C167.895 67.825 168.734 66.173 170.067 64.298C171.397 62.322 172.987 60.537 174.838 58.942C176.689 57.348 178.607 56.1549 180.593 55.3628C182.575 54.47 184.39 54.3923 186.038 55.1298C187.383 55.8803 188.48 56.7424 189.33 57.716C190.175 58.589 190.519 59.534 190.36 60.551C190.18 61.063 189.906 61.732 189.537 62.555C189.168 63.379 188.607 64.413 187.852 65.658C187.093 66.801 185.996 68.313 184.561 70.192C184.963 72.498 185.457 74.598 186.043 76.492C186.73 78.382 187.355 80.021 187.92 81.411C188.598 83.099 189.32 84.634 190.087 86.015C191.072 87.791 192.109 89.615 193.199 91.488C194.29 93.36 195.279 95.237 196.167 97.118C197.052 98.898 197.78 100.584 198.353 102.176C198.927 103.767 199.136 105.122 198.982 106.239C198.753 107.966 197.934 110.072 196.525 112.556C195.217 115.036 193.504 117.483 191.385 119.897C189.363 122.206 186.975 124.227 184.221 125.961C181.568 127.69 178.729 128.62 175.704 128.749C173.587 128.84 171.492 128.273 169.42 127.049C167.448 125.82 165.72 124.379 164.235 122.725C162.847 120.967 161.763 119.246 160.984 117.562C160.306 115.874 160.199 114.565 160.665 113.636C161.218 112.401 161.731 111.419 162.205 110.692C162.679 109.965 163.401 109.126 164.37 108.175C164.76 107.855 165.249 107.481 165.837 107.052C166.328 106.728 167.021 106.395 167.915 106.054C168.81 105.713 169.853 105.314 171.046 104.859C172.188 107.942 173.201 110.373 174.085 112.153C174.965 113.832 175.679 115.165 176.226 116.152C176.878 117.235 177.465 117.968 177.986 118.349ZM171.752 32.8638C170.679 31.3947 169.718 30.1733 168.868 29.1996C168.014 28.1251 166.967 27.2609 165.727 26.607C166.411 26.0727 167.258 25.7839 168.266 25.7408C169.37 25.5925 170.427 25.4968 171.435 25.4536C172.548 25.507 173.763 25.556 175.077 25.6008C177.002 25.7204 178.597 26.4097 179.863 27.6686C181.229 28.9231 182.9 31.3767 184.874 35.0294C184.879 35.1302 184.883 35.231 184.887 35.3318C184.988 35.3275 185.041 35.3757 185.045 35.4766C188.646 32.2923 191.078 30.1177 192.341 28.9526C193.701 27.6823 194.477 26.9421 194.67 26.7318C196.328 25.3478 197.968 24.7221 199.589 24.8547C201.211 24.9873 202.726 24.973 204.133 24.8118L205.948 24.7341C206.452 24.7125 207.006 24.6888 207.611 24.6629C208.212 24.5362 208.762 24.4117 209.262 24.2893C208.779 24.8149 207.955 25.6077 206.788 26.6677C205.617 27.6269 204.398 28.6386 203.13 29.7029C201.665 30.8766 200.106 32.2059 198.453 33.6907C197.869 34.2207 197.091 34.9105 196.117 35.7602C195.143 36.6099 194.119 37.4618 193.045 38.3158C192.071 39.1655 191.146 39.9626 190.269 40.7072C189.488 41.3466 188.9 41.7758 188.506 41.9947C188.216 42.3101 187.521 42.5924 186.421 42.8415C185.316 42.9898 184.159 43.0898 182.949 43.1416C181.739 43.1933 180.575 43.1421 179.458 42.988C178.441 42.8295 177.825 42.6033 177.611 42.3095C177.396 42.0157 177.017 41.4258 176.474 40.54C175.931 39.6543 175.336 38.7202 174.688 37.7379C174.036 36.6548 173.438 35.6703 172.895 34.7845C172.352 33.8987 171.971 33.2585 171.752 32.8638ZM246.603 185.257C245.885 184.985 245.16 184.561 244.428 183.986C243.801 183.508 243.168 182.879 242.529 182.098C241.894 181.418 241.351 180.532 240.9 179.441C243.262 168.532 245.28 159.052 246.955 151.001C248.53 142.955 249.909 136.229 251.092 130.826C252.336 124.51 253.423 119.211 254.35 114.93C255.186 110.854 256.022 106.778 256.857 102.702C257.513 99.139 258.208 95.321 258.943 91.25C259.778 87.174 260.524 83.354 261.179 79.791C262.019 75.816 262.49 72.665 262.593 70.337C262.691 67.909 261.846 65.874 260.059 64.234C261.226 63.174 262.403 62.366 263.591 61.81C264.876 61.149 266.018 60.696 267.018 60.451C268.114 60.101 269.219 59.953 270.332 60.007C273.063 60.092 274.763 60.877 275.433 62.364C276.203 63.846 276.407 66.261 276.046 69.61C275.967 70.118 275.885 70.576 275.802 70.984C275.814 71.286 275.83 71.639 275.847 72.042C277.189 70.369 278.685 68.739 280.334 67.154C281.984 65.568 283.639 64.134 285.301 62.851C287.064 61.563 288.838 60.528 290.623 59.744C292.504 58.856 294.301 58.3747 296.015 58.3013C298.334 58.2021 300.225 58.727 301.688 59.877C303.248 60.921 304.472 62.384 305.361 64.265C306.249 66.146 306.846 68.292 307.151 70.703C307.452 73.013 307.602 75.33 307.6 77.653C307.607 80.178 307.268 82.869 306.582 85.726C305.997 88.579 305.112 91.496 303.926 94.476C302.741 97.455 301.352 100.394 299.759 103.29C298.165 106.186 296.463 108.885 294.651 111.387C295.058 111.47 295.315 111.56 295.42 111.657C295.521 111.653 295.573 111.701 295.578 111.802C295.578 111.802 295.63 111.85 295.735 111.946C295.937 111.938 296.29 111.923 296.794 111.901C299.113 111.802 301.456 111.095 303.824 109.782C306.192 108.469 308.496 106.855 310.738 104.941C312.974 102.926 315.104 100.765 317.126 98.456C319.249 96.143 321.125 93.942 322.752 91.852C324.477 89.657 325.909 87.727 327.05 86.062C328.186 84.297 329.042 83.048 329.617 82.316C330.38 81.274 331.108 80.586 331.801 80.253C332.489 79.82 333.042 79.746 333.458 80.031C333.874 80.316 334.102 80.912 334.14 81.82C334.175 82.626 333.918 83.698 333.369 85.034C333.005 85.959 332.21 87.457 330.986 89.53C329.761 91.602 328.245 93.94 326.438 96.542C324.63 99.145 322.524 101.861 320.12 104.691C317.817 107.517 315.352 110.097 312.725 112.431C310.098 114.766 307.352 116.701 304.489 118.238C301.731 119.871 298.991 120.746 296.268 120.862C294.958 120.918 293.897 120.913 293.086 120.847C292.275 120.781 291.561 120.609 290.943 120.333C290.43 120.153 289.915 119.922 289.398 119.641C288.886 119.461 288.27 119.235 287.551 118.963C285.797 120.452 283.977 121.59 282.092 122.378C280.211 123.267 278.363 123.75 276.548 123.827C274.834 123.901 273.309 123.663 271.972 123.114C270.741 122.662 269.7 121.949 268.851 120.975C268.005 120.102 267.307 119.122 266.755 118.035C266.199 116.847 265.747 115.704 265.397 114.608C265.313 115.016 265.227 115.373 265.139 115.68C265.152 115.982 265.119 116.388 265.04 116.896C264.037 121.787 263.017 127.437 261.978 133.844C261.102 139.336 260.023 145.998 258.742 153.83C257.567 161.759 256.335 170.75 255.049 180.805C254.56 183.553 253.569 185.161 252.074 185.629C250.478 186.101 248.654 185.977 246.603 185.257ZM270.265 90.311C269.835 92.046 269.366 94.086 268.861 96.431C268.452 98.67 267.961 101.368 267.389 104.524C268.17 103.884 269.058 103.392 270.053 103.046C271.048 102.701 272.05 102.506 273.058 102.463C274.167 102.416 275.604 102.96 277.37 104.097C279.132 105.132 281.25 106.254 283.726 107.461C285.161 105.581 286.637 103.498 288.155 101.211C289.77 98.819 291.181 96.385 292.388 93.909C293.696 91.429 294.749 88.909 295.549 86.35C296.449 83.786 296.9 81.343 296.902 79.02C296.974 75.986 296.52 73.632 295.539 71.957C294.558 70.282 293.009 69.49 290.892 69.581C287.767 69.714 284.419 71.726 280.848 75.616C277.374 79.401 273.846 84.299 270.265 90.311ZM318.817 116.716C318.159 117.855 317.433 118.593 316.639 118.93C315.749 119.372 314.995 119.455 314.377 119.178C313.663 119.007 313.187 118.522 312.951 117.724C312.715 116.926 312.874 115.91 313.427 114.674C313.703 114.056 314.351 112.665 315.369 110.5C316.287 108.34 317.439 105.765 318.826 102.777C320.108 99.692 321.533 96.399 323.1 92.898C324.663 89.295 326.134 85.899 327.512 82.709C328.992 79.515 330.335 76.68 331.542 74.204C332.745 71.627 333.625 69.772 334.182 68.637C333.03 67.676 332.244 67.003 331.823 66.617C331.398 66.13 331.053 65.135 330.786 63.631C330.529 62.329 330.758 60.602 331.474 58.4503C332.19 56.2986 333.162 54.2369 334.391 52.2653C335.615 50.1928 337.004 48.4163 338.556 46.9358C340.109 45.4553 341.641 44.6827 343.154 44.618C345.977 44.4971 347.981 45.3204 349.168 47.0876C350.456 48.8506 351.241 50.6856 351.525 52.5925C351.783 53.8945 351.753 55.5624 351.436 57.596C351.119 59.63 350.441 61.477 349.401 63.137C349.712 63.326 350.126 63.561 350.643 63.842C351.155 64.022 351.966 64.088 353.075 64.041C354.688 63.972 355.793 63.823 356.389 63.596C357.087 63.364 358.141 63.218 359.552 63.157C361.266 63.084 362.697 63.477 363.845 64.337C364.988 65.096 365.941 66.116 366.703 67.396C367.46 68.576 368.023 69.916 368.39 71.415C368.854 72.809 369.162 74.109 369.314 75.315C369.725 77.822 369.182 80.471 367.685 83.263C366.188 86.054 364.35 89.112 362.169 92.437C360.844 94.514 359.529 96.843 358.226 99.424C356.922 102.005 356.414 104.299 356.702 106.307C356.96 107.609 357.358 108.652 357.897 109.437C358.435 110.222 359.864 110.565 362.183 110.466C363.897 110.393 365.736 109.708 367.701 108.412C369.762 107.011 371.81 105.307 373.845 103.301C375.977 101.189 378.052 98.929 380.07 96.52C382.083 94.009 383.95 91.606 385.67 89.311C387.386 86.914 388.809 84.783 389.942 82.916C391.175 81.045 392.076 79.694 392.647 78.861C393.116 78.033 393.748 77.45 394.541 77.113C395.335 76.777 396.041 76.746 396.659 77.023C397.276 77.299 397.655 77.889 397.795 78.792C398.035 79.691 397.734 80.916 396.892 82.467C396.33 83.501 395.34 85.16 393.923 87.442C392.606 89.721 390.948 92.266 388.947 95.079C387.047 97.888 384.9 100.808 382.504 103.839C380.105 106.77 377.545 109.506 374.826 112.046C372.203 114.481 369.512 116.516 366.754 118.149C364.097 119.778 361.508 120.646 358.987 120.754C356.366 120.866 354.177 120.455 352.42 119.52C350.663 118.585 349.199 117.435 348.03 116.071C346.957 114.602 346.132 113.022 345.554 111.329C345.073 109.532 344.851 107.875 344.887 106.358C344.936 105.144 345.185 103.871 345.633 102.539C346.177 101.101 346.772 99.662 347.417 98.22C348.159 96.673 348.903 95.177 349.649 93.731C350.492 92.18 351.236 90.683 351.881 89.242C353.47 86.245 354.725 83.716 355.647 81.657C356.666 79.492 357.145 77.704 357.084 76.292C357.045 75.385 356.809 74.587 356.376 73.899C355.942 73.21 355.272 72.885 354.365 72.924C353.76 72.95 353.308 73.02 353.01 73.134C352.808 73.142 352.556 73.153 352.254 73.166C352.052 73.175 351.701 73.24 351.202 73.363C350.798 73.38 350.143 73.408 349.236 73.447C347.925 73.503 346.807 73.349 345.883 72.984C344.958 72.62 344.088 72.354 343.273 72.187C342.9 72.91 342.057 74.461 340.745 76.84C339.433 79.22 337.886 82.013 336.104 85.22C334.423 88.423 332.597 91.784 330.627 95.302C328.757 98.817 326.98 102.125 325.294 105.227C323.605 108.228 322.2 110.814 321.081 112.983C319.857 115.055 319.102 116.299 318.817 116.716ZM397.474 57.1407C397.952 56.5142 398.889 55.9691 400.283 55.5055C401.677 55.0418 403.126 54.6767 404.63 54.4104C406.129 54.0432 407.484 53.8337 408.693 53.7819C410 53.625 410.756 53.5927 410.962 53.6849C411.067 53.7814 410.86 54.8508 410.342 56.893C409.823 58.935 409.168 61.337 408.377 64.098C407.587 66.859 406.75 69.723 405.866 72.69C404.979 75.556 404.322 77.907 403.896 79.743C403.469 81.58 402.953 83.672 402.346 86.021C401.736 88.27 401.175 90.516 400.665 92.76C400.252 94.898 399.985 96.93 399.865 98.854C399.746 100.778 399.96 102.234 400.507 103.22C401.063 104.408 401.654 105.242 402.28 105.72C402.903 106.097 403.567 106.271 404.272 106.241C406.289 106.154 408.762 104.937 411.691 102.59C414.722 100.238 417.735 97.483 420.731 94.325C423.823 91.061 426.664 87.809 429.252 84.567C431.836 81.224 433.743 78.567 434.971 76.595C435.735 75.553 436.513 74.863 437.307 74.526C438.201 74.184 438.909 74.205 439.43 74.586C440.053 74.964 440.383 75.606 440.422 76.513C440.562 77.417 440.304 78.488 439.65 79.728C438.158 82.62 435.933 86.099 432.976 90.165C430.015 94.129 426.848 98.002 423.474 101.783C420.097 105.462 416.748 108.636 413.428 111.303C410.209 113.966 407.543 115.393 405.43 115.584C403.72 115.759 401.993 115.53 400.249 114.897C398.61 114.361 397.061 113.569 395.602 112.52C394.24 111.367 393.073 110.053 392.1 108.58C391.124 107.005 390.549 105.363 390.375 103.654C389.964 101.146 389.818 97.718 389.934 93.37C390.047 88.921 390.41 84.411 391.022 79.84C391.63 75.168 392.45 70.739 393.483 66.553C394.617 62.364 395.947 59.226 397.474 57.1407ZM422.695 19.8514C423.572 19.1069 424.582 19.1141 425.726 19.8732C426.869 20.6323 427.728 21.8076 428.301 23.3992C429.097 25.4862 429.217 27.0971 428.659 28.232C428.097 29.2661 427.229 30.2123 426.054 31.0706C425.47 31.6006 424.341 32.356 422.666 33.3367C421.092 34.3131 419.318 35.3486 417.345 36.443C415.468 37.4324 413.589 38.3713 411.708 39.2599C409.823 40.0476 408.378 40.5134 407.374 40.6574C406.269 40.8057 405.408 40.7415 404.79 40.465C404.168 40.0876 403.645 39.6555 403.22 39.1686C402.896 38.6775 402.67 38.1316 402.544 37.531C402.413 36.8296 402.336 36.2268 402.315 35.7227C409.946 29.9419 415.274 25.8252 418.3 23.3726C420.059 21.9843 421.524 20.8106 422.695 19.8514ZM460.925 24.5785C459.672 30.6924 458.206 36.5628 456.528 42.1899C454.946 47.7118 453.25 52.9355 451.441 57.8612C449.728 62.682 447.948 67.101 446.1 71.119C444.353 75.133 442.785 78.634 441.398 81.623C440.701 88.925 440.951 94.773 442.149 99.165C443.347 103.558 445.408 105.692 448.332 105.567C450.751 105.463 453.073 104.253 455.297 101.936C457.521 99.619 459.471 96.808 461.148 93.504C462.825 90.2 464.19 86.708 465.245 83.026C466.396 79.24 467.06 75.878 467.237 72.942C465.3 72.52 463.65 71.732 462.288 70.578C460.921 69.323 460.192 67.638 460.102 65.52C460.041 64.109 460.389 62.781 461.143 61.537C461.894 60.191 462.804 59.041 463.874 58.0866C464.944 57.1317 466.124 56.3742 467.413 55.814C468.702 55.2539 469.901 54.95 471.01 54.9026C472.724 54.8292 474.234 55.8757 475.538 58.0419C476.839 60.107 477.762 62.795 478.307 66.105C482.336 65.831 486.544 65.045 490.933 63.746C495.322 62.447 499.445 60.857 503.304 58.975C504.391 58.4231 505.292 58.2331 506.006 58.4045C506.721 58.576 507.192 58.96 507.419 59.556C507.748 60.148 507.778 60.854 507.51 61.673C507.238 62.392 506.656 62.972 505.766 63.414C503.504 64.824 501.136 66.138 498.663 67.355C496.286 68.466 493.903 69.427 491.514 70.236C489.124 71.045 486.829 71.699 484.628 72.197C482.428 72.696 480.42 72.984 478.605 73.061C478.374 77.111 477.302 81.551 475.388 86.38C473.469 91.108 471.083 95.553 468.231 99.716C465.375 103.777 462.138 107.198 458.52 109.979C455.003 112.756 451.48 114.22 447.951 114.371C446.842 114.418 445.374 114.329 443.546 114.105C441.718 113.88 439.909 112.897 438.117 111.155C436.325 109.414 434.74 106.603 433.362 102.723C431.98 98.742 431.232 93.067 431.119 85.699C431.008 80.754 431.338 75.488 432.109 69.9C432.88 64.312 433.852 58.715 435.027 53.1095C436.201 47.504 437.535 42.0937 439.029 36.8786C440.619 31.5583 442.132 26.7969 443.569 22.5942C445 18.2908 446.311 14.6996 447.501 11.8205C448.792 8.93718 449.773 7.07708 450.444 6.24038C451.304 5.09248 452.328 4.24068 453.516 3.68478C454.7 3.02808 455.842 2.57518 456.943 2.32608C458.14 1.97188 459.244 1.82358 460.257 1.88128C461.269 1.93888 461.981 2.05997 462.393 2.24427C463.016 2.62167 463.262 4.83327 463.132 8.87897C463.103 12.9204 462.367 18.1536 460.925 24.5785ZM561.435 75.577C558.6 80.142 555.358 84.624 551.708 89.022C548.054 93.32 544.13 97.225 539.937 100.737C535.841 104.145 531.568 106.954 527.117 109.164C522.767 111.371 518.475 112.564 514.241 112.746C512.023 112.841 509.579 112.39 506.911 111.393C504.347 110.492 501.959 108.979 499.747 106.851C497.535 104.724 495.698 101.924 494.236 98.451C492.875 94.974 492.339 90.705 492.628 85.642C492.854 81.491 493.929 77.102 495.852 72.475C497.871 67.742 500.362 63.393 503.323 59.428C506.385 55.4592 509.829 52.1302 513.653 49.4414C517.578 46.7483 521.556 45.3155 525.589 45.1429C529.42 44.979 532.234 45.8181 534.03 47.6603C535.826 49.5025 536.683 51.8394 536.602 54.671C536.434 57.8093 535.649 60.721 534.249 63.407C532.95 66.089 531.337 68.532 529.412 70.735C527.486 72.939 525.4 74.947 523.155 76.76C521.01 78.569 518.96 80.222 517.004 81.72C514.85 83.327 512.796 84.88 510.84 86.378C508.879 87.775 507.167 89.06 505.702 90.234C505.911 92.75 506.455 94.848 507.335 96.527C508.215 98.206 509.284 99.575 510.541 100.632C511.794 101.588 513.187 102.286 514.721 102.726C516.351 103.06 517.973 103.193 519.586 103.124C523.014 102.977 526.548 101.765 530.188 99.488C533.823 97.111 537.34 94.334 540.74 91.158C544.235 87.878 547.424 84.509 550.306 81.052C553.289 77.592 555.737 74.608 557.65 72.102C558.321 71.266 559.008 70.782 559.709 70.651C560.507 70.415 561.116 70.489 561.537 70.875C562.054 71.156 562.332 71.75 562.371 72.658C562.405 73.464 562.093 74.437 561.435 75.577ZM521.724 53.9442C520.514 53.996 519.078 54.6634 517.416 55.9466C515.854 57.2255 514.317 59.059 512.803 61.447C511.285 63.734 509.891 66.571 508.622 69.958C507.349 73.245 506.45 77.021 505.925 81.285C507.096 80.326 508.368 79.363 509.741 78.395C511.109 77.326 512.475 76.207 513.839 75.038C518.032 71.525 520.931 68.472 522.537 65.878C524.143 63.284 525.008 61.076 525.132 59.252C525.252 57.3283 524.992 55.9759 524.353 55.1952C523.709 54.3137 522.833 53.8967 521.724 53.9442ZM628.503 70.888C629.174 70.051 629.863 69.618 630.568 69.588C631.371 69.452 631.984 69.628 632.409 70.115C632.93 70.497 633.16 71.143 633.098 72.055C633.137 72.962 632.777 73.988 632.018 75.131C630.214 77.835 628.113 80.652 625.713 83.582C623.309 86.412 620.701 89.201 617.89 91.947C615.179 94.689 612.411 97.282 609.587 99.726C606.762 102.17 604.021 104.207 601.364 105.835C598.413 107.679 595.878 108.646 593.761 108.736C591.745 108.823 589.672 107.598 587.544 105.063C585.63 102.822 584.617 100.391 584.505 97.77C584.489 95.043 584.949 91.64 585.886 87.56C586.484 85.009 587.314 81.994 588.377 78.514C589.537 74.929 590.4 71.509 590.968 68.252C591.637 64.992 591.772 62.259 591.375 60.054C590.973 57.7477 589.613 56.6444 587.294 56.7436C585.681 56.8127 583.94 57.4427 582.072 58.634C580.305 59.82 578.502 61.362 576.664 63.259C574.923 65.05 573.243 67.092 571.624 69.383C570.005 71.675 568.585 73.907 567.365 76.08C566.727 80.047 566.087 83.963 565.444 87.828C564.876 91.085 564.271 94.646 563.629 98.512C563.082 102.272 562.519 105.629 561.939 108.583C561.355 109.113 560.715 109.494 560.018 109.726C559.321 109.958 558.67 110.087 558.065 110.113C557.359 110.143 556.651 110.123 555.941 110.052C555.126 109.885 554.357 109.615 553.634 109.242C553.012 108.864 552.383 108.336 551.748 107.656C551.117 107.077 550.627 106.239 550.277 105.143C554.015 86.297 556.954 71.173 559.092 59.769C561.23 48.3647 562.877 39.6584 564.034 33.6497C565.345 26.5233 566.245 21.5861 566.733 18.8381C566.954 16.9096 567.126 15.0336 567.25 13.2103C567.383 11.5885 567.412 9.92068 567.339 8.20678C567.266 6.49278 567.048 4.93657 566.685 3.53807C567.47 2.99947 568.309 2.55947 569.204 2.21817C570.199 1.87257 571.146 1.57957 572.045 1.33907C573.141 0.989173 574.239 0.689674 575.339 0.440574C576.44 0.191474 577.444 0.0474745 578.351 0.00867446C579.158 -0.0258255 579.918 0.042573 580.632 0.214073C581.342 0.284673 581.809 0.567675 582.032 1.06318C582.659 1.54138 582.954 2.53877 582.918 4.05537C582.983 5.56767 582.949 7.13467 582.816 8.75637C582.495 10.6893 582.13 12.7755 581.72 15.0151C579.953 23.272 577.924 31.3381 575.635 39.2134C573.342 46.9878 571.274 55.3082 569.431 64.174C570.656 62.102 572.13 59.968 573.854 57.7733C575.578 55.5785 577.462 53.5788 579.506 51.7742C581.646 49.8646 583.903 48.3034 586.275 47.0909C588.643 45.7775 591.188 45.0625 593.91 44.946C595.321 44.8856 596.643 45.0816 597.874 45.5339C599.202 45.8811 600.343 46.5898 601.298 47.6599C602.35 48.625 603.166 50.0041 603.748 51.7973C604.325 53.4896 604.62 55.6486 604.631 58.2742C604.7 59.887 604.57 61.559 604.24 63.291C604.011 65.018 603.639 66.953 603.125 69.096C602.606 71.138 601.897 73.441 600.996 76.004C600.197 78.564 599.213 81.535 598.045 84.918C597.236 87.276 596.615 89.272 596.18 90.907C595.745 92.541 595.906 93.948 596.664 95.128C597.64 96.702 599.422 97.03 602.008 96.111C604.692 95.088 608.612 92.294 613.77 87.73C614.937 86.67 616.244 85.351 617.691 83.774C619.139 82.197 620.536 80.622 621.883 79.05C623.225 77.376 624.471 75.808 625.621 74.345C626.77 72.881 627.731 71.729 628.503 70.888Z" fill="#0C2460" fill-opacity="0.07"/>
</svg>
