<svg width="793" height="191" viewBox="0 0 793 191" fill="none" xmlns="http://www.w3.org/2000/svg">
<path d="M4.58748 151.625C4.86449 151.398 5.31425 151.021 5.93675 150.492C6.48771 149.967 7.16339 149.006 7.9638 147.61C8.69266 146.217 9.50281 144.211 10.3943 141.592C11.2857 138.974 12.1731 135.423 13.0565 130.942C13.5279 128.556 14.1505 125.519 14.9245 121.83C15.6984 118.141 16.5332 114.199 17.4289 110.003C18.3961 105.804 19.3586 101.498 20.3166 97.0845C21.2716 92.5994 22.2014 88.3664 23.1063 84.3852C24.008 80.3325 24.8193 76.678 25.5401 73.4215C26.2609 70.1651 26.8334 67.6318 27.2577 65.8216C25.935 66.7384 24.6527 67.7609 23.4108 68.8893C22.3058 69.8684 21.1354 70.9937 19.8995 72.2652C18.6607 73.4651 17.4606 74.735 16.2994 76.0749C15.3356 75.3277 14.5833 74.4997 14.0427 73.591C13.7381 73.174 13.4678 72.7196 13.2317 72.228C12.7565 71.1731 12.4944 70.0733 12.4454 68.9285C12.3964 67.7837 13.2402 66.5649 14.9769 65.272C15.8795 64.5882 17.2349 63.5984 19.0431 62.3024C20.9229 61.0034 23.2334 59.7218 25.9749 58.4576C28.7132 57.1218 31.9243 55.9451 35.6081 54.9272C39.2919 53.9094 43.3876 53.304 47.8952 53.1111C52.4028 52.9182 56.0543 53.6579 58.8497 55.3303C61.7167 56.9996 63.9208 59.0915 65.462 61.606C67.0748 64.1175 68.1571 66.795 68.7088 69.6386C69.2606 72.4822 69.4751 74.9818 69.3523 77.1375C69.0945 81.1626 67.9858 85.4034 66.0261 89.8597C64.0664 94.3161 61.2701 98.4857 57.6373 102.369C54.0013 106.18 49.5196 109.49 44.1921 112.298C38.8646 115.107 32.7026 116.84 25.7061 117.498C25.2501 120.241 24.7971 123.056 24.3472 125.942C23.8973 128.829 23.4101 131.681 22.8856 134.499C22.358 137.246 21.787 139.815 21.1726 142.206C20.6327 144.667 20.0418 146.771 19.3998 148.518C18.7639 150.409 17.8966 151.916 16.7977 153.038C15.7019 154.232 13.9019 154.882 11.3977 154.99C10.1098 155.045 8.91549 154.773 7.81469 154.175C6.64235 153.58 5.56661 152.73 4.58748 151.625ZM27.9287 101.597C27.763 102.751 27.5411 104.266 27.263 106.141C27.0534 107.942 26.7829 109.997 26.4516 112.305C28.3711 111.936 30.4962 111.343 32.8267 110.527C35.1541 109.639 37.4708 108.5 39.7768 107.111C42.0828 105.722 44.3066 104.086 46.448 102.202C48.658 100.244 50.6426 98.0445 52.4018 95.6038C54.158 93.0915 55.5799 90.3068 56.6676 87.2497C57.8239 84.1179 58.5012 80.6841 58.6997 76.9483C58.9044 73.3555 58.5626 70.3954 57.6746 68.068C56.855 65.6659 55.699 63.78 54.2068 62.4103C52.7115 60.969 51.0215 60.002 49.1367 59.5092C47.2489 58.9449 45.3748 58.7025 43.5146 58.7821C41.7258 58.8587 39.9836 59.1841 38.2878 59.7585C36.5921 60.3328 34.9025 61.0502 33.219 61.9108C33.4367 61.9731 33.6948 62.1413 33.9932 62.4152C34.4409 62.8262 34.7889 63.4205 35.0372 64.1984C33.6171 71.2122 32.4341 77.0689 31.4884 81.7686C30.6142 86.4652 29.9179 90.294 29.3995 93.2551C28.7594 96.7231 28.2692 99.5038 27.9287 101.597ZM117.812 109.04C115.8 112.28 113.499 115.461 110.909 118.582C108.315 121.632 105.531 124.403 102.555 126.896C99.6482 129.314 96.6154 131.308 93.4569 132.877C90.37 134.442 87.324 135.289 84.319 135.418C82.7449 135.485 81.0109 135.165 79.1169 134.458C77.2976 133.819 75.6029 132.745 74.033 131.235C72.4631 129.725 71.1595 127.738 70.1222 125.274C69.1565 122.806 68.7759 119.776 68.9805 116.183C69.1412 113.237 69.9039 110.123 71.2686 106.839C72.7018 103.48 74.4693 100.394 76.5709 97.58C78.7441 94.7631 81.1877 92.4006 83.9015 90.4924C86.6869 88.5812 89.5106 87.5644 92.3726 87.4419C95.0915 87.3255 97.0881 87.921 98.3627 89.2284C99.6372 90.5358 100.246 92.1942 100.188 94.2037C100.069 96.4309 99.512 98.4977 98.5184 100.404C97.5963 102.307 96.4519 104.04 95.0853 105.604C93.7186 107.168 92.2385 108.593 90.6449 109.88C89.1229 111.164 87.6678 112.337 86.2797 113.4C84.7515 114.541 83.2934 115.642 81.9053 116.705C80.5141 117.697 79.2988 118.609 78.2592 119.442C78.4073 121.227 78.7936 122.716 79.418 123.908C80.0425 125.1 80.8008 126.071 81.6931 126.821C82.5823 127.5 83.5712 127.995 84.6598 128.307C85.8168 128.544 86.9677 128.638 88.1125 128.589C90.5452 128.485 93.053 127.625 95.636 126.01C98.216 124.322 100.712 122.352 103.124 120.098C105.605 117.77 107.868 115.379 109.914 112.926C112.031 110.47 113.768 108.353 115.126 106.574C115.602 105.981 116.089 105.637 116.587 105.544C117.153 105.377 117.585 105.43 117.884 105.704C118.251 105.903 118.448 106.325 118.476 106.969C118.5 107.541 118.279 108.231 117.812 109.04ZM89.6293 93.688C88.7707 93.7247 87.7517 94.1984 86.5721 95.109C85.464 96.0166 84.3728 97.3177 83.2985 99.0124C82.2211 100.635 81.232 102.649 80.3314 105.053C79.4277 107.385 78.7897 110.065 78.4175 113.091C79.2485 112.411 80.1511 111.727 81.1252 111.04C82.0963 110.282 83.0658 109.488 84.0338 108.658C87.0094 106.165 89.0671 103.998 90.2069 102.157C91.3466 100.317 91.9605 98.7492 92.0485 97.4552C92.1334 96.0896 91.949 95.1298 91.4952 94.5758C91.0383 93.9502 90.4164 93.6543 89.6293 93.688ZM129.128 127.264C131.347 127.169 133.742 126.206 136.316 124.376C138.959 122.471 141.481 120.284 143.884 117.816C146.359 115.345 148.582 112.848 150.553 110.327C152.592 107.731 154.116 105.658 155.125 104.11C155.729 103.152 156.314 102.59 156.881 102.422C157.444 102.183 157.876 102.236 158.178 102.581C158.479 102.927 158.611 103.495 158.573 104.285C158.532 105.003 158.246 105.84 157.713 106.795C157.249 107.675 156.444 108.964 155.298 110.661C154.221 112.284 152.9 114.097 151.337 116.099C149.843 118.027 148.101 120.037 146.112 122.129C144.191 124.146 142.157 126.026 140.01 127.766C137.859 129.435 135.624 130.821 133.306 131.924C130.991 133.098 128.689 133.734 126.399 133.832C123.251 133.967 120.578 133.472 118.379 132.348C116.255 131.292 114.509 129.861 113.142 128.056C111.846 126.248 110.9 124.245 110.304 122.049C109.705 119.78 109.359 117.537 109.264 115.319C109.169 113.101 109.552 110.325 110.412 106.991C111.273 103.657 112.605 100.446 114.409 97.3583C116.28 94.196 118.673 91.4773 121.586 89.2022C124.496 86.8556 127.99 85.595 132.069 85.4204C134.358 85.3224 136.324 86.0268 137.965 87.5335C139.678 89.0372 140.557 91.15 140.602 93.8719C140.657 95.1598 140.497 96.4568 140.123 97.7631C139.746 98.9978 139.221 100.131 138.548 101.164C137.873 102.124 137.046 102.912 136.069 103.528C135.163 104.14 134.138 104.47 132.993 104.519C132.063 104.559 131.334 104.268 130.806 103.645C130.346 102.948 130.026 102.173 129.846 101.321C129.735 100.394 129.696 99.4996 129.731 98.6379C129.838 97.7732 129.956 97.1947 130.087 96.9024C130.423 96.3862 130.802 96.0116 131.222 95.7786C131.642 95.5456 132.132 95.2737 132.692 94.9631C133.112 94.73 133.42 94.3943 133.617 93.9558C133.884 93.5143 134.008 93.0431 133.986 92.5422C133.965 92.0414 133.803 91.6182 133.502 91.2727C133.2 90.9272 132.728 90.7682 132.084 90.7958C131.44 90.8234 130.282 91.4105 128.611 92.5572C127.008 93.6294 125.357 95.2411 123.657 97.3926C122.025 99.4695 120.596 102.075 119.368 105.21C118.14 108.345 117.578 111.953 117.681 116.034C117.71 118.399 118.115 120.317 118.895 121.788C119.675 123.26 120.619 124.403 121.729 125.215C122.839 126.028 124.046 126.586 125.349 126.888C126.652 127.191 127.912 127.316 129.128 127.264ZM198.626 105.581C196.615 108.821 194.314 112.002 191.723 115.123C189.13 118.173 186.345 120.945 183.37 123.437C180.463 125.856 177.43 127.849 174.272 129.418C171.185 130.984 168.139 131.831 165.134 131.959C163.56 132.027 161.826 131.707 159.932 130.999C158.112 130.36 156.418 129.286 154.848 127.776C153.278 126.266 151.974 124.279 150.937 121.815C149.971 119.347 149.591 116.317 149.795 112.725C149.956 109.779 150.719 106.664 152.083 103.38C153.517 100.021 155.284 96.9351 157.386 94.1213C159.559 91.3044 162.002 88.9419 164.716 87.0338C167.502 85.1225 170.325 84.1057 173.187 83.9832C175.906 83.8668 177.903 84.4623 179.177 85.7697C180.452 87.0771 181.06 88.7355 181.003 90.745C180.883 92.9722 180.327 95.039 179.333 96.9452C178.411 98.8483 177.267 100.582 175.9 102.146C174.533 103.709 173.053 105.135 171.46 106.421C169.938 107.705 168.482 108.878 167.094 109.941C165.566 111.082 164.108 112.184 162.72 113.247C161.329 114.238 160.113 115.15 159.074 115.983C159.222 117.769 159.608 119.258 160.233 120.449C160.857 121.641 161.616 122.612 162.508 123.363C163.397 124.041 164.386 124.537 165.474 124.848C166.631 125.086 167.782 125.18 168.927 125.131C171.36 125.027 173.868 124.167 176.451 122.551C179.031 120.863 181.527 118.893 183.939 116.639C186.42 114.311 188.683 111.92 190.729 109.467C192.846 107.011 194.583 104.894 195.94 103.116C196.417 102.522 196.904 102.178 197.401 102.085C197.968 101.918 198.4 101.971 198.699 102.245C199.065 102.444 199.263 102.866 199.29 103.51C199.315 104.082 199.093 104.773 198.626 105.581ZM170.444 90.2293C169.585 90.266 168.566 90.7397 167.387 91.6503C166.279 92.5579 165.188 93.859 164.113 95.5537C163.036 97.1767 162.047 99.1903 161.146 101.594C160.242 103.927 159.604 106.606 159.232 109.633C160.063 108.952 160.966 108.268 161.94 107.581C162.911 106.823 163.881 106.029 164.849 105.199C167.824 102.706 169.882 100.539 171.022 98.6986C172.161 96.8579 172.775 95.2905 172.863 93.9965C172.948 92.6309 172.764 91.6711 172.31 91.1171C171.853 90.4915 171.231 90.1956 170.444 90.2293ZM241.656 121.158C241.592 119.655 241.661 117.932 241.865 115.988C242.14 114.041 242.485 112.055 242.9 110.03C243.312 107.934 243.727 105.909 244.145 103.956C244.563 102.002 244.919 100.267 245.213 98.749C245.562 96.8704 245.465 95.4409 244.922 94.4607C244.378 93.4804 243.498 93.0163 242.282 93.0684C241.709 93.0929 240.586 93.6427 238.911 94.7179C237.309 95.79 235.559 97.621 233.663 100.211C231.835 102.726 230.046 106.136 228.295 110.44C226.612 114.67 225.372 120.027 224.574 126.512C223.245 127.286 221.977 127.806 220.77 128.073C220.133 128.244 219.565 128.375 219.067 128.468C217.639 128.601 216.698 128.391 216.244 127.837C215.794 127.354 215.81 126.063 216.294 123.964C216.537 122.95 216.969 121.318 217.589 119.07C218.282 116.818 218.93 114.389 219.536 111.783C220.138 109.105 220.634 106.467 221.025 103.87C221.484 101.198 221.672 98.8964 221.589 96.9645C221.531 95.6051 221.241 94.6857 220.719 94.2063C220.268 93.7238 219.613 93.5009 218.755 93.5377C218.111 93.5652 217.053 93.9689 215.581 94.7487C214.109 95.5285 212.487 96.9957 210.716 99.1502C208.944 101.305 207.208 104.282 205.507 108.082C203.874 111.808 202.54 116.632 201.503 122.554L201.494 122.339C201.375 122.918 201.257 123.496 201.138 124.075C201.016 124.582 200.932 125.123 200.885 125.698C200.838 126.274 200.754 126.815 200.632 127.322L195.367 129.913C195.015 130.071 194.555 130.198 193.985 130.294C193.488 130.387 192.982 130.302 192.469 130.037C192.031 129.841 191.687 129.353 191.439 128.576C191.19 127.798 191.212 126.614 191.502 125.025L197.064 96.7239C197.239 95.7846 197.38 94.8826 197.486 94.0178C197.596 93.2247 197.635 92.4703 197.604 91.7549C197.642 90.9648 197.579 90.3223 197.414 89.8276C198.606 89.2032 199.661 88.7279 200.579 88.4019C201.497 88.0759 202.239 87.8291 202.805 87.6615C203.512 87.4163 204.115 87.2829 204.616 87.2615C206.906 87.1635 207.741 89.0989 207.122 93.0678C206.885 94.2249 206.528 95.9246 206.05 98.1672C207.336 96.3918 208.698 94.7207 210.137 93.1539C211.643 91.5124 213.158 90.0498 214.68 88.7661C216.202 87.4824 217.735 86.4492 219.278 85.6663C220.893 84.8804 222.488 84.4537 224.062 84.3864C225.278 84.3343 226.295 84.6492 227.113 85.331C228.002 86.0097 228.687 86.9481 229.168 88.1461C229.718 89.2694 230.064 90.6524 230.206 92.2949C230.345 93.866 230.344 95.5146 230.203 97.241C231.283 95.6895 232.471 94.1334 233.766 92.5727C235.13 90.9373 236.537 89.4793 237.987 88.1987C239.509 86.915 241.076 85.8444 242.688 84.987C244.3 84.1295 245.929 83.6655 247.575 83.5951C249.506 83.5124 250.998 84.022 252.048 85.124C253.171 86.2228 253.949 87.6589 254.383 89.4324C254.889 91.2027 255.079 93.13 254.953 95.2141C254.899 97.2951 254.698 99.3107 254.352 101.261L251.323 115.906C250.689 119.517 251.517 121.274 253.806 121.176C255.595 121.099 257.526 120.156 259.599 118.347C261.672 116.538 263.66 114.41 265.562 111.963C267.536 109.513 269.364 106.998 271.045 104.417C272.727 101.836 274.143 99.7688 275.295 98.2142C275.703 97.695 276.12 97.3904 276.547 97.3005C277.044 97.2075 277.442 97.298 277.741 97.5719C278.108 97.7713 278.304 98.1571 278.328 98.7295C278.424 99.2988 278.276 100.022 277.883 100.899C276.559 103.464 274.926 106.33 272.983 109.495C271.036 112.589 268.868 115.513 266.477 118.268C264.157 121.019 261.641 123.349 258.927 125.257C256.213 127.165 253.354 128.184 250.349 128.312C249.347 128.355 248.341 128.291 247.33 128.119C246.39 127.944 245.479 127.589 244.596 127.053C243.785 126.515 243.109 125.791 242.568 124.882C242.024 123.902 241.72 122.66 241.656 121.158ZM318.399 100.455C316.388 103.695 314.087 106.876 311.496 109.997C308.903 113.047 306.119 115.819 303.143 118.311C300.236 120.73 297.203 122.723 294.045 124.292C290.958 125.858 287.912 126.705 284.907 126.833C283.333 126.901 281.599 126.581 279.705 125.873C277.885 125.234 276.191 124.16 274.621 122.65C273.051 121.14 271.747 119.153 270.71 116.689C269.744 114.221 269.364 111.191 269.568 107.599C269.729 104.653 270.492 101.538 271.856 98.2538C273.29 94.8952 275.057 91.809 277.159 88.9952C279.332 86.1784 281.776 83.8159 284.489 81.9077C287.275 79.9965 290.098 78.9796 292.96 78.8572C295.679 78.7408 297.676 79.3363 298.951 80.6437C300.225 81.9511 300.834 83.6095 300.776 85.619C300.657 87.8462 300.1 89.9129 299.106 91.8191C298.184 93.7223 297.04 95.4557 295.673 97.0195C294.306 98.5833 292.826 100.009 291.233 101.295C289.711 102.579 288.256 103.752 286.868 104.815C285.339 105.956 283.881 107.058 282.493 108.121C281.102 109.112 279.887 110.024 278.847 110.857C278.995 112.643 279.381 114.132 280.006 115.323C280.63 116.515 281.389 117.486 282.281 118.237C283.17 118.915 284.159 119.411 285.248 119.722C286.405 119.96 287.556 120.054 288.7 120.005C291.133 119.901 293.641 119.041 296.224 117.425C298.804 115.737 301.3 113.767 303.712 111.513C306.193 109.185 308.456 106.794 310.502 104.341C312.619 101.885 314.356 99.7681 315.713 97.9897C316.19 97.3958 316.677 97.0524 317.175 96.9594C317.741 96.7919 318.173 96.845 318.472 97.119C318.839 97.3183 319.036 97.74 319.063 98.3839C319.088 98.9563 318.867 99.6467 318.399 100.455ZM290.217 85.1032C289.359 85.14 288.34 85.6137 287.16 86.5243C286.052 87.4319 284.961 88.733 283.886 90.4276C282.809 92.0507 281.82 94.0642 280.919 96.4682C280.016 98.8007 279.378 101.48 279.005 104.507C279.836 103.826 280.739 103.142 281.713 102.455C282.684 101.697 283.654 100.903 284.622 100.073C287.597 97.5802 289.655 95.4134 290.795 93.5726C291.935 91.7318 292.548 90.1644 292.636 88.8704C292.721 87.5049 292.537 86.5451 292.083 85.991C291.626 85.3655 291.004 85.0695 290.217 85.1032ZM373.467 103.367C372.868 106.116 372.011 108.698 370.895 111.111C369.78 113.524 368.4 115.626 366.757 117.417C365.185 119.204 363.345 120.609 361.239 121.631C359.207 122.722 356.938 123.32 354.434 123.428C351.501 123.553 349.148 123.009 347.375 121.794C345.678 120.648 344.36 119.164 343.422 117.34C342.555 115.514 342.003 113.494 341.765 111.282C341.455 109.074 341.259 107.003 341.176 105.071C341.118 103.712 341.233 102.202 341.52 100.541C341.736 98.883 342.093 97.1832 342.592 95.4416C343.091 93.6999 343.733 91.9521 344.518 90.1982C345.375 88.4412 346.38 86.8212 347.536 85.3381C347.913 84.1034 348.511 83.0026 349.33 82.0357C350.22 81.0658 351.225 80.2701 352.345 79.6487C353.534 78.9527 354.802 78.4325 356.149 78.0882C357.494 77.6722 358.81 77.4367 360.097 77.3816C360.312 77.3724 360.492 77.4005 360.639 77.466C360.856 77.5283 361.074 77.5907 361.292 77.653C362.225 77.6848 363.385 77.9935 364.772 78.5793C366.231 79.162 367.631 80.0697 368.974 81.3025C370.389 82.5322 371.604 84.1288 372.62 86.0924C373.633 87.9844 374.199 90.3256 374.318 93.1161C374.343 93.6884 374.338 94.4055 374.303 95.2671C374.265 96.0572 374.223 96.74 374.176 97.3155C375.794 96.6011 377.477 95.7405 379.226 94.7339C380.975 93.7272 382.651 92.6878 384.254 91.6156C385.925 90.4689 387.453 89.3283 388.838 88.1938C390.223 87.0594 391.327 86.0444 392.148 85.1491C392.836 84.4745 393.429 84.0908 393.927 83.9978C394.425 83.9048 394.789 84.0326 395.019 84.3812C395.248 84.7297 395.306 85.229 395.19 85.8791C395.075 86.5292 394.712 87.2615 394.101 88.0761C393.762 88.5207 392.869 89.4191 391.421 90.7713C390.045 92.1204 388.388 93.5891 386.449 95.1774C384.51 96.7656 382.39 98.3258 380.09 99.8578C377.791 101.39 375.583 102.56 373.467 103.367ZM354.631 87.83C354.444 88.4831 354.366 89.1674 354.396 89.8829C354.445 91.0277 354.569 92.241 354.767 93.5227C354.962 94.7329 355.367 95.8266 355.983 96.8038C356.598 97.781 357.529 98.6013 358.776 99.2648C360.092 99.8536 361.858 100.101 364.076 100.006C364.434 99.9903 364.792 99.975 365.15 99.9597C365.504 99.8728 365.859 99.786 366.214 99.6991C366.388 98.7598 366.532 97.9293 366.645 97.2077C366.825 96.4115 366.904 95.7271 366.879 95.1548C366.964 93.7892 366.904 92.394 366.7 90.9691C366.496 89.5443 366.154 88.2686 365.676 87.1422C365.266 85.9412 364.724 84.9967 364.05 84.3088C363.444 83.5463 362.711 83.1834 361.853 83.2201C360.493 83.2783 359.186 83.7284 357.932 84.5706C356.746 85.3382 355.646 86.4246 354.631 87.83ZM348.571 107.013C348.626 108.301 348.752 109.586 348.951 110.867C349.146 112.078 349.48 113.174 349.952 114.158C350.421 115.069 351.027 115.832 351.77 116.445C352.51 116.987 353.452 117.233 354.597 117.184C355.885 117.129 357.053 116.793 358.102 116.174C359.148 115.484 360.08 114.656 360.899 113.689C361.714 112.651 362.418 111.51 363.01 110.266C363.67 108.947 364.222 107.597 364.665 106.217C364.167 106.31 363.669 106.403 363.171 106.496C362.742 106.514 362.241 106.535 361.669 106.56C358.95 106.676 356.555 105.99 354.484 104.502C352.482 102.939 350.891 100.928 349.71 98.47C349.345 99.9909 349.05 101.473 348.825 102.916C348.6 104.359 348.516 105.725 348.571 107.013ZM418.932 97.9804C418.67 100.214 418.402 102.34 418.13 104.358C417.93 106.374 417.82 107.992 417.8 109.211C417.805 111.003 418.182 112.277 418.932 113.033C419.681 113.79 420.485 114.15 421.343 114.113C422.345 114.07 423.54 113.517 424.928 112.454C426.388 111.388 427.908 110.069 429.489 108.496C431.071 106.923 432.646 105.207 434.215 103.348C435.784 101.488 437.215 99.7426 438.507 98.1104C439.867 96.4035 440.987 94.922 441.865 93.6659C442.814 92.4067 443.46 91.5905 443.803 91.2175C444.214 90.7698 444.632 90.501 445.058 90.4111C445.556 90.3181 445.953 90.3728 446.248 90.5752C446.544 90.7776 446.704 91.165 446.728 91.7374C446.753 92.3098 446.497 93.0375 445.961 93.9206C445.161 95.3168 444.121 96.9741 442.841 98.8926C441.558 100.739 440.135 102.664 438.572 104.666C437.009 106.669 435.337 108.64 433.557 110.58C431.848 112.516 430.094 114.24 428.295 115.751C426.567 117.258 424.863 118.478 423.183 119.41C421.577 120.411 420.094 120.94 418.735 120.998C417.733 121.041 416.755 120.796 415.8 120.264C414.917 119.728 414.098 119.01 413.343 118.111C412.587 117.211 411.971 116.198 411.492 115.072C411.086 113.943 410.894 112.804 410.916 111.656C410.966 111.152 411.037 110.289 411.128 109.066C408.267 112.558 405.341 115.371 402.35 117.506C399.427 119.567 396.571 120.657 393.781 120.776C392.779 120.819 391.695 120.614 390.529 120.162C389.363 119.711 388.29 118.932 387.311 117.827C386.403 116.719 385.623 115.247 384.971 113.412C384.319 111.576 384.008 109.331 384.038 106.678C384.075 102.519 384.729 98.5483 386.001 94.7665C387.273 90.9847 388.924 87.6884 390.954 84.8777C393.053 81.9923 395.428 79.7044 398.079 78.014C400.799 76.2489 403.554 75.3067 406.345 75.1873C407.561 75.1352 408.684 75.4097 409.713 76.0108C410.739 76.5403 411.632 77.2906 412.39 78.2617C413.145 79.1612 413.762 80.1742 414.24 81.3006C414.79 82.4239 415.194 83.4819 415.451 84.4744C415.863 82.378 416.241 80.3189 416.585 78.2972C416.928 76.2754 417.276 74.361 417.629 72.5539C418.231 69.876 418.86 66.9819 419.516 63.8716C420.118 61.1936 420.81 58.1176 421.594 54.6434C422.377 51.1693 423.26 47.5116 424.242 43.6705C424.933 43.0675 425.594 42.6091 426.226 42.2954C426.858 41.9816 427.457 41.7409 428.023 41.5733C428.658 41.3311 429.261 41.1978 429.834 41.1733C430.549 41.1427 431.198 41.2224 431.779 41.4126C432.358 41.5312 432.843 41.9764 433.234 42.7481C433.694 43.4452 434.028 44.542 434.235 46.0384C434.443 47.5348 434.53 49.5739 434.497 52.1558C434.489 55.3101 434.063 58.769 433.221 62.5324C432.45 66.2927 431.363 70.21 429.961 74.2841C428.555 78.2867 426.9 82.3357 424.997 86.4313C423.162 90.4522 421.14 94.3019 418.932 97.9804ZM412.66 99.6466C412.888 98.275 413.08 96.9048 413.237 95.5362C413.465 94.1645 413.727 92.7555 414.024 91.3092C413.884 91.3869 413.743 91.4646 413.603 91.5423C413.535 91.6169 413.431 91.693 413.291 91.7707C412.519 92.1621 411.982 92.1851 411.681 91.8396C411.376 91.4225 411.206 90.7847 411.169 89.9261C411.15 89.4968 411.083 88.7471 410.965 87.6769C410.845 86.5352 410.581 85.3996 410.174 84.2701C409.836 83.066 409.326 82.0485 408.646 81.2175C407.962 80.3149 407.048 79.8881 405.903 79.9371C404.257 80.0075 402.613 80.9381 400.969 82.7287C399.322 84.4478 397.8 86.5559 396.401 89.0529C395 91.4783 393.856 94.0719 392.971 96.8336C392.086 99.5953 391.617 102.053 391.566 104.205C391.57 107.646 392.105 110.096 393.171 111.555C394.237 113.015 395.629 113.708 397.346 113.635C398.634 113.579 400.007 113.019 401.467 111.953C402.998 110.884 404.449 109.603 405.818 108.111C407.26 106.616 408.556 105.091 409.708 103.536C410.932 101.979 411.916 100.682 412.66 99.6466ZM484.584 112.051C485.026 112.319 485.569 112.439 486.213 112.412C486.928 112.381 487.602 112.209 488.233 111.895C488.937 111.578 489.564 111.157 490.115 110.632C490.737 110.104 491.175 109.44 491.427 108.64C491.68 107.841 491.632 106.732 491.285 105.313C490.934 103.823 490.402 102.269 489.687 100.651C489.042 98.9582 488.324 97.2685 487.535 95.582C486.746 93.8954 486.071 92.3474 485.509 90.9378C485.033 89.883 484.633 88.8966 484.307 87.9787C483.987 87.2039 483.669 86.4649 483.352 85.7617C483.103 84.9838 482.902 84.4548 482.746 84.1748C482.413 84.7625 481.809 85.7202 480.934 87.0479C480.13 88.3725 479.223 89.7733 478.211 91.2502C477.267 92.6525 476.356 93.9817 475.478 95.2378C474.597 96.4224 473.987 97.237 473.647 97.6816C473.103 98.3501 472.547 98.7681 471.981 98.9357C471.483 99.0287 471.049 98.9397 470.679 98.6688C470.306 98.3264 470.072 97.8705 469.975 97.3012C469.948 96.6572 470.202 95.8937 470.738 95.0106C471.142 94.4199 471.748 93.498 472.555 92.2449C473.358 90.9202 474.162 89.5956 474.965 88.271C475.765 86.8748 476.502 85.6606 477.175 84.6283C477.844 83.5244 478.21 82.8636 478.272 82.6459C478.391 82.0674 478.144 81.3253 477.532 80.4197C476.991 79.511 476.874 78.4408 477.18 77.2091C477.423 76.1952 478.018 75.0229 478.964 73.6921C479.908 72.2898 481.036 71.0229 482.35 69.8915C483.663 68.7601 485.025 67.9134 486.435 67.3513C487.841 66.7176 489.129 66.6625 490.298 67.1859C491.253 67.7185 492.032 68.3303 492.635 69.0213C493.235 69.6407 493.478 70.3113 493.366 71.0329C493.238 71.3967 493.043 71.871 492.782 72.4556C492.52 73.0403 492.121 73.7741 491.586 74.6572C491.047 75.4688 490.268 76.5414 489.25 77.8753C489.535 79.5117 489.886 81.002 490.302 82.3461C490.789 83.6872 491.233 84.8509 491.634 85.8373C492.115 87.0352 492.628 88.1243 493.172 89.1046C493.871 90.3649 494.607 91.6595 495.381 92.9883C496.154 94.3171 496.856 95.649 497.487 96.9839C498.115 98.2473 498.632 99.4437 499.038 100.573C499.445 101.703 499.594 102.664 499.484 103.457C499.322 104.683 498.741 106.177 497.741 107.94C496.813 109.7 495.597 111.437 494.093 113.15C492.658 114.788 490.963 116.223 489.009 117.453C487.126 118.681 485.111 119.34 482.965 119.432C481.462 119.496 479.976 119.094 478.505 118.225C477.106 117.353 475.879 116.33 474.825 115.157C473.84 113.909 473.071 112.687 472.518 111.493C472.037 110.295 471.961 109.366 472.291 108.707C472.684 107.83 473.048 107.133 473.385 106.617C473.721 106.101 474.233 105.506 474.921 104.831C475.198 104.604 475.545 104.338 475.962 104.034C476.311 103.804 476.802 103.568 477.437 103.326C478.072 103.083 478.812 102.801 479.659 102.478C480.469 104.665 481.188 106.391 481.816 107.654C482.44 108.846 482.947 109.792 483.335 110.492C483.798 111.261 484.214 111.78 484.584 112.051ZM504.143 114.332C503.676 115.141 503.161 115.665 502.598 115.904C501.966 116.218 501.431 116.276 500.992 116.08C500.485 115.958 500.148 115.614 499.98 115.048C499.813 114.482 499.925 113.76 500.318 112.883C500.514 112.445 500.974 111.457 501.696 109.921C502.348 108.388 503.165 106.561 504.15 104.44C505.06 102.251 506.071 99.9138 507.183 97.4291C508.292 94.8728 509.336 92.4627 510.314 90.1988C511.364 87.9318 512.317 85.9197 513.174 84.1628C514.027 82.3342 514.652 81.0173 515.048 80.2118C514.23 79.53 513.672 79.0522 513.374 78.7782C513.072 78.4327 512.827 77.7264 512.638 76.6593C512.455 75.7353 512.617 74.5098 513.125 72.9827C513.634 71.4557 514.324 69.9926 515.196 68.5933C516.064 67.1225 517.05 65.8618 518.152 64.8111C519.254 63.7604 520.341 63.2121 521.415 63.1662C523.418 63.0805 524.841 63.6647 525.683 64.9189C526.597 66.17 527.154 67.4723 527.355 68.8256C527.538 69.7496 527.517 70.9332 527.292 72.3764C527.067 73.8197 526.586 75.1305 525.848 76.309C526.068 76.4429 526.362 76.6095 526.729 76.8088C527.093 76.9366 527.669 76.9837 528.456 76.95C529.6 76.901 530.384 76.7958 530.808 76.6343C531.302 76.4698 532.05 76.3661 533.052 76.3232C534.269 76.2711 535.284 76.5502 536.099 77.1605C536.91 77.6992 537.586 78.4229 538.127 79.3316C538.664 80.1688 539.064 81.1194 539.324 82.1834C539.653 83.1729 539.872 84.0953 539.98 84.9509C540.271 86.7304 539.886 88.6106 538.824 90.5914C537.762 92.5722 536.457 94.7426 534.909 97.1026C533.969 98.5765 533.036 100.229 532.111 102.061C531.186 103.892 530.825 105.521 531.03 106.946C531.213 107.87 531.495 108.61 531.877 109.167C532.26 109.724 533.274 109.968 534.919 109.897C536.135 109.845 537.441 109.359 538.835 108.439C540.298 107.445 541.751 106.236 543.196 104.812C544.708 103.314 546.181 101.71 547.613 99.9996C549.042 98.2181 550.367 96.5128 551.587 94.8836C552.805 93.1828 553.815 91.6701 554.619 90.3455C555.494 89.0178 556.134 88.0586 556.538 87.4678C556.872 86.8801 557.32 86.4667 557.883 86.2275C558.446 85.9884 558.947 85.967 559.386 86.1632C559.824 86.3595 560.093 86.7781 560.192 87.419C560.363 88.0568 560.149 88.9261 559.551 90.0269C559.152 90.7608 558.45 91.9377 557.444 93.5577C556.51 95.1747 555.333 96.9812 553.913 98.9773C552.565 100.97 551.041 103.043 549.341 105.194C547.638 107.274 545.821 109.216 543.891 111.018C542.03 112.747 540.121 114.19 538.163 115.349C536.277 116.505 534.44 117.121 532.651 117.198C530.791 117.278 529.237 116.986 527.99 116.322C526.743 115.659 525.705 114.843 524.875 113.875C524.114 112.833 523.528 111.711 523.118 110.51C522.777 109.234 522.619 108.058 522.645 106.982C522.679 106.12 522.856 105.217 523.174 104.271C523.56 103.251 523.982 102.23 524.44 101.206C524.967 100.109 525.495 99.0467 526.024 98.0205C526.622 96.9197 527.15 95.8577 527.608 94.8346C528.736 92.7076 529.627 90.9134 530.281 89.4518C531.004 87.9155 531.344 86.6466 531.301 85.6449C531.273 85.001 531.106 84.4347 530.798 83.9461C530.49 83.4575 530.015 83.227 529.371 83.2545C528.941 83.2729 528.621 83.3225 528.409 83.4032C528.266 83.4093 528.087 83.417 527.873 83.4262C527.73 83.4323 527.481 83.4788 527.126 83.5656C526.84 83.5779 526.375 83.5978 525.731 83.6254C524.801 83.6652 524.007 83.5557 523.351 83.2971C522.695 83.0385 522.078 82.8499 521.499 82.7313C521.234 83.2443 520.636 84.3451 519.705 86.0336C518.774 87.7221 517.676 89.7045 516.412 91.9807C515.219 94.2538 513.923 96.6389 512.524 99.1359C511.198 101.63 509.936 103.978 508.74 106.179C507.541 108.309 506.544 110.144 505.75 111.683C504.881 113.154 504.346 114.037 504.143 114.332ZM586.143 90.8242C585.88 93.0575 585.612 95.1835 585.34 97.2022C585.14 99.2178 585.03 100.835 585.01 102.055C585.016 103.847 585.393 105.121 586.142 105.877C586.891 106.633 587.695 106.993 588.553 106.957C589.555 106.914 590.75 106.361 592.138 105.298C593.598 104.232 595.118 102.912 596.7 101.339C598.281 99.7665 599.856 98.0504 601.425 96.1913C602.994 94.3321 604.425 92.5864 605.717 90.9541C607.077 89.2473 608.197 87.7658 609.075 86.5096C610.024 85.2504 610.671 84.4343 611.013 84.0612C611.424 83.6136 611.842 83.3448 612.269 83.2548C612.766 83.1619 613.163 83.2166 613.458 83.419C613.754 83.6214 613.914 84.0088 613.938 84.5812C613.963 85.1535 613.707 85.8813 613.172 86.7644C612.371 88.1605 611.331 89.8179 610.051 91.7363C608.768 93.5832 607.345 95.5078 605.782 97.5101C604.219 99.5123 602.548 101.483 600.767 103.423C599.058 105.36 597.304 107.084 595.505 108.594C593.777 110.102 592.073 111.322 590.393 112.254C588.787 113.254 587.304 113.784 585.945 113.842C584.943 113.885 583.965 113.64 583.011 113.107C582.127 112.572 581.308 111.854 580.553 110.955C579.798 110.055 579.181 109.042 578.703 107.916C578.296 106.786 578.104 105.648 578.126 104.5C578.176 103.996 578.247 103.133 578.338 101.91C575.477 105.402 572.551 108.215 569.56 110.35C566.638 112.41 563.781 113.5 560.991 113.62C559.989 113.663 558.905 113.458 557.739 113.006C556.573 112.554 555.5 111.776 554.521 110.671C553.613 109.563 552.834 108.091 552.182 106.255C551.53 104.42 551.218 102.175 551.248 99.5215C551.285 95.3624 551.94 91.392 553.211 87.6102C554.483 83.8284 556.134 80.5322 558.164 77.7214C560.263 74.8361 562.638 72.5482 565.289 70.8577C568.009 69.0927 570.765 68.1505 573.555 68.031C574.771 67.979 575.894 68.2535 576.923 68.8546C577.95 69.3841 578.842 70.1344 579.6 71.1054C580.355 72.005 580.972 73.0179 581.451 74.1443C582 75.2677 582.404 76.3256 582.662 77.3181C583.074 75.2218 583.451 73.1627 583.795 71.1409C584.139 69.1192 584.487 67.2048 584.839 65.3977C585.442 62.7197 586.07 59.8256 586.726 56.7153C587.328 54.0374 588.021 50.9613 588.804 47.4872C589.587 44.013 590.47 40.3554 591.452 36.5143C592.143 35.9113 592.805 35.4529 593.436 35.1391C594.068 34.8254 594.667 34.5847 595.233 34.4171C595.868 34.1749 596.472 34.0415 597.044 34.017C597.759 33.9864 598.408 34.0662 598.99 34.2563C599.568 34.3749 600.053 34.8201 600.444 35.5918C600.904 36.289 601.238 37.3857 601.445 38.8821C601.653 40.3785 601.74 42.4177 601.707 44.9996C601.699 48.1539 601.273 51.6127 600.431 55.3761C599.66 59.1365 598.573 63.0537 597.171 67.1278C595.765 71.1304 594.111 75.1795 592.207 79.275C590.372 83.296 588.351 87.1457 586.143 90.8242ZM579.87 92.4904C580.098 91.1187 580.291 89.7486 580.447 88.38C580.675 87.0083 580.937 85.5993 581.234 84.153C581.094 84.2307 580.954 84.3083 580.814 84.386C580.745 84.4606 580.641 84.5368 580.501 84.6144C579.729 85.0059 579.193 85.0288 578.891 84.6833C578.586 84.2663 578.416 83.6285 578.379 82.7699C578.361 82.3406 578.293 81.5909 578.175 80.5207C578.055 79.379 577.791 78.2434 577.384 77.1139C577.046 75.9098 576.537 74.8922 575.856 74.0612C575.172 73.1586 574.258 72.7318 573.113 72.7808C571.468 72.8513 569.823 73.7818 568.179 75.5725C566.532 77.2916 565.01 79.3996 563.611 81.8966C562.21 84.322 561.067 86.9156 560.181 89.6774C559.296 92.4391 558.828 94.8963 558.776 97.0489C558.78 100.489 559.315 102.939 560.381 104.399C561.447 105.859 562.839 106.552 564.556 106.478C565.844 106.423 567.218 105.863 568.677 104.797C570.208 103.728 571.659 102.447 573.029 100.955C574.47 99.4595 575.767 97.9345 576.919 96.3799C578.142 94.8223 579.126 93.5258 579.87 92.4904ZM653.678 86.106C651.667 89.346 649.366 92.5267 646.775 95.6481C644.182 98.698 641.398 101.469 638.422 103.962C635.515 106.38 632.482 108.374 629.324 109.943C626.237 111.508 623.191 112.355 620.186 112.484C618.612 112.551 616.878 112.231 614.984 111.524C613.164 110.885 611.47 109.811 609.9 108.301C608.33 106.791 607.026 104.804 605.989 102.34C605.023 99.8722 604.643 96.842 604.847 93.2493C605.008 90.3035 605.771 87.1886 607.136 83.9046C608.569 80.546 610.336 77.4598 612.438 74.646C614.611 71.8291 617.055 69.4666 619.768 67.5585C622.554 65.6473 625.378 64.6304 628.24 64.5079C630.958 64.3916 632.955 64.9871 634.23 66.2944C635.504 67.6018 636.113 69.2603 636.055 71.2698C635.936 73.497 635.379 75.5637 634.385 77.4699C633.463 79.373 632.319 81.1065 630.952 82.6703C629.585 84.234 628.105 85.6593 626.512 86.9461C624.99 88.2298 623.535 89.4031 622.147 90.466C620.618 91.6066 619.16 92.7084 617.772 93.7713C616.381 94.7627 615.166 95.6749 614.126 96.5079C614.274 98.2935 614.66 99.7823 615.285 100.974C615.909 102.166 616.668 103.137 617.56 103.887C618.449 104.566 619.438 105.061 620.527 105.373C621.684 105.61 622.835 105.704 623.979 105.655C626.412 105.551 628.92 104.691 631.503 103.076C634.083 101.388 636.579 99.4176 638.991 97.164C641.472 94.8357 643.735 92.4451 645.781 89.9921C647.898 87.5361 649.635 85.4189 650.992 83.6404C651.469 83.0466 651.956 82.7032 652.454 82.6102C653.02 82.4426 653.452 82.4958 653.751 82.7697C654.118 82.9691 654.315 83.3907 654.342 84.0347C654.367 84.6071 654.146 85.2975 653.678 86.106ZM625.496 70.754C624.638 70.7907 623.619 71.2644 622.439 72.1751C621.331 73.0827 620.24 74.3838 619.165 76.0784C618.088 77.7015 617.099 79.715 616.198 82.119C615.295 84.4514 614.657 87.1309 614.284 90.1574C615.115 89.4767 616.018 88.7929 616.992 88.1061C617.963 87.3478 618.933 86.5536 619.901 85.7237C622.876 83.2309 624.934 81.0642 626.074 79.2234C627.214 77.3826 627.827 75.8152 627.915 74.5212C628 73.1556 627.816 72.1958 627.362 71.6418C626.905 71.0162 626.283 70.7203 625.496 70.754ZM633.135 43.2245C633.757 42.6961 634.474 42.7012 635.286 43.2399C636.097 43.7786 636.706 44.6127 637.113 45.7422C637.678 47.2233 637.763 48.3665 637.367 49.172C636.969 49.9058 636.352 50.5773 635.518 51.1865C635.104 51.5626 634.303 52.0986 633.114 52.7946C631.997 53.4876 630.738 54.2224 629.338 54.9991C628.006 55.7013 626.673 56.3676 625.338 56.9982C624 57.5572 622.974 57.8878 622.262 57.99C621.478 58.0952 620.867 58.0497 620.428 57.8534C619.987 57.5856 619.615 57.2789 619.314 56.9334C619.084 56.5849 618.924 56.1975 618.834 55.7713C618.741 55.2735 618.687 54.8457 618.671 54.488C624.087 50.3855 627.868 47.4639 630.016 45.7234C631.264 44.7381 632.304 43.9051 633.135 43.2245ZM664.995 104.33C667.213 104.235 669.609 103.273 672.183 101.442C674.825 99.5369 677.348 97.3502 679.751 94.882C682.226 92.4106 684.449 89.9142 686.42 87.3927C688.459 84.7966 689.983 82.7244 690.992 81.1759C691.596 80.2182 692.181 79.6555 692.748 79.488C693.311 79.2488 693.743 79.302 694.045 79.6475C694.346 79.993 694.478 80.5608 694.44 81.3509C694.399 82.0694 694.112 82.906 693.58 83.8607C693.116 84.7407 692.311 86.0295 691.165 87.7272C690.087 89.3503 688.767 91.163 687.204 93.1652C685.71 95.0929 683.968 97.1028 681.979 99.195C680.058 101.213 678.024 103.092 675.876 104.832C673.726 106.501 671.491 107.887 669.173 108.99C666.858 110.164 664.556 110.8 662.266 110.898C659.118 111.033 656.444 110.538 654.246 109.414C652.122 108.358 650.376 106.927 649.009 105.122C647.713 103.314 646.767 101.311 646.171 99.1146C645.572 96.8465 645.225 94.6034 645.131 92.3854C645.036 90.1674 645.419 87.3913 646.279 84.0572C647.14 80.7231 648.472 77.5121 650.275 74.4244C652.147 71.262 654.54 68.5433 657.453 66.2682C660.363 63.9216 663.857 62.661 667.935 62.4865C670.225 62.3885 672.191 63.0928 673.832 64.5996C675.545 66.1032 676.424 68.216 676.469 70.9379C676.524 72.2258 676.364 73.5229 675.99 74.8291C675.613 76.0638 675.088 77.1973 674.415 78.2297C673.74 79.1904 672.913 79.9784 671.936 80.5937C671.03 81.2059 670.005 81.5365 668.86 81.5855C667.93 81.6253 667.201 81.3339 666.673 80.7114C666.213 80.0143 665.893 79.2395 665.713 78.3871C665.602 77.46 665.563 76.5656 665.598 75.704C665.704 74.8393 665.823 74.2607 665.954 73.9684C666.29 73.4523 666.668 73.0777 667.089 72.8447C667.509 72.6116 667.999 72.3398 668.559 72.0291C668.979 71.7961 669.287 71.4603 669.483 71.0218C669.751 70.5803 669.875 70.1091 669.853 69.6082C669.832 69.1074 669.67 68.6842 669.369 68.3387C669.067 67.9932 668.594 67.8343 667.95 67.8618C667.307 67.8894 666.149 68.4765 664.478 69.6233C662.875 70.6954 661.224 72.3072 659.524 74.4587C657.892 76.5355 656.463 79.1413 655.235 82.2761C654.007 85.4109 653.445 89.019 653.548 93.1004C653.577 95.4646 653.982 97.3826 654.762 98.8545C655.541 100.326 656.486 101.469 657.596 102.281C658.706 103.094 659.913 103.652 661.216 103.954C662.519 104.257 663.779 104.382 664.995 104.33ZM740.974 83.3376C739.445 86.1269 737.67 89.0342 735.649 92.0596C733.696 95.0104 731.591 97.7526 729.334 100.286C727.074 102.748 724.726 104.82 722.289 106.501C719.852 108.183 717.382 109.077 714.877 109.184C712.373 109.291 710.512 108.511 709.294 106.843C708.15 105.243 707.57 103.404 707.552 101.326C707.513 100.396 707.549 99.5701 707.661 98.8484C707.845 98.1238 708.032 97.4706 708.223 96.8891C708.413 96.3075 708.603 95.7259 708.793 95.1443C709.052 94.4881 709.272 93.7619 709.452 92.9657C709.699 92.0233 709.664 91.2005 709.347 90.4972C709.098 89.7194 708.783 89.0519 708.401 88.4948C707.788 89.2379 707.064 89.914 706.23 90.5231C705.464 91.0577 704.473 91.3509 703.257 91.403C702.398 91.4397 701.594 91.0799 700.845 90.3235C700.093 89.4955 699.691 88.4734 699.639 87.257C699.596 86.2554 699.775 85.4234 700.177 84.761C700.65 84.0957 701.166 83.5718 701.723 83.1896C702.351 82.8043 702.985 82.5263 703.622 82.3557C704.26 82.185 704.794 82.0905 705.223 82.0721C705.438 82.0629 705.869 82.0803 706.516 82.1243C707.234 82.1652 707.99 82.2404 708.783 82.3498C711.27 80.1647 713.015 78.2263 714.018 76.5348C715.089 74.7686 715.131 73.2257 714.142 71.9061C713.53 71.0004 712.795 70.566 711.936 70.6027C711.074 70.5679 710.189 70.8208 709.281 71.3615C708.369 71.8306 707.463 72.4428 706.564 73.1981C705.736 73.9503 704.978 74.6637 704.29 75.3383C702.92 76.8305 701.384 78.6166 699.681 80.6965C698.046 82.7018 696.684 84.3729 695.594 85.7098C695.185 87.8777 694.781 90.1529 694.381 92.5355C694.041 94.6288 693.641 97.0114 693.182 99.6832C692.791 102.28 692.369 104.986 691.916 107.801C691.496 108.034 691.037 108.197 690.54 108.29C690.116 108.452 689.728 108.576 689.373 108.663C688.947 108.753 688.519 108.807 688.09 108.825C687.517 108.85 686.979 108.837 686.475 108.787C685.974 108.808 685.573 108.646 685.272 108.301C684.902 108.03 684.701 107.537 684.671 106.821C684.569 106.109 684.705 105.099 685.079 103.793C685.571 101.908 686.181 99.4093 686.908 96.296C687.632 93.1111 688.379 89.6384 689.15 85.8781C689.921 82.1177 690.686 78.2143 691.445 74.1677C692.272 70.0465 693.037 66.1431 693.739 62.4573C694.438 58.7 695.012 55.3424 695.458 52.3844C695.974 49.3517 696.338 46.9707 696.55 45.2413C696.685 43.3718 696.824 41.5739 696.965 39.8476C697.047 38.4104 697.058 37.0122 697 35.6527C697.011 34.2187 696.893 33.1485 696.648 32.4422C696.99 32.0692 697.477 31.7258 698.109 31.412C698.741 31.0982 699.447 30.853 700.228 30.6762C701.006 30.4279 701.928 30.2092 702.995 30.0202C704.206 29.825 705.206 29.7464 705.996 29.7842C706.857 29.819 707.481 30.1507 707.866 30.7794C708.326 31.4765 708.45 32.6898 708.237 34.4192C708.093 36.074 707.692 38.4208 707.033 41.4595C706.197 45.3661 705.311 48.9521 704.375 52.2178C703.508 55.4088 702.634 58.421 701.752 61.2542C700.941 64.0845 700.127 66.8431 699.31 69.5303C698.562 72.1428 697.888 74.8238 697.289 77.5733C698.631 75.4371 700.327 73.1783 702.375 70.7969C704.42 68.3439 706.77 66.3079 709.425 64.689C712.223 63.064 714.552 62.2117 716.412 62.1321C718.701 62.0341 720.381 62.7507 721.45 64.2819C722.516 65.7416 723.057 67.5104 723.075 69.5884C723.074 71.2371 722.71 72.7938 721.984 74.2584C721.327 75.6485 720.488 76.9746 719.467 78.2369C718.442 79.4276 717.34 80.4783 716.161 81.389C714.981 82.2996 713.974 83.0595 713.14 83.6686C714.167 84.1982 715.059 84.9485 715.817 85.9195C716.644 86.816 717.052 87.9812 717.042 89.4153C717.053 91.3502 716.733 93.0842 716.082 94.6173C715.499 96.0759 715.234 97.4133 715.286 98.6296C715.397 99.5567 715.605 100.229 715.91 100.646C716.286 101.06 717.011 101.244 718.084 101.198C720.016 101.115 721.984 100.207 723.988 98.4722C726.064 96.7347 727.987 94.753 729.755 92.5269C731.523 90.3008 733.15 88.1166 734.636 85.9743C736.118 83.7605 737.267 82.1343 738.082 81.0959C739.244 79.7559 740.232 79.3911 741.046 80.0014C741.929 80.537 741.905 81.6491 740.974 83.3376ZM789.377 81.266C788.436 82.7399 787.225 84.5837 785.743 86.7976C784.258 88.9399 782.702 91.121 781.077 93.341C779.52 95.4863 777.957 97.4886 776.388 99.3477C774.888 101.132 773.616 102.405 772.573 103.167C771.876 103.627 771.069 104.02 770.151 104.346C769.233 104.672 768.275 104.892 767.276 105.006C766.349 105.118 765.452 105.084 764.584 104.906C763.719 104.8 762.956 104.546 762.293 104.144C761.628 103.671 761.061 102.978 760.592 102.067C760.2 101.295 759.798 100.273 759.385 99.0002C759.044 97.7246 758.868 96.1193 758.856 94.1844C757.262 97.1199 755.461 99.4191 753.453 101.082C751.442 102.673 749.522 103.866 747.693 104.662C745.58 105.541 743.453 106.097 741.313 106.332C740.311 106.375 739.223 106.063 738.047 105.397C736.875 104.802 735.865 103.806 735.016 102.409C734.165 100.94 733.583 99.0651 733.27 96.7847C732.955 94.4328 733.121 91.6301 733.771 88.3768C734.586 83.9694 735.99 79.931 737.983 76.2617C740.048 72.5893 742.315 69.4459 744.783 66.8315C747.249 64.1455 749.706 62.1049 752.155 60.7099C754.604 59.3148 756.655 58.6536 758.307 58.7263C760.254 59.0014 761.852 59.5064 763.102 60.2414C764.135 60.914 764.824 61.9597 765.172 63.3784C765.588 64.7225 765.094 66.5715 763.689 68.9254C764.681 68.6679 765.498 68.4896 766.139 68.3905C766.851 68.2883 767.387 68.2295 767.744 68.2142C768.174 68.1959 768.461 68.2194 768.608 68.2848C768.685 68.4248 768.735 68.7453 768.756 69.2461C768.775 69.6754 768.702 70.5028 768.54 71.7284C768.377 72.9539 768.126 74.6133 767.785 76.7066C767.445 78.7999 766.987 81.5075 766.413 84.8293C766.297 85.4794 766.18 86.0937 766.061 86.6722C766.011 87.1761 765.927 87.7173 765.808 88.2959C765.758 88.7998 765.677 89.4125 765.564 90.1341C765.452 90.8558 765.311 91.7578 765.143 92.8402C765.099 93.4872 765.093 94.2042 765.127 94.9913C765.229 95.7037 765.401 96.3773 765.644 97.012C765.886 97.6468 766.231 98.1696 766.678 98.5806C767.195 98.9169 767.882 99.0666 768.741 99.0299C769.456 98.9993 770.368 98.5302 771.476 97.6226C772.581 96.6435 773.748 95.4466 774.978 94.0321C776.205 92.546 777.462 90.951 778.751 89.2472C780.109 87.4688 781.362 85.7665 782.511 84.1404C783.66 82.5142 784.674 81.0731 785.552 79.8169C786.501 78.5577 787.178 77.6328 787.583 77.042C788.128 76.3736 788.685 75.9913 789.255 75.8953C789.821 75.7277 790.256 75.8524 790.561 76.2694C790.865 76.6865 790.929 77.3289 790.751 78.1967C790.644 79.0614 790.186 80.0845 789.377 81.266ZM758.133 87.3341C758.43 85.8878 758.787 84.188 759.205 82.2348C759.623 80.2815 759.973 78.4029 760.254 76.5988C760.535 74.7948 760.723 73.3173 760.817 72.1664C760.98 70.9409 760.919 70.37 760.636 70.4538C760.282 70.5407 759.893 70.6648 759.47 70.8263C759.118 70.9847 758.657 71.1119 758.088 71.208C757.519 71.304 756.951 71.4359 756.385 71.6034C756.908 70.4342 757.19 69.4902 757.231 68.7717C757.341 67.9785 757.35 67.3688 757.26 66.9426C757.167 66.4448 757.008 66.0574 756.781 65.7804C755.966 65.1702 754.594 65.7665 752.664 67.5694C750.803 69.2977 748.68 72.4708 746.298 77.0886C745.304 78.9948 744.531 81.0349 743.979 83.209C743.424 85.3115 743.043 87.299 742.836 89.1715C742.701 91.0409 742.736 92.6881 742.94 94.113C743.142 95.4663 743.466 96.3484 743.914 96.7593C744.735 97.5127 745.646 97.8679 746.647 97.825C747.646 97.7106 748.635 97.3816 749.616 96.8378C750.664 96.2195 751.671 95.4596 752.636 94.5582C753.673 93.6536 754.565 92.7195 755.312 91.7556C756.131 90.7888 756.774 89.9011 757.241 89.0926C757.779 88.2811 758.077 87.6949 758.133 87.3341Z" fill="#0C2460" fill-opacity="0.07"/>
<path d="M663.893 53.5295C663.27 52.6765 662.712 51.9673 662.218 51.4019C661.722 50.778 661.114 50.2762 660.394 49.8965C660.792 49.5862 661.283 49.4186 661.868 49.3935C662.51 49.3074 663.123 49.2519 663.709 49.2268C664.355 49.2578 665.06 49.2863 665.823 49.3122C666.941 49.3817 667.867 49.7819 668.602 50.5129C669.396 51.2413 670.366 52.666 671.512 54.7869C671.514 54.8454 671.517 54.904 671.52 54.9625C671.578 54.96 671.609 54.988 671.611 55.0466C673.702 53.1977 675.114 51.935 675.848 51.2584C676.637 50.5209 677.088 50.0911 677.2 49.969C678.162 49.1654 679.115 48.8021 680.056 48.879C680.998 48.956 681.877 48.9477 682.694 48.8541L683.748 48.809C684.041 48.7965 684.363 48.7827 684.714 48.7677C685.063 48.6941 685.382 48.6218 685.672 48.5507C685.392 48.8559 684.913 49.3163 684.236 49.9318C683.556 50.4887 682.848 51.0761 682.112 51.6941C681.262 52.3756 680.356 53.1475 679.396 54.0096C679.057 54.3174 678.605 54.7179 678.04 55.2113C677.475 55.7047 676.88 56.1993 676.256 56.6952C675.691 57.1885 675.153 57.6514 674.644 58.0837C674.191 58.455 673.85 58.7042 673.62 58.8313C673.452 59.0144 673.049 59.1783 672.41 59.323C671.768 59.4091 671.096 59.4672 670.394 59.4972C669.692 59.5273 669.016 59.4976 668.367 59.408C667.776 59.316 667.419 59.1847 667.294 59.0141C667.17 58.8435 666.95 58.501 666.635 57.9867C666.319 57.4723 665.974 56.93 665.597 56.3596C665.218 55.7307 664.871 55.1591 664.556 54.6447C664.241 54.1304 664.02 53.7587 663.893 53.5295Z" fill="#0C2460" fill-opacity="0.07"/>
<path d="M128.645 75.0615C128.022 74.2084 127.463 73.4992 126.97 72.9339C126.474 72.31 125.866 71.8082 125.146 71.4285C125.543 71.1182 126.035 70.9506 126.62 70.9255C127.262 70.8394 127.875 70.7838 128.46 70.7588C129.107 70.7898 129.812 70.8182 130.575 70.8442C131.693 70.9137 132.619 71.3139 133.354 72.0449C134.148 72.7733 135.118 74.198 136.264 76.3189C136.266 76.3774 136.269 76.436 136.271 76.4945C136.33 76.492 136.361 76.52 136.363 76.5786C138.454 74.7297 139.866 73.4669 140.599 72.7904C141.389 72.0529 141.84 71.623 141.952 71.501C142.914 70.6973 143.867 70.334 144.808 70.411C145.75 70.488 146.629 70.4797 147.446 70.3861L148.5 70.341C148.793 70.3285 149.115 70.3147 149.466 70.2997C149.815 70.2261 150.134 70.1538 150.424 70.0827C150.144 70.3879 149.665 70.8483 148.988 71.4637C148.308 72.0207 147.6 72.6081 146.864 73.2261C146.014 73.9076 145.108 74.6795 144.148 75.5416C143.809 75.8493 143.357 76.2499 142.792 76.7433C142.227 77.2366 141.632 77.7313 141.008 78.2272C140.443 78.7205 139.905 79.1834 139.396 79.6157C138.943 79.987 138.602 80.2362 138.372 80.3633C138.204 80.5464 137.801 80.7103 137.162 80.855C136.52 80.9411 135.848 80.9991 135.146 81.0292C134.443 81.0593 133.768 81.0295 133.119 80.94C132.528 80.848 132.171 80.7167 132.046 80.5461C131.922 80.3755 131.702 80.033 131.387 79.5186C131.071 79.0043 130.726 78.462 130.349 77.8916C129.97 77.2627 129.623 76.6911 129.308 76.1767C128.993 75.6624 128.772 75.2906 128.645 75.0615Z" fill="#0C2460" fill-opacity="0.07"/>
</svg>
