<svg width="750" height="182" viewBox="0 0 750 182" fill="none" xmlns="http://www.w3.org/2000/svg">
<path d="M48.0171 81.6477C47.9312 81.4382 48.1096 80.8879 48.5522 79.9968C48.99 79.0343 49.4515 77.8908 49.9367 76.5662C50.4886 75.1654 50.9951 73.6241 51.4564 71.9423C51.9842 70.1842 52.2954 68.4048 52.3897 66.604C52.5555 64.7985 52.4355 63.0122 52.0297 61.245C51.6239 59.4779 50.7585 57.8134 49.4333 56.2516C48.6612 55.4421 47.5582 55.0497 46.1243 55.0742C44.7571 55.0225 43.1995 55.3425 41.4516 56.0341C39.7703 56.6495 38.0035 57.5936 36.151 58.8664C34.3652 60.063 32.7367 61.4644 31.2655 63.0705C29.7896 64.6052 28.5399 66.3041 27.5167 68.1672C26.5649 70.0256 26.0799 71.8884 26.0618 73.7558C26.0197 75.266 26.149 76.6569 26.4498 77.9287C26.822 79.1956 27.2585 80.3506 27.7592 81.3936C28.2599 82.4366 28.7916 83.4058 29.3541 84.3011C29.9167 85.1964 30.4364 85.9869 30.9131 86.6726C31.5519 87.6346 32.5195 88.6821 33.8158 89.8152C35.1121 90.9483 36.5276 92.2529 38.0623 93.7288C39.5921 95.1334 41.1364 96.7522 42.6951 98.5855C44.2537 100.419 45.6506 102.514 46.8856 104.871C48.1206 107.229 49.0532 109.894 49.6836 112.866C50.3139 115.838 50.5013 119.163 50.246 122.841C49.8152 128.181 48.8599 132.66 47.3802 136.276C45.9054 139.964 44.2038 142.949 42.2757 145.232C40.419 147.51 38.4858 149.183 36.476 150.251C34.4711 151.391 32.7994 152.149 31.4609 152.526C30.4035 152.813 29.1294 153.078 27.6385 153.321C26.2238 153.632 24.6851 153.699 23.0225 153.524C21.4361 153.415 19.7948 153.023 18.0986 152.347C16.4072 151.743 14.8656 150.698 13.4738 149.213C11.8533 147.527 10.5447 145.677 9.54805 143.662C8.64206 141.929 7.93124 139.895 7.41557 137.561C6.83325 135.303 6.85109 132.898 7.46908 130.344C7.99751 129.663 8.56646 129.05 9.17594 128.507C9.78543 127.963 10.3997 127.492 11.0188 127.091C11.7045 126.614 12.4284 126.171 13.1904 125.761C14.1001 125.413 15.0122 125.1 15.9267 124.823C16.7031 124.628 17.52 124.501 18.3774 124.443C19.3015 124.31 20.1662 124.359 20.9713 124.592C19.9811 125.879 19.3077 127.073 18.951 128.173C18.7035 128.764 18.5228 129.279 18.4087 129.717C18.2141 131.094 18.2149 132.709 18.4111 134.562C18.6836 136.481 19.199 138.277 19.9573 139.949C20.7918 141.687 21.893 143.12 23.2608 144.249C24.6333 145.448 26.3938 146.012 28.5422 145.939C33.7679 145.732 37.9244 141.361 41.0118 132.828C42.0537 130.174 42.4858 127.525 42.3082 124.881C42.2021 122.233 41.7102 119.718 40.8324 117.336C40.0261 114.95 38.9818 112.759 37.6993 110.764C36.4835 108.693 35.2536 106.945 34.0095 105.521C32.7655 104.097 31.2641 102.583 29.5055 100.979C27.8135 99.2981 26.112 97.4744 24.4008 95.5079C22.6896 93.5413 21.1093 91.3865 19.66 89.0435C18.2821 86.6957 17.2827 84.1071 16.662 81.2778C15.8216 77.3148 15.9341 73.6466 16.9994 70.2734C18.1315 66.8239 19.721 63.7743 21.7681 61.1246C23.8866 58.4701 26.2149 56.2681 28.7531 54.5185C31.3627 52.7641 33.6892 51.603 35.7326 51.0351C47.083 47.9758 54.751 49.3986 58.7364 55.3036C60.3954 57.5608 61.3851 60.0065 61.7056 62.6406C62.0261 65.2748 62.013 67.752 61.6665 70.0721C61.3865 72.3159 60.9421 74.2479 60.3332 75.8678C59.7909 77.4116 59.4174 78.2621 59.2126 78.4194C58.8127 78.8769 58.1651 79.387 57.2698 79.9495C56.3745 80.5121 54.9052 81.0774 52.8618 81.6453C52.2998 81.8266 51.733 81.9364 51.1613 81.9748C50.6612 82.0084 50.1229 82.0087 49.5464 81.9757C48.97 81.9426 48.4602 81.8333 48.0171 81.6477ZM62.3534 128.38C64.6094 114.95 66.3975 104.171 67.7177 96.0433C69.1093 87.9109 70.1637 81.7032 70.8809 77.4202C71.6881 72.3417 72.2413 68.8234 72.5404 66.8653C72.6636 65.4933 72.7534 64.1594 72.8099 62.8637C72.8761 61.7108 72.8683 60.527 72.7867 59.3123C72.7051 58.0976 72.5235 56.9973 72.242 56.0113C72.7896 55.6157 73.3778 55.2891 74.0064 55.0315C74.7066 54.7691 75.3734 54.5449 76.0069 54.3588C76.7785 54.0916 77.5524 53.8602 78.3288 53.6645C79.1052 53.4688 79.815 53.3493 80.458 53.3061C81.0297 53.2677 81.5704 53.3032 82.0801 53.4125C82.5851 53.4504 82.9211 53.6431 83.088 53.9908C83.5407 54.3192 83.7673 55.0218 83.7679 56.0984C83.8399 57.1702 83.8428 58.2825 83.7767 59.4354C83.5821 60.8122 83.3589 62.2986 83.1073 63.8946C82.4562 67.0247 81.5748 71.534 80.4631 77.4225C79.5081 82.4392 78.2087 89.2735 76.5649 97.9252C74.9925 106.572 72.9972 117.473 70.5791 130.627C70.2459 131.008 69.8339 131.287 69.3434 131.463C68.8528 131.64 68.3932 131.742 67.9644 131.771C67.4643 131.805 66.926 131.805 66.3495 131.772C65.8398 131.663 65.3252 131.482 64.8058 131.23C64.3579 130.973 63.9028 130.608 63.4404 130.137C62.9829 129.737 62.6206 129.151 62.3534 128.38ZM141.635 103.351C140.731 104.848 139.565 106.72 138.137 108.97C136.704 111.147 135.202 113.366 133.631 115.625C132.127 117.807 130.613 119.847 129.09 121.743C127.633 123.564 126.393 124.867 125.369 125.654C124.683 126.131 123.886 126.543 122.976 126.891C122.066 127.24 121.114 127.483 120.118 127.622C119.194 127.756 118.296 127.744 117.424 127.587C116.557 127.502 115.788 127.267 115.116 126.881C114.439 126.424 113.855 125.746 113.364 124.845C112.954 124.083 112.527 123.071 112.083 121.809C111.711 120.542 111.496 118.942 111.438 117.008C109.915 119.981 108.17 122.323 106.204 124.035C104.232 125.674 102.342 126.914 100.532 127.753C98.4412 128.683 96.3288 129.292 94.1948 129.578C93.1945 129.646 92.0987 129.36 90.9074 128.723C89.7209 128.156 88.6867 127.185 87.8047 125.809C86.9179 124.361 86.2906 122.501 85.9226 120.229C85.5499 117.885 85.6485 115.08 86.2185 111.811C86.926 107.386 88.2316 103.314 90.1352 99.5976C92.1103 95.8761 94.3 92.6785 96.7043 90.0048C99.1038 87.2597 101.511 85.1601 103.925 83.7059C106.34 82.2517 108.374 81.5409 110.027 81.5734C111.98 81.8011 113.59 82.2671 114.858 82.9715C115.906 83.6188 116.621 84.6475 117.003 86.0573C117.451 87.3909 117.002 89.2514 115.655 91.6387C116.641 91.3572 117.453 91.1591 118.092 91.0444C118.801 90.9249 119.335 90.8532 119.692 90.8292C120.121 90.8004 120.409 90.8169 120.557 90.8788C120.638 91.0169 120.695 91.336 120.729 91.8362C120.758 92.2649 120.706 93.0939 120.573 94.323C120.44 95.5521 120.229 97.2171 119.939 99.3181C119.65 101.419 119.258 104.137 118.764 107.472C118.665 108.124 118.563 108.741 118.458 109.323C118.42 109.828 118.349 110.371 118.245 110.952C118.207 111.457 118.14 112.071 118.045 112.796C117.951 113.52 117.832 114.425 117.69 115.511C117.661 116.159 117.674 116.876 117.726 117.662C117.846 118.372 118.034 119.041 118.292 119.67C118.549 120.298 118.907 120.813 119.365 121.212C119.889 121.536 120.579 121.669 121.437 121.612C122.151 121.564 123.052 121.072 124.137 120.138C125.218 119.133 126.356 117.908 127.551 116.464C128.741 114.948 129.96 113.323 131.207 111.588C132.521 109.778 133.732 108.045 134.842 106.392C135.951 104.738 136.929 103.273 137.776 101.996C138.695 100.714 139.349 99.7727 139.74 99.1723C140.268 98.4908 140.816 98.0951 141.383 97.9853C141.945 97.804 142.383 97.9181 142.698 98.3276C143.012 98.7371 143.091 99.3778 142.934 100.25C142.849 101.117 142.416 102.151 141.635 103.351ZM110.548 110.177C110.81 108.724 111.126 107.016 111.496 105.053C111.867 103.09 112.171 101.204 112.408 99.3933C112.645 97.583 112.797 96.1014 112.863 94.9485C112.996 93.7194 112.922 93.1502 112.641 93.2409C112.288 93.3363 111.902 93.4699 111.483 93.6416C111.136 93.8085 110.678 93.9469 110.111 94.0567C109.545 94.1666 108.98 94.3122 108.418 94.4935C108.913 93.3118 109.172 92.3613 109.196 91.642C109.286 90.8464 109.281 90.2366 109.18 89.8127C109.075 89.3174 108.906 88.934 108.672 88.6625C107.843 88.0723 106.486 88.7018 104.6 90.551C102.782 92.3241 100.737 95.5478 98.4673 100.222C97.5203 102.152 96.7972 104.21 96.2982 106.397C95.7943 108.512 95.4618 110.509 95.3008 112.386C95.2112 114.258 95.2859 115.904 95.5248 117.323C95.7589 118.671 96.1047 119.545 96.5623 119.945C97.4011 120.678 98.3206 121.011 99.321 120.944C100.317 120.805 101.298 120.452 102.264 119.885C103.298 119.241 104.286 118.457 105.229 117.533C106.243 116.603 107.112 115.647 107.835 114.666C108.63 113.679 109.252 112.776 109.699 111.957C110.218 111.132 110.501 110.539 110.548 110.177ZM168.595 102.402C168.387 104.641 168.171 106.773 167.948 108.797C167.797 110.817 167.726 112.437 167.736 113.656C167.785 115.448 168.193 116.712 168.96 117.45C169.728 118.188 170.54 118.528 171.397 118.471C172.398 118.404 173.579 117.822 174.941 116.725C176.374 115.624 177.862 114.268 179.405 112.657C180.947 111.046 182.48 109.293 184.004 107.396C185.527 105.499 186.915 103.719 188.167 102.056C189.486 100.317 190.569 98.8083 191.416 97.5312C192.335 96.2493 192.961 95.4177 193.294 95.0364C193.694 94.5789 194.106 94.3 194.53 94.1997C195.025 94.0947 195.423 94.1397 195.723 94.3349C196.023 94.5301 196.193 94.9135 196.231 95.4851C196.269 96.0567 196.032 96.7904 195.518 97.6863C194.751 99.1015 193.752 100.784 192.519 102.733C191.281 104.61 189.906 106.569 188.392 108.608C186.878 110.648 185.254 112.659 183.521 114.642C181.86 116.62 180.148 118.385 178.386 119.939C176.696 121.488 175.022 122.749 173.365 123.722C171.784 124.761 170.315 125.326 168.957 125.418C167.957 125.485 166.973 125.264 166.006 124.754C165.11 124.24 164.273 123.543 163.496 122.662C162.72 121.781 162.078 120.784 161.573 119.669C161.139 118.55 160.919 117.416 160.914 116.268C160.952 115.763 161.001 114.898 161.062 113.674C158.287 117.234 155.43 120.118 152.492 122.325C149.621 124.456 146.792 125.615 144.005 125.802C143.005 125.869 141.916 125.691 140.739 125.267C139.562 124.844 138.471 124.092 137.465 123.011C136.531 121.925 135.716 120.473 135.019 118.654C134.323 116.834 133.957 114.598 133.923 111.944C133.859 107.786 134.416 103.801 135.596 99.989C136.775 96.1774 138.346 92.842 140.307 89.9827C142.335 87.0472 144.653 84.7023 147.263 82.9479C149.939 81.1173 152.671 80.1084 155.457 79.9212C156.672 79.8396 157.801 80.0867 158.845 80.6626C159.884 81.1671 160.794 81.8954 161.576 82.8478C162.352 83.7287 162.994 84.7264 163.499 85.8408C164.076 86.9505 164.505 87.9983 164.787 88.9842C165.148 86.8785 165.476 84.8109 165.77 82.7814C166.064 80.7519 166.366 78.8295 166.675 77.0144C167.211 74.3226 167.77 71.4141 168.349 68.2888C168.886 65.597 169.504 62.505 170.202 59.0129C170.901 55.5207 171.695 51.8427 172.584 47.9788C173.26 47.3592 173.91 46.8849 174.534 46.5559C175.157 46.2269 175.75 45.9717 176.312 45.7904C176.941 45.5328 177.541 45.3849 178.113 45.3465C178.827 45.2985 179.478 45.3624 180.064 45.5384C180.645 45.6429 181.141 46.0762 181.551 46.8381C182.027 47.5239 182.388 48.6122 182.631 50.1031C182.875 51.5941 183.012 53.6305 183.042 56.2124C183.11 59.366 182.769 62.8341 182.018 66.6169C181.339 70.3949 180.347 74.3374 179.044 78.4444C177.736 82.4799 176.181 86.568 174.377 90.7086C172.641 94.773 170.713 98.6707 168.595 102.402ZM162.365 104.22C162.56 102.843 162.719 101.469 162.842 100.097C163.037 98.7198 163.264 97.3049 163.526 95.8518C163.388 95.9328 163.25 96.0139 163.111 96.095C163.045 96.1712 162.942 96.2499 162.804 96.3309C162.042 96.741 161.506 96.777 161.197 96.4389C160.882 96.0294 160.696 95.3959 160.638 94.5385C160.609 94.1097 160.523 93.3619 160.38 92.2949C160.232 91.1564 159.94 90.0276 159.506 88.9083C159.139 87.7128 158.605 86.7079 157.904 85.8937C157.199 85.008 156.274 84.6035 155.131 84.6803C153.488 84.7907 151.866 85.761 150.266 87.5911C148.662 89.3497 147.191 91.4941 145.854 94.0243C144.512 96.4831 143.432 99.1037 142.614 101.886C141.796 104.669 141.387 107.136 141.388 109.29C141.476 112.729 142.07 115.165 143.171 116.599C144.272 118.032 145.68 118.691 147.395 118.576C148.682 118.489 150.041 117.896 151.475 116.795C152.979 115.689 154.398 114.373 155.731 112.848C157.136 111.318 158.395 109.762 159.509 108.18C160.694 106.593 161.646 105.273 162.365 104.22ZM242.492 96.5763C241.031 99.402 239.327 102.352 237.38 105.425C235.5 108.423 233.463 111.215 231.268 113.803C229.068 116.319 226.771 118.447 224.376 120.187C221.98 121.927 219.532 122.881 217.031 123.049C214.531 123.217 212.651 122.482 211.392 120.844C210.21 119.273 209.585 117.449 209.518 115.372C209.455 114.443 209.471 113.616 209.566 112.892C209.733 112.163 209.904 111.506 210.08 110.92C210.256 110.334 210.432 109.748 210.608 109.162C210.85 108.499 211.052 107.768 211.214 106.968C211.437 106.02 211.382 105.198 211.048 104.502C210.781 103.731 210.45 103.071 210.054 102.524C209.459 103.281 208.752 103.975 207.933 104.604C207.181 105.157 206.197 105.474 204.982 105.556C204.125 105.614 203.312 105.273 202.545 104.535C201.773 103.726 201.346 102.714 201.265 101.499C201.197 100.499 201.356 99.6627 201.742 98.9908C202.199 98.3141 202.701 97.7779 203.249 97.3823C203.868 96.9818 204.494 96.6885 205.128 96.5024C205.761 96.3163 206.292 96.2088 206.721 96.18C206.935 96.1656 207.367 96.1726 208.014 96.2008C208.734 96.2243 209.491 96.281 210.287 96.3712C212.72 94.1262 214.417 92.146 215.379 90.4306C216.407 88.6389 216.411 87.0954 215.391 85.8002C214.757 84.9097 214.011 84.4933 213.153 84.5509C212.291 84.537 211.412 84.8114 210.517 85.374C209.617 85.8651 208.726 86.4991 207.846 87.276C207.036 88.0482 206.296 88.7798 205.624 89.4709C204.291 90.9959 202.799 92.8188 201.147 94.9395C199.562 96.984 198.24 98.6877 197.184 100.051C196.827 102.228 196.478 104.512 196.137 106.904C195.847 109.005 195.505 111.396 195.111 114.078C194.784 116.684 194.428 119.4 194.044 122.225C193.629 122.468 193.174 122.642 192.679 122.747C192.26 122.919 191.874 123.053 191.522 123.148C191.098 123.248 190.671 123.313 190.243 123.342C189.671 123.38 189.133 123.38 188.628 123.342C188.128 123.376 187.723 123.224 187.413 122.886C187.036 122.624 186.824 122.136 186.776 121.421C186.657 120.712 186.768 119.699 187.11 118.384C187.557 116.488 188.106 113.975 188.757 110.845C189.404 107.643 190.066 104.153 190.746 100.375C191.425 96.5975 192.095 92.6766 192.755 88.6128C193.481 84.4727 194.151 80.5518 194.764 76.8501C195.372 73.0769 195.863 69.7063 196.238 66.7383C196.679 63.6941 196.985 61.3049 197.156 59.5708C197.246 57.6986 197.34 55.8979 197.439 54.1686C197.486 52.73 197.464 51.3318 197.373 49.9742C197.348 48.5403 197.205 47.4733 196.942 46.7732C197.276 46.3919 197.754 46.0368 198.378 45.7078C199.002 45.3787 199.702 45.1164 200.478 44.9207C201.25 44.6535 202.167 44.4125 203.229 44.1976C204.434 43.9731 205.432 43.8701 206.223 43.8888C207.085 43.9027 207.717 44.2191 208.117 44.8382C208.594 45.5239 208.747 46.7339 208.576 48.4679C208.472 50.1258 208.128 52.4816 207.544 55.5355C206.802 59.4611 206.004 63.0677 205.148 66.3551C204.359 69.5663 203.558 72.5988 202.745 75.4527C202.003 78.3018 201.257 81.0794 200.505 83.7856C199.821 86.4155 199.212 89.1121 198.68 91.8753C199.97 89.7072 201.61 87.4078 203.6 84.9773C205.585 82.4754 207.885 80.3829 210.499 78.7C213.257 77.0075 215.564 76.0988 217.422 75.974C219.709 75.8204 221.405 76.496 222.511 78.0008C223.612 79.4341 224.196 81.1892 224.264 83.2662C224.303 84.9144 223.978 86.4795 223.288 87.9613C222.664 89.367 221.857 90.7131 220.867 91.9998C219.872 93.2151 218.796 94.2922 217.639 95.2313C216.482 96.1703 215.494 96.9545 214.675 97.5837C215.714 98.0881 216.624 98.8165 217.406 99.7689C218.254 100.645 218.69 101.8 218.715 103.234C218.773 105.168 218.495 106.909 217.882 108.458C217.334 109.93 217.102 111.273 217.183 112.488C217.317 113.412 217.541 114.079 217.856 114.489C218.242 114.893 218.971 115.06 220.043 114.988C221.972 114.858 223.918 113.902 225.879 112.119C227.913 110.332 229.786 108.304 231.5 106.036C233.214 103.767 234.787 101.544 236.22 99.3663C237.648 97.1171 238.757 95.4635 239.547 94.4056C240.675 93.0378 241.654 92.6491 242.483 93.2394C243.379 93.7534 243.382 94.8657 242.492 96.5763ZM284.335 92.7966C282.402 96.0845 280.179 99.3202 277.666 102.504C275.147 105.616 272.431 108.454 269.517 111.018C266.669 113.506 263.686 115.573 260.567 117.218C257.519 118.858 254.494 119.779 251.493 119.981C249.921 120.086 248.18 119.809 246.269 119.147C244.435 118.553 242.715 117.52 241.109 116.049C239.502 114.578 238.151 112.623 237.054 110.184C236.029 107.741 235.575 104.721 235.692 101.124C235.781 98.1756 236.468 95.0431 237.752 91.7269C239.103 88.3344 240.795 85.2062 242.828 82.3421C244.932 79.4733 247.317 77.0521 249.984 75.0786C252.722 73.1003 255.52 72.0151 258.379 71.8231C261.094 71.6407 263.104 72.1875 264.41 73.4635C265.716 74.7395 266.365 76.3827 266.356 78.393C266.291 80.6225 265.784 82.7021 264.837 84.6319C263.962 86.5569 262.86 88.3176 261.532 89.9141C260.203 91.5107 258.758 92.9715 257.197 94.2966C255.706 95.6169 254.28 96.8252 252.918 97.9216C251.418 99.099 249.987 100.236 248.625 101.332C247.259 102.357 246.066 103.299 245.047 104.157C245.238 105.938 245.661 107.417 246.314 108.593C246.967 109.77 247.749 110.722 248.659 111.45C249.565 112.107 250.565 112.578 251.661 112.864C252.823 113.073 253.976 113.139 255.12 113.062C257.549 112.899 260.035 111.978 262.578 110.3C265.116 108.55 267.564 106.52 269.921 104.208C272.344 101.82 274.549 99.3755 276.534 96.8735C278.591 94.3667 280.276 92.2079 281.59 90.397C282.051 89.7918 282.53 89.4367 283.025 89.3316C283.587 89.1503 284.021 89.1929 284.326 89.4596C284.698 89.6499 284.905 90.0666 284.948 90.7097C284.987 91.2814 284.782 91.977 284.335 92.7966ZM255.788 78.134C254.93 78.1916 253.923 78.6899 252.766 79.6289C251.68 80.5632 250.621 81.8904 249.588 83.6106C248.551 85.2594 247.611 87.2964 246.769 89.7216C245.922 92.0753 245.349 94.7694 245.051 97.8041C245.865 97.1034 246.751 96.3979 247.708 95.6876C248.66 94.9059 249.61 94.0885 250.558 93.2353C253.472 90.6709 255.476 88.4547 256.571 86.5868C257.666 84.7189 258.241 83.137 258.298 81.8413C258.35 80.474 258.142 79.519 257.675 78.9762C257.203 78.3619 256.574 78.0812 255.788 78.134ZM262.755 50.427C263.365 49.8836 264.081 49.8713 264.906 50.3901C265.73 50.909 266.359 51.728 266.794 52.8473C267.395 54.3142 267.507 55.455 267.131 56.2698C266.75 57.0132 266.151 57.6994 265.331 58.3287C264.927 58.7147 264.139 59.2701 262.967 59.9948C261.867 60.7147 260.627 61.4799 259.245 62.2904C257.931 63.0247 256.614 63.7233 255.295 64.3861C253.971 64.9775 252.954 65.3329 252.244 65.4523C251.463 65.5766 250.851 65.5459 250.408 65.3604C249.96 65.1033 249.581 64.8058 249.271 64.4677C249.033 64.1249 248.864 63.7415 248.763 63.3176C248.658 62.8222 248.594 62.3959 248.57 62.0386C253.884 57.8057 257.593 54.7931 259.698 53.0009C260.922 51.9856 261.941 51.1276 262.755 50.427ZM363.451 92.5421C362.999 93.2902 362.246 94.3815 361.194 95.8159C360.214 97.2455 358.99 98.7991 357.524 100.477C356.129 102.149 354.489 103.911 352.603 105.76C350.784 107.533 348.813 109.173 346.689 110.679C346.514 112.342 346.134 114.7 345.55 117.754C344.97 120.879 344.157 124.271 343.111 127.93C342.065 131.589 340.807 135.299 339.336 139.058C337.871 142.889 336.168 146.377 334.226 149.522C332.36 152.733 330.239 155.352 327.863 157.378C325.492 159.475 322.913 160.617 320.126 160.805C317.339 160.992 315.129 160.674 313.494 159.85C311.86 159.027 310.635 157.889 309.82 156.437C308.938 155.06 308.365 153.484 308.102 151.707C307.844 150.002 307.696 148.325 307.657 146.677C307.584 144.528 308.059 141.984 309.082 139.045C310.11 136.176 311.597 133.205 313.543 130.132C315.567 127.125 318.026 124.196 320.92 121.346C323.82 118.567 327.104 116.158 330.771 114.117C332.576 113.206 334.24 112.341 335.764 111.521C337.283 110.629 338.698 109.78 340.007 108.975C340.42 106.578 340.351 105.004 339.798 104.251C339.316 103.494 338.647 103.144 337.789 103.202C336.503 103.288 335.005 103.963 333.296 105.227C331.658 106.485 329.634 108.415 327.225 111.018C326.515 111.137 325.867 111.109 325.281 110.933C324.762 110.681 324.311 110.388 323.93 110.055C323.477 109.726 323.091 109.321 322.772 108.84C321.904 107.678 321.466 106.488 321.455 105.268C321.517 104.044 322.024 103.041 322.976 102.259C323.923 101.406 325.304 100.057 327.118 98.2127C328.999 96.2919 330.777 93.9115 332.452 91.0715C332.971 90.2471 333.585 89.2369 334.294 88.0408C335.07 86.7685 335.806 85.4272 336.5 84.0168C337.262 82.5301 337.949 81.0125 338.563 79.464C339.248 77.9106 339.76 76.4408 340.097 75.0544C338.654 74.936 336.584 75.1109 333.888 75.5791C332.478 75.9609 330.963 76.3857 329.344 76.8533C327.939 77.3066 326.327 77.8815 324.507 78.5779C322.759 79.2695 320.919 80.1827 318.985 81.3175C318.69 81.1937 318.456 80.9223 318.284 80.5032C318.113 80.0841 317.972 79.5911 317.862 79.0243C317.747 78.386 317.664 77.6739 317.611 76.8879C317.544 75.8875 317.631 75.0562 317.874 74.3939C318.183 73.6554 318.574 73.055 319.045 72.5926C319.516 72.1303 320.031 71.7728 320.588 71.52C321.14 71.1958 321.626 70.9479 322.045 70.7761C322.536 70.5996 323.488 70.3562 324.903 70.0458C326.384 69.6592 328.047 69.2963 329.89 68.9572C331.734 68.618 333.653 68.3455 335.649 68.1397C337.64 67.8624 339.46 67.7042 341.108 67.6653C344.481 67.6541 346.62 67.9769 347.525 68.6338C348.497 69.2145 348.817 70.2338 348.484 71.6917C348.08 73.1543 347.279 75.6486 346.08 79.1743C344.877 82.6286 342.959 86.6693 340.327 91.2962C339.223 93.0212 338.218 94.6319 337.314 96.1281C336.41 97.6244 335.529 98.9396 334.672 100.074C335.848 99.4206 337.034 98.9103 338.23 98.5429C339.421 98.104 340.623 97.8438 341.838 97.7622C343.481 97.6518 344.606 98.3658 345.212 99.9041C345.889 101.438 346.326 103.131 346.522 104.984C349.26 103.006 351.67 100.942 353.75 98.7923C355.902 96.638 358.159 93.9024 360.52 90.5857C361.11 89.7565 361.651 89.2536 362.141 89.0771C362.703 88.8958 363.139 88.9742 363.449 89.3123C363.754 89.5789 363.928 90.0337 363.971 90.6768C364.01 91.2484 363.836 91.8702 363.451 92.5421ZM338.225 117.707C338.33 117.126 338.437 116.581 338.546 116.071C338.732 115.628 338.879 115.151 338.988 114.642C335.412 116.963 332.164 119.371 329.245 121.864C326.331 124.428 323.817 127.073 321.704 129.799C319.661 132.52 318.091 135.317 316.992 138.19C315.893 141.063 315.368 143.934 315.417 146.802C315.461 148.521 315.809 149.969 316.462 151.146C317.187 152.317 318.335 152.85 319.907 152.744C321.622 152.629 323.36 151.256 325.122 148.626C326.959 146.062 328.687 142.931 330.305 139.234C331.999 135.603 333.538 131.803 334.922 127.834C336.311 123.937 337.412 120.561 338.225 117.707ZM408.664 127.726C406.873 127.774 405.239 126.951 403.761 125.256C402.284 123.56 400.949 121.317 399.756 118.527C398.564 115.736 397.488 112.542 396.529 108.946C395.641 105.345 394.858 101.701 394.18 98.0143C393.496 94.2561 392.966 90.6312 392.588 87.1395C392.205 83.5765 391.922 80.4373 391.74 77.7221C391.523 73.4301 391.55 69.0141 391.819 64.4741C392.155 59.8579 392.546 55.525 392.991 51.4757C393.508 47.4215 394.021 43.8341 394.529 40.7136C395.104 37.5168 395.527 35.2634 395.798 33.9532C396.159 31.8475 396.744 30.4085 397.553 29.6364C398.358 28.7928 399.935 28.2204 402.283 27.9191L404.855 27.7463C405.575 27.7697 406.294 27.7932 407.013 27.8166C407.733 27.8401 408.388 27.9755 408.978 28.2229C406.752 33.5404 405.03 38.8957 403.813 44.2888C402.596 49.682 401.737 55.0512 401.235 60.3963C400.732 65.7415 400.547 70.9936 400.678 76.1526C400.805 81.2403 401.1 86.1729 401.565 90.9507C401.962 94.7282 402.414 98.2507 402.92 101.518C403.422 104.715 404.107 107.97 404.976 111.285C405.84 114.529 406.717 116.372 407.609 116.815C408.5 117.257 409.369 116.84 410.216 115.563C411.068 114.357 411.846 112.582 412.55 110.238C413.33 107.961 413.965 105.657 414.454 103.328C414.782 101.798 415.281 99.6114 415.952 96.7671C416.617 93.8514 417.37 90.6426 418.212 87.1408C419.053 83.6391 419.921 79.992 420.814 76.1996C421.78 72.4024 422.657 68.8983 423.446 65.6871C424.23 62.4045 424.9 59.5602 425.457 57.1542C426.084 54.7435 426.514 53.1355 426.747 52.3303C427.099 51.1582 427.565 49.5479 428.146 47.4992C428.792 45.3742 429.47 43.1754 430.179 40.9028C430.954 38.5538 431.732 36.2407 432.512 33.9632C433.359 31.6095 434.153 29.5464 434.895 27.7739C435.642 26.0729 436.542 25.0434 437.595 24.6856C438.647 24.3278 439.695 24.4369 440.739 25.0127C441.849 25.5124 442.874 26.3407 443.813 27.4978C444.823 28.6502 445.693 29.8478 446.423 31.0908C445.518 31.5104 444.613 32.4684 443.709 33.9647C442.871 35.3847 442.112 36.9071 441.432 38.5319C440.628 40.452 439.869 42.5127 439.156 44.714C438.69 46.3243 438.078 48.4469 437.322 51.0816C436.566 53.7163 435.755 56.606 434.89 59.7505C434.096 62.8902 433.238 66.1418 432.315 69.5055C431.464 72.8644 430.637 76.0422 429.834 79.039C429.03 82.0358 428.279 84.742 427.58 87.1575C426.947 89.4968 426.419 91.2549 425.996 92.4318C425.397 94.1947 424.709 96.2506 423.934 98.5995C423.154 100.877 422.307 103.231 421.394 105.661C420.552 108.086 419.672 110.478 418.754 112.836C417.84 115.266 416.91 117.446 415.963 119.376C414.645 122.192 413.491 124.243 412.501 125.53C411.587 126.883 410.308 127.615 408.664 127.726ZM497.688 79.4333C496.784 80.9296 495.618 82.8023 494.19 85.0515C492.757 87.2293 491.255 89.4476 489.684 91.7064C488.18 93.8889 486.666 95.9286 485.143 97.8253C483.686 99.6458 482.446 100.949 481.422 101.736C480.736 102.213 479.939 102.625 479.029 102.973C478.119 103.321 477.167 103.565 476.171 103.704C475.247 103.837 474.349 103.826 473.477 103.669C472.61 103.584 471.841 103.348 471.169 102.963C470.492 102.506 469.908 101.827 469.417 100.927C469.007 100.165 468.58 99.1533 468.136 97.8911C467.764 96.6241 467.549 95.0236 467.491 93.0896C465.968 96.0629 464.223 98.4052 462.257 100.116C460.285 101.756 458.395 102.996 456.585 103.835C454.494 104.765 452.382 105.373 450.248 105.66C449.247 105.727 448.152 105.442 446.96 104.804C445.774 104.238 444.74 103.267 443.858 101.891C442.971 100.443 442.344 98.583 441.976 96.3109C441.603 93.9673 441.701 91.1614 442.271 87.8932C442.979 83.4674 444.285 79.3961 446.188 75.6794C448.163 71.9579 450.353 68.7604 452.757 66.0867C455.157 63.3416 457.564 61.2419 459.978 59.7878C462.393 58.3336 464.427 57.6228 466.08 57.6553C468.033 57.8829 469.643 58.349 470.911 59.0534C471.959 59.7007 472.674 60.7293 473.056 62.1392C473.504 63.4728 473.055 65.3333 471.708 67.7206C472.694 67.439 473.506 67.2409 474.145 67.1262C474.854 67.0068 475.388 66.9351 475.745 66.9111C476.174 66.8823 476.462 66.8988 476.61 66.9607C476.691 67.0988 476.748 67.4179 476.782 67.9181C476.811 68.3468 476.759 69.1757 476.626 70.4048C476.493 71.6339 476.282 73.299 475.992 75.3999C475.703 77.5009 475.311 80.2188 474.817 83.5536C474.718 84.2063 474.616 84.8233 474.511 85.4045C474.473 85.9095 474.402 86.4526 474.298 87.0338C474.26 87.5388 474.193 88.1533 474.098 88.8775C474.004 89.6016 473.885 90.5068 473.743 91.593C473.714 92.2409 473.727 92.9578 473.779 93.7438C473.899 94.4535 474.087 95.1227 474.345 95.7514C474.602 96.3801 474.96 96.8944 475.418 97.2943C475.942 97.618 476.632 97.751 477.49 97.6934C478.204 97.6454 479.105 97.1543 480.19 96.2201C481.271 95.2144 482.409 93.9895 483.604 92.5455C484.794 91.03 486.013 89.405 487.26 87.6703C488.574 85.8595 489.785 84.1272 490.895 82.4736C492.004 80.8201 492.982 79.3547 493.829 78.0776C494.748 76.7957 495.402 75.8545 495.793 75.2541C496.321 74.5726 496.869 74.177 497.436 74.0671C497.998 73.8858 498.436 73.9999 498.751 74.4094C499.065 74.819 499.144 75.4596 498.987 76.3315C498.902 77.1985 498.469 78.2325 497.688 79.4333ZM466.601 86.2588C466.863 84.8058 467.179 83.0978 467.549 81.135C467.92 79.1721 468.224 77.2855 468.461 75.4752C468.698 73.6649 468.85 72.1833 468.916 71.0304C469.049 69.8013 468.975 69.2321 468.694 69.3227C468.341 69.4182 467.955 69.5517 467.536 69.7235C467.189 69.8904 466.731 70.0287 466.164 70.1386C465.598 70.2484 465.033 70.394 464.471 70.5753C464.966 69.3937 465.225 68.4432 465.249 67.7238C465.339 66.9283 465.334 66.3185 465.233 65.8946C465.128 65.3992 464.959 65.0158 464.725 64.7444C463.896 64.1541 462.539 64.7836 460.653 66.6329C458.835 68.4059 456.79 71.6296 454.52 76.304C453.573 78.2338 452.85 80.2921 452.351 82.4789C451.847 84.5942 451.515 86.5904 451.354 88.4674C451.264 90.3396 451.339 91.9854 451.578 93.4049C451.812 94.7529 452.158 95.6269 452.615 96.0268C453.454 96.76 454.374 97.093 455.374 97.0258C456.37 96.8871 457.351 96.5341 458.317 95.9668C459.351 95.3231 460.339 94.539 461.282 93.6144C462.296 92.6849 463.165 91.7293 463.888 90.7476C464.683 89.7612 465.305 88.8581 465.752 88.0385C466.271 87.2141 466.554 86.6209 466.601 86.2588ZM490.217 99.6377C492.473 86.2076 494.261 75.4288 495.581 67.3012C496.973 59.1688 498.028 52.9611 498.745 48.6781C499.552 43.5996 500.105 40.0813 500.404 38.1232C500.527 36.7512 500.617 35.4173 500.674 34.1216C500.74 32.9687 500.732 31.7849 500.651 30.5702C500.569 29.3555 500.387 28.2552 500.106 27.2692C500.653 26.8736 501.242 26.547 501.87 26.2894C502.57 26.027 503.237 25.8028 503.871 25.6167C504.642 25.3495 505.416 25.1181 506.193 24.9224C506.969 24.7267 507.679 24.6072 508.322 24.564C508.893 24.5256 509.434 24.5611 509.944 24.6704C510.449 24.7083 510.785 24.901 510.952 25.2487C511.405 25.5771 511.631 26.2797 511.632 27.3563C511.704 28.4281 511.707 29.5404 511.641 30.6933C511.446 32.0701 511.223 33.5565 510.971 35.1525C510.32 38.2826 509.439 42.7919 508.327 48.6804C507.372 53.6971 506.073 60.5314 504.429 69.1831C502.856 77.8301 500.861 88.7305 498.443 101.884C498.11 102.266 497.698 102.545 497.207 102.721C496.717 102.898 496.257 103 495.828 103.029C495.328 103.063 494.79 103.063 494.213 103.03C493.704 102.921 493.189 102.74 492.67 102.488C492.222 102.231 491.767 101.866 491.304 101.395C490.847 100.995 490.484 100.409 490.217 99.6377ZM569.499 74.6094C568.595 76.1056 567.429 77.9784 566.001 80.2276C564.568 82.4053 563.066 84.6236 561.495 86.8824C559.991 89.065 558.477 91.1046 556.954 93.0014C555.497 94.8218 554.257 96.1254 553.233 96.9119C552.547 97.3886 551.749 97.8011 550.84 98.1493C549.93 98.4975 548.977 98.7409 547.982 98.8796C547.058 99.0134 546.16 99.002 545.288 98.8452C544.421 98.7599 543.651 98.5245 542.98 98.139C542.303 97.682 541.719 97.0035 541.228 96.1034C540.818 95.3414 540.391 94.3293 539.947 93.0671C539.575 91.8002 539.36 90.1997 539.302 88.2656C537.779 91.239 536.034 93.5812 534.068 95.2924C532.096 96.9321 530.206 98.1717 528.396 99.011C526.305 99.941 524.193 100.549 522.059 100.836C521.058 100.904 519.962 100.618 518.771 99.9805C517.585 99.4142 516.551 98.443 515.669 97.0667C514.782 95.619 514.154 93.759 513.786 91.4869C513.414 89.1434 513.512 86.3375 514.082 83.0693C514.79 78.6434 516.095 74.5721 517.999 70.8555C519.974 67.134 522.164 63.9364 524.568 61.2627C526.968 58.5176 529.375 56.418 531.789 54.9638C534.204 53.5096 536.237 52.7988 537.89 52.8313C539.844 53.059 541.454 53.525 542.722 54.2294C543.77 54.8767 544.485 55.9054 544.867 57.3152C545.315 58.6488 544.866 60.5093 543.519 62.8966C544.505 62.6151 545.317 62.417 545.955 62.3023C546.665 62.1828 547.199 62.1111 547.556 62.0871C547.985 62.0583 548.273 62.0748 548.421 62.1367C548.502 62.2748 548.559 62.5939 548.593 63.0941C548.621 63.5228 548.569 64.3518 548.437 65.5809C548.304 66.81 548.093 68.475 547.803 70.576C547.514 72.6769 547.122 75.3948 546.628 78.7297C546.529 79.3824 546.426 79.9993 546.322 80.5806C546.284 81.0855 546.213 81.6286 546.108 82.2099C546.071 82.7148 546.004 83.3294 545.909 84.0535C545.814 84.7777 545.696 85.6828 545.553 86.769C545.525 87.4169 545.537 88.1338 545.59 88.9198C545.71 89.6296 545.898 90.2988 546.156 90.9275C546.413 91.5561 546.771 92.0704 547.228 92.4704C547.753 92.794 548.443 92.9271 549.301 92.8695C550.015 92.8215 550.915 92.3304 552.001 91.3961C553.082 90.3904 554.22 89.1656 555.415 87.7215C556.605 86.2061 557.824 84.581 559.071 82.8464C560.385 81.0355 561.596 79.3033 562.705 77.6497C563.814 75.9961 564.793 74.5308 565.64 73.2537C566.559 71.9718 567.213 71.0306 567.604 70.4302C568.132 69.7487 568.68 69.353 569.246 69.2432C569.808 69.0619 570.247 69.176 570.561 69.5855C570.876 69.995 570.955 70.6357 570.798 71.5075C570.713 72.3746 570.28 73.4085 569.499 74.6094ZM538.412 81.4349C538.673 79.9818 538.989 78.2739 539.36 76.311C539.731 74.3482 540.034 72.4616 540.272 70.6512C540.509 68.8409 540.661 67.3593 540.727 66.2064C540.86 64.9773 540.785 64.4081 540.504 64.4988C540.152 64.5942 539.766 64.7278 539.347 64.8995C538.999 65.0664 538.542 65.2048 537.975 65.3146C537.408 65.4245 536.844 65.5701 536.282 65.7514C536.777 64.5697 537.036 63.6192 537.059 62.8999C537.15 62.1043 537.144 61.4945 537.044 61.0706C536.939 60.5753 536.77 60.1919 536.536 59.9204C535.707 59.3302 534.35 59.9597 532.464 61.8089C530.645 63.582 528.601 66.8057 526.331 71.48C525.384 73.4098 524.661 75.4681 524.162 77.6549C523.658 79.7703 523.326 81.7665 523.165 83.6435C523.075 85.5157 523.15 87.1615 523.389 88.581C523.623 89.929 523.969 90.8029 524.426 91.2029C525.265 91.9361 526.184 92.269 527.185 92.2018C528.18 92.0632 529.161 91.7102 530.128 91.1428C531.162 90.4992 532.15 89.715 533.092 88.7904C534.107 87.861 534.976 86.9054 535.699 85.9237C536.494 84.9372 537.115 84.0342 537.563 83.2146C538.082 82.3902 538.365 81.797 538.412 81.4349ZM578.619 91.7613C579.066 92.0183 579.612 92.1253 580.255 92.0821C580.97 92.0341 581.639 91.8456 582.263 91.5165C582.958 91.1827 583.575 90.7465 584.113 90.208C584.722 89.6646 585.143 88.9903 585.376 88.1851C585.61 87.3799 585.535 86.2724 585.153 84.8625C584.767 83.3812 584.197 81.8404 583.443 80.2402C582.756 78.5637 581.998 76.892 581.168 75.2251C580.339 73.5582 579.626 72.0271 579.029 70.6316C578.529 69.5886 578.104 68.6122 577.756 67.7025C577.417 66.9358 577.081 66.2047 576.747 65.5094C576.48 64.7378 576.266 64.2139 576.104 63.9377C575.785 64.5333 575.204 65.5054 574.361 66.8539C573.59 68.1977 572.717 69.6201 571.741 71.1212C570.832 72.546 569.954 73.897 569.107 75.1741C568.254 76.3797 567.664 77.2089 567.336 77.6616C566.807 78.3431 566.262 78.7745 565.7 78.9558C565.205 79.0609 564.769 78.9825 564.392 78.7207C564.011 78.3874 563.765 77.9374 563.656 77.3705C563.612 76.7275 563.848 75.958 564.362 75.0622C564.752 74.4617 565.335 73.5254 566.111 72.253C566.882 70.9093 567.653 69.5655 568.424 68.2218C569.19 66.8065 569.897 65.5748 570.545 64.5264C571.187 63.4066 571.537 62.7371 571.594 62.518C571.698 61.9367 571.434 61.2009 570.8 60.3104C570.237 59.4151 570.094 58.3481 570.369 57.1094C570.588 56.0898 571.154 54.9034 572.068 53.55C572.977 52.1252 574.075 50.8313 575.36 49.6683C576.646 48.5053 577.986 47.6257 579.382 47.0295C580.773 46.3619 582.059 46.2755 583.24 46.7703C584.208 47.2795 585.001 47.8722 585.621 48.5484C586.236 49.153 586.496 49.8174 586.401 50.5416C586.282 50.9085 586.099 51.3873 585.851 51.9781C585.604 52.569 585.223 53.3123 584.709 54.2081C584.19 55.0325 583.438 56.1238 582.453 57.482C582.777 59.111 583.164 60.5923 583.613 61.9259C584.132 63.2548 584.605 64.4073 585.029 65.3837C585.539 66.5696 586.078 67.6459 586.646 68.6127C587.375 69.8556 588.143 71.1319 588.948 72.4415C589.754 73.7512 590.488 75.0656 591.151 76.3848C591.809 77.6326 592.355 78.8161 592.789 79.9353C593.224 81.0546 593.395 82.012 593.305 82.8076C593.173 84.0367 592.628 85.5447 591.671 87.3316C590.786 89.1137 589.613 90.8792 588.151 92.6283C586.756 94.301 585.097 95.7763 583.173 97.0539C581.321 98.3268 579.323 99.0352 577.179 99.1792C575.678 99.28 574.182 98.9139 572.691 98.081C571.271 97.2433 570.02 96.2507 568.938 95.1032C567.923 93.8795 567.124 92.677 566.542 91.4959C566.032 90.31 565.934 89.3835 566.248 88.7164C566.619 87.8302 566.967 87.125 567.29 86.6008C567.614 86.0766 568.111 85.469 568.783 84.7779C569.054 84.5444 569.395 84.2703 569.804 83.9557C570.147 83.7173 570.633 83.4693 571.261 83.2118C571.89 82.9542 572.624 82.6537 573.462 82.3103C574.325 84.4774 575.086 86.1848 575.744 87.4326C576.397 88.6089 576.926 89.5423 577.332 90.2328C577.813 90.99 578.242 91.4995 578.619 91.7613ZM572.721 31.2197C571.935 30.1959 571.232 29.3459 570.612 28.6698C569.988 27.9222 569.23 27.3271 568.339 26.8845C568.815 26.4937 569.41 26.2742 570.125 26.2262C570.906 26.102 571.654 26.0158 572.369 25.9678C573.159 25.9865 574.022 26.0003 574.955 26.0094C576.323 26.0611 577.466 26.5226 578.386 27.3939C579.377 28.2604 580.605 29.9723 582.068 32.5297C582.073 32.6012 582.078 32.6726 582.083 32.7441C582.154 32.7393 582.192 32.7726 582.197 32.8441C584.697 30.5229 586.385 28.9381 587.261 28.0897C588.204 27.165 588.742 26.6265 588.875 26.474C590.027 25.4635 591.18 24.9913 592.333 25.0574C593.486 25.1235 594.56 25.0872 595.556 24.9486L596.842 24.8622C597.199 24.8382 597.592 24.8118 598.021 24.783C598.445 24.6827 598.833 24.5849 599.185 24.4894C598.852 24.8707 598.281 25.4474 597.471 26.2195C596.657 26.9202 595.809 27.659 594.928 28.4359C593.909 29.2939 592.826 30.2639 591.679 31.3458C591.274 31.7319 590.734 32.2347 590.057 32.8544C589.381 33.474 588.669 34.096 587.922 34.7205C587.246 35.3401 586.603 35.9216 585.993 36.465C585.451 36.9321 585.041 37.2467 584.765 37.4088C584.565 37.6376 584.077 37.8498 583.3 38.0455C582.519 38.1698 581.7 38.2607 580.842 38.3183C579.985 38.3759 579.158 38.3596 578.363 38.2695C577.639 38.1746 577.198 38.0248 577.041 37.82C576.883 37.6153 576.604 37.2033 576.204 36.5843C575.804 35.9652 575.365 35.3128 574.888 34.627C574.407 33.8698 573.966 33.1817 573.565 32.5626C573.165 31.9435 572.883 31.4959 572.721 31.2197ZM617.203 89.1694C617.651 89.4264 618.197 89.5333 618.84 89.4901C619.555 89.4421 620.224 89.2536 620.848 88.9246C621.543 88.5908 622.16 88.1546 622.698 87.616C623.307 87.0726 623.728 86.3983 623.961 85.5931C624.194 84.7879 624.12 83.6804 623.738 82.2705C623.352 80.7892 622.782 79.2484 622.028 77.6482C621.341 75.9717 620.583 74.3 619.753 72.6332C618.923 70.9663 618.211 69.4351 617.614 68.0396C617.114 66.9966 616.689 66.0203 616.341 65.1106C616.002 64.3438 615.666 63.6127 615.332 62.9174C615.065 62.1458 614.851 61.6219 614.688 61.3457C614.37 61.9413 613.789 62.9134 612.946 64.262C612.175 65.6057 611.302 67.0281 610.326 68.5292C609.417 69.954 608.539 71.305 607.691 72.5821C606.839 73.7878 606.249 74.6169 605.921 75.0697C605.392 75.7512 604.847 76.1825 604.285 76.3639C603.79 76.4689 603.354 76.3905 602.977 76.1287C602.596 75.7954 602.35 75.3454 602.24 74.7786C602.197 74.1355 602.433 73.366 602.947 72.4702C603.337 71.8698 603.92 70.9334 604.696 69.6611C605.467 68.3173 606.238 66.9735 607.009 65.6298C607.775 64.2146 608.482 62.9828 609.129 61.9344C609.772 60.8146 610.122 60.1452 610.179 59.926C610.283 59.3448 610.019 58.6089 609.385 57.7184C608.822 56.8231 608.679 55.7561 608.954 54.5174C609.173 53.4978 609.739 52.3114 610.653 50.958C611.562 49.5332 612.66 48.2393 613.945 47.0763C615.231 45.9133 616.571 45.0337 617.967 44.4375C619.358 43.7699 620.644 43.6835 621.825 44.1783C622.793 44.6876 623.586 45.2802 624.206 45.9564C624.821 46.5611 625.08 47.2255 624.986 47.9496C624.867 48.3165 624.684 48.7953 624.436 49.3862C624.189 49.977 623.808 50.7203 623.294 51.6162C622.775 52.4405 622.023 53.5318 621.038 54.89C621.362 56.519 621.749 58.0003 622.197 59.334C622.717 60.6628 623.19 61.8154 623.614 62.7917C624.124 63.9776 624.663 65.054 625.231 66.0207C625.96 67.2637 626.728 68.54 627.533 69.8496C628.339 71.1592 629.073 72.4736 629.736 73.7928C630.394 75.0406 630.94 76.2241 631.374 77.3434C631.808 78.4626 631.98 79.42 631.89 80.2156C631.758 81.4447 631.213 82.9527 630.256 84.7396C629.371 86.5217 628.198 88.2873 626.736 90.0363C625.341 91.7091 623.682 93.1843 621.758 94.4619C619.905 95.7348 617.907 96.4432 615.764 96.5872C614.263 96.688 612.767 96.322 611.276 95.4891C609.856 94.6514 608.605 93.6588 607.523 92.5113C606.508 91.2875 605.709 90.0851 605.127 88.9039C604.617 87.718 604.519 86.7915 604.833 86.1245C605.204 85.2382 605.551 84.533 605.875 84.0088C606.199 83.4847 606.696 82.877 607.368 82.186C607.639 81.9524 607.979 81.6783 608.389 81.3637C608.732 81.1253 609.218 80.8774 609.846 80.6198C610.475 80.3622 611.208 80.0618 612.047 79.7183C612.91 81.8854 613.671 83.5928 614.329 84.8406C614.982 86.0169 615.511 86.9503 615.917 87.6409C616.398 88.398 616.827 88.9075 617.203 89.1694ZM694.471 66.2143C693.01 69.0399 691.307 71.9895 689.36 75.0631C687.48 78.0604 685.442 80.853 683.247 83.4408C681.048 85.9572 678.75 88.0854 676.355 89.8254C673.96 91.5653 671.512 92.5193 669.011 92.6873C666.51 92.8553 664.63 92.1203 663.372 90.4822C662.19 88.9108 661.565 87.0866 661.497 85.0096C661.435 84.0807 661.451 83.2542 661.546 82.5301C661.712 81.8011 661.883 81.1436 662.059 80.5576C662.235 79.9716 662.411 79.3856 662.587 78.7995C662.83 78.1373 663.032 77.4059 663.193 76.6055C663.417 75.6574 663.362 74.8357 663.028 74.1404C662.761 73.3688 662.429 72.7092 662.033 72.1616C661.438 72.9193 660.731 73.6128 659.912 74.242C659.16 74.795 658.176 75.1123 656.962 75.1939C656.104 75.2515 655.292 74.9113 654.524 74.1733C653.752 73.3638 653.325 72.3518 653.244 71.137C653.177 70.1367 653.336 69.3006 653.721 68.6287C654.178 67.952 654.681 67.4158 655.228 67.0202C655.847 66.6197 656.474 66.3264 657.107 66.1403C657.741 65.9542 658.272 65.8468 658.7 65.818C658.915 65.8036 659.346 65.8105 659.994 65.8387C660.713 65.8622 661.471 65.919 662.266 66.0091C664.699 63.7641 666.397 61.7839 667.358 60.0685C668.386 58.2768 668.39 56.7334 667.37 55.4381C666.736 54.5477 665.99 54.1312 665.133 54.1888C664.27 54.1749 663.392 54.4493 662.496 55.0119C661.596 55.503 660.706 56.137 659.825 56.914C659.015 57.6861 658.275 58.4177 657.604 59.1088C656.271 60.6339 654.778 62.4567 653.126 64.5774C651.541 66.6219 650.22 68.3256 649.163 69.6886C648.807 71.8658 648.458 74.1501 648.116 76.5417C647.827 78.6427 647.485 81.0342 647.091 83.7164C646.763 86.3223 646.407 89.0378 646.023 91.8629C645.609 92.1061 645.154 92.2802 644.659 92.3853C644.239 92.557 643.854 92.6905 643.501 92.786C643.077 92.8862 642.651 92.9508 642.222 92.9796C641.651 93.018 641.112 93.0182 640.607 92.9804C640.107 93.014 639.702 92.8618 639.392 92.5237C639.016 92.2619 638.804 91.7737 638.756 91.0592C638.636 90.3494 638.748 89.3371 639.09 88.0221C639.537 86.1259 640.086 83.6128 640.737 80.4827C641.383 77.2811 642.046 73.7914 642.725 70.0134C643.404 66.2354 644.074 62.3145 644.734 58.2507C645.461 54.1106 646.131 50.1898 646.743 46.488C647.351 42.7148 647.842 39.3443 648.217 36.3763C648.659 33.332 648.965 30.9428 649.135 29.2088C649.225 27.3366 649.319 25.5358 649.418 23.8065C649.465 22.3679 649.443 20.9697 649.352 19.6121C649.327 18.1782 649.184 17.1112 648.922 16.4111C649.255 16.0298 649.733 15.6747 650.357 15.3457C650.981 15.0167 651.681 14.7543 652.458 14.5586C653.229 14.2914 654.146 14.0504 655.208 13.8355C656.414 13.611 657.412 13.5081 658.202 13.5267C659.065 13.5406 659.696 13.857 660.096 14.4761C660.573 15.1619 660.726 16.3718 660.556 18.1059C660.452 19.7637 660.107 22.1195 659.523 25.1734C658.782 29.0991 657.983 32.7056 657.128 35.993C656.338 39.2042 655.537 42.2367 654.724 45.0906C653.982 47.9397 653.236 50.7173 652.485 53.4235C651.8 56.0534 651.192 58.75 650.659 61.5132C651.949 59.3451 653.589 57.0457 655.579 54.6152C657.564 52.1133 659.864 50.0208 662.479 48.3379C665.236 46.6454 667.544 45.7367 669.401 45.6119C671.688 45.4583 673.384 46.1339 674.49 47.6387C675.591 49.072 676.176 50.8272 676.243 52.9041C676.282 54.5523 675.957 56.1174 675.267 57.5993C674.644 59.0049 673.837 60.351 672.847 61.6378C671.852 62.853 670.776 63.9302 669.618 64.8692C668.461 65.8082 667.473 66.5924 666.654 67.2216C667.693 67.726 668.603 68.4544 669.385 69.4068C670.233 70.2829 670.67 71.4379 670.694 72.8717C670.752 74.8058 670.475 76.5471 669.861 78.0956C669.314 79.5678 669.081 80.9113 669.163 82.126C669.297 83.0501 669.521 83.717 669.835 84.1265C670.221 84.5312 670.95 84.6976 672.022 84.6256C673.951 84.496 675.897 83.5398 677.859 81.7572C679.892 79.9698 681.765 77.9419 683.479 75.6735C685.193 73.4051 686.766 71.182 688.199 69.0042C689.627 66.755 690.736 65.1014 691.526 64.0435C692.655 62.6757 693.633 62.287 694.463 62.8773C695.358 63.3913 695.361 64.5036 694.471 66.2143ZM742.81 62.9671C741.905 64.4634 740.739 66.3361 739.311 68.5853C737.879 70.7631 736.377 72.9813 734.806 75.2401C733.302 77.4227 731.788 79.4623 730.264 81.3591C728.808 83.1796 727.567 84.4831 726.543 85.2696C725.858 85.7463 725.06 86.1588 724.15 86.507C723.241 86.8552 722.288 87.0987 721.292 87.2373C720.368 87.3712 719.47 87.3597 718.599 87.2029C717.731 87.1176 716.962 86.8822 716.29 86.4967C715.613 86.0397 715.03 85.3612 714.538 84.4611C714.128 83.6991 713.702 82.687 713.258 81.4249C712.886 80.1579 712.67 78.5574 712.612 76.6234C711.089 79.5967 709.345 81.9389 707.378 83.6501C705.407 85.2898 703.516 86.5294 701.706 87.3687C699.616 88.2987 697.503 88.9071 695.369 89.1941C694.369 89.2613 693.273 88.976 692.082 88.3382C690.895 87.772 689.861 86.8007 688.979 85.4244C688.092 83.9767 687.465 82.1168 687.097 79.8447C686.724 77.5011 686.823 74.6952 687.393 71.427C688.1 67.0011 689.406 62.9299 691.31 59.2132C693.285 55.4917 695.474 52.2941 697.879 49.6205C700.278 46.8753 702.685 44.7757 705.1 43.3215C707.514 41.8674 709.548 41.1565 711.201 41.189C713.154 41.4167 714.765 41.8827 716.032 42.5871C717.08 43.2345 717.796 44.2631 718.177 45.6729C718.626 47.0066 718.177 48.867 716.83 51.2543C717.816 50.9728 718.628 50.7747 719.266 50.66C719.976 50.5406 720.509 50.4688 720.866 50.4448C721.295 50.416 721.583 50.4326 721.731 50.4944C721.812 50.6325 721.87 50.9517 721.903 51.4518C721.932 51.8806 721.88 52.7095 721.747 53.9386C721.614 55.1677 721.403 56.8327 721.114 58.9337C720.824 61.0346 720.433 63.7525 719.939 67.0874C719.839 67.7401 719.737 68.357 719.633 68.9383C719.595 69.4432 719.523 69.9864 719.419 70.5676C719.381 71.0726 719.315 71.6871 719.22 72.4112C719.125 73.1354 719.006 74.0405 718.864 75.1268C718.836 75.7746 718.848 76.4916 718.901 77.2776C719.02 77.9873 719.209 78.6565 719.466 79.2852C719.724 79.9139 720.081 80.4282 720.539 80.8281C721.063 81.1518 721.754 81.2848 722.611 81.2272C723.326 81.1792 724.226 80.6881 725.312 79.7538C726.392 78.7481 727.53 77.5233 728.725 76.0793C729.916 74.5638 731.134 72.9387 732.381 71.2041C733.695 69.3932 734.907 67.661 736.016 66.0074C737.125 64.3538 738.103 62.8885 738.951 61.6114C739.869 60.3295 740.524 59.3883 740.914 58.7879C741.443 58.1064 741.99 57.7107 742.557 57.6009C743.119 57.4196 743.557 57.5337 743.872 57.9432C744.187 58.3527 744.266 58.9934 744.109 59.8653C744.023 60.7323 743.59 61.7662 742.81 62.9671ZM711.723 69.7926C711.984 68.3395 712.3 66.6316 712.671 64.6687C713.041 62.7059 713.345 60.8193 713.582 59.009C713.82 57.1986 713.971 55.717 714.037 54.5642C714.17 53.3351 714.096 52.7658 713.815 52.8565C713.463 52.9519 713.077 53.0855 712.658 53.2572C712.31 53.4241 711.853 53.5625 711.286 53.6724C710.719 53.7822 710.155 53.9278 709.593 54.1091C710.087 52.9274 710.347 51.977 710.37 51.2576C710.46 50.462 710.455 49.8523 710.355 49.4284C710.25 48.933 710.08 48.5496 709.847 48.2782C709.018 47.6879 707.66 48.3174 705.775 50.1667C703.956 51.9397 701.912 55.1634 699.642 59.8378C698.695 61.7676 697.972 63.8259 697.473 66.0127C696.969 68.128 696.636 70.1242 696.475 72.0012C696.386 73.8734 696.46 75.5192 696.699 76.9387C696.933 78.2867 697.279 79.1607 697.737 79.5606C698.575 80.2938 699.495 80.6268 700.495 80.5596C701.491 80.4209 702.472 80.0679 703.439 79.5005C704.472 78.8569 705.46 78.0728 706.403 77.1481C707.417 76.2187 708.286 75.2631 709.01 74.2814C709.805 73.2949 710.426 72.3919 710.873 71.5723C711.392 70.7479 711.675 70.1547 711.723 69.7926Z" fill="#061E4C" fill-opacity="0.07"/>
</svg>
